<svg width="250" height="54" viewBox="0 0 250 54" fill="none" xmlns="http://www.w3.org/2000/svg">
<path d="M63.612 12.2529H68.5821V36.7305C68.5821 39.0067 70 38.9619 71.2388 38.9619H82.8582V43.6335H69.8881C66.6866 43.6335 63.6045 42.6261 63.6045 37.7828V12.2529H63.612Z" fill="white"/>
<path d="M84.2687 35.6641C84.2687 32.3058 86.1866 29.6193 90.5896 29.6193C90.5896 29.6193 98.306 29.6641 98.306 29.6193C98.306 29.6193 98.3508 27.6864 98.306 27.6491C98.306 25.1566 97.0821 24.582 95.0896 24.582C92.709 24.582 87.7164 24.8879 85.0149 25.082V21.8805C88.0299 20.8282 91.4105 20.47 95.6567 20.4476C100.067 20.4178 103.284 22.2014 103.284 27.4999V43.6417H99.4105L98.3135 41.0446C98.1194 41.3581 94.0746 43.9402 90.4478 43.8954C86.5224 43.8208 84.2836 41.1939 84.2836 37.9849V35.6715L84.2687 35.6641ZM91.5149 39.6715C94.3582 39.6715 98.2985 37.7536 98.2985 37.7536V32.8655L91.3284 33.3879C89.6493 33.5446 89.2314 34.7387 89.2314 35.873V37.3581C89.2314 39.3133 90.2761 39.6715 91.5075 39.6715H91.5149Z" fill="white"/>
<path d="M104.515 21.9033L108.403 20.8286L109.321 14.4854H113.373V20.8286H119.03V24.9033H113.373V34.8958C113.373 38.3883 114.224 39.1495 115.5 39.5525C115.5 39.5525 118.418 40.4555 118.716 40.4555V43.6271H114.015C110.672 43.6271 108.403 41.5376 108.403 35.4928V24.9033H104.515V21.9033V21.9033Z" fill="white"/>
<path d="M120.604 14.1196C120.604 13.4778 120.948 13.0449 121.634 13.0449H125.276C125.918 13.0449 126.246 13.5151 126.246 14.1196V17.3807C126.246 18.0225 125.873 18.3658 125.276 18.3658H121.634C121.037 18.3658 120.604 17.9778 120.604 17.3807V14.1196ZM120.896 20.8733H125.866V43.6345H120.896V20.8733Z" fill="white"/>
<path d="M128.948 20.8734H132.828L133.918 23.3809C136.112 21.9406 138.097 20.4854 141.567 20.4854C146.59 20.4854 148.448 24.0898 148.448 28.2242V43.6346H143.478V28.1645C143.478 25.6943 142.224 24.7092 140.47 24.7092C137.687 24.7092 136.239 25.4182 133.91 26.851V43.6346H128.94V20.8734H128.948Z" fill="white"/>
<path d="M162.291 11.9102C165.112 11.9102 169.776 12.4027 172.881 13.0818V16.2012C172.836 16.2012 166.694 15.7311 162.679 15.7311C157.582 15.7311 155.716 17.7833 155.716 27.9475C155.716 34.9773 157.187 40.0818 162.687 40.0818C167.187 40.0818 172.881 39.7684 172.881 39.7684V42.8878C169.933 43.5296 165.142 43.9176 162.291 43.8952C154.358 43.8728 151.776 37.2758 151.776 27.8654C151.776 17.8355 153.761 11.9176 162.291 11.9176V11.9102Z" fill="white"/>
<path d="M176.022 10.0664H179.97V35.2754C179.97 38.8873 180.903 39.7082 182.284 40.0739C182.284 40.0739 185.545 40.9769 185.843 40.9769V43.6336H181.746C178.328 43.6336 176.022 41.5739 176.022 35.5291V10.0664Z" fill="white"/>
<path d="M195.739 20.6562C203.455 20.6562 205.866 23.5294 205.866 32.5742C205.866 41.0219 203.485 43.8503 195.739 43.8503C187.993 43.8503 185.612 40.7234 185.612 32.5742C185.612 23.2682 188.216 20.6562 195.739 20.6562V20.6562ZM195.739 40.2234C200.03 40.2234 201.925 39.6637 201.925 32.5742C201.925 24.91 200.366 24.2757 195.739 24.2757C191.112 24.2757 189.552 24.8801 189.552 32.5742C189.552 39.701 191.657 40.2234 195.739 40.2234Z" fill="white"/>
<path d="M208.537 20.8723H212.485V36.5664C212.485 39.238 213.978 40.4022 215.978 40.4022C219.134 40.4022 220.709 39.6112 223.59 38.0888V20.8723H227.537V43.6335H224.597L223.59 41.0365C221.067 42.4992 218.978 44.0141 215.508 44.0141C210.754 44.0141 208.537 40.4619 208.537 36.5291V20.8574V20.8723Z" fill="white"/>
<path d="M238.097 20.5298C240.03 20.5298 243.523 21.1119 246.09 22.179V9.97754H250V43.6343H247L246.082 41.1716C244.881 42.0746 240.955 43.8955 238.097 43.8955C232.045 43.8955 230.612 38.1044 230.612 32.3656C230.612 26.1417 231.664 20.5298 238.097 20.5298V20.5298ZM238.523 40.1865C241.597 40.1865 244.052 39.2761 246.082 38.3656V25.1566C243.5 24.4328 241.485 24.1119 238.523 24.1119C236.008 24.1119 234.56 25.6268 234.56 32.291C234.56 37.7313 235.97 40.179 238.523 40.179V40.1865Z" fill="white"/>
<path d="M44.6567 11.2987L27.1791 1.20914C26.2164 0.649443 25.097 0.358398 23.9403 0.358398C22.7836 0.358398 21.6716 0.649443 20.709 1.20914L3.23134 11.2987C1.23881 12.4479 0 14.5972 0 16.9032V37.0823C0 39.3883 1.23881 41.53 3.23134 42.6868L20.709 52.7763C21.694 53.3435 22.8134 53.642 23.9478 53.642C25.0821 53.642 26.2015 53.3435 27.1791 52.7763L44.6567 42.6868C46.6493 41.5375 47.8881 39.3883 47.8881 37.0823V16.9032C47.8881 14.5972 46.6493 12.4554 44.6567 11.2987ZM44.6866 16.9032V37.0823C44.6866 38.2465 44.0597 39.3285 43.0522 39.9106L25.5746 50.0002C25.0896 50.2838 24.5224 50.433 23.9403 50.433C23.3582 50.433 22.791 50.2838 22.306 50.0002L4.82836 39.9106C3.8209 39.3285 3.19403 38.2465 3.19403 37.0823V16.9032C3.19403 15.739 3.8209 14.6569 4.82836 14.0748L22.306 3.98526C22.7985 3.70168 23.3657 3.54497 23.9403 3.54497C24.5149 3.54497 25.0746 3.69422 25.5746 3.98526L43.0522 14.0748C44.0597 14.6569 44.6866 15.739 44.6866 16.9032Z" fill="white"/>
<path d="M29.2537 35.6641H23.7089C23.2537 35.6641 22.8432 35.8432 22.5597 36.1715C22.3209 36.4551 22.1865 36.8282 22.1865 37.2238C22.1865 37.9775 22.7238 38.776 23.7089 38.776H29.2537C29.7089 38.776 30.1194 38.5969 30.4029 38.2685C30.6417 37.985 30.7761 37.6118 30.7761 37.2163C30.7761 36.4626 30.2462 35.6641 29.2537 35.6641Z" fill="white"/>
<path d="M25.7015 41.7393H23.7015C23.2462 41.7393 22.8358 41.9184 22.5522 42.2467C22.3134 42.5303 22.1791 42.9034 22.1791 43.299C22.1791 44.0527 22.7164 44.8512 23.7015 44.8512H25.7015C26.1567 44.8512 26.5671 44.6721 26.8507 44.3437C27.0895 44.0602 27.2239 43.687 27.2239 43.2915C27.2239 42.5378 26.6865 41.7393 25.7015 41.7393Z" fill="white"/>
<path d="M20.4478 15.5371C20.694 15.2535 20.8284 14.8804 20.8284 14.4849C20.8284 13.7311 20.2911 12.9326 19.306 12.9326H15.0746C14.6194 12.9326 14.209 13.1117 13.9254 13.4401C13.6866 13.7237 13.5522 14.0968 13.5522 14.4923C13.5522 15.2461 14.0896 16.0446 15.0746 16.0446H19.306C19.7612 16.0446 20.1716 15.8655 20.4552 15.5371H20.4478Z" fill="white"/>
<path d="M32.4628 30.0518H20.4926C19.5075 30.0518 18.9702 30.8503 18.9702 31.604C18.9702 32.3577 19.5001 33.1562 20.4926 33.1562H32.4628C33.4478 33.1562 33.9851 32.3577 33.9851 31.604C33.9851 30.8503 33.4478 30.0518 32.4628 30.0518Z" fill="white"/>
<path d="M15.7985 19.8354C15.7985 20.5892 16.3358 21.3877 17.3208 21.3877H29.291C30.2761 21.3877 30.8134 20.5892 30.8134 19.8354C30.8134 19.0817 30.2761 18.2832 29.291 18.2832H17.3208C16.3358 18.2832 15.7985 19.0817 15.7985 19.8354Z" fill="white"/>
<path d="M37.8134 24.1641H13.5373C12.5522 24.1641 12.0149 24.9626 12.0149 25.7163C12.0149 26.47 12.5447 27.2685 13.5373 27.2685H37.8134C38.7985 27.2685 39.3358 26.47 39.3358 25.7163C39.3358 24.9626 38.7985 24.1641 37.8134 24.1641Z" fill="white"/>
</svg>
