<svg width="163" height="24" viewBox="0 0 163 24" fill="none" xmlns="http://www.w3.org/2000/svg">
<path d="M7.95185 15.8661V23.5959H0V0.406464H19.0444C26.9401 0.406464 30.8868 2.92095 30.8868 7.94875V8.26088C30.8868 13.3306 26.939 15.8661 19.0444 15.8661H7.95185V15.8661ZM7.95185 10.6612H18.9076C21.3652 10.6612 22.5934 9.85063 22.5934 8.2306V8.13743C22.5934 6.49643 21.3652 5.67535 18.9076 5.67535H7.95185V10.6612Z" fill="white"/>
<path d="M60.4062 0.321442V5.60198H41.453V9.03887H59.9605V14.3508H41.453V18.1628H60.7478V23.5679H33.5854V0.321442H60.4062Z" fill="white"/>
<path d="M92.2498 16.849V23.5656H85.0127V19.0572C85.0127 17.6457 84.6524 16.6242 83.9307 15.9907C83.209 15.3571 81.9714 15.0403 80.2191 15.0403H70.8157V23.5656H63.6089V0.321442H82.1667C88.826 0.321442 92.1563 2.2932 92.1563 6.24021V6.60824C92.1563 9.02023 90.7339 10.6869 87.8879 11.6069C89.1863 11.975 90.2391 12.5934 91.0427 13.4622C91.8474 14.3299 92.2498 15.4596 92.2498 16.849ZM84.6407 7.71116C84.6407 7.05779 84.4033 6.52555 83.9295 6.11675C83.4558 5.70796 82.7235 5.50298 81.7339 5.50298H70.8157V9.97991H81.7339C82.7235 9.97991 83.4558 9.77493 83.9295 9.36613C84.4033 8.95734 84.6407 8.41578 84.6407 7.74028V7.71116Z" fill="white"/>
<path d="M124.304 16.849V23.5656H117.067V19.0572C117.067 17.6457 116.707 16.6242 115.984 15.9907C115.262 15.3571 114.026 15.0403 112.272 15.0403H102.87V23.5656H95.6631V0.321442H114.221C120.88 0.321442 124.21 2.2932 124.21 6.24021V6.60824C124.21 9.02023 122.788 10.6869 119.942 11.6069C121.242 11.975 122.293 12.5934 123.098 13.4622C123.902 14.3299 124.304 15.4596 124.304 16.849ZM116.695 7.71116C116.695 7.05779 116.457 6.52555 115.984 6.11675C115.509 5.70796 114.778 5.50298 113.788 5.50298H102.87V9.97991H113.788C114.778 9.97991 115.51 9.77493 115.984 9.36613C116.457 8.95734 116.695 8.41578 116.695 7.74028V7.71116Z" fill="white"/>
<path d="M145.15 0.00116465C147.357 0.00116465 149.36 0.142088 151.156 0.421604C152.954 0.702285 154.461 1.07148 155.679 1.52802C156.896 1.98573 157.96 2.54593 158.87 3.21095C159.78 3.87596 160.491 4.54098 161.003 5.206C161.516 5.87101 161.931 6.59776 162.249 7.38739C162.567 8.17703 162.772 8.88397 162.863 9.50706C162.954 10.1301 163 10.7847 163 11.4707V12.4059C163 13.0709 162.954 13.7149 162.863 14.338C162.772 14.9611 162.567 15.6727 162.249 16.4728C161.931 17.273 161.521 18.0102 161.021 18.6857C160.52 19.3612 159.809 20.0367 158.887 20.711C157.965 21.3865 156.902 21.9584 155.696 22.4254C154.49 22.8924 152.982 23.2721 151.174 23.5632C149.366 23.8544 147.357 24 145.15 24H144.07C141.863 24 139.85 23.8544 138.03 23.5632C136.21 23.2721 134.696 22.8936 133.49 22.4254C132.284 21.9572 131.221 21.3865 130.299 20.711C129.377 20.0355 128.661 19.36 128.149 18.6857C127.637 18.0114 127.227 17.273 126.921 16.4728C126.614 15.6727 126.414 14.9611 126.323 14.338C126.232 13.7149 126.186 13.0709 126.186 12.4059V11.4707C126.186 10.7847 126.232 10.136 126.323 9.5222C126.414 8.90959 126.613 8.20265 126.921 7.40253C127.227 6.60242 127.638 5.86985 128.149 5.20483C128.661 4.53982 129.371 3.8748 130.283 3.20978C131.193 2.54477 132.256 1.9834 133.474 1.52686C134.691 1.06915 136.21 0.701121 138.03 0.42044C139.85 0.139758 141.864 0 144.07 0H145.15V0.00116465ZM154.672 11.6896C154.672 11.1085 154.592 10.5576 154.433 10.0381C154.274 9.51871 153.966 8.97831 153.511 8.41694C153.056 7.85558 152.464 7.37807 151.737 6.98326C151.009 6.58844 150.019 6.26117 148.768 6.00145C147.738 5.78832 146.571 5.66254 145.265 5.62411C144.983 5.61595 144.387 5.61363 144.192 5.61712C137.74 5.73242 134.513 7.75659 134.513 11.6896V12.0635C134.513 12.8112 134.656 13.5181 134.94 14.1831C135.225 14.8482 135.708 15.5132 136.391 16.1782C137.073 16.8432 138.131 17.3731 139.564 17.7679C140.887 18.1325 142.474 18.3281 144.321 18.3561C144.474 18.3584 144.893 18.3573 145.132 18.3514C146.842 18.3107 148.321 18.1208 149.568 17.7831C150.99 17.3987 152.054 16.8793 152.759 16.2248C153.464 15.5702 153.959 14.911 154.243 14.246C154.528 13.581 154.67 12.8741 154.67 12.1264V11.6896H154.672Z" fill="white"/>
</svg>
