<?xml version="1.0" encoding="UTF-8"?>
<svg id="Layer_2" data-name="Layer 2" xmlns="http://www.w3.org/2000/svg" viewBox="0 0 884.66 1015.93">
  <defs>
    <style>
      .cls-1 {
        fill: #f3f3e0;
      }

      .cls-2 {
        fill: #f3f3f1;
      }

      .cls-3 {
        fill: #6a00ff;
      }

      .cls-4 {
        fill: #fcfce8;
      }

      .cls-5 {
        fill: #e7e7d5;
      }

      .cls-6 {
        fill: #f1f1de;
      }

      .cls-7 {
        fill: #ececda;
      }

      .cls-8 {
        fill: #fefeea;
      }

      .cls-9 {
        fill: #fdfde9;
      }

      .cls-10 {
        fill: #fdfdea;
      }

      .cls-11 {
        fill: #a0a0a0;
      }

      .cls-12 {
        fill: #a4a4a4;
      }

      .cls-13 {
        fill: #e0e0ce;
      }

      .cls-14 {
        fill: #e1e1cf;
      }

      .cls-15 {
        fill: #131312;
      }

      .cls-16 {
        fill: #171715;
      }

      .cls-17 {
        fill: #161615;
      }

      .cls-18 {
        fill: #1e1e1c;
      }

      .cls-19 {
        fill: #21211f;
      }

      .cls-20 {
        fill: #20201e;
      }

      .cls-21 {
        fill: #0c0c0b;
      }

      .cls-22 {
        fill: #0b0b0a;
      }

      .cls-23 {
        fill: #232320;
      }

      .cls-24 {
        fill: #090909;
      }

      .cls-25 {
        fill: #090908;
      }

      .cls-26 {
        fill: #070706;
      }

      .cls-27 {
        fill: #141412;
      }

      .cls-28 {
        fill: #0d0d0c;
      }

      .cls-29 {
        fill: #11110f;
      }

      .cls-30 {
        fill: #10100f;
      }

      .cls-31 {
        fill: #10100e;
      }

      .cls-32 {
        fill: #1d1d1b;
      }

      .cls-33 {
        fill: #0f0f0e;
      }

      .cls-34 {
        fill: #1c1c1a;
      }

      .cls-35 {
        fill: #0e0e0d;
      }

      .cls-36 {
        fill: #0e0e0c;
      }

      .cls-37 {
        fill: #191917;
      }

      .cls-38 {
        fill: #181816;
      }

      .cls-39 {
        fill: #0a0a0a;
      }

      .cls-40 {
        fill: #1b1b19;
      }

      .cls-41 {
        fill: #1a1a18;
      }

      .cls-42 {
        fill: #898989;
      }

      .cls-43 {
        fill: #2f2f2f;
      }
    </style>
  </defs>
  <g id="Layer_1-2" data-name="Layer 1">
    <g>
      <path class="cls-42" d="M78.88,483.08h5.5c-1.17,1.25-2.17,1.81-3.51,1.69-.66-.56-1.32-1.12-1.98-1.69Z"/>
      <g>
        <path d="M871.49,878.96c.3,.47,.58,.95,.86,1.42-.25-.49-.53-.97-.86-1.42Z"/>
        <path d="M348.24,925.64c.56-8.29,2.22-16.49,2.01-24.85-.09-3.78,2.68-2.62,4.6-2.45,10.77,.93,21.54,1.98,32.37,1.81,3.16-.05,6.32-.3,9.47-.34,1.25-.01,2.88-.85,3.7,.52,1.02,1.69-1.17,2.01-1.77,3.04-1.19,2.05-3.08,3.39-4.95,4.81-18.08,13.69-27.32,31.55-22.51,54.29,4.83,22.81,20.44,36.12,42.61,41.18,21.17,4.83,40.76,.4,57.25-14.21,31.32-27.75,21.59-75.78-17.99-89.51-2.79-.97-5.66-1.73-8.73-2.66,29.88-5.02,59.52-9.99,88.19-19.15,66.62-21.28,132.51-44.52,196.25-73.51,20.35-9.25,41.62-16.44,61.38-27.05,6.59-3.54,12.92-7.52,18.87-12.08,.93-.71,1.96-2.67,3.24,0,6.75,14.14,17.4,25.89,24.43,39.89,3.73,7.43,7.11,14.95,9.8,22.79,6.56,19.1,15.27,37.47,19.3,57.42,.19,.96,.65,1.87,1,2.8,.9,2.44,2.46,4.28,5.22,3.27,2.69-.98,2.12-3.35,1.49-5.53-.69-2.39-1.31-4.79-1.97-7.19,0,0,0,0,0,0-3.07-13.23-8.41-25.69-12.78-38.49-8.2-24.02-18.57-46.81-33.84-67.24-2.75-3.69-4.64-8.03-6.87-12.1-.7-1.28-1.33-2.44,.16-3.93,8.39-8.37,8.05-18.35,3.84-28.19-7.36-17.18-13.39-34.93-22.13-51.53-5.04-9.57-10.04-12.71-20.52-10.3-5.36,1.24-6.86-.71-7.56-5.1-10.32-21.31-17.88-43.6-22.33-66.82-1.22-6.34-.98-13.17,.29-19.73h0c.84-13.66,.75-27.33-1.13-40.86-5.77-41.68-10.58-83.48-15.93-125.21-.38-2.98,.17-4.93,2.12-7.11,10-11.19,17.24-24.01,21.63-38.35,.89-2.89,2.49-4.68,4.69-6.63,10.11-8.92,18.68-19.08,16.59-33.72-1.19-8.32-1.84-16.48-.85-24.78,.54-4.54-.06-8.98-1.16-13.35-1.7-6.75-3.41-13.5-5.4-20.17-2.4-8.07-2.54-16.23,.09-24.07,13.94-41.6,24.6-84.05,32.92-127.07,4.8-24.79,9.89-49.57,9.94-75.07,.03-18.44-8.68-31.5-29.34-38.24-4.37,0-8.74,0-13.11,0-16.41,2.78-30.53,11-44.51,19.25-27.27,16.1-47.19,40.42-68.4,63.09-15.45,16.51-29.31,34.5-43.79,51.91-1.73,2.08-2.74,2.48-5.01,.56-4.57-3.85-9.35-7.51-14.33-10.82-40.02-26.64-84.5-36.33-131.73-31.83-75.84,7.23-136.7,41.96-182.21,103.24-3.22,4.33-6.83,4.78-11.05,1.03-5.61-4.97-11.27-9.91-15.87-15.88-7.09-9.19-15.72-16.7-25.13-23.4-19.34-13.77-40.59-21.78-64.59-21.39-20.83,.34-33.09,10.96-30.9,34.79,3.36,36.57,14.87,70.98,33.55,102.78,1.52,2.59,1.98,5.14,1.74,8.07-1.22,14.6,1.83,28.09,10.61,40.09,2.43,3.32,2.91,6.65-.19,10.16-4.74,5.39-8.29,11.58-11.54,17.98-6.62,13.06-9.29,27.26-12.28,41.36-.53,2.5-1.79,5.61,.92,7.96h0c.62,.1,1.43-.02,1.83,.33,.67,.58,.07,1.15-.53,1.37-1.54,.56-3.12,.68-4.7,.16h0c-19.34,.64-37.72,5.38-55.14,13.63-6.3,2.98-9.88,8.57-11.71,15.37-2.09,7.76-1.39,15.81-2.86,23.63-.47,2.51,.17,5.42,2.36,6.77,5.77,3.57,3.57,8.01,1.99,12.56-.92,2.66-1.77,4.44-5.39,3.07-4.24-1.61-8.89-.97-13.37-.59-18.12,1.54-35.75,5.66-53.29,10.21-5.37,1.4-10.99,2.45-15.28,6.51v3c1.78,1.16,3.36,2.36,5.84,1.21,7.27-3.35,15.09-5.08,22.86-6.77,16.55-3.59,32.99-8.11,50.19-7.27,.73,.35,1.54,.34,2.32,.52,1.01,.23,1.02,.19-.33,1.17-.79,.24-1.61,.42-2.37,.74-21.97,9.11-41.59,22.11-60.29,36.6-3.14,2.44-6,5.28-8.78,8.13-1.38,1.41-1.72,3.41-.13,4.95,1.52,1.47,3.36,1.21,4.96-.09,.9-.73,1.66-1.63,2.55-2.38,19.58-16.71,40.91-30.66,64.63-40.79,1.57-.67,3.37-2.27,4.73,1.04,1.23,2.99-.22,3.59-2.23,4.74-24.02,13.7-46.11,29.75-63.25,51.86-1.6,2.06-3.53,4.31-1.11,6.51,2.73,2.48,4.89,.16,6.56-2.03,14.93-19.49,34.4-33.65,54.78-46.75,2.5-1.61,5.13-3.1,7.87-4.21,4.08-1.65,4.62,2.73,6.53,4.51,1.82,1.7-.16,2.75-1.59,3.71-14.82,9.93-28.4,21.47-42.21,32.7-8.91,7.24-17.94,14.4-25.11,23.52-1.69,2.15-4.4,4.73-1.1,7.22,2.84,2.14,4.73-.57,6.5-2.66,2.04-2.42,4.11-4.84,6.42-6.98,15.87-14.74,32.85-28.16,50.08-41.26,3.59-2.73,7-5.85,11.84-7.6,.32,5.09,.42,9.75,.98,14.36,.32,2.66-.55,4.09-2.54,5.83-10.93,9.51-21.67,19.23-32.43,28.93-2.01,1.82-4.33,4.13-1.65,6.71,2.65,2.54,4.77-.04,6.74-1.84,8.36-7.64,16.69-15.31,25.13-22.87,2.13-1.91,4.09-4.19,7.01-5.33,.64,1.91,.85,3.7,1.76,5,2.97,4.22,1.23,7.07-1.9,10.3-4.04,4.17-7.59,8.83-11.22,13.39-1.62,2.04-3.89,4.62-1,6.92,2.89,2.3,4.74-.45,6.46-2.54,4.61-5.6,9.25-11.16,14.19-17.12,1.55,3.48,3.49,5.91,6.12,7.77,.78,.55,1.6,1.05,.42,2.26-5.18,5.32-7.45,12.51-11.72,18.43-1.6,2.22-3.33,4.86-.22,6.86,2.9,1.87,4.57-.85,5.88-2.92,3.63-5.75,7.1-11.61,10.61-17.44,.64-1.06,.79-2.93,2.71-1.86,3.76,2.08,8.07,3.69,10.92,6.67,1.77,1.85-1.58,4.93-2.27,7.56-.49,1.89-.5,3.91-.79,5.86-1.6,10.87-3.51,21.8-.25,32.64,3.66,12.17,6.08,24.96,14.47,35.14,16.6,20.15,38.28,29.41,64.18,30.08,9.59,.25,19.11-1.58,28.72-.29,7.38,.99,15.01-.3,22.26,2.18,13.67,4.67,26.53,10.61,35.81,22.37,2.47,3.13,5.32,5.97,8.15,8.79,21.35,21.23,29.81,48.62,36.14,76.82,2.53,11.27,1.74,11.45-9.75,13.06-7.49,1.05-11.3,4.81-12.53,12.37-.51,3.14-.63,6.28-.24,9.46,.93,7.46,.86,14.93,.34,22.43-.43,6.13-1.12,12.27-.67,18.44,.8,11.08,8.04,20.6,17.83,21.65,5.76,.62,6.1,3,5.57,7.65-2.23,19.51-3.4,39.11-3.81,58.75-.28,13.15-.39,26.3-.8,39.45-.16,5.14,.82,6.11,5.96,4.59,.93-1.81,1.21-3.72,1.22-5.77,.16-25.12,.59-50.23,2.29-75.31Zm49.51-124.43c1.54-2.54,4.53-2.23,6.82-3.28,1.29-.59,2.01,.66,2.44,1.95-.14,1.57-1.74,1.33-2.59,1.51-2.18,.47-4.26,1.8-6.61,1.1-.14-.04-.25-.97-.05-1.29Zm83.55,137.91c4.87,19.07-2.3,34.65-17.07,46.87-23.44,19.39-60.58,15.8-78.24-7.38-14.49-19.03-11.16-46.4,7.5-61.35,.49-.4,1.12-.62,1.72-.95,2.7,8.26,3.84,9.16,12.69,9.82,6.17,.46,12.32,.61,17.95-2.62,5.43-3.11,8.49-7.87,9.16-14.03,.45-4.16,2.67-6.24,6.77-5.34,19.64,4.33,34.37,14.79,39.52,34.98Zm-75.2-27.45c5.4,5.63,11.55,3.03,17.54,2.45-3.86,4.21-8.71,5.13-13.72,4.69-3.97-.35-4.16-3.54-3.82-7.15Zm376.16-237.69c4.47-1.07,7.97,.44,10.31,4.85,9.33,17.64,15.94,36.44,23.53,54.81,3.54,8.55,1.19,13.06-4.32,19.07-13.14,14.31-30.19,22.06-47.49,29.15-39.3,16.11-77.59,34.68-117.52,49.21-44.24,16.1-88.24,33.07-133.82,45.13-27.3,7.23-55.03,12.73-83.24,15.28-1.82,.16-3.66,.02-5.49,.02q-8.16,.07-10.52-7.87c-3.55-12.08-8.4-23.87-9.98-36.39-1.29-10.25-3.76-20.25-5.26-30.44-.59-4.02-.17-5.94,4.51-7.34,33.04-9.9,67.34-15.1,99.88-26.75,60.44-21.63,120.48-44.31,179.32-70.04,26.3-11.5,52.66-22.86,79.54-32.91,6.64-2.48,13.63-4.12,20.55-5.78Zm-12.85-366.21c-.53,3.34-.55,6.77,.28,9.93,2.22,8.44,2.02,16.28-3.97,23.24,0,0,0,0,0,0,0,0,0,0,0,0-.45,2.53-2.43,4.11-3.79,6.06-.18,.85-1.12,1.79-1.48,1.43-1.12-1.12-.56-2.48,.23-3.68,.84-7.58,.41-15.18,.31-22.77-1.79-12.04-4.55-23.81-10-34.8-.53-1.07-.85-2.01,.05-3.14,4.75-6.02,7.75-13.05,11.4-20.59,4.11,15.05,9.39,29.07,6.98,44.33Zm-150.48-167.4c19.54-22.91,37.54-47.19,59.19-68.24,12.04-11.71,22.69-24.83,36.17-35.11,13.3-10.14,27.83-18.04,43.02-24.83,5.8-2.59,11.94-4.06,18.24-4.74,11.77-1.28,26.79,9.88,29.43,21.65,3.07,13.68,.7,27.19-1.19,40.68-5.83,41.51-14.96,82.38-26.04,122.73-6.7,24.38-13.48,48.88-23.85,72.11-2.08,4.67-4.25,9.32-7.65,13.64-10.67-17.28-24.91-30.45-43.23-39.82,4.52-1.34,8.64-2.31,12.56-3.81,2.4-.92,5.39-2.43,3.75-5.84-1.52-3.16-4.09-1.48-6.48-.69-10.33,3.45-20.73,5.73-31.68,2.51-4.28-1.26-8.81-1.68-13.22-2.51-1.09-.21-2.69,.29-3.1-1.06-1.46-4.75-2.8-9.55-3.98-14.38-.69-2.82,1.68-4.57,3.02-6.55,12.67-18.6,27.46-35.13,46.99-46.84,7.73-4.63,16.02-8.01,24.93-9.64,5.44-.99,7.77,.52,8.97,5.92,2.06,9.28-.27,17.85-4.98,25.78-5.76,9.7-10.42,20.04-16.97,29.27-1.21,1.71-1.52,3.59,.24,4.88,1.77,1.3,3.97,1.11,5.38-.7,1.82-2.35,3.52-4.85,4.9-7.48,6.12-11.73,14.32-22.41,17.94-35.39,1.83-6.55,1.96-13.13-.11-19.66-2.55-8.07-7.65-11.23-15.95-9.76-18.1,3.19-32.99,12.57-46.7,24.28-10.85,9.26-19.65,20.31-28.11,31.67-.98,1.31-1.96,2.63-3.08,4.14-8.72-22.14-21.28-41.35-38.07-57.74-1.57-1.53-1.95-2.58-.33-4.48Zm97.67,196.52c.02,27.34-21.91,49.74-48.74,49.8-28.02,.06-50.13-21.63-50.21-49.27-.08-27.4,22.04-49.55,49.46-49.55,27.28,0,49.47,21.99,49.49,49.02ZM301.8,206.09c38.82-50.84,90.18-80.27,153.29-89.01,40.14-5.56,78.6,.33,114.56,19.78,9.1,4.92,17.52,10.84,25.43,17.53,1.91,1.62,2.31,2.7,.62,4.75-9.55,11.54-18.81,23.32-28.53,34.71-5.42,6.34-15.97,10.42-23.1,10.09-25.5-3.8-51.16-2.71-76.79-3.02-16.3-.2-32.59-1.37-48.89-1.56-21.05-.25-41.73,2.58-62.16,7.94-14.3,3.75-28.26,8.37-42.05,13.62-2.85,1.09-5.02,1.74-6.23-2.25-.77-2.54-3.08-4.43-5.38-5.74-3.68-2.09-2.96-3.96-.76-6.83Zm-120.83,37.78c-4.67,6.64-7.2,14.44-9.98,22.14-16.8-27.36-24.87-57.28-30.02-88.19-.88-5.28-1.42-10.45-.24-15.82,2.77-12.53,8.79-17.56,21.77-18.11,22.89-.97,43.01,6.68,61.44,19.56,8.75,6.11,16.87,12.93,23.52,21.42,3.46,4.42,7.52,8.38,11.99,13.3-14.85-.84-28.09,2.24-40.46,8.94-1.55,.84-2.78,.37-4.24,.03-2.9-.68-5.83-1.39-8.79-1.64-6.31-.55-10.01,1.96-12.24,7.9-.23,.62-.65,1.23-.66,1.85-.15,11.19-5.95,19.9-12.08,28.62Zm27.63-30.42c-3,2.41-5.96,4.78-9.39,7.54,1.53-8.7,3.25-9.99,9.39-7.54Zm-89.02,223.84c4.38-1.72,6.81,3.62,9.68,6.38,1.54,1.48,2.64,3.4,4.01,5.06,3.63,4.39,7.97,7.46,15.33,7.25-8.91,4.13-16.53,6.4-24.9,4.32-6.36-1.58-8.83-4.28-8.67-10.73,.11-4.58-.18-10.42,4.55-12.28Zm9.76,105.6c-4.8,3.49-4.15,9.06-3.19,14.25,.32,1.75,1.02,3.44,1.56,5.18-3.74-.2-10.95-6.06-11.62-9.35-.33-1.63,.45-1.97,1.9-1.99,1.74-.02,2.75-1.05,2.83-2.82,.05-1.08-.53-1.91-1.42-2.48-1.54-.99-2.99-.65-3.93,.77-1.92,2.91-2.68,.51-3.16-.78-2.29-6.08-4-12.31-4.35-18.85-.12-2.32-.43-4.65-.39-6.97,.04-2.31-1.99-5.13,.26-6.82,2.9-2.17,9.15-.66,11.56,2.15,3.81,4.43,6.6,9.53,9.5,14.55h0s0,0,0,0c.51,1.16,2.27,1.51,2.09,3.14,2.32,3.81,2.73,6.85-1.64,10.02Zm202.49,201.23c-4.3-9.47-11.29-17.21-18.13-24.95-3.53-3.99-7.39-7.69-10.87-11.73-7.78-9.02-17.14-15.65-28.39-19.62-1.83-.64-3.56-1.57-6.55-2.91,14.11-1.8,26.98-3.21,39.77-5.1,42.46-6.27,85.14-11.01,127.34-19,13.41-2.54,26.39-6.68,38.8-12.3,18.57-8.42,38.23-14.17,56.42-23.5,2.75-1.41,6.31-2.21,4.51-6.11-1.89-4.11-5.14-1.58-7.68-.36-22.44,10.79-45.87,19.21-69,28.29-20.53,8.07-42.46,10.7-64.19,13.73-32.8,4.58-65.56,9.43-98.4,13.67-27.21,3.52-54.35,8.03-81.94,7.67-23.45-.3-43.57-7.95-59.17-26.04-2.3-2.67-4.54-5.38-5.81-8.65-4.08-10.5-8.25-20.96-9.94-32.24-.52-3.46,.69-4.42,3.53-5.12,4.05-1,8.08-1.94,12.3-1.65,17.31,1.21,34.62-.22,51.93-.11,15.27,.09,30.24,1.74,44.73,6.5,17.43,5.72,34.85,6.77,53.07,3.76,21.63-3.57,43.62-5.01,64.98-10.41,5.85-1.48,11.33-3.8,16.23-7.31,5.84-4.18,5.84-10.18,.05-14.44-6.69-4.92-14.77-5.89-22.56-7.27-25.38-4.51-50.87-8.52-76.04-14.08-22.03-4.86-44-10.13-65.74-16.14-25.25-6.98-50.95-10.58-76.96-12.4-3.16-.22-4.91-1.41-6-3.94-3.77-8.72-8.95-16.56-15.01-24.07,5.17-1.65,9.16-4.77,12.72-8.56,5.32-5.65,11.53-10.13,18.81-12.8,13-4.78,22.86-13.45,30.78-24.45,5.88-8.17,12.47-15.99,14.04-26.58,1.4-9.4-1.93-16.86-10.4-21.14-4.69-2.37-9.54-4.41-14.32-6.6,14.81-.06,28.04-4.33,40.47-11.59,6.6-3.86,10.27-9.77,11.81-17.08,.44-2.1,.69-4.64-2.06-5.43-3.13-.9-4.15,1.55-4.63,3.9-2.37,11.48-11.93,14.65-21.02,18.33-2.71,1.1-3.73-1.29-4.89-2.97-1.5-2.18-2.81-4.5-4.25-6.72-5.58-8.62-13.33-13.24-23.97-12.67,4.48-15.34,11-29.25,21.83-41.04,12.72-13.86,22.71-29.93,35.03-44.15,7.19-8.3,13.75-17.14,20.62-25.71,8.65-10.78,19.46-18.73,32.65-22.78,23.28-7.15,46.18-15.47,69.41-22.68,24.87-7.72,50.42-12.44,76.64-11.21,18.79,.88,37.59,2.13,56.39,1.77,19.68-.37,39.27-.02,58.82,2.14,2.47,.27,4.95,.86,7.41,.8,11.76-.3,21.35-5.55,28.87-14.18,9.19-10.53,17.93-21.46,26.6-32.44,2.13-2.7,3.04-2.38,5.11-.15,15.98,17.14,26.95,36.98,32.9,59.66,.98,3.73,.24,4.97-3.6,5.85-41.89,9.63-69.02,35.44-80.33,76.63-13.51,49.21,12,101.31,58.66,121.97,3.71,1.64,3.66,2.87,1.86,5.92-7.74,13.18-18.79,23.72-27.91,35.78-16.33,21.59-39.25,34.63-61.35,48.83-10.93,7.02-22.02,13.66-34.26,18.24-2.62,.98-4.32,1.58-6.61-1.15-3.29-3.91-8.48-4.42-13.29-4.75-16.47-1.14-31.11,2.61-41.5,16.65-3.83,5.17-5.25,11.01-4.17,17.45,1.02,6.09,2.33,12.09,4.92,17.73,2.69,5.86,6.98,9.38,13.64,10.24,11.37,1.47,22.63,.98,33.75-1.55,11-2.5,17.69-9.7,19.8-20.62,.83-4.28,3.05-5.89,6.65-7.39,48.42-20.13,89.44-50.22,122.06-91.45,7.86-9.93,14.64-20.6,20.28-31.96,.96-1.93,1.89-2.96,4.45-2.87,26.87,1.01,50.8-6.97,71.69-23.94,.63-.51,1.27-1.01,2.36-1.88,1.81,6.94,2.57,13.64,3.15,20.3,2.69,31.03,7.34,61.81,11.59,92.64,2.62,19.02,3.61,38.07,1.82,57.22-1.58,16.91,4.14,32.45,9.15,48.09,4.04,12.63,8.92,24.96,14.41,37.04,.64,1.4,2.32,2.82-.98,4.01-30.69,11.1-60.53,24.3-90.46,37.26-59.34,25.7-119.71,48.71-180.77,69.93-22.76,7.91-46.45,12.45-69.8,18.21-2.38,.59-3.8,.08-4.69-2.24-1.33-3.48-3.63-6.33-6.31-8.85-4.1-3.87-8.8-5.12-14.24-3.07-2.63,.99-5.36,1.7-8,2.67-8.52,3.13-11.48,7.69-10.51,16.78,.43,4.03,.12,6.4-4.98,6.56-6.96,.22-13.9,1.35-20.83,2.22-2.37,.3-3.11-.41-3.28-2.86-1.5-22.59-9.79-43.22-18.99-63.5Zm-97.67-176.63c-1.95,1.93-3.53,2.06-5.61,1.19-12.75-5.38-25.61-5.02-38.45-.56-4.76,1.66-9.1-.91-13.74-.69-3.29,.15-6.6,.07-9.92,.34-2.97,.25-5.88,1.8-8.54-2.19-1.78-2.68-5.75-.32-8.05,1.39-3.15,2.35-4.47,.95-5.69-1.78-2-4.46-2.28-9.09-.39-13.55,2.26-5.34,7.52-4.33,11.71-4.33,26.93,0,53.1,4.91,78.99,12.07,40.4,11.16,81.51,19.08,122.89,25.66,4.69,.75,9.23,2.48,13.78,3.96,1.35,.44,2.87,1.34,2.93,3.09,.07,2.01-1.88,2.15-3.14,2.65-5.33,2.14-11.03,2.56-16.65,2.8-9.3,.39-18.6,1.5-27.79,.27-24.28,.03-47.61-5.75-71.18-9.88-2.38-.42-2.78-2.3-3.22-3.94-1.24-4.67-3.05-9.09-5.06-13.48-2.94-6.43-7.94-7.89-12.87-3.01Zm8.21,17.32h-11.9c1.37-4.1,4.6-6.93,7.06-10.62,2.53,3.11,2.49,6.91,4.84,10.62Zm-48.61-8.85c-.28-1.57,.82-1.82,2.02-2.21,9.9-3.22,19.61-2.51,29.28,1.04,2.06,.76,1.99,1.51,1.08,3.24-4.89,9.3-4.82,9.65-15.87,10.42-4.81,.33-9.56,.96-14.31,1.55-2.28,.28-3.72,.23-2.94-2.15,.35-4.28,1.45-8.02,.76-11.88Zm-6.85,14.74c-10.04,.96-19.9,1.8-29.85,1.45-2.69-.09-3.67-.8-3.32-3.71,.53-4.47-.36-8.2,5.86-10.94,9.15-4.03,17.09-1.47,25.51,.47,1.69,.39,1.35,1.91,1.14,3.29-.46,3.09-.63,6.2,.65,9.44Zm-39.34-13.29c-.32,3.56-.67,6.82-.87,10.09-.1,1.63-.09,2.95-2.4,2.53-1.79-.33-2.74-.99-2.16-2.93,1.05-3.56,1.43-7.5,5.43-9.68Zm307.41-11.98c1.52,6.9,8.44,11.13,16.04,10.11,5.93-.8,11.69-2.18,17.42-4.17-.88,6.15-5.95,11.43-12.39,12.42-9.53,1.47-19.08,2.52-28.79,1.24-4.49-.59-7.39-2.47-9-6.64-2.05-5.31-3.61-10.8-3.96-16.42-.39-6.35,3.28-11.23,8.11-14.69,10.56-7.56,22.28-9.88,35.08-5.12-4.1,1.11-8.21,2.21-12.31,3.34-6.66,1.85-11.93,12.14-10.21,19.92Zm-114.89,324.18c-7.44-.71-12.69-7.58-13.13-16.38-.3-6,.41-11.96,.91-17.92,.69-8.32-.17-16.6-.6-24.9-.46-8.94,1.38-10.67,10.32-11.26,8.13-.54,16.3-1.48,24.4-1.09,6.11,.3,11-3.64,16.93-3.36,1.93,.09,3.01,.1,3.3,2.38,2.57,20.25,5.94,40.34,12.22,59.84,.86,2.67,1.16,5.52,1.72,8.29q1.55,7.55-6.39,7.69c-3,.04-5.99,0-8.99,0-13.67,.32-27.15-1.98-40.69-3.28Z"/>
        <path class="cls-11" d="M783.9,.9c-.13-.29-.15-.59-.06-.9h-13c.11,.31,.09,.61-.06,.9,4.37-.62,8.74-.62,13.11,0Z"/>
        <path class="cls-11" d="M770.8,.9c4.37,0,8.74,0,13.11,0-4.37-.62-8.74-.62-13.11,0Z"/>
        <path class="cls-8" d="M883.84,906.88c-2.64-9.38-6.41-18.23-11.49-26.51,1.02,1.99,1.43,4.22,2.2,6.3,.82,2.23,.39,4.41-1.92,5.58-2.26,1.14-4.22,.23-5.8-1.53-1.6-1.79-2.46-4.01-2.91-6.29-4.25-21.4-14.01-40.94-20.81-61.48-3.73-11.27-9.84-21.5-16.19-31.49-4.74-7.44-10.33-14.34-14.35-22.24-1.15-2.26-2.44-2.88-4.68-1.24-17.26,12.62-36.88,20.61-56.5,28.55-28.73,11.62-56.84,24.67-85.53,36.39-23,9.4-46.62,17.04-69.98,25.42-26.19,9.38-52.4,18.77-79.34,25.82-22.53,5.9-45.39,10.22-67.07,13.49,19.21,3.76,41.8,23.92,41.58,51.8-.18,22.31-12.01,38.24-30.92,49.17-8.35,4.83-17.5,6.53-27.14,7.43-16.68,1.56-31.3-2.59-44.25-12.9-23.09-18.39-26.77-50.16-8.79-73.59,3.81-4.97,8.46-8.9,13.29-12.75,1.64-1.3,3.51-2.51,4.21-4.74-1.25-1.39-2.85-.88-4.25-.85-12.5,.27-24.97-.28-37.41-1.37-2.54-.22-4.26,.11-4.44,3.12-1.34,22.24-3.9,44.44-3.85,66.72,.02,10.14-.8,20.26-.27,30.4,.13,2.47,.1,5.09-2.49,6.64,2.72,3.3,5.54,6.26,10.52,4.7,.73-.23,1.88,.53,2.71,1.04,6.34,3.84,13.17,4.06,20.2,2.76,9.59-1.78,19.11-4.06,28.77-5.29,14.1-1.79,28.4-2.14,42.41-4.36,23.05-3.66,46.19-6.01,69.43-7.85,14.48-1.15,28.97-2.84,43.29-5.23,22.64-3.79,45.36-7.06,68.03-10.65,21.53-3.41,43.05-6.94,64.57-10.45,14.37-2.34,28.78-4.49,43.37-4.54,30.14-.1,60.29,.12,90.43-.12,8.71-.07,16.95-2.74,24.47-7.35,12.91-7.91,21.34-19.67,27.96-32.86,3.07-6.11,4.94-12.57,2.95-19.63Z"/>
        <polygon class="cls-8" points="871.49 878.95 871.49 878.95 871.49 878.96 871.49 878.95"/>
        <path class="cls-8" d="M347.22,1000.08c-.52-10.14,.3-20.26,.27-30.4-.05-22.28,2.5-44.48,3.85-66.72,.18-3.01,1.9-3.34,4.44-3.12,12.44,1.09,24.91,1.63,37.41,1.37,1.4-.03,3-.53,4.25,.85-.7,2.23-2.58,3.44-4.21,4.74-4.83,3.85-9.48,7.78-13.29,12.75-17.97,23.43-14.3,55.2,8.79,73.59,12.94,10.31,27.57,14.46,44.25,12.9,9.64-.9,18.79-2.6,27.14-7.43,18.9-10.93,30.74-26.86,30.92-49.17,.22-27.88-22.37-48.04-41.58-51.8,21.68-3.27,44.54-7.6,67.07-13.49,26.94-7.05,53.16-16.43,79.34-25.82,23.36-8.37,46.98-16.02,69.98-25.42,28.69-11.72,56.8-24.77,85.53-36.39,19.61-7.94,39.24-15.93,56.5-28.55,2.23-1.63,3.52-1.02,4.68,1.24,4.03,7.9,9.62,14.79,14.35,22.24,6.36,9.99,12.46,20.22,16.19,31.49,6.8,20.54,16.56,40.08,20.81,61.48,.45,2.28,1.31,4.5,2.91,6.29,1.58,1.76,3.54,2.67,5.8,1.53,2.31-1.17,2.74-3.35,1.92-5.58-.77-2.08-1.18-4.31-2.2-6.3-.29-.47-.57-.95-.86-1.42,0,0,0,0,0,0,.65,2.4,1.28,4.8,1.97,7.19,.63,2.18,1.21,4.55-1.49,5.53-2.76,1.01-4.32-.82-5.22-3.27-.34-.93-.8-1.84-1-2.8-4.03-19.95-12.75-38.32-19.3-57.42-2.69-7.84-6.07-15.36-9.8-22.79-7.03-14.01-17.68-25.76-24.43-39.89-1.27-2.67-2.31-.71-3.24,0-5.96,4.55-12.28,8.54-18.87,12.08-19.76,10.61-41.03,17.8-61.38,27.05-63.75,28.99-129.64,52.23-196.25,73.51-28.67,9.16-58.31,14.13-88.19,19.15,3.07,.93,5.94,1.69,8.73,2.66,39.58,13.73,49.31,61.75,17.99,89.51-16.49,14.61-36.08,19.04-57.25,14.21-22.16-5.05-37.78-18.37-42.61-41.18-4.81-22.73,4.43-40.59,22.51-54.29,1.88-1.42,3.76-2.76,4.95-4.81,.6-1.03,2.79-1.35,1.77-3.04-.83-1.37-2.45-.54-3.7-.52-3.16,.04-6.32,.29-9.47,.34-10.83,.17-21.6-.88-32.37-1.81-1.93-.17-4.7-1.33-4.6,2.45,.21,8.36-1.45,16.56-2.01,24.85-1.69,25.07-2.13,50.19-2.29,75.31-.01,2.04-.29,3.95-1.22,5.77,2.6-1.54,2.62-4.16,2.49-6.64Z"/>
        <path class="cls-4" d="M759.6,627.93c4.08,11.38,7.65,22.94,12.18,34.16-.56-6.03-3.6-11.34-4.93-17.15-5.31-23.23-12.23-46.07-17.12-69.41h0c-.65,18.21,3.8,35.48,9.87,52.4Z"/>
        <path class="cls-4" d="M749.44,595.26c4.45,23.22,12.01,45.51,22.33,66.82-4.53-11.22-8.1-22.78-12.18-34.16-6.07-16.93-10.52-34.19-9.87-52.4-1.26,6.56-1.5,13.4-.29,19.73Z"/>
        <path class="cls-43" d="M156.08,399.88h0c-.41,1.93-2.5,.83-3.4,1.87q3.11-.53,3.4-1.87Z"/>
        <path class="cls-43" d="M157.39,401.58c.6-.22,1.2-.79,.53-1.37-.4-.35-1.21-.24-1.83-.33h0q-.29,1.34-3.4,1.87h0c1.59,.52,3.17,.39,4.7-.16Z"/>
        <path class="cls-8" d="M354.1,810.48c6.93-.87,13.87-1.99,20.83-2.22,5.11-.16,5.41-2.54,4.98-6.56-.97-9.08,1.99-13.64,10.51-16.78,2.64-.97,5.37-1.68,8-2.67,5.44-2.05,10.14-.79,14.24,3.07,2.68,2.52,4.97,5.37,6.31,8.85,.89,2.32,2.31,2.83,4.69,2.24,23.35-5.76,47.04-10.3,69.8-18.21,61.06-21.22,121.44-44.23,180.77-69.93,29.93-12.96,59.77-26.16,90.46-37.26,3.3-1.19,1.62-2.62,.98-4.01-5.49-12.08-10.36-24.41-14.41-37.04-5.01-15.63-10.72-31.18-9.15-48.09,1.79-19.15,.8-38.2-1.82-57.22-4.25-30.83-8.9-61.61-11.59-92.64-.58-6.66-1.35-13.36-3.15-20.3-1.09,.87-1.73,1.37-2.36,1.88-20.89,16.98-44.82,24.95-71.69,23.94-2.56-.1-3.49,.93-4.45,2.87-5.64,11.36-12.42,22.02-20.28,31.96-32.62,41.23-73.64,71.32-122.06,91.45-3.6,1.5-5.82,3.11-6.65,7.39-2.11,10.92-8.81,18.12-19.8,20.62-11.12,2.53-22.37,3.02-33.75,1.55-6.66-.86-10.95-4.38-13.64-10.24-2.59-5.64-3.9-11.63-4.92-17.73-1.08-6.45,.35-12.28,4.17-17.45,10.39-14.04,25.03-17.79,41.5-16.65,4.81,.33,10,.84,13.29,4.75,2.29,2.72,3.99,2.13,6.61,1.15,12.23-4.58,23.33-11.22,34.26-18.24,22.1-14.2,45.02-27.24,61.35-48.83,9.12-12.06,20.17-22.61,27.91-35.78,1.79-3.05,1.84-4.28-1.86-5.92-46.66-20.66-72.16-72.76-58.66-121.97,11.31-41.2,38.43-67,80.33-76.63,3.84-.88,4.58-2.13,3.6-5.85-5.95-22.68-16.91-42.52-32.9-59.66-2.07-2.22-2.98-2.54-5.11,.15-8.66,10.98-17.41,21.9-26.6,32.44-7.52,8.62-17.11,13.88-28.87,14.18-2.46,.06-4.94-.52-7.41-.8-19.56-2.17-39.14-2.52-58.82-2.14-18.8,.36-37.59-.9-56.39-1.77-26.21-1.22-51.77,3.49-76.64,11.21-23.24,7.22-46.13,15.54-69.41,22.68-13.19,4.05-24,11.99-32.65,22.78-6.88,8.57-13.44,17.41-20.62,25.71-12.32,14.22-22.3,30.29-35.03,44.15-10.83,11.79-17.35,25.69-21.83,41.04,10.64-.56,18.39,4.06,23.97,12.67,1.44,2.23,2.75,4.54,4.25,6.72,1.16,1.68,2.18,4.07,4.89,2.97,9.1-3.68,18.66-6.85,21.02-18.33,.48-2.35,1.5-4.8,4.63-3.9,2.76,.79,2.51,3.33,2.06,5.43-1.54,7.31-5.22,13.22-11.81,17.08-12.42,7.27-25.65,11.53-40.47,11.59,4.78,2.19,9.63,4.23,14.32,6.6,8.47,4.28,11.8,11.74,10.4,21.14-1.57,10.59-8.16,18.4-14.04,26.58-7.92,11-17.78,19.68-30.78,24.45-7.28,2.68-13.5,7.15-18.81,12.8-3.56,3.79-7.55,6.91-12.72,8.56,6.06,7.51,11.24,15.34,15.01,24.07,1.09,2.53,2.84,3.72,6,3.94,26.01,1.82,51.71,5.42,76.96,12.4,21.74,6.01,43.71,11.28,65.74,16.14,25.17,5.56,50.66,9.56,76.04,14.08,7.79,1.38,15.87,2.36,22.56,7.27,5.79,4.25,5.79,10.26-.05,14.44-4.9,3.5-10.38,5.83-16.23,7.31-21.36,5.4-43.34,6.84-64.98,10.41-18.21,3.01-35.64,1.96-53.07-3.76-14.49-4.76-29.46-6.4-44.73-6.5-17.31-.11-34.62,1.32-51.93,.11-4.21-.29-8.24,.65-12.3,1.65-2.84,.7-4.05,1.67-3.53,5.12,1.69,11.28,5.86,21.74,9.94,32.24,1.27,3.26,3.51,5.98,5.81,8.65,15.6,18.1,35.72,25.74,59.17,26.04,27.59,.35,54.73-4.16,81.94-7.67,32.84-4.24,65.61-9.09,98.4-13.67,21.73-3.03,43.66-5.66,64.19-13.73,23.13-9.09,46.55-17.51,69-28.29,2.53-1.22,5.78-3.75,7.68,.36,1.8,3.9-1.76,4.7-4.51,6.11-18.19,9.33-37.85,15.08-56.42,23.5-12.41,5.62-25.39,9.76-38.8,12.3-42.2,7.99-84.88,12.73-127.34,19-12.79,1.89-25.66,3.3-39.77,5.1,2.99,1.34,4.72,2.26,6.55,2.91,11.25,3.97,20.62,10.6,28.39,19.62,3.48,4.03,7.34,7.73,10.87,11.73,6.84,7.74,13.83,15.48,18.13,24.95,9.2,20.27,17.49,40.9,18.99,63.5,.16,2.46,.91,3.16,3.28,2.86ZM136.87,509.81c.27-2.14,1.68-3.12,3.8-3.13,1.95,.14,3.2,1.19,3.14,3.13-.08,2.32-1.56,3.74-3.86,3.66-2.13-.07-3.36-1.44-3.07-3.66Zm5.32,21.84c-2.14,.23-3.38-1.04-3.49-3.26,.1-2.49,1.32-4.25,3.82-4.35,2.08-.08,3.4,1.4,3.31,3.55-.09,2.24-1.41,3.82-3.64,4.06Zm7.45-22c.15-1.9,1.37-2.92,3.37-2.9,2.57,.03,3.24,1.8,3.74,3.47-.47,2.39-1.5,3.89-3.74,3.59-2.26-.3-3.55-1.84-3.36-4.16Zm4.36,15.37c-2.27,.11-3.92-.72-4.06-3.21-.15-2.55,1.7-3.51,3.77-3.69,2.37-.2,4.33,.71,4.31,3.52-.02,2.54-1.8,3.27-4.02,3.38Zm1.56-29.01c-1.75-.03-2.74-1.03-2.81-2.75-.08-1.9,.85-3.21,2.83-3.27,1.95-.05,2.89,1.22,3.21,3.06-.26,1.87-1.26,2.99-3.22,2.95Zm8.45,8.17c-.07-2.18,1.13-3.45,3.35-3.43,2.04,.02,2.97,1.31,2.95,3.24-.02,1.94-1.01,3.09-3.06,3.2-1.88-.12-3.18-1.03-3.24-3.01Zm8.82,24.57c-2.18-.47-4.19-1.03-4.18-3.59,0-2.45,1.61-3.55,3.89-3.49,2.38,.06,4.36,1.05,4.31,3.73-.05,2.49-2.1,3.06-4.02,3.35Zm10.79-12.73c-1.74-.03-2.76-1-2.82-2.73-.08-1.91,.87-3.2,2.83-3.27,1.96-.07,2.85,1.27,3.24,2.87-.28,2.08-1.3,3.17-3.25,3.14Zm1.83-32.38c-1.86-.24-3.59-1.16-3.51-3.49,.09-2.45,1.64-3.52,3.94-3.54,2.45-.02,3.51,1.47,3.77,3.51-.42,2.61-1.93,3.81-4.21,3.52Zm4.94,15.24c.02-2.33,1.54-3.66,3.84-3.61,1.9,.04,2.99,1.22,3.05,3.38-.12,1.94-1.17,3.24-3.33,3.39-2.19,.15-3.58-.98-3.56-3.15Zm7.81,27.04c-.24,2.19-1.61,3.21-3.7,3.1-1.94-.1-2.99-1.37-2.94-3.27,.07-2.36,1.57-3.45,3.73-3.73,2.2,.44,3.14,1.76,2.91,3.9Zm43.56-64.28c1.92,.01,2.98,1.04,3.15,2.96-.26,1.94-1.39,3.03-3.26,2.95-1.94-.08-2.91-1.36-2.79-3.28,.11-1.73,1.19-2.64,2.9-2.63Zm-13.94,20.22c-.12,2.44-1.97,3.25-4.18,3.35-2.23-.09-4.03-.82-3.95-3.43,.08-2.55,1.96-3.35,4.12-3.32,2.14,.03,4.13,.79,4,3.39Zm-12.74-35.24c.2-1.88,1.52-2.93,3.45-2.71,1.7,.19,2.6,1.34,2.55,3.06-.06,1.98-1.19,2.95-3.12,3.01-1.91-.34-3.08-1.44-2.88-3.36Zm-8.17,23.97c.08-1.72,1.13-2.73,2.86-2.77,1.96-.05,3.15,.99,3.18,2.96,.03,1.99-1.31,2.84-2.86,3.17-2.16-.34-3.27-1.41-3.18-3.36Zm2.2,30.18c-.02-1.93,1.2-2.98,3.15-2.96,1.74,.02,2.75,1,2.84,2.72,.1,1.93-.9,3.05-2.83,3.34-1.89-.19-3.13-1.2-3.15-3.1Zm4.03,25.72c-.02-2.25,1.52-3.56,3.82-3.59,2.22-.02,3.18,1.35,3.29,3.44-.21,2.14-1.5,3.27-3.52,3.36-2.12,.1-3.57-1.2-3.59-3.22Zm7.16,20.56c-2.28-.06-3.64-1.12-3.57-3.31,.08-2.57,1.86-3.72,4.22-3.98,2.14-.24,3.69,.76,3.72,2.94,.03,2.8-2,3.9-4.36,4.35Zm7.13-49.37c-2.05,.09-3.33-1.11-3.57-3.17,.3-2.38,1.6-3.73,3.88-3.68,2.1,.05,3.31,1.38,3.24,3.52-.08,2.19-1.62,3.24-3.55,3.33Zm11.91,32.75c-2.08,0-3.41-1.18-3.29-3.4,.12-2.15,1.4-3.29,3.55-3.14,2.02,.14,2.68,1.58,2.8,3.24-.14,2.06-1.16,3.31-3.07,3.31Zm5.09-35.54c-2.03-.35-3.33-1.51-3.28-3.66,.05-1.95,1.37-3.18,3.21-3.13,2.07,.05,3.4,1.42,3.31,3.59-.08,1.91-1.29,2.98-3.24,3.21Zm.03-43.94c-2.03-.04-3.42-1.02-3.6-3.21-.18-2.24,1.05-3.28,3.2-3.59,2.04,.3,3.84,1.09,3.85,3.53,.02,2.12-1.32,3.31-3.45,3.27Zm48.93,42.09c-.14,2.31-1.39,3.67-3.66,3.8-2.2,.12-3.42-1.34-3.44-3.33-.02-2.18,1.21-3.72,3.61-3.77,2.19-.05,3.24,1.23,3.49,3.3Zm-6.17-23.59c2.13,0,3.47,1.2,3.38,3.39-.08,1.88-1.23,2.99-3.27,3.1-2.02-.25-3.34-1.39-3.35-3.51,0-2,1.37-2.98,3.25-2.98Zm-13.61,6.3c.04,1.9-1.1,2.97-3.02,3.16-1.96-.19-2.93-1.32-2.89-3.23,.04-1.7,1-2.78,2.72-2.85,1.93-.07,3.14,1,3.19,2.92Zm-24.17,36.97c-.21-2.15,.98-3.39,3.11-3.71,1.89,.09,3.22,.92,3.42,2.89,.23,2.22-1.02,3.49-3.12,3.67-1.91,.16-3.23-.92-3.41-2.84Zm6,34.29c-2.16-.02-3.55-1.25-3.36-3.38,.2-2.34,1.93-3.37,4.21-3.16,1.94,.18,2.91,1.37,2.82,3.58-.26,1.94-1.58,2.98-3.67,2.96Zm7.21-85.6c.16-2.17,1.6-3.32,3.59-3.29,2.27,.03,3.53,1.47,3.71,3.66-.46,2.52-1.98,3.39-4.26,3.24-2.28-.15-3.19-1.5-3.04-3.62Zm.18,30.41c-.01-1.95,1.11-2.99,3.07-3.24,1.88,.07,3.08,.95,3.16,2.97,.08,1.89-.68,3.24-2.73,3.4-2.19,.17-3.48-.87-3.5-3.12Zm6.5,30.43c-2.05,.13-3.57-.78-3.57-3.09,0-2.17,1.27-3.26,3.07-3.42,2.45-.07,3.9,.92,3.95,3.08,.05,2.14-1.43,3.31-3.45,3.44Zm6.2,30.77c-2.08,.16-3.61-.58-3.65-2.97-.03-1.98,1.08-3.01,3.01-3.28,1.92,.02,3.16,.98,3.38,2.88,.22,1.93-.72,3.22-2.74,3.37Zm10-13.86c-1.95,.09-3.24-.87-3.23-2.91,.01-2,1.27-3.09,3.21-2.98,1.7,.09,2.67,1.19,2.7,2.97-.03,1.77-.92,2.84-2.69,2.93Zm5.72-21.25c-2.4,.15-3.84-1.26-4.04-3.48-.17-1.81,.92-3.3,2.88-3.43,2.35-.15,3.62,1.28,4.03,3.38-.04,2.05-.82,3.41-2.86,3.53Zm65.05-108.55c-8.68-5.07-17.17-10.11-27.87-8.71-1.9,.25-4.05-.67-4.5-3.11-.47-2.54,1.09-3.73,3.28-4.12,4.35-.77,6.93-3.62,9-7.19,5.87-10.14,12.76-19.72,21.5-27.36,14.45-12.61,31.08-19.07,50.5-12.51,7.53,2.54,14.84,5.71,22.31,8.42,9.07,3.29,16.63,9.06,23.95,14.99,9.37,7.6,9.88,19.39,.49,29.87-14.8,16.53-33.67,24.88-55.97,24.75-16.27,.58-29.49-7.33-42.7-15.04Z"/>
        <path class="cls-3" d="M682.16,712.65c-58.84,25.73-118.88,48.41-179.32,70.04-32.54,11.65-66.84,16.85-99.88,26.75-4.67,1.4-5.1,3.33-4.51,7.34,1.5,10.19,3.97,20.19,5.26,30.44,1.58,12.53,6.43,24.32,9.98,36.39q2.33,7.95,10.52,7.87c1.83,0,3.68,.14,5.49-.02,28.21-2.56,55.94-8.06,83.24-15.28,45.58-12.06,89.58-29.03,133.82-45.13,39.93-14.53,78.22-33.11,117.52-49.21,17.3-7.09,34.35-14.84,47.49-29.15,5.51-6.01,7.86-10.51,4.32-19.07-7.59-18.37-14.2-37.17-23.53-54.81-2.34-4.42-5.84-5.93-10.31-4.85-6.92,1.66-13.9,3.3-20.55,5.78-26.89,10.05-53.25,21.41-79.54,32.91Z"/>
        <path class="cls-8" d="M657.31,202.58c1.13-1.51,2.11-2.83,3.08-4.14,8.46-11.36,17.26-22.41,28.11-31.67,13.71-11.71,28.6-21.08,46.7-24.28,8.3-1.46,13.4,1.69,15.95,9.76,2.07,6.53,1.94,13.11,.11,19.66-3.62,12.99-11.82,23.67-17.94,35.39-1.37,2.63-3.07,5.13-4.9,7.48-1.4,1.81-3.61,2-5.38,.7-1.76-1.29-1.46-3.17-.24-4.88,6.55-9.24,11.2-19.58,16.97-29.27,4.71-7.93,7.04-16.5,4.98-25.78-1.2-5.4-3.53-6.91-8.97-5.92-8.91,1.63-17.2,5-24.93,9.64-19.53,11.71-34.32,28.23-46.99,46.84-1.34,1.97-3.71,3.72-3.02,6.55,1.18,4.83,2.53,9.63,3.98,14.38,.41,1.35,2.01,.85,3.1,1.06,4.41,.83,8.94,1.25,13.22,2.51,10.94,3.22,21.35,.94,31.68-2.51,2.39-.8,4.97-2.47,6.48,.69,1.64,3.41-1.35,4.91-3.75,5.84-3.92,1.5-8.04,2.47-12.56,3.81,18.32,9.37,32.56,22.54,43.23,39.82,3.4-4.32,5.56-8.97,7.65-13.64,10.37-23.23,17.15-47.73,23.85-72.11,11.09-40.35,20.21-81.22,26.04-122.73,1.89-13.49,4.26-27,1.19-40.68-2.64-11.76-17.66-22.93-29.43-21.65-6.3,.69-12.44,2.15-18.24,4.74-15.19,6.79-29.72,14.69-43.02,24.83-13.47,10.28-24.13,23.4-36.17,35.11-21.65,21.06-39.64,45.33-59.19,68.24-1.62,1.9-1.24,2.95,.33,4.48,16.79,16.39,29.35,35.6,38.07,57.74Z"/>
        <path class="cls-3" d="M667.1,287.85c-27.42,0-49.54,22.15-49.46,49.55,.08,27.64,22.18,49.33,50.21,49.27,26.83-.06,48.75-22.46,48.74-49.8-.02-27.03-22.21-49.02-49.49-49.02Z"/>
        <path class="cls-3" d="M435,909.48c-.67,6.16-3.73,10.92-9.16,14.03-5.63,3.22-11.78,3.08-17.95,2.62-8.85-.66-9.98-1.55-12.69-9.82-.6,.32-1.23,.55-1.72,.95-18.65,14.96-21.99,42.32-7.5,61.35,17.65,23.17,54.8,26.77,78.24,7.38,14.77-12.22,21.94-27.8,17.07-46.87-5.15-20.19-19.89-30.65-39.52-34.98-4.1-.9-6.32,1.18-6.77,5.34Z"/>
        <path class="cls-8" d="M193.71,213.4c2.24-5.94,5.93-8.45,12.24-7.9,2.96,.26,5.89,.96,8.79,1.64,1.46,.34,2.69,.81,4.24-.03,12.37-6.7,25.62-9.78,40.46-8.94-4.48-4.92-8.53-8.88-11.99-13.3-6.65-8.49-14.77-15.31-23.52-21.42-18.43-12.88-38.55-20.53-61.44-19.56-12.98,.55-19,5.58-21.77,18.11-1.18,5.37-.64,10.54,.24,15.82,5.15,30.91,13.22,60.83,30.02,88.19,2.78-7.7,5.31-15.5,9.98-22.14,6.13-8.72,11.93-17.43,12.08-28.62,0-.62,.43-1.24,.66-1.85Z"/>
        <path class="cls-3" d="M380.78,892.89c3,0,5.99,.04,8.99,0q7.94-.12,6.39-7.69c-.57-2.77-.86-5.62-1.72-8.29-6.28-19.5-9.64-39.59-12.22-59.84-.29-2.28-1.37-2.29-3.3-2.38-5.93-.28-10.82,3.66-16.93,3.36-8.1-.39-16.27,.55-24.4,1.09-8.94,.59-10.78,2.33-10.32,11.26,.42,8.3,1.29,16.59,.6,24.9-.5,5.97-1.21,11.93-.91,17.92,.44,8.8,5.69,15.67,13.13,16.38,13.55,1.3,27.02,3.6,40.69,3.28Z"/>
        <path class="cls-3" d="M247.04,570.5c2.01,4.39,3.81,8.81,5.06,13.48,.44,1.64,.84,3.53,3.22,3.94,23.57,4.13,46.91,9.91,71.18,9.88,9.19,1.23,18.49,.12,27.79-.27,5.61-.24,11.32-.66,16.65-2.8,1.26-.5,3.2-.64,3.14-2.65-.06-1.75-1.58-2.65-2.93-3.09-4.54-1.48-9.09-3.21-13.78-3.96-41.38-6.58-82.49-14.49-122.89-25.66-25.9-7.15-52.07-12.07-78.99-12.07-4.18,0-9.44-1.02-11.71,4.33-1.89,4.46-1.6,9.09,.39,13.55,1.22,2.72,2.54,4.13,5.69,1.78,2.3-1.71,6.26-4.08,8.05-1.39,2.66,3.99,5.57,2.44,8.54,2.19,3.32-.27,6.63-.19,9.92-.34,4.64-.22,8.97,2.35,13.74,.69,12.84-4.47,25.7-4.82,38.45,.56,2.08,.88,3.66,.74,5.61-1.19,4.93-4.87,9.93-3.42,12.87,3.01Z"/>
        <path class="cls-3" d="M465.19,545.51c4.1-1.14,8.21-2.23,12.31-3.34-12.8-4.77-24.52-2.44-35.08,5.12-4.83,3.46-8.5,8.34-8.11,14.69,.34,5.62,1.91,11.11,3.96,16.42,1.61,4.18,4.51,6.05,9,6.64,9.71,1.28,19.26,.23,28.79-1.24,6.44-.99,11.51-6.27,12.39-12.42-5.73,1.98-11.49,3.37-17.42,4.17-7.61,1.02-14.52-3.2-16.04-10.11-1.72-7.78,3.55-18.07,10.21-19.92Z"/>
        <path class="cls-10" d="M751.02,284.02c-.89,1.13-.58,2.07-.05,3.14,5.45,10.99,8.21,22.76,10,34.8,1.92,4.76,.48,9.73,.89,14.58,.15,1.78,.02,3.58,.02,5.65,1.46-.49,2.64-.88,3.82-1.27,0,0,0,0,0,0,5.99-6.95,6.19-14.79,3.97-23.24-.83-3.16-.81-6.59-.28-9.93,2.41-15.26-2.87-29.29-6.98-44.33-3.65,7.55-6.65,14.58-11.4,20.59Z"/>
        <path class="cls-9" d="M129.62,534.66c-1.31,1.72-3.08,1.82-4.9,1.19-1.41-.49-1.99-1.73-1.74-3.18,.37-2.18,1.88-2.94,3.94-2.91,.66,.01,1.32-.01,1.98-.02h0c-2.9-5.02-5.7-10.12-9.5-14.55-2.41-2.81-8.67-4.32-11.56-2.15-2.25,1.69-.22,4.51-.26,6.82-.04,2.32,.26,4.64,.39,6.97,.35,6.54,2.06,12.77,4.35,18.85,.49,1.29,1.24,3.69,3.16,.78,.93-1.41,2.39-1.75,3.93-.77,.89,.57,1.47,1.4,1.42,2.48-.08,1.77-1.09,2.8-2.83,2.82-1.44,.02-2.23,.36-1.9,1.99,.67,3.29,7.88,9.15,11.62,9.35-.53-1.74-1.23-3.43-1.56-5.18-.96-5.2-1.61-10.76,3.19-14.25,4.37-3.18,3.97-6.22,1.64-10.02-1.09,.11-.91,1.19-1.37,1.79Zm-15.06,5.22c-2.07-.01-3.52-1.19-3.6-3.36-.08-2.19,1.3-3.48,3.39-3.51,2.09-.03,3.31,1.3,3.65,3.4-.17,2.13-1.28,3.49-3.44,3.47Zm3.11-14.91c-2.28,.12-3.43-1.28-3.47-3.35-.04-2.2,.99-3.98,3.42-4.1,2.14-.1,3.41,1.08,3.42,3.33-.06,2.27-.83,3.98-3.37,4.11Z"/>
        <path class="cls-3" d="M185.12,577.97c-8.42-1.94-16.36-4.51-25.51-.47-6.22,2.74-5.33,6.47-5.86,10.94-.35,2.92,.62,3.62,3.32,3.71,9.94,.35,19.8-.49,29.85-1.45-1.28-3.24-1.11-6.35-.65-9.44,.21-1.39,.55-2.91-1.14-3.29Z"/>
        <path class="cls-3" d="M195.95,590c4.76-.59,9.5-1.21,14.31-1.55,11.05-.76,10.98-1.12,15.87-10.42,.91-1.73,.98-2.48-1.08-3.24-9.67-3.56-19.38-4.26-29.28-1.04-1.2,.39-2.3,.64-2.02,2.21,.7,3.86-.4,7.6-.76,11.88-.78,2.38,.66,2.44,2.94,2.15Z"/>
        <path class="cls-9" d="M123.7,460.3c8.37,2.08,15.99-.19,24.9-4.32-7.36,.21-11.71-2.86-15.33-7.25-1.37-1.66-2.47-3.58-4.01-5.06-2.87-2.76-5.3-8.1-9.68-6.38-4.74,1.86-4.45,7.7-4.55,12.28-.15,6.45,2.32,9.15,8.67,10.73Z"/>
        <path class="cls-1" d="M230.47,584.81h11.9c-2.35-3.71-2.31-7.51-4.84-10.62-2.47,3.69-5.69,6.51-7.06,10.62Z"/>
        <path class="cls-6" d="M423.63,914.12c-5.99,.58-12.14,3.18-17.54-2.45-.34,3.61-.15,6.8,3.82,7.15,5.01,.44,9.86-.48,13.72-4.69Z"/>
        <path class="cls-5" d="M144.31,590.03c2.31,.42,2.3-.9,2.4-2.53,.19-3.27,.55-6.53,.87-10.09-3.99,2.19-4.37,6.12-5.43,9.68-.57,1.94,.37,2.6,2.16,2.93Z"/>
        <path class="cls-39" d="M125.17,533.25c1.35,2.91,3.48-.53,5.34-.5,.16,0,.31,.08,.47,.12,.18-1.63-1.57-1.97-2.09-3.14h0c-.72,1.83-4.83,1.13-3.73,3.52Z"/>
        <path class="cls-39" d="M122.98,532.66c-.25,1.46,.33,2.69,1.74,3.18,1.81,.63,3.59,.53,4.9-1.19,.45-.6,.27-1.68,1.37-1.79-.16-.04-.31-.12-.47-.12-1.87-.02-3.99,3.42-5.34,.5-1.11-2.39,3-1.68,3.73-3.52-.66,0-1.32,.03-1.98,.02-2.06-.03-3.57,.73-3.94,2.91Z"/>
        <path class="cls-2" d="M761.72,342.85c-1.06-6.88,.38-13.95-.75-20.89,.1,7.59,.53,15.19-.31,22.77,.43,.74,.08,1.92,1.25,2.25,1.36-1.96,3.34-3.54,3.79-6.06,0,0,0,0,0,0-1.24,.66-1.91,2.4-3.98,1.93Z"/>
        <path class="cls-2" d="M761.86,336.54c-.41-4.85,1.04-9.82-.89-14.58,1.14,6.95-.31,14.01,.75,20.89,2.07,.47,2.74-1.27,3.98-1.93-1.18,.39-2.36,.79-3.82,1.27,0-2.07,.13-3.87-.02-5.65Z"/>
        <path class="cls-13" d="M199.21,220.99c3.43-2.76,6.4-5.13,9.39-7.54-6.14-2.45-7.87-1.16-9.39,7.54Z"/>
        <path class="cls-7" d="M404.42,801.39c.85-.19,2.46,.06,2.59-1.51-.43-1.29-1.15-2.54-2.44-1.95-2.3,1.05-5.29,.73-6.82,3.28-.19,.32-.09,1.25,.05,1.29,2.35,.7,4.43-.63,6.61-1.1Z"/>
        <path class="cls-12" d="M760.66,344.73c-.79,1.2-1.35,2.56-.23,3.68,.35,.36,1.29-.58,1.48-1.43-1.95,.1-1.51-1.12-1.25-2.25Z"/>
        <path class="cls-12" d="M760.66,344.73c-.26,1.13-.7,2.35,1.25,2.25-1.17-.33-.82-1.51-1.25-2.25Z"/>
        <path d="M454.97,399.68c9.39-10.49,8.88-22.27-.49-29.87-7.32-5.93-14.88-11.7-23.95-14.99-7.47-2.71-14.78-5.88-22.31-8.42-19.42-6.56-36.05-.1-50.5,12.51-8.75,7.64-15.63,17.22-21.5,27.36-2.07,3.58-4.66,6.42-9,7.19-2.19,.39-3.75,1.59-3.28,4.12,.45,2.45,2.6,3.36,4.5,3.11,10.7-1.4,19.19,3.64,27.87,8.71,13.21,7.7,26.43,15.62,42.7,15.04,22.3,.13,41.18-8.22,55.97-24.75Zm-109.82-4.57c-4.42,.2-6.59-.65-3.14-4.79,1.23-1.48,1.7-3.58,3.75-4.6-.56,3.18-.99,6.26-.61,9.39Zm101.81,2.3c.94-4.16,1.25-8.07,1.23-12.02-.03-3.99-.17-7.95-1.16-11.95,10.3,6.31,9.43,15.36-.07,23.98Z"/>
        <path class="cls-21" d="M153.7,518.11c-2.07,.18-3.92,1.15-3.77,3.69,.14,2.49,1.79,3.31,4.06,3.21,2.22-.11,4-.84,4.02-3.38,.02-2.81-1.94-3.72-4.31-3.52Z"/>
        <path class="cls-35" d="M172.54,521.67c-2.28-.05-3.89,1.04-3.89,3.49,0,2.55,2,3.12,4.18,3.59,1.92-.29,3.97-.86,4.02-3.35,.05-2.67-1.94-3.67-4.31-3.73Z"/>
        <path class="cls-15" d="M220.95,539.77c-2.36,.26-4.13,1.41-4.22,3.98-.07,2.19,1.29,3.25,3.57,3.31,2.37-.44,4.39-1.55,4.36-4.35-.02-2.18-1.58-3.18-3.72-2.94Z"/>
        <path class="cls-19" d="M142.51,524.04c-2.5,.09-3.72,1.86-3.82,4.35,.11,2.22,1.35,3.49,3.49,3.26,2.23-.24,3.55-1.82,3.64-4.06,.08-2.14-1.24-3.63-3.31-3.55Z"/>
        <path class="cls-24" d="M219.69,481.79c-.08,2.6,1.71,3.34,3.95,3.43,2.21-.1,4.06-.91,4.18-3.35,.13-2.6-1.86-3.36-4-3.39-2.16-.03-4.04,.77-4.12,3.32Z"/>
        <path class="cls-21" d="M185.88,476.61c-2.3,.02-3.85,1.08-3.94,3.54-.08,2.33,1.65,3.25,3.51,3.49,2.28,.29,3.79-.9,4.21-3.52-.26-2.03-1.32-3.53-3.77-3.51Z"/>
        <path class="cls-29" d="M265.69,465.05c2.29,.15,3.8-.73,4.26-3.24-.17-2.19-1.44-3.62-3.71-3.66-2-.03-3.44,1.12-3.59,3.29-.15,2.12,.76,3.47,3.04,3.62Z"/>
        <path class="cls-28" d="M286.29,493.54c.02,1.99,1.24,3.45,3.44,3.33,2.27-.13,3.52-1.49,3.66-3.8-.25-2.07-1.3-3.35-3.49-3.3-2.4,.06-3.63,1.59-3.61,3.77Z"/>
        <path class="cls-17" d="M244.06,444.18c-2.15,.31-3.38,1.35-3.2,3.59,.18,2.19,1.56,3.17,3.6,3.21,2.13,.04,3.47-1.15,3.45-3.27-.02-2.43-1.82-3.23-3.85-3.53Z"/>
        <path class="cls-27" d="M220.25,526.35c-.11-2.09-1.07-3.46-3.29-3.44-2.3,.02-3.84,1.34-3.82,3.59,.02,2.01,1.47,3.31,3.59,3.22,2.03-.09,3.32-1.23,3.52-3.36Z"/>
        <path class="cls-35" d="M153,513.8c2.24,.3,3.27-1.19,3.74-3.59-.49-1.67-1.16-3.45-3.74-3.47-2-.02-3.21,.99-3.37,2.9-.19,2.32,1.1,3.86,3.36,4.16Z"/>
        <path class="cls-35" d="M143.8,509.81c.07-1.94-1.18-2.99-3.14-3.13-2.12,0-3.52,.99-3.8,3.13-.28,2.23,.94,3.6,3.07,3.66,2.3,.07,3.78-1.35,3.86-3.66Z"/>
        <path class="cls-30" d="M290.09,511.03c-1.96,.13-3.04,1.62-2.88,3.43,.2,2.22,1.64,3.63,4.04,3.48,2.04-.12,2.82-1.48,2.86-3.53-.41-2.1-1.68-3.54-4.03-3.38Z"/>
        <path class="cls-30" d="M227.75,490.85c-2.28-.05-3.59,1.3-3.88,3.68,.24,2.06,1.52,3.26,3.57,3.17,1.93-.09,3.48-1.14,3.55-3.33,.07-2.14-1.15-3.47-3.24-3.52Z"/>
        <path class="cls-35" d="M256.29,540.49c-2.28-.21-4.01,.82-4.21,3.16-.18,2.13,1.2,3.36,3.36,3.38,2.09,.02,3.41-1.02,3.67-2.96,.08-2.21-.89-3.41-2.82-3.58Z"/>
        <path class="cls-30" d="M197.28,498.64c-.06-2.16-1.15-3.34-3.05-3.38-2.31-.05-3.82,1.28-3.84,3.61-.02,2.17,1.37,3.3,3.56,3.15,2.16-.15,3.21-1.45,3.33-3.39Z"/>
        <path class="cls-33" d="M195.29,522.02c-2.16,.27-3.66,1.37-3.73,3.73-.05,1.9,1,3.17,2.94,3.27,2.08,.11,3.46-.92,3.7-3.1,.23-2.13-.71-3.45-2.91-3.9Z"/>
        <path class="cls-36" d="M268.83,515.76c-1.8,.16-3.07,1.25-3.07,3.42,0,2.32,1.52,3.22,3.57,3.09,2.02-.13,3.5-1.3,3.45-3.44-.05-2.16-1.5-3.15-3.95-3.08Z"/>
        <path class="cls-34" d="M244.36,488.12c-1.84-.05-3.16,1.18-3.21,3.13-.06,2.15,1.24,3.31,3.28,3.66,1.95-.23,3.16-1.3,3.24-3.21,.09-2.17-1.24-3.54-3.31-3.59Z"/>
        <path class="cls-37" d="M252.86,515.59c2.1-.18,3.35-1.45,3.12-3.67-.2-1.97-1.53-2.8-3.42-2.89-2.13,.33-3.32,1.56-3.11,3.71,.18,1.93,1.51,3,3.41,2.84Z"/>
        <path class="cls-16" d="M239.61,523.9c-2.15-.14-3.43,.99-3.55,3.14-.12,2.22,1.21,3.4,3.29,3.4,1.91,0,2.93-1.24,3.07-3.31-.12-1.66-.78-3.1-2.8-3.24Z"/>
        <path class="cls-38" d="M287.33,475.96c2.04-.11,3.19-1.23,3.27-3.1,.09-2.19-1.24-3.38-3.38-3.39-1.87,0-3.25,.99-3.25,2.98,0,2.12,1.33,3.26,3.35,3.51Z"/>
        <path class="cls-22" d="M170.31,503.98c.02-1.93-.92-3.22-2.95-3.24-2.21-.02-3.42,1.25-3.35,3.43,.06,1.99,1.36,2.9,3.24,3.01,2.06-.11,3.04-1.27,3.06-3.2Z"/>
        <path class="cls-25" d="M274.89,546.8c-1.93,.27-3.04,1.3-3.01,3.28,.04,2.38,1.57,3.12,3.65,2.97,2.02-.15,2.96-1.44,2.74-3.37-.22-1.91-1.46-2.87-3.38-2.88Z"/>
        <path class="cls-38" d="M212.95,470.78c-.03-1.97-1.22-3.01-3.18-2.96-1.73,.05-2.78,1.06-2.86,2.77-.09,1.95,1.01,3.02,3.18,3.36,1.55-.33,2.89-1.18,2.86-3.17Z"/>
        <path class="cls-26" d="M269.06,491.57c-.08-2.01-1.28-2.9-3.16-2.97-1.95,.25-3.08,1.29-3.07,3.24,.02,2.25,1.31,3.29,3.5,3.12,2.05-.16,2.81-1.51,2.73-3.4Z"/>
        <path class="cls-41" d="M217.96,449.98c1.94-.07,3.06-1.03,3.12-3.01,.05-1.72-.85-2.87-2.55-3.06-1.92-.21-3.25,.83-3.45,2.71-.2,1.91,.97,3.02,2.88,3.36Z"/>
        <path class="cls-32" d="M183.63,510.01c-1.97,.07-2.91,1.36-2.83,3.27,.07,1.73,1.08,2.7,2.82,2.73,1.96,.03,2.98-1.05,3.25-3.14-.39-1.59-1.28-2.93-3.24-2.87Z"/>
        <path class="cls-34" d="M215.1,500.54c-.09-1.73-1.1-2.71-2.84-2.72-1.94-.02-3.17,1.03-3.15,2.96,.02,1.9,1.27,2.9,3.15,3.1,1.93-.29,2.93-1.41,2.83-3.34Z"/>
        <path class="cls-23" d="M285.52,533.31c-1.94-.1-3.2,.99-3.21,2.98-.01,2.04,1.28,3,3.23,2.91,1.76-.08,2.66-1.15,2.69-2.93-.04-1.78-1-2.88-2.7-2.97Z"/>
        <path class="cls-18" d="M155.57,489.99c-1.98,.06-2.9,1.37-2.83,3.27,.07,1.71,1.07,2.72,2.81,2.75,1.96,.03,2.96-1.08,3.22-2.95-.31-1.84-1.26-3.11-3.21-3.06Z"/>
        <path class="cls-40" d="M267.71,475.71c-.05,1.91,.93,3.04,2.89,3.23,1.92-.19,3.06-1.26,3.02-3.16-.04-1.92-1.26-2.99-3.19-2.92-1.72,.07-2.68,1.15-2.72,2.85Z"/>
        <path class="cls-20" d="M241.64,467.55c1.87,.07,3.01-1.01,3.26-2.95-.17-1.91-1.23-2.94-3.15-2.96-1.72-.01-2.79,.9-2.9,2.63-.12,1.92,.84,3.2,2.79,3.28Z"/>
        <path class="cls-31" d="M117.62,517.52c-2.44,.11-3.46,1.9-3.42,4.1,.04,2.07,1.19,3.47,3.47,3.35,2.54-.14,3.31-1.84,3.37-4.11,0-2.25-1.28-3.43-3.42-3.33Z"/>
        <path class="cls-35" d="M114.35,533c-2.08,.03-3.46,1.32-3.39,3.51,.08,2.17,1.53,3.34,3.6,3.36,2.16,.01,3.27-1.34,3.44-3.47-.35-2.09-1.57-3.43-3.65-3.4Z"/>
        <path class="cls-1" d="M447.04,373.43c.98,4,1.13,7.96,1.16,11.95,.03,3.96-.28,7.87-1.23,12.02,9.51-8.62,10.37-17.66,.07-23.98Z"/>
        <path class="cls-14" d="M342.02,390.32c-3.45,4.14-1.28,4.99,3.14,4.79-.38-3.14,.06-6.21,.61-9.39-2.05,1.02-2.52,3.12-3.75,4.6Z"/>
      </g>
    </g>
  </g>
</svg>