<?xml version="1.0" encoding="utf-8"?>
<!-- Generator: Adobe Illustrator 26.3.1, SVG Export Plug-In . SVG Version: 6.00 Build 0)  -->
<svg version="1.1" id="Capa_1" xmlns="http://www.w3.org/2000/svg" xmlns:xlink="http://www.w3.org/1999/xlink" x="0px" y="0px"
	 viewBox="0 0 23.5 23.5" style="enable-background:new 0 0 23.5 23.5;" xml:space="preserve">
<style type="text/css">
	.st0{fill:#FFFFFF;}
</style>
<path class="st0" d="M22.5,19.3c0.9,0.9,0.9,2.3,0,3.2c-0.4,0.4-1,0.7-1.6,0.7s-1.2-0.2-1.6-0.7L11.7,15l-7.5,7.5
	c-0.4,0.5-1,0.7-1.6,0.7S1.4,22.9,1,22.5c-0.9-0.9-0.9-2.3,0-3.2l7.5-7.5L1,4.2C0.1,3.3,0.1,1.8,1,1s2.3-0.9,3.2,0l7.5,7.5L19.3,1
	c0.9-0.9,2.3-0.9,3.2,0s0.9,2.3,0,3.2L15,11.7L22.5,19.3z"/>
</svg>
