<svg width="1029" height="506" viewBox="0 0 1029 506" fill="none" xmlns="http://www.w3.org/2000/svg">
<path d="M76.5499 91.9397L96.6965 37.5968H101.998L123.338 91.9397H154.751L195.176 0.35202H164.426L139.243 61.5872L119.361 15.5945H79.0682L60.9097 63.3102L35.1962 0.35202H1.13254L42.0885 91.9397H76.5499ZM203.367 0.0869357V93H311.523V71.3954H234.647V56.1529H308.342V34.9459H234.647V21.1614H310.065V0.0869357H203.367ZM396.617 93.1325H426.969V28.8489L466.865 93.1325H483.83L523.594 28.8489V93.1325H554.874V0.35202H511.532L476.408 58.141L441.549 0.35202H396.617V93.1325ZM658.977 1.27983H611.925L562.751 92.8675H593.766L602.381 76.167H668.521L677.136 92.8675H708.284L658.977 1.27983ZM613.117 55.4902L630.481 21.8241H640.421L657.917 55.4902H613.117ZM793.473 93H831.115L775.712 43.2961L828.597 1.41237H792.015L755.698 30.7045H744.83V1.41237H716.068V93H744.83V58.4061H754.505L793.473 93ZM839.421 0.0869357V93H947.577V71.3954H870.701V56.1529H944.396V34.9459H870.701V21.1614H946.119V0.0869357H839.421ZM53.3547 228.94H84.635V193.418L136.592 137.352H101.336L69.7901 171.018L38.7749 137.352H0.0721948L53.3547 193.418V228.94ZM201.188 135.762C192.308 135.762 184.355 136.292 177.066 137.485C169.908 138.545 163.811 140.003 158.907 141.859C154.135 143.714 149.894 145.967 146.315 148.618C142.604 151.269 139.821 153.92 137.7 156.571C135.712 159.222 134.121 162.138 132.929 165.319C131.603 168.5 130.808 171.416 130.543 173.802C130.145 176.32 130.013 178.838 130.013 181.622V185.333C130.013 187.984 130.145 190.635 130.543 193.153C130.808 195.539 131.603 198.455 132.929 201.636C134.121 204.817 135.712 207.733 137.7 210.516C139.821 213.167 142.604 215.818 146.315 218.601C150.027 221.252 154.268 223.505 159.04 225.494C163.811 227.349 169.908 228.807 177.066 230C184.355 231.193 192.308 231.723 201.188 231.723H205.43C214.31 231.723 222.263 231.193 229.42 230C236.71 228.807 242.675 227.349 247.446 225.494C252.218 223.505 256.459 221.252 260.17 218.601C263.882 215.818 266.665 213.167 268.653 210.516C270.641 207.733 272.232 204.817 273.557 201.636C274.75 198.455 275.678 195.539 275.943 193.153C276.341 190.635 276.473 187.984 276.473 185.333V181.622C276.473 178.838 276.341 176.32 275.943 173.802C275.678 171.283 274.75 168.5 273.557 165.319C272.232 162.138 270.641 159.222 268.521 156.571C266.532 153.92 263.749 151.269 260.038 148.618C256.459 145.967 252.218 143.714 247.446 141.859C242.542 140.003 236.578 138.545 229.42 137.485C222.263 136.292 214.31 135.762 205.43 135.762H201.188ZM243.337 184.272C243.337 187.188 242.807 190.104 241.614 192.755C240.554 195.406 238.566 198.057 235.782 200.575C232.999 203.226 228.758 205.347 223.058 206.805C218.154 208.263 212.19 208.926 205.43 209.191C204.37 209.191 202.779 209.191 202.116 209.191C194.826 209.058 188.464 208.263 183.163 206.805C177.463 205.214 173.354 203.094 170.571 200.443C167.92 197.792 165.932 195.141 164.872 192.49C163.679 189.839 163.148 186.923 163.148 184.007V182.549C163.148 166.777 176.005 158.692 201.586 158.161C202.381 158.161 204.767 158.161 205.96 158.294C211.129 158.426 215.768 158.824 219.877 159.752C224.781 160.812 228.758 162.138 231.673 163.728C234.589 165.186 236.975 167.174 238.698 169.428C240.554 171.681 241.747 173.802 242.41 175.922C243.072 177.91 243.337 180.164 243.337 182.549V184.272ZM386.486 136.689V179.633C386.486 182.947 385.956 185.996 385.028 188.779C384.101 191.695 382.51 194.478 380.124 197.262C377.871 200.045 374.425 202.166 369.919 203.756C365.28 205.347 359.845 206.275 353.483 206.275C346.988 206.275 341.422 205.347 336.783 203.756C332.011 202.166 328.565 200.045 326.312 197.262C324.058 194.478 322.468 191.695 321.54 188.779C320.612 185.996 320.082 182.947 320.082 179.633V136.689H288.537V181.356C288.537 184.14 288.669 186.791 289.067 189.574C289.465 192.225 290.26 195.274 291.453 198.587C292.778 201.901 294.236 204.949 296.224 207.865C298.08 210.649 300.598 213.565 303.912 216.348C307.093 219.131 310.937 221.517 315.178 223.505C319.419 225.494 324.589 227.084 330.818 228.277C336.915 229.47 343.807 230 351.23 230H356.134C365.942 230 374.69 228.94 382.378 226.554C389.933 224.301 395.897 221.385 400.271 217.939C404.645 214.492 408.224 210.516 411.007 205.877C413.79 201.371 415.646 196.997 416.574 193.153C417.502 189.177 418.032 185.2 418.032 181.356V136.689H386.486ZM543.111 191.43C539.93 187.851 535.688 185.465 530.519 184.007C541.785 180.296 547.484 173.669 547.484 163.993V162.535C547.484 146.763 534.23 138.81 507.721 138.81H433.895V230H462.524V197.659H499.901C506.926 197.659 511.83 198.985 514.746 201.503C517.662 204.021 519.12 208.13 519.12 213.697V230H547.882V204.949C547.882 199.382 546.292 194.876 543.111 191.43ZM517.53 168.5C517.53 171.151 516.602 173.404 514.746 174.994C512.891 176.585 509.975 177.513 505.998 177.513H462.524V159.487H505.998C509.975 159.487 512.891 160.415 514.746 162.005C516.602 163.596 517.53 165.716 517.53 168.367V168.5ZM72.7061 368.591H78.2729C89.274 368.591 99.0823 367.663 107.565 365.807C116.048 363.819 122.675 361.433 127.314 358.782C132.086 355.999 135.929 352.818 138.978 349.239C141.894 345.528 143.882 342.347 144.942 339.431C145.87 336.515 146.268 333.599 146.268 330.816V329.49H112.602C112.602 329.623 112.602 329.755 112.469 329.888C108.758 340.624 96.5639 346.058 75.7546 346.058C68.7298 346.058 62.6328 345.263 57.4636 343.672C52.2944 342.082 48.4506 339.961 45.7997 337.31C43.1489 334.659 41.1607 332.008 39.9678 329.225C38.7749 326.442 38.1122 323.526 38.1122 320.477V319.019C38.1122 315.838 38.6424 312.922 39.8353 310.271C40.8956 307.62 42.7512 305.102 45.2696 302.584C47.9204 300.198 51.7642 298.342 56.9334 297.017C61.9701 295.559 68.1996 294.896 75.4895 294.896C81.5865 294.896 86.8882 295.426 91.6598 296.354C96.2988 297.282 99.8775 298.342 102.263 299.535C104.649 300.728 106.637 302.186 108.36 303.909C110.083 305.632 111.144 306.958 111.541 307.753C111.939 308.548 112.204 309.344 112.469 310.404H146.135V308.946C146.135 306.428 145.738 303.777 144.942 300.993C144.015 298.21 142.159 295.029 139.11 291.45C136.194 287.871 132.351 284.823 127.712 282.04C123.073 279.389 116.445 277.135 107.963 275.147C99.3474 273.292 89.5391 272.364 78.2729 272.364H72.7061C61.3073 272.364 51.234 273.424 42.7512 275.677C34.1359 277.798 27.5087 280.449 22.8697 283.63C18.2307 286.811 14.5194 290.655 11.6035 295.029C8.82007 299.403 6.96446 303.379 6.1692 306.958C5.37394 310.536 4.97631 314.38 4.97631 318.356V322.068C4.97631 324.586 5.10885 327.104 5.50648 329.755C5.90411 332.274 6.83192 335.19 8.15735 338.371C9.48279 341.552 11.0733 344.468 13.0615 347.251C15.0496 350.034 17.833 352.685 21.4117 355.469C24.9904 358.12 28.9667 360.373 33.6057 362.361C38.1122 364.217 43.8116 365.675 50.5713 366.867C57.331 368.06 64.6209 368.591 72.7061 368.591ZM225.523 272.762C216.642 272.762 208.69 273.292 201.4 274.485C194.242 275.545 188.145 277.003 183.241 278.859C178.47 280.714 174.228 282.967 170.65 285.618C166.938 288.269 164.155 290.92 162.034 293.571C160.046 296.222 158.456 299.138 157.263 302.319C155.937 305.5 155.142 308.416 154.877 310.802C154.479 313.32 154.347 315.838 154.347 318.622V322.333C154.347 324.984 154.479 327.635 154.877 330.153C155.142 332.539 155.937 335.455 157.263 338.636C158.456 341.817 160.046 344.733 162.034 347.516C164.155 350.167 166.938 352.818 170.65 355.601C174.361 358.252 178.602 360.505 183.374 362.494C188.145 364.349 194.242 365.807 201.4 367C208.69 368.193 216.642 368.723 225.523 368.723H229.764C238.644 368.723 246.597 368.193 253.754 367C261.044 365.807 267.009 364.349 271.78 362.494C276.552 360.505 280.793 358.252 284.505 355.601C288.216 352.818 290.999 350.167 292.987 347.516C294.975 344.733 296.566 341.817 297.891 338.636C299.084 335.455 300.012 332.539 300.277 330.153C300.675 327.635 300.807 324.984 300.807 322.333V318.622C300.807 315.838 300.675 313.32 300.277 310.802C300.012 308.283 299.084 305.5 297.891 302.319C296.566 299.138 294.975 296.222 292.855 293.571C290.867 290.92 288.083 288.269 284.372 285.618C280.793 282.967 276.552 280.714 271.78 278.859C266.876 277.003 260.912 275.545 253.754 274.485C246.597 273.292 238.644 272.762 229.764 272.762H225.523ZM267.672 321.272C267.672 324.188 267.141 327.104 265.948 329.755C264.888 332.406 262.9 335.057 260.117 337.575C257.333 340.226 253.092 342.347 247.392 343.805C242.488 345.263 236.524 345.926 229.764 346.191C228.704 346.191 227.113 346.191 226.45 346.191C219.161 346.058 212.798 345.263 207.497 343.805C201.797 342.214 197.688 340.094 194.905 337.443C192.254 334.792 190.266 332.141 189.206 329.49C188.013 326.839 187.483 323.923 187.483 321.007V319.549C187.483 303.777 200.339 295.692 225.92 295.161C226.716 295.161 229.101 295.161 230.294 295.294C235.463 295.426 240.102 295.824 244.211 296.752C249.115 297.812 253.092 299.138 256.008 300.728C258.924 302.186 261.309 304.174 263.032 306.428C264.888 308.681 266.081 310.802 266.744 312.922C267.406 314.91 267.672 317.164 267.672 319.549V321.272ZM312.871 367.133H343.223V302.849L383.119 367.133H400.085L439.848 302.849V367.133H471.128V274.352H427.786L392.662 332.141L357.803 274.352H312.871V367.133ZM563.038 336.25C594.45 336.25 610.091 326.044 610.091 305.765V304.572C610.091 284.425 594.45 274.352 563.038 274.352H487.223V367.133H518.768V336.25H563.038ZM518.768 295.426H562.507C572.183 295.426 577.087 298.74 577.087 305.235V305.632C577.087 312.127 572.183 315.441 562.507 315.441H518.768V295.426ZM697.032 275.28H649.979L600.805 366.867H631.821L640.436 350.167H706.575L715.19 366.867H746.338L697.032 275.28ZM651.172 329.49L668.535 295.824H678.476L695.972 329.49H651.172ZM754.122 274.352V367.133H785.27V305.632L853.927 367.133H885.208V274.352H853.927V332.671L789.379 274.352H754.122ZM945.694 365.94H976.974V330.418L1028.93 274.352H993.675L962.13 308.018L931.114 274.352H892.412L945.694 330.418V365.94ZM74.8268 505.591C97.0941 505.591 113.264 500.289 123.47 489.553C123.603 495.65 123.735 504 123.735 504H146.533V452.175H75.357V469.671H114.987V469.936C114.987 470.466 114.59 471.262 113.927 472.322C113.132 473.25 111.674 474.443 109.818 475.636C107.83 476.961 105.444 478.154 102.661 479.214C99.8775 480.275 96.1663 481.203 91.3947 481.998C86.7557 482.66 81.5865 483.058 76.0197 483.058C63.1629 483.058 53.6198 480.672 47.2577 475.768C41.0282 470.864 37.8471 465.032 37.8471 458.272V456.814C37.8471 440.247 50.7039 431.896 76.2848 431.896C96.829 431.896 108.758 436.27 112.204 445.018H145.738V444.886C145.738 441.97 145.207 439.186 144.147 436.403C143.219 433.619 141.231 430.571 138.183 427.125C135.267 423.811 131.423 420.895 126.784 418.509C122.145 415.991 115.65 414.003 107.433 412.28C99.2148 410.689 89.6717 409.894 78.9356 409.894H73.1037C61.9701 409.894 52.1618 410.822 43.8116 412.943C35.3288 415.063 28.7016 417.582 23.93 420.763C19.1585 423.811 15.1822 427.522 12.1337 431.764C9.08516 436.005 7.09701 440.114 6.1692 443.825C5.2414 447.669 4.84376 451.513 4.84376 455.622V459.068C4.84376 463.177 5.37394 467.153 6.43429 471.129C7.62718 474.973 9.74788 479.082 12.7964 483.456C15.8449 487.697 19.8212 491.408 24.5928 494.589C29.4969 497.77 35.9915 500.421 44.0767 502.542C52.2944 504.53 61.5724 505.591 72.0434 505.591H74.8268ZM270.128 465.43C266.947 461.851 262.705 459.465 257.536 458.007C268.802 454.296 274.502 447.669 274.502 437.993V436.535C274.502 420.763 261.247 412.81 234.739 412.81H160.912V504H189.541V471.659H226.918C233.943 471.659 238.847 472.985 241.763 475.503C244.679 478.021 246.137 482.13 246.137 487.697V504H274.899V478.949C274.899 473.382 273.309 468.876 270.128 465.43ZM244.547 442.5C244.547 445.151 243.619 447.404 241.763 448.994C239.908 450.585 236.992 451.513 233.016 451.513H189.541V433.487H233.016C236.992 433.487 239.908 434.415 241.763 436.005C243.619 437.596 244.547 439.716 244.547 442.367V442.5ZM828.772 447.536C828.507 445.151 827.712 442.367 826.651 439.319C825.458 436.27 824 433.487 822.145 430.836C820.289 428.185 817.771 425.667 814.457 423.016C811.276 420.498 807.433 418.244 803.059 416.521C798.817 414.666 793.383 413.34 786.888 412.147C780.526 411.087 773.369 410.557 765.416 410.557H348.964C341.012 410.557 333.854 411.087 327.36 412.147C320.865 413.34 315.431 414.666 311.057 416.521C306.683 418.244 302.839 420.498 299.658 423.016C296.344 425.667 293.826 428.185 291.97 430.836C290.247 433.487 288.789 436.27 287.597 439.451C286.536 442.5 285.873 445.283 285.476 447.669C285.211 450.055 285.078 452.573 285.078 455.224V458.935C285.078 461.454 285.211 463.972 285.476 466.358C285.873 468.876 286.536 471.659 287.597 474.708C288.789 477.889 290.247 480.672 291.97 483.323C293.826 485.974 296.477 488.625 299.658 491.276C302.972 493.927 306.815 496.047 311.057 497.903C315.431 499.759 320.865 501.217 327.36 502.409C333.854 503.47 341.012 504 348.964 504H765.416C773.369 504 780.526 503.47 787.021 502.409C793.515 501.217 798.817 499.759 803.191 497.903C807.433 496.047 811.276 493.927 814.59 491.276C817.903 488.625 820.422 485.974 822.145 483.323C824 480.672 825.458 477.889 826.651 474.708C827.712 471.659 828.507 468.876 828.772 466.358C829.17 463.972 829.302 461.454 829.302 458.935V455.224C829.302 452.573 829.17 450.055 828.772 447.536ZM799.48 457.742C799.48 460.658 798.95 463.442 798.022 466.093C796.962 468.611 795.239 471.262 792.72 473.78C790.202 476.298 786.358 478.287 781.321 479.877C776.55 481.203 770.983 481.998 764.488 482.13C763.958 482.13 352.013 482.13 351.483 482.13C344.193 482.13 337.963 481.335 332.794 479.745C327.757 478.287 323.913 476.166 321.528 473.648C319.009 470.997 317.286 468.346 316.358 465.827C315.298 463.177 314.768 460.526 314.768 457.61V456.152C314.768 440.247 326.962 432.426 351.483 432.426C352.013 432.426 763.958 432.426 764.488 432.426C769.658 432.559 774.429 432.957 778.405 433.884C782.912 434.945 786.358 436.27 789.009 437.728C791.66 439.319 793.781 441.174 795.371 443.295C796.962 445.548 798.022 447.669 798.685 449.657C799.215 451.645 799.48 453.766 799.48 456.152V457.742ZM908.96 502.94L929.107 448.597H934.408L955.748 502.94H987.161L1027.59 411.352H996.836L971.653 472.587L951.771 426.595H911.478L893.32 474.31L867.606 411.352H833.543L874.499 502.94H908.96Z" fill="white"/>
</svg>
