<svg width="1123" height="97" viewBox="0 0 1123 97" fill="none" xmlns="http://www.w3.org/2000/svg">
<path d="M0.952616 2.35202V95.1325H32.1004V33.6323L100.758 95.1325H132.038V2.35202H100.758V60.6712L36.2092 2.35202H0.952616ZM215.322 0.761501C206.442 0.761501 198.489 1.29168 191.199 2.48457C184.042 3.54491 177.945 5.0029 173.041 6.85851C168.269 8.71412 164.028 10.9674 160.449 13.6182C156.738 16.2691 153.955 18.92 151.834 21.5708C149.846 24.2217 148.255 27.1377 147.062 30.3187C145.737 33.4998 144.942 36.4157 144.676 38.8015C144.279 41.3198 144.146 43.8382 144.146 46.6216V50.3328C144.146 52.9837 144.279 55.6345 144.676 58.1529C144.942 60.5387 145.737 63.4546 147.062 66.6357C148.255 69.8167 149.846 72.7327 151.834 75.5161C153.955 78.167 156.738 80.8178 160.449 83.6013C164.16 86.2521 168.402 88.5054 173.173 90.4935C177.945 92.3491 184.042 93.8071 191.199 95C198.489 96.1929 206.442 96.7231 215.322 96.7231H219.564C228.444 96.7231 236.397 96.1929 243.554 95C250.844 93.8071 256.808 92.3491 261.58 90.4935C266.351 88.5054 270.593 86.2521 274.304 83.6013C278.015 80.8178 280.799 78.167 282.787 75.5161C284.775 72.7327 286.366 69.8167 287.691 66.6357C288.884 63.4546 289.812 60.5387 290.077 58.1529C290.474 55.6345 290.607 52.9837 290.607 50.3328V46.6216C290.607 43.8382 290.474 41.3198 290.077 38.8015C289.812 36.2832 288.884 33.4998 287.691 30.3187C286.366 27.1377 284.775 24.2217 282.654 21.5708C280.666 18.92 277.883 16.2691 274.172 13.6182C270.593 10.9674 266.351 8.71412 261.58 6.85851C256.676 5.0029 250.711 3.54491 243.554 2.48457C236.397 1.29168 228.444 0.761501 219.564 0.761501H215.322ZM257.471 49.2725C257.471 52.1884 256.941 55.1044 255.748 57.7552C254.688 60.4061 252.699 63.057 249.916 65.5753C247.133 68.2262 242.891 70.3469 237.192 71.8049C232.288 73.2628 226.323 73.9256 219.564 74.1907C218.503 74.1907 216.913 74.1907 216.25 74.1907C208.96 74.0581 202.598 73.2628 197.296 71.8049C191.597 70.2143 187.488 68.0936 184.705 65.4428C182.054 62.7919 180.066 60.141 179.005 57.4902C177.812 54.8393 177.282 51.9233 177.282 49.0074V47.5494C177.282 31.7767 190.139 23.6915 215.72 23.1614C216.515 23.1614 218.901 23.1614 220.094 23.2939C225.263 23.4265 229.902 23.8241 234.011 24.7519C238.915 25.8122 242.891 27.1377 245.807 28.7282C248.723 30.1862 251.109 32.1743 252.832 34.4276C254.688 36.6808 255.881 38.8015 256.543 40.9222C257.206 42.9104 257.471 45.1636 257.471 47.5494V49.2725ZM358.339 96.7231H367.617C377.425 96.7231 386.04 96.1929 393.33 94.8675C400.62 93.6746 406.32 92.2166 410.561 90.2284C414.802 88.3728 418.116 85.987 420.634 83.2036C423.153 80.2877 424.876 77.5042 425.671 74.8534C426.466 72.2025 426.864 69.154 426.864 65.7079V63.9848C426.864 54.5742 422.755 47.8145 414.272 43.4405C405.922 39.0666 392.403 36.6808 373.449 36.4157L363.906 36.2832L356.483 36.1506C349.989 36.0181 344.952 35.6205 341.373 34.8252C337.795 33.8974 335.541 32.9696 334.614 32.0418C333.553 30.9814 333.156 29.7885 333.156 28.198C333.156 26.475 333.553 25.1495 334.481 24.2217C335.276 23.2939 337.795 22.3661 341.771 21.4383C345.88 20.643 350.651 20.2454 358.339 20.2454H362.978C368.015 20.2454 370.93 20.5105 374.642 21.0407C378.353 21.7034 381.269 22.3661 383.124 23.0288C385.113 23.8241 386.571 24.7519 387.764 25.9448C388.956 27.1377 389.752 28.0655 390.017 28.7282C390.282 29.3909 390.547 30.3187 390.812 31.2465H423.683V30.0536C423.683 27.0051 423.153 24.2217 422.092 21.5708C421.164 19.0525 419.309 16.4016 416.658 13.7508C414.007 11.0999 410.561 8.84666 406.32 6.99105C402.078 5.13544 396.511 3.67746 389.354 2.48457C382.329 1.29168 374.112 0.761501 364.966 0.761501H355.555C346.675 0.761501 338.855 1.29168 332.228 2.48457C325.468 3.54491 320.166 5.0029 316.19 6.72597C312.214 8.44903 309.033 10.5697 306.647 13.0881C304.128 15.7389 302.538 18.2573 301.743 20.7756C300.947 23.2939 300.55 26.0773 300.55 28.9933V30.1862C300.55 47.4168 316.985 56.5624 349.856 57.3576L357.278 57.4902L367.219 57.7552C374.774 57.8878 380.474 58.418 384.45 59.2132C388.426 60.141 391.077 61.2014 392.137 62.2617C393.198 63.4546 393.728 65.0451 393.728 67.0333C393.728 68.4913 393.463 69.6842 392.8 70.7445C392.137 71.8049 390.945 72.7327 388.956 73.793C387.101 74.8534 384.052 75.5161 379.943 76.0463C375.702 76.5764 373.051 76.9741 366.689 76.9741H359.399C340.048 76.9741 332.89 72.07 332.228 62.2617H299.224V63.5872C299.224 66.5031 299.489 69.2865 300.152 71.8049C300.815 74.3232 302.405 77.2392 304.791 80.4202C307.177 83.6013 310.491 86.3847 314.467 88.6379C318.576 90.8911 324.408 92.7468 331.963 94.3373C339.385 95.9278 348.266 96.7231 358.339 96.7231ZM506.556 0.761501C497.675 0.761501 489.723 1.29168 482.433 2.48457C475.275 3.54491 469.178 5.0029 464.274 6.85851C459.503 8.71412 455.261 10.9674 451.683 13.6182C447.971 16.2691 445.188 18.92 443.067 21.5708C441.079 24.2217 439.489 27.1377 438.296 30.3187C436.97 33.4998 436.175 36.4157 435.91 38.8015C435.512 41.3198 435.38 43.8382 435.38 46.6216V50.3328C435.38 52.9837 435.512 55.6345 435.91 58.1529C436.175 60.5387 436.97 63.4546 438.296 66.6357C439.489 69.8167 441.079 72.7327 443.067 75.5161C445.188 78.167 447.971 80.8178 451.683 83.6013C455.394 86.2521 459.635 88.5054 464.407 90.4935C469.178 92.3491 475.275 93.8071 482.433 95C489.723 96.1929 497.675 96.7231 506.556 96.7231H510.797C519.677 96.7231 527.63 96.1929 534.787 95C542.077 93.8071 548.042 92.3491 552.813 90.4935C557.585 88.5054 561.826 86.2521 565.538 83.6013C569.249 80.8178 572.032 78.167 574.02 75.5161C576.009 72.7327 577.599 69.8167 578.924 66.6357C580.117 63.4546 581.045 60.5387 581.31 58.1529C581.708 55.6345 581.84 52.9837 581.84 50.3328V46.6216C581.84 43.8382 581.708 41.3198 581.31 38.8015C581.045 36.2832 580.117 33.4998 578.924 30.3187C577.599 27.1377 576.009 24.2217 573.888 21.5708C571.9 18.92 569.116 16.2691 565.405 13.6182C561.826 10.9674 557.585 8.71412 552.813 6.85851C547.909 5.0029 541.945 3.54491 534.787 2.48457C527.63 1.29168 519.677 0.761501 510.797 0.761501H506.556ZM548.705 49.2725C548.705 52.1884 548.174 55.1044 546.981 57.7552C545.921 60.4061 543.933 63.057 541.15 65.5753C538.366 68.2262 534.125 70.3469 528.425 71.8049C523.521 73.2628 517.557 73.9256 510.797 74.1907C509.737 74.1907 508.146 74.1907 507.483 74.1907C500.194 74.0581 493.831 73.2628 488.53 71.8049C482.83 70.2143 478.722 68.0936 475.938 65.4428C473.287 62.7919 471.299 60.141 470.239 57.4902C469.046 54.8393 468.516 51.9233 468.516 49.0074V47.5494C468.516 31.7767 481.372 23.6915 506.953 23.1614C507.749 23.1614 510.134 23.1614 511.327 23.2939C516.496 23.4265 521.135 23.8241 525.244 24.7519C530.148 25.8122 534.125 27.1377 537.041 28.7282C539.957 30.1862 542.342 32.1743 544.066 34.4276C545.921 36.6808 547.114 38.8015 547.777 40.9222C548.439 42.9104 548.705 45.1636 548.705 47.5494V49.2725ZM630.751 95.1325H662.694V24.3543H706.301V2.35202H587.277V24.3543H630.751V95.1325ZM824.92 56.4298C821.739 52.8511 817.498 50.4653 812.329 49.0074C823.595 45.2961 829.294 38.669 829.294 28.9933V27.5353C829.294 11.7626 816.04 3.81 789.531 3.81H715.704V95H744.334V62.6594H781.711C788.736 62.6594 793.64 63.9848 796.556 66.5031C799.472 69.0215 800.93 73.1303 800.93 78.6971V95H829.692V69.9493C829.692 64.3824 828.101 59.8759 824.92 56.4298ZM799.339 33.4998C799.339 36.1506 798.411 38.4039 796.556 39.9944C794.7 41.5849 791.784 42.5127 787.808 42.5127H744.334V24.4868H787.808C791.784 24.4868 794.7 25.4146 796.556 27.0051C798.411 28.5957 799.339 30.7164 799.339 33.3672V33.4998ZM911.047 0.761501C902.166 0.761501 894.214 1.29168 886.924 2.48457C879.766 3.54491 873.669 5.0029 868.765 6.85851C863.994 8.71412 859.752 10.9674 856.174 13.6182C852.462 16.2691 849.679 18.92 847.558 21.5708C845.57 24.2217 843.98 27.1377 842.787 30.3187C841.461 33.4998 840.666 36.4157 840.401 38.8015C840.003 41.3198 839.871 43.8382 839.871 46.6216V50.3328C839.871 52.9837 840.003 55.6345 840.401 58.1529C840.666 60.5387 841.461 63.4546 842.787 66.6357C843.98 69.8167 845.57 72.7327 847.558 75.5161C849.679 78.167 852.462 80.8178 856.174 83.6013C859.885 86.2521 864.126 88.5054 868.898 90.4935C873.669 92.3491 879.766 93.8071 886.924 95C894.214 96.1929 902.166 96.7231 911.047 96.7231H915.288C924.168 96.7231 932.121 96.1929 939.278 95C946.568 93.8071 952.533 92.3491 957.304 90.4935C962.076 88.5054 966.317 86.2521 970.029 83.6013C973.74 80.8178 976.523 78.167 978.511 75.5161C980.499 72.7327 982.09 69.8167 983.415 66.6357C984.608 63.4546 985.536 60.5387 985.801 58.1529C986.199 55.6345 986.331 52.9837 986.331 50.3328V46.6216C986.331 43.8382 986.199 41.3198 985.801 38.8015C985.536 36.2832 984.608 33.4998 983.415 30.3187C982.09 27.1377 980.499 24.2217 978.379 21.5708C976.391 18.92 973.607 16.2691 969.896 13.6182C966.317 10.9674 962.076 8.71412 957.304 6.85851C952.4 5.0029 946.436 3.54491 939.278 2.48457C932.121 1.29168 924.168 0.761501 915.288 0.761501H911.047ZM953.195 49.2725C953.195 52.1884 952.665 55.1044 951.472 57.7552C950.412 60.4061 948.424 63.057 945.641 65.5753C942.857 68.2262 938.616 70.3469 932.916 71.8049C928.012 73.2628 922.048 73.9256 915.288 74.1907C914.228 74.1907 912.637 74.1907 911.974 74.1907C904.685 74.0581 898.322 73.2628 893.021 71.8049C887.321 70.2143 883.212 68.0936 880.429 65.4428C877.778 62.7919 875.79 60.141 874.73 57.4902C873.537 54.8393 873.007 51.9233 873.007 49.0074V47.5494C873.007 31.7767 885.863 23.6915 911.444 23.1614C912.24 23.1614 914.625 23.1614 915.818 23.2939C920.987 23.4265 925.626 23.8241 929.735 24.7519C934.639 25.8122 938.616 27.1377 941.532 28.7282C944.448 30.1862 946.833 32.1743 948.556 34.4276C950.412 36.6808 951.605 38.8015 952.268 40.9222C952.93 42.9104 953.195 45.1636 953.195 47.5494V49.2725ZM1054.06 96.7231H1063.34C1073.15 96.7231 1081.76 96.1929 1089.05 94.8675C1096.34 93.6746 1102.04 92.2166 1106.29 90.2284C1110.53 88.3728 1113.84 85.987 1116.36 83.2036C1118.88 80.2877 1120.6 77.5042 1121.4 74.8534C1122.19 72.2025 1122.59 69.154 1122.59 65.7079V63.9848C1122.59 54.5742 1118.48 47.8145 1110 43.4405C1101.65 39.0666 1088.13 36.6808 1069.17 36.4157L1059.63 36.2832L1052.21 36.1506C1045.71 36.0181 1040.68 35.6205 1037.1 34.8252C1033.52 33.8974 1031.27 32.9696 1030.34 32.0418C1029.28 30.9814 1028.88 29.7885 1028.88 28.198C1028.88 26.475 1029.28 25.1495 1030.21 24.2217C1031 23.2939 1033.52 22.3661 1037.5 21.4383C1041.6 20.643 1046.38 20.2454 1054.06 20.2454H1058.7C1063.74 20.2454 1066.65 20.5105 1070.37 21.0407C1074.08 21.7034 1076.99 22.3661 1078.85 23.0288C1080.84 23.8241 1082.3 24.7519 1083.49 25.9448C1084.68 27.1377 1085.48 28.0655 1085.74 28.7282C1086.01 29.3909 1086.27 30.3187 1086.54 31.2465H1119.41V30.0536C1119.41 27.0051 1118.88 24.2217 1117.82 21.5708C1116.89 19.0525 1115.03 16.4016 1112.38 13.7508C1109.73 11.0999 1106.29 8.84666 1102.04 6.99105C1097.8 5.13544 1092.24 3.67746 1085.08 2.48457C1078.05 1.29168 1069.84 0.761501 1060.69 0.761501H1051.28C1042.4 0.761501 1034.58 1.29168 1027.95 2.48457C1021.19 3.54491 1015.89 5.0029 1011.91 6.72597C1007.94 8.44903 1004.76 10.5697 1002.37 13.0881C999.853 15.7389 998.262 18.2573 997.467 20.7756C996.672 23.2939 996.274 26.0773 996.274 28.9933V30.1862C996.274 47.4168 1012.71 56.5624 1045.58 57.3576L1053 57.4902L1062.94 57.7552C1070.5 57.8878 1076.2 58.418 1080.17 59.2132C1084.15 60.141 1086.8 61.2014 1087.86 62.2617C1088.92 63.4546 1089.45 65.0451 1089.45 67.0333C1089.45 68.4913 1089.19 69.6842 1088.52 70.7445C1087.86 71.8049 1086.67 72.7327 1084.68 73.793C1082.83 74.8534 1079.78 75.5161 1075.67 76.0463C1071.43 76.5764 1068.78 76.9741 1062.41 76.9741H1055.12C1035.77 76.9741 1028.61 72.07 1027.95 62.2617H994.949V63.5872C994.949 66.5031 995.214 69.2865 995.877 71.8049C996.539 74.3232 998.13 77.2392 1000.52 80.4202C1002.9 83.6013 1006.22 86.3847 1010.19 88.6379C1014.3 90.8911 1020.13 92.7468 1027.69 94.3373C1035.11 95.9278 1043.99 96.7231 1054.06 96.7231Z" fill="white"/>
</svg>
