<svg width="1049" height="97" viewBox="0 0 1049 97" fill="none" xmlns="http://www.w3.org/2000/svg">
<path d="M59.6209 96.7231H68.899C78.7072 96.7231 87.3225 96.1929 94.6124 94.8675C101.902 93.6746 107.602 92.2166 111.843 90.2284C116.084 88.3728 119.398 85.987 121.916 83.2036C124.435 80.2877 126.158 77.5042 126.953 74.8534C127.748 72.2025 128.146 69.154 128.146 65.7079V63.9848C128.146 54.5742 124.037 47.8145 115.554 43.4405C107.204 39.0666 93.6846 36.6808 74.7309 36.4157L65.1878 36.2832L57.7653 36.1506C51.2707 36.0181 46.234 35.6205 42.6553 34.8252C39.0767 33.8974 36.8234 32.9696 35.8956 32.0418C34.8353 30.9814 34.4376 29.7885 34.4376 28.198C34.4376 26.475 34.8353 25.1495 35.7631 24.2217C36.5583 23.2939 39.0767 22.3661 43.053 21.4383C47.1618 20.643 51.9334 20.2454 59.6209 20.2454H64.26C69.2966 20.2454 72.2126 20.5105 75.9238 21.0407C79.635 21.7034 82.551 22.3661 84.4066 23.0288C86.3947 23.8241 87.8527 24.7519 89.0456 25.9448C90.2385 27.1377 91.0338 28.0655 91.2988 28.7282C91.5639 29.3909 91.829 30.3187 92.0941 31.2465H124.965V30.0536C124.965 27.0051 124.435 24.2217 123.374 21.5708C122.447 19.0525 120.591 16.4016 117.94 13.7508C115.289 11.0999 111.843 8.84666 107.602 6.99105C103.36 5.13544 97.7935 3.67746 90.6361 2.48457C83.6113 1.29168 75.3936 0.761501 66.2481 0.761501H56.8375C47.9571 0.761501 40.137 1.29168 33.5098 2.48457C26.7501 3.54491 21.4484 5.0029 17.4721 6.72597C13.4958 8.44903 10.3147 10.5697 7.92892 13.0881C5.4106 15.7389 3.82007 18.2573 3.02481 20.7756C2.22955 23.2939 1.83192 26.0773 1.83192 28.9933V30.1862C1.83192 47.4168 18.2673 56.5624 51.1381 57.3576L58.5606 57.4902L68.5014 57.7552C76.0563 57.8878 81.7557 58.418 85.732 59.2132C89.7083 60.141 92.3592 61.2014 93.4195 62.2617C94.4799 63.4546 95.0101 65.0451 95.0101 67.0333C95.0101 68.4913 94.745 69.6842 94.0823 70.7445C93.4195 71.8049 92.2267 72.7327 90.2385 73.793C88.3829 74.8534 85.3344 75.5161 81.2255 76.0463C76.9841 76.5764 74.3333 76.9741 67.9712 76.9741H60.6813C41.3299 76.9741 34.1726 72.07 33.5098 62.2617H0.506482V63.5872C0.506482 66.5031 0.77157 69.2865 1.43429 71.8049C2.09701 74.3232 3.68753 77.2392 6.07331 80.4202C8.4591 83.6013 11.7727 86.3847 15.749 88.6379C19.8578 90.8911 25.6898 92.7468 33.2448 94.3373C40.6672 95.9278 49.5476 96.7231 59.6209 96.7231ZM140.638 2.08694V95H248.794V73.3954H171.918V58.1529H245.613V36.9459H171.918V23.1614H247.336V2.08694H140.638ZM372.043 56.4298C368.862 52.8511 364.62 50.4653 359.451 49.0074C370.717 45.2961 376.417 38.669 376.417 28.9933V27.5353C376.417 11.7626 363.162 3.81 336.654 3.81H262.827V95H291.456V62.6594H328.834C335.858 62.6594 340.762 63.9848 343.678 66.5031C346.594 69.0215 348.052 73.1303 348.052 78.6971V95H376.814V69.9493C376.814 64.3824 375.224 59.8759 372.043 56.4298ZM346.462 33.4998C346.462 36.1506 345.534 38.4039 343.678 39.9944C341.823 41.5849 338.907 42.5127 334.931 42.5127H291.456V24.4868H334.931C338.907 24.4868 341.823 25.4146 343.678 27.0051C345.534 28.5957 346.462 30.7164 346.462 33.3672V33.4998ZM469.661 93.9397L517.907 2.35202H485.434L450.972 69.6842L414.258 2.35202H378.869L430.693 93.9397H469.661ZM557.256 2.48457H525.71V95H557.256V2.48457ZM636.97 96.5905H642.537C653.538 96.5905 663.347 95.6627 671.829 93.8071C680.312 91.819 686.939 89.4332 691.578 86.7823C696.35 83.9989 700.194 80.8178 703.242 77.2392C706.158 73.5279 708.146 70.3469 709.207 67.4309C710.135 64.515 710.532 61.599 710.532 58.8156V57.4902H676.866C676.866 57.6227 676.866 57.7552 676.734 57.8878C673.022 68.6238 660.828 74.0581 640.019 74.0581C632.994 74.0581 626.897 73.2628 621.728 71.6723C616.559 70.0818 612.715 67.9611 610.064 65.3102C607.413 62.6594 605.425 60.0085 604.232 57.2251C603.039 54.4417 602.377 51.5257 602.377 48.4772V47.0192C602.377 43.8382 602.907 40.9222 604.1 38.2713C605.16 35.6205 607.016 33.1021 609.534 30.5838C612.185 28.198 616.029 26.3424 621.198 25.017C626.234 23.559 632.464 22.8963 639.754 22.8963C645.851 22.8963 651.153 23.4265 655.924 24.3543C660.563 25.2821 664.142 26.3424 666.528 27.5353C668.914 28.7282 670.902 30.1862 672.625 31.9092C674.348 33.6323 675.408 34.9578 675.806 35.753C676.203 36.5483 676.468 37.3435 676.734 38.4039H710.4V36.9459C710.4 34.4276 710.002 31.7767 709.207 28.9933C708.279 26.2099 706.423 23.0288 703.375 19.4501C700.459 15.8715 696.615 12.823 691.976 10.0396C687.337 7.38868 680.71 5.13544 672.227 3.14729C663.612 1.29168 653.804 0.363867 642.537 0.363867H636.97C625.572 0.363867 615.498 1.42422 607.016 3.67746C598.4 5.79816 591.773 8.44903 587.134 11.6301C582.495 14.8111 578.784 18.6549 575.868 23.0288C573.084 27.4028 571.229 31.3791 570.434 34.9578C569.638 38.5364 569.241 42.3802 569.241 46.3565V50.0677C569.241 52.586 569.373 55.1044 569.771 57.7552C570.169 60.2736 571.096 63.1895 572.422 66.3706C573.747 69.5516 575.338 72.4676 577.326 75.251C579.314 78.0344 582.097 80.6853 585.676 83.4687C589.255 86.1196 593.231 88.3728 597.87 90.361C602.377 92.2166 608.076 93.6746 614.836 94.8675C621.595 96.0603 628.885 96.5905 636.97 96.5905ZM754 2.48457H722.455V95H754V2.48457ZM837.161 0.761501C828.281 0.761501 820.328 1.29168 813.038 2.48457C805.881 3.54491 799.784 5.0029 794.88 6.85851C790.108 8.71412 785.867 10.9674 782.288 13.6182C778.577 16.2691 775.793 18.92 773.673 21.5708C771.684 24.2217 770.094 27.1377 768.901 30.3187C767.576 33.4998 766.78 36.4157 766.515 38.8015C766.118 41.3198 765.985 43.8382 765.985 46.6216V50.3328C765.985 52.9837 766.118 55.6345 766.515 58.1529C766.78 60.5387 767.576 63.4546 768.901 66.6357C770.094 69.8167 771.684 72.7327 773.673 75.5161C775.793 78.167 778.577 80.8178 782.288 83.6013C785.999 86.2521 790.241 88.5054 795.012 90.4935C799.784 92.3491 805.881 93.8071 813.038 95C820.328 96.1929 828.281 96.7231 837.161 96.7231H841.402C850.283 96.7231 858.235 96.1929 865.393 95C872.683 93.8071 878.647 92.3491 883.419 90.4935C888.19 88.5054 892.432 86.2521 896.143 83.6013C899.854 80.8178 902.638 78.167 904.626 75.5161C906.614 72.7327 908.204 69.8167 909.53 66.6357C910.723 63.4546 911.651 60.5387 911.916 58.1529C912.313 55.6345 912.446 52.9837 912.446 50.3328V46.6216C912.446 43.8382 912.313 41.3198 911.916 38.8015C911.651 36.2832 910.723 33.4998 909.53 30.3187C908.204 27.1377 906.614 24.2217 904.493 21.5708C902.505 18.92 899.722 16.2691 896.01 13.6182C892.432 10.9674 888.19 8.71412 883.419 6.85851C878.515 5.0029 872.55 3.54491 865.393 2.48457C858.235 1.29168 850.283 0.761501 841.402 0.761501H837.161ZM879.31 49.2725C879.31 52.1884 878.78 55.1044 877.587 57.7552C876.526 60.4061 874.538 63.057 871.755 65.5753C868.971 68.2262 864.73 70.3469 859.031 71.8049C854.127 73.2628 848.162 73.9256 841.402 74.1907C840.342 74.1907 838.752 74.1907 838.089 74.1907C830.799 74.0581 824.437 73.2628 819.135 71.8049C813.436 70.2143 809.327 68.0936 806.543 65.4428C803.893 62.7919 801.904 60.141 800.844 57.4902C799.651 54.8393 799.121 51.9233 799.121 49.0074V47.5494C799.121 31.7767 811.978 23.6915 837.559 23.1614C838.354 23.1614 840.74 23.1614 841.933 23.2939C847.102 23.4265 851.741 23.8241 855.85 24.7519C860.754 25.8122 864.73 27.1377 867.646 28.7282C870.562 30.1862 872.948 32.1743 874.671 34.4276C876.526 36.6808 877.719 38.8015 878.382 40.9222C879.045 42.9104 879.31 45.1636 879.31 47.5494V49.2725ZM980.178 96.7231H989.456C999.264 96.7231 1007.88 96.1929 1015.17 94.8675C1022.46 93.6746 1028.16 92.2166 1032.4 90.2284C1036.64 88.3728 1039.95 85.987 1042.47 83.2036C1044.99 80.2877 1046.71 77.5042 1047.51 74.8534C1048.31 72.2025 1048.7 69.154 1048.7 65.7079V63.9848C1048.7 54.5742 1044.59 47.8145 1036.11 43.4405C1027.76 39.0666 1014.24 36.6808 995.288 36.4157L985.744 36.2832L978.322 36.1506C971.827 36.0181 966.791 35.6205 963.212 34.8252C959.633 33.8974 957.38 32.9696 956.452 32.0418C955.392 30.9814 954.994 29.7885 954.994 28.198C954.994 26.475 955.392 25.1495 956.32 24.2217C957.115 23.2939 959.633 22.3661 963.61 21.4383C967.719 20.643 972.49 20.2454 980.178 20.2454H984.817C989.853 20.2454 992.769 20.5105 996.48 21.0407C1000.19 21.7034 1003.11 22.3661 1004.96 23.0288C1006.95 23.8241 1008.41 24.7519 1009.6 25.9448C1010.8 27.1377 1011.59 28.0655 1011.86 28.7282C1012.12 29.3909 1012.39 30.3187 1012.65 31.2465H1045.52V30.0536C1045.52 27.0051 1044.99 24.2217 1043.93 21.5708C1043 19.0525 1041.15 16.4016 1038.5 13.7508C1035.85 11.0999 1032.4 8.84666 1028.16 6.99105C1023.92 5.13544 1018.35 3.67746 1011.19 2.48457C1004.17 1.29168 995.95 0.761501 986.805 0.761501H977.394C968.514 0.761501 960.694 1.29168 954.067 2.48457C947.307 3.54491 942.005 5.0029 938.029 6.72597C934.052 8.44903 930.871 10.5697 928.486 13.0881C925.967 15.7389 924.377 18.2573 923.582 20.7756C922.786 23.2939 922.389 26.0773 922.389 28.9933V30.1862C922.389 47.4168 938.824 56.5624 971.695 57.3576L979.117 57.4902L989.058 57.7552C996.613 57.8878 1002.31 58.418 1006.29 59.2132C1010.27 60.141 1012.92 61.2014 1013.98 62.2617C1015.04 63.4546 1015.57 65.0451 1015.57 67.0333C1015.57 68.4913 1015.3 69.6842 1014.64 70.7445C1013.98 71.8049 1012.78 72.7327 1010.8 73.793C1008.94 74.8534 1005.89 75.5161 1001.78 76.0463C997.541 76.5764 994.89 76.9741 988.528 76.9741H981.238C961.887 76.9741 954.729 72.07 954.067 62.2617H921.063V63.5872C921.063 66.5031 921.328 69.2865 921.991 71.8049C922.654 74.3232 924.244 77.2392 926.63 80.4202C929.016 83.6013 932.329 86.3847 936.306 88.6379C940.415 90.8911 946.246 92.7468 953.801 94.3373C961.224 95.9278 970.104 96.7231 980.178 96.7231Z" fill="white"/>
</svg>
