<svg width="623" height="99" viewBox="0 0 623 99" fill="none" xmlns="http://www.w3.org/2000/svg">
<path d="M55.1062 40H92.0662C103.882 40 109.818 36.248 109.818 28.688V27.96C109.818 26.336 109.482 24.88 108.81 23.648C108.194 22.36 107.298 21.352 106.234 20.624C105.17 19.952 104.218 19.392 103.322 19C102.426 18.608 101.53 18.272 100.578 18.104C101.25 17.936 101.922 17.656 102.538 17.32C103.21 17.04 103.938 16.592 104.722 15.976C105.562 15.416 106.178 14.632 106.682 13.68C107.13 12.728 107.41 11.608 107.41 10.432V9.704C107.41 7.072 106.234 4.888 103.826 3.208C101.474 1.528 97.4422 0.743998 91.7302 0.743998H55.1062V40ZM68.4902 9.032H89.4342C92.5702 9.032 94.0822 10.04 94.0822 12.112V12.224C94.0822 14.352 92.5702 15.416 89.4342 15.416H68.4902V9.032ZM90.6102 23.76C94.1382 23.76 95.8742 24.936 95.8742 27.4V27.568C95.8742 28.632 95.4822 29.528 94.7542 30.256C93.9702 31.04 92.5702 31.432 90.6102 31.432H68.4902V23.76H90.6102ZM156.338 0.575997V18.72C156.338 20.12 156.114 21.408 155.722 22.584C155.33 23.816 154.658 24.992 153.65 26.168C152.698 27.344 151.242 28.24 149.338 28.912C147.378 29.584 145.082 29.976 142.394 29.976C139.65 29.976 137.298 29.584 135.338 28.912C133.322 28.24 131.866 27.344 130.914 26.168C129.962 24.992 129.29 23.816 128.898 22.584C128.506 21.408 128.282 20.12 128.282 18.72V0.575997H114.954V19.448C114.954 20.624 115.01 21.744 115.178 22.92C115.346 24.04 115.682 25.328 116.186 26.728C116.746 28.128 117.362 29.416 118.202 30.648C118.986 31.824 120.05 33.056 121.45 34.232C122.794 35.408 124.418 36.416 126.21 37.256C128.002 38.096 130.186 38.768 132.818 39.272C135.394 39.776 138.306 40 141.442 40H143.514C147.658 40 151.354 39.552 154.602 38.544C157.794 37.592 160.314 36.36 162.162 34.904C164.01 33.448 165.522 31.768 166.698 29.808C167.874 27.904 168.658 26.056 169.05 24.432C169.442 22.752 169.666 21.072 169.666 19.448V0.575997H156.338ZM199.888 40.728H203.808C207.952 40.728 211.592 40.504 214.672 39.944C217.752 39.44 220.16 38.824 221.952 37.984C223.744 37.2 225.144 36.192 226.208 35.016C227.272 33.784 228 32.608 228.336 31.488C228.672 30.368 228.84 29.08 228.84 27.624V26.896C228.84 22.92 227.104 20.064 223.52 18.216C219.992 16.368 214.28 15.36 206.272 15.248L202.24 15.192L199.104 15.136C196.36 15.08 194.232 14.912 192.72 14.576C191.208 14.184 190.256 13.792 189.864 13.4C189.416 12.952 189.248 12.448 189.248 11.776C189.248 11.048 189.416 10.488 189.808 10.096C190.144 9.704 191.208 9.312 192.888 8.92C194.624 8.584 196.64 8.416 199.888 8.416H201.848C203.976 8.416 205.208 8.528 206.776 8.752C208.344 9.032 209.576 9.312 210.36 9.592C211.2 9.928 211.816 10.32 212.32 10.824C212.824 11.328 213.16 11.72 213.272 12C213.384 12.28 213.496 12.672 213.608 13.064H227.496V12.56C227.496 11.272 227.272 10.096 226.824 8.976C226.432 7.912 225.648 6.792 224.528 5.672C223.408 4.552 221.952 3.6 220.16 2.816C218.368 2.032 216.016 1.416 212.992 0.911999C210.024 0.407999 206.552 0.183999 202.688 0.183999H198.712C194.96 0.183999 191.656 0.407999 188.856 0.911999C186 1.36 183.76 1.976 182.08 2.704C180.4 3.432 179.056 4.328 178.048 5.392C176.984 6.512 176.312 7.576 175.976 8.64C175.64 9.704 175.472 10.88 175.472 12.112V12.616C175.472 19.896 182.416 23.76 196.304 24.096L199.44 24.152L203.64 24.264C206.832 24.32 209.24 24.544 210.92 24.88C212.6 25.272 213.72 25.72 214.168 26.168C214.616 26.672 214.84 27.344 214.84 28.184C214.84 28.8 214.728 29.304 214.448 29.752C214.168 30.2 213.664 30.592 212.824 31.04C212.04 31.488 210.752 31.768 209.016 31.992C207.224 32.216 206.104 32.384 203.416 32.384H200.336C192.16 32.384 189.136 30.312 188.856 26.168H174.912V26.728C174.912 27.96 175.024 29.136 175.304 30.2C175.584 31.264 176.256 32.496 177.264 33.84C178.272 35.184 179.672 36.36 181.352 37.312C183.088 38.264 185.552 39.048 188.744 39.72C191.88 40.392 195.632 40.728 199.888 40.728ZM247.39 0.911999H234.062V40H247.39V0.911999ZM386.854 0.519998V25.384L269.198 0.519998H254.134V40H267.462V13.848L386.854 40H400.182V0.519998H386.854ZM406.985 0.743998V40H452.681V30.872H420.201V24.432H451.337V15.472H420.201V9.648H452.065V0.743998H406.985ZM482.13 40.728H486.05C490.194 40.728 493.834 40.504 496.914 39.944C499.994 39.44 502.402 38.824 504.194 37.984C505.986 37.2 507.386 36.192 508.45 35.016C509.514 33.784 510.242 32.608 510.578 31.488C510.914 30.368 511.082 29.08 511.082 27.624V26.896C511.082 22.92 509.346 20.064 505.762 18.216C502.234 16.368 496.522 15.36 488.514 15.248L484.482 15.192L481.346 15.136C478.602 15.08 476.474 14.912 474.962 14.576C473.45 14.184 472.498 13.792 472.106 13.4C471.658 12.952 471.49 12.448 471.49 11.776C471.49 11.048 471.658 10.488 472.05 10.096C472.386 9.704 473.45 9.312 475.13 8.92C476.866 8.584 478.882 8.416 482.13 8.416H484.09C486.218 8.416 487.45 8.528 489.018 8.752C490.586 9.032 491.818 9.312 492.602 9.592C493.442 9.928 494.058 10.32 494.562 10.824C495.066 11.328 495.402 11.72 495.514 12C495.626 12.28 495.738 12.672 495.85 13.064H509.738V12.56C509.738 11.272 509.514 10.096 509.066 8.976C508.674 7.912 507.89 6.792 506.77 5.672C505.65 4.552 504.194 3.6 502.402 2.816C500.61 2.032 498.258 1.416 495.234 0.911999C492.266 0.407999 488.794 0.183999 484.93 0.183999H480.954C477.202 0.183999 473.898 0.407999 471.098 0.911999C468.242 1.36 466.002 1.976 464.322 2.704C462.642 3.432 461.298 4.328 460.29 5.392C459.226 6.512 458.554 7.576 458.218 8.64C457.882 9.704 457.714 10.88 457.714 12.112V12.616C457.714 19.896 464.658 23.76 478.546 24.096L481.682 24.152L485.882 24.264C489.074 24.32 491.482 24.544 493.162 24.88C494.842 25.272 495.962 25.72 496.41 26.168C496.858 26.672 497.082 27.344 497.082 28.184C497.082 28.8 496.97 29.304 496.69 29.752C496.41 30.2 495.906 30.592 495.066 31.04C494.282 31.488 492.994 31.768 491.258 31.992C489.466 32.216 488.346 32.384 485.658 32.384H482.578C474.402 32.384 471.378 30.312 471.098 26.168H457.154V26.728C457.154 27.96 457.266 29.136 457.546 30.2C457.826 31.264 458.498 32.496 459.506 33.84C460.514 35.184 461.914 36.36 463.594 37.312C465.33 38.264 467.794 39.048 470.986 39.72C474.122 40.392 477.874 40.728 482.13 40.728ZM538.544 40.728H542.464C546.608 40.728 550.248 40.504 553.328 39.944C556.408 39.44 558.816 38.824 560.608 37.984C562.4 37.2 563.8 36.192 564.864 35.016C565.928 33.784 566.656 32.608 566.992 31.488C567.328 30.368 567.496 29.08 567.496 27.624V26.896C567.496 22.92 565.76 20.064 562.176 18.216C558.648 16.368 552.936 15.36 544.928 15.248L540.896 15.192L537.76 15.136C535.016 15.08 532.888 14.912 531.376 14.576C529.864 14.184 528.912 13.792 528.52 13.4C528.072 12.952 527.904 12.448 527.904 11.776C527.904 11.048 528.072 10.488 528.464 10.096C528.8 9.704 529.864 9.312 531.544 8.92C533.28 8.584 535.296 8.416 538.544 8.416H540.504C542.632 8.416 543.864 8.528 545.432 8.752C547 9.032 548.232 9.312 549.016 9.592C549.856 9.928 550.472 10.32 550.976 10.824C551.48 11.328 551.816 11.72 551.928 12C552.04 12.28 552.152 12.672 552.264 13.064H566.152V12.56C566.152 11.272 565.928 10.096 565.48 8.976C565.088 7.912 564.304 6.792 563.184 5.672C562.064 4.552 560.608 3.6 558.816 2.816C557.024 2.032 554.672 1.416 551.648 0.911999C548.68 0.407999 545.208 0.183999 541.344 0.183999H537.368C533.616 0.183999 530.312 0.407999 527.512 0.911999C524.656 1.36 522.416 1.976 520.736 2.704C519.056 3.432 517.712 4.328 516.704 5.392C515.64 6.512 514.968 7.576 514.632 8.64C514.296 9.704 514.128 10.88 514.128 12.112V12.616C514.128 19.896 521.072 23.76 534.96 24.096L538.096 24.152L542.296 24.264C545.488 24.32 547.896 24.544 549.576 24.88C551.256 25.272 552.376 25.72 552.824 26.168C553.272 26.672 553.496 27.344 553.496 28.184C553.496 28.8 553.384 29.304 553.104 29.752C552.824 30.2 552.32 30.592 551.48 31.04C550.696 31.488 549.408 31.768 547.672 31.992C545.88 32.216 544.76 32.384 542.072 32.384H538.992C530.816 32.384 527.792 30.312 527.512 26.168H513.568V26.728C513.568 27.96 513.68 29.136 513.96 30.2C514.24 31.264 514.912 32.496 515.92 33.84C516.928 35.184 518.328 36.36 520.008 37.312C521.744 38.264 524.208 39.048 527.4 39.72C530.536 40.392 534.288 40.728 538.544 40.728ZM0.89125 58.744V98H46.5873V88.872H14.1073V82.432H45.2433V73.472H14.1073V67.648H45.9713V58.744H0.89125ZM52.5163 58.856V98.056H65.6763V72.072L94.6843 98.056H107.9V58.856H94.6843V83.496L67.4123 58.856H52.5163ZM114.64 98H127.968V82.6H156.584V98H169.968V58.912H156.584V73.136H127.968V58.912H114.64V98ZM213.896 59.248H194.016L173.24 97.944H186.344L189.984 90.888H217.928L221.568 97.944H234.728L213.896 59.248ZM194.52 82.152L201.856 67.928H206.056L213.448 82.152H194.52ZM238.016 58.856V98.056H251.176V72.072L280.184 98.056H293.4V58.856H280.184V83.496L252.912 58.856H238.016ZM327.132 98.672H329.484C334.132 98.672 338.276 98.28 341.86 97.496C345.444 96.656 348.244 95.648 350.204 94.528C352.22 93.352 353.844 92.008 355.132 90.496C356.364 88.928 357.204 87.584 357.652 86.352C358.044 85.12 358.212 83.888 358.212 82.712V82.152H343.988C343.988 82.208 343.988 82.264 343.932 82.32C342.364 86.856 337.212 89.152 328.42 89.152C325.452 89.152 322.876 88.816 320.692 88.144C318.508 87.472 316.884 86.576 315.764 85.456C314.644 84.336 313.804 83.216 313.3 82.04C312.796 80.864 312.516 79.632 312.516 78.344V77.728C312.516 76.384 312.74 75.152 313.244 74.032C313.692 72.912 314.476 71.848 315.54 70.784C316.66 69.776 318.284 68.992 320.468 68.432C322.596 67.816 325.228 67.536 328.308 67.536C330.884 67.536 333.124 67.76 335.14 68.152C337.1 68.544 338.612 68.992 339.62 69.496C340.628 70 341.468 70.616 342.196 71.344C342.924 72.072 343.372 72.632 343.54 72.968C343.708 73.304 343.82 73.64 343.932 74.088H358.156V73.472C358.156 72.408 357.988 71.288 357.652 70.112C357.26 68.936 356.476 67.592 355.188 66.08C353.956 64.568 352.332 63.28 350.372 62.104C348.412 60.984 345.612 60.032 342.028 59.192C338.388 58.408 334.244 58.016 329.484 58.016H327.132C322.316 58.016 318.06 58.464 314.476 59.416C310.836 60.312 308.036 61.432 306.076 62.776C304.116 64.12 302.548 65.744 301.316 67.592C300.14 69.44 299.356 71.12 299.02 72.632C298.684 74.144 298.516 75.768 298.516 77.448V79.016C298.516 80.08 298.572 81.144 298.74 82.264C298.908 83.328 299.3 84.56 299.86 85.904C300.42 87.248 301.092 88.48 301.932 89.656C302.772 90.832 303.948 91.952 305.46 93.128C306.972 94.248 308.652 95.2 310.612 96.04C312.516 96.824 314.924 97.44 317.78 97.944C320.636 98.448 323.716 98.672 327.132 98.672ZM376.689 88.816V82.32H508.625V73.248H376.689V67.424H509.353V58.408H363.305V98H509.969V88.816H376.689ZM562.082 81.704C560.738 80.192 558.946 79.184 556.762 78.568C561.522 77 563.93 74.2 563.93 70.112V69.496C563.93 62.832 558.33 59.472 547.13 59.472H515.938V98H528.034V84.336H543.826C546.794 84.336 548.866 84.896 550.098 85.96C551.33 87.024 551.946 88.76 551.946 91.112V98H564.098V87.416C564.098 85.064 563.426 83.16 562.082 81.704ZM551.274 72.016C551.274 73.136 550.882 74.088 550.098 74.76C549.314 75.432 548.082 75.824 546.402 75.824H528.034V68.208H546.402C548.082 68.208 549.314 68.6 550.098 69.272C550.882 69.944 551.274 70.84 551.274 71.96V72.016ZM593.599 98.728H597.519C601.663 98.728 605.303 98.504 608.383 97.944C611.463 97.44 613.871 96.824 615.663 95.984C617.455 95.2 618.855 94.192 619.919 93.016C620.983 91.784 621.711 90.608 622.047 89.488C622.383 88.368 622.551 87.08 622.551 85.624V84.896C622.551 80.92 620.815 78.064 617.231 76.216C613.703 74.368 607.991 73.36 599.983 73.248L595.951 73.192L592.815 73.136C590.071 73.08 587.943 72.912 586.431 72.576C584.919 72.184 583.967 71.792 583.575 71.4C583.127 70.952 582.959 70.448 582.959 69.776C582.959 69.048 583.127 68.488 583.519 68.096C583.855 67.704 584.919 67.312 586.599 66.92C588.335 66.584 590.351 66.416 593.599 66.416H595.559C597.687 66.416 598.919 66.528 600.487 66.752C602.055 67.032 603.287 67.312 604.071 67.592C604.911 67.928 605.527 68.32 606.031 68.824C606.535 69.328 606.871 69.72 606.983 70C607.095 70.28 607.207 70.672 607.319 71.064H621.207V70.56C621.207 69.272 620.983 68.096 620.535 66.976C620.143 65.912 619.359 64.792 618.239 63.672C617.119 62.552 615.663 61.6 613.871 60.816C612.079 60.032 609.727 59.416 606.703 58.912C603.735 58.408 600.263 58.184 596.399 58.184H592.423C588.671 58.184 585.367 58.408 582.567 58.912C579.711 59.36 577.471 59.976 575.791 60.704C574.111 61.432 572.767 62.328 571.759 63.392C570.695 64.512 570.023 65.576 569.687 66.64C569.351 67.704 569.183 68.88 569.183 70.112V70.616C569.183 77.896 576.127 81.76 590.015 82.096L593.151 82.152L597.351 82.264C600.543 82.32 602.951 82.544 604.631 82.88C606.311 83.272 607.431 83.72 607.879 84.168C608.327 84.672 608.551 85.344 608.551 86.184C608.551 86.8 608.439 87.304 608.159 87.752C607.879 88.2 607.375 88.592 606.535 89.04C605.751 89.488 604.463 89.768 602.727 89.992C600.935 90.216 599.815 90.384 597.127 90.384H594.047C585.871 90.384 582.847 88.312 582.567 84.168H568.623V84.728C568.623 85.96 568.735 87.136 569.015 88.2C569.295 89.264 569.967 90.496 570.975 91.84C571.983 93.184 573.383 94.36 575.063 95.312C576.799 96.264 579.263 97.048 582.455 97.72C585.591 98.392 589.343 98.728 593.599 98.728Z" fill="white"/>
</svg>
