<svg width="563" height="116" viewBox="0 0 563 116" fill="none" xmlns="http://www.w3.org/2000/svg">
<path d="M29.296 57.672H31.648C36.296 57.672 40.44 57.28 44.024 56.496C47.608 55.656 50.408 54.648 52.368 53.528C54.384 52.352 56.008 51.008 57.296 49.496C58.528 47.928 59.368 46.584 59.816 45.352C60.208 44.12 60.376 42.888 60.376 41.712V41.152H46.152C46.152 41.208 46.152 41.264 46.096 41.32C44.528 45.856 39.376 48.152 30.584 48.152C27.616 48.152 25.04 47.816 22.856 47.144C20.672 46.472 19.048 45.576 17.928 44.456C16.808 43.336 15.968 42.216 15.464 41.04C14.96 39.864 14.68 38.632 14.68 37.344V36.728C14.68 35.384 14.904 34.152 15.408 33.032C15.856 31.912 16.64 30.848 17.704 29.784C18.824 28.776 20.448 27.992 22.632 27.432C24.76 26.816 27.392 26.536 30.472 26.536C33.048 26.536 35.288 26.76 37.304 27.152C39.264 27.544 40.776 27.992 41.784 28.496C42.792 29 43.632 29.616 44.36 30.344C45.088 31.072 45.536 31.632 45.704 31.968C45.872 32.304 45.984 32.64 46.096 33.088H60.32V32.472C60.32 31.408 60.152 30.288 59.816 29.112C59.424 27.936 58.64 26.592 57.352 25.08C56.12 23.568 54.496 22.28 52.536 21.104C50.576 19.984 47.776 19.032 44.192 18.192C40.552 17.408 36.408 17.016 31.648 17.016H29.296C24.48 17.016 20.224 17.464 16.64 18.416C13 19.312 10.2 20.432 8.24 21.776C6.28 23.12 4.712 24.744 3.48 26.592C2.304 28.44 1.52 30.12 1.184 31.632C0.848 33.144 0.68 34.768 0.68 36.448V38.016C0.68 39.08 0.736 40.144 0.904 41.264C1.072 42.328 1.464 43.56 2.024 44.904C2.584 46.248 3.256 47.48 4.096 48.656C4.936 49.832 6.112 50.952 7.624 52.128C9.136 53.248 10.816 54.2 12.776 55.04C14.68 55.824 17.088 56.44 19.944 56.944C22.8 57.448 25.88 57.672 29.296 57.672ZM93.8614 17.184C90.1094 17.184 86.7494 17.408 83.6694 17.912C80.6454 18.36 78.0694 18.976 75.9974 19.76C73.9814 20.544 72.1894 21.496 70.6774 22.616C69.1094 23.736 67.9334 24.856 67.0374 25.976C66.1974 27.096 65.5254 28.328 65.0214 29.672C64.4614 31.016 64.1254 32.248 64.0134 33.256C63.8454 34.32 63.7894 35.384 63.7894 36.56V38.128C63.7894 39.248 63.8454 40.368 64.0134 41.432C64.1254 42.44 64.4614 43.672 65.0214 45.016C65.5254 46.36 66.1974 47.592 67.0374 48.768C67.9334 49.888 69.1094 51.008 70.6774 52.184C72.2454 53.304 74.0374 54.256 76.0534 55.096C78.0694 55.88 80.6454 56.496 83.6694 57C86.7494 57.504 90.1094 57.728 93.8614 57.728H95.6534C99.4054 57.728 102.765 57.504 105.789 57C108.869 56.496 111.389 55.88 113.405 55.096C115.421 54.256 117.213 53.304 118.781 52.184C120.349 51.008 121.525 49.888 122.365 48.768C123.205 47.592 123.877 46.36 124.437 45.016C124.941 43.672 125.333 42.44 125.445 41.432C125.613 40.368 125.669 39.248 125.669 38.128V36.56C125.669 35.384 125.613 34.32 125.445 33.256C125.333 32.192 124.941 31.016 124.437 29.672C123.877 28.328 123.205 27.096 122.309 25.976C121.469 24.856 120.293 23.736 118.725 22.616C117.213 21.496 115.421 20.544 113.405 19.76C111.333 18.976 108.813 18.36 105.789 17.912C102.765 17.408 99.4054 17.184 95.6534 17.184H93.8614ZM111.669 37.68C111.669 38.912 111.445 40.144 110.941 41.264C110.493 42.384 109.653 43.504 108.477 44.568C107.301 45.688 105.509 46.584 103.101 47.2C101.029 47.816 98.5094 48.096 95.6534 48.208C95.2054 48.208 94.5334 48.208 94.2534 48.208C91.1734 48.152 88.4854 47.816 86.2454 47.2C83.8374 46.528 82.1014 45.632 80.9254 44.512C79.8054 43.392 78.9654 42.272 78.5174 41.152C78.0134 40.032 77.7894 38.8 77.7894 37.568V36.952C77.7894 30.288 83.2214 26.872 94.0294 26.648C94.3654 26.648 95.3734 26.648 95.8774 26.704C98.0614 26.76 100.021 26.928 101.757 27.32C103.829 27.768 105.509 28.328 106.741 29C107.973 29.616 108.981 30.456 109.709 31.408C110.493 32.36 110.997 33.256 111.277 34.152C111.557 34.992 111.669 35.944 111.669 36.952V37.68ZM130.766 17.856V57.056H143.926V31.072L172.934 57.056H186.15V17.856H172.934V42.496L145.662 17.856H130.766ZM192.89 17.912V57H206.162V41.488H236.178V32.584H206.162V26.76H236.906V17.912H192.89ZM255.161 56.832V14.944H242.001V56.832H255.161ZM261.041 0.943997H247.433L242.393 9.4H255.105L261.041 0.943997ZM304.942 18.248H285.062L264.286 56.944H277.39L281.03 49.888H308.974L312.614 56.944H325.774L304.942 18.248ZM285.566 41.152L292.902 26.928H297.102L304.494 41.152H285.566ZM329.063 17.856V57.056H342.223V31.072L371.231 57.056H384.447V17.856H371.231V42.496L343.959 17.856H329.063ZM421.266 17.744V57H466.962V47.872H434.482V41.432H465.618V32.472H434.482V26.648H466.346V17.744H421.266ZM472.891 17.856V57.056H486.051V31.072L515.059 57.056H528.275V17.856H515.059V42.496L487.787 17.856H472.891ZM2.36 75.856V115.056H15.52V89.072L44.528 115.056H57.744V75.856H44.528V100.496L17.256 75.856H2.36ZM92.9317 75.184C89.1797 75.184 85.8197 75.408 82.7397 75.912C79.7157 76.36 77.1397 76.976 75.0677 77.76C73.0517 78.544 71.2597 79.496 69.7477 80.616C68.1797 81.736 67.0037 82.856 66.1077 83.976C65.2677 85.096 64.5957 86.328 64.0917 87.672C63.5317 89.016 63.1957 90.248 63.0837 91.256C62.9157 92.32 62.8597 93.384 62.8597 94.56V96.128C62.8597 97.248 62.9157 98.368 63.0837 99.432C63.1957 100.44 63.5317 101.672 64.0917 103.016C64.5957 104.36 65.2677 105.592 66.1077 106.768C67.0037 107.888 68.1797 109.008 69.7477 110.184C71.3157 111.304 73.1077 112.256 75.1237 113.096C77.1397 113.88 79.7157 114.496 82.7397 115C85.8197 115.504 89.1797 115.728 92.9317 115.728H94.7237C98.4757 115.728 101.836 115.504 104.86 115C107.94 114.496 110.46 113.88 112.476 113.096C114.492 112.256 116.284 111.304 117.852 110.184C119.42 109.008 120.596 107.888 121.436 106.768C122.276 105.592 122.948 104.36 123.508 103.016C124.012 101.672 124.404 100.44 124.516 99.432C124.684 98.368 124.74 97.248 124.74 96.128V94.56C124.74 93.384 124.684 92.32 124.516 91.256C124.404 90.192 124.012 89.016 123.508 87.672C122.948 86.328 122.276 85.096 121.38 83.976C120.54 82.856 119.364 81.736 117.796 80.616C116.284 79.496 114.492 78.544 112.476 77.76C110.404 76.976 107.884 76.36 104.86 75.912C101.836 75.408 98.4757 75.184 94.7237 75.184H92.9317ZM110.74 95.68C110.74 96.912 110.516 98.144 110.012 99.264C109.564 100.384 108.724 101.504 107.548 102.568C106.372 103.688 104.58 104.584 102.172 105.2C100.1 105.816 97.5797 106.096 94.7237 106.208C94.2757 106.208 93.6037 106.208 93.3237 106.208C90.2437 106.152 87.5557 105.816 85.3157 105.2C82.9077 104.528 81.1717 103.632 79.9957 102.512C78.8757 101.392 78.0357 100.272 77.5877 99.152C77.0837 98.032 76.8597 96.8 76.8597 95.568V94.952C76.8597 88.288 82.2917 84.872 93.0997 84.648C93.4357 84.648 94.4437 84.648 94.9477 84.704C97.1317 84.76 99.0917 84.928 100.828 85.32C102.9 85.768 104.58 86.328 105.812 87C107.044 87.616 108.052 88.456 108.78 89.408C109.564 90.36 110.068 91.256 110.348 92.152C110.628 92.992 110.74 93.944 110.74 94.952V95.68ZM153.357 115.728H157.277C161.421 115.728 165.061 115.504 168.141 114.944C171.221 114.44 173.629 113.824 175.421 112.984C177.213 112.2 178.613 111.192 179.677 110.016C180.741 108.784 181.469 107.608 181.805 106.488C182.141 105.368 182.309 104.08 182.309 102.624V101.896C182.309 97.92 180.573 95.064 176.989 93.216C173.461 91.368 167.749 90.36 159.741 90.248L155.709 90.192L152.573 90.136C149.829 90.08 147.701 89.912 146.189 89.576C144.677 89.184 143.725 88.792 143.333 88.4C142.885 87.952 142.717 87.448 142.717 86.776C142.717 86.048 142.885 85.488 143.277 85.096C143.613 84.704 144.677 84.312 146.357 83.92C148.093 83.584 150.109 83.416 153.357 83.416H155.317C157.445 83.416 158.677 83.528 160.245 83.752C161.813 84.032 163.045 84.312 163.829 84.592C164.669 84.928 165.285 85.32 165.789 85.824C166.293 86.328 166.629 86.72 166.741 87C166.853 87.28 166.965 87.672 167.077 88.064H180.965V87.56C180.965 86.272 180.741 85.096 180.293 83.976C179.901 82.912 179.117 81.792 177.997 80.672C176.877 79.552 175.421 78.6 173.629 77.816C171.837 77.032 169.485 76.416 166.461 75.912C163.493 75.408 160.021 75.184 156.157 75.184H152.181C148.429 75.184 145.125 75.408 142.325 75.912C139.469 76.36 137.229 76.976 135.549 77.704C133.869 78.432 132.525 79.328 131.517 80.392C130.453 81.512 129.781 82.576 129.445 83.64C129.109 84.704 128.941 85.88 128.941 87.112V87.616C128.941 94.896 135.885 98.76 149.773 99.096L152.909 99.152L157.109 99.264C160.301 99.32 162.709 99.544 164.389 99.88C166.069 100.272 167.189 100.72 167.637 101.168C168.085 101.672 168.309 102.344 168.309 103.184C168.309 103.8 168.197 104.304 167.917 104.752C167.637 105.2 167.133 105.592 166.293 106.04C165.509 106.488 164.221 106.768 162.485 106.992C160.693 107.216 159.573 107.384 156.885 107.384H153.805C145.629 107.384 142.605 105.312 142.325 101.168H128.381V101.728C128.381 102.96 128.493 104.136 128.773 105.2C129.053 106.264 129.725 107.496 130.733 108.84C131.741 110.184 133.141 111.36 134.821 112.312C136.557 113.264 139.021 114.048 142.213 114.72C145.349 115.392 149.101 115.728 153.357 115.728ZM333.411 91.144C333.299 90.136 332.963 88.96 332.515 87.672C332.011 86.384 331.395 85.208 330.611 84.088C329.827 82.968 328.763 81.904 327.419 80.784C326.019 79.72 324.395 78.768 322.603 78.04C320.755 77.256 318.459 76.696 315.771 76.192C313.027 75.744 310.003 75.52 306.699 75.52H212.899C209.539 75.52 206.515 75.744 203.771 76.192C201.027 76.696 198.731 77.256 196.883 78.04C195.035 78.768 193.411 79.72 192.067 80.784C190.667 81.904 189.603 82.968 188.819 84.088C188.091 85.208 187.475 86.384 186.971 87.728C186.523 89.016 186.243 90.192 186.075 91.2C185.963 92.208 185.907 93.272 185.907 94.392V95.96C185.907 97.024 185.963 98.088 186.075 99.096C186.243 100.16 186.523 101.336 186.971 102.624C187.475 103.968 188.091 105.144 188.819 106.264C189.603 107.384 190.723 108.504 192.067 109.624C193.467 110.744 195.091 111.64 196.883 112.424C198.731 113.208 201.027 113.824 203.771 114.328C206.515 114.776 209.539 115 212.899 115H306.699C310.003 115 313.027 114.776 315.771 114.328C318.515 113.824 320.811 113.208 322.603 112.424C324.451 111.64 326.019 110.744 327.419 109.624C328.819 108.504 329.883 107.384 330.667 106.264C331.395 105.144 332.011 103.968 332.515 102.624C332.963 101.336 333.299 100.16 333.411 99.096C333.579 98.088 333.635 97.024 333.635 95.96V94.392C333.635 93.272 333.579 92.208 333.411 91.144ZM321.035 95.456C321.035 96.688 320.867 97.864 320.419 98.984C319.971 100.048 319.243 101.168 318.179 102.232C317.115 103.296 315.491 104.136 313.363 104.808C311.403 105.368 308.995 105.704 306.251 105.76C306.027 105.76 214.187 105.76 213.963 105.76C210.883 105.76 208.251 105.424 206.067 104.752C203.939 104.136 202.315 103.24 201.307 102.176C200.243 101.056 199.515 99.936 199.123 98.872C198.675 97.752 198.451 96.632 198.451 95.4V94.784C198.451 88.064 203.603 84.76 213.963 84.76C214.187 84.76 306.027 84.76 306.251 84.76C308.491 84.816 310.451 84.984 312.131 85.376C314.035 85.824 315.547 86.384 316.611 87C317.731 87.672 318.627 88.456 319.299 89.352C319.971 90.304 320.475 91.2 320.699 92.04C320.923 92.88 321.035 93.776 321.035 94.784V95.456ZM354.311 115.056H367.807V85.152H386.231V75.856H335.943V85.152H354.311V115.056ZM436.348 98.704C435.004 97.192 433.212 96.184 431.028 95.568C435.788 94 438.196 91.2 438.196 87.112V86.496C438.196 79.832 432.596 76.472 421.396 76.472H390.204V115H402.3V101.336H418.092C421.06 101.336 423.132 101.896 424.364 102.96C425.596 104.024 426.212 105.76 426.212 108.112V115H438.364V104.416C438.364 102.064 437.692 100.16 436.348 98.704ZM425.54 89.016C425.54 90.136 425.148 91.088 424.364 91.76C423.58 92.432 422.348 92.824 420.668 92.824H402.3V85.208H420.668C422.348 85.208 423.58 85.6 424.364 86.272C425.148 86.944 425.54 87.84 425.54 88.96V89.016ZM472.736 75.184C468.984 75.184 465.624 75.408 462.544 75.912C459.52 76.36 456.944 76.976 454.872 77.76C452.856 78.544 451.064 79.496 449.552 80.616C447.984 81.736 446.808 82.856 445.912 83.976C445.072 85.096 444.4 86.328 443.896 87.672C443.336 89.016 443 90.248 442.888 91.256C442.72 92.32 442.664 93.384 442.664 94.56V96.128C442.664 97.248 442.72 98.368 442.888 99.432C443 100.44 443.336 101.672 443.896 103.016C444.4 104.36 445.072 105.592 445.912 106.768C446.808 107.888 447.984 109.008 449.552 110.184C451.12 111.304 452.912 112.256 454.928 113.096C456.944 113.88 459.52 114.496 462.544 115C465.624 115.504 468.984 115.728 472.736 115.728H474.528C478.28 115.728 481.64 115.504 484.664 115C487.744 114.496 490.264 113.88 492.28 113.096C494.296 112.256 496.088 111.304 497.656 110.184C499.224 109.008 500.4 107.888 501.24 106.768C502.08 105.592 502.752 104.36 503.312 103.016C503.816 101.672 504.208 100.44 504.32 99.432C504.488 98.368 504.544 97.248 504.544 96.128V94.56C504.544 93.384 504.488 92.32 504.32 91.256C504.208 90.192 503.816 89.016 503.312 87.672C502.752 86.328 502.08 85.096 501.184 83.976C500.344 82.856 499.168 81.736 497.6 80.616C496.088 79.496 494.296 78.544 492.28 77.76C490.208 76.976 487.688 76.36 484.664 75.912C481.64 75.408 478.28 75.184 474.528 75.184H472.736ZM490.544 95.68C490.544 96.912 490.32 98.144 489.816 99.264C489.368 100.384 488.528 101.504 487.352 102.568C486.176 103.688 484.384 104.584 481.976 105.2C479.904 105.816 477.384 106.096 474.528 106.208C474.08 106.208 473.408 106.208 473.128 106.208C470.048 106.152 467.36 105.816 465.12 105.2C462.712 104.528 460.976 103.632 459.8 102.512C458.68 101.392 457.84 100.272 457.392 99.152C456.888 98.032 456.664 96.8 456.664 95.568V94.952C456.664 88.288 462.096 84.872 472.904 84.648C473.24 84.648 474.248 84.648 474.752 84.704C476.936 84.76 478.896 84.928 480.632 85.32C482.704 85.768 484.384 86.328 485.616 87C486.848 87.616 487.856 88.456 488.584 89.408C489.368 90.36 489.872 91.256 490.152 92.152C490.432 92.992 490.544 93.944 490.544 94.952V95.68ZM533.161 115.728H537.081C541.225 115.728 544.865 115.504 547.945 114.944C551.025 114.44 553.433 113.824 555.225 112.984C557.017 112.2 558.417 111.192 559.481 110.016C560.545 108.784 561.273 107.608 561.609 106.488C561.945 105.368 562.113 104.08 562.113 102.624V101.896C562.113 97.92 560.377 95.064 556.793 93.216C553.265 91.368 547.553 90.36 539.545 90.248L535.513 90.192L532.377 90.136C529.633 90.08 527.505 89.912 525.993 89.576C524.481 89.184 523.529 88.792 523.137 88.4C522.689 87.952 522.521 87.448 522.521 86.776C522.521 86.048 522.689 85.488 523.081 85.096C523.417 84.704 524.481 84.312 526.161 83.92C527.897 83.584 529.913 83.416 533.161 83.416H535.121C537.249 83.416 538.481 83.528 540.049 83.752C541.617 84.032 542.849 84.312 543.633 84.592C544.473 84.928 545.089 85.32 545.593 85.824C546.097 86.328 546.433 86.72 546.545 87C546.657 87.28 546.769 87.672 546.881 88.064H560.769V87.56C560.769 86.272 560.545 85.096 560.097 83.976C559.705 82.912 558.921 81.792 557.801 80.672C556.681 79.552 555.225 78.6 553.433 77.816C551.641 77.032 549.289 76.416 546.265 75.912C543.297 75.408 539.825 75.184 535.961 75.184H531.985C528.233 75.184 524.929 75.408 522.129 75.912C519.273 76.36 517.033 76.976 515.353 77.704C513.673 78.432 512.329 79.328 511.321 80.392C510.257 81.512 509.585 82.576 509.249 83.64C508.913 84.704 508.745 85.88 508.745 87.112V87.616C508.745 94.896 515.689 98.76 529.577 99.096L532.713 99.152L536.913 99.264C540.105 99.32 542.513 99.544 544.193 99.88C545.873 100.272 546.993 100.72 547.441 101.168C547.889 101.672 548.113 102.344 548.113 103.184C548.113 103.8 548.001 104.304 547.721 104.752C547.441 105.2 546.937 105.592 546.097 106.04C545.313 106.488 544.025 106.768 542.289 106.992C540.497 107.216 539.377 107.384 536.689 107.384H533.609C525.433 107.384 522.409 105.312 522.129 101.168H508.185V101.728C508.185 102.96 508.297 104.136 508.577 105.2C508.857 106.264 509.529 107.496 510.537 108.84C511.545 110.184 512.945 111.36 514.625 112.312C516.361 113.264 518.825 114.048 522.017 114.72C525.153 115.392 528.905 115.728 533.161 115.728Z" fill="white"/>
</svg>
