<svg width="951" height="97" viewBox="0 0 951 97" fill="none" xmlns="http://www.w3.org/2000/svg">
<path d="M68.7061 96.5905H74.2729C85.274 96.5905 95.0823 95.6627 103.565 93.8071C112.048 91.819 118.675 89.4332 123.314 86.7823C128.086 83.9989 131.929 80.8178 134.978 77.2392C137.894 73.5279 139.882 70.3469 140.942 67.4309C141.87 64.515 142.268 61.599 142.268 58.8156V57.4902H108.602C108.602 57.6227 108.602 57.7552 108.469 57.8878C104.758 68.6238 92.5639 74.0581 71.7546 74.0581C64.7298 74.0581 58.6328 73.2628 53.4636 71.6723C48.2944 70.0818 44.4506 67.9611 41.7997 65.3102C39.1489 62.6594 37.1607 60.0085 35.9678 57.2251C34.7749 54.4417 34.1122 51.5257 34.1122 48.4772V47.0192C34.1122 43.8382 34.6424 40.9222 35.8353 38.2713C36.8956 35.6205 38.7512 33.1021 41.2696 30.5838C43.9204 28.198 47.7642 26.3424 52.9334 25.017C57.9701 23.559 64.1996 22.8963 71.4895 22.8963C77.5865 22.8963 82.8882 23.4265 87.6598 24.3543C92.2988 25.2821 95.8775 26.3424 98.2633 27.5353C100.649 28.7282 102.637 30.1862 104.36 31.9092C106.083 33.6323 107.144 34.9578 107.541 35.753C107.939 36.5483 108.204 37.3435 108.469 38.4039H142.135V36.9459C142.135 34.4276 141.738 31.7767 140.942 28.9933C140.015 26.2099 138.159 23.0288 135.11 19.4501C132.194 15.8715 128.351 12.823 123.712 10.0396C119.073 7.38868 112.445 5.13544 103.963 3.14729C95.3474 1.29168 85.5391 0.363867 74.2729 0.363867H68.7061C57.3073 0.363867 47.234 1.42422 38.7512 3.67746C30.1359 5.79816 23.5087 8.44903 18.8697 11.6301C14.2307 14.8111 10.5194 18.6549 7.60349 23.0288C4.82007 27.4028 2.96446 31.3791 2.1692 34.9578C1.37394 38.5364 0.976308 42.3802 0.976308 46.3565V50.0677C0.976308 52.586 1.10885 55.1044 1.50648 57.7552C1.90411 60.2736 2.83192 63.1895 4.15735 66.3706C5.48279 69.5516 7.07331 72.4676 9.06147 75.251C11.0496 78.0344 13.833 80.6853 17.4117 83.4687C20.9904 86.1196 24.9667 88.3728 29.6057 90.361C34.1122 92.2166 39.8116 93.6746 46.5713 94.8675C53.331 96.0603 60.6209 96.5905 68.7061 96.5905ZM154.323 2.35202V95.1325H256.249V72.07H185.868V2.35202H154.323ZM297.311 2.48457H265.765V95H297.311V2.48457ZM313.272 2.08694V95H421.427V73.3954H344.552V58.1529H418.246V36.9459H344.552V23.1614H419.969V2.08694H313.272ZM435.46 2.35202V95.1325H466.608V33.6323L535.266 95.1325H566.546V2.35202H535.266V60.6712L470.717 2.35202H435.46ZM619.478 95.1325H651.421V24.3543H695.027V2.35202H576.003V24.3543H619.478V95.1325ZM704.431 2.08694V95H812.586V73.3954H735.711V58.1529H809.405V36.9459H735.711V23.1614H811.128V2.08694H704.431ZM882.288 96.7231H891.566C901.374 96.7231 909.989 96.1929 917.279 94.8675C924.569 93.6746 930.268 92.2166 934.51 90.2284C938.751 88.3728 942.065 85.987 944.583 83.2036C947.101 80.2877 948.825 77.5042 949.62 74.8534C950.415 72.2025 950.813 69.154 950.813 65.7079V63.9848C950.813 54.5742 946.704 47.8145 938.221 43.4405C929.871 39.0666 916.351 36.6808 897.398 36.4157L887.855 36.2832L880.432 36.1506C873.937 36.0181 868.901 35.6205 865.322 34.8252C861.743 33.8974 859.49 32.9696 858.562 32.0418C857.502 30.9814 857.104 29.7885 857.104 28.198C857.104 26.475 857.502 25.1495 858.43 24.2217C859.225 23.2939 861.743 22.3661 865.72 21.4383C869.829 20.643 874.6 20.2454 882.288 20.2454H886.927C891.963 20.2454 894.879 20.5105 898.591 21.0407C902.302 21.7034 905.218 22.3661 907.073 23.0288C909.061 23.8241 910.519 24.7519 911.712 25.9448C912.905 27.1377 913.701 28.0655 913.966 28.7282C914.231 29.3909 914.496 30.3187 914.761 31.2465H947.632V30.0536C947.632 27.0051 947.101 24.2217 946.041 21.5708C945.113 19.0525 943.258 16.4016 940.607 13.7508C937.956 11.0999 934.51 8.84666 930.268 6.99105C926.027 5.13544 920.46 3.67746 913.303 2.48457C906.278 1.29168 898.06 0.761501 888.915 0.761501H879.504C870.624 0.761501 862.804 1.29168 856.177 2.48457C849.417 3.54491 844.115 5.0029 840.139 6.72597C836.163 8.44903 832.981 10.5697 830.596 13.0881C828.077 15.7389 826.487 18.2573 825.692 20.7756C824.896 23.2939 824.499 26.0773 824.499 28.9933V30.1862C824.499 47.4168 840.934 56.5624 873.805 57.3576L881.227 57.4902L891.168 57.7552C898.723 57.8878 904.422 58.418 908.399 59.2132C912.375 60.141 915.026 61.2014 916.086 62.2617C917.147 63.4546 917.677 65.0451 917.677 67.0333C917.677 68.4913 917.412 69.6842 916.749 70.7445C916.086 71.8049 914.893 72.7327 912.905 73.793C911.05 74.8534 908.001 75.5161 903.892 76.0463C899.651 76.5764 897 76.9741 890.638 76.9741H883.348C863.997 76.9741 856.839 72.07 856.177 62.2617H823.173V63.5872C823.173 66.5031 823.438 69.2865 824.101 71.8049C824.764 74.3232 826.354 77.2392 828.74 80.4202C831.126 83.6013 834.439 86.3847 838.416 88.6379C842.525 90.8911 848.357 92.7468 855.912 94.3373C863.334 95.9278 872.214 96.7231 882.288 96.7231Z" fill="white"/>
</svg>
