<svg width="585" height="97" viewBox="0 0 585 97" fill="none" xmlns="http://www.w3.org/2000/svg">
<path d="M0.820073 95H32.3655V58.5505H100.095V95H131.773V2.48457H100.095V36.1506H32.3655V2.48457H0.820073V95ZM214.934 0.761501C206.053 0.761501 198.101 1.29168 190.811 2.48457C183.654 3.54491 177.557 5.0029 172.652 6.85851C167.881 8.71412 163.64 10.9674 160.061 13.6182C156.35 16.2691 153.566 18.92 151.446 21.5708C149.457 24.2217 147.867 27.1377 146.674 30.3187C145.349 33.4998 144.553 36.4157 144.288 38.8015C143.891 41.3198 143.758 43.8382 143.758 46.6216V50.3328C143.758 52.9837 143.891 55.6345 144.288 58.1529C144.553 60.5387 145.349 63.4546 146.674 66.6357C147.867 69.8167 149.457 72.7327 151.446 75.5161C153.566 78.167 156.35 80.8178 160.061 83.6013C163.772 86.2521 168.013 88.5054 172.785 90.4935C177.557 92.3491 183.654 93.8071 190.811 95C198.101 96.1929 206.053 96.7231 214.934 96.7231H219.175C228.056 96.7231 236.008 96.1929 243.166 95C250.456 93.8071 256.42 92.3491 261.192 90.4935C265.963 88.5054 270.205 86.2521 273.916 83.6013C277.627 80.8178 280.41 78.167 282.399 75.5161C284.387 72.7327 285.977 69.8167 287.303 66.6357C288.496 63.4546 289.423 60.5387 289.688 58.1529C290.086 55.6345 290.219 52.9837 290.219 50.3328V46.6216C290.219 43.8382 290.086 41.3198 289.688 38.8015C289.423 36.2832 288.496 33.4998 287.303 30.3187C285.977 27.1377 284.387 24.2217 282.266 21.5708C280.278 18.92 277.494 16.2691 273.783 13.6182C270.205 10.9674 265.963 8.71412 261.192 6.85851C256.288 5.0029 250.323 3.54491 243.166 2.48457C236.008 1.29168 228.056 0.761501 219.175 0.761501H214.934ZM257.083 49.2725C257.083 52.1884 256.553 55.1044 255.36 57.7552C254.299 60.4061 252.311 63.057 249.528 65.5753C246.744 68.2262 242.503 70.3469 236.804 71.8049C231.899 73.2628 225.935 73.9256 219.175 74.1907C218.115 74.1907 216.524 74.1907 215.862 74.1907C208.572 74.0581 202.21 73.2628 196.908 71.8049C191.209 70.2143 187.1 68.0936 184.316 65.4428C181.665 62.7919 179.677 60.141 178.617 57.4902C177.424 54.8393 176.894 51.9233 176.894 49.0074V47.5494C176.894 31.7767 189.751 23.6915 215.332 23.1614C216.127 23.1614 218.513 23.1614 219.705 23.2939C224.875 23.4265 229.514 23.8241 233.623 24.7519C238.527 25.8122 242.503 27.1377 245.419 28.7282C248.335 30.1862 250.721 32.1743 252.444 34.4276C254.299 36.6808 255.492 38.8015 256.155 40.9222C256.818 42.9104 257.083 45.1636 257.083 47.5494V49.2725ZM302.282 95.1325H332.635V30.8489L372.53 95.1325H389.496L429.259 30.8489V95.1325H460.539V2.35202H417.198L382.073 60.141L347.214 2.35202H302.282V95.1325ZM476.634 2.08694V95H584.79V73.3954H507.914V58.1529H581.608V36.9459H507.914V23.1614H583.332V2.08694H476.634Z" fill="white"/>
</svg>
