<?xml version="1.0" encoding="utf-8"?>
<!-- Generator: Adobe Illustrator 26.4.1, SVG Export Plug-In . SVG Version: 6.00 Build 0)  -->
<svg version="1.1" id="Capa_1" xmlns="http://www.w3.org/2000/svg" xmlns:xlink="http://www.w3.org/1999/xlink" x="0px" y="0px"
	 viewBox="0 0 100 100" style="enable-background:new 0 0 100 100;" xml:space="preserve">
<style type="text/css">
	.st0{fill:#FFFFFF;}
</style>
<path class="st0" d="M96.7,62.6c-0.3-0.2-0.6-0.3-0.9-0.4c-9.9-3.9-19.6-7.8-29.4-11.8c-0.2-0.1-0.4-0.2-0.7-0.3
	c0.2-0.1,0.4-0.2,0.5-0.2c5.2-2.1,10.5-4.2,15.7-6.2c4.8-1.9,9.5-3.8,14.4-5.7c1.3-0.5,1.8-1.5,1.5-2.5c-0.3-1.1-1.4-1.6-2.8-1.3
	c-7.7,1.7-15.2,3.4-22.8,5.1c-3.1,0.7-6.2,1.4-9.4,2.1c0.2-0.3,0.3-0.5,0.4-0.7c5.6-8.7,11.1-17.4,16.7-26c0.2-0.3,0.4-0.7,0.5-1.1
	c0.3-1.2-0.6-2.3-1.9-2.4c-0.9,0-1.6,0.5-2.1,1.1c-6.3,7-12.7,14.1-19,21.1c-0.7,0.9-1.6,1.7-2.4,2.6c0-0.4,0-0.7-0.1-0.9
	c-0.2-2.5-0.4-5-0.6-7.5c-0.2-2.1-0.3-4.1-0.5-6.2c-0.2-2.5-0.4-5-0.6-7.5c-0.2-2.6-0.4-5.1-0.6-7.7c-0.1-0.8-0.1-1.5-0.3-2.3
	c-0.2-1-1.2-1.6-2.1-1.6C49,2.4,48.1,3.1,48,4.1c-0.1,1.1-0.2,2.1-0.3,3.2c-0.2,1.9-0.3,3.7-0.4,5.6c-0.2,2-0.3,4-0.5,6
	c-0.2,1.9-0.3,3.7-0.4,5.6c-0.2,2.6-0.4,5.2-0.7,7.9c-0.1,1.2-0.2,2.4-0.3,3.7c-0.3-0.3-0.5-0.5-0.7-0.8c-7-7.8-13.9-15.5-20.9-23.2
	c-0.3-0.4-0.8-0.7-1.4-0.9c-1.4-0.4-2.7,0.8-2.5,2.1c0.1,0.5,0.3,0.9,0.6,1.4c4.4,6.9,8.7,13.7,13.1,20.6c1.3,2,2.5,4,3.9,6.1
	c-0.3-0.1-0.5-0.1-0.8-0.1c-9.3-2.1-18.7-4.2-27.9-6.4c-1.4-0.3-2.8-0.7-4.3-0.8c-1.2-0.1-1.9,0.5-2.1,1.5c-0.2,0.8,0.3,1.8,1.3,2.2
	C4,38,4.3,38.1,4.8,38.3c9.7,3.9,19.4,7.8,29.1,11.6c0.2,0.1,0.3,0.2,0.5,0.3c-0.3,0.1-0.4,0.2-0.6,0.3c-8.5,3.4-17,6.7-25.5,10.1
	c-1.5,0.6-3,1.2-4.5,1.8c-1.4,0.6-1.9,1.8-1.2,2.9c0.5,0.8,1.5,1,2.7,0.8c9.3-2.1,18.8-4.2,28.1-6.4c1.3-0.3,2.5-0.6,3.9-0.9
	c-0.2,0.3-0.3,0.5-0.4,0.7C32,67.2,27.1,75,22,82.7c-0.7,1.1-1.5,2.2-2.1,3.3c-0.4,0.7-0.5,1.5,0,2.2c0.4,0.7,1.2,1,2,0.8
	c0.5-0.2,1.2-0.5,1.6-0.9c6-6.6,11.9-13.2,17.8-19.8c1.3-1.4,2.4-2.7,3.8-4.2c0.3,3.6,0.6,7,0.9,10.4c0.2,2.6,0.4,5.1,0.6,7.7
	c0.3,3.2,0.5,6.3,0.8,9.5c0.1,1.4,0.2,2.9,0.4,4.3c0.2,1.2,1,1.8,2.2,1.7c0.9,0,1.8-0.9,1.9-1.9c0.3-2.8,0.5-5.7,0.7-8.5
	c0.2-2.4,0.4-4.8,0.6-7.1c0.3-3.1,0.5-6.3,0.8-9.4c0.2-2.2,0.4-4.4,0.6-6.7c0.2,0.2,0.2,0.3,0.3,0.3C62,72,68.8,79.5,75.6,87.1
	c0.4,0.5,0.9,1.1,1.5,1.5c1.3,0.9,2.9,0.3,3.1-1.2c0.2-0.8-0.3-1.5-0.6-2.1C74,76.6,68.6,68,63,59.3c-0.1-0.2-0.2-0.4-0.3-0.6
	c0.2,0,0.2,0,0.2,0c9.6,2.2,19.3,4.4,28.9,6.6c1.3,0.3,2.4,0.6,3.7,0.7c0.9,0.1,1.8-0.5,2.1-1.3C97.9,64,97.5,63.1,96.7,62.6z"/>
</svg>
