<svg width="401" height="501" viewBox="0 0 401 501" fill="none" xmlns="http://www.w3.org/2000/svg">
<g clip-path="url(#clip0_982_1259)">
<path d="M386.177 491.475C357.986 492.368 327.839 500.745 292.204 500.495C263.529 500.294 230.479 491.585 198.292 491.154C178.004 490.88 156.03 500.716 134.727 500.495C107.285 500.212 80.2237 489.906 51.6557 489.925C48.8782 489.925 21.4357 491.202 13.5522 485.358C5.63974 479.49 -1.64475 469.956 1.08452 460.532C13.5522 417.494 19.6194 410.004 24.5369 389.267C25.2663 386.196 26.2325 383.169 27.4691 380.275C30.836 372.397 32.9131 364.255 33.4638 355.695C34.1642 344.789 37.3138 334.325 39.5793 323.702C40.8498 317.747 41.9946 311.764 43.5549 305.877C44.0814 303.895 44.4195 301.818 45.8494 300.191C47.5691 299.217 48.226 300.676 48.8878 301.659C50.4819 304.034 52.5059 305.939 54.8246 307.566C56.0467 308.713 56.8728 310.128 57.4186 311.668C59.8677 318.544 64.1283 324.042 70.0602 328.289C72.4948 330.03 74.5333 332.146 75.9825 334.737C84.4988 350.014 99.0484 356.919 114.666 362.427C123.762 365.637 132.858 365.392 142.084 363.161C145.934 362.23 149.083 360.172 152.035 357.71C152.953 356.947 154.04 355.997 153.131 354.697C152.238 353.411 150.958 353.944 149.938 354.663C137.051 363.789 123.602 362.11 110.028 356.621C103.444 353.958 97.0534 350.907 91.2471 346.718C87.1701 343.777 84.0012 340.082 81.4603 335.879C78.4171 330.846 74.1758 326.984 69.8187 323.183C65.4808 319.403 61.7709 315.219 61.2058 309.144C66.1281 304.999 65.5533 300.057 63.3119 294.865C63.0559 294.275 62.8675 293.656 62.8095 293.009C62.8965 288.873 65.0847 285.835 68.1473 283.36C73.6735 278.888 80.045 275.75 86.9624 274.579C96.3385 272.986 102.464 268.001 106.729 259.806C109.101 255.248 111.159 250.608 112.83 245.796C116.922 234.031 123.071 223.283 129.148 212.478C136.5 199.413 146.229 188.128 155.87 176.761C161.667 169.929 168.241 163.946 175.425 158.596C181.757 156.154 186.192 151.284 190.82 146.668C204.046 139.576 208.818 126.799 211.91 113.643C215.388 98.8602 218.639 83.9671 220.595 68.8628C221.928 58.5662 222.3 48.3176 218.697 38.3136C216.963 33.4964 214.18 29.418 210.282 26.0786C209.553 25.4548 208.446 24.8167 208.731 23.7659C209.084 22.4753 210.475 22.7104 211.514 22.6288C214.407 22.4081 217.156 22.5664 219.339 24.9558C220.281 25.9874 221.75 26.4288 223.03 27.0382C225.228 28.0842 226.947 29.586 228.271 31.6923C230.329 34.9646 234.725 35.6747 237.864 33.4004C241.004 31.1261 244.753 29.2069 248.187 27.1006C250.588 25.6276 251.564 26.0594 252.395 28.8759C253.39 32.2297 253.781 35.7179 253.994 39.1629C254.477 47.0653 254.829 54.982 255.549 62.8604C256.94 78.1086 258.501 93.3664 263.853 107.909C266.428 114.91 270.365 120.893 276.625 125.24C279.219 127.044 281.712 129.011 283.943 131.261C285.523 132.854 287.552 133.636 289.542 134.553C297.087 138.036 304.555 141.668 310.41 147.796C312.371 149.849 313.999 152.176 315.835 154.33C317.25 155.991 318.699 157.684 320.453 158.951C333.94 168.696 342.533 182.38 350.32 196.477C357.001 208.572 364.348 220.284 370.7 232.553C370.99 233.138 371.251 233.743 371.362 234.386C371.512 235.254 371.633 236.238 370.691 236.689C369.918 237.058 369.256 236.401 368.638 235.964C365.643 233.844 363.126 231.387 362.078 227.702C360.889 223.528 358.194 220.452 354.508 218.226C349.794 215.381 346.818 210.875 343.427 206.783C339.422 201.946 334.766 198.189 328.37 197.057C324.259 196.328 321.163 194.054 318.719 190.815C316.236 187.523 313.274 184.88 309.241 183.603C308.618 183.407 307.879 183.205 307.536 182.673C304.579 178.052 299.589 175.274 296.691 170.548C291.208 161.609 282.513 156.187 273.746 151.053C268.307 147.867 261.998 148.352 256.081 149.115C249.221 149.998 242.371 149.907 235.517 150.142C229.991 150.334 224.986 151.744 220.586 155.18C214.373 160.031 208.688 165.404 203.543 171.364C200.621 174.751 197.394 177.779 193.447 180.086C182.327 186.597 171.13 192.916 159.025 197.513C152.914 199.835 148.455 204.403 144.205 209.105C142.161 211.37 140.084 213.601 138.017 215.841C135.046 219.066 132.65 222.669 131.051 226.795C127.984 234.707 124.82 242.567 123.182 250.944C122.303 255.43 120.607 259.7 119.298 264.071C117.467 270.175 113.598 274.147 107.632 276.359C100.116 279.147 93.5029 283.408 88.6386 290.235C88.5758 290.326 88.513 290.422 88.4598 290.518C87.856 291.574 87.1652 292.802 88.5323 293.68C89.7013 294.434 90.5853 293.479 91.2954 292.625C92.8267 290.787 94.1406 288.772 96.0003 287.203C99.7972 283.988 104.101 281.584 108.777 280.001C116.772 277.285 121.284 271.672 123.477 263.808C125.225 257.527 127.153 251.304 128.66 244.951C130.346 237.855 133.244 231.128 136.418 224.564C138.823 219.594 143.364 216.225 146.702 211.941C152.958 203.914 161.957 200.233 170.985 196.515C180.729 192.499 189.448 186.626 198.442 181.272C200.795 179.87 202.78 177.975 204.567 175.893C209.548 170.097 215.084 164.872 220.779 159.771C225.464 155.578 230.937 153.875 236.99 153.76C244.313 153.62 251.607 153.697 258.902 152.565C265.8 151.49 272.152 153.5 277.721 157.828C280.779 160.198 283.938 162.434 287.098 164.67C287.75 165.131 288.344 165.663 288.856 166.282C289.561 167.136 290.411 168.178 289.566 169.18C288.619 170.308 287.552 169.233 286.701 168.71C283.364 166.633 280.185 164.31 276.741 162.401C271.756 159.637 266.573 157.886 260.742 159.378C253.361 161.268 245.83 161.47 238.261 161.273C231.541 161.101 225.976 163.643 221.218 168.317C217.339 172.131 213.852 176.368 209.311 179.487C208.548 179.966 207.731 180.374 207.137 181.084C206.558 181.78 206.103 182.562 205.553 183.282C202.717 187.442 201.655 192.206 200.785 197.038C199.949 199.504 200.998 201.212 202.983 202.604C204.326 203.544 205.78 204.307 207.128 205.228C209.61 206.917 209.91 208.548 208.074 210.943C206.234 213.342 203.529 214.623 200.954 216.048C199.336 216.945 197.558 217.578 196.153 218.831C193.399 221.278 193.559 224.065 196.607 226.124C198.433 227.357 200.515 228.057 202.582 228.772C204.611 229.473 205.403 230.658 204.389 232.745C203.514 234.544 203.171 236.454 203.476 238.45C203.877 241.089 202.79 243.042 200.746 244.668C197.959 246.89 194.834 248.871 194.554 253.012C194.467 254.303 193.061 254.423 192.051 254.787C186.675 256.726 183.559 261.135 183.67 266.72C183.723 269.436 184.878 271.523 187.409 272.746C187.902 272.981 188.414 273.173 188.912 273.394C194.761 276.009 195.462 278.461 191.694 283.619C190.394 285.404 189.366 287.284 188.694 289.372C187.868 291.958 186.076 292.653 183.569 292.006C182.724 291.785 181.902 291.468 181.038 291.324C177.536 290.739 175.009 292.783 174.787 296.669C174.594 300.158 175.405 303.569 176.125 306.966C176.574 309.087 177.168 311.222 175.869 313.28C173.521 315.435 171.174 317.584 169.246 320.146C161.252 324.8 152.586 325.606 143.567 324.724C131.805 323.572 121.259 318.755 110.574 314.269C102.401 310.838 93.8942 309.077 84.9673 310.094C78.2335 310.862 76.1467 312.997 79.958 320.525C81.1319 322.843 82.8129 324.997 84.8611 326.6C88.798 329.675 92.0345 333.365 94.6381 337.506C103.488 351.583 115.67 350.676 127.177 345.202C134.925 341.517 142.137 336.623 147.876 330.001C148.644 329.119 149.591 328.552 150.721 328.605C162.682 329.186 172.275 322.996 182.24 317.829C184.25 316.788 186.105 315.295 188.564 315.348C192.66 316.84 196.814 316.744 201.142 316.553C207.326 316.279 213.567 316.543 219.726 317.742C227.257 319.211 234.826 320.477 242.434 321.528C245.782 321.989 249.192 322.032 252.525 321.485C254.892 321.096 257.293 321.25 259.679 321.274C265.669 321.336 271.471 320.54 277.084 318.529C282.166 316.711 290.513 313.808 295.643 312.114C297.821 311.395 300.101 310.761 302.396 310.896C311.801 311.452 319.916 309.063 325.824 301.28C327.829 300.925 328.38 302.657 329.249 303.771C332.809 308.329 335.244 313.597 338.442 318.4C340.558 321.571 342.635 324.757 344.973 327.77C349.248 333.279 354.735 335.083 361.537 333.139C364.387 332.329 367.097 331.177 369.633 329.632C370.352 329.195 371.275 328.605 372 329.435C372.686 330.222 372.091 331.11 371.599 331.81C369.56 334.708 366.469 336.508 363.962 338.921C359.368 343.345 353.759 346.31 348.272 349.419C346.562 350.388 344.625 350.887 342.635 351.051C337.799 351.444 333.196 352.634 328.674 354.428C322.718 356.794 316.554 356.981 310.328 355.335C300.792 352.816 291.754 348.877 282.436 345.744C281.818 345.538 281.248 345.192 280.596 345.058C279.803 344.895 279.04 344.933 278.557 345.691C277.968 346.617 278.475 347.351 279.103 348.004C279.639 348.56 280.306 348.968 281.04 349.198C290.933 352.336 300.444 356.573 310.531 359.178C317.859 361.069 324.839 360.268 331.64 357.312C335.529 355.623 339.654 355.201 343.765 354.644C346.852 354.227 349.697 353.334 352.31 351.583C355.392 349.52 357.155 349.937 358.856 353.358C361.614 358.91 364.015 364.629 366.169 370.444C371.227 384.1 376.4 397.697 381.926 411.185C386.163 421.52 389.076 432.401 391.307 443.384C392.969 451.574 395.09 459.683 395.689 468.07C396.008 472.513 396.563 476.942 395.08 481.298C394.757 482.248 393.882 491.211 386.153 491.456L386.177 491.475Z" fill="white"/>
<path d="M315.661 0.571971C316.806 0.547981 317.95 0.52399 319.095 0.5C323.08 1.32047 326.776 2.93741 330.36 4.76067C333.519 6.36802 335.539 9.07891 336.698 12.356C338.49 17.4371 341.234 21.9425 344.591 26.1312C350.364 33.3427 353.078 41.6289 353.508 50.7932C353.827 57.5344 353.996 64.2613 353.045 70.9546C352.846 72.3268 353.267 73.1377 354.131 74.0925C358.295 78.6986 362.338 83.4151 366.493 88.0308C372.835 95.084 376.222 103.634 379.072 112.443C381.941 121.305 385.453 129.951 388.255 138.813C390.105 144.667 390.573 150.938 391.805 156.993C393.612 165.884 390.945 174.381 389.515 182.965C389.076 185.618 389.709 188.377 388.511 190.944C388.168 191.674 388.878 192.422 389.356 192.964C396.061 200.636 397.51 210.151 398.234 219.661C399.244 232.97 400.065 246.338 399.5 259.695C398.592 281.133 394.201 301.779 384.723 321.235C380.26 330.395 373.251 337.261 365.532 343.599C364.435 344.501 363.392 345.48 362.213 346.257C360.672 347.269 360.909 347.994 361.812 349.539C366.092 356.861 369.019 364.797 371.951 372.728C376.193 384.2 380.569 395.615 385.284 406.919C391.216 421.155 394.843 436.125 397.742 451.253C398.862 457.106 400.471 462.893 400.505 468.914C400.495 472.201 400.49 475.488 400.481 478.779C400.229 480.828 400.031 482.901 398.437 484.47C397.384 485.506 396.08 485.693 394.805 485.132C393.679 484.638 393.162 483.467 393.665 482.402C396.587 476.198 395.438 469.701 394.423 463.507C391.559 445.965 388.114 428.409 381.279 411.966C373.671 393.667 367.594 374.801 359.595 356.674C359.16 355.685 358.74 354.678 358.213 353.737C356.334 350.398 355.716 350.335 352.508 352.6C349.484 354.73 345.963 355.551 342.335 355.776C338.582 356.007 335.051 356.87 331.592 358.343C324.322 361.443 316.83 361.932 309.173 359.821C299.401 357.129 290.122 353.046 280.499 349.932C279.886 349.736 279.282 349.433 278.746 349.078C277.224 348.071 276.306 346.727 277.378 344.966C278.359 343.359 279.712 343.666 281.364 344.285C291.445 348.047 301.42 352.115 311.854 354.87C318.047 356.506 323.989 355.623 329.751 353.185C332.998 351.818 336.278 350.758 339.818 350.542C343.978 350.287 347.422 348.613 351.161 346.631C355.465 344.352 359.15 341.521 362.899 338.657C366.324 336.037 369.565 333.168 372.087 329.531C367.744 332.036 363.266 334.137 358.262 334.727C352.74 335.375 348.301 333.557 344.794 329.104C339.34 322.18 335.278 314.398 330.524 307.038C329.23 305.032 327.906 303.041 326.124 301.405C317.298 293.728 306.864 288.321 297.517 281.368C290.237 275.956 281.823 272.334 274.243 267.363C270.572 264.954 266.862 262.694 264.384 258.947C263.399 257.46 262.467 257.34 260.974 258.611C252.979 265.391 244.381 271.427 235.594 277.088C228.638 281.57 222.735 287.136 216.484 292.38C208.301 299.246 200.529 306.558 192.472 313.558C191.259 314.609 189.969 315.713 188.172 315.727C181.178 319.263 174.468 323.356 167.198 326.374C162.087 328.495 156.803 329.637 151.286 329.685C149.653 329.699 148.586 329.877 147.774 331.661C147.156 333.014 145.528 333.964 144.238 334.953C136.109 341.176 128.138 347.687 117.492 349.318C109.758 350.503 102.749 349.241 97.7586 342.812C92.7445 336.359 87.6 330.078 81.6922 324.388C78.9822 321.777 77.3978 318.443 77.3012 314.508C77.2432 312.071 78.0548 310.862 80.5763 310.157C90.7012 307.326 100.266 309.514 109.695 313.007C118.356 316.216 126.515 320.736 135.688 322.598C147.18 324.93 158.455 325.347 169.159 319.484C171.661 317.752 173.893 315.765 175.338 313.035C176.342 311.39 175.864 309.71 175.502 308.007C174.734 304.394 174.024 300.757 173.951 297.063C173.85 291.79 177.154 289.343 182.303 290.724C185.227 291.508 187.256 290.429 188.39 287.486C189.259 285.211 190.81 283.388 192.249 281.479C194.211 278.883 193.713 276.757 190.8 275.164C190.419 274.958 190.027 274.742 189.612 274.632C184.144 273.178 182.545 269.992 182.825 266.038C183.26 259.82 186.757 255.181 191.708 254.178C193.423 253.832 194.264 253.53 193.998 251.438C193.757 249.514 195.254 248.046 196.684 246.813C198.249 245.46 199.833 244.121 201.466 242.85C202.621 241.952 203.186 240.849 202.804 239.448C201.906 236.161 202.935 233.282 204.698 230.456C202.253 229.535 199.882 228.748 197.602 227.75C195.331 226.757 193.317 225.327 193.225 222.563C193.133 219.828 194.964 218.245 197.172 217.046C198.891 216.11 200.674 215.28 202.374 214.311C203.698 213.557 205.036 212.78 206.2 211.816C209.572 209.028 209.388 207.589 205.659 205.382C204.07 204.441 202.553 203.362 201.065 202.263C199.23 200.91 198.664 199.23 200.027 197.196C201.403 195.627 203.099 196.03 204.514 196.841C211.093 200.627 217.982 199.749 224.928 198.405C225.358 198.324 225.778 198.199 226.203 198.088C233.232 196.241 233.275 196.246 233.406 189.092C233.454 186.348 234.237 183.944 236.164 181.981C239.492 178.599 244.796 179.136 246.96 183.296C251.231 191.51 249.366 200.512 239.478 204.484C232.908 207.123 225.889 207.757 218.904 208.217C216.586 208.371 215.103 208.855 214.127 211.197C212.47 215.17 209.229 217.765 205.461 219.771C204.162 220.462 202.601 220.812 201.529 222.261C202.901 223.504 204.562 223.672 206.074 224.142C211.185 225.73 212.576 228.542 210.378 233.268C209.388 235.398 208.809 237.48 209.094 239.865C209.427 242.634 208.316 244.985 206.277 246.865C205.075 247.974 203.838 249.049 202.558 250.071C201.452 250.953 201.302 251.788 201.915 253.156C203.49 256.653 202.369 258.64 198.592 259.528C197.302 259.83 195.983 259.787 194.674 259.892C192.501 260.065 191.051 261.149 190.143 263.126C188.767 266.12 189.138 267.358 192.133 268.802C194.327 269.858 196.336 271.1 197.771 273.14C200.258 276.671 200.471 280.557 198.046 284.094C196.196 286.795 194.496 289.515 193.206 292.557C191.472 296.645 188.211 298.195 183.197 297.394C180.666 296.991 180.173 297.619 180.497 300.013C180.931 303.247 181.888 306.39 181.994 309.672C182.052 311.505 183.105 311.203 184.202 310.545C187.578 308.516 190.926 306.414 193.674 303.578C202.722 294.246 212.784 285.998 222.74 277.722C231.01 270.846 240.444 265.357 249.153 258.957C251.351 257.34 253.544 255.718 255.747 254.106C258.167 252.335 259.327 249.941 258.94 247.029C257.95 239.548 258.457 232.044 258.428 224.555C258.419 221.868 257.752 220.515 254.771 220.582C252.487 220.635 250.182 220.116 248.062 219.195C246.178 218.375 244.473 217.118 245.11 214.747C245.791 212.224 247.926 212.401 249.955 212.747C251.574 213.02 253.134 213.567 254.786 213.677C257.897 213.879 258.646 213.212 258.245 210.213C257.757 206.552 257.443 202.834 256.264 199.317C254.796 194.922 254.443 190.392 254.124 185.839C253.97 183.666 254.578 181.746 257.022 181.497C259.491 181.243 260.491 183.013 260.694 185.187C261.143 189.97 262.259 194.619 263.52 199.24C264.558 203.045 264.756 206.965 265.23 210.837C265.486 212.948 266.307 213.116 268.007 212.396C270.055 211.528 271.756 210.199 273.456 208.812C275.702 206.984 277.958 206.922 279.243 208.625C280.856 210.76 279.876 212.617 278.219 214.076C275.335 216.614 272.137 218.749 268.345 219.713C266.176 220.265 265.297 221.441 265.346 223.653C265.515 231.358 264.862 239.102 266.08 246.76C267.099 253.17 271.548 257.196 276.596 260.66C282.639 264.801 289.344 267.857 295.532 271.748C305.517 278.024 315.018 285.015 324.94 291.391C329.428 294.28 332.321 298.766 335.321 303.036C336.611 304.874 337.447 305.579 339.128 303.449C341.103 300.944 343.968 299.404 346.441 297.432C350.228 294.409 350.557 291.833 347.649 287.946C346.47 286.368 345.021 285.029 343.625 283.652C341.466 281.517 340.63 279.075 341.973 276.254C343.374 273.312 342.62 271.076 340.161 269.114C336.48 266.178 332.872 263.188 331.78 258.227C331.519 257.033 330.283 256.39 329.215 255.819C326.365 254.298 324.834 251.918 324.641 248.756C324.414 245.066 322.829 242.422 319.337 240.868C316.835 239.755 314.97 237.984 314.719 235.014C314.646 234.131 314.168 233.349 313.516 232.745C311.758 231.118 310.772 229.074 310.4 226.771C310.033 224.492 308.772 223.053 306.705 222.175C306.004 221.877 305.347 221.465 304.647 221.162C299.85 219.075 297.121 215.52 296.247 210.333C295.474 205.761 295.29 205.852 290.793 205.66C286.523 205.477 282.267 204.892 278.132 203.933C270.543 202.172 266.553 194.332 268.606 185.791C268.911 184.52 269.307 183.267 269.939 182.121C272.374 177.702 277.668 177.299 280.755 181.295C282.373 183.392 282.871 185.786 282.634 188.368C282.475 190.105 282.079 191.798 281.745 193.506C281.383 195.373 282.04 196.75 283.977 197.254C287.73 198.228 291.556 198.573 295.343 197.69C299.971 196.611 301.251 197.436 301.58 202.167C301.609 202.608 301.783 203.011 301.884 203.429C301.956 203.635 302.048 203.841 302.068 204.052C302.628 210.765 305.903 215.27 312.535 217.396C315.231 218.259 316.574 220.702 317.033 223.398C317.395 225.524 318.733 227.078 319.583 228.902C321.544 233.095 324.534 236.046 328.307 238.579C330.375 239.966 330.838 242.562 331.07 244.994C331.336 247.763 332.336 249.912 335.109 251.165C337.316 252.163 338.466 254.24 339.055 256.524C339.63 258.741 340.852 260.415 342.717 261.739C344.683 263.14 346.19 265.012 347.736 266.854C349.963 269.507 350.634 272.497 349.673 275.692C349.011 277.894 349.518 279.425 351.127 280.912C353.073 282.707 354.402 284.967 355.552 287.332C358.102 292.596 357.547 295.997 353.624 300.455C351.359 303.027 348.311 304.624 345.852 306.937C345.026 307.714 343.567 308.41 344.05 309.753C344.441 310.838 345.91 310.684 346.948 310.943C354.368 312.771 361.484 310.819 368.623 309.187C370.328 308.799 372.014 308.305 373.782 308.357C374.714 308.233 375.801 308.727 376.487 307.652C376.854 306.352 377.168 305.042 377.555 303.746C377.985 302.628 377.83 301.462 377.864 300.306C379.646 294.241 378.328 288.282 377.164 282.342C376.574 279.329 376.309 276.349 376.903 273.312C377.531 270.122 376.685 267.07 375.83 264.033C375.362 262.368 374.656 260.761 374.623 258.995C375.053 254.677 373.241 250.589 373.28 246.299C373.318 242.37 371.014 238.81 371.357 234.794C371.415 234.093 370.686 233.484 370.164 232.927C363.686 221.522 356.851 210.324 350.639 198.77C345.074 188.42 339.089 178.191 330.872 169.751C322.776 161.441 314.284 153.51 306.135 145.228C301.333 140.349 294.682 137.388 288.117 134.855C287.006 134.428 285.798 134.063 284.866 133.368C272.659 124.275 262.611 113.902 259.766 97.9724C257.549 85.5646 255.646 73.1713 254.636 60.6148C253.849 50.7836 253.95 40.8756 252.076 31.1403C251.892 30.1855 251.598 29.2499 251.39 28.2999C250.955 26.2799 250.607 26.1984 248.724 27.5754C244.555 30.6222 240.106 33.4098 235.444 35.6265C232.551 37.0036 229.532 35.6265 227.88 32.7333C226.276 29.9168 223.894 28.2087 221.054 26.9373C219.561 26.2703 218.368 25.3299 217.161 24.1592C215.538 22.5806 213.035 23.6986 210.934 23.4107C210.325 23.3291 209.688 23.4539 208.461 23.5162C220.209 32.1096 222.841 44.1431 222.3 56.9347C221.363 79.14 216.05 100.669 210.388 122.063C208.987 127.365 206.219 132.336 203.075 136.894C200.413 140.761 197.631 144.715 192.699 146.231C192.027 146.437 191.505 147.128 190.911 147.594C185.337 150.904 181.105 155.962 175.516 159.258C163.928 168.485 154.228 179.491 145.026 190.997C133.002 206.034 123.467 222.53 115.946 240.158C112.337 248.607 109.729 257.45 104.367 265.146C101.222 269.666 97.493 272.756 92.0296 274.018C85.3441 275.563 78.731 277.467 72.8039 281.08C68.2632 283.849 64.0509 286.948 63.4375 292.84C62.8868 294.141 61.9062 294.659 60.5439 294.294C59.1141 293.91 58.3992 292.879 58.2156 291.454C57.7712 287.956 59.0851 285.053 61.3748 282.525C65.3214 278.168 70.0988 274.982 75.5332 272.741C79.4798 271.115 83.4747 269.56 87.6724 268.773C93.5657 267.675 97.6814 264.613 100.604 259.326C103.299 254.451 105.657 249.509 107.603 244.284C111.207 234.606 115.854 225.413 120.709 216.259C129.206 200.228 140.63 186.434 152.218 172.697C153.127 171.618 154.16 170.629 155.233 169.732C155.392 169.593 155.556 169.492 155.696 169.439C155.358 169.463 155.141 169.708 154.87 169.886C149.798 173.345 144.069 175.211 138.152 176.377C132.138 177.562 126.447 179.99 120.293 180.6C117.424 180.883 114.646 181.007 111.859 180.144C109.661 179.462 107.362 179.247 105.101 178.853C94.4787 177.015 86.3971 171.81 82.2042 161.547C81.4458 159.694 80.9338 157.847 81.5956 155.851C86.2329 141.855 94.1164 130.11 105.966 121.104C111.762 116.694 118.54 115.332 125.597 114.545C135.191 113.48 142.552 116.901 149.262 123.757C155.706 130.345 160.257 138.074 165.198 145.598C167.29 148.784 167.584 152.747 168.338 156.677C171.98 154.455 173.85 151.85 173.739 147.421C173.492 137.36 170.628 128.119 164.314 120.499C157.788 112.621 149.509 107.266 138.437 107.089C128.708 106.93 119.235 107.976 109.869 110.409C105.729 111.484 101.662 112.76 98.0485 115.145C97.5944 115.447 97.1065 115.696 96.609 115.931C93.8169 117.256 91.677 117.021 90.7543 115.293C89.8027 113.508 90.677 111.546 93.1454 109.91C96.3529 107.78 99.8165 106.158 103.459 104.944C116.192 100.688 129.322 99.5893 142.649 100.391C152.16 100.966 159.58 105.856 166.174 112.175C175.168 120.797 179.545 131.564 180.617 143.789C180.67 144.422 180.482 145.104 181.023 145.819C182.506 145.204 183.723 144.101 185.1 143.276C188.448 141.265 191.095 138.29 194.771 136.659C196.78 135.767 197.737 133.521 198.809 131.631C202.804 124.582 206.05 117.227 207.475 109.209C209.953 95.2999 213.417 81.5774 215.388 67.5671C216.349 60.7395 216.736 53.9455 215.528 47.1322C213.977 38.3854 210.219 31.102 201.92 26.7309C199.954 25.6946 198.191 25.7713 196.268 26.4479C188.607 29.1444 180.777 31.078 172.666 31.9032C170.038 32.1719 167.377 32.5126 164.817 32.0424C158.769 30.934 152.817 32.1767 146.847 32.503C137.519 33.0164 129.317 36.8548 121.573 41.7872C117.337 44.4837 113.13 47.2762 108.565 49.3825C100.642 53.0386 94.9231 59.444 88.4936 64.9378C77.7118 74.1501 70.9442 86.2364 65.1716 98.8456C57.9741 114.564 54.9985 131.247 53.7184 148.433C52.7329 161.633 50.6026 174.77 46.3324 187.437C43.9703 194.442 41.5405 201.433 39.6421 208.582C39.2798 209.949 38.8644 211.317 38.2122 212.569C33.8261 220.98 33.8889 229.607 36.5795 238.498C38.9851 246.443 39.5261 254.739 40.7048 262.905C42.0187 271.978 43.608 280.908 48.2888 289.036C50.6509 293.138 49.8587 296.991 46.5933 299.889C43.55 306.472 42.8303 313.654 41.2024 320.597C37.8403 334.967 34.6666 349.366 33.2995 364.111C32.5073 372.637 27.8603 380.079 25.8073 388.278C20.8898 407.926 13.499 426.855 8.71195 446.541C8.25305 448.432 8.13712 450.404 7.82313 452.332C7.57677 453.825 6.68311 454.674 5.12284 454.607C3.64952 454.539 3.06985 453.503 2.87663 452.227C2.34043 448.695 3.29689 445.313 4.14224 441.964C7.25312 429.681 11.789 417.82 15.1801 405.628C18.4262 393.945 21.5758 382.257 26.0102 370.938C28.2854 365.128 28.5269 358.871 29.1404 352.715C30.3481 340.586 33.9275 328.917 36.3476 317.023C37.9224 309.283 39.2508 301.453 42.7819 294.251C43.2264 293.349 43.0959 292.653 42.5936 291.833C36.9611 282.563 35.623 272.103 34.1546 261.682C32.9421 253.098 31.662 244.572 29.3336 236.142C27.1696 228.307 27.8458 220.193 31.2127 212.593C32.6281 209.402 33.7246 206.14 34.5941 202.781C34.9806 201.289 34.6666 200.559 32.9662 200.003C20.1073 195.824 13.7744 185.235 16.3249 171.848C17.2041 167.242 16.9336 163.111 14.4845 159.052C6.65413 146.102 7.92457 132.403 10.6393 118.331C14.4217 98.7353 14.47 78.8761 14.0497 58.9642C13.7744 45.8656 12.7117 32.6757 14.9482 19.6154C15.4264 16.8182 16.5616 14.2272 18.0639 11.7994C19.6339 9.26604 21.9236 8.23925 24.7784 8.96376C30.9422 10.5327 36.3911 13.1189 39.9899 18.819C43.9365 25.066 48.1874 31.126 52.4286 37.1859C56.7713 43.385 62.9109 46.4269 70.437 47.0363C76.2046 47.5017 82.2767 46.5469 87.6821 48.4901C93.0633 50.4285 96.8167 48.9363 101.362 46.3502C108.941 42.0367 116.337 37.4162 123.911 33.1027C132.78 28.0504 142.393 26.0592 152.455 25.7809C163.247 25.4834 174.135 26.587 184.723 23.4587C190.882 21.6402 196.877 19.198 203.302 18.3535C210.388 17.4179 217.504 17.8785 224.58 18.4447C233.512 19.1596 242.526 19.5675 251.322 21.122C264.065 23.3723 276.519 26.8845 287.89 33.6209C290.411 29.0484 292.276 24.1112 294.092 19.1356C297.788 9.00214 304.488 2.2129 315.646 0.581567L315.661 0.571971Z" fill="#2D2D2D"/>
<path d="M46.5933 299.874C49.4385 295.297 48.685 291.152 46.0233 286.555C42.0429 279.684 41.1348 271.787 39.9755 264.052C38.5021 254.192 37.3428 244.323 34.6377 234.626C32.8359 228.163 33.6619 221.383 36.0385 214.805C42.2893 197.484 48.5401 180.177 51.2258 161.791C53.1388 148.688 53.2209 135.368 56.269 122.418C60.8435 102.972 69.3067 85.3632 82.04 69.9278C86.3103 64.7507 91.9669 60.8643 97.0631 56.4549C106.874 47.9623 118.791 42.9916 129.708 36.3607C135.031 33.1268 141.128 31.9848 147.258 31.5338C153.136 31.0972 159.015 30.6078 164.947 31.0348C174.362 31.7114 183.4 29.6578 192.307 26.8029C194.984 25.9441 198.041 23.713 200.389 24.9173C204.364 26.9565 208.437 29.3171 211.103 33.2707C215.33 39.5466 216.823 46.5709 217.03 53.9647C217.402 67.025 214.175 79.6007 211.746 92.2771C210.562 98.4618 209.263 104.623 208.041 110.802C206.379 119.228 202.828 126.876 198.331 134.131C197.65 135.224 196.921 136.573 195.858 137.101C190.23 139.898 185.888 144.581 180.125 147.469C179.762 144.322 179.598 141.212 179.028 138.18C176.193 123.013 167.657 111.887 154.257 104.359C150.383 102.185 146.006 101.432 141.64 101.134C127.95 100.199 114.584 101.892 101.647 106.537C98.4446 107.684 95.5173 109.387 92.6673 111.22C91.1891 112.17 90.4839 113.494 91.479 115.077C92.4016 116.555 93.9715 116.483 95.2565 115.682C106.797 108.504 119.752 106.849 132.925 106.096C148.586 105.193 160.271 111.575 168.362 124.952C172.99 132.6 174.478 140.867 174.729 149.547C174.792 151.754 174.207 153.481 172.236 154.801C170.642 155.871 169.304 157.32 167.638 158.788C166.966 145.977 159.034 137.11 151.88 127.951C149.156 124.462 145.775 121.435 142.166 118.738C139.93 117.069 137.509 115.792 134.742 115.533C122.235 114.382 110.811 116.733 101.469 125.82C92.7929 134.255 86.4552 144.11 82.61 155.568C81.9724 157.463 82.1318 159.028 82.8661 160.86C87.1266 171.469 95.4497 176.445 106.347 178.215C112.265 179.175 118.091 180.782 124.138 179.16C130.877 177.351 137.635 175.6 144.383 173.825C148.33 172.788 151.798 170.72 155.368 168.859C156.03 168.585 156.146 168.936 156.088 169.483C147.731 178.944 139.432 188.497 132.346 198.923C122.192 213.865 113.429 229.612 107.613 246.784C105.459 253.151 101.956 258.722 98.2949 264.244C96.9182 266.322 94.899 267.526 92.4886 268.207C87.0397 269.752 81.5232 271.086 76.2917 273.312C70.2873 275.865 64.8191 279.137 60.8918 284.501C59.7132 286.109 58.7953 287.822 58.7809 289.866C58.7712 291.147 58.5297 292.553 59.8581 293.407C61.201 294.27 62.3555 293.589 63.4568 292.812C64.1766 295.038 64.9978 297.24 65.5968 299.5C66.7271 303.742 65.4567 307.071 61.5101 309.255C60.2493 309.269 60.0078 308.18 59.4958 307.398C58.6794 306.15 58.148 304.418 56.269 304.61C54.2643 304.816 55.3077 307.009 54.385 307.993C50.5834 306.429 48.854 302.907 46.6078 299.87L46.5933 299.874Z" fill="#6E00FF"/>
<path d="M301.271 203.976C300.155 203.098 300.831 202.009 300.855 200.968C300.913 198.444 299.135 197.177 296.797 197.988C292.291 199.552 287.726 198.957 283.253 198.041C280.823 197.542 280.185 195.527 280.823 193.161C281.504 190.647 282.199 188.138 281.716 185.475C281.074 181.929 278.606 179.343 275.528 179.295C271.992 179.242 270.611 181.756 269.775 184.582C267.384 192.686 269.587 202.858 281.997 203.698C286.122 203.976 290.151 205.372 294.363 204.806C295.469 204.657 295.952 205.329 296.198 206.241C296.537 207.493 296.986 208.74 297.116 210.022C297.643 215.06 300.275 218.581 304.951 220.361C308.801 221.825 311.743 223.744 311.7 228.345C311.69 229.362 312.25 230.308 313.014 230.893C314.777 232.241 315.588 233.887 315.743 236.128C315.883 238.205 317.738 239.256 319.433 239.937C323.612 241.612 325.457 244.577 325.414 248.982C325.385 252.038 327.201 254.092 329.863 255.272C331.848 256.155 333.032 257.436 333.346 259.571C333.756 262.34 335.428 264.311 337.635 265.861C338.978 266.806 340.186 267.881 341.393 268.985C343.678 271.067 344.485 273.145 342.871 276.115C341.239 279.118 342.152 281.781 344.973 283.777C345.591 284.214 346.195 284.718 346.683 285.293C352.61 292.327 351.798 294.76 345.422 299.275C342.287 301.496 339.248 303.751 337.244 307.302C335.384 304.663 333.804 302.326 332.123 300.067C328.645 295.374 324.254 291.761 319.366 288.503C304.662 278.71 289.706 269.335 274.558 260.233C267.969 256.275 264.877 249.932 264.602 242.192C264.36 235.451 264.476 228.724 264.51 221.988C264.52 220.232 265.235 219.474 266.911 219.186C270.93 218.5 274.079 216.101 277.272 213.812C277.707 213.5 278.098 213.088 278.412 212.651C279.393 211.303 279.833 209.772 278.48 208.529C277.098 207.267 275.683 207.858 274.442 209.057C272.137 211.283 269.461 212.939 266.384 213.894C265.495 214.172 264.418 214.604 264.423 212.867C264.442 204.633 261.573 196.88 260.317 188.853C260.114 187.571 260.08 186.262 260.003 184.966C259.902 183.253 259.249 181.891 257.337 181.91C255.09 181.929 254.805 183.651 254.868 185.374C255.023 189.721 255.564 194.006 256.81 198.209C258.201 202.906 258.94 207.723 259.076 212.641C259.119 214.215 258.747 214.781 257.114 214.642C254.607 214.431 252.115 214.297 249.709 213.419C248.202 212.867 246.526 212.694 245.772 214.522C244.956 216.499 246.342 217.636 247.917 218.298C250.772 219.503 253.854 219.776 256.911 219.853C258.776 219.901 259.317 220.592 259.245 222.396C258.911 230.644 258.689 238.891 259.844 247.115C260.288 250.282 258.95 252.787 256.303 254.672C247.685 260.804 239.217 267.162 230.454 273.078C225.363 276.513 220.537 280.183 216.108 284.411C208.297 291.857 199.592 298.31 192.037 306.059C189.163 309.005 185.467 311.035 181.376 313.026C181.299 307.825 179.936 303.065 179.294 298.186C179.052 296.338 179.516 295.59 181.608 296.079C188.883 297.763 190.926 296.641 193.399 289.708C194.042 287.908 195.201 286.512 196.336 285.053C200.862 279.243 199.239 272.929 192.448 269.911C190.332 268.97 187.573 268.731 188.351 265.209C189.235 261.198 191.109 259.331 194.805 259.082C196.109 258.995 197.447 258.976 198.708 258.674C202.287 257.815 203.08 255.541 200.553 252.83C199.404 251.597 199.785 251.117 200.79 250.335C202.08 249.332 203.292 248.228 204.587 247.23C207.519 244.971 208.987 242.173 208.074 238.421C207.63 236.593 208.35 235.058 209.195 233.479C211.876 228.475 210.997 226.532 205.62 224.905C203.485 224.262 201.215 223.845 199.177 222.324C201.297 220.472 203.712 219.699 205.852 218.466C209.649 216.273 212.905 213.596 213.905 209.11C214.344 207.128 215.736 207.642 216.948 207.56C224.266 207.076 231.652 206.581 238.517 203.914C247.859 200.282 250.381 193.507 246.729 184.534C245.835 182.342 244.453 180.547 241.71 180.499C238.782 180.446 236.705 181.804 235.309 184.27C233.594 187.298 233.647 190.613 234.415 193.78C234.86 195.603 234.57 196.366 232.913 196.937C226.049 199.298 219.107 201.073 211.726 200.21C209.297 199.926 206.954 199.423 204.949 198.022C203.389 196.928 201.809 196.577 200.007 197.168C200.626 191.847 201.901 186.751 205.282 182.404C205.572 182.615 205.765 182.889 205.862 183.234C205.896 185.897 204.645 188.272 204.109 190.81C203.857 192.005 203.519 193.411 204.988 193.9C206.529 194.418 207.176 193.022 207.427 191.89C209.809 181.065 219.054 175.701 226.247 168.797C229.445 165.731 233.976 164.747 238.478 164.829C246.816 164.982 255.1 164.81 263.22 162.626C265.684 161.964 268.08 162.617 270.258 163.581C278.185 167.098 285.484 171.642 291.793 177.616C294.213 179.904 295.996 182.716 296.532 186.022C297.087 189.428 298.295 192.173 301.826 193.387C303.019 196.985 304.01 200.574 301.266 203.966L301.271 203.976Z" fill="#6E00FF"/>
<path d="M188.153 315.708C198.022 309.163 206.142 300.541 214.765 292.629C225.455 282.826 237.637 275.226 249.115 266.604C253.728 263.135 258.679 260.108 262.988 255.703C268.389 264.532 277.398 268.576 285.837 273.226C298.106 279.981 308.883 288.944 320.883 296.084C323.018 297.355 324.757 299.236 326.1 301.39C322.853 307.196 317.994 311.092 311.279 311.212C298.754 311.437 287.3 315.472 275.944 320.002C269.63 322.516 262.993 321.504 256.535 322.314C242.565 324.066 229.227 319.963 215.629 318.174C210.277 317.468 204.872 317.075 199.442 317.752C195.5 318.241 191.597 318.116 188.148 315.708H188.153Z" fill="#6E00FF"/>
<path d="M301.217 192.883C298.309 193.804 296.86 192.624 296.517 189.731C295.619 182.111 291.237 176.901 284.866 173.01C281.518 170.966 278.321 168.691 274.978 166.647C270.36 163.821 265.515 162.459 260.027 164.114C253.462 166.091 246.68 166.096 239.893 165.712C233.657 165.357 228.329 167.458 223.909 171.796C220.18 175.452 216.523 179.185 212.823 182.874C211.016 184.674 209.606 186.65 209.181 189.261C208.958 190.633 208.413 191.967 207.92 193.286C207.369 194.754 206.36 195.728 204.664 195.205C202.998 194.692 202.568 193.281 202.944 191.799C203.669 188.973 204.592 186.199 205.427 183.407C205.775 182.654 206.268 181.972 206.577 181.2C207.152 180.418 208.07 179.957 208.567 179.103C212.673 175.999 216.05 172.151 219.634 168.509C225.537 162.507 232.609 159.469 241.169 160.472C247.134 161.173 252.975 160.309 258.704 158.86C265.737 157.08 272.094 158.356 278.074 162.219C281.789 164.618 285.518 166.998 289.537 169.574C289.296 167.209 287.576 166.249 286.233 165.208C282.528 162.339 278.712 159.609 274.881 156.898C271.297 154.36 267.147 152.901 262.863 153.328C253.168 154.297 243.439 154.302 233.734 154.921C229.189 155.209 225.368 157.109 221.909 159.973C216.349 164.579 211.118 169.512 206.461 175.02C202.969 179.151 198.805 182.385 194.075 185.029C187.148 188.906 180.482 193.248 173.285 196.645C169.995 198.199 166.58 199.514 163.174 200.8C158.073 202.729 153.924 205.862 150.001 209.633C140.944 218.342 134.162 228.341 130.776 240.465C129.085 246.516 127.607 252.619 125.897 258.664C124.984 261.889 123.767 265.022 122.704 268.208C120.825 273.855 116.864 277.492 111.473 279.771C109.666 280.534 107.869 281.316 106.062 282.074C100.285 284.492 95.4546 288.1 91.9283 293.297C90.909 294.799 89.7207 295.936 87.9044 294.856C85.8949 293.666 86.4021 291.857 87.4455 290.322C91.4597 284.396 96.7009 279.56 103.488 277.41C113.101 274.368 117.883 268.083 120.279 258.65C122.8 248.713 124.998 238.652 129.153 229.137C131.621 223.485 134.413 218.207 138.79 213.807C140.635 211.955 142.403 210.017 144.069 208.007C149.286 201.731 155.875 197.619 163.522 194.721C175.053 190.35 185.583 183.992 195.959 177.424C198.94 175.538 201.181 172.808 203.447 170.16C208.074 164.757 213.354 160.045 218.75 155.43C224.295 150.689 230.865 149.115 237.903 149.101C245.352 149.087 252.743 148.703 260.158 147.897C267.114 147.139 273.519 149.058 279.263 153.227C286.866 158.745 294.508 164.128 299.334 172.544C300.483 174.545 302.826 175.831 304.295 177.692C306.971 181.08 310.415 183.297 314.202 185.235C316.767 186.545 318.414 188.987 320.134 191.237C321.834 193.464 323.849 195.421 326.704 195.748C336.089 196.808 341.76 203.161 347.074 209.839C349.832 213.308 352.856 216.288 356.634 218.596C359.006 220.045 360.894 222.041 361.725 224.766C363.256 229.809 365.962 233.935 370.744 236.488C371.473 235.221 370.087 234.166 370.15 232.908C371.425 233.523 372.077 234.185 371.778 235.922C371.435 237.927 373.517 239.448 373.546 241.67C373.608 247.312 375.531 252.792 375.342 258.482C373.739 257.973 373.816 256.467 373.589 255.277C373.164 253.046 372.72 250.815 372.599 248.531C372.488 246.41 372.246 244.285 369.266 244.376C369.063 244.381 368.797 244.28 368.676 244.121C365.43 239.971 360.102 237.635 358.136 232.409C356.421 227.847 354.17 223.979 349.668 221.345C345.915 219.148 343.475 215.314 340.717 211.951C338.026 208.674 335.191 205.512 331.336 203.496C330.041 202.916 328.665 202.628 327.274 202.398C322.245 201.481 318.163 199.063 315.091 194.961C312.709 191.775 309.854 189.155 305.845 188.167C303.154 187.5 302.681 184.784 300.797 182.927C300.744 182.846 300.333 183.561 300.672 183.277C300.73 183.229 300.788 183.249 300.845 183.33C303.126 186.626 303.28 190.729 301.208 192.888L301.217 192.883Z" fill="#2D2D2D"/>
<path d="M178.342 482.061C178.062 481.96 177.521 481.836 177.043 481.596C158.286 472.11 138.002 466.87 118.09 460.575C106.502 456.91 95.6283 451.594 85.5034 444.9C78.5088 440.275 71.1518 436.163 64.6644 430.799C63.8963 430.161 63.0171 429.834 62.022 429.623C60.1526 429.23 59.085 428.016 59.6599 426.073C60.2251 424.163 61.8433 423.702 63.6161 424.129C65.9106 424.681 67.5772 426.346 69.4273 427.68C87.7013 440.865 106.83 452.548 128.887 458.378C145.799 462.845 162.213 468.483 177.941 476.088C178.82 476.515 179.753 476.87 180.55 477.417C181.651 478.175 182.013 479.293 181.545 480.574C181.125 481.716 180.076 482.224 178.347 482.061H178.342Z" fill="#2D2D2D"/>
<path d="M54.3706 307.998C53.9117 306.304 53.3948 304.466 55.5637 303.627C57.6989 302.801 58.6167 304.533 59.5345 305.992C60.2108 307.067 60.8387 308.166 61.4909 309.255C63.3168 315.132 66.7127 319.849 71.6399 323.639C75.5333 326.628 78.9872 330.117 81.4701 334.445C88.827 347.27 101.633 352.418 114.502 357.456C122.805 360.704 131.259 360.896 139.905 358.929C143.557 358.099 146.543 356.261 149.33 353.973C150.827 352.744 152.421 351.895 153.909 353.541C155.402 355.186 154.426 356.875 153.001 358.065C149.808 360.719 146.403 363.046 142.234 364.01C132.573 366.246 123.037 366.433 113.55 362.959C106.782 360.484 100.242 357.562 93.9571 354.073C87.3441 350.408 81.9338 345.451 77.9631 339.012C75.3739 334.814 72.3645 330.99 68.3937 327.986C63.0463 323.946 59.1239 318.884 56.8632 312.546C56.2883 310.939 55.2159 309.509 54.3706 307.998Z" fill="#2D2D2D"/>
<path d="M204.688 391.469C211.828 391.157 217.842 392.851 223.89 394.305C231.276 396.08 238.7 397.394 246.217 395.216C252.221 393.474 257.095 389.703 261.786 385.817C267.969 380.692 274.736 376.629 282.171 373.611C284.035 372.852 286.136 371.802 287.252 374.234C288.32 376.561 286.46 377.799 284.504 378.586C277.253 381.494 270.558 385.332 264.761 390.562C252.158 401.938 237.734 404.193 221.745 399.467C214.151 397.222 206.408 395.773 198.491 397.678C192.192 399.194 186.066 401.103 181.922 406.64C181.043 407.816 179.695 408.152 178.434 407.255C177.251 406.415 176.966 405.182 177.565 403.781C178.555 401.473 180.39 399.913 182.395 398.589C189.38 393.954 197.099 391.584 204.688 391.474V391.469Z" fill="#2D2D2D"/>
<path d="M263.408 440.352C263.471 436.907 264.693 434.037 266.316 431.298C271.046 423.328 277.166 416.649 284.871 411.4C295.662 404.045 303.835 394.559 308.879 382.458C312.149 374.609 317.941 368.75 324.66 363.708C326.249 362.513 328.08 361.606 329.524 363.578C331.007 365.603 329.394 366.975 327.839 368.122C321.018 373.145 315.922 379.469 312.613 387.28C307.772 398.705 299.705 407.571 289.648 414.668C282.62 419.624 276.383 425.257 271.852 432.627C270.302 435.146 268.915 437.684 268.737 440.721C268.63 442.496 268.5 444.454 265.998 444.31C263.336 444.152 263.64 441.945 263.413 440.356L263.408 440.352Z" fill="#2D2D2D"/>
<path d="M178.695 362.417C177.106 362.153 175.507 362.119 175.217 360.306C174.879 358.19 176.434 357.623 178.077 357.024C190.047 352.677 202.51 350.681 215.088 349.203C222.851 348.291 230.184 345.983 237.241 342.687C242.579 340.197 248.168 338.398 253.902 337.045C255.839 336.589 257.824 336.397 258.486 338.705C259.187 341.166 257.201 341.852 255.312 342.308C249.153 343.791 243.178 345.815 237.492 348.574C227.58 353.387 216.832 354.509 206.132 355.915C197.901 356.995 189.791 358.569 182.009 361.563C180.902 361.99 179.695 362.162 178.7 362.412L178.695 362.417Z" fill="#2D2D2D"/>
<path d="M85.5229 390.663C91.5273 391.268 96.4062 393.355 101.237 395.701C109.85 399.876 116.989 406.219 124.94 411.362C131.983 415.92 138.978 420.555 146.446 424.418C148.166 425.305 149.871 426.279 152.021 425.824C153.407 425.531 154.677 425.972 155.011 427.608C155.344 429.249 154.532 430.396 153.088 430.972C151.064 431.783 149.04 431.476 147.031 430.689C142.847 429.043 139.031 426.716 135.225 424.394C126.752 419.226 118.506 413.728 110.502 407.85C102.923 402.289 94.9329 397.414 85.3297 395.989C83.6294 395.735 82.3927 394.737 82.6681 392.909C82.9386 391.09 84.3443 390.505 85.5181 390.663H85.5229Z" fill="#2D2D2D"/>
<path d="M139.785 232.788C141.012 227.98 143.016 223.086 146.518 219.19C155.899 208.745 166.435 199.744 180.076 195.071C181.719 194.509 183.26 193.65 184.912 193.108C186.496 192.59 188.042 192.787 188.733 194.572C189.366 196.203 188.424 197.379 187.052 198.012C183.791 199.509 180.395 200.718 177.168 202.277C164.875 208.203 154.383 216.22 147.335 228.129C146.282 229.909 145.586 231.848 145.171 233.882C144.813 235.614 143.823 236.655 141.968 236.334C140.244 236.032 139.876 234.635 139.785 232.793V232.788Z" fill="#2D2E2D"/>
<path d="M284.972 440.951C282.842 440.923 281.799 438.701 283.016 436.259C284.682 432.915 287.098 430.137 290.117 427.857C295.29 423.952 301.193 421.39 307.058 418.775C315.381 415.066 323.013 410.316 329.834 404.299C331.095 403.186 332.442 402.49 333.887 403.786C335.471 405.201 334.896 406.842 333.717 408.104C332.394 409.529 330.858 410.786 329.288 411.947C322.448 417.014 315.192 421.37 307.289 424.652C303.072 426.404 298.952 428.404 295.131 430.938C292.088 432.958 289.494 435.381 287.861 438.701C287.272 439.905 286.581 441.018 284.972 440.942V440.951Z" fill="#2D2E2D"/>
<path d="M235.087 379.944C228.807 380.453 221.943 378.96 215.021 378.231C213.296 378.049 211.702 377.459 211.9 375.28C212.118 372.891 213.886 372.718 215.75 372.949C224.624 374.042 233.488 375.189 242.468 374.446C244.758 374.254 247.009 374.086 249.144 373.136C250.781 372.406 252.482 372.282 253.264 374.244C254.003 376.086 252.897 377.334 251.269 378.14C248.366 379.579 245.193 379.747 242.048 379.92C239.98 380.035 237.903 379.939 235.082 379.939L235.087 379.944Z" fill="#2F2F2E"/>
<path d="M175.521 159.225C180.376 154.978 184.583 149.883 190.916 147.561C186.376 152.215 182.076 157.185 175.521 159.225Z" fill="#6935B1"/>
<path d="M174.937 224.905C173.217 224.656 172.285 223.84 172.377 222.29C172.492 220.256 173.681 219.104 175.729 219.071C177.323 219.047 178.168 220.136 178.125 221.575C178.062 223.629 176.569 224.497 174.937 224.905Z" fill="#363932"/>
<path d="M173.637 266.043C175.497 266.11 176.294 267.175 176.231 268.581C176.144 270.587 174.806 271.786 172.816 271.786C171.367 271.786 170.314 270.831 170.425 269.262C170.57 267.242 171.845 266.216 173.632 266.043H173.637Z" fill="#393D34"/>
<path d="M162.281 261.955C162.194 263.654 161.604 264.997 159.633 264.983C157.716 264.969 156.928 263.625 156.899 261.979C156.87 260.329 157.595 258.938 159.542 258.938C161.474 258.938 162.087 260.3 162.276 261.955H162.281Z" fill="#353830"/>
<path d="M178.825 281.709C178.608 283.431 177.632 284.415 175.845 284.482C174.164 284.549 173.135 283.786 173.135 282.026C173.135 280.121 174.434 279.358 176.057 279.185C177.787 278.998 178.603 280.073 178.825 281.709Z" fill="#363931"/>
<path d="M165.686 240.148C163.986 240.119 162.981 239.145 162.841 237.591C162.681 235.844 163.59 234.64 165.478 234.601C167.203 234.568 168.058 235.575 168.092 237.255C168.126 238.881 167.43 239.956 165.686 240.148Z" fill="#353830"/>
<path d="M138.62 268.37C140.156 268.442 141.234 269.253 141.306 270.889C141.379 272.578 140.572 273.878 138.717 273.921C137.021 273.96 136.152 272.722 136.075 271.225C135.993 269.685 136.823 268.576 138.62 268.375V268.37Z" fill="#373A33"/>
<path d="M139.983 293.517C139.843 295.1 139.21 296.237 137.384 296.146C135.828 296.069 134.969 295.109 134.911 293.651C134.848 292.063 135.592 290.926 137.369 290.863C139.186 290.796 139.818 291.938 139.978 293.521L139.983 293.517Z" fill="#363931"/>
<path d="M169.908 247.053C171.995 247.072 172.903 247.945 172.869 249.452C172.831 251.227 171.715 252.273 169.918 252.196C168.377 252.134 167.541 251.064 167.628 249.577C167.725 247.969 168.657 247.01 169.903 247.048L169.908 247.053Z" fill="#353831"/>
<path d="M167.778 290.484C167.459 292.12 166.604 293.109 164.889 292.984C163.136 292.859 162.43 291.765 162.556 290.129C162.677 288.579 163.706 287.783 165.16 287.816C166.812 287.86 167.633 288.944 167.778 290.484Z" fill="#3A3E34"/>
<path d="M153.03 295.244C152.977 296.88 152.291 297.974 150.726 297.984C149.088 297.994 148.069 297 148.103 295.316C148.132 293.81 148.992 292.845 150.562 292.879C152.103 292.912 152.871 293.896 153.03 295.244Z" fill="#3C4035"/>
<path d="M149.876 241.726C151.378 241.846 152.344 242.561 152.31 244.145C152.276 245.651 151.441 246.582 149.9 246.62C148.18 246.664 147.267 245.637 147.291 244.015C147.315 242.48 148.368 241.77 149.876 241.722V241.726Z" fill="#34372F"/>
<path d="M206.775 181.478C206.326 182.121 205.876 182.759 205.427 183.402C205.384 183.076 205.335 182.745 205.292 182.418C205.567 181.703 206.002 181.123 206.712 180.782C206.867 180.926 206.925 181.075 206.891 181.238C206.857 181.401 206.818 181.483 206.77 181.483L206.775 181.478Z" fill="#99F700"/>
<path d="M206.775 181.477C206.756 181.247 206.736 181.012 206.717 180.782C207.108 179.976 207.765 179.453 208.572 179.098C208.5 180.283 207.548 180.815 206.775 181.477Z" fill="#94EA00"/>
<path d="M313.366 144.053C307.55 138.113 300.478 134.491 293.469 131.161C288.441 128.772 284.552 125.245 280.156 122.208C273.944 117.918 270.065 112.165 267.674 105.156C263.573 93.1316 261.926 80.6567 260.694 68.129C259.578 56.7912 258.916 45.4102 257.984 34.058C257.81 31.9277 257.298 29.8261 256.945 27.7246C257.216 27.6047 257.477 27.3983 257.583 27.4607C264.355 31.3807 272.587 31.2272 279.359 35.152C282.19 36.7929 284.953 38.5586 287.861 40.0412C289.885 41.0728 292.039 42.0036 294.247 42.5074C308.275 45.7125 319.955 53.1399 330.689 62.2802C334.017 65.1158 337.727 67.4525 341.089 70.1921C356.054 82.4032 369.106 96.0728 374.285 115.428C375.231 118.96 376.545 122.39 377.99 126.78C371.198 121.733 364.44 120.701 357.049 121.517C348.514 122.462 342.055 126.761 336.761 132.951C330.959 139.735 325.346 146.75 324.902 156.557C321.723 154.911 319.999 152.388 318.115 150.036C317.467 149.226 317.897 148.41 318.052 147.561C319.675 138.694 324.607 131.804 331.249 126.003C336.77 121.181 342.915 117.227 349.325 113.658C354.252 110.913 359.141 111 363.986 113.677C365.677 114.612 367.329 115.366 368.541 113.408C369.821 111.34 368.498 109.925 366.676 108.965C361.189 106.077 355.286 104.988 349.644 107.684C338.229 113.144 327.873 120.173 320.052 130.35C316.994 134.332 314.787 138.766 313.371 144.053H313.366Z" fill="#6E00FF"/>
<path d="M14.0353 141.261C12.9195 134.457 14.5619 127.869 15.7792 121.282C19.4601 101.418 19.9238 81.3715 19.6243 61.2581C19.4504 49.7428 19.4697 38.2227 19.4697 26.7074C19.4697 22.9793 20.3489 19.4095 21.9285 16.0029C22.6676 14.41 23.6047 14.1029 25.3147 14.6403C30.1163 16.1421 33.7054 18.9009 36.425 23.1904C40.3813 29.4279 44.608 35.5166 48.9748 41.4806C54.0566 48.4185 61.2396 51.7004 69.7511 52.3194C75.3063 52.7224 80.8614 53.0774 86.4069 53.5764C87.5228 53.6772 89.2086 53.634 89.5758 54.776C89.9767 56.0283 88.3536 56.652 87.5131 57.3909C64.5631 77.6435 53.2161 103.774 49.1149 133.325C47.0426 148.256 46.4001 163.394 42.4874 178.043C41.0624 183.383 39.1591 188.589 37.5167 193.871C37.1448 195.071 36.826 195.517 35.2802 195.176C25.9862 193.118 19.4649 183.551 21.3247 174.199C22.1169 170.227 22.5758 166.268 22.0782 162.233C22.798 159.038 24.8896 156.6 26.8508 154.163C30.1791 150.017 32.7007 145.555 33.8117 140.311C35.826 130.777 41.3715 123.057 47.0523 115.442C48.685 113.255 49.6125 111.023 49.6028 108.255C49.5931 105.549 50.2115 102.867 50.6607 100.189C51.1438 97.3203 50.5061 94.9164 48.3903 92.7429C43.6902 87.9257 40.2943 82.2784 38.2075 75.5995C37.7872 81.0309 38.6857 86.2752 37.3815 91.4043C34.971 100.895 32.7151 110.438 26.9136 118.643C26.2857 119.53 25.7205 120.476 24.9573 121.258C20.5904 125.73 17.6534 130.955 16.1849 137.039C15.8226 138.54 15.5859 140.282 14.0257 141.256L14.0353 141.261Z" fill="#6E00FF"/>
<path d="M331.534 202.815C336.606 205.113 339.775 209.489 343.055 213.61C346.001 217.314 349.19 220.635 353.325 222.976C355.146 224.008 356.242 225.538 356.938 227.414C358.595 231.9 360.203 236.377 364.812 238.934C365.773 239.467 366.391 240.695 367.043 241.684C368.42 243.766 370.034 244.884 372.55 243.214C374.091 248.271 373.347 253.626 375.357 258.467C375.632 259.614 375.83 260.78 376.188 261.898C377.545 266.125 378.555 270.328 377.796 274.881C377.038 279.425 378.497 283.863 379.313 288.297C380.057 292.365 379.922 296.353 378.743 300.311C378.284 301.319 378.477 302.489 377.975 303.487C377.584 305.133 377.101 306.75 376.521 308.343C375.951 309.039 375.091 308.679 374.396 308.919C369.261 309.96 364.121 310.958 359.001 312.061C353.701 313.199 348.571 312.205 343.427 311.092C341.847 310.752 341.751 310.041 342.683 308.851C344.258 306.855 346.229 305.335 348.301 303.895C358.682 296.664 358.687 290.235 349.909 280.898C348.368 279.257 347.663 278.182 348.624 275.985C350.716 271.206 349.315 268.764 343.253 263.347C340.731 261.096 338.49 259.163 337.867 255.655C337.471 253.415 335.64 251.947 333.51 251.112C331.558 250.349 330.563 249.106 330.558 246.966C330.548 241.78 328.215 238.071 323.327 236.003C321.655 235.297 320.337 234.251 320.535 232.102C320.593 231.502 320.419 230.571 320.003 230.283C316.926 228.143 316.535 224.756 315.588 221.58C315.076 219.867 313.825 218.375 312.091 217.914C304.855 215.98 301.695 211.058 301.28 203.976C302.502 200.276 302.096 196.577 301.227 192.887C303.217 189.164 300.773 185.844 300.449 182.092C301.531 182.14 302.908 182.955 302.995 183.733C303.348 186.89 305.666 187.216 307.99 187.921C311.139 188.881 313.424 191.16 315.221 193.756C318.24 198.112 322.346 200.607 327.476 201.639C327.737 202.56 326.892 202.877 326.496 203.443C325.578 204.633 324.737 206.034 326.655 206.831C328.196 207.473 328.935 206.164 329.283 204.801C329.389 204.388 329.457 203.966 329.597 203.553C330.022 202.719 330.587 202.258 331.539 202.824L331.534 202.815Z" fill="white"/>
<path d="M383.24 308.429C383.434 307.033 383.419 305.569 383.854 304.255C386.317 296.827 385.298 289.453 383.694 282.078C383.298 280.26 382.951 278.436 383.202 276.594C384.023 270.529 383.057 264.724 380.999 259.009C378.767 252.815 378.888 246.189 377.676 239.798C376.767 235.014 375.125 230.629 372.715 226.454C364.792 212.703 356.875 198.952 348.963 185.196C348.658 184.663 348.398 184.111 347.77 182.902C354.378 185.479 360.566 187.235 367.097 186.568C373.599 185.906 379.028 182.667 384.549 179.035C383.269 183.099 384.946 187.451 382.781 191.381C382.221 192.403 382.274 193.607 383.226 194.379C389.709 199.643 391.549 207.272 392.225 214.718C394.423 238.944 396.264 263.26 390.501 287.308C388.684 294.884 385.747 304.543 382.738 311.792C381.487 311.874 383.052 309.101 383.236 308.429H383.24Z" fill="#6E00FF"/>
<path d="M347.755 68.0951C340.036 63.6329 333.915 57.4962 326.955 52.4775C317.723 45.8226 308.004 40.0505 296.604 37.6755C292.44 36.807 292.382 36.5671 294.266 32.911C296.565 28.4488 298.019 23.6652 299.956 19.0686C302.787 12.337 307.54 7.76443 314.897 6.18107C320.911 4.8856 329.655 9.28541 331.867 14.9807C333.775 19.8939 336.215 24.4712 339.596 28.5064C345.692 35.7802 348.098 44.316 348.315 53.5522C348.431 58.3167 348.74 63.1099 347.755 68.0999V68.0951Z" fill="#6E00FF"/>
<path d="M14.0352 141.261C16.0688 133.555 19.2618 126.651 24.4885 120.274C33.4395 109.349 36.5456 95.9911 37.5069 82.1439C37.7001 79.3515 37.5359 76.535 37.5359 73.3203C38.7532 74.16 38.9126 75.2203 39.2217 76.1368C41.2168 82.0911 44.1827 87.4698 48.7621 91.8456C51.6798 94.6285 52.5058 97.8144 51.303 101.605C51.1098 102.219 50.96 102.886 50.9793 103.524C51.1822 110.366 48.4095 115.985 44.091 121.142C39.1251 127.068 36.0336 133.992 34.367 141.501C33.4057 145.843 31.4542 149.585 28.6863 153.045C26.3338 155.986 24.2808 159.167 22.0974 162.243C19.798 157.032 16.9673 152.052 15.209 146.611C14.6486 144.883 14.4216 143.046 14.0448 141.261H14.0352Z" fill="white"/>
<path d="M110.173 125.883C117.269 120.869 125.361 120.298 133.645 120.826C135.234 120.927 136.848 121.498 138.157 122.577C143.799 127.222 149.349 131.929 153.045 138.406C154.441 140.848 156.107 143.151 157.798 145.411C159.812 148.098 160.812 151.145 161.387 154.369C161.619 155.669 161.667 156.998 160.522 157.982C154.305 163.332 147.658 167.909 139.331 169.55C142.982 157.104 141.403 145.406 134.857 134.515C129.887 126.238 121.897 123.522 112.564 126.262C112.043 126.416 111.506 126.507 110.975 126.632C110.188 126.939 110.062 126.54 110.164 125.888L110.173 125.883Z" fill="white"/>
<path d="M374.072 132.427C363.638 127.697 351.977 133.493 350.17 146.179C349.064 153.942 349.364 161.782 349.629 169.588C349.736 172.731 350.9 175.658 352.605 178.714C347.291 177.409 342.408 176.56 339.331 171.493C336.988 167.635 333.998 164.071 330.438 161.105C329.95 160.698 329.582 160.29 329.602 159.488C329.93 147.412 342.451 130.561 353.793 127.697C361.257 125.811 368.758 125.499 374.859 131.636C375.009 132.303 374.826 132.648 374.072 132.427Z" fill="white"/>
<path d="M115.477 173.551C110.869 174.036 107.415 171.109 104.57 167.928C96.435 158.836 96.72 145.761 104.845 136.592C112.613 127.826 125.641 128.949 131.215 139.12C135.336 146.644 136.548 154.863 135.162 163.327C134.321 168.446 131.186 171.555 125.882 172.419C122.539 172.966 119.201 173.494 115.477 173.551Z" fill="#FEFEFD"/>
<path d="M372.048 139.629C365.102 139.759 361.29 142.479 359.329 149.062C357.484 155.242 356.638 161.537 357.638 168.005C358.16 171.402 359.624 174.343 361.735 177.279C358.967 177.409 357.44 176.07 356.416 173.988C355.638 172.414 355.146 170.711 355.126 168.979C355.054 161.93 354.696 154.863 355.494 147.834C356.064 142.829 357.976 138.636 363.276 136.837C367.106 135.536 370.526 136.079 373.545 138.813C373.584 140.066 372.869 139.951 372.043 139.624L372.048 139.629Z" fill="white"/>
<path d="M96.2757 168.916C94.4932 168.048 92.933 166.882 91.6384 165.385C88.3922 161.633 86.5035 157.684 89.3197 152.757C90.909 149.974 92.1746 147.004 94.0875 144.173C92.3147 152.593 92.8122 160.606 97.1356 168.106C97.2467 168.792 97.1017 169.209 96.2757 168.916Z" fill="white"/>
<path d="M384.583 148.093C385.665 151.85 386.192 155.712 386.564 159.579C387.216 166.388 384.346 171.718 379.096 175.902C378.559 176.329 377.999 177.054 376.99 176.531C381.864 167.933 384.574 158.788 383.931 148.827C383.593 148.093 383.97 147.987 384.583 148.088V148.093Z" fill="white"/>
<path d="M290.817 248.003C292.305 248.334 293.464 249.087 293.242 250.613C292.957 252.551 291.851 254.116 289.629 254.01C288.156 253.943 287.247 252.921 287.484 251.347C287.769 249.438 288.919 248.291 290.817 248.003Z" fill="#343631"/>
<path d="M275.76 227.26C275.664 228.892 274.77 229.976 273.166 229.957C271.335 229.938 270.538 228.536 270.553 226.905C270.567 225.226 271.485 223.926 273.33 224.069C275.123 224.213 275.823 225.538 275.76 227.26Z" fill="#333432"/>
<path d="M241.038 230.543C240.84 232.165 240.091 233.446 238.246 233.508C236.459 233.566 235.623 232.342 235.797 230.759C235.99 229.041 236.884 227.597 238.942 227.707C240.627 227.798 240.975 229.079 241.038 230.543Z" fill="#343532"/>
<path d="M281.035 245.2C281.011 247.019 280.112 248.098 278.272 248.098C276.746 248.098 275.726 247.139 275.813 245.651C275.905 244.006 276.919 242.782 278.702 242.701C280.325 242.629 280.972 243.708 281.03 245.196L281.035 245.2Z" fill="#353730"/>
<path d="M232.493 217.905C230.807 217.833 229.778 216.95 229.754 215.333C229.725 213.563 230.807 212.579 232.609 212.526C234.14 212.483 235.126 213.184 235.126 214.786C235.126 216.509 234.242 217.593 232.493 217.905Z" fill="#313230"/>
<path d="M228.353 230.715C228.305 232.38 227.682 233.57 225.952 233.671C224.237 233.772 223.305 232.716 223.237 231.123C223.17 229.573 223.909 228.35 225.633 228.249C227.334 228.148 228.174 229.17 228.353 230.715Z" fill="#353732"/>
<path d="M248.105 229.842C249.859 229.358 251.458 229.396 251.984 231.522C252.356 233.009 251.564 234.204 250.178 234.559C247.714 235.187 246.815 233.748 246.796 231.512C247.303 231.008 246.878 229.789 248.1 229.842H248.105Z" fill="#383B34"/>
<path d="M288.416 207.358C290.049 207.397 291.131 208.232 291.281 209.844C291.431 211.418 290.334 212.31 288.899 212.363C287.349 212.42 286.136 211.648 286.069 209.901C286.006 208.361 286.817 207.488 288.416 207.358Z" fill="#393C35"/>
<path d="M270.529 241.4C268.998 241.319 267.954 240.441 267.925 238.833C267.896 237.331 268.94 236.415 270.413 236.439C271.993 236.458 273.05 237.327 273.065 239.044C273.079 240.632 272.215 241.381 270.534 241.4H270.529Z" fill="#353733"/>
<path d="M286.648 238.623C285.185 238.483 284.151 237.807 284.127 236.228C284.103 234.559 285.064 233.585 286.716 233.479C288.286 233.378 289.262 234.309 289.31 235.792C289.363 237.428 288.233 238.287 286.648 238.623Z" fill="#393C34"/>
<path d="M253.429 252.259C253.337 253.914 252.279 254.744 250.699 254.715C249.226 254.687 248.202 253.727 248.299 252.24C248.4 250.675 249.414 249.725 251.105 249.749C252.718 249.769 253.424 250.661 253.433 252.264L253.429 252.259Z" fill="#353732"/>
<path d="M244.535 245.838C243.023 245.541 242.067 244.802 242.144 243.223C242.222 241.568 243.144 240.604 244.82 240.613C246.4 240.623 247.226 241.664 247.183 243.123C247.139 244.735 246.067 245.603 244.535 245.838Z" fill="#383B34"/>
<path d="M228.773 247.902C227.136 247.858 226.305 247.024 226.285 245.498C226.266 243.866 227.155 242.82 228.783 242.71C230.382 242.6 231.116 243.655 231.155 245.133C231.198 246.76 230.42 247.762 228.773 247.902Z" fill="#353633"/>
<path d="M299.396 233.359C299.367 234.885 298.507 235.907 296.894 236.017C295.314 236.123 294.551 235.082 294.522 233.604C294.488 231.987 295.261 230.941 296.991 230.879C298.589 230.821 299.328 231.718 299.396 233.364V233.359Z" fill="#343631"/>
<path d="M241.579 221.843C241.41 223.393 240.579 224.372 238.884 224.353C237.198 224.333 236.681 223.177 236.72 221.747C236.763 220.13 237.555 219.075 239.328 219.176C240.922 219.267 241.54 220.294 241.584 221.843H241.579Z" fill="#353633"/>
<path d="M229.672 262.891C229.469 264.432 228.672 265.353 227.16 265.377C225.604 265.401 224.74 264.388 224.691 262.959C224.638 261.447 225.643 260.545 227.141 260.574C228.585 260.603 229.541 261.404 229.677 262.891H229.672Z" fill="#3A3F33"/>
<path d="M284.194 223.624C284.127 225.121 283.368 226.09 281.885 226.229C280.291 226.378 279.523 225.395 279.436 223.912C279.349 222.405 280.098 221.364 281.624 221.302C283.098 221.239 283.972 222.156 284.194 223.624Z" fill="#3A3D37"/>
<path d="M277.509 231.478C279.431 231.416 280.33 232.131 280.359 233.724C280.388 235.254 279.591 236.156 278.05 236.272C276.557 236.377 275.417 235.734 275.33 234.184C275.239 232.568 276.19 231.618 277.509 231.483V231.478Z" fill="#313130"/>
<path d="M293.286 214.637C294.749 214.824 295.43 215.664 295.445 217.055C295.464 218.638 294.551 219.603 293.073 219.593C291.6 219.588 290.629 218.624 290.725 217.041C290.817 215.496 291.827 214.781 293.286 214.637Z" fill="#373A33"/>
<path d="M289.957 227.985C288.479 227.721 287.445 227.011 287.528 225.432C287.605 223.921 288.518 223.057 290.068 223.091C291.532 223.124 292.175 224.074 292.223 225.418C292.281 226.968 291.46 227.807 289.957 227.985Z" fill="#383B34"/>
<path d="M222.793 214.469C224.349 214.593 225.155 215.438 225.102 216.988C225.044 218.585 224.097 219.3 222.552 219.214C221.117 219.137 220.426 218.264 220.412 216.887C220.392 215.323 221.209 214.512 222.793 214.464V214.469Z" fill="#343632"/>
<path d="M283.301 214.594C284.924 214.695 285.624 215.616 285.581 217.132C285.537 218.562 284.673 219.286 283.306 219.325C281.784 219.368 280.794 218.653 280.847 217.036C280.9 215.515 281.813 214.733 283.296 214.594H283.301Z" fill="#353634"/>
<path d="M230.054 251.544C231.614 251.611 232.464 252.412 232.44 253.967C232.421 255.296 231.836 256.27 230.348 256.304C228.817 256.337 227.889 255.526 227.745 254.029C227.59 252.427 228.551 251.707 230.054 251.544Z" fill="#363734"/>
<path d="M219.127 255.747C219.006 257.134 218.204 258.026 216.871 258.06C215.533 258.093 214.625 257.249 214.571 255.848C214.518 254.399 215.354 253.645 216.774 253.631C218.165 253.617 219.006 254.317 219.127 255.752V255.747Z" fill="#3D4038"/>
<path d="M246.704 229.995C244.999 230.35 243.622 230.082 243.376 228.052C243.231 226.852 243.729 225.874 245.018 225.677C246.951 225.384 247.762 226.517 247.975 228.253C247.555 228.834 247.878 229.952 246.704 229.995Z" fill="#3E4238"/>
<path d="M253.453 278.768C253.337 280.625 253.279 282.146 252.559 283.528C251.936 284.723 250.926 285.231 249.593 284.977C248.274 284.723 247.902 283.681 247.898 282.554C247.888 281.268 247.985 279.963 248.178 278.691C248.448 276.892 248.593 274.632 251.134 274.853C253.622 275.069 253.496 277.242 253.458 278.768H253.453Z" fill="#30312E"/>
<path d="M267.331 275.606C267.259 276.575 267.297 277.573 267.08 278.509C266.775 279.828 265.829 280.505 264.442 280.433C263.133 280.365 262.462 279.55 262.404 278.326C262.322 276.599 262.322 274.867 262.37 273.135C262.413 271.657 263.119 270.63 264.742 270.597C266.573 270.558 267.196 271.71 267.234 273.322C267.254 274.08 267.234 274.838 267.234 275.596C267.263 275.596 267.292 275.596 267.321 275.596L267.331 275.606Z" fill="#2F2F2E"/>
<path d="M283.62 276.547C283.117 278.653 283.475 281.489 280.229 281.92C278.494 282.151 277.345 280.807 277.779 279.296C278.398 277.141 277.475 273.812 281.021 273.389C282.89 273.169 283.562 274.699 283.62 276.551V276.547Z" fill="#31322F"/>
<path d="M326.162 202.743C326.597 202.374 327.037 202.004 327.471 201.635C328.887 201.827 330.331 201.903 331.534 202.82C330.66 202.873 330.191 203.333 330.133 204.202C328.636 204.183 327.273 203.808 326.162 202.743Z" fill="#D4E0C5"/>
<path d="M340.968 222.972C340.746 224.848 340.074 226.412 337.877 226.493C336.157 226.556 335.181 225.63 335.374 223.864C335.582 221.969 336.08 220.03 338.408 219.872C340.398 219.738 340.814 221.35 340.963 222.967L340.968 222.972Z" fill="#333530"/>
<path d="M363.705 281.795C363.778 283.719 363.16 285.164 361.025 285.12C359.17 285.082 358.315 283.748 358.286 282.069C358.257 280.346 359.17 279.161 361.029 279.051C362.981 278.936 363.831 279.953 363.701 281.795H363.705Z" fill="#32342F"/>
<path d="M326.162 202.742C327.795 202.392 329.157 202.771 330.133 204.201C330.09 204.733 330.152 205.304 329.978 205.799C329.515 207.108 328.645 208.03 327.148 208.102C326.071 208.154 325.259 207.742 324.839 206.691C324.162 204.997 324.873 203.779 326.162 202.742Z" fill="#363932"/>
<path d="M354.165 272.77C352.349 272.683 351.62 271.748 351.687 270.246C351.774 268.36 352.818 267.242 354.769 267.3C356.286 267.343 357.184 268.231 357.078 269.79C356.948 271.661 355.875 272.679 354.165 272.77Z" fill="#33352F"/>
<path d="M367.072 304.739C366.889 306.49 365.855 307.431 364.078 307.354C362.575 307.292 361.599 306.404 361.715 304.874C361.846 303.146 362.952 302.091 364.71 302.153C366.188 302.206 367.029 303.161 367.077 304.739H367.072Z" fill="#3B3F35"/>
<path d="M351.122 239.097C350.827 240.791 349.803 241.822 348.069 241.798C346.591 241.779 345.639 240.839 345.658 239.318C345.683 237.696 346.615 236.727 348.277 236.631C349.972 236.535 350.856 237.461 351.122 239.092V239.097Z" fill="#3A3E35"/>
<path d="M359.358 252.254C359.189 253.727 358.682 254.998 356.861 255.037C355.078 255.075 354.262 253.976 354.272 252.364C354.276 250.728 355.175 249.764 356.928 249.735C358.624 249.711 359.179 250.762 359.363 252.249L359.358 252.254Z" fill="#353931"/>
<path d="M338.239 246.481C339.823 246.645 340.717 247.475 340.659 249.005C340.591 250.776 339.572 251.812 337.765 251.788C336.22 251.769 335.34 250.828 335.398 249.308C335.466 247.547 336.5 246.592 338.244 246.481H338.239Z" fill="#383C31"/>
<path d="M314.965 207.388C313.453 207.272 312.405 206.577 312.308 205.056C312.192 203.276 313.144 202.177 314.965 202.076C316.467 201.99 317.53 202.733 317.627 204.278C317.743 206.082 316.574 206.97 314.965 207.388Z" fill="#3A3E34"/>
<path d="M327.645 222.664C327.539 224.555 326.558 225.495 324.94 225.514C323.481 225.534 322.385 224.67 322.298 223.168C322.206 221.556 323.109 220.457 324.795 220.357C326.491 220.256 327.355 221.268 327.64 222.664H327.645Z" fill="#383C31"/>
<path d="M369.947 268.547C369.782 270.04 369.014 271.076 367.478 271.086C366.015 271.095 364.918 270.26 364.889 268.715C364.855 267.06 365.807 266.091 367.527 266.062C369.198 266.033 369.768 267.122 369.951 268.552L369.947 268.547Z" fill="#3A3E34"/>
<path d="M346.794 220.375C348.257 220.413 349.219 221.215 349.238 222.923C349.257 224.549 348.248 225.235 346.76 225.245C345.219 225.255 344.277 224.343 344.248 222.875C344.219 221.459 344.929 220.409 346.794 220.375Z" fill="#3E4138"/>
<path d="M131.462 153.27C131.631 155.419 131.162 157.862 130.317 160.227C127.95 166.848 122.68 170.298 115.67 169.852C109.642 169.468 103.952 164.517 102.657 158.356C102.058 155.496 101.739 152.574 101.884 149.638C102.333 140.512 111.197 133.19 120.313 134.428C123.158 134.817 125.356 136.294 127.1 138.545C130.389 142.786 131.447 147.675 131.457 153.275L131.462 153.27Z" fill="#2D2D2D"/>
</g>
<defs>
<clipPath id="clip0_982_1259">
<rect width="400" height="500" fill="white" transform="translate(0.5 0.5)"/>
</clipPath>
</defs>
</svg>
