<?xml version="1.0" encoding="UTF-8"?>
<svg id="Layer_2" data-name="Layer 2" xmlns="http://www.w3.org/2000/svg" viewBox="0 0 827.33 1038.69">
  <defs>
    <style>
      .cls-1 {
        fill: none;
      }

      .cls-2 {
        fill: #050407;
      }

      .cls-3 {
        fill: #fefefe;
      }

      .cls-4 {
        fill: #6900fc;
      }
    </style>
  </defs>
  <g id="Layer_1-2" data-name="Layer 1">
    <g>
      <path class="cls-1" d="M495.27,746.44s.08,.05,.11,.08c-.04-.03-.08-.05-.11-.08h0Z"/>
      <path class="cls-1" d="M308.3,733.67s-.02,0-.03,0c.01,0,.02,0,.03,0Z"/>
      <path class="cls-1" d="M306.64,732.62c-.71-.09-1.25-.44-1.72-.89,.47,.45,1.01,.8,1.72,.89Z"/>
      <path class="cls-1" d="M170.96,439.24h0c.22-.24,.38-.5,.43-.76-.05,.26-.21,.53-.43,.76Z"/>
      <path class="cls-1" d="M502.76,773.49c.68-1.42,1.17-2.83,1.52-4.22-.35,1.39-.84,2.79-1.52,4.22Z"/>
      <path class="cls-1" d="M155.38,158.2s.01-.01,.01-.02c0-.02-.02-.04-.03-.06,0,.03,.02,.05,.01,.07Z"/>
      <path class="cls-1" d="M343.32,139.02l.15,.06s-.08-.03-.15-.07c0,0,0,0,0,0Z"/>
      <path class="cls-1" d="M306.64,732.62c.2,.03,.43,.02,.66,0h0c-.23,.02-.46,.03-.66,0Z"/>
      <path class="cls-1" d="M494.32,745.54h0c-2.74-1.31-5.48-2.62-8.22-3.93,2.74,1.31,5.48,2.62,8.22,3.93Z"/>
      <path class="cls-1" d="M223.66,294.97c.19-.21,.37-.42,.56-.64-.18,.22-.36,.44-.56,.64Z"/>
      <path class="cls-1" d="M440.53,796.96c-.03-.06,.1-.19,.16-.28,.11,0,.22,0,.33,0-.11,0-.22,0-.33-.01-.06,.1-.19,.23-.16,.29Z"/>
      <path class="cls-1" d="M381.24,352.46c-.09,.03-.16,.04-.21,.03,.06,0,.12,0,.21-.03Z"/>
      <polygon class="cls-1" points="375.91 283.63 375.91 283.63 375.91 283.63 375.91 283.63"/>
      <path class="cls-1" d="M225.88,289.95c.38,.09,.88,.06,.79,.73-.97,1.54-1.66,2.64-2.39,3.57,.73-.92,1.43-2.03,2.4-3.57,.09-.67-.42-.64-.79-.73Z"/>
      <path class="cls-1" d="M423.15,804.8c-2.11-.61-4.14-1.61-6.15-3.1,2.01,1.5,4.04,2.49,6.15,3.1Z"/>
      <path class="cls-1" d="M251.9,278.7c1.2-7.1,2.23-14.2,1.79-21.35,.44,7.15-.59,14.25-1.79,21.35Z"/>
      <path class="cls-1" d="M95.51,136.62s-.01-.06-.02-.09c.93,11.94-.25,23.93,.98,35.88-1.22-11.93-.06-23.9-.96-35.79Z"/>
      <path class="cls-1" d="M519.96,740.74c.24,.15,.48,.32,.71,.49-.23-.17-.47-.33-.71-.49Z"/>
      <path class="cls-1" d="M199.8,344.23c.23,.05,.46,.1,.69,.13h0c-.23-.04-.46-.08-.69-.13Z"/>
      <path class="cls-1" d="M155.52,158.03c.31,.36,.62,.72,.92,1.09,0,0,0,0,0,0-.31-.36-.62-.72-.92-1.09Z"/>
      <path class="cls-1" d="M158.55,162.19c5.28,6.46,12.92,8.07,21.25,8.26,1.48,.12,2.97,.36,4.45,.34-1.48,.02-2.97-.22-4.45-.35-8.33-.18-15.97-1.8-21.25-8.25Z"/>
      <path class="cls-1" d="M538.33,787.39c0,.42,0,.84-.01,1.27,0-.42,.01-.84,.01-1.27Z"/>
      <path class="cls-1" d="M215.48,300.41c.54-.3,1.04-.58,1.51-.84-.47,.26-.97,.54-1.51,.84Z"/>
      <path class="cls-1" d="M395.9,20.23c-.97,.59-1.59,2.02-2.51,2.75-1.98,.86-4.08,1.65-6.15,1.52,2.07,.13,4.17-.66,6.15-1.52,.92-.73,1.54-2.16,2.51-2.75Z"/>
      <path class="cls-1" d="M222.83,295.78c.08-.08,.17-.15,.25-.23-.08,.08-.16,.15-.25,.23Z"/>
      <path class="cls-1" d="M536.14,773.18c-1.68-7.5-3.68-14.86-7.32-21.54,3.63,6.68,5.63,14.04,7.32,21.54h0Z"/>
      <path class="cls-1" d="M208.37,421.25c.11-.78,.21-1.56,.3-2.34,1.24,.37,1.79,1.04,1.96,1.94-.17-.9-.72-1.57-1.96-1.94-.08-.23-.13-.51-.2-.77,.07,.25,.12,.53,.2,.77-.09,.78-.19,1.56-.3,2.34Z"/>
      <path class="cls-1" d="M200.05,346.59c-.03-.22-.04-.44-.04-.65,0,.22,0,.43,.04,.65Z"/>
      <path class="cls-1" d="M520.34,999.2h0c.32-.31,.64-.63,.96-.94h0c-.32,.31-.64,.63-.96,.94Z"/>
      <path class="cls-1" d="M193.46,106.15h0s.12,.1,.22,.18l-.22-.18Z"/>
      <path class="cls-1" d="M494.32,745.53h0c.35,.31,.7,.62,1.05,.93h0c-.35-.31-.7-.62-1.05-.93Z"/>
      <path class="cls-1" d="M377.32,251.13c-.24,.42-.33,.8-.33,1.16,0-.35,.09-.74,.33-1.16,0,0,0,0,0,0-4.39-.63-6.44-2.36-6.08-5.08-.36,2.72,1.68,4.45,6.08,5.08Z"/>
      <path class="cls-1" d="M521.63,801.11c2.98-.61,6-1.09,8.46-3.15,1.02-.5,2.26-.67,3.07-1.48-.81,.81-2.05,.97-3.07,1.48-2.46,2.07-5.49,2.55-8.47,3.16Z"/>
      <path class="cls-1" d="M369.3,301.57c.89-.98,1.57-2.15,2.57-3.24-1,1.09-1.68,2.27-2.57,3.24-1.42,.37-2.89,.84-4.21,.56,1.32,.28,2.8-.18,4.21-.56Z"/>
      <path class="cls-1" d="M372.11,243.54c-.31,.6-.55,1.16-.7,1.69,.15-.53,.39-1.1,.7-1.69Z"/>
      <path class="cls-1" d="M208.05,423.59c.11-.78,.22-1.56,.32-2.34-.11,.78-.22,1.56-.32,2.34Z"/>
      <path class="cls-3" d="M2.06,556.26l2.73,6.86c2.45,55.74,32.95,106.19,66.49,150.78,33.54,44.58,71.55,86.97,93.35,138.32,14.56,34.29,22.53,73.45,49.68,98.96,17.75,16.68,41.45,25.17,64.43,33.23,50.05,17.56,103.71,35.12,153.76,52.68l6.39-6.37c12.99-23.49,35.86-56.09,35.86-56.09l8.47-13.27,3.95-4.52,5.93,12.14v15.53l1.13,9.04,2.54,8.75,5.08,5.63,7.41,2,6.43-2,4.28-3.65,3.52,2.96c3.4-4.62,7.47-6.43,12.97-6.94,13.58-1.25,20.52-16.37,12.78-27.61-3.11-4.51-6.9-8.56-9.95-13.11-6.53-9.75-11.65-20-11.09-32.31,.42-9.3,.27-18.63,.38-27.95,.04-3.39-.21-6.77-3.04-9.11-1.5-1.24-.78-2.27-.24-3.43,5.37-11.48,7.32-23.71,7.91-36.22,.1-2.22,.78-2.85,2.97-3.51,12.74-3.85,21.22-12.43,24.5-25.18,2.19-8.48,2.87-17.38,2.35-26.24-.89-15.31-3.66-30.28-7.46-45.13-1.71-6.71-3.27-13.54,1.62-20.11,2.64-3.55,3.17-8.28,4.25-12.65,1.49-5.97,.96-12.36,3.41-18.05,4.51-10.49,9.36-20.84,14.1-31.23,2.35-5.15,4.27-10.43,5.22-16.03,3.74-22.1,7.53-44.17,12.23-66.11,7.05-32.87,14.97-65.3,28.31-96.38,3.49-8.12,7.98-15.79,11.03-24.56,1.11,2.5,2.12,5.14,5.24,4.52,3.45-.68,3.23-3.7,3.55-6.33,.44-3.57,.99-7.13,1.5-10.7,1.25,1.32,1.7,2.54,2.06,3.78,.75,2.61,2,4.64,5.14,4.33,3.14-.31,3.44-2.97,3.67-5.18,.42-4.13,.41-8.3,.6-12.45,.07-1.56-.51-3.48,1.95-3.88,1.2,1,.59,2.5,1.01,3.72,.66,1.91,1.16,4.02,3.74,3.99,2.61-.02,3.7-1.68,4.17-4.1,1.75-9.03,6.55-17.19,7.62-26.44,.15-1.27-.29-3.6,1.98-3.3,2.06,.27,1.19,2.43,1.33,3.76,.43,4.13,.42,8.32,1.07,12.41,.45,2.81,1.77,5.75,5.34,5.43,3.29-.3,2.69-3.27,2.76-5.5,.44-12.97,1.24-25.92,.85-38.91-.03-1.13-.48-2.29,1.31-2.63,2.38-.45,2.73-2.07,2.83-3.8,.03-.58,.04-1.17,.08-1.74,.27-.22,.54-.44,.81-.67,2.34,.21,4.03-.9,5.4-2.77,.89,1.38,1.69,2.64,2.52,3.88,1.28,1.93,2.85,3.44,5.35,2.28,2.3-1.07,2.14-3.2,1.6-5.18-1.44-5.27-1.54-10.85-3.67-15.97-1.16-2.79-3.27-6,2.46-6.27,1.09-.05,1.74-1.41,2.17-2.55,1.16-3.1,2.38-3.27,3.88-.15,1.11,2.3,2.95,3.86,5.62,2.81,2.79-1.1,2.52-3.49,1.92-5.92-1.3-5.31-2.74-10.61-3.66-15.99-.62-3.63,.28-7.75,2.31-10.37,1.85-2.37,2.1-4.29,1.74-6.71-.58-3.89-2.71-7.81,1.17-11.37,.72-.66,.42-2.55,.39-3.87-.06-3.32-.27-6.65-.35-9.97-.02-.99-.8-2.36,1.28-2.49,4.48-.28,4.14-3.46,3.71-6.57-.23-1.63-1.36-4.32-.82-4.7,5.63-3.91,1.93-8.21,.81-12.39,6.46-.82,7.54-2.87,5.03-8.91-.96-2.32-3.12-4.41-2.12-7.25,.87-2.47,.03-4.55-1.12-6.63-1.99-3.62-5.56-7.23-5.59-10.87-.04-4.44-1.96-7.1-4.17-10.1-5.55-7.53-4.51-10.7,4.24-13.72,4.03-1.39,8.61-1.71,12.08-6.44,6.45,21.7,22.4,37.13,31.6,56.48,3.1,6.52,9.37,9.23,16.13,8.25,6.68-.97,8.02-6.11,9.15-11.47,.2-.98,.48-1.94,.67-2.91,4.01-21.32,10.53-41.71,21.97-60.34,1.55-2.52,2.73-5.32,3.75-8.11,7.43-20.25,9.1-41.15,6.24-62.37-1.53-11.39-6.44-20.42-19.16-23.04-5.98-1.23-11.73-3.53-17.61-5.25-19.78-5.78-39.48-11.47-60.5-11.15-9.82,.15-19.77-2.29-26.7-10.15-5.92-6.71-13.84-9.97-21.15-14.36-1.18-.7-2.83-.9-3.33-2.57,7.15-2.75,14.22-5.58,21.38-8.18,2.78-1.01,5.26-2.27,4-5.57-1.11-2.94-3.71-2.45-6.36-1.7-9.01,2.53-18.09,4.85-27.55,7.35,.23-3.07,.11-5.89-3.08-6.3-5.27-.68-4.44,4.71-6.74,7.57-2.15-2.6-4.63-4.32-7.96-4.57-3.36-.25-6.01-1.25-6.3-5.45-.14-2.05-2.2-3.22-4.05-4.08-4.37-2.03-8.85-3.73-13.69-4.32-1.55-.19-3.48,0-4.02-2.14-1.25-4.96-4.35-4.64-8.05-2.92-1.03,.48-2.39,1.31-3.22,.99-5.61-2.19-12.57-1.7-17.06-4.67-5.19-3.43-8.69-2.15-13.16-.58-.98,.35-2.55,1.87-3.02-.62-1.1-5.83-4.65-4.49-8.21-2.75-2.97,1.45-5.67,4.76-8.97,.26-.82-1.12-2.79-.52-4.21,.2-1.77,.9-3.6,1.71-5.39,2.57-2.79,1.34-4.14,.91-4.45-2.62-.44-5.03-4.11-6.51-8.45-3.68-1.81,1.18-3.46,2.62-5.47,4.16-.44-3.83,1.52-7.94-2.25-9.76-5.39-2.59-6.55,4.06-10.21,5.78-.55-8.23-2.09-9.19-9.26-5.66-.33-2.84-.51-6.18-4.14-6.33-3.48-.15-4.34,3.09-5.64,5.55-.16,.29-.36,.56-.51,.85-4.26,8.31-5.42,8.82-14.38,6.43-2.42-.65-4.73-1.56-6.7-3.14-2.82-2.26-5.53-4.52-9.19-1.31-1.34,1.18-2.49-.31-3.55-.88-4.57-2.48-8.29-6.09-12.21-9.43-1.95-1.66-4.22-2.31-6.23-.24-1.95,2-.79,4.02,.64,5.78,1.97,2.42,4.22,4.65,5.27,7.71-6.6,2.2-12.22,1.97-19.42-.76-2.86-1.08-6.68-2.46-7.62,1.33-1.04,4.2-3.43,3.92-6.09,3.49-7.41-1.19-14.93-2.06-21.66-5.81-2.93-1.63-6.03-1.69-8.2,.91-3.66,4.39-7.1,2.91-10.76,.33-1.49-1.05-2.93-2.21-4.52-3.1-3.88-2.17-6.87-.74-6.61,3.6,.25,4.11-1.93,3.21-3.91,2.47-5.22-1.95-9.49-5.37-13.43-9.26-1.89-1.86-3.83-3.72-6-5.23-1.67-1.16-3.83-1.51-5.61-.1-1.87,1.48-1.4,3.54-.85,5.52,.49,1.77,2.43,3.16,1.61,5.39-3.05-.95-5.87-1.89-8.74-2.7-2.11-.59-4.39-.3-4.98,1.96-.75,2.85-2.4,2.6-4.48,2.31-8.76-1.2-17.59-1.11-26.41-1.25-22-.36-43.87,2.29-65.83,2.62-15.96,.24-31.89,.66-47.81,2.61-23.45,2.87-46.89,5.57-69.12,14.14-27.14,10.46-30.58,22.89-29.49,44.07,1.41,27.4,3.54,54.76,3.48,82.22-.02,6.93-.26,14,1.79,20.79,1.6,5.31,4.4,7.29,9.9,7.09,4.45-.16,8.38-1.91,12.15-4.07,10.22-5.87,18.83-13.63,26.42-22.58,1.89-2.23,3.54-4.74,6.25-6.43,6.23,15.91,17.96,23.48,34.76,23.5,2.33,0,4.67,.07,6.99,.24,8.3,.6,16.01,2.84,22.44,8.42,6.78,5.9,13.5,11.86,20.3,17.73,3.16,2.73,4.98,6.15,5.78,10.18,1.23,6.19,1.67,12.69,3.93,18.48,2.56,6.56,1.87,12.44-.05,18.75-.94,3.11-1.77,4.64-5.65,3.94-5.67-1.02-7.87,1.99-5.69,7.27,1.58,3.83,2.16,7.69,1.47,11.68-.38,2.19-.82,4.67-3.72,5.21-2.86,.53-5.92,1.17-6.16,4.71-.27,4.04,3.44,4.29,6.09,5.43,.05,.02,.1,.04,.15,.05,.38,.09,.88,.06,.79,.73-.97,1.54-1.66,2.64-2.39,3.57-.02,.03-.05,.05-.07,.08-.18,.22-.36,.44-.56,.64-.19,.2-.38,.39-.58,.58-.08,.08-.16,.15-.25,.23-.74,.66-1.64,1.3-2.88,2.06-.66,.41-1.41,.85-2.29,1.35-.22,.12-.45,.25-.68,.38-.47,.26-.97,.54-1.51,.84-.8,.45-1.69,.94-2.67,1.48-2.44,1.35-5.3,2.37-5.9,5.62-.63,3.42,2.54,4.34,4.62,5.93-2.68,2-7.35,2.3-5.58,6.68,1.08,2.69-.36,2.68-1.8,3.33-1.96,.89-4.02,1.64-5.84,2.76-2.09,1.28-3.23,3.64-1.45,5.46,2.54,2.61,1.44,3.35-1.14,4.29-2.25,.82-3.7,2.46-3.07,4.99,.63,2.54,2.69,3.1,5.08,3,.69-.03,1.38,.13,2.08,.28,.23,.05,.46,.1,.69,.13-.26,.41-.4,.83-.46,1.26-.01,.11-.02,.21-.02,.32,0,.22,0,.43,.04,.65,.36,2.74,3.09,5.69-.58,8.25-1.9,1.32-3.01,3.77-1.2,6.16,1.58,2.09,3.67,1.74,5.86,.91,1.86-.7,6.81,3.39,6.32,5.34-1.2,4.8-2.16,9.72-5.04,13.94-7.93,11.6-14.24,24.4-25.13,33.83-1.6,1.39-2.94,3.22-3.99,5.08-4.36,7.71-10.99,12.59-18.88,16.3-4.61,2.17-9.32,3.43-14.29,3.99-2.65,.3-5.11,1.57-4.33,4.23,.89,3.03-.9,3.69-2.47,5.08-13.63,12.11-29.35,21.95-40.43,36.97-.33-.5-.72-1.03-1.04-1.6-2.91-5.19-6.53-5.31-9.52-.26-1.01,1.71-1.89,3.51-2.73,5.31-.77,1.64-1.33,2.26-3.1,.7-2.46-2.18-4.99-1.07-6.13,1.52-1.67,3.78-3.23,2.19-5.02,.4-3.17-3.18-6.18-6.53-9.49-9.56-2.23-2.05-5.08-4.11-7.87-1.21-2.88,2.98-.43,5.41,1.67,7.67,2.19,2.35,4.76,4.45,6,7.61-1.98,1.1-2.95-.66-4.3-1.01-2.52-.64-4.76-.05-4.82,2.64-.11,4.66-3.77,8.72-1.13,13.93-8-2.72-8.56-2.55-11.32,2.82-2.13-1.06-4.26-3.29-6.7-1-2.95,2.78-.21,5.85-.02,8.46-5.18,2.52-9.96,5.64-15.91,5.44-2.29-.08-4.6,.67-6.91,.96-2.31,.29-4.34,1.02-4.84,3.55-.51,2.59,1.16,3.67,3.29,4.8,3.93,2.09,3.97,7.24,.29,9.57-1.26,.8-2.58,1.51-3.89,2.23-1.01,.56-1.79,1.25-2.17,2.08"/>
      <path class="cls-2" d="M5.97,555.95c8.73-2.54,11.72-10.24,14.31-17.32,1.19-3.26,1.99-3.72,4.8-4.1,4.51-.6,10.19-1.23,12.43-4.61,1.89-2.86,3.66-5.57,6.13-8.01,1.1-1.08,1.43-1.8,3.33-1.37,5.62,1.27,7.3-.04,8.46-6,.67-3.46,2.87-5.23,6.01-4.48,4.46,1.07,7.02-1.2,9.25-4.2,1.1-1.48,2.16-2.52,3.83-3.47,2.31-1.32,4.26-2.12,7.08-2.07,4.58,.07,5.94-4.59,8.4-7.55,4.32,5.3,7.22,5.39,11.01-.14,4.36-6.37,9.42-11.98,15.34-16.94,10.77-9.03,22.51-16.98,31.51-27.99,.29-.35,.8-.67,1.24-.72,7.84-.97,14.03-5.8,20.94-8.93,.39-.13,1.01-.47,1.12-.35,.23,.25,.29,.52,.24,.78s-.21,.53-.43,.76h0c-.54,2.43-1.14,4.85-1.74,7.27-1.82,7.26-3.74,14.52-4.61,21.89-3.65,30.92,1.61,60.86,11.45,90.15,5.32,15.82,13.82,30.03,22.29,44.29,10.17,17.13,19.73,34.62,33.26,49.5,2.45,2.69,4.61,5.72,6.45,8.85,9.28,15.81,22.9,28.47,32.07,44.36,.57,.99,1.49,1.79,2.29,2.63,15.94,16.73,31.85,33.49,51.23,46.42,1.86,1.24,1.83,2.07,.95,3.88-2.19,4.52-4.96,8.6-8.21,12.42-5.13,6.02-4.68,12.32,1.31,17.46,4.03,3.46,8.62,6.19,13.02,9.17,7.1,4.82,15.73,6.3,22.89,10.71,14.63,9.01,30.29,15.68,46.39,21.35,13.36,4.71,27.52,6.03,41.3,8.95,5.45,1.16,10.45-.27,14.56-4.54,3.91-4.07,8.48-7.48,12.08-11.9,2.15-2.64,7.55-2.65,8.73,0,3.18,7.13,8.43,11.83,15.82,14.1,3.8,1.16,4.28,3.41,3.76,7.09-1.48,10.35-3.15,20.66-3.57,31.19-.29,7.38,2.63,14.33,.95,21.96-1.77,7.99-3.35,10.03-11.52,8.36-6.57-1.35-10.75,.72-13.86,6.73-2.32,4.47-3.01,9.19-1.89,14.03,2.06,8.9,5.46,17.16,13.34,22.6,3.76,2.6,4.36,5.73,2.2,9.36-4.44,7.48-8.14,15.36-13.61,22.28-12.14,15.36-24.52,30.59-33.43,48.21-1.04,2.05-1.97,4.19-2.64,6.39-.54,1.76,.13,3.3,2.03,4,1.86,.68,3.59,.12,4.12-1.65,1.58-5.25,6.13-8.51,8.42-13.31,2.86-5.99,6.89-11.32,10.55-16.86,9.83-14.92,23.33-27.3,30.49-45.28,2.07,7,3.43,12.85,2.84,19.03-.6,6.29-1.03,12.51,.18,18.85,1.54,8.05,5.96,13.53,13.72,15.36,7.57,1.78,14.34-1.11,18.91-7.32,3.4-4.62,7.47-6.43,12.97-6.94,13.58-1.25,20.52-16.37,12.78-27.61-3.11-4.51-6.9-8.56-9.95-13.11-6.53-9.75-11.65-20-11.09-32.31,.42-9.3,.27-18.63,.38-27.95,.04-3.39-.21-6.77-3.04-9.11-1.5-1.24-.78-2.27-.24-3.43,5.37-11.48,7.32-23.71,7.91-36.22,.1-2.22,.78-2.85,2.97-3.51,12.74-3.85,21.22-12.43,24.5-25.18,2.19-8.48,2.87-17.38,2.35-26.24-.89-15.31-3.66-30.28-7.46-45.13-1.71-6.71-3.27-13.54,1.62-20.11,2.64-3.55,3.17-8.28,4.25-12.65,1.49-5.97,.96-12.36,3.41-18.05,4.51-10.49,9.36-20.84,14.1-31.23,2.35-5.15,4.27-10.43,5.22-16.03,3.74-22.1,7.53-44.17,12.23-66.11,7.05-32.87,14.97-65.3,28.31-96.38,3.49-8.12,7.98-15.79,11.03-24.56,1.11,2.5,2.12,5.14,5.24,4.52,3.45-.68,3.23-3.7,3.55-6.33,.44-3.57,.99-7.13,1.5-10.7,1.25,1.32,1.7,2.54,2.06,3.78,.75,2.61,2,4.64,5.14,4.33,3.14-.31,3.44-2.97,3.67-5.18,.42-4.13,.41-8.3,.6-12.45,.07-1.56-.51-3.48,1.95-3.88,1.2,1,.59,2.5,1.01,3.72,.66,1.91,1.16,4.02,3.74,3.99,2.61-.02,3.7-1.68,4.17-4.1,1.75-9.03,6.55-17.19,7.62-26.44,.15-1.27-.29-3.6,1.98-3.3,2.06,.27,1.19,2.43,1.33,3.76,.43,4.13,.42,8.32,1.07,12.41,.45,2.81,1.77,5.75,5.34,5.43,3.29-.3,2.69-3.27,2.76-5.5,.44-12.97,1.24-25.92,.85-38.91-.03-1.13-.48-2.29,1.31-2.63,2.38-.45,2.73-2.07,2.83-3.8,.03-.58,.04-1.17,.08-1.74-.24-.46-.42-.95,.17-1.25,.09-.05,.42,.38,.64,.59,2.34,.21,4.03-.9,5.4-2.77,.89,1.38,1.69,2.64,2.52,3.88,1.28,1.93,2.85,3.44,5.35,2.28,2.3-1.07,2.14-3.2,1.6-5.18-1.44-5.27-1.54-10.85-3.67-15.97-1.16-2.79-3.27-6,2.46-6.27,1.09-.05,1.74-1.41,2.17-2.55,1.16-3.1,2.38-3.27,3.88-.15,1.11,2.3,2.95,3.86,5.62,2.81,2.79-1.1,2.52-3.49,1.92-5.92-1.3-5.31-2.74-10.61-3.66-15.99-.62-3.63,.28-7.75,2.31-10.37,1.85-2.37,2.1-4.29,1.74-6.71-.58-3.89-2.71-7.81,1.17-11.37,.72-.66,.42-2.55,.39-3.87-.06-3.32-.27-6.65-.35-9.97-.02-.99-.8-2.36,1.28-2.49,4.48-.28,4.14-3.46,3.71-6.57-.23-1.63-1.36-4.32-.82-4.7,5.63-3.91,1.93-8.21,.81-12.39,6.46-.82,7.54-2.87,5.03-8.91-.96-2.32-3.12-4.41-2.12-7.25,.87-2.47,.03-4.55-1.12-6.63-1.99-3.62-5.56-7.23-5.59-10.87-.04-4.44-1.96-7.1-4.17-10.1-5.55-7.53-4.51-10.7,4.24-13.72,4.03-1.39,8.61-1.71,12.08-6.44,6.45,21.7,22.4,37.13,31.6,56.48,3.1,6.52,9.37,9.23,16.13,8.25,6.68-.97,8.02-6.11,9.15-11.47,.2-.98,.48-1.94,.67-2.91,4.01-21.32,10.53-41.71,21.97-60.34,1.55-2.52,2.73-5.32,3.75-8.11,7.43-20.25,9.1-41.15,6.24-62.37-1.53-11.39-6.44-20.42-19.16-23.04-5.98-1.23-11.73-3.53-17.61-5.25-19.78-5.78-39.48-11.47-60.5-11.15-9.82,.15-19.77-2.29-26.7-10.15-5.92-6.71-13.84-9.97-21.15-14.36-1.18-.7-2.83-.9-3.33-2.57,7.15-2.75,14.22-5.58,21.38-8.18,2.78-1.01,5.26-2.27,4-5.57-1.11-2.94-3.71-2.45-6.36-1.7-9.01,2.53-18.09,4.85-27.55,7.35,.23-3.07,.11-5.89-3.08-6.3-5.27-.68-4.44,4.71-6.74,7.57-2.15-2.6-4.63-4.32-7.96-4.57-3.36-.25-6.01-1.25-6.3-5.45-.14-2.05-2.2-3.22-4.05-4.08-4.37-2.03-8.85-3.73-13.69-4.32-1.55-.19-3.48,0-4.02-2.14-1.25-4.96-4.35-4.64-8.05-2.92-1.03,.48-2.39,1.31-3.22,.99-5.61-2.19-12.57-1.7-17.06-4.67-5.19-3.43-8.69-2.15-13.16-.58-.98,.35-2.55,1.87-3.02-.62-1.1-5.83-4.65-4.49-8.21-2.75-2.97,1.45-5.67,4.76-8.97,.26-.82-1.12-2.79-.52-4.21,.2-1.77,.9-3.6,1.71-5.39,2.57-2.79,1.34-4.14,.91-4.45-2.62-.44-5.03-4.11-6.51-8.45-3.68-1.81,1.18-3.46,2.62-5.47,4.16-.44-3.83,1.52-7.94-2.25-9.76-5.39-2.59-6.55,4.06-10.21,5.78-.55-8.23-2.09-9.19-9.26-5.66-.33-2.84-.51-6.18-4.14-6.33-3.48-.15-4.34,3.09-5.64,5.55-.16,.29-.36,.56-.51,.85-4.26,8.31-5.42,8.82-14.38,6.43-2.42-.65-4.73-1.56-6.7-3.14-2.82-2.26-5.53-4.52-9.19-1.31-1.34,1.18-2.49-.31-3.55-.88-4.57-2.48-8.29-6.09-12.21-9.43-1.95-1.66-4.22-2.31-6.23-.24-1.95,2-.79,4.02,.64,5.78,1.97,2.42,4.22,4.65,5.27,7.71-6.6,2.2-12.22,1.97-19.42-.76-2.86-1.08-6.68-2.46-7.62,1.33-1.04,4.2-3.43,3.92-6.09,3.49-7.41-1.19-14.93-2.06-21.66-5.81-2.93-1.63-6.03-1.69-8.2,.91-3.66,4.39-7.1,2.91-10.76,.33-1.49-1.05-2.93-2.21-4.52-3.1-3.88-2.17-6.87-.74-6.61,3.6,.25,4.11-1.93,3.21-3.91,2.47-5.22-1.95-9.49-5.37-13.43-9.26-1.89-1.86-3.83-3.72-6-5.23-1.67-1.16-3.83-1.51-5.61-.1-1.87,1.48-1.4,3.54-.85,5.52,.49,1.77,2.43,3.16,1.61,5.39-3.05-.95-5.87-1.89-8.74-2.7-2.11-.59-4.39-.3-4.98,1.96-.75,2.85-2.4,2.6-4.48,2.31-8.76-1.2-17.59-1.11-26.41-1.25-22-.36-43.87,2.29-65.83,2.62-15.96,.24-31.89,.66-47.81,2.61-23.45,2.87-46.89,5.57-69.12,14.14-27.14,10.46-30.58,22.89-29.49,44.07,1.41,27.4,3.54,54.76,3.48,82.22-.02,6.93-.26,14,1.79,20.79,1.6,5.31,4.4,7.29,9.9,7.09,4.45-.16,8.38-1.91,12.15-4.07,10.22-5.87,18.83-13.63,26.42-22.58,1.89-2.23,3.54-4.74,6.25-6.43,6.23,15.91,17.96,23.48,34.76,23.5,2.33,0,4.67,.07,6.99,.24,8.3,.6,16.01,2.84,22.44,8.42,6.78,5.9,13.5,11.86,20.3,17.73,3.16,2.73,4.98,6.15,5.78,10.18,1.23,6.19,1.67,12.69,3.93,18.48,2.56,6.56,1.87,12.44-.05,18.75-.94,3.11-1.77,4.64-5.65,3.94-5.67-1.02-7.87,1.99-5.69,7.27,1.58,3.83,2.16,7.69,1.47,11.68-.38,2.19-.82,4.67-3.72,5.21-2.86,.53-5.92,1.17-6.16,4.71-.27,4.04,3.44,4.29,6.09,5.43,.05,.02,.1,.04,.15,.05,.38,.09,.88,.06,.79,.73-.97,1.54-1.66,2.65-2.4,3.57-.02,.03-.05,.05-.07,.08-.18,.22-.36,.44-.56,.64-.18,.2-.38,.39-.58,.58-.08,.08-.16,.15-.25,.23-.74,.66-1.64,1.3-2.88,2.06-.66,.41-1.41,.85-2.29,1.35-.22,.12-.45,.25-.68,.38-.47,.26-.97,.54-1.51,.84-.8,.45-1.69,.94-2.67,1.48-2.44,1.35-5.3,2.37-5.9,5.62-.63,3.42,2.54,4.34,4.62,5.93-2.68,2-7.35,2.3-5.58,6.68,1.08,2.69-.36,2.68-1.8,3.33-1.96,.89-4.02,1.64-5.84,2.76-2.09,1.28-3.23,3.64-1.45,5.46,2.54,2.61,1.44,3.35-1.14,4.29-2.25,.82-3.7,2.46-3.07,4.99,.63,2.54,2.69,3.1,5.08,3,.69-.03,1.38,.13,2.08,.28,.23,.05,.46,.1,.69,.13h0s0,0,0,0c-.26,.41-.4,.83-.46,1.26-.01,.11-.02,.21-.02,.32,0,.22,0,.43,.04,.65,.36,2.74,3.09,5.69-.58,8.25-1.9,1.32-3.01,3.77-1.2,6.16,1.58,2.09,3.67,1.74,5.86,.91,1.86-.7,6.81,3.39,6.32,5.34-1.2,4.8-2.16,9.72-5.04,13.94-7.93,11.6-14.24,24.4-25.13,33.83-1.6,1.39-2.94,3.22-3.99,5.08-4.36,7.71-10.99,12.59-18.88,16.3-4.61,2.17-9.32,3.43-14.29,3.99-2.65,.3-5.11,1.57-4.33,4.23,.89,3.03-.9,3.69-2.47,5.08-13.63,12.11-29.35,21.95-40.43,36.97-.33-.5-.72-1.03-1.04-1.6-2.91-5.19-6.53-5.31-9.52-.26-1.01,1.71-1.89,3.51-2.73,5.31-.77,1.64-1.33,2.26-3.1,.7-2.46-2.18-4.99-1.07-6.13,1.52-1.67,3.78-3.23,2.19-5.02,.4-3.17-3.18-6.18-6.53-9.49-9.56-2.23-2.05-5.08-4.11-7.87-1.21-2.88,2.98-.43,5.41,1.67,7.67,2.19,2.35,4.76,4.45,6,7.61-1.98,1.1-2.95-.66-4.3-1.01-2.52-.64-4.76-.05-4.82,2.64-.11,4.66-3.77,8.72-1.13,13.93-8-2.72-8.56-2.55-11.32,2.82-2.13-1.06-4.26-3.29-6.7-1-2.95,2.78-.21,5.85-.02,8.46-5.18,2.52-9.96,5.64-15.91,5.44-2.29-.08-4.6,.67-6.91,.96-2.31,.29-4.34,1.02-4.84,3.55-.51,2.59,1.16,3.67,3.29,4.8,3.93,2.09,3.97,7.24,.29,9.57-1.26,.8-2.58,1.51-3.89,2.23-1.01,.56-1.79,1.25-2.17,2.08l1.8,4.52c1.1,.44,2.45,.12,3.92-.31Zm316.35,226.9c-2.69-2.16-2.98-4.71-.55-7.28,4.99-5.27,8.35-11.53,11.26-18.08,3.26-7.37,7.73-13.8,13.37-19.64,4.59-4.75,8.34-10.33,12.88-16.06,3.12,6.41,8.25,9.14,15.27,9.11-1.82,6.15-8.61,9.34-8.5,16.33-3.76-3.09-7.53-4.41-11.95-1.6-5.82,3.69-7,8.39-2.51,13.68,2.24,2.64,2.17,4.62,.78,7.41-2.53,5.09-5.62,9.71-9.43,13.95-2.92,3.24-6.6,6.24-6.46,11.6-5.42-2.48-9.81-5.93-14.16-9.42Zm58.72-13.87c-3.99,3.99-13.92,3.28-18.52-1.57,1.22,.18,2.26,.11,3.11,.48,6.74,2.98,11.71,2.17,15.49-2.62,3.8-4.81,3.49-11.63-.8-16.88-.62-.76-1.5-1.34-2.04-2.15-.82-1.22-4.03-1.25-2.76-3,1.26-1.74,3.2,.44,4.43,1.44,6.26,5.09,6.8,18.58,1.1,24.29Zm-5.35-8.23c-4.83,2.83-17.49-1.67-19.1-6.28-.29-.83-.37-1.55,.43-2.19,.98-.79,2.06-1.31,3.13-.44,4.6,3.74,9.79,6.51,15.54,8.91Zm87.27,55.84c-4.07,5.58-9.48,9.77-14.63,14.21-1.24,1.07-3.03,1.42-4.73,1.03-17.89-4.12-36.52-5.49-53.38-13.49-11.35-5.39-23.35-9.45-33.75-16.85-5.12-3.64-11.94-3.93-17.14-7.5,5.33-1.86,7.23-7.17,10.55-10.88,3.1-3.47,4.63-2.82,6.87,.26,9.09,12.48,21.77,19.58,36.12,24.36,9.88,3.3,18.85,9.01,29.21,11.09,5.06,1.02,10.19,1.41,15.3,2.02,7.34,.89,12.45-2.64,16.74-7.55,5.26-6.03,10.74-11.77,16.59-17.23,6.13-5.73,10.45-12.87,13.95-20.46,2.04-4.42,1.15-8.42-2.4-11.76-4.26-4.01-8.99-7.34-14.19-10.03-17.83-9.22-36.24-17-55.63-22.35-5.46-1.51-10.6-3.83-15.56-6.48-4.5-2.4-9.01-4.11-14.23-3.5-3.33,.39-5.1-2.37-8.53-4.35,14.08-4.23,26.78-2.52,38.52,2.98,23.13,10.83,46.63,20.6,70.9,28.55,4.11,1.35,8.02,3.15,10.7,6.88,3.56,4.96,4.41,9.59,1.46,15.65-5.09,10.45-11.6,19.59-19.53,28.03-4.95,5.27-8.91,11.49-13.2,17.37Zm42.92,63.68c1.07,4.07-1.91,4.81-4.36,6.46-2.18-4.24-2.15-8.58-1.87-12.84,.79-11.92,2.2-23.79,4.72-35.48,.95-4.41,2.99-8.4,5.51-12.14,1.08-1.6,2.59-1.78,3.75-.77,1.34,1.15-.51,1.87-1.07,2.58-5.98,7.63-8.39,16.46-8.63,25.95-.22,8.8-.32,17.64,1.95,26.25Zm-15.71-77.59c-4.83-.75-4.59-2.02-2.15-6.1,3.86-6.46,9.48-6.12,15.26-6.03,2.79,.04,4.95,1.8,5.48,4.88,.34,1.98-.77,3.11-2.35,3.91-.99,.5-1.52,.98-2.25-.83-1.77-4.44-5.57-5.76-10.09-4.48-4.8,1.36-4.55,4.87-3.9,8.65Zm21.15,46.41c.19-.89-.09-2.25,1.32-2.2,1.33,.04,2.14,.98,1.82,2.38-1.18,5.06-1.22,10.39-3.89,16.54,.11-6.52-.31-11.66,.76-16.71Zm-2.2-31.07c-3.11,.83-2.93-1.9-5.33-2.66,10.96-4.84,21.61-7.61,32.75-11.17-1.16,6.58-3.6,11.77-7.2,16.36-1.56,1.99-2.85,3.57-6.27,.99-3.73-2.81-8.86-4.89-13.95-3.53Zm-34.85-4.58c.91-1.41,1.44-2.2,1.94-3,2.14-3.43,4.05-6.63,8.52-2.15,1.56,1.57,4.45,1.82,6.99,2.76-5.69,1.28-11.15,2.2-17.45,2.39Zm19.37,15.81c-6.15-3.31-7.26-3.79-9.73-9.55,2.05-.4,3.91-.53,5.6-1.12,4.53-1.57,8.05-.34,11.34,3.04,1.61,1.65,1.79,2.52,.87,4.74-1.81,4.37-3.69,5.26-8.09,2.89Zm34.58,126.29c4.02,6.98,9.18,13,13.93,19.38,2.16,2.89,3.23,5.1,3.23,7.26,0,2.15-1.07,4.25-3.19,6.92-.28,1.02-.74,1.78-1.32,2.34-.12,.11-.24,.22-.36,.32-.25,.2-.52,.37-.8,.52-.28,.15-.58,.27-.89,.38-.31,.1-.63,.19-.96,.26-.66,.14-1.35,.23-2.04,.3-5.26,.51-10.32,1.5-14.51,5.04,0,0,0,0,0-.01-.32,.31-.64,.63-.96,.94-.32,.4-.63,.81-.95,1.21-.34,.4-.66,.81-.98,1.23-.96,1.26-1.9,2.55-3.11,3.49-3.12,2.42-6.73,3.76-10.63,1.99-5.31-2.41-7.19-7.11-7.32-12.5-.15-6.14,.38-12.3,.15-18.44-.52-13.86-3.96-26.24-15.67-35.57-5.88-4.69-8.56-12.14-8.69-19.87-.12-6.91,3.09-9.46,9.66-8.49,8.03,1.19,12.9-1.2,16.78-8.44,.85-1.59,1.13-2.21,3.43-1.45,8.39,2.77,9.76,3.62,14.05-5.09,.53-1.07,.32-2.99,2.27-2.65,1.75,.31,2.13,1.92,2.34,3.43,.48,3.48,.16,6.94,0,10.43-.75,16.08-2.05,32.16,6.54,47.07Zm-2.13-103.1c-.81,11.75-2.8,23.22-8.42,33.84-4.23-2.07-5.3-4.73-3.35-9.07,3.61-8.02,5.6-16.59,6.95-25.25,.38-2.46,1.31-3.8,3.69-3.45,2.73,.4,1.23,2.63,1.14,3.93Zm29.84-53.78c.29,6.37-.67,12.62-1.59,18.88-1.78,12.01-11.85,21.71-23.79,22.93-4.03,.41-8.07,2.06-12.06-.48-1.86-1.18-4.77-1.4-4.07-4.57,.66-2.99,2.06-5.63,5.41-6.47,.63-.16,1.33-.15,1.98-.06,10.15,1.27,15.2-4.69,18.55-13.06,7.25-18.14,6.39-36.3,.26-54.53-4.05-12.05-9.61-22.87-20.97-29.87-3.35-2.06-7.28-5.82-5.41-9.62,1.86-3.78,7.25-3.03,11.36-2.76,3.95,.26,6.15,3.03,7.66,6.34,2.21,4.82,4.32,9.69,7.37,14.08,1.05,1.52,1.74,3.33,4.01,3.14,2.12-.18,1.9,1.68,2.19,2.71,4.88,17.46,8.85,35.09,9.11,53.34Zm-5.98-69.03c-1.98,3.85-4.31,4.22-6.43,.72-2.47-4.08-3.7-8.82-6.65-12.7-1.2-1.58,.47-1.83,1.47-2.26,6.05-2.64,11.79-5.87,18.07-9.92-1.16,8.96-2.7,16.86-6.46,24.16ZM731.87,200.24c-3.42,.36-7.4,4.04-9.72,2.41-2.56-1.8,.33-6.31,.3-9.71-.06-6.9-2.38-13.05-5.74-18.83-5.02-8.65-7.81-18.19-11.14-27.7,9.49,16.73,22.33,31.69,27.96,50.67,.56,1.9,1.11,2.87-1.66,3.16Zm-34.7-120.49c7.39,9.38,18.51,9.05,28.68,10.6,9.84,1.5,20.03,.43,29.76,2.88,17.94,4.52,35.75,9.56,53.37,15.25,7,2.26,8.46,8.37,9.37,14.08,2.94,18.27,2.13,36.42-3.56,54.2-1.82,5.71-3.96,11.18-7.03,16.4-10.39,17.62-16.45,36.85-20.54,56.77-.4,1.95-.61,3.94-1.11,5.87-.52,2-.45,4.8-3.12,5.09-2.74,.3-5.99-.18-7.37-2.83-2.62-5.05-5.19-9.75-6.11-16.03-2.06-14.07-1.13-28.62-6.09-42.27-9.77-26.9-20.14-53.64-37.9-76.41-10.96-14.05-20.54-28.94-30.35-43.88,.95-.48,1.6-.21,2,.3Zm-171.8-57.51c3.71,5.79,8.14,7.09,13.48,2.71,1.59-1.3,1.9,.35,2.48,1.22,2.9,4.28,6.8,5.04,11.34,3.08,2.26-.97,3.95-1.15,6.27,.51,2.67,1.92,5.79,.41,8.44-1.09,1.77-1.01,2.94-1.54,4.29,.82,1.47,2.56,4.41,2.52,6.75,1.57,9.73-3.97,18.85-.24,28.05,2,2.74,.67,5.3,1.93,8.22,1.25,.48-.11,1.19-.27,1.46-.03,5.19,4.56,12.22,3.81,18.12,6.29,2.38,1,4.32,2.12,4.81,5.06,.53,3.11,2.91,5.06,5.81,5.48,4.26,.62,7.65,2.64,10.88,5.2,.49,.39,1.47,.76,1.46,1.12-.23,6.26,4.46,5.35,8.29,5.9,4.58,.66,8.56,2.5,11.52,6.28,8.69,11.12,18.25,21.52,24.95,34.18,6.24,11.8,16.52,20.78,23.58,32.13,14.48,23.27,25.48,48.02,32.96,74.35,1.96,6.92,1.59,14.09,1.8,22.54-8.32-10.45-13.63-21.11-17.28-32.19-6.61-20.02-18.26-37.18-28.81-55.01-2.21-3.73-4.48-7.41-5.82-11.53-4.69-14.43-13.76-26.45-21.43-39.24-4.01-6.68-11.26-9.08-17.23-13.13-2.11-1.43-3.71,.42-5,2.02-1.3,1.62-1.55,3.36-.06,4.97,10.22,11.11,17.23,24.24,23.37,37.83,7.93,17.52,14.66,35.57,23.48,52.68,3.32,6.45,4.7,13.04,3.01,20.21-.98,4.13-.66,8.22-3.62,12.26-3.05,4.16-.97,9.64,2,13.99,1.5,2.2,3.21,4.16,2.2,7.2-.5,1.52,.75,2.79,1.63,4.01,2.54,3.57,6.79,6.61,3.6,11.98-.29,.48,.19,1.66,.64,2.29,1.93,2.77,1.65,4.18-2.09,4.05-.7-.02-1.59,.58-2.13,1.15-1.57,1.67-2.36,12.31-1.11,14.38,1.22,2.01,2.74,3.77-.55,5.56-1.77,.96-1.37,3.25-1.13,5.06,.45,3.46,.82,6.95,1.6,10.35,.58,2.51,.86,4.17-2.35,5.09-2.23,.64-2.23,3.06-1.81,5.14,.54,2.6,1.21,5.18,1.65,7.79,.29,1.73,.87,3.63-1.48,4.69-.63,.28-1.49,1.51-1.32,1.91,1.99,4.65-2.1,8.38-1.83,13.06,.2,3.43-3.24,7.34-2.91,11.43,.33,4.1-5.04,5.74-3.82,9.99,0,.01-.85,.34-1.32,.41-5.3,.89-5.28,4.74-4,8.36,1.98,5.59-3.36,2.85-4.88,4.28-1.51,1.42-2.4-1.42-2.42-2.96-.15-11.73-4.5-22.79-5.38-34.39-.09-1.26-1-2.65,.36-3.71,3.71-2.9,2.43-6.37,0-8.63-7.89-7.31-10.01-17.32-13.47-26.74-1.31-3.58-2.55-7.18-3.96-11.14,1.9-.7,4.78,.45,5.65-2.48,.78-2.6-.57-4.51-1.89-6.42-1.32-1.91-2.69-3.8-4.13-5.62-1.65-2.09-4.07-3.51,.03-6.22,2.83-1.87,.94-5.18-1.27-7.26-3.64-3.41-7.21-6.83-9.58-11.89,2.39-.16,4.98,.08,5.7-2.75,.69-2.71-1.09-4.39-2.78-6-7.83-7.47-15.61-14.85-26.54-17.94-4.38-1.24-8.45-3.87-12.4-6.29-2.8-1.72-5.13-3.98-5.49-7.83-.42-4.46-3.38-7.25-7.32-9.26-13.42-6.82-21.06-18.79-27.56-31.63-1.88-3.72-.43-7.88-.53-11.84-.05-1.98,.23-4.16-2-5.24-2.09-1.01-3.79,.06-5.53,1.2-4.94,3.23-4.73,3.09-6.88-2.35-3.15-8-3.57-16.16-2.26-24.5,.41-2.64,.63-5.19-2.26-6.4-3.04-1.27-4.51,1.2-6.02,3.17-.99,1.29-1.86,2.66-3.02,4.34-3.05-10.19-2.56-19.84,.03-29.48,.69-2.57,2.1-5.5-1.05-7.08-3.3-1.65-5.1,1.12-6.81,3.44-1.24,1.69-2.55,3.33-4.14,5.39-1.82-7.9-.89-15.06,.43-22.25,.63-3.44,1.66-7.45-4.29-7.07-2,.13-1.33-1.48-1.43-2.46-.44-4.3-.66-8.62-1.24-12.9-.37-2.78-.89-5.49-4.59-6.26-2.18-.46-3.31-7.47-2.08-12.16Zm177.67,119.82c-3.75-6.62-6.77-13.48-8.71-20.8,3.86,6.54,6.68,13.53,8.71,20.8Zm-571.94,16.5c-7,8.18-15.17,14.94-24.83,19.72-7.34,3.63-8.97,2.31-9.8-5.86-1.23-11.95-.05-23.94-.98-35.88,0,.03,.01,.06,.02,.09,0-.02,0-.04,0-.06,.1-1.41,.22-2.82,.35-4.23-.91-7.39-1.05-14.84-1.45-22.27-.59-10.93-1.07-21.87-1.59-32.81-.96-10.65-.76-20.95,8.59-28.48,4.71-3.79,10.03-6.47,15.67-8.57,23.76-8.86,48.59-11.95,73.68-14.03,25.87-2.15,51.84-2.16,77.72-4.24,18.35-1.47,36.92-1.8,55.35,.47,2.46,.3,4.98,.34,7.3,1.47,1.28,.62,3.04,.77,3.7-.38,2.6-4.49,5.87-2.54,9.25-1.45,1.72,.55,4.05,1.12,5.22-.41,3.57-4.67,6.6-1.57,9.74,.31,4.31,2.58,9.42,4.78,13.66,2.18,4.7-2.87,8.21-1.89,12.48-.11,.68,.28,1.36,.43,2.05,.47,2.07,.13,4.17-.66,6.15-1.52,.92-.73,1.54-2.16,2.51-2.75,.44-.27,.95-.36,1.59-.14,2.45,.86,4.86,2.25,6.8,3.96,1.17,1.03-1.29,1.97-1.32,3.29-.2,3.37,1.18,6.07,3.32,8.59,2.34,2.76,5.75,4.76,5.13,9.46-.29,2.16,2.51,3.38,4.48,4.19,4.44,1.83,8.91,3.64,13.48,5.11,14.06,4.51,22.52,14.77,28.49,27.54,1.53,3.27,3.44,7.07-2.18,8.87-.61,.19-.95,1.21-1.4,1.84-3.1-2.03-5.1-6.82-9.32-4.4-4.18,2.41-3.45,7.43-2.18,10.88,2.15,5.9,4.15,11.44,4.3,18,.14,6.24,5.09,11.32,9.01,17.85-3.61-1.67-6.42-4.68-9-1.53-2.64,3.22-.57,6.6,.9,9.93-2.29,.89-5.58-.87-6.72,2.57-1.11,3.31,.49,5.78,2.53,8.12,.44,.5,.93,.98,1.23,1.56,.65,1.25,2.78,2.01,1.9,3.68-.7,1.31-2.43,.51-3.69,.52-7.29,.07-12.83,4.28-18.4,8.08-3.05,2.09-2.17,4.71,1.98,7.55-2.57,2.77-7.98,4.53-3.67,9.92,.06,.08-1.7,1.8-2.76,2.57-6.63,4.83-12.6,10.35-17.87,16.62-2.06,2.45-3.69,4.87-.36,7.66,2.17,1.81-.39,2.62-1.16,3.31-6.43,5.79-12.97,11.45-19.52,17.1-3.04,2.62-5.84,5.46-8.19,8.71-.48,.66-.87,1.29-1.19,1.88s-.55,1.16-.7,1.69c-.08,.28-.14,.55-.17,.82-.36,2.72,1.68,4.45,6.08,5.08,1.56-.75,3.12-1.51,4.68-2.26,.21,.19,.41,.39,.62,.58-1.4,1.87-2.79,3.75-4.19,5.62-1.34,3.15-2.83,6.05-2.23,9.9,.53,3.39-2.76,6.01-4.06,9.14-2.78,6.72-5.97,13.26-8.96,19.89-.98,2.16-1.77,4.48-.25,6.62,.63,.89,1.37,1.33,2.16,1.5,1.32,.28,2.8-.18,4.21-.56,.89-.98,1.57-2.15,2.57-3.24,.6-.65,1.32-1.28,2.27-1.81-.5,2.71-.91,4.98-1.33,7.26h0c-.19,1.32-.4,2.63-.6,3.95s-.39,2.63-.53,3.95c-.3,2.71,.15,5.24,3.53,5.42,3.04,.16,1.91,1.7,1.52,3.32-1.4,5.8-2.86,11.6-3.93,17.47-.54,2.93-1.85,6.26,1.68,8.61,1.69,1.12-.05,2.01-.59,2.78-2.66,3.82-5.45,7.55-8.13,11.35-1.2,1.71-2,3.63-.4,5.49,1.69,1.96,3.81,1.77,5.89,.63,2.04-1.12,4-2.38,6.03-3.51,.88-.48,1.99-.75,2.76,0,.76,.75,.59,1.91,.25,2.84-.71,1.93-1.89,3.49-3.87,4.31-6.75,2.81-11.13,8.27-15.42,13.81-1.31,1.69-2.83,3.38-1.77,5.84,1.15,2.67,3.58,1.84,6.14,2.13-4.17,6.26-6.6,13.2-10.41,19.35-6.15,9.92-18.75,13.57-30.79,11.95-1.99-.27-2.08-1.59-2.28-3.21-.66-5.2-2.34-6.11-6.8-3.91-6.53,3.21-7.93,3.03-13.28-1.77-.12-.11-.23-.27-.38-.32-9.63-3.65-12.19-12.13-14.75-20.89-2.51-8.62-6.53-16.62-11.2-24.35-4.39-7.26-7.47-15.2-9.27-23.52-3.17-14.74-7.93-29.13-9.18-44.29-.59-7.12,1.25-13.85,2.05-20.75,1.31-11.4,2.92-22.8,.32-34.21-.55-2.4-1.02-5.22-2.55-6.92-3.78-4.19-2.7-8.48-1.29-12.93,1.8-5.69,3.87-11.29,5.58-17.01,.89-2.97,2-6.33-1.93-8.25-1.84-.9-1.04-2.34-.72-3.43,.81-2.68,1.88-5.29,2.92-7.9,1.35-3.37,4.48-6.65-.16-10.05-1.06-.78,.25-2.1,.75-3.02,2.6-4.73,3.72-9.09,.69-14.51-1.31-2.35,.26-6.66,1.25-9.85,.68-2.2,1.91-4.23,1.75-6.62-.26-3.92-.21-7.48,4.04-9.73,1.99-1.05,2.05-3.66,1.77-5.9-.31-2.47-.62-4.94-.96-7.41-.39-2.76-.24-4.72,3.51-4.91,3.9-.19,6.55-2.69,8.47-6.16,7.88-14.28,18.09-27.05,26.73-40.85,3.54-5.66,8.81-10.37,14.46-14.26,2.32-1.59,4.16-3.34,2.28-6.04-1.76-2.54-4.15-1.17-6.21,0-5.16,2.95-8.33,8.09-12.89,11.71-.95,.75-1.52,2.55-3.19,1.67-7.26-3.79-14.73-2.28-21.83-.16-18.46,5.49-36.4,12.47-53.87,20.58-7.15,3.32-13.05,8.55-19.33,13.19-4.66,3.45-9.17,7.17-14.85,8.92-.23,.19-.45,.4-.71,.54-.05,.03-.24-.18-.37-.28,.24-.18,.48-.36,.72-.55h0s0,0,0,0c2.92-4.76,6.57-8.84,10.57-12.58,2.4-2.25,4.92-4.37,7.49-6.45,6.46-5.23,13.05-10.32,19.38-15.71,8.67-7.38,18.04-13.47,28.6-17.89,12.83-5.38,24.56-13.27,38.14-16.97,9.3-2.54,18.65-5.1,28.31-1.51,1.76,.65,3.4,.16,4.2-1.63,.85-1.92,.16-3.65-1.47-4.85-2.68-1.97-5.92-2.08-9.06-2.24-13.11-.68-25.4,2.8-37.16,8.06-12.27,5.49-25,10.43-36.26,17.59-21.89,13.92-42.9,29.35-59.05,50.04-6.31,8.08-13.56,15.17-21.1,21.72-12.49,10.84-24.22,22.3-34.95,34.83Zm103.06,39.79c-6.16-5.33-12.23-10.78-18.34-16.16-9.03-7.95-19.62-11.53-31.58-11.39-1.48,.02-2.97-.22-4.45-.34-8.33-.18-15.96-1.8-21.25-8.26-.75-.92-1.46-1.94-2.12-3.07,0,0,.01,0,.02,0-.31-.36-.62-.72-.92-1.09,0,0-.14,.17-.12,.17,0,0,0,0,0-.01,0,0-.01,.02-.01,.02,0-.03-.01-.05-.01-.07-.11-.26-.24-.52-.36-.77-5.28-8.86-5.38-8.97,2-15.75,11.6-10.66,23.9-20.38,38.25-27.21,5.26-2.51,10.56-5.1,14.93-8.94,15.97-14.06,35.37-21.35,54.93-28.39,8.73-3.14,17.27-6.89,26.62-8.01,2.84-.34,6.59-1.02,8.03,.87,1.55,2.02-1.56,4.63-2.88,6.75-6.75,10.85-14.95,20.75-20.97,32.09-1.1,2.08-3.23,2.05-5.18,2.41-5.67,1.05-7.64,3.51-7.39,9.26,.09,2.16,.09,4.36,.57,6.45,.65,2.88,.51,4.95-2.57,6.5-2.44,1.22-3.33,4.05-2.63,6.51,1.89,6.67-2.91,11.21-5.39,16.15-1.73,3.44-2.01,5.51,.61,7.63,4.12,3.32,3.92,6.75,1.27,10.75-1.28,1.93-2.26,4.06-3.33,6.13-.8,1.55-1.42,3.91-.2,4.68,4.14,2.58,1.14,5.36,.67,8.01-.58,3.26-1.44,6.46-2.05,9.72-.21,1.12-.54,2.74,.03,3.41,5.53,6.45-1.04,11.69-1.06,18.86-3.56-4.38-5.73-7.96-6.54-12.11-1.16-5.97-3.97-10.81-8.55-14.77Zm-20.18,144.58c1.2-2.3,1.8-4.05,.13-6.36-1.07-1.48,2.85-10.08,5.1-11.18,4.1-2.01,6.28-4.81,4.75-9.51-.24-.73-.15-1.26,.28-1.81,2.81-3.53,.97-5.94-2.91-8.38,6.47-2.06,8.94-7.4,12.59-11.59,.89-1.02,2.07-2.36,1.57-3.51-2.66-6.08,1.86-11.53,1.29-17.39-.16-1.65,.18-3.36-.06-4.99-.46-3.06-.56-5.23,3.73-5.32,3.02-.07,4.07-3.18,4.83-5.73,1.51-5.04,2.8-10.15,4.29-15.61,.28,.31,.53,.63,.76,.95,1.57,2.25,1.82,4.67,2.2,7.04,.62,2.62,.97,5.22,1.13,7.82,.44,7.15-.59,14.25-1.79,21.35-.11,.65-.22,1.29-.33,1.94-4.77,30.57,3.78,59.06,15.23,86.56,5.57,13.37,13.03,25.97,16.95,40.11,1.03,3.7,3.56,6.71,6.99,8.79,3.21,1.94,6.21,3.74,8.45,7.27,2.35,3.71,7.24,2.57,11.14,2.05,2.66-.35,5.09-1.37,6.35,2.24,.41,1.16,1.76,1.91,3.16,2.21,18.25,3.86,37.18-2.96,43.93-19.65,2.87-7.1,7.52-13.26,10.88-20.1,1.32-2.69,2.89-5.59-.3-8.05-1.12-.86-.55-1.28-.02-1.86,.45-.48,.94-1.06,1.53-1.26,9.64-3.39,12.08-11.95,14.81-20.37,.79-2.45,1.84-4.97-.28-6.96-1.9-1.78-4.28-.95-6.55-.06-.72,.28-1.67,1.37-2.55,.86-.01,0-.03,.02-.05,.02-.09,.03-.16,.04-.21,.03-.22-.04-.23-.34-.29-.59-.06-.09-.12-.19-.18-.31l.03-.02s0,0,0,0h0c10.96-5.99,14.2-16.33,16.7-27.05,.36-1.53,.7-3.07,1.05-4.61,.39-1.71-.03-3.42-1.62-4.41-1.83-1.15-3.87-1.18-5.61,.12-2.23,1.66-4.28,3.57-6.72,5.63,.27-4.99,2.52-9.13,3.24-13.63,.24-1.47,.74-2.9,.87-4.37,.51-5.59-1.29-7.1-6.86-5.8-.57-2.03,.22-3.91,.56-5.84,1.23-6.96,.56-7.99-5.88-8.71,0,.02,0,.04-.01,.06-.02,.03-.04,.07-.06,.1,.09,.15,.18,.29,.27,.44-.21,.05-.41,.1-.62,.15h0s0,0,0,0c.11-.2,.23-.39,.34-.59-.04-.06-.07-.12-.11-.18,.06,0,.11,.01,.17,.02,.54-2.98,2.1-5.53,3.7-8,2.39-3.69,4.56-7.35,3.37-12.03-.41-1.62,.76-2.8,1.54-4.06,3.88-6.31,9.06-11.42,14.76-16.06,2.05-1.67,4.03-3.45,5.9-5.33,1.74-1.74,2.87-3.94,1.35-6.26-1.58-2.42-4-1.76-6.3-1.01-2.24,.73-4.2,2.73-6.84,1.64,3.63-3.12,7.44-6.02,10.81-9.38,4.26-4.26,8.52-8.11,14.53-10.01,4.7-1.49,8.1-5.07,9.65-10.03,1.26-4.01,.67-6.94-4.38-7.56,2.41-3.12,6.1-4,9.08-5.96,3.5-2.3,8.84-3.62,6.06-9.97-.61-1.4,1.27-1.52,2.24-2.02,3.18-1.63,7.08-2.62,6.85-7.42-.08-1.61,1.22-1.07,2.09-1.27,4.72-1.08,6.34-3.64,5.12-8.3-.51-1.94-1.73-3.57,1.51-4.59,4.14-1.3,.02-6.97,2.63-7.69,4.21-1.16,4.9-3.47,4.63-6.87-.41-5.25-2.64-9.87-5.45-14.23-1.43-2.21-3.04-4.31-3.84-7.09,4.57-.13,6.55-2.26,5.46-6.74-.06-.4-.13-.81-.19-1.21,.36,.13,.73,.25,1.09,.38h0c1.79,.28,3.35,.92,4.68,2.04,.44,.37,.85,.8,1.24,1.29,1.07,1.34,2.67,1.43,4.11,.84,1.57-.65,2.21-2.24,1.81-3.75-5.32-20.25-8.1-41.65-26.27-55.97-5.21-4.1-11.03-6.67-17.14-8.81-4.66-1.63-9.19-2.95-11.4-8.36-1.11-2.72-4.1-4.67-6.67-7.44,2.13-.37,3.98-.65,5.79-1.04,1.11-.24,2.98-.41,3.16-1.02,1.32-4.49,5.55-2.31,7.96-3.76,7.28-4.37,15.1-1.67,22.6-2.61,4.21-.52,8.81-.35,11.27-4.99,.92-1.73,2.04-.3,2.9,.12,2.75,1.33,5.42,2.56,8.5,.87,1.45-.8,2.49,.4,3.59,1.07,4.51,2.74,9.46,3.97,14.67,4.32,4.31,.29,8.4-.07,11.26-4.38,2.26,3.29,4.32,5.23,8.68,3.22,2.28-1.05,4.76,1.97,5.46,4.7,.75,2.88,.98,5.9,1.43,8.86,.31,1.99,.58,4.59,2.46,5.17,4.25,1.31,3.84,4.52,4.18,7.71,.7,6.5,.23,12.96-.32,19.42-.26,3.05-.44,5.86,3.54,6.34,2.1,.25,1.63,1.71,1.69,2.95,.18,3.65,.13,7.33,.5,10.96,.72,7.04,3.35,8.55,10.07,5.72-.8,8.36,1.1,16.26,3.01,24.13,.75,3.1,2.5,6.07,6.22,4.72,3.28-1.19,3.5-.05,3.65,2.62,.29,5.2,2.27,10.01,4.05,14.81,2.54,6.87,4.92,7.91,12.73,5.95-.87,8.53,2.94,15.54,7.83,21.72,7.23,9.16,13.37,19.67,25.28,23.99,1.84,.67,2.34,2.28,2.61,3.93,1.09,6.52,5.3,10.59,10.76,13.52,5.83,3.12,11.69,6.25,18.01,8.31,3.23,1.06,5.95,2.88,8.38,5.2,2.1,2.01,5.36,3.41,2.19,7.3-1.18,1.45-.28,3.89,.84,5.65,1.33,2.1,2.77,4.14,4.13,6.22,2.07,3.16,5.28,5.77,3.5,10.45-.51,1.35,.84,3.43,1.43,5.15,.5,1.46,1.41,2.42-1,3.63-3.45,1.73-2.8,5.32-.92,7.77,7.88,10.28,9.35,23.35,15.13,34.32,7.9,14.99,7.21,31.62,11.87,47.12,1.68,5.6-.8,12.13,3.67,17.18-2.64,3.22,.34,8.03-3.31,11.09-1.92,1.61-1.68,3.88-.15,5.84,2.26,2.91,2.74,5.19-.87,7.8-2.92,2.11-1.63,6.23-2.83,9.61-4.12-2.08-8.01-3.06-8.9,3.38-.11,.79-.76,1.04-1.47,.93-5.55-.82-5.97,3.24-6.13,6.91-.3,6.84-5.03,11.19-8.78,15.94-2.19,2.77-.67,5.81-2.03,8.41-.36-.08-.83-.05-.93-.22-1.33-2.42-2.14-5.77-5.92-4.77-3.24,.86-2.97,4-3.3,6.59-.38,2.95-.71,5.91-1.07,8.99-1.65-.68-1.43-2.56-2.53-3.47-2.43-1.99-4.57-1.79-6.21,.96-.5,.83-.85,1.88-.89,2.84-.57,13.26-6.47,25.08-11.31,36.88-10.77,26.27-19.09,53.22-25.18,80.84-6.04,27.4-11.78,54.89-15.72,82.71-.95,6.67-3.66,12.71-6.46,18.73-1.81,3.91-4.36,7.61-5.41,11.71-4.25,16.58-17.86,22.64-31.44,28.9-4.07,1.87-8.22,2.62-12.75,2.73-6.9,.17-14.1,.73-14.96,10.18-.03,.37-.46,.84-.82,1.03-15.93,8.41-32.21,13.91-50.4,7.29-13.11-4.77-25.54-11.04-38.24-16.71-2.11-.94-4.25-2.34-6.46-2.49-12.19-.86-18.69-9.65-25.31-18.06-2.34-2.97-6.26-5.15-5.72-10.21,.25-2.3-2.86-3.49-4.99-4.34-9.43-3.75-16.99-9.61-21.94-18.62-.54-.99-1.36-2.19-2.31-2.52-2.9-1-3.55-2.47-2.82-5.53,.58-2.45-1.56-4.38-3.99-3.78-3.76,.93-5.05-1.28-5.87-3.88-1-3.15-2.98-4.24-6.05-5-2.38-.59-4.18-1.96-5.49-5.2-1.42-3.52-1.35-5.95-.39-9.13,.53-1.75-.62-3.14-2.25-4.02-5.74-3.08-9.95-7.82-13.45-13.12-10.98-16.62-23.93-31.9-33.6-49.42-2.57-4.65-5.58-9.09-7.2-14.16-3.91-12.21-13.32-21.38-18.05-33.12-3.33-8.27-8.38-15.73-10.86-24.49-.96-3.39-4.53-6.11-5.94-9.96-.83-2.27-3.67-1.98-5.47-.16-1,1.01-1.61,2.4-2.95,4.48,0-3.7-.04-6.52,.01-9.34,.05-2.8,.8-5.79-3.19-6.77-2.02-.5-.95-2.17-.74-3.33,.67-3.71,2.37-7.49-3.01-9.52-1.93-.73-.28-3.01-.2-4.53,.21-4.04,3.27-8.49-2.12-11.58-.4-.23-.1-1.85,.03-2.8,.61-4.61,1.31-9.22,1.89-13.83,.58-4.55,.18-9-2.17-13.02-.66-1.13-.23-1.81,.07-2.71,1.92-5.75,2.26-11.73,2.48-17.71,.1-2.75,.6-5.7-2.52-7.55-1.5-.89-.56-2.32-.18-3.58,1.42-4.77,2.88-9.52,4.12-14.34,.92-3.56,1.47-6.86-3.84-7.84-3.61-.67-4.69-5.39-2.31-9.96Zm168.38-1.99c.71-3.95,2.93-6.58,4.79-9.4-.5,3.44-1.36,6.75-4.79,9.4Zm-202.83,94.92c.31-.94,1.12-2.01,.9-2.8-1.87-6.63,2.71-10.56,6.45-14.39,8.06-8.26,15.43-16.92,20.42-27.44,.82-1.73,2.23-3.19,3.53-5,1.39,7.53-.11,14.66-4.12,20.44q-4.34,6.24,1.44,10.88c.17,.13,.25,.36,.32,.61,.07,.25,.12,.53,.2,.77,1.24,.37,1.79,1.04,1.96,1.94,.1,.54,.06,1.16-.06,1.85-.84,4.97-1.54,9.96-2.29,14.94,2.17,6.67,1.75,13.57,2.3,20.41,.38,4.71,3.2,9.32,2.04,14.53-.25,1.12,.97,2.58,1.96,2.62,4.47,.17,3.46,3.54,3.81,6.08,.44,3.29,.71,6.61,1.14,9.91,.29,2.23,1.03,4.31,3.56,4.86,2.52,.55,3.99-1.02,5.29-2.9,2-2.9,5.12-2.52,6.4,1.07,2.36,6.61,6.18,12.48,8.98,18.87,3.21,7.31,7.01,14.31,11.91,20.67,.91,1.18,1.75,2.47,2.28,3.85,9.84,25.61,26.45,47.09,42.11,69.15,1.54,2.16,3.09,4.31,4.65,6.46,1.56,2.15,3.13,4.29,4.69,6.44,.61,.53,1.23,1.07,1.94,1.69,.36,.31,.74,.65,1.16,1.01,.42,.37,.88,.77,1.39,1.21-6.54-.87-6.28,7.56-12.1,6.88-3.25,1.41-6.74,1.69-10.19,2.19-2.71,.39-5.53,.89-5.26,4.6,.25,3.48,2.97,4.03,5.71,4.31,1.32,.13,2.67,.15,3.99,0,2.73-.3,4.52-.78,4.69,3.55,.18,4.57,4.82,3.59,8,3.31,2.16-.19,3.74-1.17,4.13,2.35,.34,3.05,3.36,3.54,5.95,2.67,2.65-.9,5.11-2.34,7.64-3.56,.9-.44,1.85-1.06,2.67-.07,.73,.88,.29,1.89-.24,2.72-2.3,3.65-5.42,7.01-6.78,10.97-1.79,5.22-4.35,6.92-9.98,7.91-9.16,1.62-14.79,7.66-15.61,15.61-1.04,10.04,2.42,18.02,10.78,24.11,5.53,4.02,11.07,7.06,18.15,6.71,7.4-.37,11.26-3.16,12.32-10.4,1.49-10.17-.82-19.77-5.57-28.81-1.63-3.1-4.87-4.41-7.54-6.47,3.48-2.06,5.11-5.75,8.03-8.15,2.05-1.68,4.17-1.35,6.91-1.34,7.57,.03,8.72,6.09,12.46,9.71,3.83,3.7,7.81,7.19,12.39,9.99,2.53,1.55,4.1,3.65-.31,5.11-1.09,.36-2.13,.92-3.15,1.47-1.94,1.05-3.22,2.59-2.39,4.86,.79,2.17,2.69,2.79,4.88,2.55,.49-.05,.97-.21,1.46-.3,9.4-1.88,15.15,.62,20.05,8.73,1.05,1.74,1.7,3.67-1.43,3.4-6.21-.55-11.73,3.42-18.45,1.65-4.01-1.06-8.38,3.06-10.97,6.77-6.86,9.78-15.52,18.1-22.31,27.91-2.32,3.35-5.03,4.23-8.12,1.03-1.94-2.01-4.25-3.57-6.56-5.11-.99-.66-1.99-1.32-2.95-2.02-.64-.46-1.28-.94-1.89-1.44-1.22-1.01-2.36-2.11-3.35-3.4-.23,.06-.44,.1-.63,.11-.01,0-.02,0-.03,0-.1,0-.2,0-.28-.02-.41-.07-.67-.37-.69-1.04-.23,.02-.46,.03-.66,0-.71-.09-1.25-.44-1.72-.89-.62-.6-1.12-1.38-1.68-1.96-9.2-9.44-18.3-18.98-27.39-28.53-.46-.48-2.18-.92-.51-2.03-2.84-2.59-5.06-5.63-7.03-8.94-3.15-5.3-6.82-10.23-11.1-14.71-3.8-3.98-7.08-8.36-9.9-13.11-4.59-7.75-10.14-14.78-16.02-21.61-9.14-10.64-16.05-22.85-22.89-34.98-8.22-14.57-17.72-28.41-23.6-44.32-10.56-28.59-16.12-57.96-13.82-88.37,.96-12.68,4.51-25.14,8.54-37.31Zm148.01,249.25c2.14,5.45,3.35,11.04,3.53,16.9-.38,2.97,.81,6.74-2.99,8.21-4.31,1.65-8.69,.62-12.2-2.08-2.14-1.64-3.91-3.37-6.56-4.56-5.03-2.24-7.54-12.88-5-18.27,2.85-6.05,10.46-9.03,16.75-6.55,3.05,1.2,5.23,3.14,6.48,6.35Z"/>
      <path class="cls-2" d="M.43,554.58c.45,.9,1,1.42,1.63,1.67l-1.8-4.52c-.37,.82-.37,1.76,.16,2.85Z"/>
      <path class="cls-2" d="M376.3,282.93l-.12-.05s.12,.06,.12,.06c-.02,.03-.04,.07-.06,.1,0,0,0,0,0,0,.02-.03,.04-.07,.06-.1,0-.02,0-.04,.01-.06,0,0,0,0-.01,0,0,.02,0,.04-.01,.05Z"/>
      <path class="cls-2" d="M217.67,299.19c.87-.5,1.63-.94,2.29-1.35-.66,.41-1.41,.85-2.29,1.35Z"/>
      <path class="cls-2" d="M219.95,297.84c1.24-.76,2.13-1.4,2.88-2.06-.74,.66-1.64,1.3-2.88,2.06Z"/>
      <path class="cls-2" d="M224.21,294.33s.05-.05,.07-.08c-.02,.03-.05,.05-.07,.08Z"/>
      <path class="cls-2" d="M223.66,294.97c-.19,.2-.38,.39-.58,.58,.2-.19,.4-.38,.58-.58Z"/>
      <path class="cls-2" d="M170.96,439.24h0c-.54,2.43-1.14,4.85-1.74,7.27,.61-2.42,1.2-4.84,1.74-7.27h0Z"/>
      <path class="cls-2" d="M693.45,384.09c.03-.58,.04-1.17,.08-1.74h0c-.04,.57-.05,1.16-.08,1.74Z"/>
      <path class="cls-2" d="M200.49,344.36c-.26,.41-.4,.83-.46,1.26,.05-.43,.19-.85,.46-1.26h0Z"/>
      <path class="cls-2" d="M200.01,345.94c0-.11,.01-.22,.02-.32-.01,.11-.02,.21-.02,.32Z"/>
      <path class="cls-3" d="M380.56,351.58c.06,.12,.12,.21,.18,.31-.02-.09-.05-.17-.08-.24-.03-.02-.06-.05-.1-.07Z"/>
      <path class="cls-3" d="M216.31,352.88c5.31,.98,4.75,4.28,3.84,7.84-1.24,4.81-2.7,9.57-4.12,14.34-.37,1.26-1.32,2.69,.18,3.58,3.12,1.85,2.62,4.8,2.52,7.55-.22,5.98-.55,11.96-2.48,17.71-.3,.9-.73,1.57-.07,2.71,2.35,4.02,2.74,8.48,2.17,13.02-.59,4.62-1.29,9.22-1.89,13.83-.13,.95-.43,2.58-.03,2.8,5.39,3.09,2.33,7.54,2.12,11.58-.08,1.52-1.73,3.8,.2,4.53,5.38,2.03,3.68,5.82,3.01,9.52-.21,1.17-1.28,2.83,.74,3.33,3.99,.99,3.24,3.98,3.19,6.77-.05,2.82-.01,5.64-.01,9.34,1.34-2.08,1.95-3.47,2.95-4.48,1.8-1.82,4.64-2.11,5.47,.16,1.41,3.85,4.98,6.57,5.94,9.96,2.48,8.77,7.53,16.22,10.86,24.49,4.73,11.74,14.14,20.91,18.05,33.12,1.62,5.06,4.63,9.51,7.2,14.16,9.67,17.52,22.62,32.8,33.6,49.42,3.5,5.3,7.71,10.04,13.45,13.12,1.63,.88,2.78,2.27,2.25,4.02-.95,3.18-1.03,5.61,.39,9.13,1.31,3.25,3.11,4.61,5.49,5.2,3.07,.76,5.05,1.84,6.05,5,.82,2.6,2.11,4.81,5.87,3.88,2.42-.6,4.56,1.33,3.99,3.78-.72,3.06-.08,4.53,2.82,5.53,.96,.33,1.77,1.53,2.31,2.52,4.94,9.02,12.51,14.87,21.94,18.62,2.13,.84,5.24,2.03,4.99,4.34-.55,5.06,3.38,7.23,5.72,10.21,6.62,8.41,13.12,17.2,25.31,18.06,2.2,.16,4.34,1.55,6.46,2.49,12.7,5.67,25.13,11.94,38.24,16.71,18.19,6.62,34.47,1.12,50.4-7.29,.36-.19,.79-.66,.82-1.03,.86-9.45,8.06-10.01,14.96-10.18,4.53-.11,8.68-.85,12.75-2.73,13.59-6.26,27.19-12.32,31.44-28.9,1.05-4.1,3.59-7.8,5.41-11.71,2.79-6.02,5.51-12.06,6.46-18.73,3.94-27.81,9.68-55.3,15.72-82.71,6.09-27.62,14.41-54.57,25.18-80.84,4.84-11.8,10.74-23.61,11.31-36.88,.04-.96,.39-2.01,.89-2.84,1.64-2.75,3.78-2.94,6.21-.96,1.11,.9,.89,2.78,2.53,3.47,.37-3.08,.69-6.04,1.07-8.99,.33-2.59,.06-5.73,3.3-6.59,3.79-1,4.59,2.35,5.92,4.77,.1,.18,.57,.15,.93,.22,1.36-2.6-.16-5.64,2.03-8.41,3.75-4.74,8.48-9.1,8.78-15.94,.16-3.67,.58-7.72,6.13-6.91,.72,.11,1.36-.14,1.47-.93,.89-6.44,4.78-5.46,8.9-3.38,1.2-3.39-.09-7.51,2.83-9.61,3.61-2.6,3.13-4.89,.87-7.8-1.52-1.96-1.76-4.23,.15-5.84,3.64-3.06,.67-7.87,3.31-11.09-4.47-5.05-1.98-11.58-3.67-17.18-4.66-15.5-3.97-32.13-11.87-47.12-5.78-10.97-7.25-24.04-15.13-34.32-1.88-2.45-2.53-6.04,.92-7.77,2.41-1.21,1.5-2.16,1-3.63-.59-1.72-1.94-3.8-1.43-5.15,1.77-4.68-1.44-7.3-3.5-10.45-1.36-2.08-2.8-4.12-4.13-6.22-1.11-1.76-2.02-4.2-.84-5.65,3.17-3.89-.09-5.29-2.19-7.3-2.43-2.33-5.15-4.15-8.38-5.2-6.32-2.07-12.18-5.19-18.01-8.31-5.47-2.93-9.68-7-10.76-13.52-.27-1.65-.78-3.26-2.61-3.93-11.91-4.31-18.04-14.83-25.28-23.99-4.89-6.19-8.7-13.19-7.83-21.72-7.82,1.97-10.19,.92-12.73-5.95-1.78-4.8-3.76-9.62-4.05-14.81-.15-2.67-.37-3.8-3.65-2.62-3.73,1.35-5.47-1.62-6.22-4.72-1.91-7.88-3.82-15.77-3.01-24.13-6.71,2.84-9.35,1.32-10.07-5.72-.37-3.63-.32-7.3-.5-10.96-.06-1.24,.41-2.7-1.69-2.95-3.98-.47-3.8-3.29-3.54-6.34,.55-6.46,1.02-12.93,.32-19.42-.34-3.19,.07-6.4-4.18-7.71-1.89-.58-2.15-3.17-2.46-5.17-.46-2.96-.69-5.98-1.43-8.86-.7-2.72-3.19-5.74-5.46-4.7-4.37,2.01-6.42,.08-8.68-3.22-2.86,4.31-6.95,4.68-11.26,4.38-5.21-.36-10.16-1.58-14.67-4.32-1.1-.67-2.14-1.87-3.59-1.07-3.08,1.69-5.75,.46-8.5-.87-.87-.42-1.99-1.84-2.9-.12-2.46,4.64-7.07,4.47-11.27,4.99-7.5,.94-15.33-1.77-22.6,2.61-2.41,1.45-6.63-.73-7.96,3.76-.18,.6-2.05,.78-3.16,1.02-1.82,.39-3.66,.66-5.79,1.04,2.57,2.76,5.57,4.72,6.67,7.44,2.21,5.41,6.74,6.73,11.4,8.36,6.11,2.14,11.93,4.7,17.14,8.81,18.16,14.31,20.95,35.71,26.27,55.97,.4,1.51-.24,3.1-1.81,3.75-1.44,.59-3.04,.51-4.11-.84-.39-.49-.8-.91-1.24-1.29-1.32-1.12-2.89-1.76-4.68-2.04h0c-.3,.28-.6,.56-.9,.83,1.08,4.48-.89,6.62-5.46,6.74,.8,2.77,2.41,4.87,3.84,7.09,2.81,4.36,5.03,8.98,5.45,14.23,.27,3.4-.42,5.71-4.63,6.87-2.61,.72,1.51,6.39-2.63,7.69-3.23,1.01-2.01,2.65-1.51,4.59,1.22,4.66-.4,7.22-5.12,8.3-.87,.2-2.17-.35-2.09,1.27,.23,4.81-3.66,5.8-6.85,7.42-.97,.49-2.85,.62-2.24,2.02,2.78,6.35-2.56,7.67-6.06,9.97-2.98,1.96-6.67,2.84-9.08,5.96,5.05,.62,5.64,3.55,4.38,7.56-1.56,4.96-4.95,8.54-9.65,10.03-6.01,1.9-10.27,5.75-14.53,10.01-3.36,3.36-7.18,6.26-10.81,9.38,2.64,1.09,4.6-.91,6.84-1.64,2.3-.74,4.71-1.41,6.3,1.01,1.53,2.33,.39,4.52-1.35,6.26-1.87,1.87-3.85,3.66-5.9,5.33-5.71,4.64-10.88,9.75-14.76,16.06-.77,1.26-1.95,2.44-1.54,4.06,1.19,4.69-.97,8.34-3.37,12.03-1.6,2.47-3.16,5.01-3.68,8,6.44,.73,7.11,1.75,5.88,8.71-.34,1.93-1.13,3.81-.56,5.84,5.58-1.29,7.37,.21,6.86,5.8-.13,1.47-.64,2.91-.87,4.37-.72,4.49-2.98,8.64-3.24,13.63,2.44-2.07,4.49-3.97,6.72-5.63,1.74-1.3,3.78-1.27,5.61-.12,1.58,.99,2.01,2.7,1.62,4.41-.35,1.54-.69,3.08-1.05,4.61-2.5,10.73-5.74,21.06-16.7,27.05,.03,.02,.05,.06,.07,.1,.3,.21,.59,.42,.89,.64-.11,.07-.19,.11-.27,.14,.89,.51,1.83-.58,2.55-.86,2.27-.89,4.65-1.72,6.55,.06,2.12,1.99,1.08,4.51,.28,6.96-2.73,8.42-5.17,16.97-14.81,20.37-.59,.21-1.08,.78-1.53,1.26-.53,.58-1.1,1,.02,1.86,3.19,2.46,1.62,5.35,.3,8.05-3.37,6.84-8.01,12.99-10.88,20.1-6.75,16.7-25.69,23.51-43.93,19.65-1.4-.3-2.75-1.05-3.16-2.21-1.27-3.62-3.69-2.59-6.35-2.24-3.91,.51-8.79,1.66-11.14-2.05-2.24-3.53-5.24-5.33-8.45-7.27-3.43-2.08-5.97-5.09-6.99-8.79-3.92-14.14-11.38-26.74-16.95-40.11-11.45-27.5-19.99-55.99-15.23-86.56,.33-10.37,.66-20.74,.99-31.1-.38-2.37-.63-4.79-2.2-7.04-.22-.32-.48-.64-.76-.95-1.49,5.47-2.78,10.57-4.29,15.61-.77,2.55-1.82,5.66-4.83,5.73-4.29,.1-4.19,2.26-3.73,5.32,.24,1.63-.09,3.34,.06,4.99,.57,5.86-3.95,11.31-1.29,17.39,.5,1.15-.68,2.48-1.57,3.51-3.65,4.19-6.12,9.53-12.59,11.59,3.89,2.45,5.72,4.85,2.91,8.38-.43,.54-.52,1.08-.28,1.81,1.54,4.7-.65,7.51-4.75,9.51-2.25,1.1-6.17,9.7-5.1,11.18,1.67,2.31,1.06,4.06-.13,6.36-2.37,4.57-1.3,9.29,2.31,9.96Zm268.02,303.1c-1.46,21.23-3.03,42.44-6.82,63.41-.27,1.48-.38,3-1.36,4.21-1.11,1.37-2.5,2.29-4.34,1.57-1.82-.71-2.51-2.27-2.13-4.05,6.37-30.04,6.69-60.73,9.8-91.12,.56-5.45,1.51-10.87,2.3-16.3,.35-2.39,.84-4.9,4.09-4.45,2.98,.41,2.61,2.96,2.78,5.75-2.16,13.15-3.38,27.05-4.33,40.98Zm-15.63-282.18c5.12-.47,10.21-1.33,15.34-1.78,2.29-.2,2.8-.97,2.15-3.09-3.13-10.25-1.96-20.42,1.17-30.4,2.56-8.17,4.19-16.44,3.53-24.99-.76-9.79,1.22-18.87,6.72-26.99,2.42-3.58,1.74-6.45-.85-9.3-6.76-7.42-6.88-15.35-2.98-24.32,10.83-24.92,31.69-36.3,56.41-42.66,2.38-.61,4.96-.47,7.11-.66,15.6,.58,28.6,5.24,38.92,17.51,8.18,9.72,16.45,19.02,20.34,31.46,2.42,7.73,2.09,14.79-1.91,21.98-1.55,2.79,.47,6.45,1.07,9.46,3.08,15.24,4.36,30.58,4.58,46.08,.07,4.96,1.81,9.75,2.35,14.73,.97,9.03,1.08,17.9-1.71,26.62-.89,2.77-.78,4.46,2.78,4.59,2.15,.08,3.89,1.31,3.68,3.83-.23,2.86-2.38,3.37-4.7,3.24-2.65-.15-5.45-.28-7.68-1.82-8.2-5.64-17.71-5.17-26.42-3.82-28.01,4.34-55.67,2.96-83.34-2.23-6.05-1.13-12.24-1.79-18.35-.4-5.97,1.36-11.85-.17-17.78-.1-2.14,.03-4.12-.86-4.24-3.32-.12-2.39,1.39-3.39,3.8-3.61Zm-28.92,63.26c2.07-1.03,3.38,.28,4.89,2.04,6.53,7.64,15.52,11.79,24.42,15.76,20.75,9.24,42.53,9.63,64.54,6.33,9.83-1.47,19.75-2.62,29.14-6.27,2.16-.84,4.94-1.26,5.98,1.66,1.16,3.26-1.47,4.35-3.91,5.16-17.5,5.86-35.66,7.53-47.89,8.25-30.43,.41-52.49-6.57-72.23-20.89-2.44-1.77-4.94-3.52-6.16-6.36-.88-2.04-1.22-4.46,1.22-5.68Zm-113.65,26.6c.09-1.59,.6-2.99,2.38-3.38,1.91-.41,3.23,.43,3.94,2.19,9.47,23.44,17.31,47.32,19.98,72.63,1.13,10.76,1.64,21.54,2.05,32.45-.41,19.04-3.08,37.98-5.22,56.97-.07,.65-.37,1.27-.52,1.92-.55,2.4-1.84,4.07-4.5,3.47-2.8-.63-2.68-2.87-2.4-5.18,1.56-13.03,3.4-26.05,4.49-39.12,2.33-27.87-.08-55.39-7.25-82.47-2.8-10.58-6.24-20.93-10.7-30.93-1.22-2.73-2.41-5.48-2.24-8.57Z"/>
      <path class="cls-3" d="M376.31,282.88s0,0,.01,0c.53-2.99,2.08-5.53,3.68-8-1.6,2.47-3.16,5.01-3.7,8Z"/>
      <path class="cls-3" d="M461.67,111.81h0c1.79,.28,3.35,.92,4.68,2.04-1.32-1.12-2.89-1.76-4.68-2.04h0s0,0,0,0Z"/>
      <polygon class="cls-3" points="380.59 351.56 380.56 351.58 380.59 351.56 380.59 351.56"/>
      <path class="cls-3" d="M376.3,282.93s0-.04,.01-.05c-.06,0-.11-.01-.17-.02,0,0,.02,0,.04,.02l.12,.05Z"/>
      <path class="cls-3" d="M252.55,249.53c-.38-2.37-.63-4.79-2.2-7.04,1.57,2.25,1.82,4.67,2.2,7.04,0,0,0,0,0,0Z"/>
      <path class="cls-3" d="M380.67,351.66s-.04-.07-.07-.1c10.96-5.99,14.2-16.32,16.7-27.05-2.5,10.73-5.74,21.06-16.7,27.05,.03,.02,.05,.06,.07,.09,0,0,0,0,0,0Z"/>
      <path class="cls-4" d="M187.16,102c16.15-20.69,37.16-36.12,59.05-50.04,11.26-7.16,23.99-12.1,36.26-17.59,11.76-5.26,24.05-8.75,37.16-8.06,3.14,.16,6.38,.27,9.06,2.24,1.62,1.19,2.32,2.93,1.47,4.85-.8,1.79-2.44,2.28-4.2,1.63-9.67-3.59-19.01-1.03-28.31,1.51-13.58,3.7-25.31,11.59-38.14,16.97-10.56,4.42-19.92,10.52-28.6,17.89-6.33,5.39-12.92,10.47-19.38,15.71-2.57,2.08-5.1,4.21-7.49,6.45-4,3.74-7.64,7.82-10.57,12.58l.22,.18c.07,.06,.13,.11,.13,.11,5.69-1.75,10.19-5.48,14.85-8.92,6.28-4.64,12.18-9.88,19.33-13.19,17.47-8.11,35.41-15.09,53.87-20.58,7.1-2.11,14.57-3.63,21.83,.16,1.67,.87,2.25-.92,3.19-1.67,4.55-3.62,7.73-8.76,12.89-11.71,2.07-1.18,4.45-2.55,6.21,0,1.88,2.7,.03,4.45-2.28,6.04-5.65,3.89-10.92,8.6-14.46,14.26-8.64,13.81-18.85,26.57-26.73,40.85-1.92,3.47-4.57,5.97-8.47,6.16-3.75,.19-3.9,2.15-3.51,4.91,.34,2.47,.65,4.94,.96,7.41,.28,2.24,.22,4.84-1.77,5.9-4.26,2.26-4.3,5.81-4.04,9.73,.16,2.39-1.07,4.43-1.75,6.62-.99,3.19-2.57,7.49-1.25,9.85,3.03,5.42,1.91,9.78-.69,14.51-.5,.92-1.81,2.24-.75,3.02,4.64,3.4,1.51,6.68,.16,10.05-1.04,2.61-2.11,5.22-2.92,7.9-.33,1.09-1.13,2.53,.72,3.43,3.93,1.92,2.82,5.28,1.93,8.25-1.71,5.71-3.78,11.32-5.58,17.01-1.4,4.44-2.49,8.74,1.29,12.93,1.53,1.7,2,4.52,2.55,6.92,2.61,11.42,1,22.81-.32,34.21-.79,6.9-2.64,13.63-2.05,20.75,1.25,15.16,6.01,29.55,9.18,44.29,1.79,8.32,4.88,16.26,9.27,23.52,4.67,7.73,8.69,15.74,11.2,24.35,2.56,8.77,5.12,17.24,14.75,20.89,.15,.06,.26,.21,.38,.32,5.35,4.8,6.75,4.98,13.28,1.77,4.46-2.2,6.14-1.29,6.8,3.91,.21,1.62,.3,2.94,2.28,3.21,12.04,1.62,24.65-2.03,30.79-11.95,3.81-6.15,6.24-13.1,10.41-19.35-2.56-.29-4.99,.54-6.14-2.13-1.06-2.45,.46-4.15,1.77-5.84,4.29-5.54,8.67-11,15.42-13.81,1.98-.83,3.17-2.39,3.87-4.31,.34-.94,.51-2.09-.25-2.84-.77-.76-1.88-.49-2.76,0-2.04,1.12-3.99,2.39-6.03,3.51-2.08,1.14-4.2,1.33-5.89-.63-1.6-1.86-.81-3.78,.4-5.49,2.68-3.81,5.47-7.54,8.13-11.35,.54-.78,2.29-1.66,.59-2.78-3.53-2.34-2.22-5.68-1.68-8.61,1.07-5.87,2.53-11.67,3.93-17.47,.39-1.62,1.53-3.16-1.52-3.32-3.38-.18-3.83-2.7-3.53-5.42,.14-1.32,.33-2.64,.53-3.95s.41-2.63,.6-3.95c-.31-.49-.67-.87-1.09-1.18-.7-.52-1.52-.82-2.42-1.02-1.42,.37-2.89,.84-4.21,.56-.79-.17-1.53-.61-2.16-1.5-1.53-2.15-.73-4.46,.25-6.62,2.99-6.63,6.18-13.18,8.96-19.89,1.29-3.13,4.59-5.74,4.06-9.14-.6-3.85,.89-6.74,2.23-9.9-.55-.91-1.43-1.73-1.44-2.79,0-.35,.09-.74,.33-1.16-4.39-.63-6.44-2.36-6.08-5.08,.04-.26,.09-.53,.17-.82,.15-.53,.39-1.1,.7-1.69s.71-1.22,1.19-1.88c2.35-3.25,5.15-6.09,8.19-8.71,6.55-5.65,13.09-11.31,19.52-17.1,.77-.7,3.33-1.5,1.16-3.31-3.33-2.79-1.7-5.2,.36-7.66,5.27-6.27,11.24-11.8,17.87-16.62,1.05-.77,2.82-2.49,2.76-2.57-4.32-5.39,1.1-7.15,3.67-9.92-4.15-2.84-5.03-5.46-1.98-7.55,5.57-3.8,11.11-8.01,18.4-8.08,1.26-.01,2.99,.79,3.69-.52,.88-1.67-1.25-2.43-1.9-3.68-.3-.58-.8-1.06-1.23-1.56-2.03-2.34-3.63-4.81-2.53-8.12,1.15-3.43,4.43-1.67,6.72-2.57-1.48-3.33-3.54-6.71-.9-9.93,2.58-3.16,5.39-.14,9,1.53-3.91-6.54-8.86-11.61-9.01-17.85-.15-6.56-2.14-12.1-4.3-18-1.26-3.46-2-8.48,2.18-10.88,4.22-2.43,6.22,2.37,9.32,4.4,.46-.62,.8-1.64,1.4-1.84,5.62-1.8,3.7-5.6,2.18-8.87-5.97-12.77-14.43-23.02-28.49-27.54-4.57-1.47-9.04-3.28-13.48-5.11-1.98-.82-4.77-2.03-4.48-4.19,.62-4.7-2.79-6.71-5.13-9.46-2.13-2.51-3.52-5.22-3.32-8.59-2.8-2.33-6.19-3.35-9.59-4.35-1.98,.86-4.08,1.65-6.15,1.52-.69-.04-1.38-.19-2.05-.47-4.28-1.78-7.78-2.76-12.48,.11-4.24,2.59-9.35,.4-13.66-2.18-3.14-1.89-6.17-4.99-9.74-.31-1.17,1.53-3.51,.96-5.22,.41-3.38-1.09-6.66-3.04-9.25,1.45-.66,1.15-2.42,1-3.7,.38-2.32-1.13-4.83-1.17-7.3-1.47-18.43-2.27-37-1.95-55.35-.47-25.89,2.08-51.85,2.08-77.72,4.24-25.09,2.09-49.92,5.17-73.68,14.03-5.63,2.1-10.96,4.79-15.67,8.57-9.35,7.53-9.56,17.83-8.59,28.48,3.07,12.9,4.27,26.03,4.09,39.25-.07,5.29-.58,10.57-1.04,15.83,.18,1.49,.39,2.98,.64,4.46,.04,.23-.4,.87-.86,.2-.07-.11-.09-.25-.12-.38,.9,11.89-.27,23.85,.96,35.79,.84,8.17,2.47,9.49,9.8,5.86,9.67-4.78,17.83-11.54,24.83-19.72,10.73-12.53,22.46-23.99,34.95-34.83,7.54-6.55,14.8-13.64,21.1-21.72Zm183.87,9.71c9.47-2.43,19.16-.33,27.43,4.62,11.22,6.72,22.54,13.49,32,22.74,2.61,2.55,4.94,5.39,7.36,8.13,2.23,2.52,2.43,5.03-.27,7.37-1.25,1.08-2.43,2.4-3.9,3.06-15.05,6.8-29.79,14.44-46.44,16.94-5.31,.8-10.61,.76-15.85,.62-17.08,2.16-30.01-5.31-41.03-17.35-1.52-1.66-2.14-3.3-1.55-5.41,.58-2.08,.86-4.33,1.86-6.18,9.03-16.67,21.48-29.69,40.39-34.55Z"/>
      <path class="cls-4" d="M372.21,307.72c.2-1.32,.41-2.63,.6-3.95h0s0,0,0,0c-.19,1.32-.4,2.63-.6,3.95Z"/>
      <path class="cls-4" d="M204.02,93.56c-4,3.74-7.64,7.82-10.57,12.58h0c2.92-4.76,6.57-8.84,10.57-12.58Z"/>
      <path class="cls-4" d="M371.41,245.23c-.08,.28-.14,.55-.17,.82,.04-.26,.09-.53,.17-.82Z"/>
      <path class="cls-4" d="M95.51,136.56s0,.04,0,.06c.03,.14,.05,.28,.12,.38-.09-.13-.1-.32-.13-.44Z"/>
      <path class="cls-4" d="M527.45,34.39c3.7,.77,4.22,3.48,4.59,6.26,.58,4.28,.8,8.6,1.24,12.9,.1,.98-.56,2.59,1.43,2.46,5.95-.38,4.93,3.63,4.29,7.07-1.32,7.19-2.24,14.35-.43,22.25,1.59-2.06,2.9-3.7,4.14-5.39,1.71-2.32,3.51-5.1,6.81-3.44,3.15,1.58,1.74,4.5,1.05,7.08-2.59,9.64-3.08,19.29-.03,29.48,1.16-1.67,2.03-3.05,3.02-4.34,1.51-1.97,2.98-4.44,6.02-3.17,2.89,1.21,2.67,3.76,2.26,6.4-1.31,8.34-.89,16.5,2.26,24.5,2.14,5.44,1.93,5.57,6.88,2.35,1.74-1.13,3.44-2.21,5.53-1.2,2.23,1.08,1.95,3.27,2,5.24,.09,3.96-1.36,8.12,.53,11.84,6.5,12.85,14.14,24.81,27.56,31.63,3.94,2,6.91,4.8,7.32,9.26,.36,3.85,2.68,6.11,5.49,7.83,3.95,2.42,8.02,5.05,12.4,6.29,10.94,3.09,18.72,10.47,26.54,17.94,1.69,1.61,3.47,3.29,2.78,6-.72,2.83-3.32,2.59-5.7,2.75,2.37,5.05,5.94,8.48,9.58,11.89,2.21,2.07,4.1,5.39,1.27,7.26-4.1,2.71-1.69,4.13-.03,6.22,1.44,1.82,2.8,3.71,4.13,5.62,1.33,1.92,2.67,3.82,1.89,6.42-.88,2.93-3.75,1.77-5.65,2.48,1.4,3.95,2.64,7.56,3.96,11.14,3.46,9.42,5.58,19.43,13.47,26.74,2.44,2.26,3.71,5.73,0,8.63-1.35,1.06-.45,2.45-.36,3.71,.87,11.6,5.23,22.66,5.38,34.39,.02,1.53,.91,4.38,2.42,2.96,1.53-1.43,6.86,1.31,4.88-4.28-1.28-3.62-1.3-7.47,4-8.36,.47-.08,1.32-.4,1.32-.41-1.22-4.26,4.15-5.89,3.82-9.99-.33-4.09,3.11-8,2.91-11.43-.27-4.68,3.82-8.41,1.83-13.06-.17-.4,.69-1.63,1.32-1.91,2.36-1.06,1.77-2.96,1.48-4.69-.44-2.62-1.12-5.19-1.65-7.79-.43-2.08-.43-4.5,1.81-5.14,3.21-.92,2.93-2.58,2.35-5.09-.78-3.39-1.15-6.89-1.6-10.35-.24-1.81-.64-4.1,1.13-5.06,3.29-1.79,1.77-3.55,.55-5.56-1.25-2.07-.46-12.7,1.11-14.38,.53-.57,1.42-1.18,2.13-1.15,3.74,.13,4.02-1.28,2.09-4.05-.44-.63-.92-1.81-.64-2.29,3.19-5.36-1.06-8.41-3.6-11.98-.87-1.23-2.13-2.5-1.63-4.01,1.01-3.04-.7-5-2.2-7.2-2.97-4.35-5.05-9.83-2-13.99,2.96-4.04,2.64-8.12,3.62-12.26,1.69-7.17,.32-13.76-3.01-20.21-8.82-17.11-15.55-35.17-23.48-52.68-6.15-13.59-13.15-26.72-23.37-37.83-1.48-1.61-1.23-3.35,.06-4.97,1.28-1.6,2.89-3.45,5-2.02,5.98,4.05,13.23,6.45,17.23,13.13,7.67,12.79,16.73,24.81,21.43,39.24,1.34,4.12,3.61,7.8,5.82,11.53,10.55,17.83,22.21,34.99,28.81,55.01,3.66,11.08,8.96,21.74,17.28,32.19-.21-8.45,.17-15.62-1.8-22.54-7.48-26.33-18.48-51.08-32.96-74.35-7.06-11.35-17.34-20.33-23.58-32.13-6.69-12.66-16.26-23.06-24.95-34.18-2.96-3.78-6.94-5.62-11.52-6.28-3.83-.55-8.52,.35-8.29-5.9,.01-.35-.96-.73-1.46-1.12-3.23-2.56-6.62-4.57-10.88-5.2-2.9-.42-5.29-2.37-5.81-5.48-.5-2.93-2.44-4.06-4.81-5.06-5.9-2.48-12.92-1.73-18.12-6.29-.27-.24-.98-.08-1.46,.03-2.93,.68-5.48-.59-8.22-1.25-9.2-2.23-18.32-5.97-28.05-2-2.34,.95-5.28,.99-6.75-1.57-1.36-2.36-2.52-1.83-4.29-.82-2.65,1.5-5.77,3.01-8.44,1.09-2.31-1.66-4.01-1.48-6.27-.51-4.54,1.95-8.44,1.2-11.34-3.08-.59-.87-.9-2.52-2.48-1.22-5.33,4.39-9.77,3.09-13.48-2.71-1.23,4.69-.1,11.71,2.08,12.16Zm62.78,118.55c6.97-8.64,12.72-18.4,22.15-24.87,8.12-5.58,16.33-11.14,26.69-11.15,13.26-.01,23.26,5.94,29.88,17.41,1.4,2.43,2.35,5.12,3.52,7.69,6.32,13.88,.01,24.86-11.66,30.99-6.13,3.22-12.8,4.53-17.46,4.36-13.08-.69-23.2-3.38-32.64-8.83-5.74-3.32-11.8-6.09-17.75-9.02-2.93-1.44-5.09-3.65-2.73-6.58Z"/>
      <path class="cls-4" d="M212.73,418.15c-5.77-4.65-10.35-5.25-6.01-11.49,4.02-5.78,5.51-12.91,4.12-20.44-1.3,1.81-2.71,3.27-3.53,5-4.98,10.52-12.35,19.18-20.42,27.44-3.74,3.83-8.32,7.76-6.45,14.39,.22,.79-.59,1.85-.9,2.8-4.03,12.17-7.58,24.63-8.54,37.31-2.3,30.41,3.26,59.78,13.82,88.37,5.88,15.9,15.38,29.75,23.6,44.32,6.84,12.13,13.75,24.35,22.89,34.98,5.88,6.83,11.43,13.86,16.02,21.61,2.81,4.75,6.1,9.13,9.9,13.11,4.27,4.48,7.95,9.41,11.1,14.71,1.97,3.31,4.19,6.35,7.03,8.94,10.19,18.31,18.14,21.64,27.89,30.56,.54,.36,5.16,3.44,5.7,3.79h0c.99,1.29,2.13,2.4,3.35,3.4,.61,.5,1.24,.98,1.89,1.44,.97,.69,1.96,1.35,2.95,2.02,2.32,1.54,4.62,3.1,6.56,5.11,3.09,3.21,5.8,2.32,8.12-1.03,6.79-9.81,15.45-18.13,22.31-27.91,2.6-3.7,6.96-7.82,10.97-6.77,6.72,1.77,12.24-2.2,18.45-1.65,3.13,.28,2.48-1.65,1.43-3.4-4.9-8.12-10.65-10.61-20.05-8.73-.49,.1-.97,.25-1.46,.3-2.19,.24-4.09-.38-4.88-2.55-.83-2.27,.46-3.82,2.39-4.86,1.02-.55,2.06-1.11,3.15-1.47,4.41-1.47,2.85-3.56,.31-5.11-4.59-2.81-8.56-6.29-12.39-9.99-3.74-3.61-4.89-9.68-12.46-9.71-2.73,0-4.86-.33-6.91,1.34-2.93,2.4-4.56,6.09-8.03,8.15,2.67,2.06,5.91,3.37,7.54,6.47,4.75,9.04,7.06,18.63,5.57,28.81-1.06,7.24-4.92,10.03-12.32,10.4-7.08,.35-12.62-2.69-18.15-6.71-8.37-6.09-11.83-14.07-10.78-24.11,.83-7.96,6.46-14,15.61-15.61,5.63-.99,8.2-2.69,9.98-7.91,1.36-3.97,4.47-7.32,6.78-10.97,.53-.84,.97-1.84,.24-2.72-.82-.99-1.77-.37-2.67,.07-2.53,1.23-4.99,2.67-7.64,3.56-2.59,.88-5.61,.39-5.95-2.67-.39-3.52-1.97-2.55-4.13-2.35-3.18,.29-7.83,1.26-8-3.31-.17-4.32-1.96-3.85-4.69-3.55-1.31,.15-2.67,.13-3.99,0-2.74-.28-5.46-.82-5.71-4.31-.26-3.71,2.55-4.21,5.26-4.6,3.45-.5,6.94-.77,10.19-2.19,3.99-.41,9.88-3.06,12.1-6.88-1.56-2.15-7.62-8.21-9.18-10.36-1.56-2.15-3.12-4.3-4.65-6.46-15.66-22.06-32.27-43.54-42.11-69.15-.53-1.37-1.38-2.67-2.28-3.85-4.9-6.36-8.71-13.36-11.91-20.67-2.8-6.38-6.62-12.26-8.98-18.87-1.28-3.59-4.4-3.97-6.4-1.07-1.3,1.88-2.76,3.45-5.29,2.9-2.54-.55-3.27-2.62-3.56-4.86-.43-3.3-.7-6.61-1.14-9.91-.34-2.54,.67-5.92-3.81-6.08-.99-.04-2.2-1.5-1.96-2.62,1.16-5.21-1.66-9.82-2.04-14.53-.55-6.84-.13-13.74-2.3-20.41m35.66,189.06c-.02-10.72,4.13-17.36,10.73-22.42,4.55-3.48,9.69-2.98,14.5,0,10.91,6.74,16.64,25.6,11.45,37.3-2.57,5.79-6.57,9.64-13.18,9.8-6.58,.16-12.33-1.35-16.33-7.46-3.88-5.94-7.5-11.79-7.18-17.21Z"/>
      <path class="cls-4" d="M317.13,740.42c-.99-.66-1.99-1.32-2.95-2.02,.97,.69,1.96,1.35,2.95,2.02Z"/>
      <path class="cls-4" d="M308.94,733.56h0c.99,1.29,2.13,2.4,3.35,3.4-1.22-1.01-2.36-2.11-3.35-3.4Z"/>
      <path class="cls-4" d="M309.4,619.65c-1.56-2.15-3.12-4.29-4.69-6.44,1.56,2.15,3.13,4.29,4.69,6.44h0Z"/>
      <path class="cls-4" d="M763.42,199.74c4.95,13.65,4.03,28.2,6.09,42.27,.92,6.28,3.49,10.97,6.11,16.03,1.38,2.65,4.62,3.13,7.37,2.83,2.68-.29,2.6-3.09,3.12-5.09,.5-1.92,.71-3.92,1.11-5.87,4.09-19.92,10.15-39.16,20.54-56.77,3.07-5.21,5.21-10.69,7.03-16.4,5.69-17.78,6.49-35.93,3.56-54.2-.92-5.71-2.37-11.82-9.37-14.08-17.62-5.69-35.43-10.73-53.37-15.25-9.72-2.45-19.92-1.38-29.76-2.88-10.17-1.55-21.3-1.22-28.68-10.6-.4-.51-1.05-.78-2-.3,9.81,14.94,19.39,29.83,30.35,43.88,17.76,22.77,28.13,49.51,37.9,76.41Z"/>
      <path class="cls-4" d="M249.26,225.22c.03-7.17,6.59-12.41,1.06-18.86-.57-.67-.24-2.29-.03-3.41,.61-3.25,1.48-6.46,2.05-9.72,.47-2.66,3.47-5.43-.67-8.01-1.23-.76-.6-3.13,.2-4.68,1.06-2.07,2.05-4.2,3.33-6.13,2.65-4.01,2.85-7.44-1.27-10.75-2.63-2.11-2.34-4.18-.61-7.63,2.48-4.94,7.28-9.48,5.39-16.15-.7-2.47,.19-5.29,2.63-6.51,3.08-1.55,3.22-3.62,2.57-6.5-.47-2.08-.47-4.29-.57-6.45-.25-5.75,1.72-8.21,7.39-9.26,1.95-.36,4.08-.33,5.18-2.41,6.01-11.34,14.22-21.24,20.97-32.09,1.32-2.12,4.43-4.72,2.88-6.75-1.45-1.89-5.19-1.21-8.03-.87-9.35,1.12-17.89,4.87-26.62,8.01-19.56,7.04-38.96,14.33-54.93,28.39-4.37,3.84-9.67,6.44-14.93,8.94-14.34,6.83-26.64,16.55-38.25,27.21-7.38,6.77-7.27,6.88-2,15.75,.26,.24,.38,.52,.39,.83,.03-.03,.12-.15,.12-.15,.52,.21,1.24,.25,1.01,1.11,3.79,.61,6.34,3.52,9.53,5.23,4.44,2.38,8.69,5.12,13.74,6.08,1.48,.12,2.96,.36,4.45,.35,11.96-.14,22.55,3.44,31.58,11.39,6.12,5.39,12.18,10.83,18.34,16.16,4.58,3.96,7.39,8.79,8.55,14.77,.81,4.16,2.98,7.74,6.54,12.11Z"/>
      <path class="cls-4" d="M155.4,158.2s.12-.17,.12-.17c0,0-.1,.12-.12,.15,0,0,0,.01,0,.02Z"/>
      <path class="cls-4" d="M378,778c-5.41,1.12-10.8,1.01-16.39-.75,2.7,4.67,4.64,6.87,8.51,9.81,8.37,3.36,16.95,6.3,24.46,11.47,1.06,.73,2.75,1.07,2.78,2.85,.86-.12,1.57,.08,1.99,.94h0c9.91,5.1,20.13,9.13,31.06,10.86,2.52,.4,5.08,.68,7.68,.82,2.93,.16,5.35-.42,7.69-2.54,6.42-5.81,11.15-13.18,17.93-18.67,6.16-4.99,10.14-11.75,13.79-18.72,1.36-2.6,.84-4.3-1.24-6.04-3.45-2.89-7.04-5.54-11.08-7.57-17.75-8.92-35.56-17.73-55.23-21.68-7.65-1.53-13.49-6.46-20.32-9.49-2.11-.94-5.49-1.59-5.98-.34-1,2.53-2.31,5.06-2.88,7.79-.04,.17,.66,.53,1.04,.76,8.24,5,10.28,13.14,10.42,21.84,.14,8.97-6.34,17.02-14.24,18.66Zm36.2,13.13c5.02-10.94,15.14-13.15,25.64-13.88,11.06-.77,17.59,8.58,13.31,18.77-2.52,6.02-8.26,7.8-13.96,9.23-.34,.09-.68,.16-1.03,.23-2.41,.48-4.91,.54-7.39,.13-2.71,.09-5.22-.12-7.63-.82-2.11-.61-4.14-1.6-6.15-3.1-.29-.21-.57-.44-.86-.67-4.11-3.37-3.54-6.42-1.94-9.9Z"/>
      <path class="cls-4" d="M399.36,802.32h0c9.91,5.1,20.13,9.13,31.06,10.86-10.92-1.74-21.15-5.76-31.06-10.86h0Z"/>
      <path class="cls-4" d="M521.67,908.48c.16-3.49,.48-6.96,0-10.43-.21-1.52-.59-3.12-2.34-3.43-1.95-.34-1.74,1.58-2.27,2.65-4.29,8.71-5.65,7.86-14.05,5.09-2.29-.76-2.57-.14-3.43,1.45-3.88,7.24-8.75,9.63-16.78,8.44-6.57-.97-9.77,1.58-9.66,8.49,.13,7.73,2.81,15.18,8.69,19.87,11.7,9.33,15.14,21.71,15.67,35.57,.23,6.14-.29,12.3-.15,18.44,.13,5.4,2.01,10.1,7.32,12.5,3.9,1.77,7.51,.43,10.63-1.99,1.21-.94,2.15-2.23,3.11-3.49,.32-.42,.63-.84,.98-1.23,1.91-2.15,4.67-4.1,6.06-4.58,2.6-.89,9.28-.25,14.24-3.34,2.72-1.69,4.64-4.6,5.77-9.29,.5-2.09-1.17-5.36-3.32-8.26-4.75-6.38-9.91-12.4-13.93-19.38-8.59-14.91-7.29-31-6.54-47.07Z"/>
      <path class="cls-4" d="M542.18,989.11h0c2.12-2.67,3.19-4.76,3.19-6.92,0,2.15-1.07,4.25-3.19,6.92h0Z"/>
      <path class="cls-4" d="M519.39,1000.41c-.34,.4-.66,.81-.98,1.23,.32-.42,.64-.84,.98-1.23h0s0,0,0,0Z"/>
      <path class="cls-3" d="M495.69,771.2c2.95-6.06,2.1-10.68-1.46-15.65-2.68-3.73-6.59-5.53-10.7-6.88-24.27-7.95-47.77-17.73-70.9-28.55-11.75-5.5-24.44-7.21-38.52-2.98,3.43,1.98,5.2,4.74,8.53,4.35,5.22-.61,9.73,1.1,14.23,3.5,4.96,2.65,10.11,4.98,15.56,6.48,19.39,5.35,37.79,13.13,55.63,22.35,5.2,2.69,9.94,6.02,14.19,10.03,3.55,3.34,4.44,7.34,2.4,11.76-3.5,7.59-7.82,14.72-13.95,20.46-5.84,5.46-11.33,11.2-16.59,17.23-4.29,4.92-9.4,8.44-16.74,7.55-5.11-.62-10.24-1.01-15.3-2.02-10.36-2.08-19.33-7.8-29.21-11.09-14.34-4.79-27.03-11.88-36.12-24.36-2.25-3.08-3.78-3.73-6.87-.26-3.32,3.71-5.22,9.03-10.55,10.88,5.2,3.57,12.02,3.85,17.14,7.5,10.4,7.4,22.39,11.47,33.75,16.85,16.87,8,35.49,9.37,53.38,13.49,1.7,.39,3.49,.04,4.73-1.03,5.16-4.44,10.56-8.63,14.63-14.21,4.29-5.88,8.25-12.1,13.2-17.37,7.93-8.44,14.44-17.58,19.53-28.03Z"/>
      <path class="cls-4" d="M517.35,739.46c-1.23,.59-1.06-.33-1.1-1.03-.43-.33-.85-.65-1.28-.98-1.63-1.84-3.33-3.63-4.88-5.55-1.08-1.34-2.35-2.05-3.85-1.16-7.59,4.5-15.67,7.67-24.91,8.99,1.81,1.54,3.21,1.93,4.76,1.88,3.46-.24,6.98-.63,8.19,3.83,.75-.1,.99,.38,1.08,1.03h0s0,0,0,0l-.11-.03s.08,.05,.11,.08c.82,.58,1.64,1.16,2.47,1.75,5.57,6.7,8.26,13.63,6.43,21.01-.35,1.39-.84,2.79-1.52,4.22-.61,1.28-1.36,2.58-2.26,3.89-2.71,3.95-1.16,5.78,3.31,6.13,9.15,.72,15.26,10.58,9.92,19.97,2.5-.28,4.66-.84,6.63-2.09,2.13-4.31,6.47-2.34,9.74-3.43,1.02-.5,2.26-.67,3.07-1.48,.13-.13,.26-.29,.36-.46,.11-.17,.2-.37,.27-.6,3.53-6.95,3.04-14.37,2.54-21.78,0,0,0,0,0,0l.08-.32-.29-.14s.01,.05,.02,.08h0s0,0,0,0c0,0-.3-.22-.3-.22l.27,.14h0c-1.68-7.5-3.68-14.86-7.32-21.54-.42-.78-.86-1.55-1.33-2.3-1.04-1.68-2.2-3.31-3.51-4.88-4.43-.42-5.27-1.04-6.64-5Z"/>
      <polygon class="cls-4" points="536.15 773.26 536.15 773.25 536.13 773.18 536.15 773.26"/>
      <path class="cls-4" d="M536.15,773.25h0s-.01-.04-.02-.07h0s.01,.04,.02,.07Z"/>
      <polygon class="cls-4" points="495.37 746.47 495.27 746.44 495.27 746.44 495.37 746.47 495.37 746.47"/>
      <path class="cls-4" d="M510.1,731.9c1.54,1.91,3.24,3.71,4.88,5.55,.43,.33,.85,.65,1.28,.98h0c-.42-.32-.84-.65-1.27-.97-1.64-1.85-3.34-3.64-4.88-5.55Z"/>
      <polygon class="cls-4" points="536.35 773.64 536.35 773.64 536.43 773.32 536.35 773.64 536.35 773.64"/>
      <path class="cls-4" d="M536.13,773.18l.02,.07s-.01-.04-.02-.07h0Z"/>
      <path class="cls-4" d="M497.85,748.26c-.82-.58-1.64-1.16-2.47-1.75,.82,.58,1.64,1.17,2.47,1.75,5.57,6.7,8.26,13.63,6.43,21.01,1.83-7.37-.86-14.31-6.43-21.01Z"/>
      <path class="cls-4" d="M527.49,749.34c.47,.76,.9,1.53,1.33,2.3-.42-.78-.86-1.55-1.33-2.3Z"/>
      <path class="cls-4" d="M533.53,796.02c-.11,.17-.23,.33-.36,.46,.13-.13,.26-.29,.36-.46Z"/>
      <path class="cls-3" d="M544.62,742.63c-2.26,.19-2.95-1.62-4.01-3.14-3.05-4.4-5.16-9.26-7.37-14.08-1.52-3.3-3.71-6.07-7.66-6.34-4.1-.28-9.5-1.03-11.36,2.76-1.87,3.81,2.06,7.56,5.41,9.62,11.36,6.99,16.92,17.82,20.97,29.87,6.13,18.23,6.99,36.39-.26,54.53-3.34,8.36-8.39,14.33-18.55,13.06-.65-.08-1.35-.09-1.98,.06-3.35,.84-4.74,3.48-5.41,6.47-.7,3.17,2.21,3.39,4.07,4.57,3.99,2.54,8.03,.9,12.06,.48,11.94-1.22,22.02-10.92,23.79-22.93,.93-6.25,1.88-12.51,1.59-18.88-.26-18.25-4.23-35.87-9.11-53.34-.29-1.03-.07-2.89-2.19-2.71Z"/>
      <path class="cls-3" d="M352.38,766.72c1.39-2.78,1.46-4.77-.78-7.41-4.49-5.29-3.31-9.99,2.51-13.68,4.42-2.8,8.19-1.48,11.95,1.6-.12-6.99,6.67-10.19,8.5-16.33-7.02,.03-12.16-2.69-15.27-9.11-4.54,5.73-8.29,11.3-12.88,16.06-5.64,5.84-10.11,12.27-13.37,19.64-2.9,6.55-6.27,12.81-11.26,18.08-2.43,2.56-2.14,5.11,.55,7.28,4.35,3.49,8.74,6.94,14.16,9.42-.14-5.36,3.54-8.36,6.46-11.6,3.82-4.25,6.9-8.86,9.43-13.95Z"/>
      <path class="cls-3" d="M304.31,685.31c-2.54,5.39-.04,16.03,5,18.27,2.65,1.18,4.43,2.91,6.56,4.56,3.51,2.7,7.89,3.73,12.2,2.08,3.81-1.46,2.62-5.24,2.99-8.21-.17-5.87-1.39-11.45-3.53-16.9-1.26-3.2-3.43-5.15-6.48-6.35-6.29-2.48-13.89,.5-16.75,6.55Zm24.27,12.09c.07,2.92-1.3,4.75-4.06,5.41-1.91,.46-3.9,.6-7.11,1.06-4.16,.77-6.69-2.77-8.5-6.81-2.19-4.88-.88-10.71,2.47-13.19,1.56-1.15,3.29-1.55,5.16-1.15,4.54,.97,11.92,10.06,12.04,14.68Z"/>
      <path class="cls-4" d="M705.57,146.41c3.33,9.51,6.11,19.05,11.14,27.7,3.36,5.78,5.68,11.93,5.74,18.83,.03,3.4-2.86,7.91-.3,9.71,2.32,1.63,6.3-2.05,9.72-2.41,2.77-.29,2.22-1.26,1.66-3.16-5.62-18.97-18.47-33.94-27.96-50.67Z"/>
      <path class="cls-3" d="M529.33,820.56c3.6-4.59,6.04-9.78,7.2-16.36-11.14,3.56-21.79,6.33-32.75,11.17,2.4,.76,2.22,3.49,5.33,2.66,5.09-1.36,10.22,.71,13.95,3.53,3.43,2.58,4.71,1,6.27-.99Z"/>
      <path class="cls-4" d="M536.86,717.66c2.95,3.88,4.18,8.62,6.65,12.7,2.12,3.51,4.45,3.13,6.43-.72,3.77-7.3,5.3-15.2,6.46-24.16-6.29,4.05-12.02,7.28-18.07,9.92-1,.44-2.67,.69-1.47,2.26Z"/>
      <path class="cls-3" d="M512.57,828.08c.56-.71,2.41-1.43,1.07-2.58-1.16-1-2.68-.82-3.75,.77-2.53,3.75-4.57,7.73-5.51,12.14-2.52,11.7-3.92,23.56-4.72,35.48-.28,4.26-.32,8.61,1.87,12.84,2.45-1.65,5.44-2.4,4.36-6.46-2.27-8.6-2.17-17.44-1.95-26.25,.24-9.49,2.65-18.32,8.63-25.95Z"/>
      <path class="cls-3" d="M524.94,848.53c-2.39-.35-3.31,.99-3.69,3.45-1.35,8.67-3.33,17.23-6.95,25.25-1.95,4.34-.88,7,3.35,9.07,5.62-10.62,7.61-22.1,8.42-33.84,.09-1.3,1.59-3.53-1.14-3.93Z"/>
      <path class="cls-3" d="M501.73,826.37c.92-2.22,.74-3.09-.87-4.74-3.29-3.38-6.81-4.61-11.34-3.04-1.7,.59-3.55,.73-5.6,1.12,2.46,5.76,3.57,6.23,9.73,9.55,4.4,2.37,6.28,1.48,8.09-2.89Z"/>
      <path class="cls-3" d="M92.81,77.26c.53,10.94,1,21.88,1.59,32.81,.4,7.43,.54,14.88,1.45,22.27,.46-5.27,.97-10.55,1.04-15.83,.18-13.22-1.02-26.34-4.09-39.25Z"/>
      <path class="cls-3" d="M96.5,136.8c-.26-1.48-.46-2.97-.64-4.46-.12,1.41-.24,2.82-.35,4.23,.03,.13,.04,.31,.13,.44,.46,.66,.9,.02,.86-.2Z"/>
      <path class="cls-3" d="M494.07,794.05c4.51-1.28,8.32,.04,10.09,4.48,.72,1.82,1.26,1.34,2.25,.83,1.58-.8,2.69-1.93,2.35-3.91-.53-3.08-2.68-4.84-5.48-4.88-5.78-.09-11.39-.43-15.26,6.03-2.44,4.08-2.69,5.35,2.15,6.1-.65-3.78-.9-7.29,3.9-8.65Z"/>
      <path class="cls-3" d="M375.51,743.25c-1.27,1.75,1.95,1.78,2.76,3,.54,.81,1.42,1.39,2.04,2.15,4.29,5.25,4.59,12.06,.8,16.88-3.77,4.78-8.75,5.59-15.49,2.62-.85-.37-1.89-.31-3.11-.48,4.6,4.85,14.53,5.56,18.52,1.57,5.71-5.71,5.17-19.21-1.1-24.29-1.23-1-3.18-3.18-4.43-1.44Z"/>
      <path class="cls-3" d="M357.02,752.28c-.8,.65-.72,1.36-.43,2.19,1.61,4.62,14.27,9.12,19.1,6.28-5.75-2.4-10.94-5.17-15.54-8.91-1.07-.87-2.15-.36-3.13,.44Z"/>
      <path class="cls-4" d="M484.72,808.29c-4.46-4.48-6.38-1.28-8.52,2.15-.5,.8-1.03,1.59-1.94,3,6.3-.19,11.76-1.11,17.45-2.39-2.54-.95-5.43-1.19-6.99-2.76Z"/>
      <path class="cls-3" d="M179.8,170.44c-5.05-.96-9.3-3.7-13.74-6.08-3.19-1.71-5.74-4.61-9.53-5.23,0,.02,0,.04-.01,.06h0s0,0,0,0l-.09-.08c.65,1.13,1.36,2.15,2.12,3.07,5.28,6.46,12.92,8.07,21.25,8.25Z"/>
      <polygon class="cls-3" points="156.52 159.2 156.43 159.11 156.52 159.2 156.52 159.2"/>
      <path class="cls-3" d="M156.52,159.2s-.05-.05-.07-.08c0,0,0,0,0,0,.02,.03,.04,.05,.07,.08h0Z"/>
      <path class="cls-3" d="M156.45,159.12s-.01,0-.02,0c0,0,.08,.08,.08,.08-.02-.03-.04-.05-.07-.08Z"/>
      <path class="cls-3" d="M521.36,998.19s0,0,0,0c0,0-.01,.01-.02,.02l.02-.02Z"/>
      <path class="cls-3" d="M514.45,849.27c.32-1.39-.49-2.33-1.82-2.38-1.41-.04-1.13,1.31-1.32,2.2-1.08,5.06-.65,10.19-.76,16.71,2.67-6.15,2.71-11.48,3.89-16.54Z"/>
      <path class="cls-4" d="M252.55,249.54c-.33,10.36-.66,20.73-.99,31.1,.11-.65,.22-1.29,.33-1.94,1.2-7.1,2.23-14.2,1.79-21.35-.16-2.6-.52-5.2-1.13-7.82,0,0,0,0,0,0Z"/>
      <path class="cls-4" d="M252.55,249.54c.62,2.61,.97,5.22,1.13,7.82-.16-2.6-.52-5.21-1.13-7.82,0,0,0,0,0,0,0,0,0,0,0,0Z"/>
      <path class="cls-4" d="M694.34,121.25c1.94,7.32,4.96,14.19,8.71,20.8-2.02-7.28-4.84-14.27-8.71-20.8Z"/>
      <path class="cls-3" d="M311.34,621.34c.36,.31,.74,.65,1.16,1.01-.42-.37-.8-.7-1.16-1.01Z"/>
      <path class="cls-3" d="M309.4,619.65c.61,.53,1.23,1.07,1.94,1.69-.71-.62-1.33-1.16-1.94-1.69h0Z"/>
      <path class="cls-3" d="M393.39,22.98c3.4,1.01,6.79,2.02,9.59,4.35,.04-1.31,2.49-2.26,1.32-3.29-1.94-1.71-4.35-3.1-6.8-3.96-.64-.23-1.15-.13-1.59,.14-.97,.59-1.59,2.02-2.51,2.75Z"/>
      <path class="cls-4" d="M382.37,340.94c3.42-2.65,4.29-5.96,4.79-9.4-1.85,2.82-4.08,5.45-4.79,9.4Z"/>
      <path class="cls-3" d="M371.72,302.59c.42,.31,.79,.7,1.09,1.18,.42-2.27,.83-4.54,1.33-7.26-.95,.53-1.67,1.15-2.27,1.81-1,1.09-1.68,2.27-2.57,3.24,.89,.2,1.72,.51,2.42,1.02Z"/>
      <path class="cls-3" d="M371.72,302.59c.42,.31,.79,.7,1.09,1.18h0c-.31-.49-.67-.87-1.09-1.18Z"/>
      <path class="cls-3" d="M376.99,252.28c0,1.06,.89,1.88,1.44,2.79,1.4-1.87,2.79-3.75,4.19-5.62-.21-.19-.41-.39-.62-.58-1.56,.75-3.12,1.51-4.68,2.26h0s0,0,0,0c-.24,.42-.33,.8-.33,1.16Z"/>
      <path class="cls-3" d="M381.99,248.87c-1.56,.75-3.12,1.51-4.68,2.26h0c1.56-.75,3.12-1.51,4.68-2.26Z"/>
      <polygon class="cls-3" points="494.32 745.54 494.32 745.54 494.22 745.45 494.32 745.54"/>
      <path class="cls-3" d="M494.22,745.45s.07,.06,.1,.09h0s-.07-.06-.1-.09Z"/>
      <path class="cls-3" d="M494.32,745.54s0,0,0,0c-.03-.03-.07-.06-.1-.09,0,0,.1,.09,.1,.09Z"/>
      <path class="cls-3" d="M397.37,801.38s.01,.06,0,.09c-.02,0-.04-.01-.06-.02,.11,.17,.23,.31,.37,.42,.08,.06,.16,.12,.24,.17,.41,.24,.91,.3,1.44,.28-.42-.86-1.13-1.06-1.99-.94Z"/>
      <path class="cls-3" d="M397.32,801.45h0c.11,.17,.23,.31,.37,.42-.14-.11-.26-.25-.37-.42Z"/>
      <path class="cls-3" d="M397.27,801.4s.03,.04,.04,.06h0s-.03-.04-.04-.06Z"/>
      <path class="cls-3" d="M397.32,801.45s.04,.01,.06,.02l-.11-.08s.03,.04,.04,.06Z"/>
      <path class="cls-3" d="M495.37,746.47c-.09-.65-.33-1.13-1.08-1.03,0,.03,.02,.06,.03,.09,.35,.31,.7,.62,1.05,.93Z"/>
      <path class="cls-3" d="M494.32,745.53s-.02-.06-.03-.09c-.02,0-.04,0-.07,0,.03,.03,.07,.06,.1,.09Z"/>
      <path class="cls-3" d="M516.26,738.43c.04,.7-.13,1.61,1.1,1.03,0-.02-.01-.04-.02-.06,.01,0,.02,0,.03,.01-.06-.67-.52-.9-1.11-1.01l.11,.1s-.07-.05-.1-.08Z"/>
      <path class="cls-3" d="M516.36,738.51s-.07-.05-.1-.08h0s.07,.05,.1,.08Z"/>
      <path class="cls-3" d="M516.26,738.41s0,.01,0,.02c.03,.03,.07,.05,.1,.08l-.11-.1Z"/>
      <path class="cls-3" d="M517.35,739.42l-.02-.02s.02,0,.03,.01c0,0,0,0,0,0-.01,0-.02,0-.03-.01,0,0,0,.01,.02,.02Z"/>
      <path class="cls-3" d="M517.36,739.41s-.02,0-.03-.01l.02,.02s.02,.03,.02,.03c0-.01,0-.02,0-.03Z"/>
      <path class="cls-3" d="M517.35,739.42s-.02-.02-.02-.02c0,.02,.01,.04,.02,.06,0,0,.01,0,.02,0l-.02-.03Z"/>
      <path class="cls-3" d="M307.31,732.48s.07,.09,.1,.14h0s-.07,0-.1,0c.02,.67,.27,.97,.69,1.04,.09,.02,.18,.02,.28,.02,.01,0,.02,0,.03,0,.19-.01,.41-.05,.63-.11-.54-.36-1.09-.72-1.63-1.08Z"/>
      <path class="cls-3" d="M308.27,733.68c-.1,0-.2,0-.28-.02,.09,.02,.18,.02,.28,.02Z"/>
      <path class="cls-3" d="M307.4,732.62s0,0,0,0c-.04,0-.07,0-.1,0h0s.07,0,.1,0h0Z"/>
      <path class="cls-3" d="M308.3,733.67c.19-.01,.41-.05,.63-.11h0c-.23,.06-.44,.1-.63,.11Z"/>
      <path class="cls-3" d="M307.3,732.62s.07,0,.1,0c0,0-.11-.15-.11-.15,0,.06,0,.1,0,.15Z"/>
      <path class="cls-3" d="M307.4,732.62s-.07-.09-.1-.14c0,0,0,0-.01,0l.11,.15Z"/>
      <polygon class="cls-3" points="307.4 732.62 307.4 732.62 307.29 732.47 307.4 732.62"/>
      <polygon class="cls-3" points="535.86 773.04 536.15 773.26 536.13 773.18 535.86 773.04"/>
      <path class="cls-3" d="M171.14,437.69c-.11-.12-.73,.22-1.12,.35,.31,.4,.62,.8,.93,1.2,.22-.24,.38-.5,.43-.76,.05-.26-.02-.53-.24-.78Z"/>
      <path class="cls-3" d="M170.96,439.24h0c-.31-.4-.62-.8-.93-1.2,.31,.4,.62,.8,.93,1.2Z"/>
      <path class="cls-3" d="M693.7,381.1c-.59,.3-.4,.79-.17,1.25h0c.27-.22,.54-.44,.81-.67-.22-.21-.55-.63-.64-.59Z"/>
      <path class="cls-3" d="M693.54,382.36h0c.27-.22,.54-.44,.81-.67-.27,.22-.54,.44-.81,.67h0Z"/>
      <path class="cls-3" d="M380.75,351.89c.05,.26,.07,.55,.28,.59,.06,0,.12,0,.21-.03,.01,0,.03-.02,.05-.02-.18-.11-.37-.27-.54-.54Z"/>
      <path class="cls-3" d="M380.75,351.89s0,0,0,0c.05,.26,.07,.56,.29,.59-.22-.04-.23-.34-.28-.59Z"/>
      <polygon class="cls-3" points="380.59 351.56 380.59 351.56 380.59 351.56 380.59 351.56"/>
      <path class="cls-3" d="M380.67,351.66s0,0,0,0c.04,.07,.07,.15,.08,.24,0,0,0,0,0,0-.02-.09-.04-.17-.08-.24Z"/>
      <path class="cls-3" d="M380.59,351.56s0,0,0,0c0,0-.03,.02-.03,.02,.03,.02,.06,.05,.1,.07-.02-.03-.04-.07-.07-.09Z"/>
      <path class="cls-3" d="M380.67,351.66c.04,.07,.06,.15,.08,.24,.18,.26,.36,.43,.54,.54,.08-.03,.16-.07,.27-.14-.3-.21-.59-.42-.89-.64Z"/>
      <path class="cls-3" d="M375.91,283.63c.21-.05,.41-.1,.62-.15-.09-.15-.18-.29-.27-.44-.11,.2-.23,.39-.34,.59,0,0,0,0,0,0Z"/>
      <path class="cls-3" d="M375.91,283.63c.11-.2,.23-.39,.34-.59,0,0,0,0,0,0-.11,.2-.22,.4-.34,.59Z"/>
      <path class="cls-3" d="M376.19,282.88l-.04-.02c.04,.06,.07,.12,.11,.18,.02-.03,.04-.07,.06-.1,0,0-.08-.04-.12-.06Z"/>
      <path class="cls-3" d="M375.91,283.63c.21-.05,.41-.1,.62-.15-.21,.05-.41,.1-.62,.15h0Z"/>
      <path class="cls-3" d="M376.14,282.85l.04,.02s-.04-.02-.04-.02Z"/>
      <path class="cls-3" d="M156.53,159.14c.24-.85-.49-.89-1.01-1.11,.31,.36,.62,.72,.92,1.09,.03,0,.05,.01,.08,.02Z"/>
      <path class="cls-3" d="M156.52,159.2s0-.04,.01-.06c-.03,0-.05-.01-.08-.02,.02,.03,.05,.05,.07,.08Z"/>
      <path class="cls-3" d="M155,157.35c.24,.23,.35,.49,.36,.77,0,.02,.02,.04,.03,.06,0,0,0,0,0,0-.01-.31-.14-.59-.39-.83Z"/>
      <path class="cls-3" d="M155.4,158.18s0,0,0,.01c0,0,0-.01,0-.02,0,0,0,0,0,0Z"/>
      <path class="cls-3" d="M155.37,158.12c0-.29-.12-.55-.36-.77,.13,.26,.25,.52,.36,.77Z"/>
      <path class="cls-3" d="M460.58,111.43c.06,.4,.13,.81,.19,1.21,.3-.28,.6-.56,.9-.83-.36-.13-.73-.25-1.09-.38Z"/>
      <path class="cls-3" d="M461.67,111.81c-.36-.12-.73-.25-1.09-.38,.36,.13,.73,.25,1.09,.38,0,0,0,0,0,0Z"/>
      <path class="cls-3" d="M461.67,111.81c-.3,.28-.6,.56-.9,.83,.3-.28,.6-.56,.9-.83,0,0,0,0,0,0Z"/>
      <polygon class="cls-3" points="461.67 111.81 461.67 111.81 461.67 111.81 461.67 111.81 461.67 111.81"/>
      <path class="cls-4" d="M193.46,106.15h0c-.24,.18-.48,.36-.72,.55,.13,.1,.32,.31,.37,.28,.26-.14,.48-.35,.71-.54l-.13-.11c-.1-.08-.22-.18-.22-.18Z"/>
      <path class="cls-4" d="M193.46,106.15h0c-.24,.18-.48,.36-.72,.55,.24-.18,.48-.36,.72-.55h0Z"/>
      <path class="cls-4" d="M193.81,106.44s-.06-.05-.13-.11l.13,.11Z"/>
      <path class="cls-2" d="M469.13,380.74c5.92-.07,11.81,1.46,17.78,.1,6.11-1.39,12.3-.73,18.35,.4,27.67,5.19,55.33,6.56,83.34,2.23,8.71-1.35,18.22-1.82,26.42,3.82,2.23,1.54,5.03,1.67,7.68,1.82,2.32,.14,4.47-.38,4.7-3.24,.21-2.53-1.53-3.75-3.68-3.83-3.56-.13-3.67-1.83-2.78-4.59,2.79-8.72,2.68-17.59,1.71-26.62-.54-4.98-2.27-9.77-2.35-14.73-.22-15.5-1.51-30.84-4.58-46.08-.61-3.01-2.62-6.67-1.07-9.46,4.01-7.19,4.33-14.25,1.91-21.98-3.89-12.44-12.16-21.74-20.34-31.46-10.32-12.26-23.32-16.92-38.92-17.51-2.16,.18-4.73,.04-7.11,.66-24.73,6.35-45.58,17.73-56.41,42.66-3.9,8.97-3.78,16.9,2.98,24.32,2.59,2.85,3.28,5.72,.85,9.3-5.5,8.12-7.48,17.2-6.72,26.99,.66,8.55-.96,16.82-3.53,24.99-3.13,9.98-4.3,20.14-1.17,30.4,.65,2.12,.14,2.89-2.15,3.09-5.13,.45-10.21,1.31-15.34,1.78-2.41,.22-3.92,1.22-3.8,3.61,.12,2.46,2.1,3.35,4.24,3.32Zm109.56-120.27c3.4-5.38,9.68-8.48,14.72-7.26,5.37,1.3,8.65,6.32,9.51,13.24,.61,4.85-.32,6.94-5.78,6.43-3.55-.33-7.23,.81-10.86,1.28-3.71,.29-6.53-1.02-8.34-4.32-1.81-3.28-1.16-6.37,.74-9.37Zm-24.13,85.2c.13-6.64,.66-13.27,.98-19.91,.11-2.21,.92-3.44,3.28-4.21,12.99-4.3,24.13-11.71,34.21-20.84,4.66-4.22,10.65-6.85,14.92-12.8,3.02,14.53,5.58,28.39,4.98,42.64-.39,9.2,3.04,17.97,3.27,27.16,.14,5.72-.46,11.21-1.87,16.72-.73,2.84-1.86,2.77-3.71,1.3-4.84-3.83-10.68-5.3-16.46-6.73-10.32-2.56-20.38-5.91-30.29-9.69-8.37-3.2-9.47-4.86-9.29-13.63Zm-47.77-79.86c4.34-6.21,7.85-13.31,15.85-15.82,7.25-2.27,10.06-.82,12.39,6.33,.66,2.04,1.03,4.17,1.31,5.35,.12,8.16-8.37,12.97-16.81,10.35-3.94-1.22-7.49-3.52-11.64-4.21-1.09-.18-1.99-.73-1.09-2Zm-13.06,76.08c3.24-10.25,4.98-20.55,3.91-31.35-.79-7.95,2.35-14.92,6.97-21.65,8.13,7.15,15.95,14.11,23.86,20.95,4.81,4.16,9.95,7.79,16.59,8.45,3.21,.32,4.57,1.81,3.97,5.33-1.21,7.23-1.26,14.57-1.05,21.88,.16,5.56-1.71,9.09-7.3,11.42-13.7,5.72-27.67,10.12-42.36,12.46-3.98,.63-5.04-.77-5.78-3.89-1.91-7.99-1.24-15.92,1.19-23.6Z"/>
      <path class="cls-2" d="M339.07,503.15c7.17,27.08,9.58,54.6,7.25,82.47-1.09,13.07-2.93,26.09-4.49,39.12-.28,2.31-.4,4.54,2.4,5.18,2.66,.6,3.95-1.07,4.5-3.47,.15-.65,.44-1.27,.52-1.92,2.13-18.99,4.81-37.93,5.22-56.97-.4-10.91-.91-21.7-2.05-32.45-2.67-25.32-10.51-49.19-19.98-72.63-.71-1.76-2.03-2.61-3.94-2.19-1.78,.38-2.3,1.79-2.38,3.38-.17,3.08,1.03,5.84,2.24,8.57,4.46,10,7.9,20.35,10.7,30.93Z"/>
      <path class="cls-2" d="M444.71,449.09c19.74,14.32,41.8,21.3,72.23,20.89,12.23-.72,30.39-2.39,47.89-8.25,2.44-.82,5.07-1.9,3.91-5.16-1.04-2.92-3.82-2.5-5.98-1.66-9.39,3.65-19.31,4.8-29.14,6.27-22.02,3.3-43.79,2.91-64.54-6.33-8.9-3.96-17.89-8.12-24.42-15.76-1.5-1.76-2.82-3.07-4.89-2.04-2.44,1.21-2.1,3.63-1.22,5.68,1.22,2.84,3.72,4.59,6.16,6.36Z"/>
      <path class="cls-2" d="M485.87,609.25c-3.25-.45-3.74,2.06-4.09,4.45-.8,5.43-1.75,10.84-2.3,16.3-3.11,30.39-3.43,61.08-9.8,91.12-.38,1.78,.31,3.34,2.13,4.05,1.85,.72,3.24-.21,4.34-1.57,.98-1.21,1.09-2.73,1.36-4.21,3.79-20.98,5.36-42.19,6.82-63.41,.95-13.92,2.17-27.83,4.33-40.98-.17-2.79,.2-5.34-2.78-5.75Z"/>
      <path class="cls-2" d="M330.33,157.85c11.02,12.04,23.94,19.51,41.03,17.35,5.24,.14,10.54,.18,15.85-.62,16.65-2.5,31.39-10.14,46.44-16.94,1.46-.66,2.65-1.98,3.9-3.06,2.71-2.34,2.5-4.85,.27-7.37-2.42-2.74-4.75-5.58-7.36-8.13-9.46-9.25-20.78-16.02-32-22.74-8.27-4.95-17.96-7.05-27.43-4.62-18.91,4.86-31.36,17.88-40.39,34.55-1,1.85-1.28,4.11-1.86,6.18-.59,2.11,.03,3.75,1.55,5.41Zm80.34-20.37c4.36,2.19,6.03,5.96,5.48,11.9-.45,4.89-5.96,10.58-12.32,12.39,4.84-7.55,5.88-15.88,6.84-24.29Zm-16.07,.63c1.41-.1,2.74,.07,2.48,1.42-.37,2.62-.4,4.84-3.15,4.89-2.04,.03-3.58-.98-3.51-3.21,.08-2.61,2.16-2.96,4.19-3.1Zm-55.06,5.94c1.07-1.72,2.41-3.27,3.66-4.88,0-.06,.02-.12,.03-.19h.01s0,0,0,0c0,0,0,0,0,0,0,0,0,0,0,0h0s.18-.09,.18-.09l.05,.2-.15-.06s-.07,.08-.1,.13c-.96,6.37-2.18,12.75-.41,19.16,.12,.43,.25,.86,.4,1.3-7.92-5.3-8.53-7.75-3.67-15.55Z"/>
      <path class="cls-2" d="M343.24,138.99h-.01c0,.06-.02,.12-.03,.18,0,0,.01-.01,.02-.02,0-.05,.02-.11,.02-.16Z"/>
      <path class="cls-2" d="M592.96,159.52c5.95,2.93,12.01,5.7,17.75,9.02,9.44,5.45,19.55,8.14,32.64,8.83,4.67,.18,11.33-1.14,17.46-4.36,11.68-6.13,17.98-17.11,11.66-30.99-1.17-2.57-2.12-5.26-3.52-7.69-6.62-11.47-16.62-17.43-29.88-17.41-10.36,.01-18.57,5.58-26.69,11.15-9.42,6.47-15.18,16.23-22.15,24.87-2.36,2.93-.2,5.14,2.73,6.58Zm43.98-14.31c2.19,.11,3.29,1.42,3.31,3.45,.02,2.1-1.23,3.4-3.37,3.34-1.91-.05-2.96-1.33-3.05-3.18-.1-2.08,.91-3.39,3.11-3.61Zm-30.97,.24c.56,4.22-.35,7.39,1.79,10.86-3.57-.46-6.16-1.34-9.06-2.74,2.31-2.59,4.44-4.97,7.27-8.13Z"/>
      <path class="cls-2" d="M267.45,651.38c6.6-.16,10.61-4.01,13.18-9.8,5.19-11.7-.54-30.56-11.45-37.3-4.81-2.97-9.95-3.48-14.5,0-6.6,5.05-10.76,11.7-10.73,22.42-.31,5.42,3.3,11.28,7.18,17.21,4,6.11,9.74,7.62,16.33,7.46Zm-10.99-39.3c3.66-3.9,6.69-3.99,10.75-.39,6.04,5.38,7.8,12.5,8.14,20.23,0,4.62-.94,9.18-5.27,11.52-4.58,2.47-9.1,.3-12.22-2.98-7.58-7.96-10.54-18.63-1.39-28.39Z"/>
      <path class="cls-2" d="M416.14,801.03c.29,.24,.57,.46,.86,.67,2.01,1.5,4.04,2.49,6.15,3.1,2.41,.7,4.92,.91,7.62,.82,2.48,.41,4.98,.35,7.39-.13,.34-.07,.69-.15,1.03-.23,5.7-1.43,11.44-3.21,13.96-9.23,4.27-10.2-2.26-19.55-13.31-18.77-10.5,.73-20.62,2.95-25.64,13.88-1.59,3.47-2.17,6.53,1.94,9.9Zm24.69-3.75c-.11-.1-.24-.19-.3-.32-.03-.06,.1-.19,.16-.29,.11,.01,.22,.01,.33,.01-.06,.2-.12,.4-.18,.59Zm5.81-9.61c1.42,4.28,.11,7.32-5.18,9.21,1.61-3.04,2.92-5.58,1.76-8.3-1.18-2.76-3.9-3.1-6.42-3.74,3.65-.31,7.96-2.88,9.85,2.83Zm-25.88,5.73c1.61-3.01,3.88-5.36,7.37-6.19,.53-.83,1.25-.94,2.1-.55-.38,.46-.76,.93-1.14,1.39-2.25,3.44-2.46,6.81,.77,10.31-3.53,.92-6-.73-8.63-1.79-2.12-.86-1-2.2-.48-3.17Z"/>
      <path class="cls-2" d="M430.77,805.62c-2.7,.09-5.22-.11-7.62-.82,2.41,.7,4.92,.91,7.63,.82,2.48,.41,4.98,.35,7.39-.13-2.41,.48-4.91,.54-7.39,.13Z"/>
      <path class="cls-2" d="M311.39,683.86c-3.36,2.48-4.67,8.31-2.47,13.19,1.81,4.04,4.34,7.58,8.5,6.81,3.21-.46,5.2-.6,7.11-1.06,2.76-.66,4.13-2.49,4.06-5.41-.12-4.62-7.5-13.71-12.04-14.68-1.87-.4-3.6,0-5.16,1.15Zm4.07,5.7c2.03,2.26,3.41,3.82,4.83,5.4-4.5,1.95-5.18,1.34-4.83-5.4Z"/>
      <path class="cls-4" d="M563.85,359.3c9.91,3.79,19.97,7.13,30.29,9.69,5.78,1.44,11.62,2.91,16.46,6.73,1.85,1.46,2.99,1.54,3.71-1.3,1.42-5.52,2.01-11,1.87-16.72-.23-9.18-3.66-17.95-3.27-27.16,.6-14.25-1.95-28.11-4.98-42.64-4.27,5.94-10.26,8.57-14.92,12.8-10.08,9.13-21.23,16.54-34.21,20.84-2.35,.78-3.17,2.01-3.28,4.21-.32,6.64-.85,13.27-.98,19.91-.17,8.77,.93,10.43,9.29,13.63Z"/>
      <path class="cls-4" d="M498.32,369.37c14.7-2.34,28.66-6.75,42.36-12.46,5.59-2.33,7.45-5.87,7.3-11.42-.2-7.31-.16-14.65,1.05-21.88,.59-3.52-.76-5.01-3.97-5.33-6.64-.66-11.78-4.28-16.59-8.45-7.91-6.84-15.73-13.8-23.86-20.95-4.62,6.73-7.75,13.7-6.97,21.65,1.07,10.8-.67,21.1-3.91,31.35-2.43,7.68-3.1,15.61-1.19,23.6,.75,3.12,1.8,4.52,5.78,3.89Z"/>
      <path class="cls-3" d="M507.88,267.81c4.15,.69,7.7,2.99,11.64,4.21,8.45,2.61,16.93-2.19,16.81-10.35-.28-1.18-.65-3.31-1.31-5.35-2.32-7.15-5.14-8.6-12.39-6.33-8.01,2.51-11.51,9.6-15.85,15.82-.89,1.28,0,1.82,1.09,2Z"/>
      <path class="cls-3" d="M586.29,274.16c3.62-.48,7.31-1.62,10.86-1.28,5.46,.51,6.39-1.58,5.78-6.43-.87-6.91-4.14-11.94-9.51-13.24-5.04-1.22-11.32,1.88-14.72,7.26-1.9,3-2.55,6.09-.74,9.37,1.81,3.3,4.63,4.6,8.34,4.32Z"/>
      <path class="cls-3" d="M416.15,149.37c.55-5.94-1.12-9.71-5.48-11.9-.96,8.41-1.99,16.74-6.84,24.29,6.36-1.81,11.87-7.5,12.32-12.39Z"/>
      <path class="cls-3" d="M343.21,159.61c-.15-.43-.28-.86-.4-1.3-1.77-6.41-.55-12.78,.39-19.14-1.24,1.61-2.59,3.16-3.66,4.88-4.86,7.8-4.25,10.26,3.67,15.55Z"/>
      <path class="cls-3" d="M343.32,139.02l-.08-.03c0,.05-.02,.11-.02,.16,.03-.04,.07-.08,.1-.13Z"/>
      <path class="cls-3" d="M343.25,138.97h0s.18-.09,.18-.09l-.18,.09Z"/>
      <path class="cls-3" d="M343.32,139.02s-.07-.03-.08-.04c0,0,0,0,0,0l.08,.03s0,0,0,0Z"/>
      <path class="cls-3" d="M342.81,158.31c-1.77-6.41-.55-12.79,.41-19.16,0,0-.01,.01-.02,.02-.94,6.36-2.16,12.73-.39,19.14Z"/>
      <path class="cls-3" d="M393.93,144.42c2.75-.05,2.78-2.27,3.15-4.89,.26-1.35-1.07-1.52-2.48-1.42-2.03,.14-4.11,.49-4.19,3.1-.07,2.23,1.47,3.24,3.51,3.21Z"/>
      <path class="cls-3" d="M343.47,139.08l-.05-.2s-.07,.09-.1,.13c.07,.03,.15,.07,.15,.07Z"/>
      <polygon class="cls-3" points="343.24 138.98 343.24 138.98 343.25 138.97 343.24 138.98"/>
      <path class="cls-3" d="M343.42,138.89s-.15,.07-.18,.09c0,0,0,0,0,0,0,0,.04,.02,.08,.04,.03-.04,.07-.09,.1-.13Z"/>
      <path class="cls-3" d="M605.97,145.44c-2.83,3.16-4.96,5.54-7.27,8.13,2.9,1.4,5.5,2.28,9.06,2.74-2.14-3.47-1.23-6.64-1.79-10.86Z"/>
      <path class="cls-3" d="M636.88,152c2.14,.06,3.39-1.25,3.37-3.34-.02-2.03-1.12-3.34-3.31-3.45-2.2,.22-3.21,1.53-3.11,3.61,.08,1.85,1.14,3.13,3.05,3.18Z"/>
      <path class="cls-3" d="M270.08,643.45c4.33-2.34,5.27-6.91,5.27-11.52-.34-7.73-2.1-14.85-8.14-20.23-4.05-3.61-7.09-3.51-10.75,.39-9.15,9.76-6.19,20.42,1.39,28.39,3.12,3.28,7.64,5.46,12.22,2.98Zm-13.38-18.29c.98-3.89,1.76-8.23,6.82-8.63,4.72-.37,6.46,3.39,8,6.96,3.04,7.03,2.49,11.24-1.86,13.71-2.66,1.51-5.58,2.36-8.55,.93-2.75-1.32-4.64-5.87-4.6-10.98,.03-.34-.01-1.19,.19-1.99Z"/>
      <path class="cls-3" d="M421.23,796.56c2.63,1.07,5.1,2.71,8.63,1.79-3.23-3.5-3.02-6.88-.77-10.31-.32-.28-.64-.56-.96-.84-3.49,.83-5.76,3.18-7.37,6.19-.52,.97-1.64,2.31,.48,3.17Z"/>
      <path class="cls-3" d="M443.21,788.58c1.16,2.72-.14,5.26-1.76,8.3,5.29-1.9,6.61-4.93,5.18-9.21-1.89-5.7-6.2-3.14-9.85-2.83,2.52,.65,5.24,.98,6.42,3.74Z"/>
      <path class="cls-3" d="M430.23,786.65c-.85-.39-1.57-.27-2.1,.55,.32,.28,.64,.56,.96,.84,.38-.46,.76-.93,1.14-1.39Z"/>
      <path class="cls-3" d="M440.53,796.96c.06,.13,.2,.21,.3,.32,.06-.2,.12-.4,.18-.59-.11,0-.22,0-.33,0-.06,.09-.19,.22-.16,.28Z"/>
      <path class="cls-3" d="M320.29,694.96c-1.42-1.58-2.81-3.14-4.83-5.4-.34,6.74,.33,7.35,4.83,5.4Z"/>
      <path class="cls-2" d="M261.11,638.13c2.97,1.43,5.89,.58,8.55-.93,4.35-2.47,4.9-6.68,1.86-13.71-1.54-3.57-3.28-7.33-8-6.96-5.06,.4-5.83,4.74-6.82,8.63-.2,.8-.16,1.65-.19,1.99-.03,5.11,1.86,9.67,4.6,10.98Zm2.82-12.51c.27,.05,.51,.03,.58,.12,1.15,1.57,1.95,3.26,1.43,5.25-.06,.21-1.03,.48-1.17,.34-1.58-1.7-1.6-3.65-.84-5.71Z"/>
      <path class="cls-3" d="M265.94,630.99c.52-1.99-.28-3.68-1.43-5.25-.07-.1-.31-.07-.58-.12-.77,2.06-.74,4.01,.84,5.71,.13,.14,1.11-.12,1.17-.34Z"/>
    </g>
  </g>
</svg>