<?xml version="1.0" encoding="UTF-8"?>
<svg id="Layer_2" data-name="Layer 2" xmlns="http://www.w3.org/2000/svg" viewBox="0 0 884.81 1015.91">
  <defs>
    <style>
      .cls-1 {
        fill: #f3f3e0;
      }

      .cls-2 {
        fill: #f3efe7;
      }

      .cls-3 {
        fill: #f8f8f7;
      }

      .cls-4 {
        fill: #010101;
      }

      .cls-5 {
        fill: #6a00fe;
      }

      .cls-6 {
        fill: #6a00fd;
      }

      .cls-7 {
        fill: #f0efde;
      }

      .cls-8 {
        fill: #fcfce8;
      }

      .cls-9 {
        fill: #e7e7d5;
      }

      .cls-10 {
        fill: #f1f1de;
      }

      .cls-11 {
        fill: #f1efe2;
      }

      .cls-12 {
        fill: #fefeea;
      }

      .cls-13 {
        fill: #fdfde9;
      }

      .cls-14 {
        fill: #a0a0a0;
      }

      .cls-15 {
        fill: #7416ec;
      }

      .cls-16 {
        fill: #e1e1cf;
      }

      .cls-17 {
        fill: #171715;
      }

      .cls-18 {
        fill: #161615;
      }

      .cls-19 {
        fill: #1e1e1c;
      }

      .cls-20 {
        fill: #21211f;
      }

      .cls-21 {
        fill: #20201e;
      }

      .cls-22 {
        fill: #0c0c0b;
      }

      .cls-23 {
        fill: #0b0b0b;
      }

      .cls-24 {
        fill: #0b0b0a;
      }

      .cls-25 {
        fill: #232320;
      }

      .cls-26 {
        fill: #090909;
      }

      .cls-27 {
        fill: #090908;
      }

      .cls-28 {
        fill: #070706;
      }

      .cls-29 {
        fill: #141412;
      }

      .cls-30 {
        fill: #0d0d0c;
      }

      .cls-31 {
        fill: #11110f;
      }

      .cls-32 {
        fill: #10100f;
      }

      .cls-33 {
        fill: #10100e;
      }

      .cls-34 {
        fill: #1d1d1b;
      }

      .cls-35 {
        fill: #0f0f0e;
      }

      .cls-36 {
        fill: #1c1c1a;
      }

      .cls-37 {
        fill: #0e0e0d;
      }

      .cls-38 {
        fill: #0e0e0c;
      }

      .cls-39 {
        fill: #191917;
      }

      .cls-40 {
        fill: #181816;
      }

      .cls-41 {
        fill: #0a0a0a;
      }

      .cls-42 {
        fill: #1b1b19;
      }

      .cls-43 {
        fill: #1a1a18;
      }

      .cls-44 {
        fill: #898989;
      }

      .cls-45 {
        fill: #2f2f2f;
      }
    </style>
  </defs>
  <g id="Layer_1-2" data-name="Layer 1">
    <g>
      <path class="cls-12" d="M871.48,878.94c5.6,8.75,9.81,18.12,12.3,28.23,.23,.95,.09,1.99,1.04,2.64v6c-3.64,13.03-10.63,24.27-19.76,33.94-9.76,10.33-22.03,16.78-36.5,16.95-30.31,.34-60.63,.03-90.94,.14-14.43,.05-28.67,2.2-42.89,4.51-21.52,3.5-43.04,7.05-64.58,10.46-22.68,3.59-45.4,6.87-68.05,10.64-14.33,2.39-28.81,4.1-43.3,5.25-23.25,1.84-46.39,4.19-69.44,7.85-14.02,2.22-28.32,2.57-42.42,4.36-9.66,1.23-19.18,3.5-28.78,5.28-7.03,1.3-13.86,1.08-20.2-2.75-.83-.5-1.98-1.27-2.71-1.04-4.98,1.56-7.8-1.4-10.53-4.7-.35-8.29-.44-16.59,.15-24.85,.28-3.87-.04-7.62-.28-11.42-.54-8.85,.88-17.6,1.29-26.41,.61-12.78,1.79-25.53,2.6-38.3,.53-8.35,.65-8.8,8.83-8.34,11.8,.67,23.59,1.5,35.42,1.1,1.66-.06,3.34-.11,4.99,.12,3.88,.55,4.64,2.22,2.24,5.31-2.99,3.86-7.19,6.41-10.77,9.65-10.84,9.83-17.36,21.97-17.87,36.7-.77,22.41,13.18,42.44,35.2,49.99,25.26,8.67,54.48,2.56,72.31-21.67,14.15-19.23,12.05-46.05-4.65-63.14-7.05-7.21-15.11-12.45-24.8-15.23-1.97-.57-4.3-.71-5.68-3.04,2.04-2.19,4.87-2.02,7.37-2.39,45.17-6.69,88.85-18.91,131.66-34.65,30.79-11.32,62.18-21.02,92.38-33.92,33.54-14.33,67.12-28.57,100.64-42.93,10.89-4.66,21.11-10.64,30.75-17.58,4.44-3.2,5.61-2.97,8.07,1.81,5.28,10.27,12.77,19.08,18.64,28.98,8.13,13.72,13.42,28.58,18.92,43.43,5.32,14.37,11.15,28.55,14.28,43.63,.1,.49,.23,.98,.43,1.43,.83,1.93,1.36,5.1,3.86,4.37,2.88-.84,.87-3.64,.53-5.59-.29-1.64-.85-3.25,.23-4.81Z"/>
      <path d="M871.48,878.94c.65,2.4,1.28,4.8,1.96,7.19,.63,2.18,1.2,4.55-1.5,5.53-2.77,1-4.4-.81-5.19-3.29-1.05-3.32-1.85-6.71-2.92-10.02-11.07-34.22-21.1-68.88-43.11-98.31-3.28-4.39-5.93-9.21-8.29-14.17-.59-1.24-1.01-2.32-2.76-.98-23.67,18.2-51.87,27.21-78.82,38.75-28.2,12.07-55.97,25.2-84.92,35.45-41.39,14.65-82.42,30.43-124.71,42.4-25.1,7.1-50.79,11.63-77.06,15.79,10.04,2.48,18.98,6.24,26.6,12.72,21.72,18.46,25.17,47.76,8.32,70.72-19.69,26.82-61.45,32.89-87.94,12.78-28.85-21.9-28.2-62.59,1.41-84.51,3.19-2.36,8.11-5.27,7.37-8.24-.64-2.6-6.45-.56-9.97-.48-11.51,.28-22.96-.69-34.37-1.87-4.31-.45-5.16,.68-5.4,4.86-.97,17.43-2.69,34.82-3.62,52.26-.59,10.96,0,21.98-.45,32.95-.25,6.08,.96,12.32-1.39,18.25-5.15,1.52-6.12,.55-5.96-4.59,.41-13.31,.52-26.63,.8-39.94,.41-19.47,1.7-38.89,3.73-58.25,.48-4.59,.27-7.11-5.63-7.63-9.45-.83-17.05-10.5-17.59-21.26-.3-5.96-.07-11.98,.44-17.93,.68-7.83,.53-15.6-.21-23.41-.3-3.12-.24-6.35,.2-9.45,1.07-7.47,5.14-11.29,12.59-12.33,11.47-1.6,12.26-1.78,9.72-13.1-6.34-28.2-14.8-55.58-36.16-76.8-2.83-2.82-5.68-5.66-8.15-8.79-9.29-11.76-22.14-17.68-35.82-22.35-7.26-2.48-14.88-1.17-22.26-2.17-9.61-1.3-19.12,.53-28.72,.28-25.9-.67-47.57-9.94-64.16-30.09-8.38-10.18-10.81-22.96-14.46-35.14-3.25-10.83-1.35-21.76,.24-32.63,.29-1.95,.29-3.97,.79-5.86,.68-2.62,3.98-5.66,2.22-7.56-2.69-2.9-6.91-4.38-10.47-6.49-1.71-1.01-2.22,.11-2.95,1.39-2.8,4.9-5.7,9.74-8.62,14.57-.94,1.56-2.01,3.05-3.13,4.5-1.3,1.69-2.92,3.01-5.08,1.54-2.09-1.42-1.7-3.52-.62-5.32,3.94-6.53,7.88-13.07,12.11-19.42,.93-1.39,1.44-1.93-.08-2.99-2.49-1.73-4.34-4.05-5.68-7.16-5.32,5.5-10.02,11.02-14.42,16.8-1.66,2.17-3.57,4.76-6.46,2.4-2.58-2.1-.71-4.58,.87-6.53,3.87-4.79,7.62-9.7,11.86-14.15,2.89-3.03,4.17-5.67,1.62-9.49-.97-1.45-1.23-3.38-2.05-5.8-2.99,2.54-5.77,4.77-8.42,7.16-8.03,7.26-16.01,14.58-23.98,21.89-1.9,1.75-4.01,3.78-6.4,1.37-2.38-2.41-.49-4.63,1.44-6.37,10.89-9.81,21.77-19.62,32.78-29.29,1.77-1.55,2.84-2.76,2.52-5.34-.59-4.76-.69-9.59-1.01-14.74-4.02,1.14-6.68,3.71-9.53,5.8-16.1,11.84-31.41,24.66-46.63,37.59-4.82,4.1-9.32,8.56-13.17,13.63-1.45,1.91-3.45,3.02-5.6,1.45-2.27-1.66-1.38-3.83,0-5.71,4.36-5.95,9.61-11.09,15.24-15.77,17.4-14.46,34.59-29.2,53.32-41.98,1.45-.99,3.34-2.07,1.51-3.73-1.93-1.75-2.45-6.16-6.56-4.45-2.73,1.14-5.36,2.62-7.86,4.23-20.37,13.09-39.84,27.26-54.75,46.75-1.57,2.06-3.61,4.25-6.2,2.28-2.93-2.24-.91-4.62,.8-6.82,17.13-22.11,39.23-38.15,63.24-51.84,2.05-1.17,3.4-1.81,2.2-4.76-1.36-3.33-3.2-1.66-4.75-1-23.71,10.14-45.05,24.07-64.62,40.79-.88,.75-1.64,1.66-2.55,2.38-1.61,1.29-3.44,1.55-4.96,.07-1.59-1.54-1.22-3.54,.15-4.95,2.66-2.74,5.39-5.47,8.4-7.81,18.79-14.64,38.56-27.71,60.67-36.91,.76-.32,1.58-.49,2.36-.74,1.35-.97,1.34-.94,.33-1.17-.77-.17-1.58-.17-2.32-.52-17.2-.84-33.64,3.68-50.19,7.27-7.77,1.68-15.58,3.41-22.85,6.77-2.48,1.15-4.06-.05-5.84-1.21v-3c4.29-4.05,9.91-5.11,15.28-6.51,17.53-4.56,35.17-8.67,53.29-10.21,4.48-.38,9.13-1.02,13.37,.59,3.62,1.37,4.47-.41,5.39-3.07,1.58-4.55,3.78-8.99-1.99-12.56-2.19-1.36-2.83-4.27-2.36-6.77,1.46-7.82,.77-15.87,2.86-23.63,1.83-6.8,5.41-12.38,11.71-15.37,17.42-8.25,35.79-12.99,55.14-13.63q3.11-.53,3.4-1.87c-2.71-2.35-1.45-5.46-.93-7.96,2.99-14.09,5.81-28.22,12.23-41.36,4.97-10.17,11.91-18.77,19.46-26.99,1.78-1.94,2.54-3.32,.83-5.84-3.1-4.56-4.53-9.93-6.18-15.13-5.17-16.34-15.86-29.77-23.46-44.84-13.74-27.22-21.8-56.1-24.72-86.06-2.36-24.22,10.24-34.75,31.1-35.02,23.81-.31,44.91,7.63,64.1,21.26,8.99,6.38,16.96,13.77,24.28,22.11,13.51,15.38,28.2,29.53,45.39,41.02,4.13,2.76,7.02,3.17,11.25,1.51,21.79-8.57,44.1-15.42,67.14-19.81,21.43-4.08,43.04-3.74,64.66-2.51,14.64,.83,29.28,.9,43.92,.69,18.5-.26,36.92,.47,55.31,2.6,11.86,1.38,21.46-3.23,28.97-12.19,15.82-18.87,30.76-38.44,45.98-57.79,25.33-32.22,52.28-63.09,82.04-91.31,20.87-19.79,44.97-34.5,73.32-41.35,4.37-.62,8.74-.62,13.11,0,20.64,6.74,29.37,19.79,29.34,38.22-.04,25.49-5.13,50.26-9.92,75.04-8.32,43-18.99,85.43-32.9,127.01-2.62,7.84-2.54,15.99-.17,24.06,1.95,6.67,3.72,13.41,5.41,20.15,1.1,4.36,1.72,8.79,1.21,13.34-.93,8.29-.61,16.46,.84,24.77,2.22,12.72-7.8,29.87-20.63,36.44-4.4,2.25-9.07,4.09-13.8,5.56-4.56,1.42-7.19,4.43-9.18,8.46-3.57,7.25-4.05,14.86-2.94,22.72,5.64,40,9.02,80.28,15.19,120.21,3,19.42,4.68,38.96,3.36,58.65-.66,18.03,3.7,35.14,9.69,51.91,4.12,11.53,7.74,23.25,12.36,34.6,.72,4.34,2.15,6.3,7.54,5.13,11.01-2.4,15.43,.59,20.74,10.61,8.72,16.46,14.58,34.12,21.97,51.14,4.28,9.85,4.53,19.82-3.76,28.24-1.43,1.46-1,2.59-.26,3.92,2.24,4.06,4.11,8.42,6.86,12.11,15.26,20.45,25.64,43.24,33.85,67.26,4.37,12.8,9.71,25.27,12.79,38.5Z"/>
      <path class="cls-14" d="M783.89,.9h-13.11c.14-.29,.16-.59,.06-.9h13c-.1,.31-.08,.61,.06,.9Z"/>
      <path class="cls-45" d="M156.08,399.87c.62,.1,1.43-.02,1.83,.33,.67,.58,.07,1.15-.53,1.37-1.54,.56-3.12,.68-4.7,.16,.9-1.04,2.98,.06,3.4-1.87Z"/>
      <path class="cls-44" d="M78.88,483.07h5.5c-1.17,1.25-2.17,1.81-3.51,1.69-.66-.56-1.32-1.12-1.98-1.69Z"/>
      <path class="cls-8" d="M771.76,662.03c-10.36-21.25-17.84-43.52-22.32-66.68-1.23-6.37-.98-13.24,.27-19.83,4.89,23.32,11.79,46.15,17.11,69.37,1.33,5.81,4.35,11.12,4.94,17.14Z"/>
      <path class="cls-12" d="M493.36,777.88c-22.71,8.2-46.42,12.6-69.75,18.47-2.43,.61-3.73-.08-4.65-2.34-1.4-3.43-3.68-6.3-6.39-8.8-4.15-3.82-8.84-5.02-14.26-2.91-3.08,1.2-6.32,2-9.37,3.26-7.16,2.95-10.28,8.04-9.09,15.72,.74,4.79-.35,6.85-5.58,7.01-6.63,.2-13.25,1.2-19.85,2.03-2.52,.31-3.33-.24-3.62-3-4.56-43.63-23.68-79.69-56.67-108.52-7.29-6.37-16.35-9.27-26.27-13.87,11.15-1.41,20.92-2.57,30.66-3.89,42.04-5.7,84.07-11.47,125.96-18.16,17.1-2.73,33.74-7.31,49.53-14.45,18.57-8.39,38.21-14.2,56.41-23.48,2.84-1.45,6.12-2.45,4.22-6.25-1.83-3.66-4.93-1.47-7.36-.29-22.39,10.9-45.83,19.29-68.97,28.33-23.38,9.14-48.38,11.57-73.06,15.03-27.35,3.84-54.65,8.07-82.06,11.47-29.86,3.71-59.58,9.04-89.85,8.66-23.45-.3-43.55-8.03-59.1-26.16-2.18-2.54-4.29-5.12-5.54-8.23-4.27-10.61-8.44-21.24-10.12-32.69-.4-2.73,.11-4.14,2.73-4.75,3.88-.9,7.7-2.13,11.77-1.87,18.47,1.2,36.95-.1,55.43,.08,14.59,.15,28.9,1.75,42.75,6.35,17.41,5.79,34.86,6.64,53.06,3.7,21.65-3.5,43.63-4.94,64.98-10.4,5.51-1.41,10.66-3.62,15.35-6.86,6.85-4.73,6.76-10.81-.21-15.5-6.27-4.22-13.59-5.32-20.73-6.58-30.12-5.3-60.34-10.1-90.13-17.13-17.27-4.08-34.41-8.69-51.61-13.06-.56-.54-.66-1.21-.51-1.94,.37-1.63,2.68-3.16,.83-4.88-1.54-1.43-3.04-.04-4.32,1.03-1.24,.72-.62,3.41-3.03,2.89-15.42-2.47-30.86-4.91-46.27-7.42-8.07-1.32-16.2-2.01-24.34-2.16-3.35-.06-5.07-1.44-6.3-4.21-3.8-8.51-8.74-16.32-15-23.82,5.58-1.63,9.61-5.16,13.38-9.11,5.12-5.36,11.11-9.62,18.06-12.16,12.66-4.63,22.46-12.9,30.25-23.56,6.23-8.53,13.23-16.7,14.82-27.83,1.29-9.05-2.1-16.58-10.29-20.76-4.76-2.43-9.69-4.51-14.48-7.23,14.66,.44,27.88-3.73,40.29-10.94,6.45-3.75,10.15-9.46,11.86-16.51,.57-2.33,1.19-5.36-2.24-6.17-3.17-.74-3.93,1.98-4.42,4.24-2.48,11.46-12.14,14.55-21.24,18.09-2.6,1.01-3.78-1.74-4.96-3.71-3.69-6.14-7.36-12.27-14.05-15.79-4.23-2.22-8.65-3.31-13.83-2.79,4.33-14.35,9.93-27.55,19.79-38.72,14.22-16.1,26.2-33.87,38.47-51.46,15.46-22.17,34.43-40.09,61.65-46.93,20.3-5.1,39.51-13.51,59.53-19.41,24.99-7.36,50.44-12.38,76.65-11.18,18.79,.86,37.59,2.13,56.39,1.78,19.67-.36,39.27-.06,58.82,2.13,2.63,.3,5.28,.82,7.9,.75,11.99-.33,21.55-5.92,29.09-14.77,15.99-18.74,30.91-38.34,46.13-57.71,25.33-32.24,52.46-62.94,81.98-91.43,17.23-16.62,37.72-28.17,59.85-36.9,23.17-9.14,45.09,5.88,44.11,31.77-.52,13.69-2.56,27.18-4.75,40.64-6.66,40.84-15.41,81.28-27.27,120.9-6.16,20.58-11.46,41.54-20.57,61.2-4.56,9.85-10.56,18.32-19.1,25.13-7.07,5.63-13.51,11.94-15.41,21.4-1.12,5.58,1.21,8.78,6.87,8.93,2.98,.08,5.98-.43,8.97-.44,5.13,0,7.2,3.34,4.93,7.96-1.71,3.47-4.45,6.2-6.91,9.12-3.44,4.08-6.8,8.21-9.22,13-2.29,4.53-3.42,9.3-2.94,14.45,3.8,40.59,8.78,81.05,13.82,121.5,2.96,23.77,7.17,47.39,8.27,71.39,.31,6.69-.19,13.37-.91,19.9-2.07,18.84,3.51,36.13,9.24,53.53,4.1,12.45,8.93,24.61,14.24,36.58,.79,1.78,1.47,2.8-1.4,3.86-33.74,12.49-66.66,26.97-99.67,41.25-49.79,21.53-100.61,40.42-151.5,59.11-4.52,1.66-9.17,2.95-13.76,4.41-2.05,.62-4.06,1.34-6.08,2.06Z"/>
      <path class="cls-5" d="M424.35,891.7c-1.5,0-3.02-.18-4.49,.04-3.13,.46-4.38-1.03-5.18-3.88-4.78-17.05-11.17-33.68-12.78-51.56-.56-6.25-2.28-12.4-3.41-18.61-1.24-6.87-1.13-6.77,5.67-8.79,31-9.21,63.17-14.09,93.71-24.88,45.97-16.24,91.75-32.98,136.83-51.62,40.78-16.85,80.97-35.13,122.08-51.22,8.09-3.17,16.57-4.7,24.8-7.24,5.68-1.76,8.46,0,11.36,5.39,9.23,17.14,15.31,35.64,23.06,53.42,2.33,5.34,3.26,11.29-.34,16.25-3.04,4.18-7.08,7.8-11.2,10.99-16.34,12.65-35.3,20.38-54.26,27.99-34.64,13.91-68.14,30.58-103.3,43.21-44.16,15.86-87.97,32.89-133.38,44.98-27.29,7.26-55.01,12.68-83.18,15.4-1.98,.19-3.99,.03-5.99,.03,0,.03,0,.06,0,.09Z"/>
      <path class="cls-12" d="M293.87,227.15c-9.67,2.84-19.37,5.62-28.54,9.85-8.36,3.85-8.59,3.93-13.49-4.05-10.23-16.65-26.46-23.52-44.44-27.22-7.82-1.61-12.69,1.84-14.3,9.58-3.5,16.78-3.16,33.3,4.38,49.19,1.91,4.02,3.2,8.34,4.8,12.51,.78,2.03,1.47,4.48,4.35,3.76,3-.75,2.94-3.37,2.4-5.7-1.16-5.02-3.2-9.76-5.39-14.4-6.61-14.01-6.48-28.59-3.71-43.38,.75-4.02,3.21-5.68,7.24-4.61,15.65,4.14,30.47,9.6,39.19,24.76,1.48,2.57,3.35,4.89,5.97,6.82-6.64,5.08-12.01,11.02-17.88,16.4-7.19,6.58-13.34,13.98-18.02,22.49-6.12,11.14-16.1,19.46-21.92,30.92-2.73-2.16-3.37-5.22-4.28-7.96-3.82-11.54-9.11-22.25-15.38-32.73-14.01-23.44-25.05-48.24-29.85-75.42-1.38-7.85-3.13-15.64-4.6-23.48-1.29-6.92-.21-13.66,2.63-19.98,3.72-8.29,11.29-10.15,19.43-10.55,22.9-1.12,43.04,6.63,61.49,19.51,8.76,6.11,16.4,13.39,23.61,21.36,13.14,14.54,26.45,29.06,43.57,39.27,1.06,.63,2.32,1.27,2.75,3.07Z"/>
      <path class="cls-5" d="M395.46,915.93c2.31,8.35,4.01,9.72,12.69,9.99,4.97,.16,10.01,.7,14.78-1.26,7.25-2.96,11.4-8.22,11.86-16.22,.25-4.25,3.47-5.1,6.63-4.49,17.54,3.42,31.29,12.35,38.22,29.3,6.61,16.17,3.46,31.36-7.3,44.89-20.34,25.57-61.41,27.6-83.5,4.09-21.29-22.67-11.63-53.76,6.62-66.31Z"/>
      <path class="cls-5" d="M380.92,893.05c-13.67,.36-27.12-2.09-40.66-3.28-7.41-.65-12.99-7.53-13.37-16.14-.28-6.32,.23-12.62,.89-18.91,.89-8.48-.47-16.92-.69-25.38-.21-7.76,1.55-9.77,9.27-10.28,6.62-.44,13.25-1.86,19.89-1.06,7.82,.94,14.91-2.31,22.36-3.45,2.67-.41,3.65,.17,3.91,2.66,2.22,21.31,6.77,42.16,12.79,62.69,.23,.8,.44,1.61,.59,2.42q1.98,10.4-8.49,10.71c-2.16,.06-4.33,0-6.49,0Z"/>
      <path class="cls-5" d="M335.67,597.73c-24.36,.5-48.25-3.42-72.12-8.01-7.82-1.51-12.63-3.99-13.76-12.25-.39-2.84-1.99-5.6-3.39-8.21-2.9-5.39-7.78-6.11-12.29-1.5-1.78,1.83-3.14,1.99-5.13,1.16-13.06-5.44-26.17-5.07-39.41-.55-4.73,1.61-9.42-1.31-14.26-.71-3.28,.41-6.64,.11-9.95,.36-2.79,.21-5.2,1.64-7.44-2.23-1.56-2.7-5.33-.52-7.53,1.1-3.73,2.75-5.32,1.08-6.71-2.38-1.69-4.21-1.65-8.39-.3-12.64,.8-2.52,2.67-3.51,5.12-4.11,7.16-1.74,14.25,.27,21.38,.18,24.92-.3,48.53,7.06,72.23,13.28,37.96,9.96,76.43,17.16,115.08,23.65,4.69,.79,9.25,2.43,13.8,3.87,1.54,.49,3.29,1.45,3.31,3.35,.02,2.12-2.13,2.23-3.56,2.85-4.82,2.08-10.06,2.31-15.15,2.67-6.62,.47-13.29,.11-19.94,.11Z"/>
      <path class="cls-12" d="M747.85,355.98c-2.5,1.73-5.5,2.14-8.26,3.18-4.32,1.62-7.81,4.31-10.37,8.86-2-5.55-1.09-10.22,1.15-14.79,3.12-6.36,8.16-11.3,12.5-16.76,2.62-3.29,4.96-6.66,5.23-11.07,.44-7.14-3.87-12.21-10.98-12.74-1.49-.11-3-.02-4.5-.03-1.93,0-4.54,1.4-5.6-.23-1.22-1.88,.82-4,1.85-5.86,1.63-2.95,3.93-5.35,6.39-7.62,5.49-5.08,11.61-9.52,16.22-15.52,4.48-5.82,7.27-12.6,10.6-19.19,4.77,10.02,8.07,28.41,7.31,42.36-.31,5.71,.08,11.26,1.23,16.85,.66,3.18,1.44,6.55-.73,9.59-5.29,9.63-13.09,16.83-22.04,22.95Z"/>
      <path class="cls-13" d="M130.98,532.86c2.3,3.8,2.77,6.81-1.67,9.99-4.56,3.27-4.42,8.61-3.28,13.73,.43,1.91,1.03,3.79,1.55,5.68-3.66-.24-10.99-6.3-11.49-9.42-.31-1.89,.93-1.7,2.11-1.8,1.51-.13,2.44-1.04,2.66-2.52,.18-1.26-.37-2.29-1.46-2.95-1.55-.95-3.02-.58-3.93,.83-1.89,2.92-2.67,.56-3.17-.75-2.28-6.08-4-12.31-4.34-18.84-.12-2.32-.43-4.65-.39-6.97,.04-2.31-1.99-5.13,.27-6.81,2.92-2.17,9.14-.67,11.56,2.15,3.8,4.43,6.6,9.53,9.5,14.55-.72,1.83-4.83,1.13-3.73,3.52,1.35,2.91,3.48-.53,5.34-.5,.16,0,.31,.08,.47,.12Z"/>
      <path class="cls-6" d="M187.46,590.83c-10.63,.87-20.53,1.93-30.52,1.52-3.02-.13-3.4-1.25-3.42-4.24-.04-5.34,1.17-8.48,6.63-10.99,8.86-4.07,16.89-1.36,25.18,.78,1.96,.5,1.33,2.28,1.06,3.8-.53,2.97-.75,5.95,1.08,9.14Z"/>
      <path class="cls-6" d="M192.8,590.57c-.41-5.19,2.05-9.98,.59-14.96-.39-1.35,.74-1.53,1.73-1.86,10.2-3.36,20.24-2.94,30.22,.97,1.65,.65,2.13,1.32,1.24,2.9-1.55,2.74-3.12,5.48-4.49,8.3-.82,1.69-2.24,1.9-3.71,1.96-8.58,.32-17.09,1.38-25.58,2.68Z"/>
      <path class="cls-13" d="M148.62,455.94c-8.81,4.13-16.41,6.4-24.77,4.39-6.55-1.58-9.1-4.46-8.82-11.11,.18-4.41-.09-10.07,4.41-11.9,4.47-1.81,6.85,3.48,9.72,6.22,1.54,1.47,2.64,3.39,4.01,5.05,3.61,4.38,7.9,7.56,15.46,7.35Z"/>
      <path class="cls-3" d="M747.85,355.98c2.59-4.42,7.4-6.48,10.73-10.16,3.77-4.16,7.98-7.9,10.47-13.07,.04-.08,.33-.09,.47-.04,.14,.05,.25,.21,.37,.32-4.24,10.63-10.07,19.74-22.04,22.95Z"/>
      <path class="cls-10" d="M237.96,573.81c1.42,3.91,2.63,7.22,3.99,10.94h-11.56c1.64-4.02,4.57-7.05,7.57-10.94Z"/>
      <path class="cls-7" d="M423.52,914.07c-3.88,4.42-9.01,5.12-14.36,4.63-2.32-.21-3.02-2.14-3.06-6.89,5.36,5.16,11.34,3.15,17.42,2.26Z"/>
      <path class="cls-9" d="M147.52,577.4c-.29,3.63-.64,7.05-.82,10.48-.08,1.6-.42,2.51-2.3,2.13-1.38-.28-2.82-.53-2.35-2.35,.97-3.74,1.32-7.86,5.47-10.27Z"/>
      <path class="cls-41" d="M130.98,532.86c-1.09,.11-.91,1.19-1.37,1.79-1.31,1.72-3.08,1.82-4.9,1.19-1.41-.49-1.99-1.73-1.74-3.18,.37-2.18,1.88-2.94,3.94-2.91,.66,.01,1.32-.01,1.98-.02,.51,1.17,2.27,1.51,2.08,3.14Z"/>
      <path class="cls-11" d="M399.47,802.74c-1.54,.13-2.23-.44-1.71-1.37,1.56-2.78,4.77-2.46,7.26-3.44,.98-.38,2.15,1.2,1.78,1.82-1.75,2.91-5.39,1.46-7.33,2.99Z"/>
      <path class="cls-2" d="M221.96,546.91c0,.63,0,1.25,0,1.88-2.67-.19-5.12-.88-7.04-2.89,1.61-.89,.36-3.15,1.95-4.04,1.35,2.03,2.98,3.79,5.09,5.05Z"/>
      <path class="cls-15" d="M493.36,777.88c1.8-1.36,3.75-2.27,6.08-2.06-1.77,1.45-3.78,2.2-6.08,2.06Z"/>
      <path d="M400.1,424.45c-17.2,.85-31.06-7.65-45-15.77-6.35-3.7-12.61-7.32-20.14-8.12-2.04-.22-3.95,.11-5.91,.15-2.2,.05-4.48-.45-5.09-3.05-.67-2.85,1.34-3.96,3.61-4.35,4.01-.7,6.43-3.32,8.32-6.55,5.92-10.11,13.3-19.05,21.25-27.6,11.61-12.48,35.3-18.42,51.42-12.63,7.32,2.63,14.54,5.57,21.86,8.22,9.07,3.27,16.63,9.05,23.97,14.96,9.38,7.56,10.11,18.88,.94,29.46-14.43,16.64-33.17,24.98-55.23,25.27Z"/>
      <path d="M626.38,275.29c1.06-13.24,5.54-25.37,10.96-37.15,10.21-22.19,23.26-42.63,39.96-60.49,15.8-16.89,33.83-30.53,57.29-35.04,9.49-1.82,15.28,2.39,17.25,11.89,2.02,9.75,.15,18.97-4.3,27.54-5.2,10.01-11.09,19.66-16.73,29.44-.74,1.28-1.64,2.51-2.67,3.57-1.46,1.5-3.42,1.62-5.02,.48-1.79-1.28-1.58-3.14-.36-4.86,6.55-9.24,11.21-19.58,16.98-29.28,4.61-7.77,7-16.16,5.11-25.29-1.24-6.02-3.48-7.55-9.49-6.38-15.98,3.11-29.51,11.14-41.35,21.86-28.22,25.57-47.62,56.86-58.88,93.2-1.07,3.46-1.43,7.18-1.88,10.8-.35,2.79,.14,6.48-3.95,6.1-3.72-.34-2.5-4.02-2.92-6.38Z"/>
      <path class="cls-4" d="M682.17,241.86c2.86,2.6,5.27,4.42,7.25,6.63,7.09,7.94,8.44,16.79,3.47,26.25-4.94,9.4-11.58,17.8-16.5,27.25-1.03,1.98-2.95,3.52-5.38,2.1-2.74-1.61-1.72-3.86-.55-6.03,4.11-7.6,8.77-14.86,13.51-22.08,6.98-10.62,6.17-17.25-2.92-25.95-1.08-1.04-2.22-2.03-3.21-3.15-3.88-4.42-3-9.16,2.3-11.84,4.39-2.22,9.27-2.49,14.05-3.06,6.76-.81,13.58-1.34,19.84-4.4,2.01-.98,3.98-1.17,5.21,1.02,1.43,2.53-.24,4.19-2.23,5.26-6.76,3.64-14.31,4.08-21.7,5.04-4.08,.53-8.2,.81-13.16,2.97Z"/>
      <path class="cls-22" d="M153.93,525c-2.28,.08-3.9-.79-4-3.27-.1-2.54,1.76-3.46,3.83-3.64,2.14-.19,4.02,.59,4.23,3.1,.23,2.82-1.61,3.69-4.06,3.81Z"/>
      <path class="cls-23" d="M221.96,546.91c-3.93,.57-5.9-.84-5.09-5.05,.8-.59,1.52-1.41,2.41-1.72,1.75-.6,3.67-.96,4.87,1.03,1.66,2.77-.4,4.23-2.19,5.74Z"/>
      <path class="cls-37" d="M172.36,521.61c2.47,.17,4.5,1.05,4.49,3.7,0,2.43-1.95,3.4-4.11,3.3-2.06-.09-4.04-.88-4.1-3.4-.06-2.44,1.54-3.46,3.72-3.61Z"/>
      <path class="cls-26" d="M227.9,481.73c-.3,2.3-1.78,3.38-4.06,3.43-2.19,.05-4.08-.55-4.15-3.19-.07-2.57,1.73-3.49,3.91-3.53,2.11-.04,3.98,.62,4.3,3.28Z"/>
      <path class="cls-20" d="M142.02,531.71c-2.22-.19-3.37-1.34-3.31-3.55,.07-2.29,1.31-3.88,3.52-4.13,2.11-.23,3.52,1.13,3.57,3.26,.07,2.48-1.39,3.95-3.79,4.42Z"/>
      <path class="cls-22" d="M189.62,479.74c-.07,2.36-1.23,3.75-3.3,3.88-2.11,.14-4.07-.62-4.34-3.1-.27-2.43,1.19-3.72,3.5-3.92,2.36-.21,3.72,1.04,4.14,3.14Z"/>
      <path class="cls-30" d="M293.39,493.04c-.13,2.31-1.38,3.68-3.65,3.81-2.2,.13-3.43-1.32-3.45-3.31-.03-2.18,1.2-3.72,3.6-3.78,2.19-.06,3.25,1.21,3.5,3.28Z"/>
      <path class="cls-31" d="M269.96,461.43c-.27,2.54-1.58,3.65-3.95,3.63-2.21-.02-3.39-1.11-3.39-3.31,0-2.14,1.26-3.43,3.29-3.6,2.33-.19,3.57,1.25,4.04,3.28Z"/>
      <path class="cls-18" d="M244.74,451c-2.33-.1-3.81-1.07-3.9-3.51-.07-1.99,1.09-3.13,2.93-3.23,2.17-.11,3.94,.85,4.13,3.23,.17,2.12-1.11,3.29-3.16,3.51Z"/>
      <path class="cls-37" d="M153.48,506.75c2.09,.26,3.25,1.73,3.09,4-.13,1.83-1.3,3.19-3.26,3.08-2.28-.13-3.7-1.56-3.69-3.88,0-2.18,1.33-3.29,3.86-3.2Z"/>
      <path class="cls-29" d="M220.22,525.92c.03,2.28-1.18,3.52-3.18,3.76-2.35,.27-3.91-1.1-3.91-3.35,0-1.95,1.43-3.27,3.51-3.42,2.17-.15,3.34,.98,3.58,3.01Z"/>
      <path class="cls-32" d="M290.44,510.92c2.09,.36,3.6,1.47,3.63,3.86,.02,1.96-1.04,3.16-3.05,3.15-2.38-.01-3.76-1.43-3.8-3.71-.03-1.85,1.15-3.04,3.23-3.31Z"/>
      <path class="cls-37" d="M140.46,506.65c1.93,.06,3.28,.99,3.34,2.94,.07,2.34-1.39,3.81-3.66,3.88-2.1,.06-3.46-1.22-3.3-3.47,.15-2.15,1.49-3.22,3.61-3.34Z"/>
      <path class="cls-32" d="M231.03,494.47c-.39,2.22-1.85,3.35-4.09,3.18-1.82-.14-3.08-1.29-3.01-3.23,.09-2.33,1.55-3.63,3.82-3.58,2.11,.04,3.19,1.4,3.28,3.63Z"/>
      <path class="cls-37" d="M255.79,540.41c1.92,.11,3.39,.95,3.32,3.26-.07,2.19-1.41,3.28-3.51,3.35-2.15,.07-3.57-1.07-3.53-3.22,.03-2.11,1.53-3.15,3.72-3.39Z"/>
      <path class="cls-32" d="M197.22,499.43c-.08,1.16-1.15,2.45-3.31,2.59-2.19,.14-3.57-1.02-3.53-3.18,.04-2.33,1.56-3.66,3.87-3.58,1.88,.06,3.02,1.21,2.97,4.18Z"/>
      <path class="cls-38" d="M272.86,518.84c-.26,2.12-1.52,3.32-3.55,3.43-2.05,.11-3.57-.81-3.55-3.12,.02-2.16,1.26-3.3,3.41-3.4,2.16-.09,3.37,.98,3.69,3.09Z"/>
      <path class="cls-35" d="M198.21,526.81c-.02,.62-.96,2.02-3.13,2.19-2.2,.17-3.49-1.01-3.5-3.17-.02-2.34,1.45-3.73,3.7-3.73,1.87,0,2.95,1.26,2.94,4.71Z"/>
      <path class="cls-36" d="M247.72,491.73c-.32,1.87-1.36,3.19-3.29,3.1-2.1-.1-3.35-1.48-3.28-3.63,.07-1.96,1.41-3.16,3.24-3.1,2.07,.07,3.25,1.47,3.33,3.62Z"/>
      <path class="cls-39" d="M256.05,512.02c-.15,2.44-1.45,3.59-3.54,3.56-1.93-.02-3.15-1.31-3.12-3.19,.03-2.09,1.29-3.41,3.5-3.33,1.95,.07,2.93,1.29,3.15,2.96Z"/>
      <path class="cls-17" d="M242.41,527.18c-.1,1.9-1.04,3.2-2.97,3.25-2.09,.05-3.44-1.09-3.38-3.3,.05-2.15,1.31-3.33,3.46-3.25,2.01,.08,2.75,1.48,2.9,3.3Z"/>
      <path class="cls-40" d="M290.66,472.84c-.3,1.78-1.21,3.09-3.2,3.06-2.13-.03-3.43-1.31-3.49-3.4-.05-1.98,1.29-3.01,3.19-3.04,2.15-.03,3.34,1.15,3.5,3.38Z"/>
      <path class="cls-24" d="M170.33,504.14c-.21,1.93-1.2,3.09-3.23,3-1.94-.09-3.12-1.16-3.1-3.15,.02-2.22,1.34-3.38,3.51-3.26,2.04,.11,2.79,1.51,2.81,3.41Z"/>
      <path class="cls-43" d="M217.96,449.97c-1.91-.34-3.08-1.44-2.88-3.36,.2-1.88,1.52-2.93,3.45-2.71,1.7,.19,2.6,1.34,2.55,3.06-.06,1.98-1.19,2.95-3.12,3.01Z"/>
      <path class="cls-40" d="M209.97,467.77c1.96,.2,3.11,1.24,2.96,3.21-.14,1.93-1.41,3.01-3.33,2.85-1.66-.14-2.69-1.26-2.7-2.98-.01-1.99,1.13-2.97,3.06-3.08Z"/>
      <path class="cls-27" d="M275.33,553.08c-1.88,.02-3.31-.65-3.45-2.71-.14-2.17,.97-3.5,3.19-3.53,1.95-.03,3.09,1.14,3.21,3.05,.12,1.98-.97,3.05-2.95,3.2Z"/>
      <path class="cls-28" d="M265.75,488.58c2.2,.15,3.29,1.13,3.31,3.13,.02,1.93-.84,3.16-2.88,3.25-2.25,.1-3.4-1.08-3.35-3.28,.05-1.98,1.33-2.86,2.92-3.11Z"/>
      <path class="cls-19" d="M158.78,492.74c-.15,1.97-1.04,3.16-3.02,3.25-1.74,.08-2.83-.82-3.01-2.53-.2-1.88,.67-3.27,2.61-3.48,1.94-.21,2.93,1.08,3.42,2.76Z"/>
      <path class="cls-25" d="M285.29,533.23c2.13,.31,3.08,1.49,2.89,3.45-.18,1.79-1.33,2.6-3.08,2.5-1.75-.1-2.8-1.08-2.81-2.83-.01-2.01,1.23-2.94,3-3.12Z"/>
      <path class="cls-36" d="M215.12,500.81c-.2,1.94-1.2,3.13-3.16,2.98-1.9-.15-3-1.44-2.86-3.32,.12-1.63,1.22-2.65,2.96-2.67,2.01-.02,2.96,1.08,3.06,3Z"/>
      <path class="cls-34" d="M186.85,513.11c-.29,1.91-1.36,2.97-3.3,2.89-1.75-.06-2.72-1.08-2.75-2.81-.04-1.92,.95-3.19,2.91-3.19,1.92,0,2.89,1.27,3.15,3.1Z"/>
      <path class="cls-42" d="M270.84,472.82c1.93,.32,2.99,1.47,2.76,3.36-.23,1.86-1.5,2.92-3.43,2.67-1.7-.22-2.53-1.42-2.47-3.1,.07-1.97,1.19-2.92,3.14-2.94Z"/>
      <path class="cls-21" d="M244.9,464.41c-.15,1.94-1.19,3.1-3.08,3.13-1.93,.03-3-1.13-2.97-3.09,.02-1.74,1.02-2.74,2.72-2.81,1.89-.08,3.06,.86,3.34,2.78Z"/>
      <path class="cls-33" d="M121.04,520.82c-.07,2.36-.89,4.03-3.42,4.14-2.29,.1-3.41-1.33-3.43-3.4-.01-2.19,1.02-3.97,3.47-4.05,2.15-.07,3.38,1.14,3.37,3.3Z"/>
      <path class="cls-37" d="M118.03,536.6c-.47,2.24-1.67,3.49-3.84,3.24-2.06-.24-3.39-1.51-3.21-3.7,.17-2.17,1.63-3.32,3.73-3.12,2.08,.2,3.13,1.65,3.32,3.59Z"/>
      <path class="cls-1" d="M447.14,373.37c10.08,6.71,9.33,14.69-.08,24.24,1.49-8.4,1.55-16.28,.08-24.24Z"/>
      <path class="cls-16" d="M346.05,384.46c-.9,4.51-1.26,7.45-.84,10.96-1.89-.42-4.1-.27-4.77-1.21-1.1-1.53,1.1-2.76,1.8-4.15,.8-1.58,1.99-2.97,3.82-5.6Z"/>
    </g>
  </g>
</svg>