<svg width="91" height="104" viewBox="0 0 91 104" fill="none" xmlns="http://www.w3.org/2000/svg">
<path d="M7.96924 49.4512H8.53597C8.41541 49.5791 8.31237 49.6365 8.17429 49.6242C8.10629 49.5668 8.03828 49.5095 7.97027 49.4512H7.96924Z" fill="#898989"/>
<path d="M89.6416 89.9766C89.6725 90.0246 89.7013 90.0737 89.7301 90.1218C89.7044 90.0717 89.6756 90.0226 89.6416 89.9766Z" fill="black"/>
<path d="M35.8113 94.7107C35.8689 93.864 36.0396 93.0265 36.018 92.1726C36.0088 91.7865 36.2936 91.905 36.4911 91.9224C37.5987 92.0174 38.7063 92.1246 39.82 92.1073C40.145 92.1021 40.47 92.0766 40.7939 92.0725C40.9225 92.0715 41.0901 91.9857 41.1745 92.1256C41.2794 92.2982 41.0541 92.3309 40.9924 92.4361C40.8701 92.6455 40.6757 92.7824 40.4834 92.9274C38.624 94.3256 37.6738 96.1498 38.1684 98.4723C38.6651 100.802 40.2705 102.161 42.5505 102.678C44.7276 103.172 46.7423 102.719 48.4381 101.227C51.6591 98.3927 50.6585 93.4871 46.588 92.0848C46.3011 91.9857 46.0059 91.9081 45.6902 91.8131C48.7631 91.3004 51.8113 90.7928 54.7598 89.8572C61.611 87.6838 68.3872 85.3101 74.9423 82.3492C77.0351 81.4045 79.2225 80.6701 81.2547 79.5865C81.9324 79.2249 82.5834 78.8184 83.1953 78.3527C83.2909 78.2801 83.3969 78.08 83.5285 78.3527C84.2227 79.7969 85.3179 80.9969 86.0409 82.4268C86.4245 83.1857 86.7721 83.9538 87.0488 84.7545C87.7234 86.7053 88.6191 88.5815 89.0336 90.6191C89.0531 90.7172 89.1004 90.8101 89.1364 90.9051C89.229 91.1543 89.3894 91.3423 89.6733 91.2391C89.9499 91.139 89.8913 90.8969 89.8265 90.6743C89.7555 90.4302 89.6918 90.1851 89.6239 89.9399C89.3082 88.5887 88.759 87.3161 88.3096 86.0087C87.4663 83.5554 86.3998 81.2278 84.8294 79.1411C84.5466 78.7643 84.3523 78.321 84.1229 77.9053C84.0509 77.7746 83.9861 77.6561 84.1394 77.5039C85.0022 76.649 84.9672 75.6297 84.5343 74.6247C83.7774 72.87 83.1572 71.0571 82.2584 69.3617C81.7401 68.3842 81.2259 68.0635 80.1481 68.3097C79.5969 68.4363 79.4426 68.2371 79.3706 67.7888C78.3093 65.6123 77.5318 63.3357 77.0742 60.9641C76.9487 60.3165 76.9734 59.619 77.104 58.9489C77.1904 57.5538 77.1812 56.1576 76.9878 54.7757C76.3944 50.5187 75.8998 46.2494 75.3496 41.9873C75.3105 41.6829 75.367 41.4838 75.5676 41.2611C76.596 40.1182 77.3406 38.8088 77.792 37.3442C77.8836 37.049 78.0481 36.8662 78.2744 36.6671C79.3141 35.756 80.1954 34.7183 79.9805 33.223C79.8581 32.3733 79.7913 31.5398 79.8931 30.6921C79.9486 30.2284 79.8869 29.7749 79.7738 29.3286C79.5989 28.6392 79.4231 27.9498 79.2184 27.2685C78.9716 26.4443 78.9572 25.6109 79.2277 24.8101C80.6613 20.5613 81.7576 16.2256 82.6132 11.8318C83.1069 9.29983 83.6303 6.76891 83.6355 4.16445C83.6385 2.28107 82.7428 0.947183 80.6181 0.258789C80.1687 0.258789 79.7193 0.258789 79.2699 0.258789C77.5822 0.542726 76.1301 1.38228 74.6924 2.2249C71.8879 3.86928 69.8393 6.35322 67.6581 8.66863C66.0692 10.3549 64.6438 12.1923 63.1547 13.9705C62.9768 14.1829 62.8729 14.2238 62.6394 14.0277C62.1694 13.6345 61.6779 13.2606 61.1657 12.9226C57.05 10.2017 52.4757 9.21199 47.6185 9.6716C39.819 10.41 33.5601 13.9572 28.8798 20.2161C28.5487 20.6583 28.1774 20.7043 27.7434 20.3213C27.1665 19.8137 26.5844 19.3091 26.1113 18.6994C25.3822 17.7607 24.4947 16.9937 23.5269 16.3094C21.538 14.903 19.3526 14.0849 16.8844 14.1247C14.7423 14.1594 13.4814 15.2441 13.7067 17.678C14.0522 21.4131 15.2359 24.9276 17.157 28.1755C17.3133 28.44 17.3606 28.7005 17.3359 28.9997C17.2104 30.4909 17.5241 31.8687 18.4271 33.0943C18.677 33.4334 18.7263 33.7735 18.4075 34.132C17.92 34.6826 17.555 35.3148 17.2207 35.9684C16.5399 37.3023 16.2653 38.7527 15.9578 40.1928C15.9033 40.4481 15.7738 40.7658 16.0525 41.0058C16.1162 41.016 16.1995 41.0037 16.2407 41.0395C16.3096 41.0987 16.2479 41.1569 16.1861 41.1794C16.0278 41.2366 15.8653 41.2489 15.7028 41.1957C13.7139 41.2611 11.8236 41.7452 10.0321 42.5878C9.38424 42.8922 9.01607 43.4631 8.82787 44.1577C8.61294 44.9502 8.68492 45.7724 8.53375 46.5711C8.48541 46.8275 8.55123 47.1247 8.77645 47.2626C9.36985 47.6272 9.1436 48.0807 8.98111 48.5454C8.88649 48.8171 8.79908 48.9989 8.42679 48.859C7.99075 48.6945 7.51254 48.7599 7.05181 48.7987C5.18833 48.956 3.37524 49.3768 1.57141 49.8415C1.01915 49.9845 0.441188 50.0917 0 50.5064V50.8128C0.183057 50.9313 0.345546 51.0539 0.600592 50.9364C1.34825 50.5943 2.15246 50.4176 2.95154 50.245C4.65356 49.8783 6.34426 49.4166 8.11313 49.5024C8.1882 49.5382 8.2715 49.5372 8.35172 49.5555C8.45559 49.579 8.45662 49.5749 8.31778 49.675C8.23654 49.6995 8.15221 49.7179 8.07405 49.7506C5.81463 50.6811 3.79689 52.0088 1.87376 53.4888C1.55084 53.738 1.25672 54.0281 0.970819 54.3191C0.828899 54.4631 0.793933 54.6674 0.95745 54.8247C1.11377 54.9748 1.303 54.9483 1.46754 54.8155C1.5601 54.741 1.63826 54.649 1.72979 54.5724C3.74341 52.8658 5.93701 51.441 8.3764 50.4063C8.53786 50.3379 8.72298 50.1745 8.86284 50.5125C8.98933 50.8179 8.84021 50.8792 8.6335 50.9967C6.16326 52.3959 3.8915 54.0352 2.12881 56.2934C1.96426 56.5038 1.76578 56.7336 2.01466 56.9583C2.29541 57.2116 2.51755 56.9747 2.68929 56.751C4.22471 54.7604 6.22702 53.3141 8.32292 51.9761C8.58003 51.8117 8.8505 51.6595 9.13228 51.5462C9.55187 51.3776 9.60741 51.825 9.80383 52.0068C9.99101 52.1804 9.78738 52.2877 9.64032 52.3857C8.11621 53.3999 6.71963 54.5786 5.2994 55.7255C4.38308 56.465 3.45443 57.1963 2.71706 58.1278C2.54326 58.3474 2.26456 58.6109 2.60393 58.8652C2.896 59.0838 3.09037 58.807 3.2724 58.5935C3.4822 58.3463 3.69508 58.0992 3.93264 57.8806C5.56473 56.3751 7.31097 55.0045 9.08292 53.6665C9.45212 53.3877 9.80281 53.069 10.3006 52.8903C10.3335 53.4101 10.3438 53.8861 10.4013 54.3569C10.4343 54.6286 10.3448 54.7747 10.1401 54.9524C9.01607 55.9237 7.91156 56.9164 6.80499 57.9072C6.59828 58.093 6.35969 58.329 6.6353 58.5925C6.90783 58.8519 7.12585 58.5884 7.32845 58.4046C8.1882 57.6242 9.04487 56.8409 9.91285 56.0687C10.1319 55.8736 10.3335 55.6408 10.6338 55.5243C10.6996 55.7194 10.7212 55.9022 10.8148 56.035C11.1202 56.466 10.9413 56.7571 10.6194 57.087C10.2039 57.5129 9.8388 57.9889 9.46549 58.4546C9.29889 58.663 9.06544 58.9265 9.36265 59.1614C9.65986 59.3963 9.85011 59.1154 10.027 58.902C10.5011 58.33 10.9783 57.7621 11.4863 57.1534C11.6457 57.5088 11.8452 57.757 12.1157 57.947C12.1959 58.0032 12.2802 58.0542 12.1589 58.1778C11.6262 58.7212 11.3927 59.4555 10.9536 60.0602C10.7891 60.2869 10.6111 60.5566 10.931 60.7608C11.2292 60.9518 11.401 60.674 11.5357 60.4626C11.909 59.8753 12.2658 59.2768 12.6268 58.6813C12.6926 58.5731 12.7081 58.3821 12.9055 58.4914C13.2922 58.7038 13.7354 58.8683 14.0285 59.1726C14.2106 59.3616 13.8661 59.6761 13.7951 59.9448C13.7447 60.1378 13.7437 60.3441 13.7138 60.5433C13.5493 61.6535 13.3529 62.7698 13.6881 63.877C14.0645 65.12 14.3134 66.4263 15.1762 67.466C16.8834 69.5241 19.113 70.4698 21.7766 70.5383C22.7628 70.5638 23.7419 70.3769 24.7302 70.5086C25.4891 70.6098 26.2738 70.478 27.0194 70.7313C28.4253 71.2083 29.7478 71.815 30.7022 73.0161C30.9562 73.3358 31.2493 73.6258 31.5403 73.9138C33.736 76.0822 34.606 78.8797 35.257 81.7599C35.5172 82.911 35.4359 82.9294 34.2543 83.0938C33.484 83.201 33.0922 83.5851 32.9657 84.3572C32.9132 84.6779 32.9009 84.9986 32.941 85.3234C33.0366 86.0853 33.0295 86.8483 32.976 87.6143C32.9318 88.2404 32.8608 88.8675 32.9071 89.4977C32.9893 90.6293 33.7339 91.6017 34.7407 91.7089C35.3331 91.7722 35.3681 92.0153 35.3135 92.4903C35.0842 94.4829 34.9639 96.4848 34.9217 98.4907C34.8929 99.8338 34.8816 101.177 34.8395 102.52C34.823 103.045 34.9238 103.144 35.4524 102.989C35.548 102.804 35.5768 102.609 35.5779 102.399C35.5943 99.8338 35.6385 97.2692 35.8134 94.7076L35.8113 94.7107ZM40.903 82.002C41.0613 81.7425 41.3688 81.7742 41.6043 81.667C41.737 81.6067 41.811 81.7344 41.8553 81.8661C41.8409 82.0265 41.6763 82.002 41.5889 82.0203C41.3647 82.0683 41.1508 82.2042 40.9091 82.1327C40.8947 82.1286 40.8834 82.0336 40.904 82.0009L40.903 82.002ZM49.4953 96.0875C49.9962 98.0352 49.2588 99.6265 47.7398 100.875C45.3292 102.855 41.5097 102.488 39.6935 100.121C38.2034 98.1772 38.5458 95.3817 40.4649 93.8548C40.5152 93.8139 40.58 93.7915 40.6417 93.7578C40.9194 94.6014 41.0367 94.6933 41.9468 94.7607C42.5813 94.8077 43.2138 94.823 43.7928 94.4931C44.3512 94.1755 44.6659 93.6893 44.7348 93.0602C44.7811 92.6353 45.0094 92.4229 45.431 92.5148C47.4508 92.957 48.9657 94.0254 49.4953 96.0875ZM41.7617 93.2839C42.317 93.8589 42.9495 93.5933 43.5655 93.5341C43.1685 93.9641 42.6698 94.058 42.1545 94.0131C41.7463 93.9774 41.7267 93.6515 41.7617 93.2828V93.2839ZM80.4464 69.0073C80.9061 68.898 81.266 69.0522 81.5066 69.5026C82.4662 71.3043 83.1459 73.2244 83.9265 75.1007C84.2906 75.9739 84.0489 76.4346 83.4822 77.0484C82.1309 78.5099 80.3775 79.3015 78.5983 80.0256C74.5566 81.671 70.6189 83.5677 66.5124 85.0517C61.9627 86.6961 57.4377 88.4294 52.7502 89.6611C49.9427 90.3995 47.0909 90.9613 44.1898 91.2217C44.0026 91.2381 43.8134 91.2238 43.6252 91.2238C43.0657 91.2285 42.7051 90.9606 42.5433 90.42C42.1782 89.1862 41.6794 87.982 41.5169 86.7033C41.3843 85.6564 41.1302 84.635 40.976 83.5943C40.9153 83.1837 40.9585 82.9876 41.4398 82.8446C44.8377 81.8334 48.3651 81.3023 51.7116 80.1125C57.9273 77.9033 64.1018 75.5868 70.153 72.9589C72.8577 71.7843 75.5686 70.6241 78.333 69.5976C79.0158 69.3443 79.7347 69.1768 80.4464 69.0073ZM79.1248 31.6042C79.0703 31.9453 79.0683 32.2957 79.1536 32.6184C79.382 33.4804 79.3614 34.2812 78.7454 34.992C78.6991 35.2504 78.4955 35.4118 78.3556 35.611C78.3371 35.6978 78.2404 35.7938 78.2034 35.757C78.0882 35.6426 78.1458 35.5037 78.227 35.3812C78.3134 34.607 78.2692 33.8307 78.2589 33.0555C78.0748 31.8258 77.791 30.6237 77.2305 29.5012C77.176 29.3919 77.1431 29.2959 77.2357 29.1805C77.7242 28.5657 78.0327 27.8476 78.408 27.0775C78.8307 28.6147 79.3737 30.0466 79.1259 31.6052L79.1248 31.6042ZM63.6493 14.5067C65.6588 12.1668 67.51 9.68692 69.7365 7.53697C70.9747 6.34096 72.07 5.00094 73.4563 3.95099C74.824 2.91533 76.3183 2.10846 77.8805 1.41496C78.477 1.15043 79.1084 1.00029 79.7563 0.930841C80.9667 0.800107 82.5114 1.93994 82.7829 3.14208C83.0986 4.53929 82.8549 5.91914 82.6605 7.29695C82.061 11.5366 81.122 15.7109 79.9825 19.832C79.2935 22.3221 78.5962 24.8244 77.5298 27.197C77.3159 27.674 77.0927 28.1489 76.7431 28.5902C75.6457 26.8253 74.1813 25.4801 72.2972 24.5231C72.7621 24.3863 73.1858 24.2872 73.5889 24.134C73.8357 24.04 74.1432 23.8858 73.9746 23.5375C73.8183 23.2148 73.5539 23.3864 73.3082 23.4671C72.2458 23.8194 71.1763 24.0523 70.0502 23.7234C69.61 23.5947 69.1441 23.5518 68.6906 23.4671C68.5785 23.4456 68.414 23.4967 68.3718 23.3588C68.2216 22.8736 68.0838 22.3834 67.9625 21.8901C67.8915 21.6021 68.1353 21.4233 68.2731 21.2211C69.5761 19.3214 71.0971 17.6331 73.1056 16.4371C73.9005 15.9642 74.7531 15.619 75.6694 15.4525C76.2288 15.3514 76.4685 15.5056 76.5919 16.0571C76.8037 17.0049 76.5641 17.8802 76.0797 18.6902C75.4874 19.6809 75.0081 20.737 74.3345 21.6797C74.2101 21.8543 74.1782 22.0463 74.3592 22.1781C74.5412 22.3109 74.7675 22.2915 74.9125 22.1066C75.0997 21.8666 75.2745 21.6112 75.4164 21.3426C76.0458 20.1446 76.8891 19.0538 77.2614 17.7281C77.4496 17.0591 77.4629 16.387 77.2501 15.7201C76.9878 14.8958 76.4633 14.5731 75.6097 14.7232C73.7483 15.049 72.217 16.0071 70.8071 17.2031C69.6912 18.1489 68.7862 19.2775 67.9162 20.4377C67.8154 20.5715 67.7146 20.7063 67.5995 20.8606C66.7027 18.5993 65.411 16.6372 63.6843 14.9632C63.5228 14.807 63.4838 14.6997 63.6504 14.5057L63.6493 14.5067ZM73.6938 34.5784C73.6959 37.3708 71.4406 39.6586 68.6813 39.6647C65.7997 39.6709 63.5259 37.4555 63.5177 34.6325C63.5095 31.834 65.7843 29.5717 68.6042 29.5717C71.4097 29.5717 73.6918 31.8177 73.6938 34.5784ZM31.0354 21.219C35.0277 16.0265 40.3096 13.0206 46.7999 12.128C50.9279 11.5601 54.8832 12.1617 58.5813 14.1482C59.5172 14.6507 60.3831 15.2554 61.1966 15.9386C61.393 16.1041 61.4341 16.2144 61.2603 16.4238C60.2782 17.6024 59.3259 18.8056 58.3263 19.9689C57.7689 20.6164 56.6839 21.0332 55.9507 20.9995C53.3282 20.6113 50.6893 20.7227 48.0535 20.691C46.3772 20.6706 44.7019 20.5511 43.0256 20.5317C40.8608 20.5061 38.734 20.7952 36.633 21.3426C35.1624 21.7256 33.7267 22.1975 32.3085 22.7337C32.0154 22.845 31.7923 22.9114 31.6678 22.5039C31.5886 22.2445 31.3511 22.0515 31.1146 21.9177C30.7361 21.7042 30.8101 21.5132 31.0364 21.2201L31.0354 21.219ZM18.6091 25.0777C18.1288 25.7559 17.8686 26.5526 17.5827 27.339C15.855 24.5446 15.0251 21.4887 14.4954 18.3317C14.4049 17.7924 14.3494 17.2644 14.4708 16.7159C14.7556 15.4361 15.3747 14.9224 16.7096 14.8662C19.0636 14.7671 21.1328 15.5485 23.0282 16.864C23.928 17.488 24.7631 18.1846 25.447 19.0517C25.8028 19.5032 26.2203 19.9076 26.68 20.4101C25.1529 20.3243 23.7912 20.6389 22.5191 21.3232C22.3597 21.409 22.2332 21.361 22.0831 21.3263C21.7848 21.2568 21.4835 21.1843 21.1791 21.1588C20.5302 21.1026 20.1496 21.359 19.9203 21.9657C19.8967 22.029 19.8535 22.0913 19.8524 22.1546C19.837 23.2975 19.2405 24.1871 18.6101 25.0777H18.6091ZM21.4506 21.9708C21.1421 22.2169 20.8376 22.459 20.4849 22.7409C20.6422 21.8523 20.8191 21.7205 21.4506 21.9708ZM12.2957 44.8328C12.7461 44.6571 12.996 45.2025 13.2912 45.4844C13.4495 45.6356 13.5627 45.8317 13.7036 46.0012C14.0769 46.4496 14.5232 46.7632 15.2801 46.7417C14.3638 47.1635 13.5802 47.3954 12.7194 47.1829C12.0653 47.0216 11.8113 46.7458 11.8277 46.087C11.8391 45.6192 11.8092 45.0228 12.2957 44.8328ZM13.2994 55.6183C12.8058 55.9748 12.8726 56.5437 12.9713 57.0737C13.0042 57.2525 13.0762 57.4251 13.1318 57.6028C12.7471 57.5824 12.0057 56.9839 11.9368 56.6478C11.9028 56.4813 11.983 56.4466 12.1322 56.4446C12.3111 56.4425 12.415 56.3373 12.4232 56.1566C12.4283 56.0462 12.3687 55.9615 12.2772 55.9033C12.1188 55.8021 11.9697 55.8369 11.873 55.9819C11.6755 56.2791 11.5974 56.034 11.548 55.9022C11.3125 55.2813 11.1367 54.645 11.1007 53.977C11.0883 53.74 11.0564 53.5021 11.0606 53.2651C11.0647 53.0292 10.8559 52.7411 11.0873 52.5685C11.3855 52.3469 12.0283 52.5011 12.2761 52.7881C12.668 53.2406 12.9549 53.7615 13.2531 54.2742C13.3056 54.3927 13.4866 54.4284 13.4681 54.5949C13.7067 54.984 13.7488 55.2945 13.2994 55.6183ZM34.1237 76.171C33.6815 75.2038 32.9626 74.4133 32.2592 73.6228C31.8961 73.2152 31.4992 72.8373 31.1413 72.4247C30.3412 71.5034 29.3786 70.8263 28.2216 70.4208C28.0334 70.3554 27.8555 70.2605 27.548 70.1236C28.9991 69.9397 30.3227 69.7957 31.638 69.6027C36.0046 68.9623 40.3939 68.4782 44.7338 67.6621C46.1129 67.4027 47.4478 66.9799 48.724 66.4059C50.6338 65.5459 52.6556 64.9586 54.5263 64.0057C54.8091 63.8617 55.1752 63.78 54.9901 63.3816C54.7957 62.9619 54.4615 63.2202 54.2003 63.3449C51.8925 64.4469 49.483 65.3069 47.1043 66.2343C44.9929 67.0585 42.7376 67.3271 40.5029 67.6366C37.1297 68.1044 33.7607 68.5997 30.3834 69.0328C27.585 69.3923 24.7939 69.8529 21.9566 69.8162C19.5449 69.7855 17.4758 69.0042 15.8715 67.1566C15.6349 66.8839 15.4046 66.6071 15.2739 66.2731C14.8544 65.2007 14.4255 64.1323 14.2517 62.9802C14.1982 62.6268 14.3227 62.5288 14.6147 62.4573C15.0312 62.3552 15.4457 62.2592 15.8797 62.2888C17.6599 62.4124 19.44 62.2663 21.2202 62.2775C22.7906 62.2867 24.3301 62.4553 25.8203 62.9414C27.6128 63.5256 29.4043 63.6329 31.2781 63.3254C33.5025 62.9608 35.764 62.8138 37.9607 62.2622C38.5623 62.1111 39.1259 61.8741 39.6298 61.5156C40.2304 61.0887 40.2304 60.4759 39.6349 60.0408C38.9469 59.5383 38.116 59.4392 37.3148 59.2982C34.7047 58.8376 32.0833 58.4281 29.4948 57.8602C27.2292 57.3638 24.9698 56.8255 22.734 56.2117C20.1373 55.4988 17.4943 55.1311 14.8194 54.9452C14.4944 54.9228 14.3144 54.8012 14.2023 54.5428C13.8146 53.6522 13.2819 52.8515 12.6587 52.0844C13.1904 51.9159 13.6007 51.5972 13.9668 51.2101C14.514 50.6331 15.1526 50.1755 15.9013 49.9028C17.2382 49.4146 18.2522 48.5291 19.0667 47.4056C19.6714 46.5711 20.3492 45.7724 20.5106 44.6908C20.6546 43.7307 20.3121 42.9688 19.4411 42.5317C18.9587 42.2896 18.46 42.0813 17.9684 41.8576C19.4915 41.8515 20.852 41.4153 22.1304 40.6738C22.8091 40.2796 23.1865 39.676 23.3449 38.9294C23.3902 38.7149 23.4159 38.4554 23.1331 38.3748C22.8112 38.2828 22.7063 38.5331 22.6569 38.7731C22.4132 39.9456 21.43 40.2694 20.4952 40.6452C20.2165 40.7576 20.1116 40.5135 19.9923 40.3419C19.838 40.1192 19.7033 39.8823 19.5552 39.6555C18.9814 38.7751 18.1843 38.3033 17.0901 38.3615C17.5508 36.7947 18.2214 35.374 19.3351 34.1698C20.6433 32.7542 21.6707 31.1129 22.9377 29.6606C23.6771 28.8128 24.3517 27.9099 25.0582 27.0346C25.9478 25.9336 27.0595 25.1216 28.416 24.708C30.8101 23.9777 33.1652 23.128 35.5542 22.3916C38.1119 21.6031 40.7394 21.121 43.4359 21.2466C45.3683 21.3365 47.3017 21.4642 49.2351 21.4274C51.259 21.3896 53.2737 21.4254 55.2842 21.646C55.5383 21.6736 55.7933 21.7338 56.0463 21.7277C57.2557 21.697 58.242 21.1608 59.0153 20.2794C59.9604 19.2039 60.8593 18.0876 61.7509 16.9661C61.9699 16.6904 62.0635 16.723 62.2764 16.9508C63.9198 18.7014 65.048 20.7278 65.6599 23.0442C65.7607 23.4252 65.6846 23.5518 65.2896 23.6417C60.9816 24.6253 58.1916 27.2614 57.0284 31.4684C55.639 36.4944 58.2625 41.8157 63.0611 43.9258C63.4426 44.0933 63.4375 44.219 63.2524 44.5305C62.4564 45.8766 61.32 46.9531 60.3821 48.1849C58.7027 50.39 56.3456 51.7218 54.0728 53.1722C52.9487 53.8891 51.8082 54.5673 50.5494 55.0351C50.28 55.1352 50.1052 55.1965 49.8697 54.9177C49.5313 54.5183 48.9976 54.4662 48.5029 54.4325C46.8091 54.3161 45.3035 54.6991 44.235 56.1331C43.8411 56.6611 43.6951 57.2576 43.8062 57.9153C43.9111 58.5373 44.0458 59.1501 44.3121 59.7262C44.5888 60.3247 45.03 60.6842 45.7149 60.7721C46.8842 60.9222 48.0422 60.8722 49.1858 60.6138C50.317 60.3584 51.005 59.623 51.222 58.5077C51.3074 58.0706 51.5357 57.9061 51.9059 57.7529C56.8855 55.6969 61.104 52.6237 64.4587 48.4126C65.267 47.3984 65.9643 46.3086 66.5443 45.1484C66.643 44.9513 66.7387 44.8461 67.002 44.8553C69.7653 44.9584 72.2263 44.1434 74.3746 42.4101C74.4394 42.358 74.5052 42.307 74.6173 42.2181C74.8035 42.9269 74.8816 43.6112 74.9413 44.2915C75.2179 47.4607 75.6961 50.6045 76.1332 53.7533C76.4026 55.6959 76.5045 57.6416 76.3204 59.5975C76.1579 61.3246 76.7461 62.9118 77.2614 64.5092C77.6768 65.7992 78.1787 67.0585 78.7433 68.2923C78.8091 68.4353 78.9819 68.5803 78.6425 68.7019C75.4863 69.8356 72.4176 71.1838 69.3395 72.5074C63.2369 75.1323 57.0284 77.4825 50.749 79.6498C48.4083 80.4577 45.972 80.9214 43.5707 81.5097C43.3259 81.5699 43.1799 81.5178 43.0883 81.2809C42.9516 80.9255 42.715 80.6344 42.4394 80.377C42.0178 79.9817 41.5344 79.854 40.9749 80.0634C40.7045 80.1645 40.4237 80.2371 40.1522 80.3361C39.276 80.6558 38.9716 81.1215 39.0714 82.05C39.1156 82.4616 39.0837 82.7036 38.5592 82.72C37.8434 82.7424 37.1297 82.8579 36.417 82.9467C36.1733 82.9774 36.0972 82.9048 36.0797 82.6546C35.9255 80.3474 35.0729 78.2403 34.1268 76.169L34.1237 76.171ZM24.0792 58.1308C23.8787 58.328 23.7162 58.3412 23.5023 58.2524C22.191 57.7029 20.8685 57.7397 19.548 58.1952C19.0585 58.3647 18.6122 58.1022 18.135 58.1247C17.7966 58.14 17.4562 58.1319 17.1148 58.1594C16.8094 58.185 16.5101 58.3433 16.2365 57.9358C16.0535 57.662 15.6452 57.9031 15.4087 58.0777C15.0847 58.3177 14.949 58.1748 14.8235 57.8959C14.6178 57.4404 14.589 56.9675 14.7834 56.512C15.0158 55.9666 15.5568 56.0697 15.9877 56.0697C18.7572 56.0697 21.4485 56.5712 24.1111 57.3025C28.2659 58.4424 32.4936 59.2513 36.7492 59.9233C37.2315 59.9999 37.6984 60.1766 38.1664 60.3278C38.3052 60.3727 38.4615 60.4646 38.4677 60.6434C38.4749 60.8487 38.2743 60.863 38.1448 60.914C37.5966 61.1326 37.0104 61.1755 36.4325 61.2C35.476 61.2398 34.5196 61.3532 33.5745 61.2276C31.0775 61.2307 28.6782 60.6403 26.2543 60.2185C26.0095 60.1756 25.9684 59.9836 25.9231 59.8161C25.7956 59.3391 25.6095 58.8877 25.4028 58.4393C25.1004 57.7826 24.5862 57.6334 24.0792 58.1319V58.1308ZM24.9235 59.8998H23.6997C23.8406 59.4811 24.1728 59.192 24.4258 58.8151C24.686 59.1328 24.6818 59.5209 24.9235 59.8998ZM19.9244 58.9959C19.8956 58.8356 20.0087 58.81 20.1322 58.7702C21.1503 58.4413 22.1489 58.5138 23.1433 58.8764C23.3552 58.954 23.348 59.0307 23.2544 59.2073C22.7515 60.1572 22.7587 60.193 21.6223 60.2716C21.1277 60.3053 20.6392 60.3696 20.1507 60.4299C19.9162 60.4585 19.7681 60.4534 19.8483 60.2103C19.8843 59.7732 19.9974 59.3912 19.9265 58.9969L19.9244 58.9959ZM19.22 60.5014C18.1874 60.5995 17.1734 60.6852 16.1502 60.6495C15.8735 60.6403 15.7727 60.5678 15.8087 60.2706C15.8632 59.814 15.7717 59.4331 16.4114 59.1532C17.3524 58.7416 18.1689 59.0031 19.0348 59.2012C19.2086 59.241 19.1737 59.3963 19.1521 59.5372C19.1048 59.8528 19.0873 60.1705 19.2189 60.5014H19.22ZM15.1742 59.144C15.1413 59.5076 15.1053 59.8406 15.0847 60.1746C15.0744 60.3411 15.0755 60.4759 14.8379 60.433C14.6538 60.3993 14.5561 60.3319 14.6158 60.1337C14.7237 59.7701 14.7628 59.3677 15.1742 59.145V59.144ZM46.7886 57.9204C46.9449 58.6252 47.6565 59.0572 48.4381 58.953C49.048 58.8713 49.6403 58.7304 50.2296 58.5271C50.1391 59.1553 49.6177 59.6945 48.9554 59.7956C47.9753 59.9458 46.9932 60.053 45.9946 59.9223C45.5329 59.862 45.2346 59.67 45.0691 59.2441C44.8582 58.7018 44.6978 58.141 44.6618 57.567C44.6217 56.9185 44.9991 56.4201 45.4958 56.0667C46.5818 55.2945 47.7871 55.0576 49.1035 55.5437C48.6819 55.6571 48.2592 55.7695 47.8375 55.8849C47.1526 56.0738 46.6106 57.1248 46.7875 57.9194L46.7886 57.9204ZM34.9731 91.0307C34.208 90.9582 33.6681 90.2566 33.6228 89.3578C33.592 88.7449 33.665 88.1362 33.7164 87.5275C33.7874 86.6777 33.6989 85.832 33.6547 84.9843C33.6074 84.0712 33.7966 83.8945 34.716 83.8343C35.5521 83.7791 36.3924 83.6831 37.2254 83.7229C37.8537 83.7536 38.3566 83.3512 38.9665 83.3798C39.1649 83.389 39.276 83.39 39.3058 83.6229C39.5701 85.6911 39.9167 87.743 40.5626 89.7346C40.651 90.0073 40.6819 90.2984 40.7394 90.5813C40.8457 91.0954 40.6267 91.3572 40.0823 91.3668C39.7738 91.3709 39.4663 91.3668 39.1577 91.3668C37.7519 91.3995 36.3656 91.1645 34.9731 91.0318V91.0307Z" fill="black"/>
<path d="M80.6161 0.0930709C80.6027 0.0630814 80.6007 0.0320577 80.61 0H79.2704C79.2817 0.0320577 79.2797 0.0630814 79.2642 0.0930709C79.7145 0.0289554 80.1648 0.0289554 80.6151 0.0930709H80.6161Z" fill="#A0A0A0"/>
<path d="M79.2663 0.0930085C79.7166 0.0930085 80.1669 0.0930085 80.6172 0.0930085C80.1669 0.028893 79.7166 0.028893 79.2663 0.0930085Z" fill="#A0A0A0"/>
<path d="M90.9142 92.835C90.6422 91.8748 90.2537 90.9688 89.7303 90.1212C89.8354 90.3249 89.8776 90.5532 89.957 90.7661C90.0415 90.9944 89.9971 91.2176 89.7591 91.3374C89.5262 91.4541 89.3243 91.3609 89.1615 91.1807C88.9966 90.9975 88.908 90.7702 88.8616 90.5368C88.4237 88.3462 87.418 86.3459 86.7173 84.2433C86.333 83.0896 85.7034 82.0424 85.0491 81.0197C84.5606 80.2581 83.9846 79.5518 83.5704 78.7431C83.4519 78.5117 83.319 78.4483 83.0882 78.6161C81.3096 79.908 79.288 80.7259 77.2663 81.5387C74.3059 82.7282 71.4093 84.0641 68.453 85.2639C66.0831 86.2261 63.6492 87.0082 61.2421 87.8661C58.5435 88.8263 55.8427 89.7875 53.0668 90.5092C50.7452 91.1132 48.3897 91.5554 46.1557 91.8901C48.1351 92.275 50.4629 94.3388 50.4402 97.1928C50.4217 99.4766 49.2027 101.107 47.2541 102.226C46.3937 102.721 45.4509 102.895 44.4576 102.987C42.7388 103.146 41.2323 102.722 39.8979 101.666C37.5187 99.7837 37.1395 96.5315 38.9922 94.133C39.3848 93.6242 39.8639 93.2219 40.3616 92.8278C40.5306 92.6947 40.7233 92.5709 40.7954 92.3426C40.6666 92.2003 40.5018 92.2525 40.3575 92.2556C39.0695 92.2832 37.7845 92.2269 36.5027 92.1153C36.241 92.0928 36.0637 92.1266 36.0452 92.4347C35.9071 94.7114 35.6433 96.9839 35.6485 99.2647C35.6505 100.303 35.566 101.339 35.6207 102.377C35.634 102.63 35.631 102.898 35.3641 103.056C35.6444 103.394 35.9349 103.697 36.4481 103.538C36.5233 103.514 36.6418 103.592 36.7273 103.644C37.3806 104.037 38.0844 104.06 38.8088 103.927C39.797 103.744 40.7779 103.511 41.7733 103.385C43.2262 103.202 44.6997 103.166 46.1433 102.939C48.5185 102.564 50.9029 102.323 53.2976 102.135C54.7896 102.017 56.2827 101.844 57.7583 101.6C60.0912 101.212 62.4323 100.877 64.7682 100.509C66.9868 100.16 69.2042 99.7991 71.4217 99.4397C72.9024 99.2002 74.3873 98.9801 75.8906 98.975C78.9963 98.9648 82.1031 98.9873 85.2088 98.9627C86.1063 98.9555 86.9553 98.6822 87.7302 98.2103C89.0605 97.4006 89.9291 96.1967 90.6113 94.8465C90.9276 94.221 91.1203 93.5598 90.9153 92.837L90.9142 92.835Z" fill="#FEFEEA"/>
<path d="M35.6195 102.375C35.566 101.337 35.6504 100.301 35.6474 99.2634C35.6422 96.9827 35.905 94.7101 36.0441 92.4334C36.0626 92.1253 36.2399 92.0915 36.5016 92.1141C37.7834 92.2256 39.0684 92.2809 40.3564 92.2543C40.5007 92.2512 40.6655 92.2 40.7943 92.3413C40.7222 92.5696 40.5285 92.6935 40.3605 92.8265C39.8628 93.2206 39.3837 93.6229 38.9911 94.1317C37.1394 96.5302 37.5176 99.7824 39.8968 101.665C41.2302 102.72 42.7377 103.145 44.4565 102.985C45.4498 102.893 46.3926 102.719 47.253 102.225C49.2005 101.106 50.4205 99.4753 50.4391 97.1915C50.4618 94.3375 48.134 92.2737 46.1546 91.8888C48.3886 91.5541 50.7441 91.1109 53.0657 90.5079C55.8416 89.7862 58.5434 88.826 61.241 87.8648C63.6481 87.008 66.082 86.2248 68.4519 85.2626C71.4082 84.0628 74.3047 82.727 77.2652 81.5374C79.2858 80.7246 81.3085 79.9067 83.0871 78.6148C83.3168 78.448 83.4498 78.5104 83.5693 78.7418C83.9845 79.5505 84.5606 80.2558 85.0479 81.0184C85.7033 82.0411 86.3319 83.0883 86.7162 84.242C87.4169 86.3446 88.4226 88.3449 88.8605 90.5355C88.9069 90.7689 88.9955 90.9962 89.1604 91.1794C89.3232 91.3596 89.5251 91.4528 89.758 91.3361C89.996 91.2163 90.0403 90.9931 89.9559 90.7648C89.8765 90.5519 89.8343 90.3236 89.7292 90.1199C89.6993 90.0718 89.6704 90.0227 89.6405 89.9746C89.7075 90.2203 89.7724 90.4659 89.8435 90.7106C89.9085 90.9338 89.9682 91.1764 89.69 91.2767C89.4056 91.3801 89.2449 91.1927 89.1521 90.9419C89.1171 90.8467 89.0697 90.7536 89.0491 90.6553C88.6338 88.6131 87.7353 86.7326 87.0604 84.7774C86.7832 83.9748 86.4349 83.205 86.0506 82.4444C85.3262 81.0102 84.2288 79.8074 83.5332 78.361C83.4024 78.0877 83.2952 78.2883 83.1994 78.361C82.5852 78.8267 81.934 79.2352 81.255 79.5976C79.2188 80.6837 77.0271 81.4197 74.9302 82.3666C68.3613 85.3343 61.5718 87.7133 54.7081 89.8917C51.7539 90.8293 48.6997 91.3381 45.6208 91.852C45.9372 91.9472 46.2329 92.025 46.5204 92.1243C50.5988 93.5298 51.6014 98.4455 48.3741 101.287C46.675 102.783 44.6564 103.236 42.4749 102.742C40.1915 102.225 38.582 100.861 38.0843 98.5264C37.5887 96.1995 38.5408 94.3713 40.4038 92.9688C40.5975 92.8235 40.7912 92.6863 40.9139 92.4764C40.9757 92.371 41.2013 92.3382 41.0962 92.1652C41.0107 92.025 40.8438 92.11 40.715 92.112C40.3894 92.1161 40.0638 92.1417 39.7392 92.1468C38.6232 92.1642 37.5135 92.0567 36.4037 91.9615C36.2048 91.9441 35.9194 91.8254 35.9297 92.2123C35.9513 93.0681 35.7803 93.9075 35.7226 94.7562C35.5484 97.3225 35.5031 99.894 35.4866 102.465C35.4856 102.674 35.4567 102.87 35.3609 103.056C35.6288 102.898 35.6309 102.63 35.6175 102.376L35.6195 102.375Z" fill="#FEFEEA"/>
<path d="M78.1122 64.2801C78.5326 65.445 78.9005 66.6284 79.3673 67.7769C79.3096 67.1597 78.9963 66.6161 78.8593 66.0213C78.3121 63.6433 77.5991 61.3053 77.0952 58.916C77.0282 60.7801 77.4867 62.548 78.1122 64.2801Z" fill="#FCFCE8"/>
<path d="M77.0653 60.9348C77.5238 63.3118 78.3028 65.5935 79.3662 67.775C78.8994 66.6264 78.5316 65.4431 78.1112 64.2781C77.4857 62.545 77.0272 60.7782 77.0941 58.9141C76.9643 59.5856 76.9396 60.2858 77.0643 60.9338L77.0653 60.9348Z" fill="#FCFCE8"/>
<path d="M15.9241 40.9346C15.8819 41.1321 15.6665 41.0195 15.5738 41.126C15.7874 41.0898 15.9042 41.026 15.9241 40.9346Z" fill="#2F2F2F"/>
<path d="M16.0591 41.1086C16.1209 41.0861 16.1827 41.0277 16.1137 40.9684C16.0725 40.9325 15.989 40.9438 15.9251 40.9346C15.9052 41.026 15.7884 41.0898 15.5748 41.126C15.7386 41.1792 15.9014 41.1659 16.0591 41.1096V41.1086Z" fill="#2F2F2F"/>
<path d="M36.3285 82.9663C37.0426 82.8772 37.7577 82.7626 38.4748 82.7391C39.0014 82.7227 39.0323 82.479 38.988 82.0675C38.888 81.138 39.1931 80.6712 40.071 80.3498C40.343 80.2505 40.6243 80.1778 40.8953 80.0765C41.4559 79.8666 41.9402 79.9956 42.3626 80.3907C42.6388 80.6487 42.8748 80.9405 43.0128 81.2967C43.1045 81.5342 43.2509 81.5864 43.4961 81.526C45.9021 80.9364 48.3432 80.4716 50.6885 79.6619C56.9802 77.4896 63.2019 75.1342 69.3154 72.5033C72.3995 71.1766 75.4743 69.8254 78.6366 68.6891C78.9767 68.5673 78.8036 68.4209 78.7376 68.2786C78.1719 67.042 77.6701 65.7798 77.2528 64.4869C76.7365 62.8869 76.1482 61.2951 76.31 59.5641C76.4944 57.6037 76.3924 55.6536 76.1224 53.7066C75.6845 50.5506 75.2053 47.3997 74.9282 44.2233C74.8684 43.5415 74.789 42.8556 74.6036 42.1452C74.4913 42.2343 74.4253 42.2855 74.3604 42.3377C72.2078 44.0759 69.742 44.8917 66.9733 44.7883C66.7095 44.7781 66.6137 44.8835 66.5147 45.0821C65.9336 46.245 65.235 47.3363 64.425 48.3538C61.0638 52.5744 56.837 55.6547 51.8477 57.7153C51.4767 57.8689 51.248 58.0337 51.1625 58.4718C50.945 59.5897 50.2547 60.3267 49.1222 60.5826C47.9764 60.8416 46.8172 60.8918 45.6445 60.7413C44.9583 60.6533 44.5162 60.2929 44.239 59.6931C43.9722 59.1157 43.8372 58.5025 43.7321 57.8781C43.6208 57.2178 43.7681 56.621 44.1618 56.0918C45.2324 54.6545 46.7409 54.2706 48.438 54.3873C48.9336 54.4211 49.4684 54.4733 49.8075 54.8736C50.0434 55.152 50.2186 55.0916 50.4886 54.9913C51.7488 54.5225 52.8925 53.8428 54.0188 53.1241C56.296 51.6705 58.6578 50.3356 60.3404 48.1255C61.2802 46.891 62.4188 45.811 63.2164 44.4628C63.4008 44.1506 63.406 44.0247 63.0247 43.8568C58.2167 41.7419 55.5892 36.4085 56.9802 31.371C58.1456 27.1535 60.9401 24.5124 65.2576 23.5266C65.6533 23.4365 65.7296 23.3086 65.6286 22.9278C65.0155 20.6061 63.8861 18.5751 62.2385 16.8205C62.0252 16.5933 61.9314 16.5605 61.7119 16.8359C60.8196 17.9599 59.918 19.0777 58.971 20.1567C58.1961 21.0391 57.2079 21.5775 55.9962 21.6082C55.7427 21.6144 55.4871 21.555 55.2326 21.5263C53.2171 21.3042 51.1996 21.2684 49.1717 21.3073C47.2345 21.3441 45.2983 21.2151 43.3611 21.1261C40.6604 21.0012 38.0266 21.4834 35.4639 22.2736C33.0692 23.0127 30.7106 23.8644 28.3118 24.5953C26.9526 25.0099 25.8388 25.8227 24.9474 26.9273C24.2385 27.8045 23.5626 28.7095 22.8227 29.5591C21.5532 31.0148 20.5249 32.6598 19.2131 34.0787C18.0972 35.2856 17.4253 36.7085 16.9637 38.2798C18.0601 38.2225 18.8587 38.6954 19.4336 39.5768C19.582 39.8051 19.717 40.0416 19.8716 40.2647C19.9911 40.4367 20.0962 40.6814 20.3755 40.5688C21.3131 40.192 22.2982 39.8675 22.5414 38.6924C22.5909 38.4518 22.696 38.201 23.0185 38.2931C23.3029 38.374 23.2771 38.634 23.2308 38.849C23.0721 39.5973 22.6929 40.2023 22.0138 40.5974C20.734 41.3416 19.3708 41.7777 17.8437 41.7839C18.3362 42.008 18.836 42.2169 19.3193 42.4595C20.192 42.8976 20.5352 43.6613 20.3909 44.6235C20.2291 45.7076 19.5501 46.5071 18.9442 47.3445C18.1281 48.4705 17.1121 49.3591 15.7725 49.8473C15.0224 50.1217 14.3815 50.5793 13.8343 51.1576C13.4675 51.5456 13.0563 51.865 12.5236 52.0339C13.1481 52.8027 13.6818 53.6042 14.0703 54.4979C14.1826 54.7569 14.3629 54.8787 14.6885 54.9012C17.3687 55.0875 20.0169 55.4561 22.6187 56.1706C24.8588 56.7858 27.1227 57.3253 29.3927 57.8228C31.9863 58.392 34.6128 58.8014 37.228 59.2641C38.0307 59.4054 38.8633 59.5057 39.5527 60.0083C40.1493 60.4434 40.1493 61.0586 39.5475 61.4865C39.0426 61.8448 38.4779 62.0833 37.8751 62.2348C35.6742 62.7876 33.4093 62.935 31.1794 63.3005C29.303 63.6086 27.507 63.5011 25.711 62.9156C24.2179 62.4283 22.6754 62.2604 21.1019 62.2502C19.3182 62.2389 17.5346 62.3853 15.7509 62.2615C15.3171 62.2318 14.9018 62.328 14.4835 62.4304C14.1908 62.502 14.0662 62.6013 14.1197 62.9545C14.2939 64.1092 14.7236 65.18 15.144 66.2548C15.2749 66.5885 15.5057 66.867 15.7427 67.1403C17.3501 68.9931 19.4233 69.7752 21.8397 69.8059C24.6826 69.8418 27.4792 69.3801 30.283 69.0208C33.6669 68.5867 37.0436 68.0903 40.4223 67.6214C42.6615 67.3112 44.9212 67.042 47.0366 66.2159C49.42 65.2854 51.8333 64.4235 54.1466 63.3199C54.4073 63.195 54.7421 62.9361 54.9379 63.3568C55.1234 63.756 54.7566 63.8379 54.4732 63.9823C52.5989 64.9373 50.5731 65.526 48.6596 66.3879C47.3808 66.9632 46.0433 67.387 44.6615 67.647C40.3131 68.4649 35.9153 68.9501 31.5401 69.592C30.2222 69.7855 28.896 69.9298 27.4421 70.1141C27.7502 70.2512 27.9285 70.3454 28.117 70.412C29.2763 70.8184 30.2418 71.4971 31.0424 72.4204C31.401 72.8329 31.7987 73.2117 32.1625 73.6212C32.8673 74.4135 33.5875 75.2058 34.0306 76.1752C34.9786 78.2502 35.8328 80.3621 35.9874 82.6756C36.0039 82.9274 36.0812 82.9991 36.3254 82.9684L36.3285 82.9663ZM13.9446 52.1875C13.9724 51.9684 14.1177 51.8681 14.3361 51.8671C14.5371 51.8814 14.6659 51.9889 14.6597 52.1875C14.6514 52.425 14.4989 52.5703 14.2619 52.5621C14.0425 52.555 13.9157 52.4147 13.9456 52.1875H13.9446ZM14.4928 54.4232C14.2723 54.4467 14.1445 54.3167 14.1331 54.0895C14.1434 53.8346 14.2692 53.6544 14.5268 53.6442C14.7411 53.636 14.8771 53.7875 14.8678 54.0076C14.8586 54.2369 14.7225 54.3986 14.4928 54.4232ZM15.2604 52.1711C15.2759 51.9766 15.4016 51.8722 15.6077 51.8742C15.8725 51.8773 15.9415 52.0585 15.9931 52.2294C15.9446 52.4741 15.8385 52.6276 15.6077 52.5969C15.3748 52.5662 15.2419 52.4086 15.2615 52.1711H15.2604ZM15.7097 53.7445C15.4758 53.7557 15.3058 53.6708 15.2913 53.4159C15.2759 53.1548 15.4665 53.0566 15.6798 53.0381C15.924 53.0177 16.126 53.1108 16.1239 53.3985C16.1219 53.6585 15.9384 53.7332 15.7097 53.7445ZM15.8704 50.7748C15.6901 50.7717 15.5881 50.6694 15.5809 50.4933C15.5726 50.2988 15.6685 50.1647 15.8725 50.1585C16.0734 50.1534 16.1703 50.2834 16.2033 50.4718C16.1765 50.6632 16.0734 50.7779 15.8715 50.7738L15.8704 50.7748ZM16.7411 51.6111C16.7339 51.388 16.8576 51.258 17.0863 51.26C17.2965 51.2621 17.3924 51.3941 17.3903 51.5917C17.3883 51.7903 17.2862 51.908 17.075 51.9193C16.8813 51.907 16.7473 51.8138 16.7411 51.6111ZM17.65 54.1263C17.4253 54.0782 17.2182 54.0209 17.2193 53.7588C17.2193 53.508 17.3852 53.3954 17.6201 53.4015C17.8653 53.4077 18.0694 53.509 18.0642 53.7834C18.0591 54.0383 17.8478 54.0966 17.65 54.1263ZM18.7618 52.8232C18.5825 52.8201 18.4774 52.7208 18.4712 52.5437C18.463 52.3482 18.5609 52.2161 18.7628 52.209C18.9648 52.2018 19.0565 52.339 19.0967 52.5028C19.0678 52.7157 18.9627 52.8273 18.7618 52.8242V52.8232ZM18.9504 49.5085C18.7587 49.4839 18.5805 49.3898 18.5887 49.1512C18.598 48.9004 18.7577 48.7909 18.9947 48.7889C19.2471 48.7868 19.3564 48.9393 19.3832 49.1482C19.3399 49.4154 19.1843 49.5382 18.9493 49.5085H18.9504ZM19.4594 51.0686C19.4615 50.8301 19.6181 50.6939 19.8551 50.699C20.0509 50.7031 20.1632 50.8239 20.1694 51.045C20.157 51.2436 20.0488 51.3767 19.8262 51.3921C19.6006 51.4074 19.4573 51.2918 19.4594 51.0696V51.0686ZM20.2642 53.8366C20.2394 54.0608 20.0983 54.1652 19.8829 54.1539C19.683 54.1437 19.5748 54.0137 19.58 53.8192C19.5872 53.5776 19.7417 53.466 19.9643 53.4374C20.191 53.4824 20.2879 53.6175 20.2642 53.8366ZM24.7527 47.2564C24.9505 47.2574 25.0598 47.3629 25.0773 47.5594C25.0505 47.758 24.934 47.8696 24.7414 47.8614C24.5415 47.8532 24.4415 47.7222 24.4539 47.5256C24.4652 47.3486 24.5765 47.2554 24.7527 47.2564ZM23.3163 49.3263C23.3039 49.5761 23.1133 49.659 22.8856 49.6692C22.6558 49.66 22.4703 49.5853 22.4785 49.3181C22.4868 49.0571 22.6805 48.9752 22.9031 48.9782C23.1236 48.9813 23.3286 49.0591 23.3153 49.3253L23.3163 49.3263ZM22.0035 45.7189C22.0241 45.5264 22.1601 45.4189 22.359 45.4414C22.5342 45.4609 22.6269 45.5786 22.6218 45.7547C22.6156 45.9574 22.4992 46.0567 22.3003 46.0628C22.1035 46.028 21.9829 45.9154 22.0035 45.7189ZM21.1617 48.1726C21.1699 47.9965 21.2781 47.8932 21.4564 47.8891C21.6583 47.8839 21.7809 47.9904 21.784 48.1921C21.7871 48.3958 21.6491 48.4828 21.4893 48.5166C21.2668 48.4818 21.1524 48.3722 21.1617 48.1726ZM21.3884 51.2621C21.3863 51.0645 21.512 50.957 21.7129 50.9591C21.8922 50.9611 21.9963 51.0614 22.0056 51.2375C22.0159 51.4351 21.9128 51.5497 21.714 51.5794C21.5192 51.56 21.3914 51.4566 21.3894 51.2621H21.3884ZM21.8036 53.895C21.8016 53.6646 21.9602 53.5305 22.1972 53.5275C22.426 53.5254 22.5249 53.6657 22.5362 53.8796C22.5146 54.0987 22.3817 54.2143 22.1735 54.2236C21.9551 54.2338 21.8057 54.1007 21.8036 53.8939V53.895ZM22.5414 55.9996C22.3065 55.9935 22.1663 55.885 22.1735 55.6608C22.1818 55.3977 22.3652 55.28 22.6084 55.2534C22.8289 55.2288 22.9886 55.3312 22.9917 55.5543C22.9948 55.841 22.7856 55.9536 22.5424 55.9996H22.5414ZM23.2761 50.9457C23.0649 50.955 22.933 50.8321 22.9082 50.6212C22.9391 50.3776 23.0731 50.2394 23.308 50.2445C23.5244 50.2496 23.6491 50.3858 23.6419 50.6049C23.6337 50.8291 23.475 50.9365 23.2761 50.9457ZM24.5033 54.2983C24.289 54.2983 24.152 54.1775 24.1643 53.9502C24.1767 53.7301 24.3086 53.6134 24.5301 53.6288C24.7383 53.6431 24.8063 53.7905 24.8186 53.9605C24.8042 54.1713 24.6991 54.2993 24.5023 54.2993L24.5033 54.2983ZM25.0278 50.6601C24.8186 50.6243 24.6847 50.5056 24.6898 50.2855C24.695 50.0859 24.831 49.96 25.0206 49.9651C25.2339 49.9702 25.3709 50.1104 25.3617 50.3326C25.3534 50.5281 25.2287 50.6376 25.0278 50.6612V50.6601ZM25.0309 46.1621C24.8217 46.158 24.6785 46.0577 24.66 45.8335C24.6414 45.6042 24.7681 45.4977 24.9897 45.466C25.1999 45.4967 25.3854 45.5776 25.3864 45.8274C25.3885 46.0444 25.2504 46.1662 25.0309 46.1621ZM30.0728 50.4708C30.0583 50.7072 29.9295 50.8465 29.6956 50.8598C29.4689 50.872 29.3432 50.7226 29.3412 50.5189C29.3391 50.2957 29.4659 50.1381 29.7132 50.1329C29.9388 50.1278 30.047 50.2589 30.0728 50.4708ZM29.437 48.0559C29.6565 48.0559 29.7946 48.1788 29.7853 48.4029C29.777 48.5954 29.6585 48.709 29.4483 48.7203C29.2402 48.6947 29.1042 48.578 29.1031 48.361C29.1031 48.1562 29.2443 48.0559 29.438 48.0559H29.437ZM28.0346 48.7008C28.0387 48.8953 27.9212 49.0049 27.7234 49.0243C27.5214 49.0049 27.4215 48.8892 27.4256 48.6937C27.4297 48.5196 27.5287 48.4091 27.7059 48.4019C27.9048 48.3947 28.0294 48.5043 28.0346 48.7008ZM25.5441 52.4854C25.5224 52.2653 25.645 52.1383 25.8645 52.1056C26.0593 52.1148 26.1963 52.1998 26.2169 52.4014C26.2406 52.6287 26.1118 52.7587 25.8954 52.7771C25.6986 52.7935 25.5626 52.6829 25.5441 52.4864V52.4854ZM26.1623 55.9955C25.9397 55.9935 25.7965 55.8676 25.8161 55.6495C25.8367 55.41 26.015 55.3046 26.2499 55.3261C26.4498 55.3445 26.5497 55.4663 26.5405 55.6925C26.5137 55.8911 26.3777 55.9976 26.1623 55.9955ZM26.9052 47.2329C26.9217 47.0107 27.0701 46.893 27.2752 46.8961C27.5091 46.8992 27.6389 47.0466 27.6575 47.2708C27.6101 47.5287 27.4534 47.6178 27.2185 47.6024C26.9836 47.5871 26.8898 47.4489 26.9052 47.2319V47.2329ZM26.9238 50.3459C26.9228 50.1463 27.0382 50.0398 27.2401 50.0142C27.4339 50.0214 27.5575 50.1115 27.5657 50.3182C27.574 50.5117 27.4957 50.6499 27.2844 50.6663C27.0588 50.6837 26.9259 50.5772 26.9238 50.3469V50.3459ZM27.5936 53.4609C27.3823 53.4742 27.2257 53.3811 27.2257 53.1446C27.2257 52.9225 27.3566 52.8109 27.542 52.7945C27.7945 52.7873 27.9439 52.8887 27.9491 53.1098C27.9542 53.3289 27.8017 53.4486 27.5936 53.4619V53.4609ZM28.2324 56.6108C28.0181 56.6271 27.8605 56.5514 27.8563 56.3067C27.8532 56.104 27.9676 55.9986 28.1665 55.971C28.3643 55.973 28.4921 56.0713 28.5148 56.2658C28.5374 56.4634 28.4406 56.5954 28.2324 56.6108ZM29.2629 55.192C29.0619 55.2012 28.929 55.1029 28.93 54.8941C28.9311 54.6893 29.0609 54.5778 29.2608 54.589C29.436 54.5982 29.5359 54.7108 29.539 54.893C29.5359 55.0742 29.4442 55.1838 29.2618 55.193L29.2629 55.192ZM29.8523 53.0166C29.605 53.032 29.4566 52.8877 29.436 52.6604C29.4185 52.4751 29.5308 52.3226 29.7327 52.3093C29.9749 52.2939 30.1057 52.4403 30.148 52.6553C30.1439 52.8651 30.0635 53.0044 29.8533 53.0166H29.8523ZM36.5552 41.9046C35.6608 41.3856 34.7859 40.8697 33.6834 41.013C33.4876 41.0386 33.2661 40.9444 33.2197 40.6947C33.1713 40.4347 33.332 40.3128 33.5577 40.2729C34.0059 40.1941 34.2717 39.9023 34.485 39.5369C35.0899 38.4989 35.7999 37.5182 36.7005 36.7361C38.1894 35.4453 39.903 34.784 41.9041 35.4555C42.68 35.7155 43.4332 36.04 44.203 36.3174C45.1376 36.6542 45.9166 37.2449 46.6708 37.8519C47.6363 38.6299 47.6889 39.8368 46.7213 40.9096C45.1963 42.6018 43.2519 43.4565 40.954 43.4432C39.2775 43.5026 37.9153 42.6929 36.5541 41.9036L36.5552 41.9046Z" fill="#FEFEEA"/>
<path d="M70.1326 72.9519C64.0696 75.5858 57.883 77.9075 51.6551 80.1217C48.3021 81.3143 44.7677 81.8466 41.3632 82.8601C40.882 83.0034 40.8377 83.201 40.8985 83.6114C41.053 84.6546 41.3076 85.6782 41.4405 86.7275C41.6033 88.0102 42.103 89.2171 42.4688 90.4527C42.6289 90.9952 42.9902 91.2638 43.5528 91.2583C43.7414 91.2583 43.932 91.2726 44.1186 91.2563C47.0254 90.9942 49.8827 90.4312 52.6958 89.6921C57.3925 88.4575 61.9263 86.7203 66.4849 85.0722C70.5994 83.5848 74.5449 81.6828 78.5945 80.0347C80.3771 79.3089 82.134 78.5156 83.488 77.0507C84.0557 76.4355 84.2979 75.9748 83.9331 75.0986C83.151 73.2181 82.4699 71.2936 81.5085 69.4878C81.2674 69.0353 80.9067 68.8808 80.4461 68.9913C79.7331 69.1612 79.0139 69.3291 78.3286 69.583C75.5578 70.6118 72.8416 71.7747 70.1326 72.9519Z" fill="#6A00FF"/>
<path d="M67.5719 20.7372C67.6884 20.5826 67.7893 20.4475 67.8893 20.3134C68.761 19.1505 69.6678 18.0193 70.7858 17.0714C72.1985 15.8727 73.7328 14.9135 75.5979 14.5859C76.4531 14.4365 76.9787 14.7589 77.2414 15.585C77.4547 16.2535 77.4413 16.9271 77.2528 17.5976C76.8797 18.9273 76.0348 20.0206 75.4042 21.2204C75.263 21.4896 75.0878 21.7455 74.8993 21.9861C74.755 22.1714 74.5273 22.1908 74.3449 22.0577C74.1635 21.9257 74.1945 21.7332 74.3202 21.5582C74.9951 20.6123 75.4742 19.5538 76.0688 18.5619C76.5541 17.7501 76.7942 16.8728 76.5819 15.9229C76.4583 15.3701 76.2182 15.2155 75.6577 15.3168C74.7396 15.4837 73.8853 15.8287 73.0888 16.3037C71.0764 17.5024 69.5524 19.1935 68.2468 21.0986C68.1088 21.3002 67.8646 21.4794 67.9357 21.7691C68.0573 22.2635 68.1964 22.7549 68.3458 23.2411C68.388 23.3793 68.5529 23.3281 68.6652 23.3496C69.1196 23.4346 69.5864 23.4776 70.0274 23.6066C71.1547 23.9362 72.2274 23.7028 73.2918 23.3496C73.5381 23.2677 73.8039 23.0968 73.9595 23.4203C74.1285 23.7693 73.8204 23.9229 73.5731 24.0181C73.1692 24.1716 72.7446 24.2709 72.2789 24.4081C74.1666 25.3673 75.634 26.7155 76.7334 28.4844C77.0838 28.0422 77.3063 27.5661 77.5217 27.0881C78.5902 24.7101 79.2889 22.2021 79.9792 19.7064C81.122 15.5758 82.0617 11.3921 82.6625 7.1428C82.8572 5.76186 83.1014 4.37887 82.7851 2.97848C82.5131 1.77464 80.9654 0.631198 79.7526 0.762228C79.1034 0.832862 78.4707 0.982318 77.8731 1.24745C76.3079 1.94253 74.8106 2.75123 73.4402 3.78924C72.0522 4.84157 70.9538 6.18464 69.7131 7.38336C67.4823 9.53922 65.6285 12.0237 63.6141 14.3689C63.4471 14.5634 63.4863 14.6709 63.6481 14.8275C65.3781 16.5053 66.6724 18.4718 67.5709 20.7382L67.5719 20.7372Z" fill="#FEFEEA"/>
<path d="M68.5808 29.4668C65.7554 29.4668 63.4761 31.7342 63.4843 34.5391C63.4926 37.3685 65.7698 39.5889 68.6581 39.5828C71.4227 39.5766 73.6814 37.2836 73.6804 34.4849C73.6783 31.7179 71.3918 29.4668 68.5808 29.4668Z" fill="#6A00FF"/>
<path d="M44.6647 93.101C44.5957 93.7316 44.2804 94.2189 43.7208 94.5373C43.1407 94.8669 42.507 94.8526 41.8712 94.8055C40.9593 94.7379 40.8429 94.6468 40.5636 93.8002C40.5018 93.833 40.4369 93.8565 40.3864 93.8975C38.4646 95.4289 38.1205 98.2297 39.6136 100.178C41.4323 102.55 45.2603 102.918 47.6756 100.933C49.1975 99.6822 49.9364 98.0874 49.4345 96.1352C48.9039 94.0684 47.385 92.9977 45.3623 92.5544C44.9398 92.4623 44.7111 92.6752 44.6647 93.101Z" fill="#6A00FF"/>
<path d="M19.8016 21.8447C20.0324 21.2366 20.4126 20.9797 21.0628 21.036C21.3678 21.0626 21.6697 21.1343 21.9685 21.2039C22.119 21.2387 22.2457 21.2868 22.4054 21.2008C23.6801 20.515 25.0454 20.1997 26.5745 20.2857C26.1129 19.782 25.6956 19.3766 25.3391 18.9242C24.6538 18.0551 23.8171 17.3569 22.9155 16.7315C21.0164 15.413 18.9432 14.6298 16.5846 14.7291C15.2471 14.7854 14.6268 15.3004 14.3413 16.583C14.2197 17.1327 14.2754 17.662 14.3661 18.2025C14.8967 21.3667 15.7283 24.4295 17.4594 27.2303C17.7459 26.442 18.0066 25.6436 18.4878 24.9639C19.1194 24.0712 19.7171 23.1796 19.7325 22.0341C19.7325 21.9706 19.7768 21.9072 19.8005 21.8447H19.8016Z" fill="#FEFEEA"/>
<path d="M39.0776 91.4031C39.3868 91.4031 39.6949 91.4072 40.004 91.4031C40.5494 91.3949 40.7689 91.1325 40.6624 90.6159C40.6037 90.3323 40.5738 90.0406 40.4852 89.7672C39.8381 87.7711 39.4919 85.7145 39.226 83.6416C39.1961 83.4082 39.0849 83.4072 38.886 83.3979C38.2749 83.3693 37.7711 83.7726 37.1415 83.7419C36.3068 83.702 35.465 83.7982 34.6272 83.8535C33.706 83.9139 33.5164 84.092 33.5638 85.0061C33.6071 85.8558 33.6968 86.7044 33.6257 87.5551C33.5742 88.1662 33.501 88.7763 33.5319 89.3895C33.5772 90.2903 34.1182 90.9936 34.8848 91.0663C36.2811 91.1994 37.6691 91.4348 39.0776 91.4021V91.4031Z" fill="#6A00FF"/>
<path d="M25.2968 58.4005C25.5039 58.8499 25.6894 59.3023 25.8182 59.7804C25.8635 59.9483 25.9047 60.1417 26.15 60.1837C28.5787 60.6065 30.9837 61.1982 33.4845 61.1951C34.4315 61.321 35.3898 61.2074 36.3481 61.1675C36.9261 61.1429 37.5145 61.0999 38.0637 60.8808C38.1936 60.8296 38.3935 60.8153 38.3873 60.6096C38.3811 60.4304 38.2245 60.3383 38.0854 60.2932C37.6176 60.1417 37.1487 59.9646 36.6654 59.8879C32.4015 59.2143 28.1655 58.4046 24.0026 57.2611C21.3338 56.5292 18.6371 56.0255 15.8632 56.0255C15.4325 56.0255 14.8905 55.9211 14.6566 56.4688C14.4619 56.9253 14.4917 57.3993 14.6968 57.8559C14.8225 58.1343 14.9585 58.2786 15.2831 58.0381C15.5201 57.863 15.9282 57.6204 16.1126 57.8958C16.3867 58.3042 16.6866 58.1456 16.9926 58.12C17.3347 58.0923 17.6758 58.1005 18.0148 58.0852C18.4929 58.0626 18.9391 58.3257 19.4306 58.1558C20.7536 57.6982 22.0788 57.6624 23.3925 58.2131C23.6069 58.3032 23.7697 58.2889 23.9706 58.0913C24.4786 57.5928 24.9938 57.7412 25.2968 58.3994V58.4005Z" fill="#6A00FF"/>
<path d="M47.7755 55.8418C48.198 55.7251 48.6215 55.6135 49.044 55.4999C47.725 55.0116 46.5174 55.2501 45.4292 56.024C44.9315 56.3782 44.5534 56.8778 44.5936 57.5278C44.6286 58.1031 44.7904 58.6651 45.0016 59.2087C45.1675 59.6366 45.4663 59.828 45.929 59.8884C46.9295 60.0194 47.9136 59.912 48.8956 59.7615C49.5592 59.6601 50.0816 59.1196 50.1723 58.4901C49.5819 58.6928 48.9883 58.8351 48.3773 58.9169C47.5931 59.0214 46.8811 58.5894 46.7245 57.882C46.5472 57.0856 47.0903 56.0322 47.7765 55.8429L47.7755 55.8418Z" fill="#6A00FF"/>
<path d="M77.2281 29.0746C77.1364 29.1903 77.1684 29.2865 77.223 29.396C77.7845 30.521 78.0689 31.7259 78.2534 32.9584C78.4512 33.4457 78.3029 33.9545 78.3451 34.4509C78.3606 34.6331 78.3472 34.8174 78.3472 35.0293C78.4976 34.9791 78.6192 34.9392 78.7408 34.8993C79.358 34.1878 79.3786 33.3853 79.1499 32.5203C79.0643 32.1968 79.0664 31.8457 79.121 31.5038C79.3693 29.9416 78.8253 28.5054 78.4018 26.9658C78.0257 27.7387 77.7165 28.4583 77.2271 29.0736L77.2281 29.0746Z" fill="#FDFDEA"/>
<path d="M13.1976 54.7319C13.0626 54.9079 12.8802 54.9182 12.6927 54.8537C12.5474 54.8035 12.4876 54.6766 12.5134 54.5282C12.5515 54.305 12.7071 54.2272 12.9194 54.2303C12.9874 54.2313 13.0554 54.2292 13.1234 54.2282C12.8246 53.7143 12.5361 53.1923 12.1445 52.7388C11.8962 52.4511 11.2511 52.2965 10.9533 52.5187C10.7215 52.6917 10.9307 52.9804 10.9265 53.2168C10.9224 53.4543 10.9533 53.6918 10.9667 53.9303C11.0028 54.5998 11.179 55.2376 11.415 55.86C11.4654 55.992 11.5427 56.2377 11.7406 55.9398C11.8364 55.7955 11.9868 55.7607 12.1455 55.861C12.2372 55.9193 12.297 56.0043 12.2918 56.1149C12.2836 56.296 12.1795 56.4015 12.0002 56.4035C11.8519 56.4056 11.7705 56.4404 11.8045 56.6072C11.8735 56.944 12.6164 57.5439 13.0018 57.5644C12.9472 57.3863 12.8751 57.2133 12.8411 57.0341C12.7421 56.5018 12.6752 55.9326 13.1698 55.5754C13.6201 55.2499 13.5788 54.9387 13.3388 54.5497C13.2264 54.5609 13.245 54.6715 13.1976 54.7329V54.7319ZM11.6458 55.2662C11.4325 55.2652 11.2831 55.1444 11.2748 54.9223C11.2666 54.6981 11.4088 54.566 11.6241 54.563C11.8395 54.5599 11.9652 54.696 12.0002 54.911C11.9827 55.1291 11.8683 55.2683 11.6458 55.2662ZM11.9662 53.7399C11.7313 53.7522 11.6128 53.6089 11.6087 53.397C11.6046 53.1718 11.7107 52.9896 11.9611 52.9773C12.1816 52.9671 12.3125 53.0878 12.3135 53.3182C12.3073 53.5505 12.228 53.7256 11.9662 53.7389V53.7399Z" fill="#FDFDE9"/>
<path d="M18.9164 59.1656C18.0488 58.967 17.2306 58.704 16.2878 59.1175C15.6469 59.398 15.7386 59.7798 15.684 60.2374C15.6479 60.5363 15.7478 60.608 16.0261 60.6172C17.0503 60.653 18.0663 60.567 19.1019 60.4688C18.97 60.1371 18.9875 59.8187 19.0349 59.5024C19.0565 59.3601 19.0916 59.2045 18.9174 59.1656H18.9164Z" fill="#6A00FF"/>
<path d="M20.0324 60.3963C20.5229 60.3359 21.0113 60.2724 21.5069 60.2376C22.6456 60.1598 22.6384 60.1229 23.1422 59.1709C23.236 58.9938 23.2432 58.917 23.0309 58.8392C22.0345 58.4748 21.034 58.4032 20.0139 58.7328C19.8902 58.7727 19.7769 58.7983 19.8057 58.959C19.8778 59.3542 19.7645 59.737 19.7274 60.1751C19.647 60.4188 19.7954 60.4249 20.0303 60.3952L20.0324 60.3963Z" fill="#6A00FF"/>
<path d="M12.5875 47.1202C13.45 47.3331 14.2352 47.1007 15.1533 46.6779C14.3949 46.6994 13.9466 46.3852 13.5736 45.9358C13.4325 45.7658 13.3191 45.5693 13.1604 45.4178C12.8647 45.1353 12.6143 44.5886 12.163 44.7647C11.6746 44.9551 11.7044 45.5529 11.6941 46.0218C11.6787 46.682 11.9332 46.9584 12.5875 47.1202Z" fill="#FDFDE9"/>
<path d="M23.5894 59.8655H24.8156C24.5734 59.4857 24.5775 59.0967 24.3168 58.7783C24.0623 59.1561 23.7305 59.4447 23.5894 59.8655Z" fill="#F3F3E0"/>
<path d="M43.493 93.576C42.8758 93.6354 42.2421 93.9015 41.6857 93.3252C41.6506 93.6947 41.6702 94.0213 42.0793 94.0571C42.5955 94.1022 43.0953 94.008 43.493 93.577V93.576Z" fill="#F1F1DE"/>
<path d="M14.7112 60.4003C14.9493 60.4433 14.9482 60.3081 14.9585 60.1413C14.9781 59.8065 15.0152 59.4728 15.0482 59.1084C14.6371 59.3326 14.5979 59.7349 14.4887 60.0993C14.4299 60.2979 14.5268 60.3655 14.7112 60.3993V60.4003Z" fill="#E7E7D5"/>
<path d="M12.7391 54.5879C12.8782 54.8858 13.0976 54.5336 13.2893 54.5367C13.3058 54.5367 13.3212 54.5449 13.3377 54.549C13.3563 54.3821 13.176 54.3473 13.1224 54.2275C13.0482 54.4149 12.6247 54.3432 12.738 54.5879H12.7391Z" fill="#0A0A0A"/>
<path d="M12.5133 54.5265C12.4876 54.676 12.5473 54.8019 12.6926 54.8521C12.8791 54.9166 13.0625 54.9063 13.1975 54.7303C13.2439 54.6688 13.2253 54.5583 13.3387 54.547C13.3222 54.5429 13.3068 54.5347 13.2903 54.5347C13.0976 54.5327 12.8791 54.8848 12.74 54.5859C12.6256 54.3413 13.0491 54.4139 13.1244 54.2256C13.0564 54.2256 12.9884 54.2287 12.9203 54.2276C12.7081 54.2246 12.5525 54.3024 12.5144 54.5255L12.5133 54.5265Z" fill="#0A0A0A"/>
<path d="M78.3306 35.0965C78.2214 34.3922 78.3698 33.6684 78.2533 32.958C78.2636 33.735 78.3079 34.513 78.2214 35.2889C78.2657 35.3647 78.2296 35.4855 78.3502 35.5192C78.4903 35.3186 78.6943 35.1569 78.7407 34.8989C78.6129 34.9665 78.5439 35.1446 78.3306 35.0965Z" fill="#F3F3F1"/>
<path d="M78.3451 34.4505C78.3029 33.954 78.4523 33.4453 78.2534 32.958C78.3709 33.6695 78.2215 34.3922 78.3307 35.0965C78.544 35.1446 78.613 34.9665 78.7408 34.8989C78.6192 34.9388 78.4976 34.9798 78.3472 35.0289C78.3472 34.817 78.3606 34.6327 78.3451 34.4505Z" fill="#F3F3F1"/>
<path d="M20.3682 22.6216C20.7217 22.3391 21.0277 22.0965 21.3358 21.8498C20.7031 21.599 20.5248 21.731 20.3682 22.6216Z" fill="#E0E0CE"/>
<path d="M41.5135 82.0366C41.6011 82.0171 41.767 82.0427 41.7804 81.882C41.7361 81.7499 41.6619 81.622 41.529 81.6824C41.292 81.7899 40.9839 81.7571 40.8262 82.0182C40.8067 82.0509 40.817 82.1461 40.8314 82.1502C41.0735 82.2219 41.2879 82.0857 41.5125 82.0376L41.5135 82.0366Z" fill="#ECECDA"/>
<path d="M78.2214 35.2891C78.14 35.4119 78.0823 35.5511 78.1977 35.6658C78.2338 35.7026 78.3306 35.6064 78.3502 35.5194C78.1493 35.5296 78.1946 35.4047 78.2214 35.2891Z" fill="#A4A4A4"/>
<path d="M78.2214 35.2891C78.1946 35.4047 78.1492 35.5296 78.3502 35.5194C78.2296 35.4856 78.2657 35.3648 78.2214 35.2891Z" fill="#A4A4A4"/>
<path d="M46.7224 40.9138C47.69 39.84 47.6374 38.6341 46.6719 37.8561C45.9176 37.249 45.1386 36.6584 44.204 36.3216C43.4343 36.0442 42.6811 35.7197 41.9052 35.4597C39.9041 34.7881 38.1905 35.4494 36.7015 36.7403C35.7999 37.5224 35.091 38.503 34.4861 39.5411C34.2728 39.9075 34.0059 40.1983 33.5587 40.2771C33.3331 40.317 33.1723 40.4398 33.2207 40.6988C33.2671 40.9496 33.4887 41.0428 33.6844 41.0172C34.787 40.8739 35.6618 41.3898 36.5562 41.9088C37.9174 42.697 39.2796 43.5078 40.9561 43.4484C43.254 43.4617 45.1994 42.607 46.7234 40.9148L46.7224 40.9138ZM35.4063 40.446C34.9508 40.4665 34.7272 40.3794 35.0827 39.9556C35.2095 39.8041 35.2579 39.5892 35.4691 39.4848C35.4114 39.8103 35.3671 40.1256 35.4063 40.446ZM45.897 40.6814C45.9939 40.2556 46.0258 39.8553 46.0238 39.451C46.0207 39.0425 46.0062 38.6371 45.9042 38.2277C46.9656 38.8736 46.8759 39.8 45.897 40.6825V40.6814Z" fill="black"/>
<path d="M15.6788 53.0379C15.4655 53.0563 15.2749 53.1556 15.2903 53.4156C15.3047 53.6705 15.4748 53.7544 15.7087 53.7442C15.9374 53.7329 16.1208 53.6582 16.1229 53.3982C16.125 53.1105 15.923 53.0174 15.6788 53.0379Z" fill="#0C0C0B"/>
<path d="M17.6201 53.4015C17.3852 53.3964 17.2193 53.508 17.2193 53.7588C17.2193 54.0198 17.4254 54.0782 17.65 54.1263C17.8479 54.0966 18.0591 54.0383 18.0642 53.7834C18.0694 53.51 17.8643 53.4077 17.6201 53.4015Z" fill="#0E0E0D"/>
<path d="M22.6084 55.2545C22.3653 55.2812 22.1829 55.3989 22.1736 55.662C22.1664 55.8862 22.3065 55.9947 22.5415 56.0008C22.7857 55.9558 22.9938 55.8421 22.9907 55.5555C22.9887 55.3323 22.8279 55.23 22.6074 55.2545H22.6084Z" fill="#131312"/>
<path d="M14.5258 53.6448C14.2682 53.6541 14.1424 53.8353 14.1321 54.0901C14.1435 54.3174 14.2712 54.4474 14.4918 54.4239C14.7215 54.3993 14.8576 54.2376 14.8668 54.0083C14.8751 53.7892 14.7391 53.6367 14.5258 53.6448Z" fill="#21211F"/>
<path d="M22.4785 49.3194C22.4703 49.5855 22.6547 49.6613 22.8856 49.6705C23.1133 49.6603 23.3039 49.5774 23.3163 49.3276C23.3297 49.0614 23.1246 48.9836 22.9041 48.9806C22.6815 48.9775 22.4878 49.0594 22.4796 49.3204L22.4785 49.3194Z" fill="#090909"/>
<path d="M18.9948 48.7891C18.7578 48.7911 18.5981 48.8996 18.5888 49.1515C18.5806 49.39 18.7589 49.4842 18.9505 49.5087C19.1855 49.5384 19.341 49.4166 19.3843 49.1484C19.3575 48.9406 19.2483 48.787 18.9959 48.7891H18.9948Z" fill="#0C0C0B"/>
<path d="M27.2186 47.6058C27.4545 47.6212 27.6101 47.5311 27.6575 47.2741C27.64 47.05 27.5091 46.9036 27.2752 46.8995C27.0692 46.8964 26.9208 47.0141 26.9053 47.2363C26.8899 47.4533 26.9836 47.5915 27.2186 47.6068V47.6058Z" fill="#11110F"/>
<path d="M29.3413 50.5218C29.3433 50.7255 29.469 50.875 29.6957 50.8627C29.9296 50.8494 30.0584 50.7102 30.0729 50.4737C30.0471 50.2618 29.9389 50.1308 29.7133 50.1359C29.466 50.142 29.3392 50.2987 29.3413 50.5218Z" fill="#0D0D0C"/>
<path d="M24.9897 45.4697C24.7682 45.5015 24.6414 45.6079 24.66 45.8372C24.6785 46.0614 24.8207 46.1617 25.0309 46.1658C25.2504 46.1699 25.3885 46.0481 25.3864 45.8311C25.3844 45.5823 25.1989 45.5004 24.9897 45.4697Z" fill="#161615"/>
<path d="M22.5362 53.8815C22.5249 53.6675 22.426 53.5273 22.1972 53.5293C21.9602 53.5314 21.8015 53.6665 21.8036 53.8968C21.8057 54.1026 21.9551 54.2357 22.1735 54.2264C22.3827 54.2172 22.5156 54.1005 22.5362 53.8825V53.8815Z" fill="#141412"/>
<path d="M15.6067 52.5968C15.8375 52.6275 15.9437 52.475 15.9921 52.2293C15.9416 52.0583 15.8726 51.8761 15.6067 51.8741C15.4006 51.872 15.276 51.9754 15.2595 52.1709C15.2399 52.4084 15.3728 52.5661 15.6057 52.5968H15.6067Z" fill="#0E0E0D"/>
<path d="M14.6587 52.1876C14.6659 51.989 14.5371 51.8815 14.3351 51.8672C14.1167 51.8672 13.9724 51.9685 13.9435 52.1876C13.9147 52.4159 14.0404 52.5561 14.2599 52.5623C14.4969 52.5694 14.6494 52.4241 14.6576 52.1876H14.6587Z" fill="#0E0E0D"/>
<path d="M29.7328 52.3128C29.5309 52.3261 29.4196 52.4786 29.4361 52.6639C29.4567 52.8911 29.605 53.0355 29.8523 53.0201C30.0626 53.0078 30.1429 52.8686 30.147 52.6588C30.1048 52.4438 29.9739 52.2964 29.7318 52.3128H29.7328Z" fill="#10100F"/>
<path d="M23.3092 50.2472C23.0742 50.2421 22.9392 50.3803 22.9094 50.6239C22.9341 50.8348 23.066 50.9576 23.2772 50.9484C23.4761 50.9392 23.6358 50.8317 23.643 50.6075C23.6502 50.3885 23.5245 50.2523 23.3092 50.2472Z" fill="#10100F"/>
<path d="M26.2499 55.3289C26.015 55.3074 25.8367 55.4128 25.8161 55.6524C25.7976 55.8704 25.9398 55.9963 26.1624 55.9984C26.3777 56.0004 26.5137 55.894 26.5405 55.6954C26.5488 55.4691 26.4488 55.3463 26.2499 55.3289Z" fill="#0E0E0D"/>
<path d="M20.1694 51.0444C20.1632 50.8233 20.0509 50.7025 19.8551 50.6984C19.6171 50.6933 19.4615 50.8294 19.4594 51.0679C19.4574 51.2901 19.6006 51.4057 19.8263 51.3904C20.0488 51.375 20.157 51.242 20.1694 51.0434V51.0444Z" fill="#10100F"/>
<path d="M19.9644 53.4375C19.7418 53.4651 19.5872 53.5777 19.58 53.8193C19.5749 54.0138 19.6831 54.1438 19.883 54.1541C20.0973 54.1653 20.2395 54.0599 20.2642 53.8367C20.2879 53.6187 20.1911 53.4836 19.9644 53.4375Z" fill="#0F0F0E"/>
<path d="M27.5421 52.7973C27.3566 52.8137 27.2258 52.9252 27.2258 53.1474C27.2258 53.3849 27.3824 53.477 27.5936 53.4637C27.8018 53.4504 27.9543 53.3306 27.9491 53.1115C27.944 52.8904 27.7946 52.7891 27.5421 52.7963V52.7973Z" fill="#0E0E0C"/>
<path d="M25.0206 49.9678C24.831 49.9627 24.695 50.0886 24.6898 50.2882C24.6837 50.5083 24.8176 50.6271 25.0278 50.6629C25.2288 50.6394 25.3534 50.5298 25.3617 50.3343C25.371 50.1122 25.2339 49.9719 25.0206 49.9668V49.9678Z" fill="#1C1C1A"/>
<path d="M25.8966 52.7799C26.1129 52.7615 26.2417 52.6315 26.218 52.4042C26.1974 52.2026 26.0604 52.1176 25.8656 52.1084C25.6462 52.1422 25.5235 52.2681 25.5452 52.4882C25.5637 52.6858 25.7008 52.7953 25.8966 52.7789V52.7799Z" fill="#191917"/>
<path d="M24.5312 53.6301C24.3097 53.6158 24.1778 53.7314 24.1654 53.9515C24.1531 54.1788 24.2901 54.2996 24.5045 54.2996C24.7013 54.2996 24.8064 54.1726 24.8208 53.9607C24.8084 53.7908 24.7404 53.6434 24.5323 53.6291L24.5312 53.6301Z" fill="#171715"/>
<path d="M29.4484 48.723C29.6586 48.7117 29.7771 48.597 29.7853 48.4056C29.7946 48.1814 29.6576 48.0596 29.4371 48.0586C29.2444 48.0586 29.1022 48.1599 29.1022 48.3637C29.1022 48.5807 29.2392 48.6974 29.4474 48.723H29.4484Z" fill="#181816"/>
<path d="M17.3903 51.5915C17.3924 51.3939 17.2955 51.2618 17.0863 51.2598C16.8586 51.2577 16.7339 51.3878 16.7411 51.6109C16.7473 51.8146 16.8813 51.9078 17.075 51.919C17.2873 51.9078 17.3882 51.789 17.3903 51.5915Z" fill="#0B0B0A"/>
<path d="M28.1666 55.9746C27.9677 56.0022 27.8534 56.1077 27.8564 56.3104C27.8606 56.554 28.0182 56.6298 28.2325 56.6144C28.4407 56.5991 28.5376 56.467 28.5149 56.2694C28.4922 56.0739 28.3644 55.9756 28.1666 55.9746Z" fill="#090908"/>
<path d="M21.784 48.1928C21.7809 47.9912 21.6583 47.8847 21.4564 47.8898C21.2781 47.8949 21.1699 47.9983 21.1617 48.1734C21.1524 48.373 21.2657 48.4825 21.4893 48.5173C21.649 48.4836 21.7871 48.3965 21.784 48.1928Z" fill="#181816"/>
<path d="M27.5658 50.3206C27.5575 50.1149 27.4339 50.0238 27.2402 50.0166C27.0392 50.0422 26.9228 50.1487 26.9238 50.3483C26.9259 50.5786 27.0588 50.6851 27.2845 50.6677C27.4957 50.6513 27.574 50.5131 27.5658 50.3196V50.3206Z" fill="#070706"/>
<path d="M22.3004 46.0636C22.5003 46.0564 22.6157 45.9581 22.6219 45.7554C22.627 45.5794 22.5343 45.4616 22.3591 45.4422C22.1613 45.4207 22.0242 45.5272 22.0036 45.7196C21.983 45.9151 22.1036 46.0288 22.3004 46.0636Z" fill="#1A1A18"/>
<path d="M18.7629 52.2083C18.5599 52.2154 18.4631 52.3475 18.4713 52.543C18.4785 52.7201 18.5826 52.8194 18.7619 52.8225C18.9639 52.8255 19.069 52.715 19.0968 52.501C19.0566 52.3383 18.9649 52.2011 18.7629 52.2072V52.2083Z" fill="#1D1D1B"/>
<path d="M22.0057 51.2384C21.9964 51.0613 21.8923 50.961 21.713 50.96C21.5131 50.9579 21.3864 51.0654 21.3885 51.263C21.3905 51.4575 21.5193 51.5599 21.713 51.5803C21.9119 51.5507 22.0149 51.436 22.0046 51.2384H22.0057Z" fill="#1C1C1A"/>
<path d="M29.2619 54.5938C29.062 54.5836 28.9322 54.6951 28.9312 54.8989C28.9301 55.1077 29.0631 55.206 29.264 55.1967C29.4453 55.1886 29.5381 55.079 29.5412 54.8968C29.537 54.7146 29.4381 54.602 29.263 54.5928L29.2619 54.5938Z" fill="#232320"/>
<path d="M15.8715 50.1592C15.6675 50.1653 15.5727 50.2994 15.5799 50.4939C15.5871 50.669 15.6902 50.7724 15.8695 50.7754C16.0714 50.7785 16.1745 50.6649 16.2013 50.4734C16.1693 50.2851 16.0714 50.1551 15.8705 50.1602L15.8715 50.1592Z" fill="#1E1E1C"/>
<path d="M27.4267 48.6974C27.4215 48.8929 27.5225 49.0086 27.7245 49.028C27.9223 49.0086 28.0398 48.899 28.0357 48.7045C28.0316 48.508 27.9058 48.3984 27.707 48.4056C27.5297 48.4128 27.4308 48.5233 27.4267 48.6974Z" fill="#1B1B19"/>
<path d="M24.7404 47.8618C24.9331 47.869 25.0505 47.7584 25.0763 47.5599C25.0588 47.3643 24.9495 47.2589 24.7517 47.2568C24.5745 47.2558 24.4642 47.349 24.4529 47.5261C24.4405 47.7226 24.5394 47.8536 24.7404 47.8618Z" fill="#20201E"/>
<path d="M11.961 52.9775C11.7096 52.9888 11.6045 53.172 11.6086 53.3972C11.6128 53.6091 11.7313 53.7525 11.9662 53.7402C12.2279 53.7258 12.3073 53.5518 12.3134 53.3194C12.3134 53.0891 12.1816 52.9683 11.961 52.9786V52.9775Z" fill="#10100E"/>
<path d="M11.6241 54.5616C11.4098 54.5646 11.2676 54.6967 11.2748 54.9209C11.283 55.143 11.4325 55.2628 11.6458 55.2648C11.8683 55.2659 11.9827 55.1277 12.0002 54.9096C11.9642 54.6957 11.8384 54.5585 11.6241 54.5616Z" fill="#0E0E0D"/>
<path d="M45.9053 38.2266C46.0063 38.6361 46.0217 39.0415 46.0248 39.4499C46.0279 39.8553 45.996 40.2555 45.8981 40.6804C46.878 39.7979 46.9666 38.8725 45.9053 38.2256V38.2266Z" fill="#F3F3E0"/>
<path d="M35.0838 39.9562C34.7283 40.38 34.9519 40.4671 35.4074 40.4466C35.3682 40.1251 35.4136 39.8109 35.4702 39.4854C35.259 39.5898 35.2106 39.8047 35.0838 39.9562Z" fill="#E1E1CF"/>
</svg>
