<svg width="70" height="80" viewBox="0 0 70 80" fill="none" xmlns="http://www.w3.org/2000/svg">
<path d="M68.2906 46.9184L19.5933 47.2283L17.6611 1.88413C17.6611 1.88413 24.5782 0.471908 27.6563 0.278386C34.0259 -0.120906 46.2453 0.433939 55.2561 0.655632C61.6025 0.812409 66.8053 1.46524 66.8053 1.46524C66.8053 1.46524 67.9622 23.7729 68.1026 31.4146C68.1745 35.3071 68.2918 46.9184 68.2918 46.9184H68.2906Z" fill="#6A00FF"/>
<path d="M0.00995426 41.3333V40.1085C0.565181 39.1923 1.43673 39.0515 2.32155 38.9829C6.1097 38.6889 9.89785 38.9412 13.6871 39C15.5253 39.0282 17.3591 39.2389 19.1996 39.1997H19.9948C19.9948 39.1837 19.9937 39.1678 19.9926 39.1519C19.726 39.1715 19.4595 39.1899 19.1918 39.2095C19.0657 38.2382 19.0646 38.2296 19.8665 38.123C20.0479 38.0985 20.1364 38.0471 20.1286 37.8352C20.1198 37.6111 20.1098 37.3845 20.1286 37.1628C20.1795 36.5687 20.1308 36.107 19.4086 36.3054C19.1011 36.3899 19.0702 36.1474 19.1111 35.9086C19.1509 35.6795 18.9242 35.2508 19.3909 35.2949C20.0291 35.3549 20.1817 35.0267 20.0645 34.4057C20.0346 34.2489 20.0379 34.0775 20.0589 33.9182C20.1142 33.4969 19.9384 33.356 19.5911 33.4283C19.0569 33.5398 19.0646 33.1613 19.0403 32.7485C19.0093 32.2047 19.371 32.4105 19.5623 32.419C19.9329 32.435 20.1275 32.3541 20.0235 31.8911C19.997 31.7748 20.0014 31.6462 20.0125 31.5249C20.0678 30.9603 19.903 30.681 19.34 30.8182C18.8279 30.9431 19.0337 30.4777 18.9783 30.234C18.9009 29.8922 19.0148 29.76 19.34 29.7771C19.5258 29.7869 19.83 29.9069 19.8897 29.673C20.0003 29.2455 19.966 28.7593 19.8211 28.3551C19.7327 28.1089 19.3832 28.2571 19.1686 28.3049C18.8534 28.3747 18.8113 28.251 18.7947 27.9411C18.7649 27.3985 18.9551 27.1707 19.444 27.2148C19.5723 27.227 19.7902 27.2858 19.7902 27.0445C19.7902 26.6795 19.7968 26.2839 19.6729 25.9618C19.5955 25.7597 19.2615 25.8871 19.0558 25.9165C18.599 25.9802 18.7284 25.625 18.7052 25.3775C18.6808 25.1179 18.6123 24.8325 19.0193 24.8827C19.5214 24.944 19.7758 24.7333 19.6132 24.1307C19.5933 24.0547 19.5944 23.9665 19.6066 23.8869C19.6785 23.3897 19.5015 23.2414 19.0646 23.3541C18.7583 23.4325 18.4928 23.4093 18.4618 22.9144C18.4331 22.4612 18.5592 22.2873 18.9662 22.3192C19.3754 22.351 19.5778 22.1489 19.4904 21.6688C19.465 21.5291 19.455 21.3846 19.4584 21.2425C19.4683 20.7649 19.3632 20.4733 18.8368 20.6252C18.7052 20.6632 18.3557 20.8212 18.3877 20.4452C18.4121 20.1647 18.1057 19.6331 18.7605 19.6135C18.9186 19.6086 19.3467 19.7201 19.329 19.2485C19.3102 18.75 19.2626 18.2527 19.2272 17.7469C18.9706 17.8179 18.7583 17.8865 18.5415 17.9318C18.4475 17.9514 18.3391 18.0151 18.2583 17.8633C18.0714 17.5105 18.2639 16.9177 18.6366 16.8418C19.1011 16.7462 19.2361 16.4645 19.1586 15.9868C19.1332 15.8276 19.1155 15.6598 19.1277 15.4993C19.1697 14.9408 18.954 14.7877 18.4784 14.9163C18.3435 14.9531 18.0128 15.187 18.0482 14.7559C18.0736 14.4497 17.8026 13.8875 18.4099 13.8961C19.0093 13.9034 19.0978 13.558 18.9994 13.0215C18.9739 12.8819 18.9463 12.7361 18.9595 12.5965C19.0038 12.1041 18.8766 11.88 18.3899 12.0515C18.1964 12.1201 17.9099 12.1984 17.9464 11.7783C17.9708 11.4942 17.7075 11.0177 18.2605 11.0238C18.8434 11.03 18.9927 10.7262 18.8445 10.153C18.8401 10.1334 18.839 10.1114 18.8412 10.0918C18.9197 9.49771 18.7527 9.21233 18.1687 9.4132C18.0415 9.45729 17.8922 9.50384 17.8281 9.2552C17.6898 8.72485 17.8314 8.4064 18.3114 8.3623C18.7096 8.32678 18.87 8.16021 18.7704 7.71682C18.6941 7.37877 18.8932 6.81045 18.2473 6.96723C17.7219 7.09461 17.7772 6.70144 17.7341 6.3291C17.6754 5.82569 17.9995 5.89918 18.2152 5.9298C18.8467 6.02044 18.7052 5.54521 18.7195 5.16307C18.7428 4.54576 18.349 4.86053 18.151 4.88381C17.7794 4.9279 17.6456 4.80052 17.7097 4.39878C17.7285 4.27874 17.7263 4.15504 17.7341 4.03255C18.2218 3.78024 18.7406 3.84883 19.2449 3.89292C19.7979 3.94069 20.0589 3.67613 20.153 3.10291C20.2459 2.53215 20.2237 1.97485 20.0567 1.42491C20.3775 1.27915 20.633 1.24363 20.5732 1.78011C20.5157 2.29821 20.7004 2.47336 21.1539 2.28963C21.29 2.23451 21.4426 2.1941 21.5864 2.19777C22.1062 2.21247 22.2699 1.95158 22.1339 1.41021C22.0133 0.928854 22.3385 0.969273 22.6072 0.901907C22.9534 0.814945 23.0629 0.958249 23.0795 1.3208C23.0884 1.51432 23.0319 1.85359 23.1813 1.88299C23.4589 1.93811 23.7675 1.86584 24.0506 1.79113C24.2707 1.73234 24.1667 1.48492 24.1811 1.31712C24.1933 1.17627 24.159 1.02684 24.1855 0.889659C24.274 0.442599 24.6423 0.705936 24.8657 0.584678C25.0405 0.490367 25.1069 0.618973 25.1334 0.822294C25.2407 1.63068 25.2473 1.62945 26.005 1.55106C26.0968 1.54126 26.1886 1.53392 26.2804 1.52167C26.8717 1.44736 27.0988 1.07787 26.9617 0.413203C26.9572 0.393606 26.9484 0.375234 26.9351 0.337264C27.1773 0.317667 27.4162 0.306644 27.6518 0.278473C27.8576 0.253976 27.9892 0.332365 27.9615 0.571205C27.8719 1.3306 28.2424 1.40408 28.7789 1.2816C28.9934 1.23261 29.2246 1.18484 29.437 1.21914C29.9468 1.30242 29.907 0.976622 29.8683 0.6055C29.8495 0.427901 29.5044 0.08985 29.9767 0.106998C30.261 0.116796 30.7996 -0.322915 30.7996 0.512414C30.7996 0.710835 30.7443 1.07706 30.9478 1.10278C31.3991 1.1579 31.878 1.15667 32.316 1.04031C32.5195 0.985195 32.4022 0.568756 32.4011 0.318892C32.4 -0.12082 32.6854 0.034733 32.869 0.0298337C33.0581 0.0249344 33.3866 -0.0963231 33.3169 0.326241C33.1908 1.0942 33.579 1.15422 34.0978 1.0942C34.2615 1.07461 34.4329 1.07216 34.5944 1.10155C34.987 1.17382 35.1319 1.02316 35.0512 0.581004C35.0003 0.305419 34.9284 -0.00936066 35.3719 0.034733C35.6827 0.0665784 36.0875 -0.0828501 35.9747 0.547934C35.8807 1.07583 36.134 1.23016 36.5565 1.20076C36.666 1.19342 36.7788 1.18974 36.8872 1.20689C37.3672 1.28283 37.6835 1.17627 37.5663 0.522212C37.501 0.159665 37.7078 0.0984237 37.9556 0.159665C38.1591 0.209883 38.5772 -0.0399812 38.4998 0.471995C38.377 1.2963 38.8039 1.32325 39.3304 1.28773C39.4952 1.2767 39.6677 1.26813 39.8259 1.30732C40.3501 1.43716 40.5183 1.20199 40.4386 0.644695C40.4132 0.46832 40.3413 0.162115 40.6554 0.244178C40.9065 0.309093 41.402 0.0188103 41.3566 0.60795C41.3013 1.3257 41.6309 1.40408 42.1275 1.36979C42.31 1.35754 42.4969 1.37224 42.6783 1.40408C43.1528 1.48737 43.4205 1.34652 43.3165 0.746355C43.2546 0.389932 43.4061 0.263775 43.7114 0.325016C43.9425 0.371559 44.3451 0.169463 44.2577 0.71451C44.1449 1.41388 44.4579 1.53637 44.9833 1.45798C45.1824 1.42858 45.3914 1.43471 45.5894 1.46778C45.9809 1.53392 46.1435 1.36244 46.0738 0.938652C45.9787 0.359311 46.3105 0.419327 46.6589 0.393606C47.1434 0.359311 47.0549 0.699812 47.0073 0.982746C46.9366 1.40531 47.0505 1.59393 47.4486 1.54861C47.557 1.53637 47.6698 1.55351 47.7782 1.56944C48.2903 1.64782 48.631 1.53882 48.5591 0.832093C48.5049 0.301744 48.892 0.560182 49.0955 0.520988C49.3477 0.471995 49.5401 0.544259 49.4694 0.903132C49.3422 1.53759 49.653 1.67355 50.1352 1.63803C50.3177 1.62455 50.5079 1.61843 50.686 1.65885C51.1605 1.76541 51.4027 1.6221 51.3463 1.03296C51.2987 0.525887 51.6051 0.596927 51.9181 0.600601C52.2875 0.6055 52.3362 0.7831 52.2975 1.1285C52.2776 1.3061 52.1128 1.60741 52.3495 1.6662C52.7388 1.76173 53.1635 1.8095 53.5517 1.73601C53.8282 1.68457 53.7121 1.2816 53.7187 1.04399C53.7342 0.500166 54.076 0.727983 54.3071 0.694912C54.5892 0.654493 54.7352 0.784325 54.6566 1.1089C54.4929 1.79358 54.8303 1.88789 55.3191 1.8242C55.4098 1.81195 55.5072 1.80705 55.5945 1.83155C56.0723 1.96628 56.2814 1.75806 56.2283 1.22649C56.183 0.772076 56.4152 0.754929 56.7304 0.772076C57.0545 0.789224 57.237 0.859039 57.1762 1.2914C57.1485 1.48615 57.0114 1.84012 57.2248 1.89401C57.592 1.98833 58.0013 1.9871 58.374 1.90994C58.6328 1.85727 58.53 1.4886 58.5355 1.27425C58.551 0.698587 58.9171 0.934978 59.167 0.892109C59.5077 0.833317 59.542 1.07093 59.4811 1.33182C59.3362 1.94791 59.615 2.07161 60.0828 2.02507C60.2089 2.01282 60.3405 2.03854 60.4677 2.05814C60.7929 2.10713 61.0097 2.03242 60.9433 1.59148C60.8471 0.963149 61.2397 1.05868 61.587 1.04276C62.1212 1.01704 61.8547 1.42368 61.8768 1.66742C61.8956 1.86584 61.7474 2.10223 62.0814 2.18062C63.1056 2.42191 63.1985 2.36067 63.2947 1.21301C63.4938 1.23628 63.6918 1.26078 63.8909 1.28405C63.8876 1.85237 63.8732 2.42191 63.8831 2.99023C63.8898 3.40667 64.0877 3.61611 64.4804 3.59774C65.1949 3.56222 65.9105 3.5414 66.625 3.51323C66.7267 3.90395 66.7256 4.17463 66.2257 4.13299C66.0952 4.12197 65.8087 4.11094 65.7435 4.4049C65.6174 4.97199 65.8508 5.36026 66.3805 5.32597C67.0353 5.28432 66.8086 5.88326 66.8583 6.16252C66.938 6.61448 66.5464 6.35849 66.3938 6.34747C66.0111 6.3193 65.8308 6.41361 65.9448 6.87537C65.9779 7.01132 65.9934 7.16075 65.9802 7.30038C65.9249 7.90054 66.0908 8.2092 66.7035 8.11734C67.2676 8.03283 67.0032 8.5889 67.0784 8.84856C67.1968 9.25642 66.865 9.08862 66.7057 9.12414C66.5144 9.16701 66.1759 9.01881 66.1505 9.20988C66.0963 9.62265 66.1306 10.0758 66.2357 10.4788C66.3042 10.7397 66.6272 10.6123 66.8207 10.5866C67.2985 10.5229 67.2267 10.8646 67.2665 11.1892C67.3207 11.6375 67.0895 11.6399 66.8119 11.6203C66.5166 11.5983 66.2589 11.5909 66.3142 12.0796C66.3584 12.4728 66.3651 12.8084 66.8705 12.659C67.4788 12.4789 67.3704 13.0264 67.4191 13.3853C67.4888 13.901 67.1149 13.6842 66.9413 13.6842C66.5675 13.6842 66.4027 13.7932 66.4746 14.2464C66.5343 14.6248 66.5464 15.0168 66.5464 15.4026C66.5464 15.8251 66.6703 16.0787 67.0917 15.988C67.8007 15.8362 67.5662 16.511 67.6071 16.8075C67.6646 17.2288 67.2775 17.0059 67.1249 16.9936C66.7035 16.9593 66.6294 17.1467 66.6836 17.5558C66.7367 17.9576 66.7831 18.374 66.7466 18.7733C66.6969 19.3122 66.8827 19.5155 67.3461 19.4825C67.4368 19.4763 67.5386 19.4714 67.6193 19.5082C67.9898 19.6711 67.7498 20.0287 67.8051 20.2921C67.8516 20.5138 67.7155 20.5885 67.5419 20.5321C66.8285 20.2994 66.8053 20.7612 66.865 21.332C66.886 21.5328 66.8783 21.7398 66.8705 21.9431C66.8484 22.5053 66.9612 22.8887 67.5905 22.6976C67.8593 22.6168 67.981 22.7907 67.9135 23.0639C67.856 23.3002 68.148 23.7914 67.6392 23.7265C66.9944 23.6444 66.8948 23.9776 66.9734 24.5581C66.9977 24.7382 66.9778 24.9244 66.9778 25.1081C66.9778 25.9851 66.9778 25.9924 67.7752 26.1149C68.2132 26.1822 67.9765 26.5485 68.0241 26.78C68.065 26.9821 68.0484 27.2356 67.7664 27.1584C67.0032 26.9527 66.9656 27.412 67.0663 28.0403C67.0984 28.2387 67.0895 28.4482 67.0773 28.6503C67.0408 29.2247 67.0497 29.6803 67.7963 29.5664C68.2597 29.4954 68.013 30.0074 68.0816 30.2511C68.1546 30.512 68.0175 30.5855 67.7852 30.6002C67.0619 30.6455 67.0619 30.6578 67.0917 31.471C67.1006 31.7148 67.1371 31.961 67.1205 32.2035C67.0984 32.5317 67.2134 32.6481 67.4987 32.6101C67.6259 32.593 67.7564 32.6113 67.8847 32.6077C68.2851 32.5942 68.1314 32.9335 68.1303 33.1294C68.1292 33.3242 68.2884 33.6243 67.8903 33.6635C67.1282 33.7394 67.1293 33.7627 67.1537 34.6213C67.1592 34.805 67.1868 34.9912 67.168 35.1712C67.1061 35.7628 67.2012 36.1388 67.8726 36.0457C68.3393 35.9808 68.096 36.4352 68.1391 36.6606C68.18 36.8786 68.1778 37.164 67.8593 37.0758C67.2156 36.8982 67.1138 37.2485 67.1868 37.8389C67.2189 38.0998 67.2145 38.3705 67.1902 38.6326C67.1492 39.0796 67.2488 39.3344 67.7155 39.267C68.3283 39.1788 68.1435 39.7116 68.1668 40.0423C68.2033 40.5519 67.8449 40.3192 67.6691 40.2922C67.3129 40.2383 67.1426 40.3241 67.1957 40.7564C67.2178 40.9365 67.2156 41.1251 67.1957 41.3064C67.1459 41.7644 67.2974 42.0057 67.7343 41.9678C68.3648 41.9139 68.2763 42.4185 68.242 42.8227C68.1977 43.342 67.8527 42.9746 67.6503 43.0162C67.4976 43.0468 67.2045 42.8521 67.2864 43.2195C67.355 43.5221 67.0143 44.1333 67.6104 44.0953C68.2143 44.0561 68.346 44.3096 68.2575 44.8792C67.8571 44.8681 67.4578 44.851 67.0574 44.8461C66.1416 44.8351 66.0288 44.9527 65.9591 45.9656C65.6218 46.0268 65.8342 46.3159 65.7811 46.4947C65.7225 46.6919 65.9669 47.0875 65.4968 47.0104C65.207 46.9626 64.758 47.1647 64.8398 46.5315C64.9228 45.886 64.5976 45.7917 64.1408 45.8345C64.0678 45.8419 63.9937 45.8394 63.9196 45.8345C63.3423 45.7978 62.7671 45.6863 62.7793 46.6993C62.7837 47.041 62.3568 46.823 62.1312 46.8732C61.8923 46.9258 61.8381 46.747 61.8867 46.5413C62.0527 45.8443 61.7795 45.6435 61.1944 45.7427C61.0528 45.7672 60.8968 45.7476 60.7553 45.712C60.241 45.5834 60.0319 45.9141 60.0607 46.3808C60.0917 46.8965 59.8395 46.7948 59.5597 46.8107C59.177 46.8328 59.1117 46.6037 59.1748 46.284C59.2787 45.7525 59.0365 45.6569 58.6428 45.7096C58.5521 45.7218 58.457 45.7231 58.3674 45.7072C57.8409 45.6177 57.5102 45.7488 57.6418 46.4506C57.6982 46.7519 57.5168 46.8119 57.3166 46.758C57.1087 46.7017 56.6884 46.9834 56.7349 46.4886C56.8167 45.6202 56.3555 45.6594 55.8334 45.6998C55.558 45.7206 55.2782 45.7341 55.005 45.6998C54.5947 45.6496 54.4885 45.8456 54.546 46.2571C54.5781 46.4923 54.7064 46.8132 54.2739 46.7776C53.9698 46.7531 53.5882 46.932 53.6092 46.3073C53.6159 46.1236 53.7209 45.7733 53.4455 45.739C53.0286 45.6888 52.5795 45.6594 52.1858 45.7843C51.9192 45.8688 52.084 46.2938 52.0884 46.5584C52.094 46.9271 51.8849 46.9087 51.6925 46.8695C51.5011 46.8303 51.114 47.0777 51.1638 46.6062C51.2523 45.777 50.853 45.7255 50.2945 45.8223C50.1319 45.8505 49.9593 45.8603 49.7978 45.8296C49.2625 45.7292 49.1608 46.0109 49.2647 46.5143C49.309 46.7311 49.3632 47.0116 49.0269 46.9454C48.7792 46.8965 48.3125 47.2406 48.3412 46.6037C48.3733 45.9068 48.0747 45.7757 47.546 45.9007C47.4033 45.9337 47.2484 45.957 47.1058 45.935C46.5804 45.8529 46.3526 46.0378 46.3869 46.676C46.42 47.2725 45.9378 46.981 45.6845 47.0483C45.3627 47.1328 45.4335 46.8144 45.4666 46.6588C45.6182 45.935 45.2399 45.9031 44.7687 45.9668C44.6957 45.9766 44.6194 45.9987 44.5486 45.9864C44.0078 45.8933 43.76 46.1015 43.8728 46.7384C43.8961 46.872 43.9547 47.052 43.7291 47.1243C43.2181 47.2884 42.9139 47.0888 42.9316 46.507C42.9438 46.1162 42.8376 46.017 42.4958 46.0538C42.0944 46.0966 41.684 46.1003 41.2814 46.0685C40.8169 46.0305 40.5404 46.126 40.6963 46.7372C40.7616 46.992 40.7085 47.2112 40.4121 47.139C40.1809 47.0838 39.7463 47.417 39.7706 46.8083C39.7971 46.1407 39.4963 45.984 38.9698 46.077C38.7906 46.1089 38.5982 46.1101 38.419 46.077C37.9047 45.9827 37.7178 46.2216 37.8218 46.7642C37.8837 47.0912 37.7742 47.2357 37.4822 47.1696C37.2588 47.1194 36.8319 47.3717 36.9015 46.8205C36.9922 46.1003 36.6638 46.0036 36.1483 46.077C36.0035 46.0979 35.8519 46.0966 35.707 46.0746C35.3575 46.0232 35.2027 46.1395 35.2624 46.5645C35.2956 46.8009 35.4593 47.1635 34.9782 47.1414C34.6242 47.1255 34.2604 47.2014 34.3333 46.5853C34.382 46.175 34.2051 45.9913 33.8235 46.0562C33.7162 46.0746 33.6001 46.0623 33.4939 46.0366C32.9862 45.9141 32.7772 46.126 32.8712 46.6956C32.9298 47.0508 32.7783 47.1145 32.4785 47.139C32.0372 47.1745 31.8625 46.9969 31.9244 46.5315C31.9808 46.1052 31.8315 45.935 31.4488 45.9815C31.3227 45.9962 31.1922 45.9644 31.0628 45.9619C30.2764 45.9435 30.272 45.9435 30.1072 46.8119C30.0154 47.2945 29.6991 46.9895 29.4889 47.0312C29.2921 47.0704 29.1018 47.0079 29.177 46.7054C29.3485 46.0158 29.0421 45.8676 28.5057 45.9497C28.3608 45.9717 28.2082 45.9705 28.0644 45.946C27.6098 45.8688 27.362 46.0121 27.4328 46.5804C27.5025 47.1377 27.1265 46.9712 26.8599 47.0079C26.5005 47.0569 26.4662 46.8377 26.4971 46.5351C26.5071 46.4347 26.5027 46.3318 26.5016 46.2289C26.5016 46.1248 26.4938 46.0256 26.3622 46.0268C26.2217 46.0281 26.2394 46.1444 26.2361 46.2375C26.2262 46.5633 26.2284 46.8891 26.2162 47.2149C26.1122 49.9267 26.0536 52.6396 26.1808 55.3514C26.3412 58.7919 26.5524 62.2288 26.7394 65.6669C26.7891 66.5892 26.5635 66.8892 25.7461 67.0019C25.5636 67.0276 25.3789 67.0276 25.1953 67.0436C23.8493 67.1624 22.5077 66.9995 21.165 66.9615C17.4587 66.8586 13.769 67.3142 10.0682 67.362C7.36062 67.3963 4.65528 67.4061 1.9632 66.9835C0.655875 66.7778 0.226736 66.7239 0.262129 64.7727C0.324066 61.3481 0.383792 57.9248 0.564075 54.5063C0.788599 50.2574 0.672466 46.0281 0.15595 41.8122C0.136042 41.653 0.211252 41.4301 0 41.3382L0.00995426 41.3333ZM13.6219 40.095C11.3766 40.0399 8.89137 39.9395 6.40501 39.9333C4.91519 39.9297 3.41984 39.9419 1.93555 40.1452C1.05294 40.2653 1.02639 40.3155 1.11709 41.2782C1.13589 41.4803 1.13921 41.6861 1.16465 41.8869C1.69775 46.1028 1.81278 50.3333 1.5595 54.5785C1.34604 58.1379 1.30511 61.7021 1.3217 65.2676C1.32392 65.6485 1.41461 65.7808 1.76633 65.8408C4.95169 66.3797 8.15586 66.3332 11.36 66.2327C14.3784 66.1372 17.389 65.8151 20.4129 65.8898C22.0332 65.9302 23.6546 65.9033 25.275 65.9339C25.6787 65.9412 25.7705 65.7685 25.7461 65.3607C25.6178 63.1841 25.5393 61.0027 25.38 58.8299C25.0737 54.6533 25.1467 50.4754 25.2705 46.2963C25.3225 44.546 25.5316 42.7994 25.3192 41.043C25.2606 40.558 25.1246 40.3645 24.6335 40.3743C21.0411 40.4429 17.452 40.2677 13.6219 40.0975V40.095ZM52.6249 36.9264C54.4122 36.9264 56.1995 36.9264 57.9869 36.9264C58.1661 36.9264 58.3674 36.9729 58.3651 36.6435C58.3651 36.3789 58.3674 36.1462 58.0444 36.1425C57.9349 36.1413 57.8265 36.1021 57.717 36.0862C56.5225 35.9073 55.5691 35.3121 54.9055 34.1656C54.3569 33.2176 53.9233 32.2084 53.5318 31.1746C50.2137 22.411 46.8967 13.6474 43.5853 4.88136C43.4647 4.5629 43.3729 4.34611 42.9825 4.33509C42.5677 4.32284 42.4992 4.59842 42.3841 4.89483C39.5173 12.3234 36.6582 19.7544 33.7792 27.1768C32.9309 29.3631 32.1633 31.5886 31.1325 33.688C30.4689 35.0389 29.542 35.9086 28.1407 36.0764C27.7846 36.1192 27.7492 36.3336 27.7591 36.6594C27.7713 37.0574 28.0279 36.9215 28.196 36.9227C30.9235 36.9301 33.6498 36.9301 36.3773 36.9227C36.5631 36.9227 36.8252 37.0611 36.8507 36.6312C36.8739 36.2356 36.7135 36.1413 36.4138 36.118C35.8077 36.069 35.2071 35.9784 34.6353 35.7285C33.7626 35.3476 33.3811 34.6017 33.579 33.601C33.6808 33.0853 33.7903 32.5636 33.9706 32.0773C34.6486 30.2523 35.3631 28.4433 36.051 26.622C36.1539 26.3513 36.2988 26.279 36.5509 26.2802C40.015 26.2888 43.4791 26.2888 46.9432 26.2802C47.2252 26.2802 47.3602 26.3758 47.4674 26.6697C47.974 28.0673 48.5038 29.4538 49.0269 30.8439C49.3742 31.765 49.6828 32.7008 49.8465 33.6867C50.0168 34.7144 49.6131 35.4787 48.725 35.8498C48.2881 36.0323 47.8313 36.0788 47.3756 36.1376C47.1213 36.1707 46.9277 36.1915 46.9343 36.5834C46.9432 37.0415 47.2142 36.9252 47.4298 36.9252C49.1619 36.9301 50.8939 36.9276 52.626 36.9276L52.6249 36.9264Z" fill="#010101"/>
<path d="M68.2663 44.8765C68.8824 44.9733 69.1169 45.4056 69.1169 46.0523C69.1169 46.1626 69.0914 46.301 69.2308 46.3536V47.3335C68.6877 48.1419 67.8781 48.1554 67.0995 48.1407C66.1251 48.1235 66.0709 48.0169 66.0244 46.9342C66.01 46.6096 65.9879 46.2863 65.9691 45.9629C66.0388 44.95 66.1516 44.8324 67.0674 44.8434C67.4678 44.8483 67.8671 44.8655 68.2674 44.8765H68.2663Z" fill="#6A00FF"/>
<path d="M13.6218 40.0953C17.452 40.2655 21.0411 40.4407 24.6334 40.3721C25.1245 40.3623 25.2606 40.5558 25.3192 41.0408C25.5315 42.7972 25.3225 44.5438 25.2705 46.2941C25.1466 50.4732 25.0748 54.651 25.38 58.8277C25.5393 61.0018 25.6178 63.1819 25.7461 65.3584C25.7704 65.7663 25.6786 65.939 25.2749 65.9317C23.6546 65.9023 22.0332 65.928 20.4128 65.8876C17.389 65.8129 14.3783 66.1362 11.36 66.2305C8.15583 66.331 4.95166 66.3787 1.7663 65.8386C1.41458 65.7786 1.32389 65.6463 1.32168 65.2654C1.30509 61.6999 1.34601 58.1357 1.55947 54.5763C1.81386 50.3299 1.69883 46.0993 1.16462 41.8847C1.13918 41.6826 1.13586 41.4781 1.11706 41.276C1.02526 40.3133 1.05181 40.2643 1.93552 40.143C3.41981 39.9409 4.91516 39.9275 6.40498 39.9311C8.89134 39.9373 11.3777 40.0377 13.6218 40.0928V40.0953ZM19.8344 44.948C14.7433 50.6863 9.65229 56.4246 4.47496 62.2609C4.51257 61.6362 4.54575 61.1904 4.56234 60.7445C4.57561 60.3857 4.48381 60.0868 4.10223 60.0464C3.72397 60.0072 3.63106 60.3097 3.6001 60.627C3.5282 61.3765 3.47069 62.1274 3.42092 62.8794C3.36783 63.6878 3.58019 63.9511 4.32344 63.9781C4.98595 64.0013 5.64957 63.9817 6.31097 64.0087C6.64942 64.0222 6.92703 63.9364 6.96242 63.5359C7.00224 63.0937 6.69255 62.937 6.36185 62.899C6.06322 62.8647 5.75906 62.8916 5.32218 62.8916C10.494 57.0615 15.5585 51.3538 20.6318 45.6339C20.7823 45.8629 20.7446 46.0724 20.7579 46.2671C20.8619 47.7088 20.9581 49.1516 21.0588 50.5944C21.0875 51.0011 21.2225 51.3355 21.6516 51.3024C22.0287 51.273 22.1183 50.9447 22.0918 50.592C21.9911 49.2533 21.9004 47.9121 21.7589 46.5782C21.6815 45.8495 21.7611 45.1109 21.5985 44.3883C21.4746 43.8395 21.197 43.5933 20.6893 43.6509C19.0192 43.8395 17.3425 43.7722 15.668 43.7918C15.4866 43.7942 15.303 43.8261 15.1249 43.8665C14.8915 43.9204 14.7997 44.1053 14.8008 44.3613C14.802 44.6271 14.9391 44.7863 15.1504 44.8451C15.3074 44.8892 15.4777 44.8831 15.6425 44.8831C17.0195 44.877 18.3977 44.9247 19.8322 44.9505L19.8344 44.948Z" fill="#FDFDFD"/>
<path d="M52.6248 36.9264C50.8928 36.9264 49.1607 36.9289 47.4287 36.924C47.213 36.924 46.9409 37.0403 46.9332 36.5822C46.9266 36.1903 47.1201 36.1695 47.3745 36.1364C47.8302 36.0776 48.287 36.0311 48.7239 35.8486C49.6109 35.4775 50.0157 34.7119 49.8454 33.6855C49.6817 32.6996 49.3731 31.7638 49.0258 30.8427C48.5027 29.4526 47.9729 28.0661 47.4663 26.6685C47.3601 26.3733 47.2241 26.2778 46.942 26.279C43.478 26.2888 40.0139 26.2888 36.5498 26.279C36.2976 26.279 36.1527 26.3501 36.0499 26.6208C35.3619 28.4421 34.6485 30.2511 33.9694 32.0761C33.7892 32.5612 33.6797 33.0842 33.5779 33.5998C33.3799 34.6005 33.7615 35.3464 34.6342 35.7273C35.2049 35.9772 35.8065 36.0678 36.4127 36.1168C36.7124 36.1413 36.8728 36.2344 36.8495 36.63C36.8241 37.0612 36.562 36.9215 36.3762 36.9215C33.6487 36.9289 30.9223 36.9289 28.1949 36.9215C28.0267 36.9215 27.7701 37.0563 27.758 36.6582C27.748 36.3336 27.7834 36.118 28.1396 36.0752C29.5409 35.9074 30.4677 35.0377 31.1314 33.6868C32.1633 31.5874 32.9309 29.3619 33.7781 27.1756C36.6571 19.7532 39.5173 12.321 42.383 4.89363C42.498 4.59723 42.5655 4.32164 42.9814 4.33389C43.3707 4.34491 43.4636 4.56171 43.5841 4.88016C46.8956 13.6462 50.2115 22.411 53.5307 31.1734C53.9222 32.2072 54.3569 33.2152 54.9043 34.1644C55.5669 35.3109 56.5214 35.9061 57.7159 36.085C57.8254 36.1009 57.9338 36.1401 58.0433 36.1413C58.3673 36.1462 58.3629 36.3777 58.364 36.6423C58.3651 36.9705 58.1649 36.924 57.9857 36.9252C56.1984 36.9252 54.4111 36.9252 52.6237 36.9252L52.6248 36.9264ZM46.6932 24.5594C45.0784 20.2946 43.4813 16.0787 41.8421 11.7502C41.5601 12.4704 41.3267 13.0644 41.0956 13.6597C39.7495 17.1161 38.4013 20.5714 37.0652 24.0327C36.9966 24.2115 36.646 24.5655 37.23 24.5643C40.3612 24.5545 43.4912 24.5594 46.6932 24.5594Z" fill="#6A00FF"/>
<path d="M63.8975 1.28655C64.0977 0.838266 64.4317 0.645969 64.8752 0.643519C65.3696 0.64107 65.864 0.615349 66.3573 0.620248C66.5553 0.622697 66.7555 0.656993 66.9147 0.828468C67.4091 1.36249 67.2233 3.14828 66.6316 3.51573C65.9171 3.54268 65.2015 3.56472 64.487 3.60024C64.0944 3.61984 63.8964 3.40917 63.8897 2.99273C63.8798 2.42441 63.8942 1.85487 63.8975 1.28655Z" fill="#6A00FF"/>
<path d="M17.7385 4.03006C17.3713 3.94677 17.2275 3.68343 17.2297 3.28537C17.233 2.81871 17.2253 2.35205 17.2197 1.88539C17.2131 1.42364 17.441 1.1211 17.8236 1.07946C18.5868 0.998622 19.3566 0.992498 20.0622 1.42364C20.2292 1.97358 20.2514 2.52965 20.1585 3.10164C20.0644 3.67486 19.8034 3.93942 19.2504 3.89165C18.7461 3.84756 18.2273 3.77897 17.7396 4.03128L17.7385 4.03006Z" fill="#6A00FF"/>
<path d="M19.1996 39.2004C19.1996 39.2004 19.1918 39.2103 19.1918 39.2091C19.4595 39.1891 19.726 39.1704 19.9926 39.1504C19.9926 39.1666 19.9937 39.1829 19.9948 39.1991H19.1996V39.2004Z" fill="#FC7600"/>
<path d="M48.0437 69.6005C46.5904 67.8674 45.6303 65.8023 44.813 63.6491C44.5652 62.9963 44.5907 62.2945 44.8627 61.5522C44.1206 61.6073 43.4492 61.5877 42.9195 61.001C42.404 60.4291 42.2957 59.6929 42.2293 58.9531C42.0291 58.8821 42.038 59.0548 41.997 59.1479C41.3069 60.7071 40.2473 61.2938 38.7022 60.9704C38.596 60.9484 38.4876 60.9386 38.3792 60.9227C38.3593 60.8982 38.325 60.8504 38.3228 60.8516C38.2697 60.8957 38.2775 60.9435 38.325 60.9888C38.544 61.4701 38.8769 61.8486 39.2297 62.2099C40.1002 63.1004 40.3756 64.6731 39.8558 65.8562C39.6224 66.3878 39.3768 66.9157 39.1026 67.4216C38.2144 69.0604 37.1095 69.5723 35.3089 69.3151C32.5648 68.9232 30.9257 66.416 31.1148 63.2314C31.1889 61.9931 31.388 60.8222 32.0627 59.7738C32.8657 58.5257 33.662 57.3241 35.3089 57.5421C34.7415 55.155 35.3056 53.0875 36.4326 51.1816C37.5895 49.2268 39.6379 49.217 40.8656 51.113C41.2604 51.723 41.6365 52.3489 41.9738 53.1414C42.1419 52.3562 42.3067 51.685 42.6407 51.0849C43.1152 50.2312 43.7202 49.9323 44.605 50.132C44.6957 50.1528 44.7853 50.1724 44.8749 50.1981C47.8446 51.0824 48.8522 52.6122 48.9363 56.2928C48.9551 57.0951 48.7515 57.819 48.4938 58.5416C48.4839 58.5881 48.454 58.6653 48.4673 58.6751C48.5204 58.7167 48.5514 58.6739 48.5635 58.6126C48.7515 58.5367 48.9374 58.4546 49.1276 58.3836C49.8366 58.119 50.2856 58.2207 50.7468 58.8784C52.3727 61.2007 53.1193 63.8304 52.8029 66.7651C52.6293 68.3781 51.2678 69.7083 49.7602 69.881C49.1785 69.8675 48.5834 69.941 48.0437 69.6005ZM36.0532 68.4872C37.1493 68.5361 37.7123 68.1026 38.158 67.4669C38.6225 66.8043 38.9897 66.0571 39.2342 65.2757C39.4808 64.4857 39.4377 63.6258 38.857 62.9975C38.2587 62.3496 37.7687 61.6233 37.2942 60.8724C36.7987 60.0885 36.2733 59.3255 35.6728 58.6359C35.2082 58.1019 34.4572 58.2685 34.1984 58.9409C34.1055 59.1834 34.0259 59.4369 33.975 59.6942C33.6299 61.4199 33.067 63.0428 32.1324 64.4893C31.993 64.7049 31.941 64.907 32.0074 65.1691C32.348 66.5164 33.0227 67.6004 34.2161 68.105C34.8875 68.3892 35.6495 68.4088 36.0554 68.4872H36.0532ZM42.8885 52.5706C42.8232 52.8425 42.8022 52.916 42.7889 52.9907C42.3852 55.2652 42.7978 57.4968 43.134 59.7199C43.2822 60.701 44.2334 61.0378 45.0652 60.5319C45.4689 60.2857 45.8493 59.9881 46.2685 59.7848C46.8348 59.5092 47.2418 59.0609 47.5825 58.5171C48.0724 57.7357 48.0658 57.6218 47.265 57.3523C46.2154 56.9983 45.554 56.2781 45.2797 55.1121C45.1459 54.5438 44.8052 54.2204 44.3175 54.033C43.7136 53.8015 43.1749 53.4672 42.8885 52.5706ZM49.393 59.3083C49.361 59.2483 49.3289 59.1883 49.2979 59.1283C48.3202 60.0592 47.0173 60.3323 46.0362 61.2423C45.4423 61.7935 45.2454 62.5394 45.5264 63.3429C46.1258 65.0613 46.9498 66.6499 47.8988 68.1626C48.8832 69.7304 50.7446 69.0616 51.5598 67.7449C50.6196 68.1295 50.0334 67.6886 49.58 66.8814C49.4196 66.5948 49.1409 66.4491 48.8599 66.3413C48.2693 66.1122 48.0006 65.6076 47.8922 64.9695C47.8158 64.5163 47.8999 64.0729 48.0304 63.6467C48.2184 63.0342 48.2715 62.4341 48.1421 61.7874C47.9817 60.9839 48.2317 60.3004 48.8245 59.7872C49.0115 59.6256 49.2017 59.4676 49.3908 59.3083H49.393ZM36.5178 57.5911C37.0564 58.4938 37.6083 59.2679 38.3626 59.8436C39.2972 60.5564 40.6455 60.2441 41.1576 59.1295C41.7758 57.7834 41.7548 56.3381 41.5801 54.8855C41.5635 54.7508 41.5248 54.5364 41.3511 54.692C40.6797 55.2946 39.7839 55.5751 39.2552 56.3639C38.5683 57.3878 37.8328 58.1705 36.5178 57.5911Z" fill="#010101"/>
<path d="M48.3877 70.1519C49.2858 70.8072 49.8443 71.7528 50.196 72.8465C50.7579 74.5944 50.9702 76.3605 50.3663 78.1647C49.8742 79.6357 48.7383 80.3229 47.3812 79.8537C46.2353 79.4581 45.0762 79.1397 43.8928 78.9535C42.3687 78.7134 40.8578 78.9706 39.3481 79.1936C39.1656 79.2205 38.9831 79.2487 38.8017 79.283C36.0101 79.8035 34.8786 77.6221 34.7371 75.4848C34.6099 73.5753 35.0766 71.8899 36.5498 70.6933C37.1438 70.2107 37.7045 69.6767 38.3184 69.2296C39.1822 68.6001 39.8679 67.8223 40.3944 66.8278C41.1509 65.3972 42.8465 64.5949 44.1792 64.9256C44.7842 65.0763 45.2145 65.4376 45.4578 66.0622C45.6038 66.4358 45.7586 66.8106 45.8549 67.2013C46.1634 68.4568 46.9388 69.2443 47.9331 69.8212C48.0835 69.9302 48.2361 70.0405 48.3877 70.1519ZM49.8852 75.3831C49.5833 75.9233 49.3919 76.5259 48.8865 76.8872C47.8435 77.6331 46.7629 77.6527 45.783 76.864C45.0563 76.2785 44.2965 76.0543 43.4371 75.9747C42.6629 75.9037 42.2271 75.4297 42.0955 74.6042C42.0269 74.1779 41.8754 73.8533 41.5612 73.5827C40.9098 73.0205 40.5315 72.315 40.7185 71.3486C40.7472 71.1967 40.7428 71.0069 40.6842 70.8709C40.3723 70.1434 40.2528 69.384 40.3756 68.4543C39.3381 69.5922 38.1868 70.3308 37.1427 71.2273C35.529 72.6126 35.1894 74.3984 35.6739 76.4659C36.0245 77.9602 37.0376 78.6804 38.4146 78.4917C38.7243 78.4489 39.034 78.3925 39.3448 78.3558C41.1896 78.1365 43.0289 77.8512 44.8871 78.2872C45.825 78.5077 46.7529 78.7526 47.6643 79.0748C48.2925 79.2977 48.9042 79.147 49.2747 78.6044C49.9129 77.6662 50.0544 76.548 49.8852 75.3819V75.3831Z" fill="#010101"/>
<path d="M58.3806 54.6495C58.364 55.0145 58.1218 55.0905 57.8884 55.148C56.5026 55.4898 55.6686 56.5848 55.631 58.144C55.6233 58.4453 55.6211 58.7564 55.2904 58.8054C54.9121 58.8605 54.8701 58.5188 54.8081 58.2113C54.7285 57.8145 54.6367 57.4213 54.5383 57.0306C54.275 55.9809 53.7364 55.4641 52.7531 55.3379C52.4523 55.2987 52.1039 55.3183 52.1338 54.8553C52.157 54.4977 52.387 54.3384 52.7443 54.3017C53.9156 54.1792 54.6389 53.4027 54.9464 51.9647C55.0139 51.6512 55.0769 51.3915 55.4109 51.4393C55.7162 51.4822 55.735 51.7541 55.7427 52.0407C55.7814 53.4406 56.3477 54.0837 57.6318 54.2209C57.9327 54.2527 58.2777 54.2184 58.3806 54.6495Z" fill="#6A00FF"/>
<path d="M59.9258 56.1572C60.2178 56.2025 60.335 56.4353 60.3383 56.6778C60.3527 57.5988 60.6945 58.128 61.5826 58.1476C61.7972 58.1525 62.0106 58.3215 61.9974 58.6265C61.9852 58.9045 61.7784 58.967 61.5782 59.0343C60.6469 59.343 60.4722 59.6149 60.4821 60.7332C60.4843 60.9953 60.4478 61.2378 60.1779 61.3052C59.8771 61.3799 59.7234 61.1741 59.6802 60.8826C59.5342 59.904 59.0476 59.3614 58.1307 59.3356C57.8896 59.3283 57.7624 59.1654 57.7303 58.9168C57.6949 58.6461 57.7746 58.4342 58.0311 58.3448C58.1716 58.2958 58.3121 58.248 58.4525 58.2015C59.1018 57.9834 59.4723 57.5229 59.5088 56.7525C59.5232 56.4512 59.6194 56.1927 59.9258 56.1585V56.1572Z" fill="#6A00FF"/>
<path d="M19.8344 44.9474C18.3999 44.9216 17.0218 44.8739 15.6448 44.88C15.48 44.88 15.3097 44.8861 15.1526 44.842C14.9414 44.7832 14.8042 44.624 14.8031 44.3582C14.802 44.1035 14.8938 43.9185 15.1272 43.8634C15.3052 43.8218 15.4888 43.7911 15.6702 43.7887C17.3448 43.7691 19.0215 43.8365 20.6916 43.6478C21.1993 43.5903 21.478 43.8365 21.6008 44.3852C21.7633 45.1078 21.6837 45.8464 21.7611 46.5752C21.9027 47.909 21.9934 49.2502 22.0941 50.5889C22.1206 50.9417 22.031 51.2699 21.6539 51.2993C21.2247 51.3324 21.0898 50.998 21.061 50.5914C20.9593 49.1497 20.8641 47.7069 20.7602 46.2641C20.7458 46.0693 20.7834 45.8599 20.6341 45.6308C15.5596 51.3507 10.4962 57.0584 5.32445 62.8886C5.76133 62.8886 6.06548 62.8616 6.36411 62.8959C6.69482 62.9339 7.0045 63.0907 6.96469 63.5328C6.92819 63.9333 6.65057 64.0203 6.31324 64.0056C5.65072 63.9787 4.98711 63.9983 4.3257 63.975C3.58245 63.948 3.37009 63.6847 3.42318 62.8763C3.47295 62.1243 3.53047 61.3735 3.60236 60.6239C3.63333 60.3066 3.72623 60.0041 4.1045 60.0433C4.48608 60.0837 4.57788 60.3826 4.5646 60.7415C4.54801 61.1873 4.51373 61.6331 4.47723 62.2578C9.65455 56.4215 14.7456 50.6832 19.8366 44.9449L19.8344 44.9474Z" fill="#6A00FF"/>
<path d="M46.6932 24.5592C43.4912 24.5592 40.3601 24.5543 37.23 24.5641C36.646 24.5653 36.9966 24.2113 37.0652 24.0325C38.4013 20.5712 39.7495 17.1159 41.0956 13.6595C41.3279 13.0642 41.5612 12.4702 41.8422 11.75C43.4813 16.0785 45.0773 20.2944 46.6932 24.5592Z" fill="#010101"/>
<path d="M36.0532 68.4881C35.6473 68.4097 34.8852 68.3889 34.2139 68.1059C33.0205 67.6013 32.3458 66.5161 32.0051 65.17C31.9388 64.9091 31.9908 64.707 32.1301 64.4902C33.0647 63.0437 33.6277 61.4208 33.9728 59.6951C34.0236 59.4378 34.1033 59.1843 34.1962 58.9418C34.455 58.2694 35.206 58.104 35.6705 58.6368C36.2711 59.3264 36.7964 60.0895 37.2919 60.8733C37.7675 61.6242 38.2575 62.3505 38.8548 62.9984C39.4354 63.6267 39.4786 64.4853 39.2319 65.2766C38.9886 66.058 38.6203 66.8052 38.1558 67.4678C37.71 68.1035 37.1471 68.5371 36.051 68.4881H36.0532Z" fill="#6A00FF"/>
<path d="M42.8885 52.5713C43.1749 53.4679 43.7136 53.8022 44.3174 54.0337C44.8052 54.2211 45.1459 54.5457 45.2797 55.1128C45.554 56.2788 46.2154 56.999 47.265 57.353C48.0658 57.6225 48.0724 57.7364 47.5824 58.5178C47.2418 59.0604 46.8348 59.5099 46.2685 59.7855C45.8493 59.9888 45.4688 60.2877 45.0651 60.5326C44.2334 61.0397 43.2822 60.7017 43.134 59.7206C42.7978 57.4975 42.3852 55.2659 42.7889 52.9914C42.8022 52.9167 42.8232 52.8432 42.8885 52.5713Z" fill="#6A00FF"/>
<path d="M49.393 59.309C49.2039 59.4682 49.0147 59.6262 48.8267 59.7879C48.2339 60.3011 47.9839 60.9833 48.1443 61.788C48.2726 62.4347 48.2206 63.0349 48.0326 63.6473C47.9021 64.0735 47.818 64.5169 47.8943 64.9701C48.0016 65.6082 48.2704 66.1128 48.8621 66.3419C49.143 66.4509 49.4207 66.5966 49.5821 66.882C50.0356 67.6892 50.6218 68.1301 51.5619 67.7455C50.7457 69.0622 48.8842 69.731 47.901 68.1632C46.952 66.6505 46.128 65.0619 45.5285 63.3435C45.2476 62.54 45.4445 61.7941 46.0384 61.243C47.0195 60.3317 48.3224 60.0598 49.3001 59.1289C49.3322 59.1889 49.3642 59.2489 49.3952 59.309H49.393Z" fill="#6A00FF"/>
<path d="M36.5178 57.5912C37.8328 58.1705 38.5683 57.3879 39.2552 56.3639C39.7839 55.5751 40.6797 55.2946 41.3511 54.692C41.5248 54.5365 41.5635 54.7508 41.5801 54.8856C41.7559 56.3382 41.7758 57.7835 41.1576 59.1296C40.6455 60.2454 39.2972 60.5577 38.3626 59.8436C37.6083 59.268 37.0564 58.4939 36.5178 57.5912Z" fill="#6A00FF"/>
<path d="M49.8852 75.3836C50.0545 76.5497 49.9129 77.6679 49.2747 78.6062C48.9053 79.15 48.2926 79.2994 47.6643 79.0765C46.7519 78.7544 45.8239 78.5094 44.8871 78.2889C43.029 77.8517 41.1896 78.137 39.3448 78.3575C39.034 78.3943 38.7254 78.4518 38.4146 78.4935C37.0376 78.6821 36.0245 77.9619 35.6739 76.4676C35.1883 74.4001 35.5279 72.6143 37.1427 71.229C38.1868 70.3325 39.3381 69.5939 40.3756 68.4561C40.2528 69.3857 40.3723 70.1451 40.6842 70.8726C40.7428 71.0086 40.7472 71.1997 40.7185 71.3503C40.5315 72.3155 40.9098 73.0222 41.5613 73.5844C41.8743 73.8551 42.0269 74.1796 42.0955 74.6059C42.2282 75.4314 42.664 75.9054 43.4371 75.9765C44.2965 76.0561 45.0563 76.2802 45.783 76.8657C46.7629 77.6545 47.8435 77.6349 48.8865 76.889C49.3919 76.5276 49.5833 75.925 49.8852 75.3849V75.3836Z" fill="#6A00FF"/>
</svg>
