<svg width="70" height="80" viewBox="0 0 70 80" fill="none" xmlns="http://www.w3.org/2000/svg">
<path d="M0.0715743 78.8435C-0.0470182 78.6602 -7.53058e-05 78.4818 0.081457 78.301C0.442999 77.4927 0.754305 76.6574 1.17267 75.8793C2.29271 73.7955 2.90791 71.5652 3.26204 69.2465C3.56099 67.287 4.43644 65.5894 5.62236 64.0095C6.67487 62.6072 7.94727 61.3996 9.04178 60.0349C10.0309 58.8019 10.8841 57.4986 11.5759 56.0824C12.0404 55.1309 12.6654 54.2898 13.4478 53.5658C14.0251 53.0307 14.4649 52.386 14.8528 51.7102C15.1378 51.2127 15.5034 50.8028 15.9803 50.4879C16.0149 50.465 16.047 50.4404 16.0816 50.4175C16.3113 50.2612 16.4802 50.0461 16.6605 49.8407C16.9142 49.5511 16.5642 49.3834 16.5288 49.1518C16.3953 48.2764 16.3064 47.3969 16.2603 46.5133C16.2529 46.3775 16.2594 46.2416 16.2594 46.0559C16.0536 46.1492 15.874 46.2277 15.697 46.3112C14.3768 46.9297 13.0377 46.8561 11.7109 46.3676C11.0093 46.1091 10.3446 45.7524 9.65533 45.4578C8.43646 44.9367 7.66808 43.9582 6.97218 42.8978C6.07697 41.5356 5.47906 40.0138 5.47495 38.4258C5.46836 35.7783 6.09014 33.3549 8.82271 32.0205C10.1709 31.3619 11.5602 30.7932 12.8936 30.106C15.9374 28.5368 19.0101 27.0215 21.9008 25.1758C22.6939 24.6694 23.5331 24.3855 24.5041 24.3167C26.2517 24.1932 27.7522 23.3374 29.2157 22.4464C31.5711 21.0122 33.4932 19.1059 35.2532 17.0147C35.9211 16.2211 36.6409 15.47 37.35 14.7116C37.9322 14.089 38.4305 13.4124 38.8044 12.6482C38.9543 12.3414 39.0259 12.0182 39.0729 11.6754C39.4945 8.59752 39.9862 5.53844 42.0591 3.02343C43.5077 1.26603 45.3558 0.247431 47.6527 0.0731644C48.0324 0.0118028 48.4153 0.060074 48.7958 0.044529C50.1991 0.00443944 51.4938 0.430698 52.7621 0.968226C54.5854 1.74056 56.1848 2.84835 57.6433 4.16967C57.8055 4.34802 57.9735 4.51984 58.1844 4.64338C60.4014 6.72722 62.2528 9.09741 63.815 11.6975C66.1572 15.5944 67.8019 19.7596 68.7029 24.2112C68.9845 25.6004 69.1838 27.0019 69.1879 28.4239C69.2126 28.684 69.1361 28.9491 69.2308 29.2052V29.6143C69.1608 30.0782 69.1608 30.5413 69.2308 31.0051V31.3324C69.1278 31.5459 69.2357 31.7791 69.1665 31.9951C68.9746 34.3719 68.5118 36.6799 67.3374 38.7915C66.1045 41.0104 64.3553 42.6123 61.7883 43.1433C59.7491 43.5646 57.7866 43.2079 55.8891 42.4217C54.3762 41.795 53.0034 40.9335 51.726 39.9189C51.4608 39.7087 51.1899 39.5401 50.8506 39.4411C49.4629 39.0362 48.0892 38.5952 46.6537 38.3554C43.6593 37.8547 40.6903 38.0642 37.7486 38.6688C36.15 38.9969 34.5268 39.2939 33.0329 40.0081C32.7998 40.1194 32.5519 40.2249 32.3559 40.3861C31.2136 41.3262 29.8836 41.8645 28.4621 42.204C28.024 42.3088 27.7514 42.4609 27.8272 42.9968C27.9054 43.5466 27.6237 43.9942 27.151 44.256C25.9083 44.944 26.2468 46.2228 27.0036 46.9158C27.0234 46.9346 27.0415 46.9559 27.0637 46.9714C28.1138 47.7004 28.3032 48.7648 28.2464 49.9323C28.1936 51.0197 27.9507 52.0988 28.0149 53.1878C28.0907 54.469 28.3732 55.7126 29.0024 56.8547C29.3549 57.4954 29.7008 58.1188 30.2583 58.644C30.815 59.1693 30.8628 59.9408 30.6701 60.6731C30.1702 62.5777 28.9859 63.9866 27.403 65.1206C26.8315 65.5305 26.2467 65.6826 25.5599 65.609C24.6902 65.5165 23.809 65.5558 22.9459 65.3611C22.3554 65.2277 22.1471 65.0535 22.0548 64.4619C21.8473 63.13 21.5459 61.8185 21.2074 60.5119C21.0707 60.471 21.0122 60.5888 20.9389 60.6534C19.5084 61.906 17.9189 62.9664 16.5263 64.2672C16.0272 64.7336 15.6286 65.2596 15.3511 65.8757C14.8709 66.9426 14.1775 67.8704 13.4841 68.8031C12.7346 69.811 11.9885 70.8231 11.356 71.9088C10.5942 73.2178 10.3389 74.6889 10.0333 76.1403C9.88757 76.8333 9.77392 77.532 9.64298 78.2282C9.55239 78.7068 9.49803 79.1863 9.61745 79.6682C9.49885 79.8293 9.38026 79.9905 9.13814 79.903L9.13978 79.9079C8.78812 79.732 8.84083 79.4129 8.88283 79.1208C8.98248 78.4336 9.06402 77.7439 9.19496 77.0607C9.48897 75.5209 9.75828 73.9746 10.3405 72.5085C10.623 71.7959 11.0208 71.1463 11.4589 70.5138C12.3607 69.2122 13.335 67.9612 14.2121 66.6423C14.5028 66.2054 14.6757 65.7162 14.9187 65.2596C15.4927 64.1813 16.4291 63.4352 17.3531 62.6898C18.3636 61.8741 19.389 61.0772 20.397 60.2566C20.8459 59.8917 21.069 59.3689 21.4388 58.9492C22.3151 57.9543 23.2391 57.0118 24.2801 56.1863C24.7586 55.8067 25.0452 55.2986 25.2049 54.7259C25.3326 54.2686 25.1844 54.001 24.747 53.7801C24.523 53.6672 24.3987 53.4872 24.3188 53.2573C24.2661 53.1043 24.2966 52.9341 24.2126 52.7836C24.0577 52.8474 23.9853 52.9865 23.884 53.0929C22.9888 54.028 22.0318 54.9108 21.3548 56.0325C21.2132 56.2673 21.0163 56.4612 20.7561 56.5782C20.6103 56.6437 20.4596 56.6756 20.3352 56.5512C20.201 56.417 20.2208 56.2542 20.2949 56.0955C20.3352 56.008 20.4036 55.9392 20.4695 55.8697C20.5733 55.7609 20.7042 55.6709 20.78 55.5432C21.4256 54.4486 22.3818 53.6149 23.2053 52.6691C23.7061 52.0939 24.2933 51.6791 25.0427 51.5024C25.1358 51.4803 25.2272 51.4508 25.3194 51.4214C26.0227 51.1972 26.1553 50.9158 25.835 50.2367C25.6365 49.817 25.3837 49.4251 25.0254 49.1134C24.7989 48.9162 24.5675 48.7256 24.3542 48.512C24.0693 48.2273 23.7695 48.2985 23.6295 48.6667C23.3832 49.3171 22.9888 49.8702 22.507 50.3619C22.2097 50.6654 21.9404 50.9918 21.6702 51.3167C21.4158 51.6226 21.1415 51.9057 20.8253 52.1487C20.3789 52.4907 19.9408 52.8417 19.6467 53.3342C19.6327 53.358 19.6146 53.3784 19.5965 53.3989C19.4549 53.5576 19.3025 53.7188 19.0727 53.569C18.857 53.4283 18.8915 53.2115 18.9846 53.0192C19.2292 52.5144 19.6451 52.152 20.0692 51.8067C21.0427 51.0139 21.7921 50.0223 22.5712 49.0569C22.726 48.8655 22.8405 48.6429 22.9146 48.4081C22.9698 48.2347 23.1436 48.0113 22.9748 47.8812C22.7837 47.734 22.5259 47.6088 22.2451 47.7241C21.6291 47.9778 21.0707 48.3173 20.6301 48.8213C19.6764 49.9135 18.5926 50.874 17.5351 51.8607C17.3671 52.0178 17.1769 52.0767 16.9924 51.8869C16.8063 51.6955 16.8854 51.5122 17.0402 51.3469C17.312 51.0581 17.5755 50.7554 17.8868 50.5132C18.3134 50.1811 18.6173 49.7384 19.0118 49.3809C19.3074 49.1125 19.2086 48.7566 19.277 48.4114C18.4476 48.9972 17.615 49.5249 17.055 50.3668C16.9059 50.5909 16.6968 50.7857 16.4653 50.9329C15.9523 51.2594 15.6064 51.7192 15.3017 52.2305C14.8668 52.9603 14.3381 53.614 13.7196 54.2072C13.055 54.8445 12.537 55.6062 12.1309 56.4309C11.5446 57.6222 10.8997 58.7782 10.0572 59.8091C9.25508 60.7917 8.42576 61.7514 7.57749 62.6988C6.06379 64.3899 4.6275 66.1572 4.09219 68.4505C3.85995 69.447 3.72735 70.4607 3.50664 71.4596C3.23157 72.7049 2.83791 73.9092 2.28777 75.0546C1.74422 76.1861 1.20314 77.3176 0.709009 78.472C0.595358 78.7371 0.456176 79.0096 0.0732214 78.8443L0.0715743 78.8435Z" fill="black"/>
<path d="M69.2291 31.0022C69.0948 30.5383 69.0981 30.0752 69.2291 29.6113V31.0022Z" fill="#1C1C1C"/>
<path d="M48.8921 0C48.8806 0.0253628 48.8822 0.0499074 48.8962 0.0736339C48.4811 0.0728158 48.0661 0.0711795 47.651 0.0703613C47.6576 0.047453 47.6592 0.0237265 47.6568 0H48.8921Z" fill="#A1A1A1"/>
<path d="M69.1583 28.3795C69.1821 28.3763 69.206 28.3779 69.2291 28.3853V29.2034C69.0545 28.9416 69.1789 28.6544 69.1583 28.3804V28.3795Z" fill="#A9A9A9"/>
<path d="M9.13564 79.9018C9.3333 79.8993 9.47907 79.793 9.61496 79.667C9.64543 79.8593 9.45189 79.8887 9.37036 80H9.12329C9.12741 79.9673 9.13153 79.9345 9.13564 79.9018Z" fill="#E6E6E6"/>
<path d="M69.1648 31.9918C69.1723 31.7693 69.0594 31.5353 69.2291 31.3291V31.9836L69.1994 32.0065L69.1648 31.9918Z" fill="#A2A2A2"/>
<path d="M0.0715942 78.8437C0.263484 78.8863 0.43396 78.8658 0.514669 78.6588C1.4 76.3762 2.79263 74.2989 3.30159 71.8657C3.48854 70.9731 3.67467 70.0789 3.82949 69.1805C4.14162 67.3773 4.96271 65.822 6.04981 64.3649C7.15585 62.8832 8.51307 61.6216 9.64794 60.1661C10.483 59.0951 11.2506 57.989 11.8427 56.7699C12.3723 55.6793 13.0319 54.6934 13.9321 53.863C14.4971 53.3419 14.9228 52.698 15.3017 52.032C15.557 51.5836 15.8773 51.2057 16.3147 50.9258C16.5938 50.7475 16.8533 50.534 17.027 50.2541C17.5945 49.3386 18.5531 48.8731 19.3939 48.1572C19.3453 48.7397 19.3692 49.229 18.9187 49.6495C18.381 50.1527 17.858 50.6747 17.326 51.1868C17.2379 51.2719 17.1473 51.3562 17.0682 51.4503C16.9661 51.573 16.8986 51.7162 17.0369 51.8512C17.1893 51.9993 17.3342 51.9305 17.4668 51.8029C18.0268 51.2613 18.5901 50.7229 19.1493 50.1805C19.7061 49.6397 20.2743 49.1112 20.7899 48.527C21.2049 48.0558 21.7938 47.83 22.348 47.5575C22.6017 47.4331 22.6808 47.722 22.8504 47.7138C23.3133 47.6909 23.17 47.9625 23.1024 48.1924C22.9987 48.5483 22.8537 48.8968 22.6182 49.1791C21.8399 50.1101 21.1234 51.0985 20.1574 51.8602C19.7464 52.1842 19.3602 52.5303 19.1008 52.9909C18.9995 53.17 18.8883 53.3901 19.1428 53.5227C19.3857 53.6487 19.473 53.4212 19.5694 53.26C19.8041 52.8657 20.1393 52.5671 20.495 52.2848C21.5335 51.4609 22.3299 50.417 23.142 49.3894C23.3791 49.0891 23.5126 48.7242 23.6295 48.3585C23.6583 48.2693 23.6435 48.1417 23.8313 48.1842C24.6952 48.3798 26.2649 50.0848 26.0755 51.0011C26.0326 51.2089 25.9791 51.3235 25.779 51.3644C24.5107 51.6213 23.5817 52.3404 22.7434 53.3108C22.1282 54.0226 21.471 54.6943 20.9496 55.483C20.8236 55.6744 20.6532 55.8397 20.4884 56.0017C20.3419 56.1457 20.1911 56.3003 20.3649 56.4852C20.5354 56.666 20.7182 56.5343 20.8706 56.4058C21.1448 56.1743 21.3672 55.8953 21.55 55.5902C22.241 54.4382 23.3165 53.6233 24.178 52.6211C24.2101 52.5842 24.2628 52.5654 24.3641 52.5016C24.3641 52.7225 24.3444 52.8951 24.3682 53.0612C24.4061 53.3222 24.4984 53.5579 24.7652 53.6888C24.9011 53.7558 25.107 53.6331 25.1844 53.8622C25.2717 54.1207 25.4059 54.3752 25.3425 54.6525C25.2058 55.2449 24.9439 55.8029 24.4654 56.1735C23.2581 57.1103 22.1298 58.1412 21.2511 59.3717C20.4506 60.4925 19.3388 61.2141 18.3126 62.0511C17.517 62.6999 16.7157 63.3389 15.9655 64.0384C15.5084 64.4647 15.1526 64.967 14.9047 65.5315C14.5119 66.4258 13.9766 67.2341 13.3918 68.0057C12.8722 68.6921 12.4135 69.4243 11.8798 70.0944C10.6609 71.6235 10.0276 73.3858 9.64382 75.261C9.37287 76.5824 9.1258 77.9078 8.96686 79.2479C8.93803 79.4917 8.87956 79.7404 9.13651 79.9106C8.69755 79.639 8.20259 79.6766 7.72328 79.6824C7.07267 79.6905 6.44347 79.5891 5.83321 79.3862C5.03354 79.1203 4.18939 79.1833 3.37571 79.0237C2.57274 78.8667 1.7393 79.0049 0.939626 78.7881C0.79715 78.7497 0.646438 78.7644 0.508081 78.8617C0.368899 78.9599 0.211599 79.0098 0.0715942 78.847V78.8437Z" fill="#FEFEEA"/>
<path d="M39.067 13.3926C39.6098 23.1654 43.2557 31.5573 50.0928 38.604C50.0805 38.6433 50.0195 38.6171 49.9759 38.6016C47.2977 37.6803 44.5511 37.4332 41.7238 37.5748C39.086 37.7073 36.5568 38.3095 34.0293 38.9706C33.2049 39.1857 32.4563 39.5981 31.7374 40.0432C29.8119 41.2336 27.8716 41.0438 26.0317 39.9597C23.9621 38.7398 22.6757 36.8483 21.9156 34.5967C21.7937 34.2367 21.6891 33.871 21.5606 33.5135C20.9891 31.9221 21.2493 30.3505 21.6726 28.7845C22.0235 27.4853 22.7145 26.3988 23.781 25.5618C24.2611 25.1846 24.8376 24.9932 25.4124 24.8279C26.8932 24.4009 28.2521 23.7234 29.5582 22.9216C31.9688 21.4416 33.9429 19.4903 35.739 17.3402C36.2291 16.7536 36.7512 16.1915 37.2783 15.6368C37.9421 14.9389 38.582 14.2246 39.0662 13.3934L39.067 13.3926Z" fill="#FEFEFE"/>
<path d="M68.6369 29.8963C68.6369 32.7893 68.2984 35.2831 67.2517 37.6385C66.368 39.6267 65.0767 41.2572 63.0096 42.1523C61.6334 42.7479 60.1979 42.8903 58.7254 42.6399C55.768 42.1376 53.3401 40.606 51.1487 38.6743C47.3142 35.2929 44.6434 31.0958 42.6388 26.4519C41.3063 23.365 40.3839 20.1554 39.9499 16.8222C39.5011 13.3745 39.5488 9.95136 40.7339 6.62475C41.4751 4.54336 42.6339 2.7606 44.5824 1.59555C45.7593 0.891938 47.0556 0.60313 48.4284 0.637492C50.6636 0.693945 52.6376 1.51946 54.4948 2.6747C57.2809 4.40837 59.5028 6.72702 61.416 9.35166C64.9251 14.164 67.1718 19.5131 68.2112 25.3597C68.4978 26.9698 68.6625 28.5963 68.6361 29.8963H68.6369Z" fill="#6A00FF"/>
<path d="M23.2811 25.1737C22.5893 25.8716 22.0161 26.5024 21.6348 27.2894C21.0682 28.4577 20.7363 29.6792 20.7116 30.9752C20.6441 34.553 22.138 37.4452 24.7586 39.7916C25.8498 40.7685 27.1601 41.351 28.6787 41.3339C28.7331 41.3339 28.7883 41.3429 28.841 41.3543C28.8649 41.3592 28.8854 41.3813 28.9579 41.428C28.5577 41.5523 28.1928 41.666 27.828 41.7773C27.7901 41.7888 27.725 41.8068 27.7127 41.7904C27.3503 41.3175 26.806 41.4762 26.339 41.4263C25.5039 41.3363 24.7026 41.1015 23.8831 40.9469C23.6558 40.9043 23.4508 40.9076 23.2441 40.9976C21.8473 41.6047 20.4341 42.1627 18.9401 42.494C18.1718 42.665 17.508 43.0962 16.7799 43.3686C16.5032 43.4725 16.4225 43.7351 16.3813 43.9945C16.3278 44.3299 16.2932 44.6695 16.266 45.0082C16.2356 45.3993 16.0635 45.5866 15.6747 45.5343C14.642 45.3952 13.634 45.2226 12.8055 44.4756C11.3601 43.1723 10.0712 41.7667 9.3498 39.9266C9.0179 39.0807 8.9619 38.1782 8.80378 37.2971C8.5073 35.6428 9.16285 34.2167 9.86205 32.7841C10.1898 32.1124 10.6642 31.7222 11.3461 31.4465C13.2098 30.6921 14.9418 29.6662 16.7404 28.7768C18.6783 27.8179 20.5181 26.6922 22.362 25.5713C22.5712 25.4437 22.7944 25.3373 23.0135 25.2269C23.0571 25.2048 23.1131 25.2056 23.2811 25.1729V25.1737Z" fill="#6A00FF"/>
<path d="M23.2218 64.8183C24.7882 64.1032 25.7229 62.9096 26.5515 61.6201C27.0942 60.7758 27.2399 59.8308 27.1634 58.8441C27.1436 58.593 27.0406 58.3745 26.9048 58.1667C26.5169 57.5744 26.1364 56.9779 25.7411 56.3913C25.5286 56.0763 25.4446 55.7883 25.6529 55.4185C25.9651 54.8663 25.9848 54.2829 25.7032 53.6939C25.4364 53.1359 25.7682 52.7153 26.0993 52.3349C26.6396 51.7131 26.7903 50.5759 26.3793 49.8436C26.0565 49.2693 25.6925 48.7277 25.1242 48.3554C24.8343 48.1656 24.9035 47.8874 24.9579 47.6207C24.9908 47.4603 25.1061 47.4972 25.2107 47.5397C25.6159 47.7058 25.9338 47.525 26.1965 47.2542C26.3316 47.1151 26.3744 47.1544 26.5103 47.2452C27.576 47.9561 27.7514 49.0001 27.6484 50.1562C27.5784 50.9416 27.4911 51.727 27.4425 52.5141C27.3445 54.0972 27.7374 55.583 28.411 57.0025C28.6202 57.4426 28.8747 57.864 29.1284 58.2813C29.233 58.4531 29.3705 58.6192 29.5303 58.7402C30.1488 59.2066 30.2822 59.8358 30.0977 60.5246C29.5706 62.4972 28.2933 63.8979 26.5795 64.9468C26.46 65.0196 26.3258 65.0392 26.185 65.0351C25.2403 65.0098 24.2949 65.0065 23.2218 64.8191V64.8183Z" fill="#FEFEFE"/>
<path d="M14.7696 46.0245C13.7788 46.1955 12.8062 46.2143 11.8698 45.8044C11.2958 45.5532 10.7333 45.2726 10.1511 45.0435C9.02856 44.6017 8.26677 43.7794 7.61451 42.8099C6.6493 41.3733 6.07528 39.7942 6.03986 38.0794C6.01433 36.8685 6.32234 35.6764 6.85766 34.5744C7.36415 33.5312 8.29394 32.943 9.40987 32.4014C9.23939 32.7589 9.12244 33.0183 8.99232 33.2727C8.23218 34.7617 8.06335 36.2991 8.28653 37.9705C8.71808 41.1973 10.5727 43.4497 13.0236 45.3618C13.5384 45.7627 14.1651 45.8526 14.7688 46.0253L14.7696 46.0245Z" fill="#FEFEFE"/>
<path d="M20.8005 47.4992C20.9092 47.3175 21.1637 47.3028 21.2494 47.0696C21.3062 46.9142 21.4223 46.7841 21.2947 46.6286C21.1703 46.4773 20.9941 46.5084 20.8376 46.5648C20.3591 46.7366 19.8814 46.9297 19.5125 47.2856C18.8017 47.9712 17.984 48.5186 17.19 49.1338C16.985 48.8712 17.0327 48.5464 16.9965 48.2519C16.8326 46.915 16.7025 45.5765 16.9306 44.229C16.9734 43.9745 17.0962 43.8788 17.3045 43.7659C18.5176 43.1073 19.8724 42.8725 21.1687 42.4675C21.8094 42.2671 22.3999 41.9537 23.0217 41.7132C23.2523 41.624 23.3437 41.6158 23.3511 41.921C23.3593 42.2523 23.2877 42.4675 22.983 42.6459C22.236 43.0852 22.189 43.7937 22.3299 44.5456C22.4172 45.012 22.5259 45.475 22.6264 45.9397C22.7598 46.5575 22.6264 46.825 22.0326 47.1023C21.6842 47.2643 21.3144 47.383 21.0056 47.6219C20.8919 47.6571 20.7898 47.671 20.8005 47.5V47.4992Z" fill="#FEFEFE"/>
<path d="M25.0748 56.416C25.5352 57.1303 25.9947 57.8363 26.4469 58.5473C26.6223 58.823 26.6585 59.1437 26.6231 59.4522C26.5432 60.1558 26.3941 60.8447 25.9766 61.4452C25.2428 62.5006 24.4901 63.5364 23.2893 64.1296C22.656 64.4429 22.6626 64.4421 22.5349 63.7606C22.3068 62.5464 22.0499 61.338 21.7073 60.1501C21.6422 59.9243 21.6776 59.7631 21.8061 59.5888C22.5959 58.5154 23.5718 57.6244 24.5922 56.776C24.7388 56.6541 24.8977 56.5477 25.0748 56.416Z" fill="#FEFEFE"/>
<path d="M23.2218 45.9464C23.1073 45.2853 22.8858 44.6562 22.8595 43.9861C22.8446 43.6098 22.9616 43.3169 23.291 43.1287C23.7728 42.8546 24.0758 42.5142 23.893 41.9072C23.8156 41.6495 23.8889 41.5202 24.2282 41.611C25.1267 41.8515 26.0417 42.0217 26.9764 42.0413C27.1518 42.0446 27.2284 42.1281 27.2383 42.2852C27.2795 42.9454 27.3347 43.6073 26.5712 43.9599C26.3069 44.0826 26.1578 44.3477 25.9626 44.567C25.8094 44.1923 25.5335 44.0573 25.1489 44.0606C24.7899 44.0638 24.4399 44.1252 24.0898 44.1825C23.6517 44.2536 23.4895 44.4991 23.5611 44.9393C23.5743 45.0194 23.5817 45.1062 23.6179 45.1765C23.8189 45.5692 23.6756 45.8057 23.2226 45.9464H23.2218Z" fill="#FEFEFE"/>
<path d="M24.6005 46.0099C24.6145 45.7071 24.6548 45.4298 24.2941 45.2989C24.1533 45.2473 24.1393 45.0093 24.1475 44.8563C24.1574 44.6697 24.3649 44.7499 24.4794 44.7016C24.5642 44.6656 24.6663 44.6689 24.761 44.6607C25.3977 44.6051 25.583 44.8219 25.4471 45.4486C25.4314 45.5214 25.4034 45.5697 25.3384 45.6049C25.1028 45.7325 24.8689 45.8626 24.6013 46.0107L24.6005 46.0099Z" fill="#6A00FF"/>
<path d="M25.6069 46.3213C25.8144 46.5487 25.9486 46.7541 25.667 46.9881C25.583 47.0576 25.4883 47.0568 25.401 47.0053C25.2865 46.9382 25.3326 46.849 25.3804 46.7615C25.4561 46.6207 25.527 46.4767 25.6069 46.3213Z" fill="#6A00FF"/>
<path d="M20.8006 47.4989C20.8418 47.5848 20.9258 47.5995 21.0057 47.6208C20.836 47.7918 20.6359 47.9186 20.425 48.0315C20.3756 48.0552 20.3303 48.0487 20.29 48.0119C20.3715 47.7533 20.584 47.624 20.8006 47.498V47.4989Z" fill="#DCDCDC"/>
<path d="M20.2216 48.3328C20.1425 48.4654 20.0651 48.5996 19.8658 48.6486C19.8633 48.4065 20.0519 48.3189 20.1573 48.1807C20.2092 48.2183 20.2076 48.2788 20.2216 48.332V48.3328Z" fill="#707070"/>
<path d="M57.6103 4.25684C57.8516 4.32638 58.0443 4.44992 58.1168 4.70682C57.9241 4.58328 57.7561 4.43274 57.6103 4.25684Z" fill="#FE7F05"/>
<path d="M20.2216 48.3334C20.2002 48.2827 20.1788 48.232 20.1573 48.182C20.201 48.1256 20.2455 48.0691 20.2891 48.0127C20.3344 48.0192 20.3789 48.0258 20.4242 48.0323C20.4374 48.1861 20.2998 48.2401 20.2216 48.3342V48.3334Z" fill="#A2A2A2"/>
<path d="M40.6327 14.8123C40.6112 12.3987 40.8871 10.2364 41.7403 8.18033C42.5721 6.17831 43.8289 4.53545 45.9331 3.72303C47.8372 2.9875 49.728 3.23704 51.5761 3.96847C53.7701 4.83735 55.5827 6.25767 57.1994 7.93243C60.9293 11.7949 63.3332 16.4069 64.8544 21.4991C65.7117 24.3716 66.1745 27.3104 66.0913 30.3122C66.0213 32.8379 65.6079 35.2956 64.2762 37.5095C63.2418 39.2293 61.8055 40.4516 59.7837 40.8648C58.0559 41.2174 56.4071 40.8803 54.8185 40.189C52.3404 39.1107 50.3432 37.3991 48.6138 35.3807C44.2934 30.3376 41.784 24.4821 40.841 17.9483C40.6812 16.8438 40.594 15.7278 40.6335 14.8123H40.6327Z" fill="black"/>
<path d="M65.5305 29.3982C65.5058 32.0417 65.2093 34.3906 64.1214 36.5726C63.2574 38.3063 62.0106 39.648 60.0678 40.1946C58.3803 40.6699 56.7538 40.3803 55.1824 39.711C52.7101 38.6581 50.7484 36.9375 48.9992 34.9518C48.1772 34.0183 47.4435 33.0177 46.741 31.9926C46.5787 31.7561 46.6331 31.68 46.8563 31.554C48.7949 30.4642 50.6973 29.3049 52.6706 28.2822C54.1818 27.4993 54.7583 26.281 54.7525 24.6954C54.7451 22.556 53.9702 20.6979 52.5882 19.0764C52.1962 18.6157 51.693 18.2795 51.2376 17.8917C50.7146 17.4466 50.1266 17.3705 49.4686 17.5358C48.1031 17.8794 46.7821 18.3678 45.4299 18.7532C44.3148 19.0714 43.1997 19.3897 42.0846 19.7072C41.8746 19.7669 41.7098 19.7538 41.6621 19.4854C41.0633 16.1277 40.9126 12.779 41.8951 9.45894C42.3382 7.96336 43.0407 6.58968 44.1715 5.50235C45.2347 4.48047 46.5458 3.91022 48.0488 3.87258C50.209 3.81858 52.0735 4.65719 53.812 5.82797C56.3148 7.51337 58.2634 9.73384 59.9064 12.2243C62.9873 16.8919 64.8741 21.9923 65.4209 27.5614C65.4885 28.2511 65.5025 28.9466 65.5272 29.3982H65.5305Z" fill="#FEFEFE"/>
<path d="M51.9171 28.0125C50.3861 28.8814 48.8715 29.7413 47.357 30.6011C47.0844 30.7558 46.8028 30.8998 46.5425 31.0732C46.3119 31.227 46.209 31.164 46.0731 30.9399C44.575 28.4625 43.4015 25.8419 42.5581 23.0766C42.321 22.2985 42.1422 21.5024 41.9182 20.7203C41.8392 20.4437 41.9232 20.3464 42.1908 20.2687C44.2176 19.6788 46.2699 19.1772 48.3362 18.4434C47.3587 20.3063 47.5843 22.1324 48.258 23.925C48.935 25.7282 49.9636 27.2713 51.9171 28.0133V28.0125Z" fill="#FEFEFE"/>
<path d="M50.1472 21.7019C50.1275 21.3534 50.1876 21.0327 50.3004 20.7242C50.573 19.9797 51.1849 19.7203 51.908 20.0525C52.72 20.4264 53.2389 21.0866 53.5757 21.8803C53.9438 22.7475 54.2345 23.6417 54.0007 24.6055C53.7544 25.6192 53.0009 25.9506 52.1139 25.3983C50.9971 24.7029 50.4758 23.6098 50.2123 22.3728C50.1645 22.1478 50.1167 21.9187 50.1472 21.7019Z" fill="#6A00FF"/>
<path d="M53.9941 25.8383C53.7783 27.2161 52.6986 27.7888 51.5234 27.2005C50.9634 26.9199 50.503 26.5124 50.1176 26.0297C48.9152 24.5219 48.2852 22.8005 48.2621 20.8762C48.2547 20.2634 48.3774 19.6588 48.6763 19.1073C49.1054 18.3154 49.7989 18.0585 50.6496 18.3751C51.2253 18.5886 51.6873 18.9592 52.1007 19.4084C51.9879 19.5172 51.9138 19.4109 51.8355 19.3945C50.7575 19.1638 49.9512 19.6776 49.658 20.7878C49.2042 22.5068 50.2823 25.0561 51.8462 25.9283C52.5553 26.3235 53.271 26.375 53.9949 25.8391L53.9941 25.8383Z" fill="#FEFEFE"/>
</svg>
