<?xml version="1.0" encoding="UTF-8"?>
<svg id="Layer_2" data-name="Layer 2" xmlns="http://www.w3.org/2000/svg" viewBox="0 0 828.06 1042.09">
  <defs>
    <style>
      .cls-1 {
        fill: #6935b1;
      }

      .cls-2 {
        fill: #fcfcfb;
      }

      .cls-3 {
        fill: #fefefe;
      }

      .cls-4 {
        fill: #fefefd;
      }

      .cls-5 {
        fill: #fdfdfd;
      }

      .cls-6 {
        fill: #32342f;
      }

      .cls-7 {
        fill: #333432;
      }

      .cls-8 {
        fill: #333530;
      }

      .cls-9 {
        fill: #33352f;
      }

      .cls-10 {
        fill: #30312e;
      }

      .cls-11 {
        fill: #d4e0c5;
      }

      .cls-12 {
        fill: #363932;
      }

      .cls-13 {
        fill: #363931;
      }

      .cls-14 {
        fill: #363734;
      }

      .cls-15 {
        fill: #373a33;
      }

      .cls-16 {
        fill: #3e4238;
      }

      .cls-17 {
        fill: #3e4138;
      }

      .cls-18 {
        fill: #94ea00;
      }

      .cls-19 {
        fill: #6e00ff;
      }

      .cls-20 {
        fill: #99f700;
      }

      .cls-21 {
        fill: #2d2e2d;
      }

      .cls-22 {
        fill: #2d2d2d;
      }

      .cls-23 {
        fill: #383b34;
      }

      .cls-24 {
        fill: #383c31;
      }

      .cls-25 {
        fill: #313130;
      }

      .cls-26 {
        fill: #31322f;
      }

      .cls-27 {
        fill: #313230;
      }

      .cls-28 {
        fill: #3a3f33;
      }

      .cls-29 {
        fill: #3a3e34;
      }

      .cls-30 {
        fill: #3a3e35;
      }

      .cls-31 {
        fill: #3a3d37;
      }

      .cls-32 {
        fill: #3b3f35;
      }

      .cls-33 {
        fill: #343632;
      }

      .cls-34 {
        fill: #343631;
      }

      .cls-35 {
        fill: #353730;
      }

      .cls-36 {
        fill: #353733;
      }

      .cls-37 {
        fill: #353732;
      }

      .cls-38 {
        fill: #353931;
      }

      .cls-39 {
        fill: #353634;
      }

      .cls-40 {
        fill: #353633;
      }

      .cls-41 {
        fill: #353830;
      }

      .cls-42 {
        fill: #353831;
      }

      .cls-43 {
        fill: #3d4038;
      }

      .cls-44 {
        fill: #393c34;
      }

      .cls-45 {
        fill: #393c35;
      }

      .cls-46 {
        fill: #393d34;
      }

      .cls-47 {
        fill: #3c4035;
      }

      .cls-48 {
        fill: #2f2f2e;
      }

      .cls-49 {
        fill: #34372f;
      }

      .cls-50 {
        fill: #343532;
      }
    </style>
  </defs>
  <g id="Layer_1-2" data-name="Layer 1">
    <g id="gfSRMa.tif">
      <g>
        <path class="cls-3" d="M798.41,1023.28c-58.36,1.86-120.77,19.32-194.54,18.8-59.36-.42-127.78-18.57-194.41-19.47-42-.57-87.49,19.93-131.59,19.47-56.81-.59-112.83-22.07-171.97-22.03-5.75,0-62.56,2.66-78.88-9.52-16.38-12.23-31.46-32.1-25.81-51.74,25.81-89.7,38.37-105.31,48.55-148.53,1.51-6.4,3.51-12.71,6.07-18.74,6.97-16.42,11.27-33.39,12.41-51.23,1.45-22.73,7.97-44.54,12.66-66.68,2.63-12.41,5-24.88,8.23-37.15,1.09-4.13,1.79-8.46,4.75-11.85,3.56-2.03,4.92,1.01,6.29,3.06,3.3,4.95,7.49,8.92,12.29,12.31,2.53,2.39,4.24,5.34,5.37,8.55,5.07,14.33,13.89,25.79,26.17,34.64,5.04,3.63,9.26,8.04,12.26,13.44,17.63,31.84,47.75,46.23,80.08,57.71,18.83,6.69,37.66,6.18,56.76,1.53,7.97-1.94,14.49-6.23,20.6-11.36,1.9-1.59,4.15-3.57,2.27-6.28-1.85-2.68-4.5-1.57-6.61-.07-26.68,19.02-54.52,15.52-82.62,4.08-13.63-5.55-26.86-11.91-38.88-20.64-8.44-6.13-15-13.83-20.26-22.59-6.3-10.49-15.08-18.54-24.1-26.46-8.98-7.88-16.66-16.6-17.83-29.26,10.19-8.64,9-18.94,4.36-29.76-.53-1.23-.92-2.52-1.04-3.87,.18-8.62,4.71-14.95,11.05-20.11,11.44-9.32,24.63-15.86,38.95-18.3,19.41-3.32,32.09-13.71,40.92-30.79,4.91-9.5,9.17-19.17,12.63-29.2,8.47-24.52,21.2-46.92,33.78-69.44,15.22-27.23,35.36-50.75,55.32-74.44,12-14.24,25.61-26.71,40.48-37.86,13.11-5.09,22.29-15.24,31.87-24.86,27.38-14.78,37.26-41.41,43.66-68.83,7.2-30.81,13.93-61.85,17.98-93.33,2.76-21.46,3.53-42.82-3.93-63.67-3.59-10.04-9.35-18.54-17.42-25.5-1.51-1.3-3.8-2.63-3.21-4.82,.73-2.69,3.61-2.2,5.76-2.37,5.99-.46,11.68-.13,16.2,4.85,1.95,2.15,4.99,3.07,7.64,4.34,4.55,2.18,8.11,5.31,10.85,9.7,4.26,6.82,13.36,8.3,19.86,3.56s14.26-8.74,21.37-13.13c4.97-3.07,6.99-2.17,8.71,3.7,2.06,6.99,2.87,14.26,3.31,21.44,1,16.47,1.73,32.97,3.22,49.39,2.88,31.78,6.11,63.58,17.19,93.89,5.33,14.59,13.48,27.06,26.44,36.12,5.37,3.76,10.53,7.86,15.15,12.55,3.27,3.32,7.47,4.95,11.59,6.86,15.62,7.26,31.08,14.83,43.2,27.6,4.06,4.28,7.43,9.13,11.23,13.62,2.93,3.46,5.93,6.99,9.56,9.63,27.92,20.31,45.71,48.83,61.83,78.21,13.83,25.21,29.04,49.62,42.19,75.19,.6,1.22,1.14,2.48,1.37,3.82,.31,1.81,.56,3.86-1.39,4.8-1.6,.77-2.97-.6-4.25-1.51-6.2-4.42-11.41-9.54-13.58-17.22-2.46-8.7-8.04-15.11-15.67-19.75-9.76-5.93-15.92-15.32-22.94-23.85-8.29-10.08-17.93-17.91-31.17-20.27-8.51-1.52-14.92-6.26-19.98-13.01-5.14-6.86-11.27-12.37-19.62-15.03-1.29-.41-2.82-.83-3.53-1.94-6.12-9.63-16.45-15.42-22.45-25.27-11.35-18.63-29.35-29.93-47.5-40.63-11.26-6.64-24.32-5.63-36.57-4.04-14.2,1.84-28.38,1.65-42.57,2.14-11.44,.4-21.8,3.34-30.91,10.5-12.86,10.11-24.63,21.31-35.28,33.73-6.05,7.06-12.73,13.37-20.9,18.18-23.02,13.57-46.2,26.74-71.26,36.32-12.65,4.84-21.88,14.36-30.68,24.16-4.23,4.72-8.53,9.37-12.81,14.04-6.15,6.72-11.11,14.23-14.42,22.83-6.35,16.49-12.9,32.87-16.29,50.33-1.82,9.35-5.33,18.25-8.04,27.36-3.79,12.72-11.8,21-24.15,25.61-15.56,5.81-29.25,14.69-39.32,28.92-.13,.19-.26,.39-.37,.59-1.25,2.2-2.68,4.76,.15,6.59,2.42,1.57,4.25-.42,5.72-2.2,3.17-3.83,5.89-8.03,9.74-11.3,7.86-6.7,16.77-11.71,26.45-15.01,16.55-5.66,25.89-17.36,30.43-33.75,3.62-13.09,7.61-26.06,10.73-39.3,3.49-14.79,9.49-28.81,16.06-42.49,4.98-10.36,14.38-17.38,21.29-26.31,12.95-16.73,31.58-24.4,50.27-32.15,20.17-8.37,38.22-20.61,56.84-31.77,4.87-2.92,8.98-6.87,12.68-11.21,10.31-12.08,21.77-22.97,33.56-33.6,9.7-8.74,21.03-12.29,33.56-12.53,15.16-.29,30.26-.13,45.36-2.49,14.28-2.24,27.43,1.95,38.96,10.97,6.33,4.94,12.87,9.6,19.41,14.26,1.35,.96,2.58,2.07,3.64,3.36,1.46,1.78,3.22,3.95,1.47,6.04-1.96,2.35-4.17,.11-5.93-.98-6.91-4.33-13.49-9.17-20.62-13.15-10.32-5.76-21.05-9.41-33.12-6.3-15.28,3.94-30.87,4.36-46.54,3.95-13.91-.36-25.43,4.94-35.28,14.68-8.03,7.95-15.25,16.78-24.65,23.28-1.58,1-3.27,1.85-4.5,3.33-1.2,1.45-2.14,3.08-3.28,4.58-5.87,8.67-8.07,18.6-9.87,28.67-1.73,5.14,.44,8.7,4.55,11.6,2.78,1.96,5.79,3.55,8.58,5.47,5.14,3.52,5.76,6.92,1.96,11.91-3.81,5-9.41,7.67-14.74,10.64-3.35,1.87-7.03,3.19-9.94,5.8-5.7,5.1-5.37,10.91,.94,15.2,3.78,2.57,8.09,4.03,12.37,5.52,4.2,1.46,5.84,3.93,3.74,8.28-1.81,3.75-2.52,7.73-1.89,11.89,.83,5.5-1.42,9.57-5.65,12.96-5.77,4.63-12.24,8.76-12.82,17.39-.18,2.69-3.09,2.94-5.18,3.7-11.13,4.04-17.58,13.23-17.35,24.87,.11,5.66,2.5,10.01,7.74,12.56,1.02,.49,2.08,.89,3.11,1.35,12.11,5.45,13.56,10.56,5.76,21.31-2.69,3.72-4.82,7.64-6.21,11.99-1.71,5.39-5.42,6.84-10.61,5.49-1.75-.46-3.45-1.12-5.24-1.42-7.25-1.22-12.48,3.04-12.94,11.14-.4,7.27,1.28,14.38,2.77,21.46,.93,4.42,2.16,8.87-.53,13.16-4.86,4.49-9.72,8.97-13.71,14.31-16.55,9.7-34.49,11.38-53.16,9.54-24.35-2.4-46.18-12.44-68.3-21.79-16.92-7.15-34.53-10.82-53.01-8.7-13.94,1.6-18.26,6.05-10.37,21.74,2.43,4.83,5.91,9.32,10.15,12.66,8.15,6.41,14.85,14.1,20.24,22.73,18.32,29.34,43.54,27.45,67.36,16.04,16.04-7.68,30.97-17.88,42.85-31.68,1.59-1.84,3.55-3.02,5.89-2.91,24.76,1.21,44.62-11.69,65.25-22.46,4.16-2.17,8-5.28,13.09-5.17,8.48,3.11,17.08,2.91,26.04,2.51,12.8-.57,25.72-.02,38.47,2.48,15.59,3.06,31.26,5.7,47.01,7.89,6.93,.96,13.99,1.05,20.89-.09,4.9-.81,9.87-.49,14.81-.44,12.4,.13,24.41-1.53,36.03-5.72,10.52-3.79,27.8-9.84,38.42-13.37,4.51-1.5,9.23-2.82,13.98-2.54,19.47,1.16,36.27-3.82,48.5-20.04,4.15-.74,5.29,2.87,7.09,5.19,7.37,9.5,12.41,20.48,19.03,30.49,4.38,6.61,8.68,13.25,13.52,19.53,8.85,11.48,20.21,15.24,34.29,11.19,5.9-1.69,11.51-4.09,16.76-7.31,1.49-.91,3.4-2.14,4.9-.41,1.42,1.64,.19,3.49-.83,4.95-4.22,6.04-10.62,9.79-15.81,14.82-9.51,9.22-21.12,15.4-32.48,21.88-3.54,2.02-7.55,3.06-11.67,3.4-10.01,.82-19.54,3.3-28.9,7.04-12.33,4.93-25.09,5.32-37.98,1.89-19.74-5.25-38.45-13.46-57.74-19.99-1.28-.43-2.46-1.15-3.81-1.43-1.64-.34-3.22-.26-4.22,1.32-1.22,1.93-.17,3.46,1.13,4.82,1.11,1.16,2.49,2.01,4.01,2.49,20.48,6.54,40.17,15.37,61.05,20.8,15.17,3.94,29.62,2.27,43.7-3.89,8.05-3.52,16.59-4.4,25.1-5.56,6.39-.87,12.28-2.73,17.69-6.38,6.38-4.3,10.03-3.43,13.55,3.7,5.71,11.57,10.68,23.49,15.14,35.61,10.47,28.46,21.18,56.8,32.62,84.91,8.77,21.54,14.8,44.22,19.42,67.11,3.44,17.07,7.83,33.97,9.07,51.45,.66,9.26,1.81,18.49-1.26,27.57-.67,1.98-2.48,20.66-18.48,21.17Z"/>
        <path class="cls-22" d="M652.43,.15c2.37-.05,4.74-.1,7.11-.15,8.25,1.71,15.9,5.08,23.32,8.88,6.54,3.35,10.72,9,13.12,15.83,3.71,10.59,9.39,19.98,16.34,28.71,11.95,15.03,17.57,32.3,18.46,51.4,.66,14.05,1.01,28.07-.96,42.02-.41,2.86,.46,4.55,2.25,6.54,8.62,9.6,16.99,19.43,25.59,29.05,13.13,14.7,20.14,32.52,26.04,50.88,5.94,18.47,13.21,36.49,19.01,54.96,3.83,12.2,4.8,25.27,7.35,37.89,3.74,18.53-1.78,36.24-4.74,54.13-.91,5.53,.4,11.28-2.08,16.63-.71,1.52,.76,3.08,1.75,4.21,13.88,15.99,16.88,35.82,18.38,55.64,2.09,27.74,3.79,55.6,2.62,83.44-1.88,44.68-10.97,87.71-30.59,128.26-9.24,19.09-23.75,33.4-39.73,46.61-2.27,1.88-4.43,3.92-6.87,5.54-3.19,2.11-2.7,3.62-.83,6.84,8.86,15.26,14.92,31.8,20.99,48.33,8.78,23.91,17.84,47.7,27.6,71.26,12.28,29.67,19.79,60.87,25.79,92.4,2.32,12.2,5.65,24.26,5.72,36.81-.02,6.85-.03,13.7-.05,20.56-.52,4.27-.93,8.59-4.23,11.86-2.18,2.16-4.88,2.55-7.52,1.38-2.33-1.03-3.4-3.47-2.36-5.69,6.05-12.93,3.67-26.47,1.57-39.38-5.93-36.56-13.06-73.15-27.21-107.42-15.75-38.14-28.33-77.46-44.89-115.24-.9-2.06-1.77-4.16-2.86-6.12-3.89-6.96-5.17-7.09-11.81-2.37-6.26,4.44-13.55,6.15-21.06,6.62-7.77,.48-15.08,2.28-22.24,5.35-15.05,6.46-30.56,7.48-46.41,3.08-20.23-5.61-39.44-14.12-59.36-20.61-1.27-.41-2.52-1.04-3.63-1.78-3.15-2.1-5.05-4.9-2.83-8.57,2.03-3.35,4.83-2.71,8.25-1.42,20.87,7.84,41.52,16.32,63.12,22.06,12.82,3.41,25.12,1.57,37.05-3.51,6.72-2.85,13.51-5.06,20.84-5.51,8.61-.53,15.74-4.02,23.48-8.15,8.91-4.75,16.54-10.65,24.3-16.62,7.09-5.46,13.8-11.44,19.02-19.02-8.99,5.22-18.26,9.6-28.62,10.83-11.43,1.35-20.62-2.44-27.88-11.72-11.29-14.43-19.7-30.65-29.54-45.99-2.68-4.18-5.42-8.33-9.11-11.74-18.27-16-39.87-27.27-59.22-41.76-15.07-11.28-32.49-18.83-48.18-29.19-7.6-5.02-15.28-9.73-20.41-17.54-2.04-3.1-3.97-3.35-7.06-.7-16.55,14.13-34.35,26.71-52.54,38.51-14.4,9.34-26.62,20.94-39.56,31.87-16.94,14.31-33.03,29.55-49.71,44.14-2.51,2.19-5.18,4.49-8.9,4.52-14.48,7.37-28.37,15.9-43.42,22.19-10.58,4.42-21.52,6.8-32.94,6.9-3.38,.03-5.59,.4-7.27,4.12-1.28,2.82-4.65,4.8-7.32,6.86-16.83,12.97-33.33,26.54-55.37,29.94-16.01,2.47-30.52-.16-40.85-13.56-10.38-13.45-21.03-26.54-33.26-38.4-5.61-5.44-8.89-12.39-9.09-20.59-.12-5.08,1.56-7.6,6.78-9.07,20.96-5.9,40.76-1.34,60.28,5.94,17.93,6.69,34.82,16.11,53.81,19.99,23.79,4.86,47.13,5.73,69.29-6.49,5.18-3.61,9.8-7.75,12.79-13.44,2.08-3.43,1.09-6.93,.34-10.48-1.59-7.53-3.06-15.11-3.21-22.81-.21-10.99,6.63-16.09,17.29-13.21q9.08,2.45,12.6-6.75c1.8-4.74,5.01-8.54,7.99-12.52,4.06-5.41,3.03-9.84-3-13.16-.79-.43-1.6-.88-2.46-1.11-11.32-3.03-14.63-9.67-14.05-17.91,.9-12.96,8.14-22.63,18.39-24.72,3.55-.72,5.29-1.35,4.74-5.71-.5-4.01,2.6-7.07,5.56-9.64,3.24-2.82,6.52-5.61,9.9-8.26,2.39-1.87,3.56-4.17,2.77-7.09-1.86-6.85,.27-12.85,3.92-18.74-5.06-1.92-9.97-3.56-14.69-5.64-4.7-2.07-8.87-5.05-9.06-10.81-.19-5.7,3.6-9,8.17-11.5,3.56-1.95,7.25-3.68,10.77-5.7,2.74-1.57,5.51-3.19,7.92-5.2,6.98-5.81,6.6-8.81-1.12-13.41-3.29-1.96-6.43-4.21-9.51-6.5-3.8-2.82-4.97-6.32-2.15-10.56,2.85-3.27,6.36-2.43,9.29-.74,13.62,7.89,27.88,6.06,42.26,3.26,.89-.17,1.76-.43,2.64-.66,14.55-3.85,14.64-3.84,14.91-18.75,.1-5.72,1.72-10.73,5.71-14.82,6.89-7.05,17.87-5.93,22.35,2.74,8.84,17.12,4.98,35.88-15.49,44.16-13.6,5.5-28.13,6.82-42.59,7.78-4.8,.32-7.87,1.33-9.89,6.21-3.43,8.28-10.14,13.69-17.94,17.87-2.69,1.44-5.92,2.17-8.14,5.19,2.84,2.59,6.28,2.94,9.41,3.92,10.58,3.31,13.46,9.17,8.91,19.02-2.05,4.44-3.25,8.78-2.66,13.75,.69,5.77-1.61,10.67-5.83,14.59-2.49,2.31-5.05,4.55-7.7,6.68-2.29,1.84-2.6,3.58-1.33,6.43,3.26,7.29,.94,11.43-6.88,13.28-2.67,.63-5.4,.54-8.11,.76-4.5,.36-7.5,2.62-9.38,6.74-2.85,6.24-2.08,8.82,4.12,11.83,4.54,2.2,8.7,4.79,11.67,9.04,5.15,7.36,5.59,15.46,.57,22.83-3.83,5.63-7.35,11.3-10.02,17.64-3.59,8.52-10.34,11.75-20.72,10.08-5.24-.84-6.26,.47-5.59,5.46,.9,6.74,2.88,13.29,3.1,20.13,.12,3.82,2.3,3.19,4.57,1.82,6.99-4.23,13.92-8.61,19.61-14.52,18.73-19.45,39.56-36.64,60.17-53.89,17.12-14.33,36.65-25.77,54.68-39.11,4.55-3.37,9.09-6.75,13.65-10.11,5.01-3.69,7.41-8.68,6.61-14.75-2.05-15.59-1-31.23-1.06-46.84-.02-5.6-1.4-8.42-7.57-8.28-4.73,.11-9.5-.97-13.89-2.89-3.9-1.71-7.43-4.33-6.11-9.27,1.41-5.26,5.83-4.89,10.03-4.17,3.35,.57,6.58,1.71,10,1.94,6.44,.42,7.99-.97,7.16-7.22-1.01-7.63-1.66-15.38-4.1-22.71-3.04-9.16-3.77-18.6-4.43-28.09-.32-4.53,.94-8.53,6-9.05,5.11-.53,7.18,3.16,7.6,7.69,.93,9.97,3.24,19.66,5.85,29.29,2.15,7.93,2.56,16.1,3.54,24.17,.53,4.4,2.23,4.75,5.75,3.25,4.24-1.81,7.76-4.58,11.28-7.47,4.65-3.81,9.32-3.94,11.98-.39,3.34,4.45,1.31,8.32-2.12,11.36-5.97,5.29-12.59,9.74-20.44,11.75-4.49,1.15-6.31,3.6-6.21,8.21,.35,16.06-1,32.2,1.52,48.16,2.11,13.36,11.32,21.75,21.77,28.97,12.51,8.63,26.39,15,39.2,23.11,20.67,13.08,40.34,27.65,60.88,40.94,9.29,6.02,15.28,15.37,21.49,24.27,2.67,3.83,4.4,5.3,7.88,.86,4.09-5.22,10.02-8.43,15.14-12.54,7.84-6.3,8.52-11.67,2.5-19.77-2.44-3.29-5.44-6.08-8.33-8.95-4.47-4.45-6.2-9.54-3.42-15.42,2.9-6.13,1.34-10.79-3.75-14.88-7.62-6.12-15.09-12.35-17.35-22.69-.54-2.49-3.1-3.83-5.31-5.02-5.9-3.17-9.07-8.13-9.47-14.72-.47-7.69-3.75-13.2-10.98-16.44-5.18-2.32-9.04-6.01-9.56-12.2-.15-1.84-1.14-3.47-2.49-4.73-3.64-3.39-5.68-7.65-6.45-12.45-.76-4.75-3.37-7.75-7.65-9.58-1.45-.62-2.81-1.48-4.26-2.11-9.93-4.35-15.58-11.76-17.39-22.57-1.6-9.53-1.98-9.34-11.29-9.74-8.84-.38-17.65-1.6-26.21-3.6-15.71-3.67-23.97-20.01-19.72-37.81,.63-2.65,1.45-5.26,2.76-7.65,5.04-9.21,16-10.05,22.39-1.72,3.35,4.37,4.38,9.36,3.89,14.74-.33,3.62-1.15,7.15-1.84,10.71-.75,3.89,.61,6.76,4.62,7.81,7.77,2.03,15.69,2.75,23.53,.91,9.58-2.25,12.23-.53,12.91,9.33,.06,.92,.42,1.76,.63,2.63,.15,.43,.34,.86,.38,1.3,1.16,13.99,7.94,23.38,21.67,27.81,5.58,1.8,8.36,6.89,9.31,12.51,.75,4.43,3.52,7.67,5.28,11.47,4.06,8.74,10.25,14.89,18.06,20.17,4.28,2.89,5.24,8.3,5.72,13.37,.55,5.77,2.62,10.25,8.36,12.86,4.57,2.08,6.95,6.41,8.17,11.17,1.19,4.62,3.72,8.11,7.58,10.87,4.07,2.92,7.19,6.82,10.39,10.66,4.61,5.53,6,11.76,4.01,18.42-1.37,4.59-.32,7.78,3.01,10.88,4.03,3.74,6.78,8.45,9.16,13.38,5.28,10.97,4.13,18.06-3.99,27.35-4.69,5.36-11,8.69-16.09,13.51-1.71,1.62-4.73,3.07-3.73,5.87,.81,2.26,3.85,1.94,6,2.48,15.36,3.81,30.09-.26,44.87-3.66,3.53-.81,7.02-1.84,10.68-1.73,1.93-.26,4.18,.77,5.6-1.47,.76-2.71,1.41-5.44,2.21-8.14,.89-2.33,.57-4.76,.64-7.17,3.69-12.64,.96-25.06-1.45-37.44-1.22-6.28-1.77-12.49-.54-18.82,1.3-6.65-.45-13.01-2.22-19.34-.97-3.47-2.43-6.82-2.5-10.5,.89-9-2.86-17.52-2.78-26.46,.08-8.19-4.69-15.61-3.98-23.98,.12-1.46-1.39-2.73-2.47-3.89-13.41-23.77-27.56-47.11-40.42-71.19-11.52-21.57-23.91-42.89-40.92-60.48-16.76-17.32-34.34-33.85-51.21-51.11-9.94-10.17-23.71-16.34-37.3-21.62-2.3-.89-4.8-1.65-6.73-3.1-25.27-18.95-46.07-40.57-51.96-73.77-4.59-25.86-8.53-51.69-10.62-77.86-1.63-20.49-1.42-41.14-5.3-61.43-.38-1.99-.99-3.94-1.42-5.92-.9-4.21-1.62-4.38-5.52-1.51-8.63,6.35-17.84,12.16-27.49,16.78-5.99,2.87-12.24,0-15.66-6.03-3.32-5.87-8.25-9.43-14.13-12.08-3.09-1.39-5.56-3.35-8.06-5.79-3.36-3.29-8.54-.96-12.89-1.56-1.26-.17-2.58,.09-5.12,.22,24.32,17.91,29.77,42.99,28.65,69.65-1.94,46.28-12.94,91.15-24.66,135.74-2.9,11.05-8.63,21.41-15.14,30.91-5.51,8.06-11.27,16.3-21.48,19.46-1.39,.43-2.47,1.87-3.7,2.84-11.54,6.9-20.3,17.44-31.87,24.31-23.99,19.23-44.07,42.17-63.12,66.15-24.89,31.34-44.63,65.72-60.2,102.46-7.47,17.61-12.87,36.04-23.97,52.08-6.51,9.42-14.23,15.86-25.54,18.49-13.84,3.22-27.53,7.19-39.8,14.72-9.4,5.77-18.12,12.23-19.39,24.51-1.14,2.71-3.17,3.79-5.99,3.03-2.96-.8-4.44-2.95-4.82-5.92-.92-7.29,1.8-13.34,6.54-18.61,8.17-9.08,18.06-15.72,29.31-20.39,8.17-3.39,16.44-6.63,25.13-8.27,12.2-2.29,20.72-8.67,26.77-19.69,5.58-10.16,10.46-20.46,14.49-31.35,7.46-20.17,17.08-39.33,27.13-58.41,17.59-33.41,41.24-62.16,65.23-90.79,1.88-2.25,4.02-4.31,6.24-6.18,.33-.29,.67-.5,.96-.61-.7,.05-1.15,.56-1.71,.93-10.5,7.21-22.36,11.1-34.61,13.53-12.45,2.47-24.23,7.53-36.97,8.8-5.94,.59-11.69,.85-17.46-.95-4.55-1.42-9.31-1.87-13.99-2.69-21.99-3.83-38.72-14.68-47.4-36.07-1.57-3.86-2.63-7.71-1.26-11.87,9.6-29.17,25.92-53.65,50.45-72.42,12-9.19,26.03-12.03,40.64-13.67,19.86-2.22,35.1,4.91,48.99,19.2,13.34,13.73,22.76,29.84,32.99,45.52,4.33,6.64,4.94,14.9,6.5,23.09,7.54-4.63,11.41-10.06,11.18-19.29-.51-20.97-6.44-40.23-19.51-56.11-13.51-16.42-30.65-27.58-53.57-27.95-20.14-.33-39.75,1.85-59.14,6.92-8.57,2.24-16.99,4.9-24.47,9.87-.94,.63-1.95,1.15-2.98,1.64-5.78,2.76-10.21,2.27-12.12-1.33-1.97-3.72-.16-7.81,4.95-11.22,6.64-4.44,13.81-7.82,21.35-10.35,26.36-8.87,53.54-11.16,81.13-9.49,19.69,1.2,35.05,11.39,48.7,24.56,18.62,17.97,27.68,40.41,29.9,65.89,.11,1.32-.28,2.74,.84,4.23,3.07-1.28,5.59-3.58,8.44-5.3,6.93-4.19,12.41-10.39,20.02-13.79,4.16-1.86,6.14-6.54,8.36-10.48,8.27-14.69,14.99-30.02,17.94-46.73,5.13-28.99,12.3-57.59,16.38-86.79,1.99-14.23,2.79-28.39,.29-42.59-3.21-18.23-10.99-33.41-28.17-42.52-4.07-2.16-7.72-2-11.7-.59-15.86,5.62-32.07,9.65-48.86,11.37-5.44,.56-10.95,1.27-16.25,.29-12.52-2.31-24.84,.28-37.2,.96-19.31,1.07-36.29,9.07-52.32,19.35-8.77,5.62-17.48,11.44-26.93,15.83-16.4,7.62-28.24,20.97-41.55,32.42-22.32,19.2-36.33,44.39-48.28,70.67-14.9,32.76-21.06,67.53-23.71,103.35-2.04,27.51-6.45,54.89-15.29,81.29-4.89,14.6-9.92,29.17-13.85,44.07-.75,2.85-1.61,5.7-2.96,8.31-9.08,17.53-8.95,35.51-3.38,54.04,4.98,16.56,6.1,33.85,8.54,50.87,2.72,18.91,6.01,37.52,15.7,54.46,4.89,8.55,3.25,16.58-3.51,22.62-6.3,13.72-7.79,28.69-11.16,43.16-6.96,29.95-13.53,59.96-16.36,90.69-1.64,17.77-11.26,33.28-15.51,50.37-10.18,40.95-25.48,80.4-35.39,121.43-.95,3.94-1.19,8.05-1.84,12.07-.51,3.11-2.36,4.88-5.59,4.74-3.05-.14-4.25-2.3-4.65-4.96-1.11-7.36,.87-14.41,2.62-21.39,6.44-25.6,15.83-50.32,22.85-75.73,6.72-24.35,13.24-48.71,22.42-72.3,4.71-12.11,5.21-25.15,6.48-37.98,2.5-25.28,9.91-49.6,14.92-74.39,3.26-16.13,6.01-32.45,13.32-47.46,.92-1.88,.65-3.33-.39-5.04-11.66-19.32-14.43-41.12-17.47-62.84-2.51-17.89-5.16-35.66-9.98-53.23-4.48-16.33-3.08-33.24,3.89-49.08,2.93-6.65,5.2-13.45,7-20.45,.8-3.11,.15-4.63-3.37-5.79-26.62-8.71-39.73-30.78-34.45-58.68,1.82-9.6,1.26-18.21-3.81-26.67-16.21-26.99-13.58-55.54-7.96-84.87,7.83-40.84,7.93-82.23,7.06-123.73-.57-27.3-2.77-54.79,1.86-82.01,.99-5.83,3.34-11.23,6.45-16.29,3.25-5.28,7.99-7.42,13.9-5.91,12.76,3.27,24.04,8.66,31.49,20.54,8.17,13.02,16.97,25.65,25.75,38.28,8.99,12.92,21.7,19.26,37.28,20.53,11.94,.97,24.51-1.02,35.7,3.03,11.14,4.04,18.91,.93,28.32-4.46,15.69-8.99,31-18.62,46.68-27.61,18.36-10.53,38.26-14.68,59.09-15.26,22.34-.62,44.88,1.68,66.8-4.84,12.75-3.79,25.16-8.88,38.46-10.64,14.67-1.95,29.4-.99,44.05,.19,18.49,1.49,37.15,2.34,55.36,5.58,26.38,4.69,52.16,12.01,75.7,26.05,5.22-9.53,9.08-19.82,12.84-30.19,7.65-21.12,21.52-35.27,44.62-38.67Z"/>
        <path class="cls-19" d="M95.42,623.95c5.89-9.54,4.33-18.18-1.18-27.76-8.24-14.32-10.12-30.78-12.52-46.9-3.05-20.55-5.45-41.12-11.05-61.33-3.73-13.47-2.02-27.6,2.9-41.31,12.94-36.1,25.88-72.17,31.44-110.49,3.96-27.31,4.13-55.07,10.44-82.06,9.47-40.53,26.99-77.23,53.35-109.4,8.84-10.79,20.55-18.89,31.1-28.08,20.31-17.7,44.98-28.06,67.58-41.88,11.02-6.74,23.64-9.12,36.33-10.06,12.17-.91,24.34-1.93,36.62-1.04,19.49,1.41,38.2-2.87,56.64-8.82,5.54-1.79,11.87-6.44,16.73-3.93,8.23,4.25,16.66,9.17,22.18,17.41,8.75,13.08,11.84,27.72,12.27,43.13,.77,27.22-5.91,53.43-10.94,79.85-2.45,12.89-5.14,25.73-7.67,38.61-3.44,17.56-10.79,33.5-20.1,48.62-1.41,2.28-2.92,5.09-5.12,6.19-11.65,5.83-20.64,15.59-32.57,21.61-.75-6.56-1.09-13.04-2.27-19.36-5.87-31.61-23.54-54.8-51.28-70.49-8.02-4.53-17.08-6.1-26.12-6.72-28.34-1.95-56.01,1.58-82.79,11.26-6.63,2.39-12.69,5.94-18.59,9.76-3.06,1.98-4.52,4.74-2.46,8.04,1.91,3.08,5.16,2.93,7.82,1.26,23.89-14.96,50.71-18.41,77.98-19.98,32.42-1.88,56.61,11.42,73.36,39.3,9.58,15.94,12.66,33.17,13.18,51.26,.13,4.6-1.08,8.2-5.16,10.95-3.3,2.23-6.07,5.25-9.52,8.31-1.39-26.7-17.81-45.18-32.62-64.27-5.64-7.27-12.64-13.58-20.11-19.2-4.63-3.48-9.64-6.14-15.37-6.68-25.89-2.4-49.54,2.5-68.88,21.44-17.96,17.58-31.08,38.12-39.04,62-1.32,3.95-.99,7.21,.53,11.03,8.82,22.11,26.05,32.48,48.61,36.17,12.25,2,24.31,5.35,36.83,1.97,13.95-3.77,27.94-7.42,41.91-11.12,8.17-2.16,15.35-6.47,22.74-10.35,1.37-.57,1.61,.16,1.49,1.3-17.3,19.72-34.48,39.63-49.15,61.36-21.02,31.14-39.16,63.96-51.2,99.75-4.46,13.27-11.71,24.88-19.29,36.39-2.85,4.33-7.03,6.84-12.02,8.26-11.28,3.22-22.7,6-33.53,10.64-12.43,5.32-23.75,12.14-31.88,23.32-2.44,3.35-4.34,6.92-4.37,11.18-.02,2.67-.52,5.6,2.23,7.38,2.78,1.8,5.17,.38,7.45-1.24,1.49,4.64,3.19,9.23,4.43,13.94,2.34,8.84-.29,15.78-8.46,20.33-2.61,.03-3.11-2.24-4.17-3.87-1.69-2.6-2.79-6.21-6.68-5.81-4.15,.43-1.99,5-3.9,7.05-7.87-3.26-11.45-10.6-16.1-16.93Z"/>
        <path class="cls-19" d="M622.64,424.08c-2.31-1.83-.91-4.1-.86-6.27,.12-5.26-3.56-7.9-8.4-6.21-9.33,3.26-18.78,2.02-28.04,.11-5.03-1.04-6.35-5.24-5.03-10.17,1.41-5.24,2.85-10.47,1.85-16.02-1.33-7.39-6.44-12.78-12.81-12.88-7.32-.11-10.18,5.13-11.91,11.02-4.95,16.89-.39,38.09,25.3,39.84,8.54,.58,16.88,3.49,25.6,2.31,2.29-.31,3.29,1.09,3.8,2.99,.7,2.61,1.63,5.21,1.9,7.88,1.09,10.5,6.54,17.84,16.22,21.55,7.97,3.05,14.06,7.05,13.97,16.64-.02,2.12,1.14,4.09,2.72,5.31,3.65,2.81,5.33,6.24,5.65,10.91,.29,4.33,4.13,6.52,7.64,7.94,8.65,3.49,12.47,9.67,12.38,18.85-.06,6.37,3.7,10.65,9.21,13.11,4.11,1.84,6.56,4.51,7.21,8.96,.85,5.77,4.31,9.88,8.88,13.11,2.78,1.97,5.28,4.21,7.78,6.51,4.73,4.34,6.4,8.67,3.06,14.86-3.38,6.26-1.49,11.81,4.35,15.97,1.28,.91,2.53,1.96,3.54,3.16,12.27,14.66,10.59,19.73-2.61,29.14-6.49,4.63-12.78,9.33-16.93,16.73-3.85-5.5-7.12-10.37-10.6-15.08-7.2-9.78-16.29-17.31-26.41-24.1-30.44-20.41-61.4-39.95-92.76-58.92-13.64-8.25-20.04-21.47-20.61-37.6-.5-14.05-.26-28.07-.19-42.11,.02-3.66,1.5-5.24,4.97-5.84,8.32-1.43,14.84-6.43,21.45-11.2,.9-.65,1.71-1.51,2.36-2.42,2.03-2.81,2.94-6,.14-8.59-2.86-2.63-5.79-1.4-8.36,1.1-4.77,4.64-10.31,8.09-16.68,10.08-1.84,.58-4.07,1.48-4.06-2.14,.04-17.16-5.9-33.32-8.5-50.05-.42-2.67-.49-5.4-.65-8.1-.21-3.57-1.56-6.41-5.52-6.37-4.65,.04-5.24,3.63-5.11,7.22,.32,9.06,1.44,17.99,4.02,26.75,2.88,9.79,4.41,19.83,4.69,30.08,.09,3.28-.68,4.46-4.06,4.17-5.19-.44-10.35-.72-15.33-2.55-3.12-1.15-6.59-1.51-8.15,2.3-1.69,4.12,1.18,6.49,4.44,7.87,5.91,2.51,12.29,3.08,18.62,3.24,3.86,.1,4.98,1.54,4.83,5.3-.69,17.19-1.15,34.38,1.24,51.52,.92,6.6-1.85,11.82-7.33,15.75-17.84,12.78-35.37,26.03-53.51,38.36-10.54,7.16-20.53,14.81-29.7,23.62-16.17,15.52-34.19,28.97-49.83,45.12-5.95,6.14-13.6,10.37-22.07,14.52-.16-10.84-2.98-20.76-4.31-30.93-.5-3.85,.46-5.41,4.79-4.39,15.06,3.51,19.29,1.17,24.41-13.28,1.33-3.75,3.73-6.66,6.08-9.7,9.37-12.11,6.01-25.27-8.05-31.56-4.38-1.96-10.09-2.46-8.48-9.8,1.83-8.36,5.71-12.25,13.36-12.77,2.7-.18,5.47-.22,8.08-.85,7.41-1.79,9.05-6.53,3.82-12.18-2.38-2.57-1.59-3.57,.49-5.2,2.67-2.09,5.18-4.39,7.86-6.47,6.07-4.71,9.11-10.54,7.22-18.36-.92-3.81,.57-7.01,2.32-10.3,5.55-10.43,3.73-14.48-7.4-17.87-4.42-1.34-9.12-2.21-13.34-5.38,4.39-3.86,9.39-5.47,13.82-8.04,7.86-4.57,14.6-10.15,16.67-19.5,.91-4.13,3.79-3.06,6.3-3.23,15.15-1.01,30.44-2.04,44.65-7.6,19.34-7.57,24.56-21.69,17-40.39-1.85-4.57-4.71-8.31-10.39-8.41-6.06-.11-10.36,2.72-13.25,7.86-3.55,6.31-3.44,13.22-1.85,19.82,.92,3.8,.32,5.39-3.11,6.58-14.21,4.92-28.58,8.62-43.86,6.82-5.03-.59-9.88-1.64-14.03-4.56-3.23-2.28-6.5-3.01-10.23-1.78,1.28-11.09,3.92-21.71,10.92-30.77,.6,.44,1,1.01,1.2,1.73,.07,5.55-2.52,10.5-3.63,15.79-.52,2.49-1.22,5.42,1.82,6.44,3.19,1.08,4.53-1.83,5.05-4.19,4.93-22.56,24.07-33.74,38.96-48.13,6.62-6.39,16-8.44,25.32-8.27,17.26,.32,34.41-.04,51.22-4.59,5.1-1.38,10.06-.02,14.57,1.99,16.41,7.33,31.52,16.8,44.58,29.25,5.01,4.77,8.7,10.63,9.81,17.52,1.15,7.1,3.65,12.82,10.96,15.35,2.47,7.5,4.52,14.98-1.16,22.05Z"/>
        <path class="cls-19" d="M388.47,656.95c20.43-13.64,37.24-31.61,55.09-48.1,22.13-20.43,47.35-36.27,71.11-54.24,9.55-7.23,19.8-13.54,28.72-22.72,11.18,18.4,29.83,26.83,47.3,36.52,25.4,14.08,47.71,32.76,72.55,47.64,4.42,2.65,8.02,6.57,10.8,11.06-6.72,12.1-16.78,20.22-30.68,20.47-25.93,.47-49.64,8.88-73.15,18.32-13.07,5.24-26.81,3.13-40.18,4.82-28.92,3.65-56.53-4.9-84.68-8.63-11.08-1.47-22.27-2.29-33.51-.88-8.16,1.02-16.24,.76-23.38-4.26Z"/>
        <path class="cls-22" d="M622.53,400.96c-6.02,1.92-9.02-.54-9.73-6.57-1.86-15.88-10.93-26.74-24.12-34.85-6.93-4.26-13.55-9-20.47-13.26-9.56-5.89-19.59-8.73-30.95-5.28-13.59,4.12-27.63,4.13-41.68,3.33-12.91-.74-23.94,3.64-33.09,12.68-7.72,7.62-15.29,15.4-22.95,23.09-3.74,3.75-6.66,7.87-7.54,13.31-.46,2.86-1.59,5.64-2.61,8.39-1.14,3.06-3.23,5.09-6.74,4-3.45-1.07-4.34-4.01-3.56-7.1,1.5-5.89,3.41-11.67,5.14-17.49,.72-1.57,1.74-2.99,2.38-4.6,1.19-1.63,3.09-2.59,4.12-4.37,8.5-6.47,15.49-14.49,22.91-22.08,12.22-12.51,26.86-18.84,44.58-16.75,12.35,1.46,24.44-.34,36.3-3.36,14.56-3.71,27.72-1.05,40.1,7,7.69,5,15.41,9.96,23.73,15.33-.5-4.93-4.06-6.93-6.84-9.1-7.67-5.98-15.57-11.67-23.5-17.32-7.42-5.29-16.01-8.33-24.88-7.44-20.07,2.02-40.21,2.03-60.3,3.32-9.41,.6-17.32,4.56-24.48,10.53-11.51,9.6-22.34,19.88-31.98,31.36-7.23,8.61-15.85,15.35-25.64,20.86-14.34,8.08-28.14,17.13-43.04,24.21-6.81,3.24-13.88,5.98-20.93,8.66-10.56,4.02-19.15,10.55-27.27,18.41-18.75,18.15-32.79,38.99-39.8,64.26-3.5,12.61-6.56,25.33-10.1,37.93-1.89,6.72-4.41,13.25-6.61,19.89-3.89,11.77-12.09,19.35-23.25,24.1-3.74,1.59-7.46,3.22-11.2,4.8-11.96,5.04-21.96,12.56-29.26,23.39-2.11,3.13-4.57,5.5-8.33,3.25-4.16-2.48-3.11-6.25-.95-9.45,8.31-12.35,19.16-22.43,33.21-26.91,19.9-6.34,29.8-19.44,34.76-39.1,5.22-20.71,9.77-41.68,18.37-61.51,5.11-11.78,10.89-22.78,19.95-31.95,3.82-3.86,7.48-7.9,10.93-12.09,10.8-13.08,24.44-21.65,40.27-27.69,23.87-9.11,45.67-22.36,67.15-36.05,6.17-3.93,10.81-9.62,15.5-15.14,9.58-11.26,20.51-21.08,31.68-30.7,11.48-9.88,25.08-13.16,39.65-13.19,15.42-.03,30.72-.83,46.07-2.51,14.4-1.58,27.66,2.42,39.55,11.11,15.74,11.5,31.56,22.72,41.55,40.26,2.38,4.17,7.23,6.85,10.27,10.73,5.54,7.06,12.67,11.68,20.51,15.72,5.31,2.73,8.72,7.82,12.28,12.51,3.52,4.64,7.69,8.72,13.6,9.4,19.43,2.21,31.17,15.45,42.17,29.37,5.71,7.23,11.97,13.44,19.79,18.25,4.91,3.02,8.82,7.18,10.54,12.86,3.17,10.51,8.77,19.11,18.67,24.43,1.51-2.64-1.36-4.84-1.23-7.46,2.64,1.28,3.99,2.66,3.37,6.28-.71,4.18,3.6,7.35,3.66,11.98,.13,11.76,4.11,23.18,3.72,35.04-3.32-1.06-3.16-4.2-3.63-6.68-.88-4.65-1.8-9.3-2.05-14.06-.23-4.42-.73-8.85-6.9-8.66-.42,.01-.97-.2-1.22-.53-6.72-8.65-17.75-13.52-21.82-24.41-3.55-9.51-8.21-17.57-17.53-23.06-7.77-4.58-12.82-12.57-18.53-19.58-5.57-6.83-11.44-13.42-19.42-17.62-2.68-1.21-5.53-1.81-8.41-2.29-10.41-1.91-18.86-6.95-25.22-15.5-4.93-6.64-10.84-12.1-19.14-14.16-5.57-1.39-6.55-7.05-10.45-10.92-.11-.17-.96,1.32-.26,.73,.12-.1,.24-.06,.36,.11,4.72,6.87,5.04,15.42,.75,19.92Z"/>
        <path class="cls-22" d="M368.16,1003.66c-.58-.21-1.7-.47-2.69-.97-38.83-19.77-80.82-30.69-122.04-43.81-23.99-7.64-46.5-18.72-67.46-32.67-14.48-9.64-29.71-18.21-43.14-29.39-1.59-1.33-3.41-2.01-5.47-2.45-3.87-.82-6.08-3.35-4.89-7.4,1.17-3.98,4.52-4.94,8.19-4.05,4.75,1.15,8.2,4.62,12.03,7.4,37.83,27.48,77.43,51.83,123.09,63.98,35.01,9.31,68.99,21.06,101.55,36.91,1.82,.89,3.75,1.63,5.4,2.77,2.28,1.58,3.03,3.91,2.06,6.58-.87,2.38-3.04,3.44-6.62,3.1Z"/>
        <path class="cls-22" d="M111.52,640.88c-.95-3.53-2.02-7.36,2.47-9.11,4.42-1.72,6.32,1.89,8.22,4.93,1.4,2.24,2.7,4.53,4.05,6.8,3.78,12.25,10.81,22.08,21.01,29.98,8.06,6.23,15.21,13.5,20.35,22.52,15.23,26.73,41.74,37.46,68.38,47.96,17.19,6.77,34.69,7.17,52.59,3.07,7.56-1.73,13.74-5.56,19.51-10.33,3.1-2.56,6.4-4.33,9.48-.9,3.09,3.43,1.07,6.95-1.88,9.43-6.61,5.53-13.66,10.38-22.29,12.39-20,4.66-39.74,5.05-59.38-2.19-14.01-5.16-27.55-11.25-40.56-18.52-13.69-7.64-24.89-17.97-33.11-31.39-5.36-8.75-11.59-16.72-19.81-22.98-11.07-8.42-19.19-18.97-23.87-32.18-1.19-3.35-3.41-6.33-5.16-9.48Z"/>
        <path class="cls-22" d="M422.7,814.85c14.78-.65,27.23,2.88,39.75,5.91,15.29,3.7,30.66,6.44,46.22,1.9,12.43-3.63,22.52-11.49,32.23-19.59,12.8-10.68,26.81-19.15,42.2-25.44,3.86-1.58,8.21-3.77,10.52,1.3,2.21,4.85-1.64,7.43-5.69,9.07-15.01,6.06-28.87,14.06-40.87,24.96-26.09,23.71-55.95,28.41-89.05,18.56-15.72-4.68-31.75-7.7-48.14-3.73-13.04,3.16-25.72,7.14-34.3,18.68-1.82,2.45-4.61,3.15-7.22,1.28-2.45-1.75-3.04-4.32-1.8-7.24,2.05-4.81,5.85-8.06,10-10.82,14.46-9.66,30.44-14.6,46.15-14.83Z"/>
        <path class="cls-22" d="M544.26,916.73c.13-7.18,2.66-13.16,6.02-18.87,9.79-16.61,22.46-30.53,38.41-41.47,22.34-15.33,39.26-35.1,49.7-60.32,6.77-16.36,18.76-28.57,32.67-39.08,3.29-2.49,7.08-4.38,10.07-.27,3.07,4.22-.27,7.08-3.49,9.47-14.12,10.47-24.67,23.65-31.52,39.93-10.02,23.81-26.72,42.29-47.54,57.08-14.55,10.33-27.46,22.07-36.84,37.43-3.21,5.25-6.08,10.54-6.45,16.87-.22,3.7-.49,7.78-5.67,7.48-5.51-.33-4.88-4.93-5.35-8.24Z"/>
        <path class="cls-22" d="M368.89,754.3c-3.29-.55-6.6-.62-7.2-4.4-.7-4.41,2.52-5.59,5.92-6.84,24.78-9.06,50.58-13.22,76.62-16.3,16.07-1.9,31.25-6.71,45.86-13.58,11.05-5.19,22.62-8.94,34.49-11.76,4.01-.95,8.12-1.35,9.49,3.46,1.45,5.13-2.66,6.56-6.57,7.51-12.75,3.09-25.12,7.31-36.89,13.06-20.52,10.03-42.77,12.37-64.92,15.3-17.04,2.25-33.83,5.53-49.94,11.77-2.29,.89-4.79,1.25-6.85,1.77Z"/>
        <path class="cls-22" d="M176.01,813.17c12.43,1.26,22.53,5.61,32.53,10.5,17.83,8.7,32.61,21.92,49.07,32.64,14.58,9.5,29.06,19.16,44.52,27.21,3.56,1.85,7.09,3.88,11.54,2.93,2.87-.61,5.5,.31,6.19,3.72,.69,3.42-.99,5.81-3.98,7.01-4.19,1.69-8.38,1.05-12.54-.59-8.66-3.43-16.56-8.28-24.44-13.12-17.54-10.77-34.61-22.23-51.18-34.48-15.69-11.59-32.23-21.75-52.11-24.72-3.52-.53-6.08-2.61-5.51-6.42,.56-3.79,3.47-5.01,5.9-4.68Z"/>
        <path class="cls-21" d="M288.34,484.13c2.54-10.02,6.69-20.22,13.94-28.34,19.42-21.77,41.23-40.53,69.47-50.27,3.4-1.17,6.59-2.96,10.01-4.09,3.28-1.08,6.48-.67,7.91,3.05,1.31,3.4-.64,5.85-3.48,7.17-6.75,3.12-13.78,5.64-20.46,8.89-25.45,12.35-47.17,29.06-61.76,53.88-2.18,3.71-3.62,7.75-4.48,11.99-.74,3.61-2.79,5.78-6.63,5.11-3.57-.63-4.33-3.54-4.52-7.38Z"/>
        <path class="cls-21" d="M588.9,917.98c-4.41-.06-6.57-4.69-4.05-9.78,3.45-6.97,8.45-12.76,14.7-17.51,10.71-8.14,22.93-13.48,35.07-18.93,17.23-7.73,33.03-17.63,47.15-30.17,2.61-2.32,5.4-3.77,8.39-1.07,3.28,2.95,2.09,6.37-.35,9-2.74,2.97-5.92,5.59-9.17,8.01-14.16,10.56-29.18,19.64-45.54,26.48-8.73,3.65-17.26,7.82-25.17,13.1-6.3,4.21-11.67,9.26-15.05,16.18-1.22,2.51-2.65,4.83-5.98,4.67Z"/>
        <path class="cls-48" d="M485.63,790.83c-13,1.06-27.21-2.05-41.54-3.57-3.57-.38-6.87-1.61-6.46-6.15,.45-4.98,4.11-5.34,7.97-4.86,18.37,2.28,36.72,4.67,55.31,3.12,4.74-.4,9.4-.75,13.82-2.73,3.39-1.52,6.91-1.78,8.53,2.31,1.53,3.84-.76,6.44-4.13,8.12-6.01,3-12.58,3.35-19.09,3.71-4.28,.24-8.58,.04-14.42,.04Z"/>
        <path class="cls-1" d="M362.32,330.81c10.05-8.85,18.76-19.47,31.87-24.31-9.4,9.7-18.3,20.06-31.87,24.31Z"/>
        <path class="cls-12" d="M361.11,467.7c-3.56-.52-5.49-2.22-5.3-5.45,.24-4.24,2.7-6.64,6.94-6.71,3.3-.05,5.05,2.22,4.96,5.22-.13,4.28-3.22,6.09-6.6,6.94Z"/>
        <path class="cls-46" d="M358.42,553.44c3.85,.14,5.5,2.36,5.37,5.29-.18,4.18-2.95,6.68-7.07,6.68-3,0-5.18-1.99-4.95-5.26,.3-4.21,2.94-6.35,6.64-6.71Z"/>
        <path class="cls-41" d="M334.91,544.92c-.18,3.54-1.4,6.34-5.48,6.31-3.97-.03-5.6-2.83-5.66-6.26-.06-3.44,1.44-6.34,5.47-6.34,4,0,5.27,2.84,5.66,6.29Z"/>
        <path class="cls-13" d="M369.16,586.09c-.45,3.59-2.47,5.64-6.17,5.78-3.48,.14-5.61-1.45-5.61-5.12,0-3.97,2.69-5.56,6.05-5.92,3.58-.39,5.27,1.85,5.73,5.26Z"/>
        <path class="cls-41" d="M341.96,499.47c-3.52-.06-5.6-2.09-5.89-5.33-.33-3.64,1.55-6.15,5.46-6.23,3.57-.07,5.34,2.03,5.41,5.53,.07,3.39-1.37,5.63-4.98,6.03Z"/>
        <path class="cls-15" d="M285.93,558.29c3.18,.15,5.41,1.84,5.56,5.25,.15,3.52-1.52,6.23-5.36,6.32-3.51,.08-5.31-2.5-5.47-5.62-.17-3.21,1.55-5.52,5.27-5.94Z"/>
        <path class="cls-13" d="M288.75,610.7c-.29,3.3-1.6,5.67-5.38,5.48-3.22-.16-5-2.16-5.12-5.2-.13-3.31,1.41-5.68,5.09-5.81,3.76-.14,5.07,2.24,5.4,5.54Z"/>
        <path class="cls-42" d="M350.7,513.86c4.32,.04,6.2,1.86,6.13,5-.08,3.7-2.39,5.88-6.11,5.72-3.19-.13-4.92-2.36-4.74-5.46,.2-3.35,2.13-5.35,4.71-5.27Z"/>
        <path class="cls-29" d="M346.29,604.38c-.66,3.41-2.43,5.47-5.98,5.21-3.63-.26-5.09-2.54-4.83-5.95,.25-3.23,2.38-4.89,5.39-4.82,3.42,.09,5.12,2.35,5.42,5.56Z"/>
        <path class="cls-47" d="M315.76,614.3c-.11,3.41-1.53,5.69-4.77,5.71-3.39,.02-5.5-2.05-5.43-5.56,.06-3.14,1.84-5.15,5.09-5.08,3.19,.07,4.78,2.12,5.11,4.93Z"/>
        <path class="cls-49" d="M309.23,502.76c3.11,.25,5.11,1.74,5.04,5.04-.07,3.14-1.8,5.08-4.99,5.16-3.56,.09-5.45-2.05-5.4-5.43,.05-3.2,2.23-4.68,5.35-4.78Z"/>
        <path class="cls-20" d="M427.02,377.19c-.93,1.34-1.86,2.67-2.79,4.01-.09-.68-.19-1.37-.28-2.05,.57-1.49,1.47-2.7,2.94-3.41,.32,.3,.44,.61,.37,.95-.07,.34-.15,.51-.25,.51Z"/>
        <path class="cls-18" d="M427.02,377.19c-.04-.48-.08-.97-.12-1.45,.81-1.68,2.17-2.77,3.84-3.51-.15,2.47-2.12,3.58-3.72,4.96Z"/>
        <path class="cls-19" d="M647.68,299.19c-12.04-12.38-26.68-19.93-41.19-26.87-10.41-4.98-18.46-12.33-27.56-18.66-12.86-8.94-20.89-20.93-25.84-35.54-8.49-25.06-11.9-51.06-14.45-77.17-2.31-23.63-3.68-47.35-5.61-71.01-.36-4.44-1.42-8.82-2.15-13.2,.56-.25,1.1-.68,1.32-.55,14.02,8.17,31.06,7.85,45.08,16.03,5.86,3.42,11.58,7.1,17.6,10.19,4.19,2.15,8.65,4.09,13.22,5.14,29.04,6.68,53.22,22.16,75.44,41.21,6.89,5.91,14.57,10.78,21.53,16.49,30.98,25.45,58,53.94,68.72,94.28,1.96,7.36,4.68,14.51,7.67,23.66-14.06-10.52-28.05-12.67-43.35-10.97-17.67,1.97-31.04,10.93-42,23.83-12.01,14.14-23.63,28.76-24.55,49.2-6.58-3.43-10.15-8.69-14.05-13.59-1.34-1.69-.45-3.39-.13-5.16,3.36-18.48,13.57-32.84,27.32-44.93,11.43-10.05,24.15-18.29,37.42-25.73,10.2-5.72,20.32-5.54,30.35,.04,3.5,1.95,6.92,3.52,9.43-.56,2.65-4.31-.09-7.26-3.86-9.26-11.36-6.02-23.58-8.29-35.26-2.67-23.63,11.38-45.07,26.03-61.26,47.24-6.33,8.3-10.9,17.54-13.83,28.56Z"/>
        <path class="cls-19" d="M28.02,293.37c-2.31-14.18,1.09-27.91,3.61-41.64,7.62-41.4,8.58-83.18,7.96-125.1-.36-24-.32-48.01-.32-72.01,0-7.77,1.82-15.21,5.09-22.31,1.53-3.32,3.47-3.96,7.01-2.84,9.94,3.13,17.37,8.88,23,17.82,8.19,13,16.94,25.69,25.98,38.12,10.52,14.46,25.39,21.3,43.01,22.59,11.5,.84,23,1.58,34.48,2.62,2.31,.21,5.8,.12,6.56,2.5,.83,2.61-2.53,3.91-4.27,5.45-47.51,42.21-71,96.67-79.49,158.26-4.29,31.12-5.62,62.67-13.72,93.2-2.95,11.13-6.89,21.98-10.29,32.99-.77,2.5-1.43,3.43-4.63,2.72-19.24-4.29-32.74-24.23-28.89-43.72,1.64-8.28,2.59-16.53,1.56-24.94,1.49-6.66,5.82-11.74,9.88-16.82,6.89-8.64,12.11-17.94,14.41-28.87,4.17-19.87,15.65-35.96,27.41-51.83,3.38-4.56,5.3-9.21,5.28-14.98-.02-5.64,1.26-11.23,2.19-16.81,1-5.98-.32-10.99-4.7-15.52-9.73-10.04-16.76-21.81-21.08-35.73-.87,11.32,.99,22.25-1.71,32.94-4.99,19.78-9.66,39.67-21.67,56.77-1.3,1.85-2.47,3.82-4.05,5.45-9.04,9.32-15.12,20.21-18.16,32.89-.75,3.13-1.24,6.76-4.47,8.79Z"/>
        <path class="cls-3" d="M685.29,421.66c10.5,4.79,17.06,13.91,23.85,22.5,6.1,7.72,12.7,14.64,21.26,19.52,3.77,2.15,6.04,5.34,7.48,9.25,3.43,9.35,6.76,18.68,16.3,24.01,1.99,1.11,3.27,3.67,4.62,5.73,2.85,4.34,6.19,6.67,11.4,3.19,3.19,10.54,1.65,21.7,5.81,31.79,.57,2.39,.98,4.82,1.72,7.15,2.81,8.81,4.9,17.57,3.33,27.06-1.57,9.47,1.45,18.72,3.14,27.96,1.54,8.48,1.26,16.79-1.18,25.04-.95,2.1-.55,4.54-1.59,6.62-.81,3.43-1.81,6.8-3.01,10.12-1.18,1.45-2.96,.7-4.4,1.2-10.63,2.17-21.27,4.25-31.87,6.55-10.97,2.37-21.59,.3-32.24-2.02-3.27-.71-3.47-2.19-1.54-4.67,3.26-4.16,7.34-7.33,11.63-10.33,21.49-15.07,21.5-28.47,3.33-47.93-3.19-3.42-4.65-5.66-2.66-10.24,4.33-9.96,1.43-15.05-11.12-26.34-5.22-4.69-9.86-8.72-11.15-16.03-.82-4.67-4.61-7.73-9.02-9.47-4.04-1.59-6.1-4.18-6.11-8.64-.02-10.81-4.85-18.54-14.97-22.85-3.46-1.47-6.19-3.65-5.78-8.13,.12-1.25-.24-3.19-1.1-3.79-6.37-4.46-7.18-11.52-9.14-18.14-1.06-3.57-3.65-6.68-7.24-7.64-14.98-4.03-21.52-14.29-22.38-29.05,2.53-7.71,1.69-15.42-.11-23.11,4.12-7.76-.94-14.68-1.61-22.5,2.24,.1,5.09,1.8,5.27,3.42,.73,6.58,5.53,7.26,10.34,8.73,6.52,2,11.25,6.75,14.97,12.16,6.25,9.08,14.75,14.28,25.37,16.43,.54,1.92-1.21,2.58-2.03,3.76-1.9,2.48-3.64,5.4,.33,7.06,3.19,1.34,4.72-1.39,5.44-4.23,.22-.86,.36-1.74,.65-2.6,.88-1.74,2.05-2.7,4.02-1.52Z"/>
        <path class="cls-19" d="M792.33,641.78c.4-2.91,.37-5.96,1.27-8.7,5.1-15.48,2.99-30.85-.33-46.22-.82-3.79-1.54-7.59-1.02-11.43,1.7-12.64-.3-24.74-4.56-36.65-4.62-12.91-4.37-26.72-6.88-40.04-1.88-9.97-5.28-19.11-10.27-27.81-16.4-28.66-32.79-57.32-49.17-85.99-.63-1.11-1.17-2.26-2.47-4.78,13.68,5.37,26.49,9.03,40.01,7.64,13.46-1.38,24.7-8.13,36.13-15.7-2.65,8.47,.82,17.54-3.66,25.73-1.16,2.13-1.05,4.64,.92,6.25,13.42,10.97,17.23,26.87,18.63,42.39,4.55,50.49,8.36,101.17-3.57,151.29-3.76,15.79-9.84,35.92-16.07,51.03-2.59,.17,.65-5.61,1.03-7.01Z"/>
        <path class="cls-19" d="M718.87,140.88c-15.98-9.3-28.65-22.09-43.06-32.55-19.11-13.87-39.23-25.9-62.83-30.85-8.62-1.81-8.74-2.31-4.84-9.93,4.76-9.3,7.77-19.27,11.78-28.85,5.86-14.03,15.7-23.56,30.93-26.86,12.45-2.7,30.55,6.47,35.13,18.34,3.95,10.24,9,19.78,16,28.19,12.62,15.16,17.6,32.95,18.05,52.2,.24,9.93,.88,19.92-1.16,30.32Z"/>
        <path class="cls-3" d="M28.02,293.37c4.21-16.06,10.82-30.45,21.64-43.74,18.53-22.77,24.96-50.61,26.95-79.47,.4-5.82,.06-11.69,.06-18.39,2.52,1.75,2.85,3.96,3.49,5.87,4.13,12.41,10.27,23.62,19.75,32.74,6.04,5.8,7.75,12.44,5.26,20.34-.4,1.28-.71,2.67-.67,4,.42,14.26-5.32,25.97-14.26,36.72-10.28,12.35-16.68,26.78-20.13,42.43-1.99,9.05-6.03,16.85-11.76,24.06-4.87,6.13-9.12,12.76-13.64,19.17-4.76-10.86-10.62-21.24-14.26-32.58-1.16-3.6-1.63-7.43-2.41-11.15Z"/>
        <path class="cls-3" d="M227.04,261.32c14.69-10.45,31.44-11.64,48.59-10.54,3.29,.21,6.63,1.4,9.34,3.65,11.68,9.68,23.17,19.49,30.82,32.99,2.89,5.09,6.34,9.89,9.84,14.6,4.17,5.6,6.24,11.95,7.43,18.67,.48,2.71,.58,5.48-1.79,7.53-12.87,11.15-26.63,20.69-43.87,24.11,7.56-25.94,4.29-50.32-9.26-73.02-10.29-17.25-26.83-22.91-46.15-17.2-1.08,.32-2.19,.51-3.29,.77-1.63,.64-1.89-.19-1.68-1.55Z"/>
        <path class="cls-3" d="M773.35,274.96c-21.6-9.86-45.74,2.22-49.48,28.66-2.29,16.18-1.67,32.52-1.12,48.79,.22,6.55,2.63,12.65,6.16,19.02-11-2.72-21.11-4.49-27.48-15.05-4.85-8.04-11.04-15.47-18.41-21.65-1.01-.85-1.77-1.7-1.73-3.37,.68-25.17,26.6-60.29,50.08-66.26,15.45-3.93,30.98-4.58,43.61,8.21,.31,1.39-.07,2.11-1.63,1.65Z"/>
        <path class="cls-4" d="M238.02,360.67c-9.54,1.01-16.69-5.09-22.58-11.72-16.84-18.95-16.25-46.2,.57-65.31,16.08-18.27,43.05-15.93,54.59,5.27,8.53,15.68,11.04,32.81,8.17,50.45-1.74,10.67-8.23,17.15-19.21,18.95-6.92,1.14-13.83,2.24-21.54,2.36Z"/>
        <path class="cls-5" d="M769.16,289.97c-14.38,.27-22.27,5.94-26.33,19.66-3.82,12.88-5.57,26-3.5,39.48,1.08,7.08,4.11,13.21,8.48,19.33-5.73,.27-8.89-2.52-11.01-6.86-1.61-3.28-2.63-6.83-2.67-10.44-.15-14.69-.89-29.42,.76-44.07,1.18-10.43,5.14-19.17,16.11-22.92,7.93-2.71,15.01-1.58,21.26,4.12,.08,2.61-1.4,2.37-3.11,1.69Z"/>
        <path class="cls-2" d="M198.27,351.01c-3.69-1.81-6.92-4.24-9.6-7.36-6.72-7.82-10.63-16.05-4.8-26.32,3.29-5.8,5.91-11.99,9.87-17.89-3.67,17.55-2.64,34.25,6.31,49.88,.23,1.43-.07,2.3-1.78,1.69Z"/>
        <path class="cls-2" d="M795.11,307.61c2.24,7.83,3.33,15.88,4.1,23.94,1.35,14.19-4.59,25.3-15.46,34.02-1.11,.89-2.27,2.4-4.36,1.31,10.09-17.92,15.7-36.98,14.37-57.74-.7-1.53,.08-1.75,1.35-1.54Z"/>
        <path class="cls-34" d="M601,515.84c3.08,.69,5.48,2.26,5.02,5.44-.59,4.04-2.88,7.3-7.48,7.08-3.05-.14-4.93-2.27-4.44-5.55,.59-3.98,2.97-6.37,6.9-6.97Z"/>
        <path class="cls-7" d="M569.83,472.61c-.2,3.4-2.05,5.66-5.37,5.62-3.79-.04-5.44-2.96-5.41-6.36,.03-3.5,1.93-6.21,5.75-5.91,3.71,.3,5.16,3.06,5.03,6.65Z"/>
        <path class="cls-50" d="M497.95,479.45c-.41,3.38-1.96,6.05-5.78,6.18-3.7,.12-5.43-2.43-5.07-5.73,.4-3.58,2.25-6.59,6.51-6.36,3.49,.19,4.21,2.86,4.34,5.91Z"/>
        <path class="cls-35" d="M580.75,510c-.05,3.79-1.91,6.04-5.72,6.04-3.16,0-5.27-2-5.09-5.1,.19-3.43,2.29-5.98,5.98-6.15,3.36-.15,4.7,2.1,4.82,5.2Z"/>
        <path class="cls-27" d="M480.26,453.11c-3.49-.15-5.62-1.99-5.67-5.36-.06-3.69,2.18-5.74,5.91-5.85,3.17-.09,5.21,1.37,5.21,4.71,0,3.59-1.83,5.85-5.45,6.5Z"/>
        <path class="cls-37" d="M471.69,479.81c-.1,3.47-1.39,5.95-4.97,6.16-3.55,.21-5.48-1.99-5.62-5.31-.14-3.23,1.39-5.78,4.96-5.99,3.52-.21,5.26,1.92,5.63,5.14Z"/>
        <path class="cls-23" d="M512.58,477.99c3.63-1.01,6.94-.93,8.03,3.5,.77,3.1-.87,5.59-3.74,6.33-5.1,1.31-6.96-1.69-7-6.35,1.05-1.05,.17-3.59,2.7-3.48Z"/>
        <path class="cls-45" d="M596.03,431.13c3.38,.08,5.62,1.82,5.93,5.18,.31,3.28-1.96,5.14-4.93,5.25-3.21,.12-5.72-1.49-5.86-5.13-.13-3.21,1.55-5.03,4.86-5.3Z"/>
        <path class="cls-36" d="M559,502.08c-3.17-.17-5.33-2-5.39-5.35-.06-3.13,2.1-5.04,5.15-4.99,3.27,.04,5.46,1.85,5.49,5.43,.03,3.31-1.76,4.87-5.24,4.91Z"/>
        <path class="cls-44" d="M592.37,496.29c-3.03-.29-5.17-1.7-5.22-4.99-.05-3.48,1.94-5.51,5.36-5.73,3.25-.21,5.27,1.73,5.37,4.82,.11,3.41-2.23,5.2-5.51,5.9Z"/>
        <path class="cls-37" d="M523.6,524.71c-.19,3.45-2.38,5.18-5.65,5.12-3.05-.06-5.17-2.06-4.97-5.16,.21-3.26,2.31-5.24,5.81-5.19,3.34,.04,4.8,1.9,4.82,5.24Z"/>
        <path class="cls-23" d="M505.19,511.33c-3.13-.62-5.11-2.16-4.95-5.45,.16-3.45,2.07-5.46,5.54-5.44,3.27,.02,4.98,2.19,4.89,5.23-.09,3.36-2.31,5.17-5.48,5.66Z"/>
        <path class="cls-40" d="M472.56,515.63c-3.39-.09-5.11-1.83-5.15-5.01-.04-3.4,1.8-5.58,5.17-5.81,3.31-.23,4.83,1.97,4.91,5.05,.09,3.39-1.52,5.48-4.93,5.77Z"/>
        <path class="cls-34" d="M618.76,485.32c-.06,3.18-1.84,5.31-5.18,5.54-3.27,.22-4.85-1.95-4.91-5.03-.07-3.37,1.53-5.55,5.11-5.68,3.31-.12,4.84,1.75,4.98,5.18Z"/>
        <path class="cls-40" d="M499.07,461.32c-.35,3.23-2.07,5.27-5.58,5.23-3.49-.04-4.56-2.45-4.48-5.43,.09-3.37,1.73-5.57,5.4-5.36,3.3,.19,4.58,2.33,4.67,5.56Z"/>
        <path class="cls-28" d="M474.42,546.87c-.42,3.21-2.07,5.13-5.2,5.18-3.22,.05-5.01-2.06-5.11-5.04-.11-3.15,1.97-5.03,5.07-4.97,2.99,.06,4.97,1.73,5.25,4.83Z"/>
        <path class="cls-31" d="M587.29,465.03c-.14,3.12-1.71,5.14-4.78,5.43-3.3,.31-4.89-1.74-5.07-4.83-.18-3.14,1.37-5.31,4.53-5.44,3.05-.13,4.86,1.78,5.32,4.84Z"/>
        <path class="cls-25" d="M573.45,481.4c3.98-.13,5.84,1.36,5.9,4.68,.06,3.19-1.59,5.07-4.78,5.31-3.09,.22-5.45-1.12-5.63-4.35-.19-3.37,1.78-5.35,4.51-5.63Z"/>
        <path class="cls-15" d="M606.11,446.3c3.03,.39,4.44,2.14,4.47,5.04,.04,3.3-1.85,5.31-4.91,5.29-3.05-.01-5.06-2.02-4.86-5.32,.19-3.22,2.28-4.71,5.3-5.01Z"/>
        <path class="cls-23" d="M599.22,474.12c-3.06-.55-5.2-2.03-5.03-5.32,.16-3.15,2.05-4.95,5.26-4.88,3.03,.07,4.36,2.05,4.46,4.85,.12,3.23-1.58,4.98-4.69,5.35Z"/>
        <path class="cls-33" d="M460.18,445.95c3.22,.26,4.89,2.02,4.78,5.25-.12,3.33-2.08,4.82-5.28,4.64-2.97-.16-4.4-1.98-4.43-4.85-.04-3.26,1.65-4.95,4.93-5.05Z"/>
        <path class="cls-39" d="M585.44,446.21c3.36,.21,4.81,2.13,4.72,5.29-.09,2.98-1.88,4.49-4.71,4.57-3.15,.09-5.2-1.4-5.09-4.77,.11-3.17,2-4.8,5.07-5.09Z"/>
        <path class="cls-14" d="M475.21,523.22c3.23,.14,4.99,1.81,4.94,5.05-.04,2.77-1.25,4.8-4.33,4.87-3.17,.07-5.09-1.62-5.39-4.74-.32-3.34,1.67-4.84,4.78-5.18Z"/>
        <path class="cls-43" d="M452.59,531.98c-.25,2.89-1.91,4.75-4.67,4.82-2.77,.07-4.65-1.69-4.76-4.61-.11-3.02,1.62-4.59,4.56-4.62,2.88-.03,4.62,1.43,4.87,4.42Z"/>
        <path class="cls-16" d="M509.68,478.31c-3.53,.74-6.38,.18-6.89-4.05-.3-2.5,.73-4.54,3.4-4.95,4-.61,5.68,1.75,6.12,5.37-.87,1.21-.2,3.54-2.63,3.63Z"/>
        <path class="cls-10" d="M523.65,579.96c-.24,3.87-.36,7.04-1.85,9.92-1.29,2.49-3.38,3.55-6.14,3.02-2.73-.53-3.5-2.7-3.51-5.05-.02-2.68,.18-5.4,.58-8.05,.56-3.75,.86-8.46,6.12-8,5.15,.45,4.89,4.98,4.81,8.16Z"/>
        <path class="cls-48" d="M552.38,573.37c-.15,2.02-.07,4.1-.52,6.05-.63,2.75-2.59,4.16-5.46,4.01-2.71-.14-4.1-1.84-4.22-4.39-.17-3.6-.17-7.21-.07-10.82,.09-3.08,1.55-5.22,4.91-5.29,3.79-.08,5.08,2.32,5.16,5.68,.04,1.58,0,3.16,0,4.74,.06,0,.12,0,.18,0Z"/>
        <path class="cls-26" d="M586.1,575.33c-1.04,4.39-.3,10.3-7.02,11.2-3.59,.48-5.97-2.32-5.07-5.47,1.28-4.49-.63-11.43,6.71-12.31,3.87-.46,5.26,2.73,5.38,6.59Z"/>
        <path class="cls-11" d="M674.17,421.51c.9-.77,1.81-1.54,2.71-2.31,2.93,.4,5.92,.56,8.41,2.47-1.81,.11-2.78,1.07-2.9,2.88-3.1-.04-5.92-.82-8.22-3.04Z"/>
        <path class="cls-8" d="M704.82,463.67c-.46,3.91-1.85,7.17-6.4,7.34-3.56,.13-5.58-1.8-5.18-5.48,.43-3.95,1.46-7.99,6.28-8.32,4.12-.28,4.98,3.08,5.29,6.45Z"/>
        <path class="cls-6" d="M751.89,586.27c.15,4.01-1.13,7.02-5.55,6.93-3.84-.08-5.61-2.86-5.67-6.36-.06-3.59,1.83-6.06,5.68-6.29,4.04-.24,5.8,1.88,5.53,5.72Z"/>
        <path class="cls-12" d="M674.17,421.51c3.38-.73,6.2,.06,8.22,3.04-.09,1.11,.04,2.3-.32,3.33-.96,2.73-2.76,4.65-5.86,4.8-2.23,.11-3.91-.75-4.78-2.94-1.4-3.53,.07-6.07,2.74-8.23Z"/>
        <path class="cls-9" d="M732.14,567.46c-3.76-.18-5.27-2.13-5.13-5.26,.18-3.93,2.34-6.26,6.38-6.14,3.14,.09,5,1.94,4.78,5.19-.27,3.9-2.49,6.02-6.03,6.21Z"/>
        <path class="cls-32" d="M758.86,634.09c-.38,3.65-2.52,5.61-6.2,5.45-3.11-.13-5.13-1.98-4.89-5.17,.27-3.6,2.56-5.8,6.2-5.67,3.06,.11,4.8,2.1,4.9,5.39Z"/>
        <path class="cls-30" d="M725.84,497.28c-.61,3.53-2.73,5.68-6.32,5.63-3.06-.04-5.03-2-4.99-5.17,.05-3.38,1.98-5.4,5.42-5.6,3.51-.2,5.34,1.73,5.89,5.13Z"/>
        <path class="cls-38" d="M742.89,524.7c-.35,3.07-1.4,5.72-5.17,5.8-3.69,.08-5.38-2.21-5.36-5.57,.01-3.41,1.87-5.42,5.5-5.48,3.51-.05,4.66,2.14,5.04,5.24Z"/>
        <path class="cls-24" d="M699.17,512.67c3.28,.34,5.13,2.07,5.01,5.26-.14,3.69-2.25,5.85-5.99,5.8-3.2-.04-5.02-2-4.9-5.17,.14-3.67,2.28-5.66,5.89-5.89Z"/>
        <path class="cls-29" d="M650.99,431.19c-3.13-.24-5.3-1.69-5.5-4.86-.24-3.71,1.73-6,5.5-6.21,3.11-.18,5.31,1.37,5.51,4.59,.24,3.76-2.18,5.61-5.51,6.48Z"/>
        <path class="cls-24" d="M677.24,463.03c-.22,3.94-2.25,5.9-5.6,5.94-3.02,.04-5.29-1.76-5.47-4.89-.19-3.36,1.68-5.65,5.17-5.86,3.51-.21,5.3,1.9,5.89,4.81Z"/>
        <path class="cls-29" d="M764.81,558.66c-.34,3.11-1.93,5.27-5.11,5.29-3.03,.02-5.3-1.72-5.36-4.94-.07-3.45,1.9-5.47,5.46-5.53,3.46-.06,4.64,2.21,5.02,5.19Z"/>
        <path class="cls-17" d="M716.88,458.26c3.03,.08,5.02,1.75,5.06,5.31,.04,3.39-2.05,4.82-5.13,4.84-3.19,.02-5.14-1.88-5.2-4.94-.06-2.95,1.41-5.14,5.27-5.21Z"/>
        <path class="cls-22" d="M271.11,318.4c.35,4.48-.62,9.57-2.37,14.5-4.9,13.8-15.81,20.99-30.32,20.06-12.48-.8-24.26-11.12-26.94-23.96-1.24-5.96-1.9-12.05-1.6-18.17,.93-19.02,19.28-34.28,38.15-31.7,5.89,.81,10.44,3.89,14.05,8.58,6.81,8.84,9,19.03,9.02,30.7Z"/>
      </g>
    </g>
  </g>
</svg>