<?xml version="1.0" encoding="UTF-8"?>
<svg id="Layer_2" data-name="Layer 2" xmlns="http://www.w3.org/2000/svg" viewBox="0 0 840.61 977.81">
  <defs>
    <style>
      .cls-1 {
        fill: #6a00ff;
      }

      .cls-2 {
        fill: #e6e6e6;
      }

      .cls-3 {
        fill: #fefefe;
      }

      .cls-4 {
        fill: #fefeea;
      }

      .cls-5 {
        fill: #fe7f05;
      }

      .cls-6 {
        fill: #a1a1a1;
      }

      .cls-7 {
        fill: #a9a9a9;
      }

      .cls-8 {
        fill: #dcdcdc;
      }

      .cls-9 {
        fill: #1c1c1c;
      }

      .cls-10 {
        fill: #707070;
      }

      .cls-11 {
        fill: #a2a2a2;
      }
    </style>
  </defs>
  <g id="Layer_1-2" data-name="Layer 1">
    <g>
      <path d="M.87,963.68c-1.44-2.24-.87-4.42,.12-6.63,4.39-9.88,8.17-20.09,13.25-29.6,13.6-25.47,21.07-52.73,25.37-81.07,3.63-23.95,14.26-44.7,28.66-64.01,12.78-17.14,28.23-31.9,41.52-48.58,12.01-15.07,22.37-31,30.77-48.31,5.64-11.63,13.23-21.91,22.73-30.76,7.01-6.54,12.35-14.42,17.06-22.68,3.46-6.08,7.9-11.09,13.69-14.94,.42-.28,.81-.58,1.23-.86,2.79-1.91,4.84-4.54,7.03-7.05,3.08-3.54-1.17-5.59-1.6-8.42-1.62-10.7-2.7-21.45-3.26-32.25-.09-1.66-.01-3.32-.01-5.59-2.5,1.14-4.68,2.1-6.83,3.12-16.03,7.56-32.29,6.66-48.4,.69-8.52-3.16-16.59-7.52-24.96-11.12-14.8-6.37-24.13-18.33-32.58-31.29-10.87-16.65-18.13-35.25-18.18-54.66-.08-32.36,7.47-61.98,40.65-78.29,16.37-8.05,33.24-15,49.43-23.4,36.96-19.18,74.27-37.7,109.37-60.26,9.63-6.19,19.82-9.66,31.61-10.5,21.22-1.51,39.44-11.97,57.21-22.86,28.6-17.53,51.94-40.83,73.31-66.39,8.11-9.7,16.85-18.88,25.46-28.15,7.07-7.61,13.12-15.88,17.66-25.22,1.82-3.75,2.69-7.7,3.26-11.89,5.12-37.62,11.09-75.01,36.26-105.75,17.59-21.48,40.03-33.93,67.92-36.06,4.61-.75,9.26-.16,13.88-.35,17.04-.49,32.76,4.72,48.16,11.29,22.14,9.44,41.56,22.98,59.27,39.13,1.97,2.18,4.01,4.28,6.57,5.79,26.92,25.47,49.4,54.44,68.37,86.22,28.44,47.63,48.41,98.54,59.35,152.95,3.42,16.98,5.84,34.11,5.89,51.49,.3,3.18-.63,6.42,.52,9.55v5c-.85,5.67-.85,11.33,0,17v4c-1.25,2.61,.06,5.46-.78,8.1-2.33,29.05-7.95,57.26-22.21,83.07-14.97,27.12-36.21,46.7-67.38,53.19-24.76,5.15-48.59,.79-71.63-8.82-18.37-7.66-35.04-18.19-50.55-30.59-3.22-2.57-6.51-4.63-10.63-5.84-16.85-4.95-33.53-10.34-50.96-13.27-36.36-6.12-72.41-3.56-108.13,3.83-19.41,4.01-39.12,7.64-57.26,16.37-2.83,1.36-5.84,2.65-8.22,4.62-13.87,11.49-30.02,18.07-47.28,22.22-5.32,1.28-8.63,3.14-7.71,9.69,.95,6.72-2.47,12.19-8.21,15.39-15.09,8.41-10.98,24.04-1.79,32.51,.24,.23,.46,.49,.73,.68,12.75,8.91,15.05,21.92,14.36,36.19-.64,13.29-3.59,26.48-2.81,39.79,.92,15.66,4.35,30.86,11.99,44.82,4.28,7.83,8.48,15.45,15.25,21.87,6.76,6.42,7.34,15.85,5,24.8-6.07,23.28-20.45,40.5-39.67,54.36-6.94,5.01-14.04,6.87-22.38,5.97-10.56-1.13-21.26-.65-31.74-3.03-7.17-1.63-9.7-3.76-10.82-10.99-2.52-16.28-6.18-32.31-10.29-48.28-1.66-.5-2.37,.94-3.26,1.73-17.37,15.31-36.67,28.27-53.58,44.17-6.06,5.7-10.9,12.13-14.27,19.66-5.83,13.04-14.25,24.38-22.67,35.78-9.1,12.32-18.16,24.69-25.84,37.96-9.25,16-12.35,33.98-16.06,51.72-1.77,8.47-3.15,17.01-4.74,25.52-1.1,5.85-1.76,11.71-.31,17.6-1.44,1.97-2.88,3.94-5.82,2.87l.02,.06c-4.27-2.15-3.63-6.05-3.12-9.62,1.21-8.4,2.2-16.83,3.79-25.18,3.57-18.82,6.84-37.72,13.91-55.64,3.43-8.71,8.26-16.65,13.58-24.38,10.95-15.91,22.78-31.2,33.43-47.32,3.53-5.34,5.63-11.32,8.58-16.9,6.97-13.18,18.34-22.3,29.56-31.41,12.27-9.97,24.72-19.71,36.96-29.74,5.45-4.46,8.16-10.85,12.65-15.98,10.64-12.16,21.86-23.68,34.5-33.77,5.81-4.64,9.29-10.85,11.23-17.85,1.55-5.59-.25-8.86-5.56-11.56-2.72-1.38-4.23-3.58-5.2-6.39-.64-1.87-.27-3.95-1.29-5.79-1.88,.78-2.76,2.48-3.99,3.78-10.87,11.43-22.49,22.22-30.71,35.93-1.72,2.87-4.11,5.24-7.27,6.67-1.77,.8-3.6,1.19-5.11-.33-1.63-1.64-1.39-3.63-.49-5.57,.49-1.07,1.32-1.91,2.12-2.76,1.26-1.33,2.85-2.43,3.77-3.99,7.84-13.38,19.45-23.57,29.45-35.13,6.08-7.03,13.21-12.1,22.31-14.26,1.13-.27,2.24-.63,3.36-.99,8.54-2.74,10.15-6.18,6.26-14.48-2.41-5.13-5.48-9.92-9.83-13.73-2.75-2.41-5.56-4.74-8.15-7.35-3.46-3.48-7.1-2.61-8.8,1.89-2.99,7.95-7.78,14.71-13.63,20.72-3.61,3.71-6.88,7.7-10.16,11.67-3.09,3.74-6.42,7.2-10.26,10.17-5.42,4.18-10.74,8.47-14.31,14.49-.17,.29-.39,.54-.61,.79-1.72,1.94-3.57,3.91-6.36,2.08-2.62-1.72-2.2-4.37-1.07-6.72,2.97-6.17,8.02-10.6,13.17-14.82,11.82-9.69,20.92-21.81,30.38-33.61,1.88-2.34,3.27-5.06,4.17-7.93,.67-2.12,2.78-4.85,.73-6.44-2.32-1.8-5.45-3.33-8.86-1.92-7.48,3.1-14.26,7.25-19.61,13.41-11.58,13.35-24.74,25.09-37.58,37.15-2.04,1.92-4.35,2.64-6.59,.32-2.26-2.34-1.3-4.58,.58-6.6,3.3-3.53,6.5-7.23,10.28-10.19,5.18-4.06,8.87-9.47,13.66-13.84,3.59-3.28,2.39-7.63,3.22-11.85-10.07,7.16-20.18,13.61-26.98,23.9-1.81,2.74-4.35,5.12-7.16,6.92-6.23,3.99-10.43,9.61-14.13,15.86-5.28,8.92-11.7,16.91-19.21,24.16-8.07,7.79-14.36,17.1-19.29,27.18-7.12,14.56-14.95,28.69-25.18,41.29-9.74,12.01-19.81,23.74-30.11,35.32-18.38,20.67-35.82,42.27-42.32,70.3-2.82,12.18-4.43,24.57-7.11,36.78-3.34,15.22-8.12,29.94-14.8,43.94-6.6,13.83-13.17,27.66-19.17,41.77-1.38,3.24-3.07,6.57-7.72,4.55Z"/>
      <path class="cls-9" d="M840.61,378.93c-1.63-5.67-1.59-11.33,0-17v17Z"/>
      <path class="cls-6" d="M593.67,0c-.14,.31-.12,.61,.05,.9-5.04-.01-10.08-.03-15.12-.04,.08-.28,.1-.57,.07-.86h15Z"/>
      <path class="cls-7" d="M839.75,346.87c.29-.04,.58-.02,.86,.07v10c-2.12-3.2-.61-6.71-.86-10.06Z"/>
      <path class="cls-2" d="M110.93,976.61c2.4-.03,4.17-1.33,5.82-2.87,.37,2.35-1.98,2.71-2.97,4.07h-3c.05-.4,.1-.8,.15-1.2Z"/>
      <path class="cls-11" d="M839.83,391.03c.09-2.72-1.28-5.58,.78-8.1v8l-.36,.28-.42-.18Z"/>
      <path class="cls-4" d="M.87,963.68c2.33,.52,4.4,.27,5.38-2.26,10.75-27.9,27.66-53.29,33.84-83.03,2.27-10.91,4.53-21.84,6.41-32.82,3.79-22.04,13.76-41.05,26.96-58.86,13.43-18.11,29.91-33.53,43.69-51.32,10.14-13.09,19.46-26.61,26.65-41.51,6.43-13.33,14.44-25.38,25.37-35.53,6.86-6.37,12.03-14.24,16.63-22.38,3.1-5.48,6.99-10.1,12.3-13.52,3.39-2.18,6.54-4.79,8.65-8.21,6.89-11.19,18.53-16.88,28.74-25.63-.59,7.12-.3,13.1-5.77,18.24-6.53,6.15-12.88,12.53-19.34,18.79-1.07,1.04-2.17,2.07-3.13,3.22-1.24,1.5-2.06,3.25-.38,4.9,1.85,1.81,3.61,.97,5.22-.59,6.8-6.62,13.64-13.2,20.43-19.83,6.76-6.61,13.66-13.07,19.92-20.21,5.04-5.76,12.19-8.52,18.92-11.85,3.08-1.52,4.04,2.01,6.1,1.91,5.62-.28,3.88,3.04,3.06,5.85-1.26,4.35-3.02,8.61-5.88,12.06-9.45,11.38-18.15,23.46-29.88,32.77-4.99,3.96-9.68,8.19-12.83,13.82-1.23,2.19-2.58,4.88,.51,6.5,2.95,1.54,4.01-1.24,5.18-3.21,2.85-4.82,6.92-8.47,11.24-11.92,12.61-10.07,22.28-22.83,32.14-35.39,2.88-3.67,4.5-8.13,5.92-12.6,.35-1.09,.17-2.65,2.45-2.13,10.49,2.39,29.55,23.23,27.25,34.43-.52,2.54-1.17,3.94-3.6,4.44-15.4,3.14-26.68,11.93-36.86,23.79-7.47,8.7-15.45,16.91-21.78,26.55-1.53,2.34-3.6,4.36-5.6,6.34-1.78,1.76-3.61,3.65-1.5,5.91,2.07,2.21,4.29,.6,6.14-.97,3.33-2.83,6.03-6.24,8.25-9.97,8.39-14.08,21.45-24.04,31.91-36.29,.39-.45,1.03-.68,2.26-1.46,0,2.7-.24,4.81,.05,6.84,.46,3.19,1.58,6.07,4.82,7.67,1.65,.82,4.15-.68,5.09,2.12,1.06,3.16,2.69,6.27,1.92,9.66-1.66,7.24-4.84,14.06-10.65,18.59-14.66,11.45-28.36,24.05-39.03,39.09-9.72,13.7-23.22,22.52-35.68,32.75-9.66,7.93-19.39,15.74-28.5,24.29-5.55,5.21-9.87,11.35-12.88,18.25-4.77,10.93-11.27,20.81-18.37,30.24-6.31,8.39-11.88,17.34-18.36,25.53-14.8,18.69-22.49,40.23-27.15,63.15-3.29,16.15-6.29,32.35-8.22,48.73-.35,2.98-1.06,6.02,2.06,8.1-5.33-3.32-11.34-2.86-17.16-2.79-7.9,.1-15.54-1.14-22.95-3.62-9.71-3.25-19.96-2.48-29.84-4.43-9.75-1.92-19.87-.23-29.58-2.88-1.73-.47-3.56-.29-5.24,.9-1.69,1.2-3.6,1.81-5.3-.18Z"/>
      <path class="cls-3" d="M474.37,163.69c6.59,119.45,50.86,222.02,133.88,308.15-.15,.48-.89,.16-1.42-.03-32.52-11.26-65.87-14.28-100.2-12.55-32.03,1.62-62.74,8.98-93.43,17.06-10.01,2.63-19.1,7.67-27.83,13.11-23.38,14.55-46.94,12.23-69.28-1.02-25.13-14.91-40.75-38.03-49.98-65.55-1.48-4.4-2.75-8.87-4.31-13.24-6.94-19.45-3.78-38.66,1.36-57.8,4.26-15.88,12.65-29.16,25.6-39.39,5.83-4.61,12.83-6.95,19.81-8.97,17.98-5.22,34.48-13.5,50.34-23.3,29.27-18.09,53.24-41.94,75.05-68.22,5.95-7.17,12.29-14.04,18.69-20.82,8.06-8.53,15.83-17.26,21.71-27.42Z"/>
      <path class="cls-1" d="M833.42,365.41c0,35.36-4.11,65.84-16.82,94.63-10.73,24.3-26.41,44.23-51.51,55.17-16.71,7.28-34.14,9.02-52.02,5.96-35.91-6.14-65.39-24.86-92-48.47-46.56-41.33-78.99-92.63-103.33-149.39-16.18-37.73-27.38-76.96-32.65-117.7-5.45-42.14-4.87-83.98,9.52-124.64,9-25.44,23.07-47.23,46.73-61.47,14.29-8.6,30.03-12.13,46.7-11.71,27.14,.69,51.11,10.78,73.66,24.9,33.83,21.19,60.81,49.53,84.04,81.61,42.61,58.82,69.89,124.2,82.51,195.66,3.48,19.68,5.48,39.56,5.16,55.45Z"/>
      <path class="cls-1" d="M282.69,307.69c-8.4,8.53-15.36,16.24-19.99,25.86-6.88,14.28-10.91,29.21-11.21,45.05-.82,43.73,17.32,79.08,49.14,107.76,13.25,11.94,29.16,19.06,47.6,18.85,.66,0,1.33,.11,1.97,.25,.29,.06,.54,.33,1.42,.9-4.86,1.52-9.29,2.91-13.72,4.27-.46,.14-1.25,.36-1.4,.16-4.4-5.78-11.01-3.84-16.68-4.45-10.14-1.1-19.87-3.97-29.82-5.86-2.76-.52-5.25-.48-7.76,.62-16.96,7.42-34.12,14.24-52.26,18.29-9.33,2.09-17.39,7.36-26.23,10.69-3.36,1.27-4.34,4.48-4.84,7.65-.65,4.1-1.07,8.25-1.4,12.39-.37,4.78-2.46,7.07-7.18,6.43-12.54-1.7-24.78-3.81-34.84-12.94-17.55-15.93-33.2-33.11-41.96-55.6-4.03-10.34-4.71-21.37-6.63-32.14-3.6-20.22,4.36-37.65,12.85-55.16,3.98-8.21,9.74-12.98,18.02-16.35,22.63-9.22,43.66-21.76,65.5-32.63,23.53-11.72,45.87-25.48,68.26-39.18,2.54-1.56,5.25-2.86,7.91-4.21,.53-.27,1.21-.26,3.25-.66Z"/>
      <path class="cls-3" d="M281.97,792.25c19.02-8.74,30.37-23.33,40.43-39.09,6.59-10.32,8.36-21.87,7.43-33.93-.24-3.07-1.49-5.74-3.14-8.28-4.71-7.24-9.33-14.53-14.13-21.7-2.58-3.85-3.6-7.37-1.07-11.89,3.79-6.75,4.03-13.88,.61-21.08-3.24-6.82,.79-11.96,4.81-16.61,6.56-7.6,8.39-21.5,3.4-30.45-3.92-7.02-8.34-13.64-15.24-18.19-3.52-2.32-2.68-5.72-2.02-8.98,.4-1.96,1.8-1.51,3.07-.99,4.92,2.03,8.78-.18,11.97-3.49,1.64-1.7,2.16-1.22,3.81-.11,12.94,8.69,15.07,21.45,13.82,35.58-.85,9.6-1.91,19.2-2.5,28.82-1.19,19.35,3.58,37.51,11.76,54.86,2.54,5.38,5.63,10.53,8.71,15.63,1.27,2.1,2.94,4.13,4.88,5.61,7.51,5.7,9.13,13.39,6.89,21.81-6.4,24.11-21.91,41.23-42.72,54.05-1.45,.89-3.08,1.13-4.79,1.08-11.47-.31-22.95-.35-35.98-2.64Z"/>
      <path class="cls-3" d="M179.34,562.54c-12.03,2.09-23.84,2.32-35.21-2.69-6.97-3.07-13.8-6.5-20.87-9.3-13.63-5.4-22.88-15.45-30.8-27.3-11.72-17.56-18.69-36.86-19.12-57.82-.31-14.8,3.43-29.37,9.93-42.84,6.15-12.75,17.44-19.94,30.99-26.56-2.07,4.37-3.49,7.54-5.07,10.65-9.23,18.2-11.28,36.99-8.57,57.42,5.24,39.44,27.76,66.97,57.52,90.34,6.25,4.9,13.86,6,21.19,8.11Z"/>
      <path class="cls-3" d="M252.57,580.56c1.32-2.22,4.41-2.4,5.45-5.25,.69-1.9,2.1-3.49,.55-5.39-1.51-1.85-3.65-1.47-5.55-.78-5.81,2.1-11.61,4.46-16.09,8.81-8.63,8.38-18.56,15.07-28.2,22.59-2.49-3.21-1.91-7.18-2.35-10.78-1.99-16.34-3.57-32.7-.8-49.17,.52-3.11,2.01-4.28,4.54-5.66,14.73-8.05,31.18-10.92,46.92-15.87,7.78-2.45,14.95-6.28,22.5-9.22,2.8-1.09,3.91-1.19,4,2.54,.1,4.05-.77,6.68-4.47,8.86-9.07,5.37-9.64,14.03-7.93,23.22,1.06,5.7,2.38,11.36,3.6,17.04,1.62,7.55,0,10.82-7.21,14.21-4.23,1.98-8.72,3.43-12.47,6.35-1.38,.43-2.62,.6-2.49-1.49Z"/>
      <path class="cls-3" d="M304.47,689.55c5.59,8.73,11.17,17.36,16.66,26.05,2.13,3.37,2.57,7.29,2.14,11.06-.97,8.6-2.78,17.02-7.85,24.36-8.91,12.9-18.05,25.56-32.63,32.81-7.69,3.83-7.61,3.82-9.16-4.51-2.77-14.84-5.89-29.61-10.05-44.13-.79-2.76-.36-4.73,1.2-6.86,9.59-13.12,21.44-24.01,33.83-34.38,1.78-1.49,3.71-2.79,5.86-4.4Z"/>
      <path class="cls-3" d="M281.97,561.58c-1.39-8.08-4.08-15.77-4.4-23.96-.18-4.6,1.24-8.18,5.24-10.48,5.85-3.35,9.53-7.51,7.31-14.93-.94-3.15-.05-4.73,4.07-3.62,10.91,2.94,22.02,5.02,33.37,5.26,2.13,.04,3.06,1.06,3.18,2.98,.5,8.07,1.17,16.16-8.1,20.47-3.21,1.5-5.02,4.74-7.39,7.42-1.86-4.58-5.21-6.23-9.88-6.19-4.36,.04-8.61,.79-12.86,1.49-5.32,.87-7.29,3.87-6.42,9.25,.16,.98,.25,2.04,.69,2.9,2.44,4.8,.7,7.69-4.8,9.41Z"/>
      <path class="cls-1" d="M298.71,562.36c.17-3.7,.66-7.09-3.72-8.69-1.71-.63-1.88-3.54-1.78-5.41,.12-2.28,2.64-1.3,4.03-1.89,1.03-.44,2.27-.4,3.42-.5,7.73-.68,9.98,1.97,8.33,9.63-.19,.89-.53,1.48-1.32,1.91-2.86,1.56-5.7,3.15-8.95,4.96Z"/>
      <path class="cls-1" d="M310.93,566.17c2.52,2.78,4.15,5.29,.73,8.15-1.02,.85-2.17,.84-3.23,.21-1.39-.82-.83-1.91-.25-2.98,.92-1.72,1.78-3.48,2.75-5.38Z"/>
      <path class="cls-8" d="M252.57,580.56c.5,1.05,1.52,1.23,2.49,1.49-2.06,2.09-4.49,3.64-7.05,5.02-.6,.29-1.15,.21-1.64-.24,.99-3.16,3.57-4.74,6.2-6.28Z"/>
      <path class="cls-10" d="M245.54,590.76c-.96,1.62-1.9,3.26-4.32,3.86-.03-2.96,2.26-4.03,3.54-5.72,.63,.46,.61,1.2,.78,1.85Z"/>
      <path class="cls-5" d="M699.53,52.03c2.93,.85,5.27,2.36,6.15,5.5-2.34-1.51-4.38-3.35-6.15-5.5Z"/>
      <path class="cls-11" d="M245.54,590.76c-.26-.62-.52-1.24-.78-1.85,.53-.69,1.07-1.38,1.6-2.07,.55,.08,1.09,.16,1.64,.24,.16,1.88-1.51,2.54-2.46,3.69Z"/>
      <path d="M493.38,181.04c-.26-29.5,3.09-55.93,13.45-81.06,10.1-24.47,25.36-44.55,50.91-54.48,23.12-8.99,46.08-5.94,68.52,3,26.64,10.62,48.65,27.98,68.28,48.45,45.29,47.21,74.48,103.58,92.95,165.82,10.41,35.11,16.03,71.03,15.02,107.72-.85,30.87-5.87,60.91-22.04,87.97-12.56,21.02-30,35.96-54.55,41.01-20.98,4.31-41,.19-60.29-8.26-30.09-13.18-54.34-34.1-75.34-58.77-52.46-61.64-82.93-133.21-94.38-213.07-1.94-13.5-3-27.14-2.52-38.33Z"/>
      <path class="cls-3" d="M795.7,359.33c-.3,32.31-3.9,61.02-17.11,87.69-10.49,21.19-25.63,37.59-49.22,44.27-20.49,5.81-40.24,2.27-59.32-5.91-30.02-12.87-53.84-33.9-75.08-58.17-9.98-11.41-18.89-23.64-27.42-36.17-1.97-2.89-1.31-3.82,1.4-5.36,23.54-13.32,46.64-27.49,70.6-39.99,18.35-9.57,25.35-24.46,25.28-43.84-.09-26.15-9.5-48.86-26.28-68.68-4.76-5.63-10.87-9.74-16.4-14.48-6.35-5.44-13.49-6.37-21.48-4.35-16.58,4.2-32.62,10.17-49.04,14.88-13.54,3.89-27.08,7.78-40.62,11.66-2.55,.73-4.55,.57-5.13-2.71-7.27-41.04-9.1-81.97,2.83-122.55,5.38-18.28,13.91-35.07,27.64-48.36,12.91-12.49,28.83-19.46,47.08-19.92,26.23-.66,48.87,9.59,69.98,23.9,30.39,20.6,54.05,47.74,74,78.18,37.41,57.05,60.32,119.39,66.96,187.46,.82,8.43,.99,16.93,1.29,22.45Z"/>
      <path class="cls-3" d="M630.4,342.38c-18.59,10.62-36.98,21.13-55.37,31.64-3.31,1.89-6.73,3.65-9.89,5.77-2.8,1.88-4.05,1.11-5.7-1.63-18.19-30.28-32.44-62.31-42.68-96.11-2.88-9.51-5.05-19.24-7.77-28.8-.96-3.38,.06-4.57,3.31-5.52,24.61-7.21,49.53-13.34,74.62-22.31-11.87,22.77-9.13,45.09-.95,67,8.22,22.04,20.71,40.9,44.43,49.97Z"/>
      <path class="cls-1" d="M608.91,265.26c-.24-4.26,.49-8.18,1.86-11.95,3.31-9.1,10.74-12.27,19.52-8.21,9.86,4.57,16.16,12.64,20.25,22.34,4.47,10.6,8,21.53,5.16,33.31-2.99,12.39-12.14,16.44-22.91,9.69-13.56-8.5-19.89-21.86-23.09-36.98-.58-2.75-1.16-5.55-.79-8.2Z"/>
      <path class="cls-3" d="M655.62,315.81c-2.62,16.84-15.73,23.84-30,16.65-6.8-3.43-12.39-8.41-17.07-14.31-14.6-18.43-22.25-39.47-22.53-62.99-.09-7.49,1.4-14.88,5.03-21.62,5.21-9.68,13.63-12.82,23.96-8.95,6.99,2.61,12.6,7.14,17.62,12.63-1.37,1.33-2.27,.03-3.22-.17-13.09-2.82-22.88,3.46-26.44,17.03-5.51,21.01,7.58,52.17,26.57,62.83,8.61,4.83,17.3,5.46,26.09-1.09Z"/>
    </g>
  </g>
</svg>