<?xml version="1.0" encoding="UTF-8"?>
<svg id="Layer_2" data-name="Layer 2" xmlns="http://www.w3.org/2000/svg" viewBox="0 0 625.84 653.15">
  <defs>
    <style>
      .cls-1 {
        fill: #010101;
      }

      .cls-2 {
        fill: #6a00ff;
      }

      .cls-3 {
        fill: #fc7600;
      }

      .cls-4 {
        fill: #fdfdfd;
      }
    </style>
  </defs>
  <g id="Layer_1-2" data-name="Layer 1">
    <g>
      <path class="cls-2" d="M617.35,383.06l-440.29,2.53L159.59,15.38S222.13,3.85,249.96,2.27c57.59-3.26,168.07,1.27,249.54,3.08,57.38,1.28,104.42,6.61,104.42,6.61,0,0,10.46,182.13,11.73,244.52,.65,31.78,1.71,126.58,1.71,126.58Z"/>
      <path class="cls-1" d="M0,337.46v-10c5.02-7.48,12.9-8.63,20.9-9.19,34.25-2.4,68.5-.34,102.76,.14,16.62,.23,33.2,1.95,49.84,1.63h7.19c0-.13-.01-.26-.02-.39-2.41,.16-4.82,.31-7.24,.47-1.14-7.93-1.15-8,6.1-8.87,1.64-.2,2.44-.62,2.37-2.35-.08-1.83-.17-3.68,0-5.49,.46-4.85,.02-8.62-6.51-7-2.78,.69-3.06-1.29-2.69-3.24,.36-1.87-1.69-5.37,2.53-5.01,5.77,.49,7.15-2.19,6.09-7.26-.27-1.28-.24-2.68-.05-3.98,.5-3.44-1.09-4.59-4.23-4-4.83,.91-4.76-2.18-4.98-5.55-.28-4.44,2.99-2.76,4.72-2.69,3.35,.13,5.11-.53,4.17-4.31-.24-.95-.2-2-.1-2.99,.5-4.61-.99-6.89-6.08-5.77-4.63,1.02-2.77-2.78-3.27-4.77-.7-2.79,.33-3.87,3.27-3.73,1.68,.08,4.43,1.06,4.97-.85,1-3.49,.69-7.46-.62-10.76-.8-2.01-3.96-.8-5.9-.41-2.85,.57-3.23-.44-3.38-2.97-.27-4.43,1.45-6.29,5.87-5.93,1.16,.1,3.13,.58,3.13-1.39,0-2.98,.06-6.21-1.06-8.84-.7-1.65-3.72-.61-5.58-.37-4.13,.52-2.96-2.38-3.17-4.4-.22-2.12-.84-4.45,2.84-4.04,4.54,.5,6.84-1.22,5.37-6.14-.18-.62-.17-1.34-.06-1.99,.65-4.06-.95-5.27-4.9-4.35-2.77,.64-5.17,.45-5.45-3.59-.26-3.7,.88-5.12,4.56-4.86,3.7,.26,5.53-1.39,4.74-5.31-.23-1.14-.32-2.32-.29-3.48,.09-3.9-.86-6.28-5.62-5.04-1.19,.31-4.35,1.6-4.06-1.47,.22-2.29-2.55-6.63,3.37-6.79,1.43-.04,5.3,.87,5.14-2.98-.17-4.07-.6-8.13-.92-12.26-2.32,.58-4.24,1.14-6.2,1.51-.85,.16-1.83,.68-2.56-.56-1.69-2.88,.05-7.72,3.42-8.34,4.2-.78,5.42-3.08,4.72-6.98-.23-1.3-.39-2.67-.28-3.98,.38-4.56-1.57-5.81-5.87-4.76-1.22,.3-4.21,2.21-3.89-1.31,.23-2.5-2.22-7.09,3.27-7.02,5.42,.06,6.22-2.76,5.33-7.14-.23-1.14-.48-2.33-.36-3.47,.4-4.02-.75-5.85-5.15-4.45-1.75,.56-4.34,1.2-4.01-2.23,.22-2.32-2.16-6.21,2.84-6.16,5.27,.05,6.62-2.43,5.28-7.11-.04-.16-.05-.34-.03-.5,.71-4.85-.8-7.18-6.08-5.54-1.15,.36-2.5,.74-3.08-1.29-1.25-4.33,.03-6.93,4.37-7.29,3.6-.29,5.05-1.65,4.15-5.27-.69-2.76,1.11-7.4-4.73-6.12-4.75,1.04-4.25-2.17-4.64-5.21-.53-4.11,2.4-3.51,4.35-3.26,5.71,.74,4.43-3.14,4.56-6.26,.21-5.04-3.35-2.47-5.14-2.28-3.36,.36-4.57-.68-3.99-3.96,.17-.98,.15-1.99,.22-2.99,4.41-2.06,9.1-1.5,13.66-1.14,5,.39,7.36-1.77,8.21-6.45,.84-4.66,.64-9.21-.87-13.7,2.9-1.19,5.21-1.48,4.67,2.9-.52,4.23,1.15,5.66,5.25,4.16,1.23-.45,2.61-.78,3.91-.75,4.7,.12,6.18-2.01,4.95-6.43-1.09-3.93,1.85-3.6,4.28-4.15,3.13-.71,4.12,.46,4.27,3.42,.08,1.58-.43,4.35,.92,4.59,2.51,.45,5.3-.14,7.86-.75,1.99-.48,1.05-2.5,1.18-3.87,.11-1.15-.2-2.37,.04-3.49,.8-3.65,4.13-1.5,6.15-2.49,1.58-.77,2.18,.28,2.42,1.94,.97,6.6,1.03,6.59,7.88,5.95,.83-.08,1.66-.14,2.49-.24q8.02-.91,6.16-9.05c-.04-.16-.12-.31-.24-.62,2.19-.16,4.35-.25,6.48-.48,1.86-.2,3.05,.44,2.8,2.39-.81,6.2,2.54,6.8,7.39,5.8,1.94-.4,4.03-.79,5.95-.51,4.61,.68,4.25-1.98,3.9-5.01-.17-1.45-3.29-4.21,.98-4.07,2.57,.08,7.44-3.51,7.44,3.31,0,1.62-.5,4.61,1.34,4.82,4.08,.45,8.41,.44,12.37-.51,1.84-.45,.78-3.85,.77-5.89-.01-3.59,2.57-2.32,4.23-2.36,1.71-.04,4.68-1.03,4.05,2.42-1.14,6.27,2.37,6.76,7.06,6.27,1.48-.16,3.03-.18,4.49,.06,3.55,.59,4.86-.64,4.13-4.25-.46-2.25-1.11-4.82,2.9-4.46,2.81,.26,6.47-.96,5.45,4.19-.85,4.31,1.44,5.57,5.26,5.33,.99-.06,2.01-.09,2.99,.05,4.34,.62,7.2-.25,6.14-5.59-.59-2.96,1.28-3.46,3.52-2.96,1.84,.41,5.62-1.63,4.92,2.55-1.11,6.73,2.75,6.95,7.51,6.66,1.49-.09,3.05-.16,4.48,.16,4.74,1.06,6.26-.86,5.54-5.41-.23-1.44-.88-3.94,1.96-3.27,2.27,.53,6.75-1.84,6.34,2.97-.5,5.86,2.48,6.5,6.97,6.22,1.65-.1,3.34,.02,4.98,.28,4.29,.68,6.71-.47,5.77-5.37-.56-2.91,.81-3.94,3.57-3.44,2.09,.38,5.73-1.27,4.94,3.18-1.02,5.71,1.81,6.71,6.56,6.07,1.8-.24,3.69-.19,5.48,.08,3.54,.54,5.01-.86,4.38-4.32-.86-4.73,2.14-4.24,5.29-4.45,4.38-.28,3.58,2.5,3.15,4.81-.64,3.45,.39,4.99,3.99,4.62,.98-.1,2,.04,2.98,.17,4.63,.64,7.71-.25,7.06-6.02-.49-4.33,3.01-2.22,4.85-2.54,2.28-.4,4.02,.19,3.38,3.12-1.15,5.18,1.66,6.29,6.02,6,1.65-.11,3.37-.16,4.98,.17,4.29,.87,6.48-.3,5.97-5.11-.43-4.14,2.34-3.56,5.17-3.53,3.34,.04,3.78,1.49,3.43,4.31-.18,1.45-1.67,3.91,.47,4.39,3.52,.78,7.36,1.17,10.87,.57,2.5-.42,1.45-3.71,1.51-5.65,.14-4.44,3.23-2.58,5.32-2.85,2.55-.33,3.87,.73,3.16,3.38-1.48,5.59,1.57,6.36,5.99,5.84,.82-.1,1.7-.14,2.49,.06,4.32,1.1,6.21-.6,5.73-4.94-.41-3.71,1.69-3.85,4.54-3.71,2.93,.14,4.58,.71,4.03,4.24-.25,1.59-1.49,4.48,.44,4.92,3.32,.77,7.02,.76,10.39,.13,2.34-.43,1.41-3.44,1.46-5.19,.14-4.7,3.45-2.77,5.71-3.12,3.08-.48,3.39,1.46,2.84,3.59-1.31,5.03,1.21,6.04,5.44,5.66,1.14-.1,2.33,.11,3.48,.27,2.94,.4,4.9-.21,4.3-3.81-.87-5.13,2.68-4.35,5.82-4.48,4.83-.21,2.42,3.11,2.62,5.1,.17,1.62-1.17,3.55,1.85,4.19,9.26,1.97,10.1,1.47,10.97-7.9,1.8,.19,3.59,.39,5.39,.58-.03,4.64-.16,9.29-.07,13.93,.06,3.4,1.85,5.11,5.4,4.96,6.46-.29,12.93-.46,19.39-.69,.92,3.19,.91,5.4-3.61,5.06-1.18-.09-3.77-.18-4.36,2.22-1.14,4.63,.97,7.8,5.76,7.52,5.92-.34,3.87,4.55,4.32,6.83,.72,3.69-2.82,1.6-4.2,1.51-3.46-.23-5.09,.54-4.06,4.31,.3,1.11,.44,2.33,.32,3.47-.5,4.9,1,7.42,6.54,6.67,5.1-.69,2.71,3.85,3.39,5.97,1.07,3.33-1.93,1.96-3.37,2.25-1.73,.35-4.79-.86-5.02,.7-.49,3.37-.18,7.07,.77,10.36,.62,2.13,3.54,1.09,5.29,.88,4.32-.52,3.67,2.27,4.03,4.92,.49,3.66-1.6,3.68-4.11,3.52-2.67-.18-5-.24-4.5,3.75,.4,3.21,.46,5.95,5.03,4.73,5.5-1.47,4.52,3,4.96,5.93,.63,4.21-2.75,2.44-4.32,2.44-3.38,0-4.87,.89-4.22,4.59,.54,3.09,.65,6.29,.65,9.44,0,3.45,1.12,5.52,4.93,4.78,6.41-1.24,4.29,4.27,4.66,6.69,.52,3.44-2.98,1.62-4.36,1.52-3.81-.28-4.48,1.25-3.99,4.59,.48,3.28,.9,6.68,.57,9.94-.45,4.4,1.23,6.06,5.42,5.79,.82-.05,1.74-.09,2.47,.21,3.35,1.33,1.18,4.25,1.68,6.4,.42,1.81-.81,2.42-2.38,1.96-6.45-1.9-6.66,1.87-6.12,6.53,.19,1.64,.12,3.33,.05,4.99-.2,4.59,.82,7.72,6.51,6.16,2.43-.66,3.53,.76,2.92,2.99-.52,1.93,2.12,5.94-2.48,5.41-5.83-.67-6.73,2.05-6.02,6.79,.22,1.47,.04,2.99,.04,4.49,0,7.16,0,7.22,7.21,8.22,3.96,.55,1.82,3.54,2.25,5.43,.37,1.65,.22,3.72-2.33,3.09-6.9-1.68-7.24,2.07-6.33,7.2,.29,1.62,.21,3.33,.1,4.98-.33,4.69-.25,8.41,6.5,7.48,4.19-.58,1.96,3.6,2.58,5.59,.66,2.13-.58,2.73-2.68,2.85-6.54,.37-6.54,.47-6.27,7.11,.08,1.99,.41,4,.26,5.98-.2,2.68,.84,3.63,3.42,3.32,1.15-.14,2.33,.01,3.49-.02,3.62-.11,2.23,2.66,2.22,4.26-.01,1.59,1.43,4.04-2.17,4.36-6.89,.62-6.88,.81-6.66,7.82,.05,1.5,.3,3.02,.13,4.49-.56,4.83,.3,7.9,6.37,7.14,4.22-.53,2.02,3.18,2.41,5.02,.37,1.78,.35,4.11-2.53,3.39-5.82-1.45-6.74,1.41-6.08,6.23,.29,2.13,.25,4.34,.03,6.48-.37,3.65,.53,5.73,4.75,5.18,5.54-.72,3.87,3.63,4.08,6.33,.33,4.16-2.91,2.26-4.5,2.04-3.22-.44-4.76,.26-4.28,3.79,.2,1.47,.18,3.01,0,4.49-.45,3.74,.92,5.71,4.87,5.4,5.7-.44,4.9,3.68,4.59,6.98-.4,4.24-3.52,1.24-5.35,1.58-1.38,.25-4.03-1.34-3.29,1.66,.62,2.47-2.46,7.46,2.93,7.15,5.46-.32,6.65,1.75,5.85,6.4-3.62-.09-7.23-.23-10.85-.27-8.28-.09-9.3,.87-9.93,9.14-3.05,.5-1.13,2.86-1.61,4.32-.53,1.61,1.68,4.84-2.57,4.21-2.62-.39-6.68,1.26-5.94-3.91,.75-5.27-2.19-6.04-6.32-5.69-.66,.06-1.33,.04-2,0-5.22-.3-10.42-1.21-10.31,7.06,.04,2.79-3.82,1.01-5.86,1.42-2.16,.43-2.65-1.03-2.21-2.71,1.5-5.69-.97-7.33-6.26-6.52-1.28,.2-2.69,.04-3.97-.25-4.65-1.05-6.54,1.65-6.28,5.46,.28,4.21-2,3.38-4.53,3.51-3.46,.18-4.05-1.69-3.48-4.3,.94-4.34-1.25-5.12-4.81-4.69-.82,.1-1.68,.11-2.49-.02-4.76-.73-7.75,.34-6.56,6.07,.51,2.46-1.13,2.95-2.94,2.51-1.88-.46-5.68,1.84-5.26-2.2,.74-7.09-3.43-6.77-8.15-6.44-2.49,.17-5.02,.28-7.49,0-3.71-.41-4.67,1.19-4.15,4.55,.29,1.92,1.45,4.54-2.46,4.25-2.75-.2-6.2,1.26-6.01-3.84,.06-1.5,1.01-4.36-1.48-4.64-3.77-.41-7.83-.65-11.39,.37-2.41,.69-.92,4.16-.88,6.32,.05,3.01-1.84,2.86-3.58,2.54-1.73-.32-5.23,1.7-4.78-2.15,.8-6.77-2.81-7.19-7.86-6.4-1.47,.23-3.03,.31-4.49,.06-4.84-.82-5.76,1.48-4.82,5.59,.4,1.77,.89,4.06-2.15,3.52-2.24-.4-6.46,2.41-6.2-2.79,.29-5.69-2.41-6.76-7.19-5.74-1.29,.27-2.69,.46-3.98,.28-4.75-.67-6.81,.84-6.5,6.05,.3,4.87-4.06,2.49-6.35,3.04-2.91,.69-2.27-1.91-1.97-3.18,1.37-5.91-2.05-6.17-6.31-5.65-.66,.08-1.35,.26-1.99,.16-4.89-.76-7.13,.94-6.11,6.14,.21,1.09,.74,2.56-1.3,3.15-4.62,1.34-7.37-.29-7.21-5.04,.11-3.19-.85-4-3.94-3.7-3.63,.35-7.34,.38-10.98,.12-4.2-.31-6.7,.47-5.29,5.46,.59,2.08,.11,3.87-2.57,3.28-2.09-.45-6.02,2.27-5.8-2.7,.24-5.45-2.48-6.73-7.24-5.97-1.62,.26-3.36,.27-4.98,0-4.65-.77-6.34,1.18-5.4,5.61,.56,2.67-.43,3.85-3.07,3.31-2.02-.41-5.88,1.65-5.25-2.85,.82-5.88-2.15-6.67-6.81-6.07-1.31,.17-2.68,.16-3.99-.02-3.16-.42-4.56,.53-4.02,4,.3,1.93,1.78,4.89-2.57,4.71-3.2-.13-6.49,.49-5.83-4.54,.44-3.35-1.16-4.85-4.61-4.32-.97,.15-2.02,.05-2.98-.16-4.59-1-6.48,.73-5.63,5.38,.53,2.9-.84,3.42-3.55,3.62-3.99,.29-5.57-1.16-5.01-4.96,.51-3.48-.84-4.87-4.3-4.49-1.14,.12-2.32-.14-3.49-.16-7.11-.15-7.15-.15-8.64,6.94-.83,3.94-3.69,1.45-5.59,1.79-1.78,.32-3.5-.19-2.82-2.66,1.55-5.63-1.22-6.84-6.07-6.17-1.31,.18-2.69,.17-3.99-.03-4.11-.63-6.35,.54-5.71,5.18,.63,4.55-2.77,3.19-5.18,3.49-3.25,.4-3.56-1.39-3.28-3.86,.09-.82,.05-1.66,.04-2.5,0-.85-.07-1.66-1.26-1.65-1.27,.01-1.11,.96-1.14,1.72-.09,2.66-.07,5.32-.18,7.98-.94,22.14-1.47,44.29-.32,66.43,1.45,28.09,3.36,56.15,5.05,84.22,.45,7.53-1.59,9.98-8.98,10.9-1.65,.21-3.32,.21-4.98,.34-12.17,.97-24.3-.36-36.44-.67-33.51-.84-66.87,2.88-100.33,3.27-24.48,.28-48.94,.36-73.28-3.09-11.82-1.68-15.7-2.12-15.38-18.05,.56-27.96,1.1-55.91,2.73-83.82,2.03-34.69,.98-69.22-3.69-103.64-.18-1.3,.5-3.12-1.41-3.87Zm123.07-10.11c-20.3-.45-42.77-1.27-65.25-1.32-13.47-.03-26.99,.07-40.41,1.73-7.98,.98-8.22,1.39-7.4,9.25,.17,1.65,.2,3.33,.43,4.97,4.82,34.42,5.86,68.96,3.57,103.62-1.93,29.06-2.3,58.16-2.15,87.27,.02,3.11,.84,4.19,4.02,4.68,28.8,4.4,57.77,4.02,86.74,3.2,27.29-.78,54.51-3.41,81.85-2.8,14.65,.33,29.31,.11,43.96,.36,3.65,.06,4.48-1.35,4.26-4.68-1.16-17.77-1.87-35.58-3.31-53.32-2.77-34.1-2.11-68.21-.99-102.33,.47-14.29,2.36-28.55,.44-42.89-.53-3.96-1.76-5.54-6.2-5.46-32.48,.56-64.93-.87-99.56-2.26Zm352.64-25.87c16.16,0,32.32,0,48.48,0,1.62,0,3.44,.38,3.42-2.31,0-2.16,.02-4.06-2.9-4.09-.99-.01-1.97-.33-2.96-.46-10.8-1.46-19.42-6.32-25.42-15.68-4.96-7.74-8.88-15.98-12.42-24.42-30-71.55-59.99-143.1-89.93-214.67-1.09-2.6-1.92-4.37-5.45-4.46-3.75-.1-4.37,2.15-5.41,4.57-25.92,60.65-51.77,121.32-77.8,181.92-7.67,17.85-14.61,36.02-23.93,53.16-6,11.03-14.38,18.13-27.05,19.5-3.22,.35-3.54,2.1-3.45,4.76,.11,3.25,2.43,2.14,3.95,2.15,24.66,.06,49.31,.06,73.97,0,1.68,0,4.05,1.13,4.28-2.38,.21-3.23-1.24-4-3.95-4.19-5.48-.4-10.91-1.14-16.08-3.18-7.89-3.11-11.34-9.2-9.55-17.37,.92-4.21,1.91-8.47,3.54-12.44,6.13-14.9,12.59-29.67,18.81-44.54,.93-2.21,2.24-2.8,4.52-2.79,31.32,.07,62.64,.07,93.96,0,2.55,0,3.77,.78,4.74,3.18,4.58,11.41,9.37,22.73,14.1,34.08,3.14,7.52,5.93,15.16,7.41,23.21,1.54,8.39-2.11,14.63-10.14,17.66-3.95,1.49-8.08,1.87-12.2,2.35-2.3,.27-4.05,.44-3.99,3.64,.08,3.74,2.53,2.79,4.48,2.79,15.66,.04,31.32,.02,46.98,.02Z"/>
      <path class="cls-2" d="M617.13,366.39c5.57,.79,7.69,4.32,7.69,9.6,0,.9-.23,2.03,1.03,2.46v8c-4.91,6.6-12.23,6.71-19.27,6.59-8.81-.14-9.3-1.01-9.72-9.85-.13-2.65-.33-5.29-.5-7.93,.63-8.27,1.65-9.23,9.93-9.14,3.62,.04,7.23,.18,10.85,.27Z"/>
      <path class="cls-4" d="M123.07,327.35c34.63,1.39,67.08,2.82,99.56,2.26,4.44-.08,5.67,1.5,6.2,5.46,1.92,14.34,.03,28.6-.44,42.89-1.12,34.12-1.77,68.23,.99,102.33,1.44,17.75,2.15,35.55,3.31,53.32,.22,3.33-.61,4.74-4.26,4.68-14.65-.24-29.31-.03-43.96-.36-27.34-.61-54.56,2.03-81.85,2.8-28.97,.82-57.94,1.21-86.74-3.2-3.18-.49-4-1.57-4.02-4.68-.15-29.11,.22-58.21,2.15-87.27,2.3-34.67,1.26-69.21-3.57-103.62-.23-1.65-.26-3.32-.43-4.97-.83-7.86-.59-8.26,7.4-9.25,13.42-1.65,26.94-1.76,40.41-1.73,22.48,.05,44.96,.87,65.25,1.32Zm56.17,39.62c-46.03,46.85-92.06,93.7-138.87,141.35,.34-5.1,.64-8.74,.79-12.38,.12-2.93-.71-5.37-4.16-5.7-3.42-.32-4.26,2.15-4.54,4.74-.65,6.12-1.17,12.25-1.62,18.39-.48,6.6,1.44,8.75,8.16,8.97,5.99,.19,11.99,.03,17.97,.25,3.06,.11,5.57-.59,5.89-3.86,.36-3.61-2.44-4.89-5.43-5.2-2.7-.28-5.45-.06-9.4-.06,46.76-47.6,92.55-94.2,138.42-140.9,1.36,1.87,1.02,3.58,1.14,5.17,.94,11.77,1.81,23.55,2.72,35.33,.26,3.32,1.48,6.05,5.36,5.78,3.41-.24,4.22-2.92,3.98-5.8-.91-10.93-1.73-21.88-3.01-32.77-.7-5.95,.02-11.98-1.45-17.88-1.12-4.48-3.63-6.49-8.22-6.02-15.1,1.54-30.26,.99-45.4,1.15-1.64,.02-3.3,.28-4.91,.61-2.11,.44-2.94,1.95-2.93,4.04,.01,2.17,1.25,3.47,3.16,3.95,1.42,.36,2.96,.31,4.45,.31,12.45-.05,24.91,.34,37.88,.55Z"/>
      <path class="cls-2" d="M475.71,301.48c-15.66,0-31.32,.02-46.98-.02-1.95,0-4.41,.95-4.48-2.79-.06-3.2,1.69-3.37,3.99-3.64,4.12-.48,8.25-.86,12.2-2.35,8.02-3.03,11.68-9.28,10.14-17.66-1.48-8.05-4.27-15.69-7.41-23.21-4.73-11.35-9.52-22.67-14.1-34.08-.96-2.41-2.19-3.19-4.74-3.18-31.32,.08-62.64,.08-93.96,0-2.28,0-3.59,.58-4.52,2.79-6.22,14.87-12.67,29.64-18.81,44.54-1.63,3.96-2.62,8.23-3.54,12.44-1.79,8.17,1.66,14.26,9.55,17.37,5.16,2.04,10.6,2.78,16.08,3.18,2.71,.2,4.16,.96,3.95,4.19-.23,3.52-2.6,2.38-4.28,2.38-24.66,.06-49.31,.06-73.97,0-1.52,0-3.84,1.1-3.95-2.15-.09-2.65,.23-4.41,3.45-4.76,12.67-1.37,21.05-8.47,27.05-19.5,9.33-17.14,16.27-35.31,23.93-53.16,26.03-60.6,51.89-121.28,77.8-181.92,1.04-2.42,1.65-4.67,5.41-4.57,3.52,.09,4.36,1.86,5.45,4.46,29.94,71.57,59.92,143.13,89.93,214.67,3.54,8.44,7.47,16.67,12.42,24.42,5.99,9.36,14.62,14.22,25.42,15.68,.99,.13,1.97,.45,2.96,.46,2.93,.04,2.89,1.93,2.9,4.09,.01,2.68-1.8,2.3-3.42,2.31-16.16,0-32.32,0-48.48,0Zm-53.63-100.97c-14.6-34.82-29.04-69.24-43.86-104.58-2.55,5.88-4.66,10.73-6.75,15.59-12.17,28.22-24.36,56.43-36.44,84.69-.62,1.46-3.79,4.35,1.49,4.34,28.31-.08,56.61-.04,85.56-.04Z"/>
      <path class="cls-2" d="M577.63,10.5c1.81-3.66,4.83-5.23,8.84-5.25,4.47-.02,8.94-.23,13.4-.19,1.79,.02,3.6,.3,5.04,1.7,4.47,4.36,2.79,18.94-2.56,21.94-6.46,.22-12.93,.4-19.39,.69-3.55,.16-5.34-1.56-5.4-4.96-.09-4.64,.04-9.29,.07-13.93Z"/>
      <path class="cls-2" d="M160.29,32.9c-3.32-.68-4.62-2.83-4.6-6.08,.03-3.81-.04-7.62-.09-11.43-.06-3.77,2-6.24,5.46-6.58,6.9-.66,13.86-.71,20.24,2.81,1.51,4.49,1.71,9.03,.87,13.7-.85,4.68-3.21,6.84-8.21,6.45-4.56-.36-9.25-.92-13.66,1.14Z"/>
      <path class="cls-3" d="M173.5,320.04s-.07,.08-.07,.07c2.42-.16,4.83-.31,7.24-.47,0,.13,.01,.26,.02,.39h-7.19Z"/>
      <path class="cls-1" d="M434.29,568.25c-13.14-14.15-21.82-31.01-29.21-48.59-2.24-5.33-2.01-11.06,.45-17.12-6.71,.45-12.78,.29-17.57-4.5-4.66-4.67-5.64-10.68-6.24-16.72-1.81-.58-1.73,.83-2.1,1.59-6.24,12.73-15.82,17.52-29.79,14.88-.96-.18-1.94-.26-2.92-.39-.18-.2-.49-.59-.51-.58-.48,.36-.41,.75,.02,1.12,1.98,3.93,4.99,7.02,8.18,9.97,7.87,7.27,10.36,20.11,5.66,29.77-2.11,4.34-4.33,8.65-6.81,12.78-8.03,13.38-18.02,17.56-34.3,15.46-24.81-3.2-39.63-23.67-37.92-49.67,.67-10.11,2.47-19.67,8.57-28.23,7.26-10.19,14.46-20,29.35-18.22-5.13-19.49-.03-36.37,10.16-51.93,10.46-15.96,28.98-16.04,40.08-.56,3.57,4.98,6.97,10.09,10.02,16.56,1.52-6.41,3.01-11.89,6.03-16.79,4.29-6.97,9.76-9.41,17.76-7.78,.82,.17,1.63,.33,2.44,.54,26.85,7.22,35.96,19.71,36.72,49.76,.17,6.55-1.67,12.46-4,18.36-.09,.38-.36,1.01-.24,1.09,.48,.34,.76-.01,.87-.51,1.7-.62,3.38-1.29,5.1-1.87,6.41-2.16,10.47-1.33,14.64,4.04,14.7,18.96,21.45,40.43,18.59,64.39-1.57,13.17-13.88,24.03-27.51,25.44-5.26-.11-10.64,.49-15.52-2.29Zm-108.41-9.09c9.91,.4,15-3.14,19.03-8.33,4.2-5.41,7.52-11.51,9.73-17.89,2.23-6.45,1.84-13.47-3.41-18.6-5.41-5.29-9.84-11.22-14.13-17.35-4.48-6.4-9.23-12.63-14.66-18.26-4.2-4.36-10.99-3-13.33,2.49-.84,1.98-1.56,4.05-2.02,6.15-3.12,14.09-8.21,27.34-16.66,39.15-1.26,1.76-1.73,3.41-1.13,5.55,3.08,11,9.18,19.85,19.97,23.97,6.07,2.32,12.96,2.48,16.63,3.12Zm61.8-129.95c-.59,2.22-.78,2.82-.9,3.43-3.65,18.57,.08,36.79,3.12,54.94,1.34,8.01,9.94,10.76,17.46,6.63,3.65-2.01,7.09-4.44,10.88-6.1,5.12-2.25,8.8-5.91,11.88-10.35,4.43-6.38,4.37-7.31-2.87-9.51-9.49-2.89-15.47-8.77-17.95-18.29-1.21-4.64-4.29-7.28-8.7-8.81-5.46-1.89-10.33-4.62-12.92-11.94Zm58.81,55.01c-.29-.49-.58-.98-.86-1.47-8.84,7.6-20.62,9.83-29.49,17.26-5.37,4.5-7.15,10.59-4.61,17.15,5.42,14.03,12.87,27,21.45,39.35,8.9,12.8,25.73,7.34,33.1-3.41-8.5,3.14-13.8-.46-17.9-7.05-1.45-2.34-3.97-3.53-6.51-4.41-5.34-1.87-7.77-5.99-8.75-11.2-.69-3.7,.07-7.32,1.25-10.8,1.7-5,2.18-9.9,1.01-15.18-1.45-6.56,.81-12.14,6.17-16.33,1.69-1.32,3.41-2.61,5.12-3.91Zm-116.41-14.02c4.87,7.37,9.86,13.69,16.68,18.39,8.45,5.82,20.64,3.27,25.27-5.83,5.59-10.99,5.4-22.79,3.82-34.65-.15-1.1-.5-2.85-2.07-1.58-6.07,4.92-14.17,7.21-18.95,13.65-6.21,8.36-12.86,14.75-24.75,10.02Z"/>
      <path class="cls-1" d="M437.4,572.75c8.12,5.35,13.17,13.07,16.35,22,5.08,14.27,7,28.69,1.54,43.42-4.45,12.01-14.72,17.62-26.99,13.79-10.36-3.23-20.84-5.83-31.54-7.35-13.78-1.96-27.44,.14-41.09,1.96-1.65,.22-3.3,.45-4.94,.73-25.24,4.25-35.47-13.56-36.75-31.01-1.15-15.59,3.07-29.35,16.39-39.12,5.37-3.94,10.44-8.3,15.99-11.95,7.81-5.14,14.01-11.49,18.77-19.61,6.84-11.68,22.17-18.23,34.22-15.53,5.47,1.23,9.36,4.18,11.56,9.28,1.32,3.05,2.72,6.11,3.59,9.3,2.79,10.25,9.8,16.68,18.79,21.39,1.36,.89,2.74,1.79,4.11,2.7Zm13.54,42.71c-2.73,4.41-4.46,9.33-9.03,12.28-9.43,6.09-19.2,6.25-28.06-.19-6.57-4.78-13.44-6.61-21.21-7.26-7-.58-10.94-4.45-12.13-11.19-.62-3.48-1.99-6.13-4.83-8.34-5.89-4.59-9.31-10.35-7.62-18.24,.26-1.24,.22-2.79-.31-3.9-2.82-5.94-3.9-12.14-2.79-19.73-9.38,9.29-19.79,15.32-29.23,22.64-14.59,11.31-17.66,25.89-13.28,42.77,3.17,12.2,12.33,18.08,24.78,16.54,2.8-.35,5.6-.81,8.41-1.11,16.68-1.79,33.31-4.12,50.11-.56,8.48,1.8,16.87,3.8,25.11,6.43,5.68,1.82,11.21,.59,14.56-3.84,5.77-7.66,7.05-16.79,5.52-26.31Z"/>
      <path class="cls-2" d="M527.75,446.18c-.15,2.98-2.34,3.6-4.45,4.07-12.53,2.79-20.07,11.73-20.41,24.46-.07,2.46-.09,5-3.08,5.4-3.42,.45-3.8-2.34-4.36-4.85-.72-3.24-1.55-6.45-2.44-9.64-2.38-8.57-7.25-12.79-16.14-13.82-2.72-.32-5.87-.16-5.6-3.94,.21-2.92,2.29-4.22,5.52-4.52,10.59-1,17.13-7.34,19.91-19.08,.61-2.56,1.18-4.68,4.2-4.29,2.76,.35,2.93,2.57,3,4.91,.35,11.43,5.47,16.68,17.08,17.8,2.72,.26,5.84-.02,6.77,3.5Z"/>
      <path class="cls-2" d="M541.72,458.49c2.64,.37,3.7,2.27,3.73,4.25,.13,7.52,3.22,11.84,11.25,12,1.94,.04,3.87,1.42,3.75,3.91-.11,2.27-1.98,2.78-3.79,3.33-8.42,2.52-10,4.74-9.91,13.87,.02,2.14-.31,4.12-2.75,4.67-2.72,.61-4.11-1.07-4.5-3.45-1.32-7.99-5.72-12.42-14.01-12.63-2.18-.06-3.33-1.39-3.62-3.42-.32-2.21,.4-3.94,2.72-4.67,1.27-.4,2.54-.79,3.81-1.17,5.87-1.78,9.22-5.54,9.55-11.83,.13-2.46,1-4.57,3.77-4.85Z"/>
      <path class="cls-2" d="M179.24,366.97c-12.97-.21-25.43-.6-37.88-.55-1.49,0-3.03,.05-4.45-.31-1.91-.48-3.15-1.78-3.16-3.95-.01-2.08,.82-3.59,2.93-4.04,1.61-.34,3.27-.59,4.91-.61,15.14-.16,30.3,.39,45.4-1.15,4.59-.47,7.11,1.54,8.22,6.02,1.47,5.9,.75,11.93,1.45,17.88,1.28,10.89,2.1,21.84,3.01,32.77,.24,2.88-.57,5.56-3.98,5.8-3.88,.27-5.1-2.46-5.36-5.78-.92-11.77-1.78-23.55-2.72-35.33-.13-1.59,.21-3.3-1.14-5.17-45.88,46.7-91.66,93.3-138.42,140.9,3.95,0,6.7-.22,9.4,.06,2.99,.31,5.79,1.59,5.43,5.2-.33,3.27-2.84,3.98-5.89,3.86-5.99-.22-11.99-.06-17.97-.25-6.72-.22-8.64-2.37-8.16-8.97,.45-6.14,.97-12.27,1.62-18.39,.28-2.59,1.12-5.06,4.54-4.74,3.45,.33,4.28,2.77,4.16,5.7-.15,3.64-.46,7.28-.79,12.38,46.81-47.65,92.84-94.5,138.87-141.35Z"/>
      <path class="cls-1" d="M422.08,200.51c-28.95,0-57.26-.04-85.56,.04-5.28,.01-2.11-2.88-1.49-4.34,12.08-28.26,24.27-56.47,36.44-84.69,2.1-4.86,4.21-9.71,6.75-15.59,14.82,35.34,29.25,69.76,43.86,104.58Z"/>
      <path class="cls-2" d="M325.88,559.16c-3.67-.64-10.56-.81-16.63-3.12-10.79-4.12-16.89-12.98-19.97-23.97-.6-2.13-.13-3.78,1.13-5.55,8.45-11.81,13.54-25.06,16.66-39.15,.46-2.1,1.18-4.17,2.02-6.15,2.34-5.49,9.13-6.84,13.33-2.49,5.43,5.63,10.18,11.86,14.66,18.26,4.3,6.13,8.73,12.06,14.13,17.35,5.25,5.13,5.64,12.14,3.41,18.6-2.2,6.38-5.53,12.48-9.73,17.89-4.03,5.19-9.12,8.73-19.03,8.33Z"/>
      <path class="cls-2" d="M387.68,429.21c2.59,7.32,7.46,10.05,12.92,11.94,4.41,1.53,7.49,4.18,8.7,8.81,2.48,9.52,8.46,15.4,17.95,18.29,7.24,2.2,7.3,3.13,2.87,9.51-3.08,4.43-6.76,8.1-11.88,10.35-3.79,1.66-7.23,4.1-10.88,6.1-7.52,4.14-16.12,1.38-17.46-6.63-3.04-18.15-6.77-36.37-3.12-54.94,.12-.61,.31-1.21,.9-3.43Z"/>
      <path class="cls-2" d="M446.49,484.22c-1.71,1.3-3.42,2.59-5.12,3.91-5.36,4.19-7.62,9.76-6.17,16.33,1.16,5.28,.69,10.18-1.01,15.18-1.18,3.48-1.94,7.1-1.25,10.8,.97,5.21,3.4,9.33,8.75,11.2,2.54,.89,5.05,2.08,6.51,4.41,4.1,6.59,9.4,10.19,17.9,7.05-7.38,10.75-24.21,16.21-33.1,3.41-8.58-12.35-16.03-25.32-21.45-39.35-2.54-6.56-.76-12.65,4.61-17.15,8.87-7.44,20.65-9.66,29.49-17.26,.29,.49,.58,.98,.86,1.47Z"/>
      <path class="cls-2" d="M330.08,470.2c11.89,4.73,18.54-1.66,24.75-10.02,4.78-6.44,12.88-8.73,18.95-13.65,1.57-1.27,1.92,.48,2.07,1.58,1.59,11.86,1.77,23.66-3.82,34.65-4.63,9.11-16.82,11.66-25.27,5.83-6.82-4.7-11.81-11.02-16.68-18.39Z"/>
      <path class="cls-2" d="M450.94,615.46c1.53,9.52,.25,18.65-5.52,26.31-3.34,4.44-8.88,5.66-14.56,3.84-8.25-2.63-16.64-4.63-25.11-6.43-16.8-3.57-33.43-1.24-50.11,.56-2.81,.3-5.6,.77-8.41,1.11-12.45,1.54-21.61-4.34-24.78-16.54-4.39-16.88-1.32-31.46,13.28-42.77,9.44-7.32,19.85-13.35,29.23-22.64-1.11,7.59-.03,13.79,2.79,19.73,.53,1.11,.57,2.67,.31,3.9-1.69,7.88,1.73,13.65,7.62,18.24,2.83,2.21,4.21,4.86,4.83,8.34,1.2,6.74,5.14,10.61,12.13,11.19,7.77,.65,14.64,2.48,21.21,7.26,8.86,6.44,18.63,6.28,28.06,.19,4.57-2.95,6.3-7.87,9.03-12.28Z"/>
    </g>
  </g>
</svg>