<svg width="827" height="71" viewBox="0 0 827 71" fill="none" xmlns="http://www.w3.org/2000/svg">
<path d="M49.936 70.152H53.968C61.936 70.152 69.04 69.48 75.184 68.136C81.328 66.696 86.128 64.968 89.488 63.048C92.944 61.032 95.728 58.728 97.936 56.136C100.048 53.448 101.488 51.144 102.256 49.032C102.928 46.92 103.216 44.808 103.216 42.792V41.832H78.832C78.832 41.928 78.832 42.024 78.736 42.12C76.048 49.896 67.216 53.832 52.144 53.832C47.056 53.832 42.64 53.256 38.896 52.104C35.152 50.952 32.368 49.416 30.448 47.496C28.528 45.576 27.088 43.656 26.224 41.64C25.36 39.624 24.88 37.512 24.88 35.304V34.248C24.88 31.944 25.264 29.832 26.128 27.912C26.896 25.992 28.24 24.168 30.064 22.344C31.984 20.616 34.768 19.272 38.512 18.312C42.16 17.256 46.672 16.776 51.952 16.776C56.368 16.776 60.208 17.16 63.664 17.832C67.024 18.504 69.616 19.272 71.344 20.136C73.072 21 74.512 22.056 75.76 23.304C77.008 24.552 77.776 25.512 78.064 26.088C78.352 26.664 78.544 27.24 78.736 28.008H103.12V26.952C103.12 25.128 102.832 23.208 102.256 21.192C101.584 19.176 100.24 16.872 98.032 14.28C95.92 11.688 93.136 9.48 89.776 7.464C86.416 5.544 81.616 3.912 75.472 2.472C69.232 1.128 62.128 0.455996 53.968 0.455996H49.936C41.68 0.455996 34.384 1.224 28.24 2.856C22 4.392 17.2 6.31199 13.84 8.616C10.48 10.92 7.792 13.704 5.68 16.872C3.664 20.04 2.32 22.92 1.744 25.512C1.168 28.104 0.88 30.888 0.88 33.768V36.456C0.88 38.28 0.976 40.104 1.264 42.024C1.552 43.848 2.224 45.96 3.184 48.264C4.144 50.568 5.296 52.68 6.736 54.696C8.176 56.712 10.192 58.632 12.784 60.648C15.376 62.568 18.256 64.2 21.616 65.64C24.88 66.984 29.008 68.04 33.904 68.904C38.8 69.768 44.08 70.152 49.936 70.152ZM182.892 1.41599V32.52C182.892 34.92 182.508 37.128 181.836 39.144C181.164 41.256 180.012 43.272 178.284 45.288C176.652 47.304 174.156 48.84 170.892 49.992C167.532 51.144 163.596 51.816 158.988 51.816C154.284 51.816 150.252 51.144 146.892 49.992C143.436 48.84 140.94 47.304 139.308 45.288C137.676 43.272 136.524 41.256 135.852 39.144C135.18 37.128 134.796 34.92 134.796 32.52V1.41599H111.948V33.768C111.948 35.784 112.044 37.704 112.332 39.72C112.62 41.64 113.196 43.848 114.06 46.248C115.02 48.648 116.076 50.856 117.516 52.968C118.859 54.984 120.684 57.096 123.084 59.112C125.388 61.128 128.172 62.856 131.244 64.296C134.316 65.736 138.06 66.888 142.572 67.752C146.988 68.616 151.98 69 157.356 69H160.908C168.012 69 174.348 68.232 179.916 66.504C185.388 64.872 189.708 62.76 192.876 60.264C196.044 57.768 198.636 54.888 200.652 51.528C202.667 48.264 204.012 45.096 204.684 42.312C205.355 39.432 205.74 36.552 205.74 33.768V1.41599H182.892ZM217.229 1.89599V69.096H291.053V52.392H240.077V1.89599H217.229ZM310.948 69.096H334.084V17.832H365.668V1.89599H279.46V17.832H310.948V69.096ZM599.999 1.224V32.424C599.999 34.824 599.615 37.032 598.943 39.048C598.271 41.16 597.023 43.176 595.391 45.192C593.759 47.208 591.263 48.744 587.903 49.992C584.639 51.144 580.607 51.72 575.999 51.72C575.327 51.72 418.367 51.72 417.695 51.624C413.855 51.528 410.399 50.952 407.519 49.992C404.159 48.744 401.663 47.208 400.031 45.192C398.303 43.176 397.151 41.16 396.479 39.048C395.807 37.032 395.423 34.824 395.423 32.424V1.224H372.479V33.672C372.479 35.592 372.575 37.608 372.863 39.528C373.151 41.544 373.727 43.752 374.687 46.152C375.551 48.552 376.703 50.76 378.047 52.872C379.391 54.984 381.311 57 383.615 59.112C386.015 61.128 388.703 62.856 391.775 64.296C394.943 65.736 398.687 66.888 403.199 67.752C407.711 68.616 412.607 69 418.079 69H577.919C585.119 69 591.455 68.232 596.927 66.504C602.495 64.872 606.815 62.76 609.983 60.264C613.151 57.768 615.743 54.792 617.759 51.432C619.775 48.168 621.215 45.096 621.887 42.216C622.559 39.336 622.847 36.456 622.847 33.672V1.224H599.999ZM713.614 41.064C711.31 38.472 708.238 36.744 704.494 35.688C712.654 33 716.782 28.2 716.782 21.192V20.136C716.782 8.712 707.182 2.952 687.982 2.952H634.51V69H655.246V45.576H682.318C687.406 45.576 690.958 46.536 693.07 48.36C695.182 50.184 696.238 53.16 696.238 57.192V69H717.07V50.856C717.07 46.824 715.918 43.56 713.614 41.064ZM695.086 24.456C695.086 26.376 694.414 28.008 693.07 29.16C691.726 30.312 689.614 30.984 686.734 30.984H655.246V17.928H686.734C689.614 17.928 691.726 18.6 693.07 19.752C694.414 20.904 695.086 22.44 695.086 24.36V24.456ZM791.067 2.568H756.987L721.37 68.904H743.835L750.075 56.808H797.979L804.219 68.904H826.779L791.067 2.568ZM757.851 41.832L770.427 17.448H777.627L790.299 41.832H757.851Z" fill="white"/>
</svg>
