<svg width="662" height="41" viewBox="0 0 662 41" fill="none" xmlns="http://www.w3.org/2000/svg">
<path d="M32.0692 27.008C45.3412 27.008 51.9492 22.696 51.9492 14.128V13.624C51.9492 5.112 45.3412 0.855997 32.0692 0.855997H0.0371852V40.056H13.3652V27.008H32.0692ZM13.3652 9.76H31.8452C35.9332 9.76 38.0052 11.16 38.0052 13.904V14.072C38.0052 16.816 35.9332 18.216 31.8452 18.216H13.3652V9.76ZM56.5294 0.743998V40H102.225V30.872H69.7454V24.432H100.881V15.472H69.7454V9.648H101.609V0.743998H56.5294ZM154.298 23.704C152.954 22.192 151.162 21.184 148.978 20.568C153.738 19 156.146 16.2 156.146 12.112V11.496C156.146 4.832 150.546 1.472 139.346 1.472H108.154V40H120.25V26.336H136.042C139.01 26.336 141.082 26.896 142.314 27.96C143.546 29.024 144.162 30.76 144.162 33.112V40H156.314V29.416C156.314 27.064 155.642 25.16 154.298 23.704ZM143.49 14.016C143.49 15.136 143.098 16.088 142.314 16.76C141.53 17.432 140.298 17.824 138.618 17.824H120.25V10.208H138.618C140.298 10.208 141.53 10.6 142.314 11.272C143.098 11.944 143.49 12.84 143.49 13.96V14.016ZM209.342 23.704C207.998 22.192 206.206 21.184 204.022 20.568C208.782 19 211.19 16.2 211.19 12.112V11.496C211.19 4.832 205.59 1.472 194.39 1.472H163.198V40H175.294V26.336H191.086C194.054 26.336 196.126 26.896 197.358 27.96C198.59 29.024 199.206 30.76 199.206 33.112V40H211.358V29.416C211.358 27.064 210.686 25.16 209.342 23.704ZM198.534 14.016C198.534 15.136 198.142 16.088 197.358 16.76C196.574 17.432 195.342 17.824 193.662 17.824H175.294V10.208H193.662C195.342 10.208 196.574 10.6 197.358 11.272C198.142 11.944 198.534 12.84 198.534 13.96V14.016ZM245.731 0.183999C241.979 0.183999 238.619 0.407999 235.539 0.911999C232.515 1.36 229.939 1.976 227.867 2.76C225.851 3.544 224.059 4.496 222.547 5.616C220.979 6.736 219.803 7.856 218.907 8.976C218.067 10.096 217.395 11.328 216.891 12.672C216.331 14.016 215.995 15.248 215.883 16.256C215.715 17.32 215.659 18.384 215.659 19.56V21.128C215.659 22.248 215.715 23.368 215.883 24.432C215.995 25.44 216.331 26.672 216.891 28.016C217.395 29.36 218.067 30.592 218.907 31.768C219.803 32.888 220.979 34.008 222.547 35.184C224.115 36.304 225.907 37.256 227.923 38.096C229.939 38.88 232.515 39.496 235.539 40C238.619 40.504 241.979 40.728 245.731 40.728H247.523C251.275 40.728 254.635 40.504 257.659 40C260.739 39.496 263.259 38.88 265.275 38.096C267.291 37.256 269.083 36.304 270.651 35.184C272.219 34.008 273.395 32.888 274.235 31.768C275.075 30.592 275.747 29.36 276.307 28.016C276.811 26.672 277.203 25.44 277.315 24.432C277.483 23.368 277.539 22.248 277.539 21.128V19.56C277.539 18.384 277.483 17.32 277.315 16.256C277.203 15.192 276.811 14.016 276.307 12.672C275.747 11.328 275.075 10.096 274.179 8.976C273.339 7.856 272.163 6.736 270.595 5.616C269.083 4.496 267.291 3.544 265.275 2.76C263.203 1.976 260.683 1.36 257.659 0.911999C254.635 0.407999 251.275 0.183999 247.523 0.183999H245.731ZM263.539 20.68C263.539 21.912 263.315 23.144 262.811 24.264C262.363 25.384 261.523 26.504 260.347 27.568C259.171 28.688 257.379 29.584 254.971 30.2C252.899 30.816 250.379 31.096 247.523 31.208C247.075 31.208 246.403 31.208 246.123 31.208C243.043 31.152 240.355 30.816 238.115 30.2C235.707 29.528 233.971 28.632 232.795 27.512C231.675 26.392 230.835 25.272 230.387 24.152C229.883 23.032 229.659 21.8 229.659 20.568V19.952C229.659 13.288 235.091 9.872 245.899 9.648C246.235 9.648 247.243 9.648 247.747 9.704C249.931 9.76 251.891 9.928 253.627 10.32C255.699 10.768 257.379 11.328 258.611 12C259.843 12.616 260.851 13.456 261.579 14.408C262.363 15.36 262.867 16.256 263.147 17.152C263.427 17.992 263.539 18.944 263.539 19.952V20.68ZM339.595 40.672H341.947C346.595 40.672 350.739 40.28 354.323 39.496C357.907 38.656 360.707 37.648 362.667 36.528C364.683 35.352 366.307 34.008 367.595 32.496C368.827 30.928 369.667 29.584 370.115 28.352C370.507 27.12 370.675 25.888 370.675 24.712V24.152H356.451C356.451 24.208 356.451 24.264 356.395 24.32C354.827 28.856 349.675 31.152 340.883 31.152C337.915 31.152 335.339 30.816 333.155 30.144C330.971 29.472 329.347 28.576 328.227 27.456C327.107 26.336 326.267 25.216 325.763 24.04C325.259 22.864 324.979 21.632 324.979 20.344V19.728C324.979 18.384 325.203 17.152 325.707 16.032C326.155 14.912 326.939 13.848 328.003 12.784C329.123 11.776 330.747 10.992 332.931 10.432C335.059 9.816 337.691 9.536 340.771 9.536C343.347 9.536 345.587 9.76 347.603 10.152C349.563 10.544 351.075 10.992 352.083 11.496C353.091 12 353.931 12.616 354.659 13.344C355.387 14.072 355.835 14.632 356.003 14.968C356.171 15.304 356.283 15.64 356.395 16.088H370.619V15.472C370.619 14.408 370.451 13.288 370.115 12.112C369.723 10.936 368.939 9.592 367.651 8.08C366.419 6.568 364.795 5.28 362.835 4.104C360.875 2.984 358.075 2.032 354.491 1.192C350.851 0.407999 346.707 0.0159974 341.947 0.0159974H339.595C334.779 0.0159974 330.523 0.463998 326.939 1.416C323.299 2.312 320.499 3.432 318.539 4.776C316.579 6.12 315.011 7.744 313.779 9.592C312.603 11.44 311.819 13.12 311.483 14.632C311.147 16.144 310.979 17.768 310.979 19.448V21.016C310.979 22.08 311.035 23.144 311.203 24.264C311.371 25.328 311.763 26.56 312.323 27.904C312.883 29.248 313.555 30.48 314.395 31.656C315.235 32.832 316.411 33.952 317.923 35.128C319.435 36.248 321.115 37.2 323.075 38.04C324.979 38.824 327.387 39.44 330.243 39.944C333.099 40.448 336.179 40.672 339.595 40.672ZM421.913 23.704C420.569 22.192 418.777 21.184 416.593 20.568C421.353 19 423.761 16.2 423.761 12.112V11.496C423.761 4.832 418.161 1.472 406.961 1.472H375.769V40H387.865V26.336H403.657C406.625 26.336 408.697 26.896 409.929 27.96C411.161 29.024 411.777 30.76 411.777 33.112V40H423.929V29.416C423.929 27.064 423.257 25.16 421.913 23.704ZM411.105 14.016C411.105 15.136 410.713 16.088 409.929 16.76C409.145 17.432 407.913 17.824 406.233 17.824H387.865V10.208H406.233C407.913 10.208 409.145 10.6 409.929 11.272C410.713 11.944 411.105 12.84 411.105 13.96V14.016ZM443.293 30.816V24.32H575.229V15.248H443.293V9.424H575.957V0.407999H429.909V40H576.573V30.816H443.293ZM611.102 39.552L619.614 16.592H621.854L630.87 39.552H644.142L661.222 0.855997H648.23L637.59 26.728L629.19 7.296H612.166L604.494 27.456L593.63 0.855997H579.238L596.542 39.552H611.102Z" fill="white"/>
</svg>
