<svg width="1326" height="97" viewBox="0 0 1326 97" fill="none" xmlns="http://www.w3.org/2000/svg">
<path d="M0.952616 2.35202V95.1325H32.1004V33.6323L100.758 95.1325H132.038V2.35202H100.758V60.6712L36.2092 2.35202H0.952616ZM215.322 0.761501C206.442 0.761501 198.489 1.29168 191.199 2.48457C184.042 3.54491 177.945 5.0029 173.041 6.85851C168.269 8.71412 164.028 10.9674 160.449 13.6182C156.738 16.2691 153.955 18.92 151.834 21.5708C149.846 24.2217 148.255 27.1377 147.062 30.3187C145.737 33.4998 144.942 36.4157 144.676 38.8015C144.279 41.3198 144.146 43.8382 144.146 46.6216V50.3328C144.146 52.9837 144.279 55.6345 144.676 58.1529C144.942 60.5387 145.737 63.4546 147.062 66.6357C148.255 69.8167 149.846 72.7327 151.834 75.5161C153.955 78.167 156.738 80.8178 160.449 83.6013C164.16 86.2521 168.402 88.5054 173.173 90.4935C177.945 92.3491 184.042 93.8071 191.199 95C198.489 96.1929 206.442 96.7231 215.322 96.7231H219.564C228.444 96.7231 236.397 96.1929 243.554 95C250.844 93.8071 256.808 92.3491 261.58 90.4935C266.351 88.5054 270.593 86.2521 274.304 83.6013C278.015 80.8178 280.799 78.167 282.787 75.5161C284.775 72.7327 286.366 69.8167 287.691 66.6357C288.884 63.4546 289.812 60.5387 290.077 58.1529C290.474 55.6345 290.607 52.9837 290.607 50.3328V46.6216C290.607 43.8382 290.474 41.3198 290.077 38.8015C289.812 36.2832 288.884 33.4998 287.691 30.3187C286.366 27.1377 284.775 24.2217 282.654 21.5708C280.666 18.92 277.883 16.2691 274.172 13.6182C270.593 10.9674 266.351 8.71412 261.58 6.85851C256.676 5.0029 250.711 3.54491 243.554 2.48457C236.397 1.29168 228.444 0.761501 219.564 0.761501H215.322ZM257.471 49.2725C257.471 52.1884 256.941 55.1044 255.748 57.7552C254.688 60.4061 252.699 63.057 249.916 65.5753C247.133 68.2262 242.891 70.3469 237.192 71.8049C232.288 73.2628 226.323 73.9256 219.564 74.1907C218.503 74.1907 216.913 74.1907 216.25 74.1907C208.96 74.0581 202.598 73.2628 197.296 71.8049C191.597 70.2143 187.488 68.0936 184.705 65.4428C182.054 62.7919 180.066 60.141 179.005 57.4902C177.812 54.8393 177.282 51.9233 177.282 49.0074V47.5494C177.282 31.7767 190.139 23.6915 215.72 23.1614C216.515 23.1614 218.901 23.1614 220.094 23.2939C225.263 23.4265 229.902 23.8241 234.011 24.7519C238.915 25.8122 242.891 27.1377 245.807 28.7282C248.723 30.1862 251.109 32.1743 252.832 34.4276C254.688 36.6808 255.881 38.8015 256.543 40.9222C257.206 42.9104 257.471 45.1636 257.471 47.5494V49.2725ZM358.339 96.7231H367.617C377.425 96.7231 386.04 96.1929 393.33 94.8675C400.62 93.6746 406.32 92.2166 410.561 90.2284C414.802 88.3728 418.116 85.987 420.634 83.2036C423.153 80.2877 424.876 77.5042 425.671 74.8534C426.466 72.2025 426.864 69.154 426.864 65.7079V63.9848C426.864 54.5742 422.755 47.8145 414.272 43.4405C405.922 39.0666 392.403 36.6808 373.449 36.4157L363.906 36.2832L356.483 36.1506C349.989 36.0181 344.952 35.6205 341.373 34.8252C337.795 33.8974 335.541 32.9696 334.614 32.0418C333.553 30.9814 333.156 29.7885 333.156 28.198C333.156 26.475 333.553 25.1495 334.481 24.2217C335.276 23.2939 337.795 22.3661 341.771 21.4383C345.88 20.643 350.651 20.2454 358.339 20.2454H362.978C368.015 20.2454 370.93 20.5105 374.642 21.0407C378.353 21.7034 381.269 22.3661 383.124 23.0288C385.113 23.8241 386.571 24.7519 387.764 25.9448C388.956 27.1377 389.752 28.0655 390.017 28.7282C390.282 29.3909 390.547 30.3187 390.812 31.2465H423.683V30.0536C423.683 27.0051 423.153 24.2217 422.092 21.5708C421.164 19.0525 419.309 16.4016 416.658 13.7508C414.007 11.0999 410.561 8.84666 406.32 6.99105C402.078 5.13544 396.511 3.67746 389.354 2.48457C382.329 1.29168 374.112 0.761501 364.966 0.761501H355.555C346.675 0.761501 338.855 1.29168 332.228 2.48457C325.468 3.54491 320.166 5.0029 316.19 6.72597C312.214 8.44903 309.033 10.5697 306.647 13.0881C304.128 15.7389 302.538 18.2573 301.743 20.7756C300.947 23.2939 300.55 26.0773 300.55 28.9933V30.1862C300.55 47.4168 316.985 56.5624 349.856 57.3576L357.278 57.4902L367.219 57.7552C374.774 57.8878 380.474 58.418 384.45 59.2132C388.426 60.141 391.077 61.2014 392.137 62.2617C393.198 63.4546 393.728 65.0451 393.728 67.0333C393.728 68.4913 393.463 69.6842 392.8 70.7445C392.137 71.8049 390.945 72.7327 388.956 73.793C387.101 74.8534 384.052 75.5161 379.943 76.0463C375.702 76.5764 373.051 76.9741 366.689 76.9741H359.399C340.048 76.9741 332.89 72.07 332.228 62.2617H299.224V63.5872C299.224 66.5031 299.489 69.2865 300.152 71.8049C300.815 74.3232 302.405 77.2392 304.791 80.4202C307.177 83.6013 310.491 86.3847 314.467 88.6379C318.576 90.8911 324.408 92.7468 331.963 94.3373C339.385 95.9278 348.266 96.7231 358.339 96.7231ZM506.556 0.761501C497.675 0.761501 489.723 1.29168 482.433 2.48457C475.275 3.54491 469.178 5.0029 464.274 6.85851C459.503 8.71412 455.261 10.9674 451.683 13.6182C447.971 16.2691 445.188 18.92 443.067 21.5708C441.079 24.2217 439.489 27.1377 438.296 30.3187C436.97 33.4998 436.175 36.4157 435.91 38.8015C435.512 41.3198 435.38 43.8382 435.38 46.6216V50.3328C435.38 52.9837 435.512 55.6345 435.91 58.1529C436.175 60.5387 436.97 63.4546 438.296 66.6357C439.489 69.8167 441.079 72.7327 443.067 75.5161C445.188 78.167 447.971 80.8178 451.683 83.6013C455.394 86.2521 459.635 88.5054 464.407 90.4935C469.178 92.3491 475.275 93.8071 482.433 95C489.723 96.1929 497.675 96.7231 506.556 96.7231H510.797C519.677 96.7231 527.63 96.1929 534.787 95C542.077 93.8071 548.042 92.3491 552.813 90.4935C557.585 88.5054 561.826 86.2521 565.538 83.6013C569.249 80.8178 572.032 78.167 574.02 75.5161C576.009 72.7327 577.599 69.8167 578.924 66.6357C580.117 63.4546 581.045 60.5387 581.31 58.1529C581.708 55.6345 581.84 52.9837 581.84 50.3328V46.6216C581.84 43.8382 581.708 41.3198 581.31 38.8015C581.045 36.2832 580.117 33.4998 578.924 30.3187C577.599 27.1377 576.009 24.2217 573.888 21.5708C571.9 18.92 569.116 16.2691 565.405 13.6182C561.826 10.9674 557.585 8.71412 552.813 6.85851C547.909 5.0029 541.945 3.54491 534.787 2.48457C527.63 1.29168 519.677 0.761501 510.797 0.761501H506.556ZM548.705 49.2725C548.705 52.1884 548.174 55.1044 546.981 57.7552C545.921 60.4061 543.933 63.057 541.15 65.5753C538.366 68.2262 534.125 70.3469 528.425 71.8049C523.521 73.2628 517.557 73.9256 510.797 74.1907C509.737 74.1907 508.146 74.1907 507.483 74.1907C500.194 74.0581 493.831 73.2628 488.53 71.8049C482.83 70.2143 478.722 68.0936 475.938 65.4428C473.287 62.7919 471.299 60.141 470.239 57.4902C469.046 54.8393 468.516 51.9233 468.516 49.0074V47.5494C468.516 31.7767 481.372 23.6915 506.953 23.1614C507.749 23.1614 510.134 23.1614 511.327 23.2939C516.496 23.4265 521.135 23.8241 525.244 24.7519C530.148 25.8122 534.125 27.1377 537.041 28.7282C539.957 30.1862 542.342 32.1743 544.066 34.4276C545.921 36.6808 547.114 38.8015 547.777 40.9222C548.439 42.9104 548.705 45.1636 548.705 47.5494V49.2725ZM630.751 95.1325H662.694V24.3543H706.301V2.35202H587.277V24.3543H630.751V95.1325ZM824.92 56.4298C821.739 52.8511 817.498 50.4653 812.329 49.0074C823.595 45.2961 829.294 38.669 829.294 28.9933V27.5353C829.294 11.7626 816.04 3.81 789.531 3.81H715.704V95H744.334V62.6594H781.711C788.736 62.6594 793.64 63.9848 796.556 66.5031C799.472 69.0215 800.93 73.1303 800.93 78.6971V95H829.692V69.9493C829.692 64.3824 828.101 59.8759 824.92 56.4298ZM799.339 33.4998C799.339 36.1506 798.411 38.4039 796.556 39.9944C794.7 41.5849 791.784 42.5127 787.808 42.5127H744.334V24.4868H787.808C791.784 24.4868 794.7 25.4146 796.556 27.0051C798.411 28.5957 799.339 30.7164 799.339 33.3672V33.4998ZM1188.99 38.5364C1188.73 36.1506 1187.93 33.3672 1186.87 30.3187C1185.68 27.2702 1184.22 24.4868 1182.36 21.8359C1180.51 19.1851 1177.99 16.6667 1174.81 14.0159C1171.49 11.4975 1167.65 9.24429 1163.41 7.52122C1159.04 5.66561 1153.6 4.34018 1147.24 3.14729C1140.74 2.08694 1133.59 1.55676 1125.77 1.55676H903.757C895.804 1.55676 888.647 2.08694 882.152 3.14729C875.657 4.34018 870.223 5.66561 865.849 7.52122C861.475 9.24429 857.632 11.4975 854.451 14.0159C851.137 16.6667 848.619 19.1851 846.763 21.8359C845.04 24.4868 843.582 27.2702 842.389 30.4513C841.329 33.4998 840.666 36.2832 840.268 38.669C840.003 41.0548 839.871 43.5731 839.871 46.224V49.9352C839.871 52.4535 840.003 54.9718 840.268 57.3576C840.666 59.8759 841.329 62.6594 842.389 65.7079C843.582 68.8889 845.04 71.6723 846.763 74.3232C848.619 76.9741 851.269 79.6249 854.451 82.2758C857.764 84.9267 861.608 87.0474 865.849 88.903C870.223 90.7586 875.657 92.2166 882.152 93.4095C888.647 94.4698 895.804 95 903.757 95H1125.77C1133.59 95 1140.74 94.4698 1147.24 93.4095C1153.73 92.2166 1159.17 90.7586 1163.41 88.903C1167.78 87.0474 1171.49 84.9267 1174.81 82.2758C1178.12 79.6249 1180.64 76.9741 1182.5 74.3232C1184.22 71.6723 1185.68 68.8889 1186.87 65.7079C1187.93 62.6594 1188.73 59.8759 1188.99 57.3576C1189.39 54.9718 1189.52 52.4535 1189.52 49.9352V46.224C1189.52 43.5731 1189.39 41.0548 1188.99 38.5364ZM1159.7 48.7423C1159.7 51.6582 1159.3 54.4417 1158.24 57.0925C1157.18 59.6109 1155.46 62.2617 1152.94 64.7801C1150.42 67.2984 1146.58 69.2865 1141.54 70.8771C1136.9 72.2025 1131.2 72.9978 1124.71 73.1303C1124.18 73.1303 906.805 73.1303 906.275 73.1303C898.985 73.1303 892.756 72.335 887.586 70.7445C882.55 69.2865 878.706 67.1658 876.32 64.6475C873.802 61.9966 872.079 59.3458 871.151 56.8274C870.091 54.1766 869.56 51.5257 869.56 48.6097V47.1518C869.56 31.2465 881.754 23.4265 906.275 23.4265C906.805 23.4265 1124.18 23.4265 1124.71 23.4265C1130.01 23.559 1134.65 23.9566 1138.62 24.8844C1143.13 25.9448 1146.71 27.2702 1149.23 28.7282C1151.88 30.3187 1154 32.1743 1155.59 34.295C1157.18 36.5483 1158.37 38.669 1158.9 40.6571C1159.43 42.6453 1159.7 44.766 1159.7 47.1518V48.7423ZM1257.28 96.7231H1266.56C1276.37 96.7231 1284.98 96.1929 1292.27 94.8675C1299.56 93.6746 1305.26 92.2166 1309.5 90.2284C1313.74 88.3728 1317.06 85.987 1319.57 83.2036C1322.09 80.2877 1323.82 77.5042 1324.61 74.8534C1325.41 72.2025 1325.8 69.154 1325.8 65.7079V63.9848C1325.8 54.5742 1321.7 47.8145 1313.21 43.4405C1304.86 39.0666 1291.34 36.6808 1272.39 36.4157L1262.85 36.2832L1255.42 36.1506C1248.93 36.0181 1243.89 35.6205 1240.31 34.8252C1236.74 33.8974 1234.48 32.9696 1233.55 32.0418C1232.49 30.9814 1232.1 29.7885 1232.1 28.198C1232.1 26.475 1232.49 25.1495 1233.42 24.2217C1234.22 23.2939 1236.74 22.3661 1240.71 21.4383C1244.82 20.643 1249.59 20.2454 1257.28 20.2454H1261.92C1266.96 20.2454 1269.87 20.5105 1273.58 21.0407C1277.29 21.7034 1280.21 22.3661 1282.07 23.0288C1284.05 23.8241 1285.51 24.7519 1286.7 25.9448C1287.9 27.1377 1288.69 28.0655 1288.96 28.7282C1289.22 29.3909 1289.49 30.3187 1289.75 31.2465H1322.62V30.0536C1322.62 27.0051 1322.09 24.2217 1321.03 21.5708C1320.11 19.0525 1318.25 16.4016 1315.6 13.7508C1312.95 11.0999 1309.5 8.84666 1305.26 6.99105C1301.02 5.13544 1295.45 3.67746 1288.29 2.48457C1281.27 1.29168 1273.05 0.761501 1263.91 0.761501H1254.5C1245.62 0.761501 1237.8 1.29168 1231.17 2.48457C1224.41 3.54491 1219.11 5.0029 1215.13 6.72597C1211.15 8.44903 1207.97 10.5697 1205.59 13.0881C1203.07 15.7389 1201.48 18.2573 1200.68 20.7756C1199.89 23.2939 1199.49 26.0773 1199.49 28.9933V30.1862C1199.49 47.4168 1215.93 56.5624 1248.8 57.3576L1256.22 57.4902L1266.16 57.7552C1273.71 57.8878 1279.41 58.418 1283.39 59.2132C1287.37 60.141 1290.02 61.2014 1291.08 62.2617C1292.14 63.4546 1292.67 65.0451 1292.67 67.0333C1292.67 68.4913 1292.4 69.6842 1291.74 70.7445C1291.08 71.8049 1289.89 72.7327 1287.9 73.793C1286.04 74.8534 1282.99 75.5161 1278.88 76.0463C1274.64 76.5764 1271.99 76.9741 1265.63 76.9741H1258.34C1238.99 76.9741 1231.83 72.07 1231.17 62.2617H1198.17V63.5872C1198.17 66.5031 1198.43 69.2865 1199.09 71.8049C1199.76 74.3232 1201.35 77.2392 1203.73 80.4202C1206.12 83.6013 1209.43 86.3847 1213.41 88.6379C1217.52 90.8911 1223.35 92.7468 1230.9 94.3373C1238.33 95.9278 1247.21 96.7231 1257.28 96.7231Z" fill="white"/>
</svg>
