<svg width="624" height="99" viewBox="0 0 624 99" fill="none" xmlns="http://www.w3.org/2000/svg">
<path d="M30.296 40.672H32.648C37.296 40.672 41.44 40.28 45.024 39.496C48.608 38.656 51.408 37.648 53.368 36.528C55.384 35.352 57.008 34.008 58.296 32.496C59.528 30.928 60.368 29.584 60.816 28.352C61.208 27.12 61.376 25.888 61.376 24.712V24.152H47.152C47.152 24.208 47.152 24.264 47.096 24.32C45.528 28.856 40.376 31.152 31.584 31.152C28.616 31.152 26.04 30.816 23.856 30.144C21.672 29.472 20.048 28.576 18.928 27.456C17.808 26.336 16.968 25.216 16.464 24.04C15.96 22.864 15.68 21.632 15.68 20.344V19.728C15.68 18.384 15.904 17.152 16.408 16.032C16.856 14.912 17.64 13.848 18.704 12.784C19.824 11.776 21.448 10.992 23.632 10.432C25.76 9.816 28.392 9.536 31.472 9.536C34.048 9.536 36.288 9.76 38.304 10.152C40.264 10.544 41.776 10.992 42.784 11.496C43.792 12 44.632 12.616 45.36 13.344C46.088 14.072 46.536 14.632 46.704 14.968C46.872 15.304 46.984 15.64 47.096 16.088H61.32V15.472C61.32 14.408 61.152 13.288 60.816 12.112C60.424 10.936 59.64 9.592 58.352 8.08C57.12 6.568 55.496 5.28 53.536 4.104C51.576 2.984 48.776 2.032 45.192 1.192C41.552 0.407999 37.408 0.0159974 32.648 0.0159974H30.296C25.48 0.0159974 21.224 0.463998 17.64 1.416C14 2.312 11.2 3.432 9.24 4.776C7.28 6.12 5.712 7.744 4.48 9.592C3.304 11.44 2.52 13.12 2.184 14.632C1.848 16.144 1.68 17.768 1.68 19.448V21.016C1.68 22.08 1.736 23.144 1.904 24.264C2.072 25.328 2.464 26.56 3.024 27.904C3.584 29.248 4.256 30.48 5.096 31.656C5.936 32.832 7.112 33.952 8.624 35.128C10.136 36.248 11.816 37.2 13.776 38.04C15.68 38.824 18.088 39.44 20.944 39.944C23.8 40.448 26.88 40.672 30.296 40.672ZM94.8614 0.183999C91.1094 0.183999 87.7494 0.407999 84.6694 0.911999C81.6454 1.36 79.0694 1.976 76.9974 2.76C74.9814 3.544 73.1894 4.496 71.6774 5.616C70.1094 6.736 68.9334 7.856 68.0374 8.976C67.1974 10.096 66.5254 11.328 66.0214 12.672C65.4614 14.016 65.1254 15.248 65.0134 16.256C64.8454 17.32 64.7894 18.384 64.7894 19.56V21.128C64.7894 22.248 64.8454 23.368 65.0134 24.432C65.1254 25.44 65.4614 26.672 66.0214 28.016C66.5254 29.36 67.1974 30.592 68.0374 31.768C68.9334 32.888 70.1094 34.008 71.6774 35.184C73.2454 36.304 75.0374 37.256 77.0534 38.096C79.0694 38.88 81.6454 39.496 84.6694 40C87.7494 40.504 91.1094 40.728 94.8614 40.728H96.6534C100.405 40.728 103.765 40.504 106.789 40C109.869 39.496 112.389 38.88 114.405 38.096C116.421 37.256 118.213 36.304 119.781 35.184C121.349 34.008 122.525 32.888 123.365 31.768C124.205 30.592 124.877 29.36 125.437 28.016C125.941 26.672 126.333 25.44 126.445 24.432C126.613 23.368 126.669 22.248 126.669 21.128V19.56C126.669 18.384 126.613 17.32 126.445 16.256C126.333 15.192 125.941 14.016 125.437 12.672C124.877 11.328 124.205 10.096 123.309 8.976C122.469 7.856 121.293 6.736 119.725 5.616C118.213 4.496 116.421 3.544 114.405 2.76C112.333 1.976 109.813 1.36 106.789 0.911999C103.765 0.407999 100.405 0.183999 96.6534 0.183999H94.8614ZM112.669 20.68C112.669 21.912 112.445 23.144 111.941 24.264C111.493 25.384 110.653 26.504 109.477 27.568C108.301 28.688 106.509 29.584 104.101 30.2C102.029 30.816 99.5094 31.096 96.6534 31.208C96.2054 31.208 95.5334 31.208 95.2534 31.208C92.1734 31.152 89.4854 30.816 87.2454 30.2C84.8374 29.528 83.1014 28.632 81.9254 27.512C80.8054 26.392 79.9654 25.272 79.5174 24.152C79.0134 23.032 78.7894 21.8 78.7894 20.568V19.952C78.7894 13.288 84.2214 9.872 95.0294 9.648C95.3654 9.648 96.3734 9.648 96.8774 9.704C99.0614 9.76 101.021 9.928 102.757 10.32C104.829 10.768 106.509 11.328 107.741 12C108.973 12.616 109.981 13.456 110.709 14.408C111.493 15.36 111.997 16.256 112.277 17.152C112.557 17.992 112.669 18.944 112.669 19.952V20.68ZM131.766 40.056H144.59V12.896L161.446 40.056H168.614L185.414 12.896V40.056H198.63V0.855997H180.318L165.478 25.272L150.75 0.855997H131.766V40.056ZM237.462 27.008C250.734 27.008 257.342 22.696 257.342 14.128V13.624C257.342 5.112 250.734 0.855997 237.462 0.855997H205.43V40.056H218.758V27.008H237.462ZM218.758 9.76H237.238C241.326 9.76 243.398 11.16 243.398 13.904V14.072C243.398 16.816 241.326 18.216 237.238 18.216H218.758V9.76ZM294.075 1.248H274.195L253.419 39.944H266.523L270.163 32.888H298.107L301.747 39.944H314.907L294.075 1.248ZM274.699 24.152L282.035 9.928H286.235L293.627 24.152H274.699ZM364.34 23.704C362.996 22.192 361.204 21.184 359.02 20.568C363.78 19 366.188 16.2 366.188 12.112V11.496C366.188 4.832 360.588 1.472 349.388 1.472H318.196V40H330.292V26.336H346.084C349.052 26.336 351.124 26.896 352.356 27.96C353.588 29.024 354.204 30.76 354.204 33.112V40H366.356V29.416C366.356 27.064 365.684 25.16 364.34 23.704ZM353.532 14.016C353.532 15.136 353.14 16.088 352.356 16.76C351.572 17.432 350.34 17.824 348.66 17.824H330.292V10.208H348.66C350.34 10.208 351.572 10.6 352.356 11.272C353.14 11.944 353.532 12.84 353.532 13.96V14.016ZM387.905 40.056H401.401V10.152H419.825V0.855997H369.537V10.152H387.905V40.056ZM437.07 0.911999H423.742V40H437.07V0.911999ZM443.813 0.855997V40.056H456.973V14.072L485.981 40.056H499.197V0.855997H485.981V25.496L458.709 0.855997H443.813ZM534.385 0.183999C530.633 0.183999 527.273 0.407999 524.193 0.911999C521.169 1.36 518.593 1.976 516.521 2.76C514.505 3.544 512.713 4.496 511.201 5.616C509.633 6.736 508.457 7.856 507.561 8.976C506.721 10.096 506.049 11.328 505.545 12.672C504.985 14.016 504.649 15.248 504.537 16.256C504.369 17.32 504.313 18.384 504.313 19.56V21.128C504.313 22.248 504.369 23.368 504.537 24.432C504.649 25.44 504.985 26.672 505.545 28.016C506.049 29.36 506.721 30.592 507.561 31.768C508.457 32.888 509.633 34.008 511.201 35.184C512.769 36.304 514.561 37.256 516.577 38.096C518.593 38.88 521.169 39.496 524.193 40C527.273 40.504 530.633 40.728 534.385 40.728H536.177C539.929 40.728 543.289 40.504 546.313 40C549.393 39.496 551.913 38.88 553.929 38.096C555.945 37.256 557.737 36.304 559.305 35.184C560.873 34.008 562.049 32.888 562.889 31.768C563.729 30.592 564.401 29.36 564.961 28.016C565.465 26.672 565.857 25.44 565.969 24.432C566.137 23.368 566.193 22.248 566.193 21.128V19.56C566.193 18.384 566.137 17.32 565.969 16.256C565.857 15.192 565.465 14.016 564.961 12.672C564.401 11.328 563.729 10.096 562.833 8.976C561.993 7.856 560.817 6.736 559.249 5.616C557.737 4.496 555.945 3.544 553.929 2.76C551.857 1.976 549.337 1.36 546.313 0.911999C543.289 0.407999 539.929 0.183999 536.177 0.183999H534.385ZM552.193 20.68C552.193 21.912 551.969 23.144 551.465 24.264C551.017 25.384 550.177 26.504 549.001 27.568C547.825 28.688 546.033 29.584 543.625 30.2C541.553 30.816 539.033 31.096 536.177 31.208C535.729 31.208 535.057 31.208 534.777 31.208C531.697 31.152 529.009 30.816 526.769 30.2C524.361 29.528 522.625 28.632 521.449 27.512C520.329 26.392 519.489 25.272 519.041 24.152C518.537 23.032 518.313 21.8 518.313 20.568V19.952C518.313 13.288 523.745 9.872 534.553 9.648C534.889 9.648 535.897 9.648 536.401 9.704C538.585 9.76 540.545 9.928 542.281 10.32C544.353 10.768 546.033 11.328 547.265 12C548.497 12.616 549.505 13.456 550.233 14.408C551.017 15.36 551.521 16.256 551.801 17.152C552.081 17.992 552.193 18.944 552.193 19.952V20.68ZM594.81 40.728H598.73C602.874 40.728 606.514 40.504 609.594 39.944C612.674 39.44 615.082 38.824 616.874 37.984C618.666 37.2 620.066 36.192 621.13 35.016C622.194 33.784 622.922 32.608 623.258 31.488C623.594 30.368 623.762 29.08 623.762 27.624V26.896C623.762 22.92 622.026 20.064 618.442 18.216C614.914 16.368 609.202 15.36 601.194 15.248L597.162 15.192L594.026 15.136C591.282 15.08 589.154 14.912 587.642 14.576C586.13 14.184 585.178 13.792 584.786 13.4C584.338 12.952 584.17 12.448 584.17 11.776C584.17 11.048 584.338 10.488 584.73 10.096C585.066 9.704 586.13 9.312 587.81 8.92C589.546 8.584 591.562 8.416 594.81 8.416H596.77C598.898 8.416 600.13 8.528 601.698 8.752C603.266 9.032 604.498 9.312 605.282 9.592C606.122 9.928 606.738 10.32 607.242 10.824C607.746 11.328 608.082 11.72 608.194 12C608.306 12.28 608.418 12.672 608.53 13.064H622.418V12.56C622.418 11.272 622.194 10.096 621.746 8.976C621.354 7.912 620.57 6.792 619.45 5.672C618.33 4.552 616.874 3.6 615.082 2.816C613.29 2.032 610.938 1.416 607.914 0.911999C604.946 0.407999 601.474 0.183999 597.61 0.183999H593.634C589.882 0.183999 586.578 0.407999 583.778 0.911999C580.922 1.36 578.682 1.976 577.002 2.704C575.322 3.432 573.978 4.328 572.97 5.392C571.906 6.512 571.234 7.576 570.898 8.64C570.562 9.704 570.394 10.88 570.394 12.112V12.616C570.394 19.896 577.338 23.76 591.226 24.096L594.362 24.152L598.562 24.264C601.754 24.32 604.162 24.544 605.842 24.88C607.522 25.272 608.642 25.72 609.09 26.168C609.538 26.672 609.762 27.344 609.762 28.184C609.762 28.8 609.65 29.304 609.37 29.752C609.09 30.2 608.586 30.592 607.746 31.04C606.962 31.488 605.674 31.768 603.938 31.992C602.146 32.216 601.026 32.384 598.338 32.384H595.258C587.082 32.384 584.058 30.312 583.778 26.168H569.834V26.728C569.834 27.96 569.946 29.136 570.226 30.2C570.506 31.264 571.178 32.496 572.186 33.84C573.194 35.184 574.594 36.36 576.274 37.312C578.01 38.264 580.474 39.048 583.666 39.72C586.802 40.392 590.554 40.728 594.81 40.728ZM18.928 98.056H32.424V68.152H50.848V58.856H0.56V68.152H18.928V98.056ZM96.2049 58.576V76.72C96.2049 78.12 95.9809 79.408 95.5889 80.584C95.1969 81.816 94.5249 82.992 93.5169 84.168C92.5649 85.344 91.1089 86.24 89.2049 86.912C87.2449 87.584 84.9489 87.976 82.2609 87.976C79.5169 87.976 77.1649 87.584 75.2049 86.912C73.1889 86.24 71.7329 85.344 70.7809 84.168C69.8289 82.992 69.1569 81.816 68.7649 80.584C68.3729 79.408 68.1489 78.12 68.1489 76.72V58.576H54.8209V77.448C54.8209 78.624 54.8769 79.744 55.0449 80.92C55.2129 82.04 55.5489 83.328 56.0529 84.728C56.6129 86.128 57.2289 87.416 58.0689 88.648C58.8529 89.824 59.9169 91.056 61.3169 92.232C62.6609 93.408 64.2849 94.416 66.0769 95.256C67.8689 96.096 70.0529 96.768 72.6849 97.272C75.2609 97.776 78.1729 98 81.3089 98H83.3809C87.5249 98 91.2209 97.552 94.4689 96.544C97.6609 95.592 100.181 94.36 102.029 92.904C103.877 91.448 105.389 89.768 106.565 87.808C107.741 85.904 108.525 84.056 108.917 82.432C109.309 80.752 109.533 79.072 109.533 77.448V58.576H96.2049ZM139.755 98.728H143.675C147.819 98.728 151.459 98.504 154.539 97.944C157.619 97.44 160.027 96.824 161.819 95.984C163.611 95.2 165.011 94.192 166.075 93.016C167.139 91.784 167.867 90.608 168.203 89.488C168.539 88.368 168.707 87.08 168.707 85.624V84.896C168.707 80.92 166.971 78.064 163.387 76.216C159.859 74.368 154.147 73.36 146.139 73.248L142.107 73.192L138.971 73.136C136.227 73.08 134.099 72.912 132.587 72.576C131.075 72.184 130.123 71.792 129.731 71.4C129.283 70.952 129.115 70.448 129.115 69.776C129.115 69.048 129.283 68.488 129.675 68.096C130.011 67.704 131.075 67.312 132.755 66.92C134.491 66.584 136.507 66.416 139.755 66.416H141.715C143.843 66.416 145.075 66.528 146.643 66.752C148.211 67.032 149.443 67.312 150.227 67.592C151.067 67.928 151.683 68.32 152.187 68.824C152.691 69.328 153.027 69.72 153.139 70C153.251 70.28 153.363 70.672 153.475 71.064H167.363V70.56C167.363 69.272 167.139 68.096 166.691 66.976C166.299 65.912 165.515 64.792 164.395 63.672C163.275 62.552 161.819 61.6 160.027 60.816C158.235 60.032 155.883 59.416 152.859 58.912C149.891 58.408 146.419 58.184 142.555 58.184H138.579C134.827 58.184 131.523 58.408 128.723 58.912C125.867 59.36 123.627 59.976 121.947 60.704C120.267 61.432 118.923 62.328 117.915 63.392C116.851 64.512 116.179 65.576 115.843 66.64C115.507 67.704 115.339 68.88 115.339 70.112V70.616C115.339 77.896 122.283 81.76 136.171 82.096L139.307 82.152L143.507 82.264C146.699 82.32 149.107 82.544 150.787 82.88C152.467 83.272 153.587 83.72 154.035 84.168C154.483 84.672 154.707 85.344 154.707 86.184C154.707 86.8 154.595 87.304 154.315 87.752C154.035 88.2 153.531 88.592 152.691 89.04C151.907 89.488 150.619 89.768 148.883 89.992C147.091 90.216 145.971 90.384 143.283 90.384H140.203C132.027 90.384 129.003 88.312 128.723 84.168H114.779V84.728C114.779 85.96 114.891 87.136 115.171 88.2C115.451 89.264 116.123 90.496 117.131 91.84C118.139 93.184 119.539 94.36 121.219 95.312C122.955 96.264 125.419 97.048 128.611 97.72C131.747 98.392 135.499 98.728 139.755 98.728ZM217.28 58.912H203.952V98H217.28V58.912ZM224.024 58.744V98H252.416C257.232 98 261.488 97.608 265.128 96.768C268.824 95.984 271.736 94.976 273.92 93.744C276.048 92.512 277.784 91 279.184 89.208C280.528 87.472 281.424 85.792 281.872 84.112C282.376 82.488 282.6 80.752 282.6 78.904V77.28C282.6 75.712 282.432 74.256 282.04 72.856C281.704 71.456 281.088 70.056 280.304 68.6C279.464 67.144 278.288 65.856 276.776 64.736C275.264 63.56 273.416 62.552 271.232 61.6C269.104 60.648 266.416 59.976 263.168 59.472C259.976 58.968 256.336 58.744 252.36 58.744H224.024ZM237.408 67.984H251.352C262.832 67.984 268.544 71.344 268.544 78.12V78.4C268.544 85.176 262.832 88.536 251.352 88.536H237.408V67.984ZM301.01 88.816V82.32H432.946V73.248H301.01V67.424H433.674V58.408H287.626V98H434.29V88.816H301.01ZM477.442 59.248H457.562L436.786 97.944H449.89L453.53 90.888H481.474L485.114 97.944H498.274L477.442 59.248ZM458.066 82.152L465.402 67.928H469.602L476.994 82.152H458.066ZM523.333 98.728H527.253C531.397 98.728 535.037 98.504 538.117 97.944C541.197 97.44 543.605 96.824 545.397 95.984C547.189 95.2 548.589 94.192 549.653 93.016C550.717 91.784 551.445 90.608 551.781 89.488C552.117 88.368 552.285 87.08 552.285 85.624V84.896C552.285 80.92 550.549 78.064 546.965 76.216C543.437 74.368 537.725 73.36 529.717 73.248L525.685 73.192L522.549 73.136C519.805 73.08 517.677 72.912 516.165 72.576C514.653 72.184 513.701 71.792 513.309 71.4C512.861 70.952 512.693 70.448 512.693 69.776C512.693 69.048 512.861 68.488 513.253 68.096C513.589 67.704 514.653 67.312 516.333 66.92C518.069 66.584 520.085 66.416 523.333 66.416H525.293C527.421 66.416 528.653 66.528 530.221 66.752C531.789 67.032 533.021 67.312 533.805 67.592C534.645 67.928 535.261 68.32 535.765 68.824C536.269 69.328 536.605 69.72 536.717 70C536.829 70.28 536.941 70.672 537.053 71.064H550.941V70.56C550.941 69.272 550.717 68.096 550.269 66.976C549.877 65.912 549.093 64.792 547.973 63.672C546.853 62.552 545.397 61.6 543.605 60.816C541.813 60.032 539.461 59.416 536.437 58.912C533.469 58.408 529.997 58.184 526.133 58.184H522.157C518.405 58.184 515.101 58.408 512.301 58.912C509.445 59.36 507.205 59.976 505.525 60.704C503.845 61.432 502.501 62.328 501.493 63.392C500.429 64.512 499.757 65.576 499.421 66.64C499.085 67.704 498.917 68.88 498.917 70.112V70.616C498.917 77.896 505.861 81.76 519.749 82.096L522.885 82.152L527.085 82.264C530.277 82.32 532.685 82.544 534.365 82.88C536.045 83.272 537.165 83.72 537.613 84.168C538.061 84.672 538.285 85.344 538.285 86.184C538.285 86.8 538.173 87.304 537.893 87.752C537.613 88.2 537.109 88.592 536.269 89.04C535.485 89.488 534.197 89.768 532.461 89.992C530.669 90.216 529.549 90.384 526.861 90.384H523.781C515.605 90.384 512.581 88.312 512.301 84.168H498.357V84.728C498.357 85.96 498.469 87.136 498.749 88.2C499.029 89.264 499.701 90.496 500.709 91.84C501.717 93.184 503.117 94.36 504.797 95.312C506.533 96.264 508.997 97.048 512.189 97.72C515.325 98.392 519.077 98.728 523.333 98.728Z" fill="white"/>
</svg>
