<?xml version="1.0" encoding="utf-8"?>
<!-- Generator: Adobe Illustrator 26.4.1, SVG Export Plug-In . SVG Version: 6.00 Build 0)  -->
<svg version="1.1" id="Layer_2_00000113343449288350509940000013557771476435186307_"
	 xmlns="http://www.w3.org/2000/svg" xmlns:xlink="http://www.w3.org/1999/xlink" x="0px" y="0px" viewBox="0 0 1532.1 620.5"
	 style="enable-background:new 0 0 1532.1 620.5;" xml:space="preserve">
<style type="text/css">
	.st0{enable-background:new    ;}
	.st1{fill:#FFFFFF;}
</style>
<g id="Layer_1-2">
	<g class="st0">
		<path class="st1" d="M52.4,108.1v40.9H10.5V26.3h100.4c41.6,0,62.4,13.3,62.4,39.9v1.6c0,26.8-20.8,40.3-62.4,40.3H52.4z
			 M52.4,80.6h57.7c12.9,0,19.4-4.3,19.4-12.9v-0.5c0-8.7-6.5-13-19.4-13H52.4V80.6z"/>
		<path class="st1" d="M328.8,25.9v27.9H229V72h97.5v28.1H229v20.2h101.7v28.6H187.5v-123H328.8z"/>
		<path class="st1" d="M500.1,115.7V149H462v-21.6c0-7.5-1.9-12.9-5.7-16.2c-3.8-3.4-10.3-5-19.6-5h-49.5V149h-38V28.3H447
			c35.1,0,52.6,10.4,52.6,31.3v1.9c0,12.8-7.5,21.6-22.5,26.5c6.8,1.9,12.4,5.2,16.6,9.8C498,102.4,500.1,108.4,500.1,115.7z
			 M460,67.4c0-3.5-1.2-6.3-3.7-8.4c-2.5-2.2-6.4-3.2-11.6-3.2h-57.5v23.7h57.5c5.2,0,9.1-1.1,11.6-3.2s3.7-5,3.7-8.6V67.4z"/>
	</g>
	<g class="st0">
		<path class="st1" d="M676.1,115.7V149h-38.1v-21.6c0-7.5-1.9-12.9-5.7-16.2c-3.8-3.4-10.3-5-19.6-5h-49.5V149h-38V28.3h97.8
			c35.1,0,52.6,10.4,52.6,31.3v1.9c0,12.8-7.5,21.6-22.5,26.5c6.8,1.9,12.4,5.2,16.6,9.8C673.9,102.4,676.1,108.4,676.1,115.7z
			 M636,67.4c0-3.5-1.2-6.3-3.7-8.4c-2.5-2.2-6.4-3.2-11.6-3.2h-57.5v23.7h57.5c5.2,0,9.1-1.1,11.6-3.2s3.7-5,3.7-8.6V67.4z"/>
		<path class="st1" d="M789.4,24.2c11.6,0,22.2,0.7,31.7,2.2s17.4,3.4,23.8,5.9c6.4,2.4,12,5.4,16.8,8.9c4.8,3.5,8.5,7,11.2,10.6
			c2.7,3.5,4.9,7.4,6.6,11.5c1.7,4.2,2.8,7.9,3.2,11.2c0.5,3.3,0.7,6.8,0.7,10.4v4.9c0,3.5-0.2,6.9-0.7,10.2
			c-0.5,3.3-1.6,7.1-3.2,11.3c-1.7,4.2-3.8,8.1-6.5,11.7c-2.6,3.6-6.4,7.1-11.2,10.7c-4.9,3.6-10.5,6.6-16.8,9.1s-14.3,4.5-23.8,6
			c-9.5,1.5-20.1,2.3-31.7,2.3h-5.7c-11.6,0-22.2-0.8-31.8-2.3c-9.6-1.5-17.6-3.5-23.9-6s-12-5.5-16.8-9.1
			c-4.9-3.6-8.6-7.1-11.3-10.7c-2.7-3.6-4.9-7.5-6.5-11.7c-1.6-4.2-2.7-8-3.1-11.3c-0.5-3.3-0.7-6.7-0.7-10.2v-4.9
			c0-3.6,0.2-7.1,0.7-10.3c0.5-3.2,1.5-7,3.1-11.2c1.6-4.2,3.8-8.1,6.5-11.6c2.7-3.5,6.4-7,11.2-10.6c4.8-3.5,10.4-6.5,16.8-8.9
			c6.4-2.4,14.4-4.4,24-5.9c9.6-1.5,20.2-2.2,31.8-2.2H789.4z M839.6,86c0-3.1-0.4-6-1.3-8.7c-0.8-2.7-2.5-5.6-4.9-8.6
			c-2.4-3-5.5-5.5-9.4-7.6c-3.8-2.1-9.1-3.8-15.6-5.2c-5.4-1.1-11.6-1.8-18.5-2c-1.5,0-4.6-0.1-5.7,0c-34,0.6-51,11.3-51,32.1v2
			c0,4,0.7,7.7,2.2,11.2s4,7,7.6,10.6c3.6,3.5,9.2,6.3,16.7,8.4c7,1.9,15.3,3,25.1,3.1c0.8,0,3,0,4.3,0c9-0.2,16.8-1.2,23.4-3
			c7.5-2,13.1-4.8,16.8-8.2c3.7-3.5,6.3-7,7.8-10.5c1.5-3.5,2.2-7.3,2.2-11.2V86z"/>
		<path class="st1" d="M1172.6,80.9v5.1c0,3.6-0.2,7.1-0.7,10.5c-0.5,3.4-1.5,7.2-3,11.6c-1.6,4.3-3.6,8.3-6.1,12c-2,3-4.8,6-8.2,9
			l11,11l-24.8,24.8l-19.7-19.7c-2.3,0.5-4.6,1-7.1,1.4c-9,1.6-18.9,2.4-29.9,2.4h-7.3c-11,0-20.9-0.8-30-2.4
			c-9-1.6-16.5-3.6-22.5-6.2c-6-2.5-11.3-5.6-15.8-9.3c-4.6-3.7-8.1-7.3-10.7-11c-2.5-3.7-4.6-7.6-6.1-12s-2.5-8.2-3-11.6
			c-0.5-3.4-0.7-6.9-0.7-10.5v-5.1c0-3.7,0.2-7.2,0.7-10.5c0.5-3.3,1.4-7.1,3-11.5s3.6-8.3,6.1-11.9c2.5-3.6,6.1-7.2,10.6-10.8
			c4.5-3.6,9.8-6.6,15.8-9.1c6-2.5,13.6-4.5,22.6-6c9-1.5,19-2.3,30-2.3h7.3c11,0,20.9,0.8,29.8,2.3c8.9,1.5,16.4,3.5,22.4,6
			c6,2.5,11.3,5.5,15.8,9.1c4.5,3.6,8,7.2,10.6,10.8c2.5,3.6,4.6,7.5,6.2,11.8c1.6,4.3,2.6,8.1,3,11.5
			C1172.4,73.6,1172.6,77.2,1172.6,80.9z M1126.5,100.9c1.1-1.6,2-3.3,2.6-5c1.4-3.6,2.1-7.4,2.1-11.5v-2.4c0-3.1-0.4-6.1-1.2-8.9
			c-0.8-2.8-2.3-5.7-4.6-8.8c-2.3-3-5.2-5.6-8.8-7.8c-3.6-2.1-8.5-3.9-14.7-5.3c-6.2-1.4-13.4-2.1-21.7-2.1c-34,0-51,11-51,32.9v2
			c0,4,0.7,7.9,2.1,11.5c1.4,3.6,3.8,7.2,7.2,10.8c3.4,3.6,8.6,6.5,15.8,8.6c7.1,2.1,15.8,3.2,25.9,3.2c4.8,0,9.2-0.3,13.3-0.7
			l-9.5-9.5l24.8-24.8L1126.5,100.9z"/>
		<path class="st1" d="M1359.9,25.5v59.1c0,5.1-0.6,10.3-1.9,15.5c-1.3,5.2-3.7,10.9-7.4,16.9c-3.7,6.1-8.4,11.4-14.2,15.9
			c-5.7,4.6-13.6,8.4-23.7,11.5c-10.1,3.1-21.6,4.6-34.7,4.6h-6.4c-9.9,0-19-0.8-27.1-2.4c-8.2-1.6-15.1-3.7-20.7-6.3
			c-5.6-2.6-10.6-5.8-14.9-9.5c-4.3-3.7-7.7-7.5-10.2-11.3c-2.5-3.8-4.6-7.9-6.2-12.3c-1.6-4.4-2.7-8.3-3.2-11.9
			c-0.5-3.6-0.8-7.2-0.8-10.8V25.5h41.9v56.8c0,4.4,0.6,8.4,1.9,12.2c1.3,3.8,3.4,7.5,6.4,11.1c3,3.7,7.6,6.5,13.7,8.7
			c6.1,2.1,13.5,3.2,22.1,3.2c8.5,0,15.7-1.1,21.8-3.2c6-2.1,10.6-5,13.6-8.7c3-3.7,5.2-7.4,6.4-11.1c1.3-3.8,1.9-7.8,1.9-12.2V25.5
			H1359.9z"/>
		<path class="st1" d="M1522.2,25.9v27.9h-99.9V72h97.5v28.1h-97.5v20.2H1524v28.6h-143.1v-123H1522.2z"/>
	</g>
	<g class="st0">
		<path class="st1" d="M202.4,236.8V329h93v30.5H160.5V236.8H202.4z"/>
		<path class="st1" d="M765.8,359.5h-41.6l-11.6-22.4H361.4l-11.6,22.4h-41.6l66-122.4h325.5L765.8,359.5z M698.3,309.5l-23.4-44.9
			H399.1l-23.4,44.9v0H698.3z"/>
		<path class="st1" d="M875.7,236.4c12.5,0,23.8,0.8,33.9,2.3c10.1,1.5,18.5,3.8,25.2,6.7s12.5,6.2,17.3,9.8
			c4.8,3.6,8.5,7.6,11,12.2c2.5,4.5,4.4,9,5.5,13.3c1.1,4.4,1.7,9,1.7,14v5c0,5.8-0.7,11.3-2.2,16.5c-1.4,5.1-4.3,10.4-8.6,16
			s-9.8,10.2-16.5,14.1c-6.7,3.9-15.9,7.1-27.4,9.6c-11.5,2.5-24.8,3.8-39.8,3.8h-89.1v-123H875.7z M828.8,329.8h43.6
			c35.9,0,53.9-10.6,53.9-31.7v-1c0-21.1-18-31.6-53.9-31.6h-43.6V329.8z"/>
		<path class="st1" d="M1137,326.2v33.3h-38.1v-21.6c0-7.5-1.9-12.9-5.7-16.2c-3.8-3.4-10.3-5-19.6-5h-49.5v42.8h-38V238.7h97.8
			c35.1,0,52.6,10.4,52.6,31.3v1.9c0,12.8-7.5,21.6-22.5,26.5c6.8,1.9,12.4,5.2,16.6,9.8C1134.9,312.9,1137,318.9,1137,326.2z
			 M1096.9,277.8c0-3.5-1.2-6.3-3.7-8.4c-2.5-2.2-6.4-3.2-11.6-3.2h-57.5v23.7h57.5c5.2,0,9.1-1.1,11.6-3.2s3.7-5,3.7-8.6V277.8z"/>
		<path class="st1" d="M1337.5,359.3h-41.1l-11.5-22.2h-87.5l-11.5,22.2h-41.1l65.2-121.4h62.2L1337.5,359.3z M1211.5,309.7h59.3
			l-23.1-44.6h-13.1L1211.5,309.7L1211.5,309.7z"/>
		<path class="st1" d="M1357.1,363.2h-15.7V339h36.4v20.1c0,2.6-0.7,5.6-2.2,8.9c-1.5,3.4-3.1,6.3-4.9,8.8h-19.2
			C1354.7,371.3,1356.5,366.7,1357.1,363.2z"/>
	</g>
	<g class="st0">
		<path class="st1" d="M60.7,447.3h59.5l46.2,76.4l46.4-76.4h57.4V570h-41.4v-85l-52.7,85h-22.5l-52.7-85v85H60.7V447.3z"/>
		<path class="st1" d="M462.7,446.5v59.1c0,5.1-0.6,10.3-1.9,15.5c-1.3,5.2-3.7,10.9-7.4,16.9c-3.7,6.1-8.4,11.4-14.2,15.9
			c-5.7,4.6-13.6,8.4-23.7,11.5c-10.1,3.1-21.6,4.6-34.7,4.6h-6.5c-9.9,0-19-0.8-27.1-2.4c-8.2-1.6-15.1-3.7-20.7-6.3
			c-5.6-2.6-10.6-5.8-14.9-9.5c-4.3-3.7-7.7-7.5-10.2-11.3c-2.5-3.8-4.6-7.9-6.2-12.3s-2.7-8.3-3.2-11.9c-0.5-3.6-0.8-7.2-0.8-10.8
			v-59.1h41.9v56.8c0,4.4,0.6,8.4,1.9,12.2c1.3,3.8,3.4,7.5,6.4,11.1c3,3.7,7.6,6.5,13.7,8.7c6.1,2.1,13.5,3.2,22.1,3.2
			c8.5,0,15.7-1.1,21.8-3.2c6-2.1,10.6-5,13.6-8.7c3-3.7,5.2-7.4,6.4-11.1c1.3-3.8,1.9-7.8,1.9-12.2v-56.8H462.7z"/>
		<path class="st1" d="M943.2,541.1V570H483.7v-124h457.6v28.2H525.7v18.3H939v28.3H525.7v20.3H943.2z"/>
		<path class="st1" d="M1112.8,536.7V570h-38.1v-21.6c0-7.5-1.9-12.9-5.7-16.2c-3.8-3.4-10.3-5-19.6-5h-49.5V570h-38V449.2h97.8
			c35.1,0,52.6,10.4,52.6,31.3v1.9c0,12.8-7.5,21.6-22.5,26.5c6.8,1.9,12.4,5.2,16.6,9.8C1110.7,523.4,1112.8,529.3,1112.8,536.7z
			 M1072.7,488.3c0-3.5-1.2-6.3-3.7-8.4c-2.5-2.2-6.4-3.2-11.6-3.2h-57.5v23.7h57.5c5.2,0,9.1-1.1,11.6-3.2s3.7-5,3.7-8.6V488.3z"/>
		<path class="st1" d="M1220.4,446.8c12.5,0,23.8,0.8,33.9,2.3c10.1,1.5,18.5,3.8,25.2,6.7s12.5,6.2,17.3,9.8
			c4.8,3.6,8.5,7.6,11,12.2c2.5,4.5,4.4,9,5.5,13.3c1.1,4.4,1.7,9,1.7,14v5c0,5.8-0.7,11.3-2.2,16.5c-1.4,5.1-4.3,10.4-8.6,16
			c-4.3,5.5-9.8,10.2-16.5,14.1c-6.7,3.9-15.9,7.1-27.4,9.6c-11.5,2.5-24.8,3.8-39.8,3.8h-89.1v-123H1220.4z M1173.5,540.3h43.6
			c35.9,0,53.9-10.6,53.9-31.7v-1c0-21.1-18-31.6-53.9-31.6h-43.6V540.3z"/>
		<path class="st1" d="M1472.1,446.8v27.9h-99.9V493h97.5v28.1h-97.5v20.2h101.7v28.6h-143.1v-123H1472.1z"/>
	</g>
</g>
</svg>
