<svg width="752" height="42" viewBox="0 0 752 42" fill="none" xmlns="http://www.w3.org/2000/svg">
<path d="M25.9191 41.728H29.8391C33.9831 41.728 37.6231 41.504 40.7031 40.944C43.7831 40.44 46.1911 39.824 47.9831 38.984C49.7751 38.2 51.1751 37.192 52.2391 36.016C53.3031 34.784 54.0311 33.608 54.3671 32.488C54.7031 31.368 54.8711 30.08 54.8711 28.624V27.896C54.8711 23.92 53.1351 21.064 49.5511 19.216C46.0231 17.368 40.3111 16.36 32.3031 16.248L28.2711 16.192L25.1351 16.136C22.3911 16.08 20.2631 15.912 18.7511 15.576C17.2391 15.184 16.2871 14.792 15.8951 14.4C15.4471 13.952 15.2791 13.448 15.2791 12.776C15.2791 12.048 15.4471 11.488 15.8391 11.096C16.1751 10.704 17.2391 10.312 18.9191 9.92C20.6551 9.584 22.6711 9.416 25.9191 9.416H27.8791C30.0071 9.416 31.2391 9.528 32.8071 9.752C34.3751 10.032 35.6071 10.312 36.3911 10.592C37.2311 10.928 37.8471 11.32 38.3511 11.824C38.8551 12.328 39.1911 12.72 39.3031 13C39.4151 13.28 39.5271 13.672 39.6391 14.064H53.5271V13.56C53.5271 12.272 53.3031 11.096 52.8551 9.976C52.4631 8.912 51.6791 7.792 50.5591 6.672C49.4391 5.552 47.9831 4.6 46.1911 3.816C44.3991 3.032 42.0471 2.416 39.0231 1.912C36.0551 1.408 32.5831 1.184 28.7191 1.184H24.7431C20.9911 1.184 17.6871 1.408 14.8871 1.912C12.0311 2.36 9.79106 2.976 8.11106 3.704C6.43106 4.432 5.08706 5.328 4.07906 6.392C3.01506 7.512 2.34306 8.576 2.00706 9.64C1.67106 10.704 1.50306 11.88 1.50306 13.112V13.616C1.50306 20.896 8.44706 24.76 22.3351 25.096L25.4711 25.152L29.6711 25.264C32.8631 25.32 35.2711 25.544 36.9511 25.88C38.6311 26.272 39.7511 26.72 40.1991 27.168C40.6471 27.672 40.8711 28.344 40.8711 29.184C40.8711 29.8 40.7591 30.304 40.4791 30.752C40.1991 31.2 39.6951 31.592 38.8551 32.04C38.0711 32.488 36.7831 32.768 35.0471 32.992C33.2551 33.216 32.1351 33.384 29.4471 33.384H26.3671C18.1911 33.384 15.1671 31.312 14.8871 27.168H0.943063V27.728C0.943063 28.96 1.05506 30.136 1.33506 31.2C1.61506 32.264 2.28706 33.496 3.29506 34.84C4.30306 36.184 5.70306 37.36 7.38306 38.312C9.11906 39.264 11.5831 40.048 14.7751 40.72C17.9111 41.392 21.6631 41.728 25.9191 41.728ZM205.973 17.144C205.861 16.136 205.525 14.96 205.077 13.672C204.573 12.384 203.957 11.208 203.173 10.088C202.389 8.968 201.325 7.904 199.981 6.784C198.581 5.72 196.957 4.768 195.165 4.04C193.317 3.256 191.021 2.696 188.333 2.192C185.589 1.744 182.565 1.52 179.261 1.52H85.4611C82.1011 1.52 79.0771 1.744 76.3331 2.192C73.5891 2.696 71.2931 3.256 69.4451 4.04C67.5971 4.768 65.9731 5.72 64.6291 6.784C63.2291 7.904 62.1651 8.968 61.3811 10.088C60.6531 11.208 60.0371 12.384 59.5331 13.728C59.0851 15.016 58.8051 16.192 58.6371 17.2C58.5251 18.208 58.4691 19.272 58.4691 20.392V21.96C58.4691 23.024 58.5251 24.088 58.6371 25.096C58.8051 26.16 59.0851 27.336 59.5331 28.624C60.0371 29.968 60.6531 31.144 61.3811 32.264C62.1651 33.384 63.2851 34.504 64.6291 35.624C66.0291 36.744 67.6531 37.64 69.4451 38.424C71.2931 39.208 73.5891 39.824 76.3331 40.328C79.0771 40.776 82.1011 41 85.4611 41H179.261C182.565 41 185.589 40.776 188.333 40.328C191.077 39.824 193.373 39.208 195.165 38.424C197.013 37.64 198.581 36.744 199.981 35.624C201.381 34.504 202.445 33.384 203.229 32.264C203.957 31.144 204.573 29.968 205.077 28.624C205.525 27.336 205.861 26.16 205.973 25.096C206.141 24.088 206.197 23.024 206.197 21.96V20.392C206.197 19.272 206.141 18.208 205.973 17.144ZM193.597 21.456C193.597 22.688 193.429 23.864 192.981 24.984C192.533 26.048 191.805 27.168 190.741 28.232C189.677 29.296 188.053 30.136 185.925 30.808C183.965 31.368 181.557 31.704 178.813 31.76C178.589 31.76 86.7491 31.76 86.5251 31.76C83.4451 31.76 80.8131 31.424 78.6291 30.752C76.5011 30.136 74.8771 29.24 73.8691 28.176C72.8051 27.056 72.0771 25.936 71.6851 24.872C71.2371 23.752 71.0131 22.632 71.0131 21.4V20.784C71.0131 14.064 76.1651 10.76 86.5251 10.76C86.7491 10.76 178.589 10.76 178.813 10.76C181.053 10.816 183.013 10.984 184.693 11.376C186.597 11.824 188.109 12.384 189.173 13C190.293 13.672 191.189 14.456 191.861 15.352C192.533 16.304 193.037 17.2 193.261 18.04C193.485 18.88 193.597 19.776 193.597 20.784V21.456ZM211.305 41.056H224.129V13.896L240.985 41.056H248.153L264.953 13.896V41.056H278.169V1.856H259.857L245.017 26.272L230.289 1.856H211.305V41.056ZM313.361 1.184C309.609 1.184 306.249 1.408 303.169 1.912C300.145 2.36 297.569 2.976 295.497 3.76C293.481 4.544 291.689 5.496 290.177 6.616C288.609 7.736 287.433 8.856 286.537 9.976C285.697 11.096 285.025 12.328 284.521 13.672C283.961 15.016 283.625 16.248 283.513 17.256C283.345 18.32 283.289 19.384 283.289 20.56V22.128C283.289 23.248 283.345 24.368 283.513 25.432C283.625 26.44 283.961 27.672 284.521 29.016C285.025 30.36 285.697 31.592 286.537 32.768C287.433 33.888 288.609 35.008 290.177 36.184C291.745 37.304 293.537 38.256 295.553 39.096C297.569 39.88 300.145 40.496 303.169 41C306.249 41.504 309.609 41.728 313.361 41.728H315.153C318.905 41.728 322.265 41.504 325.289 41C328.369 40.496 330.889 39.88 332.905 39.096C334.921 38.256 336.713 37.304 338.281 36.184C339.849 35.008 341.025 33.888 341.865 32.768C342.705 31.592 343.377 30.36 343.937 29.016C344.441 27.672 344.833 26.44 344.945 25.432C345.113 24.368 345.169 23.248 345.169 22.128V20.56C345.169 19.384 345.113 18.32 344.945 17.256C344.833 16.192 344.441 15.016 343.937 13.672C343.377 12.328 342.705 11.096 341.809 9.976C340.969 8.856 339.793 7.736 338.225 6.616C336.713 5.496 334.921 4.544 332.905 3.76C330.833 2.976 328.313 2.36 325.289 1.912C322.265 1.408 318.905 1.184 315.153 1.184H313.361ZM331.169 21.68C331.169 22.912 330.945 24.144 330.441 25.264C329.993 26.384 329.153 27.504 327.977 28.568C326.801 29.688 325.009 30.584 322.601 31.2C320.529 31.816 318.009 32.096 315.153 32.208C314.705 32.208 314.033 32.208 313.753 32.208C310.673 32.152 307.985 31.816 305.745 31.2C303.337 30.528 301.601 29.632 300.425 28.512C299.305 27.392 298.465 26.272 298.017 25.152C297.513 24.032 297.289 22.8 297.289 21.568V20.952C297.289 14.288 302.721 10.872 313.529 10.648C313.865 10.648 314.873 10.648 315.377 10.704C317.561 10.76 319.521 10.928 321.257 11.32C323.329 11.768 325.009 12.328 326.241 13C327.473 13.616 328.481 14.456 329.209 15.408C329.993 16.36 330.497 17.256 330.777 18.152C331.057 18.992 331.169 19.944 331.169 20.952V21.68ZM373.786 41.728H377.706C381.85 41.728 385.49 41.504 388.57 40.944C391.65 40.44 394.058 39.824 395.85 38.984C397.642 38.2 399.042 37.192 400.106 36.016C401.17 34.784 401.898 33.608 402.234 32.488C402.57 31.368 402.738 30.08 402.738 28.624V27.896C402.738 23.92 401.002 21.064 397.418 19.216C393.89 17.368 388.178 16.36 380.17 16.248L376.138 16.192L373.002 16.136C370.258 16.08 368.13 15.912 366.618 15.576C365.106 15.184 364.154 14.792 363.762 14.4C363.314 13.952 363.146 13.448 363.146 12.776C363.146 12.048 363.314 11.488 363.706 11.096C364.042 10.704 365.106 10.312 366.786 9.92C368.522 9.584 370.538 9.416 373.786 9.416H375.746C377.874 9.416 379.106 9.528 380.674 9.752C382.242 10.032 383.474 10.312 384.258 10.592C385.098 10.928 385.714 11.32 386.218 11.824C386.722 12.328 387.058 12.72 387.17 13C387.282 13.28 387.394 13.672 387.506 14.064H401.394V13.56C401.394 12.272 401.17 11.096 400.722 9.976C400.33 8.912 399.546 7.792 398.426 6.672C397.306 5.552 395.85 4.6 394.058 3.816C392.266 3.032 389.914 2.416 386.89 1.912C383.922 1.408 380.45 1.184 376.586 1.184H372.61C368.858 1.184 365.554 1.408 362.754 1.912C359.898 2.36 357.658 2.976 355.978 3.704C354.298 4.432 352.954 5.328 351.946 6.392C350.882 7.512 350.21 8.576 349.874 9.64C349.538 10.704 349.37 11.88 349.37 13.112V13.616C349.37 20.896 356.314 24.76 370.202 25.096L373.338 25.152L377.538 25.264C380.73 25.32 383.138 25.544 384.818 25.88C386.498 26.272 387.618 26.72 388.066 27.168C388.514 27.672 388.738 28.344 388.738 29.184C388.738 29.8 388.626 30.304 388.346 30.752C388.066 31.2 387.562 31.592 386.722 32.04C385.938 32.488 384.65 32.768 382.914 32.992C381.122 33.216 380.002 33.384 377.314 33.384H374.234C366.058 33.384 363.034 31.312 362.754 27.168H348.81V27.728C348.81 28.96 348.922 30.136 349.202 31.2C349.482 32.264 350.154 33.496 351.162 34.84C352.17 36.184 353.57 37.36 355.25 38.312C356.986 39.264 359.45 40.048 362.642 40.72C365.778 41.392 369.53 41.728 373.786 41.728ZM438.04 1.744V41H483.736V31.872H451.256V25.432H482.392V16.472H451.256V10.648H483.12V1.744H438.04ZM628.937 18.32C625.353 16.472 619.529 15.464 611.465 15.352L607.377 15.24H512.737C509.937 15.184 507.753 15.016 506.241 14.624C504.729 14.288 503.721 13.896 503.329 13.448C502.937 13.056 502.713 12.496 502.713 11.824C502.713 11.096 502.881 10.536 503.273 10.144C503.665 9.752 504.673 9.36 506.465 8.968C508.201 8.632 510.217 8.408 513.465 8.408H606.985C609.113 8.408 610.345 8.52 611.969 8.8C613.537 9.024 614.769 9.304 615.553 9.64C616.393 9.976 617.065 10.368 617.569 10.872C618.073 11.376 618.353 11.768 618.521 12.048C618.633 12.384 618.745 12.72 618.857 13.168H632.913V12.608C632.913 11.32 632.689 10.144 632.241 9.024C631.849 7.904 631.065 6.784 629.889 5.664C628.769 4.544 627.313 3.592 625.465 2.808C623.673 2.024 621.265 1.352 618.241 0.903999C615.217 0.399999 611.745 0.119999 607.769 0.119999H512.289C508.537 0.119999 505.177 0.399999 502.321 0.848C499.465 1.352 497.169 1.968 495.489 2.696C493.809 3.424 492.409 4.32 491.401 5.44C490.337 6.504 489.609 7.568 489.273 8.632C488.937 9.752 488.769 10.928 488.769 12.216V12.664C488.769 20.056 495.825 23.864 509.881 24.256L513.073 24.312L608.777 24.424C611.969 24.48 614.433 24.704 616.169 25.096C617.849 25.432 618.969 25.88 619.417 26.384C619.865 26.888 620.089 27.56 620.089 28.4C620.089 29.016 619.977 29.52 619.697 29.968C619.417 30.416 618.913 30.808 618.073 31.256C617.289 31.704 615.945 31.984 614.153 32.264C612.417 32.488 611.241 32.6 608.553 32.6H513.913C505.681 32.6 502.601 30.472 502.321 26.328H488.209V26.888C488.209 28.12 488.321 29.296 488.601 30.416C488.881 31.48 489.553 32.712 490.617 34.112C491.625 35.456 493.025 36.632 494.761 37.584C496.497 38.536 498.961 39.32 502.209 39.992C505.401 40.664 509.153 41 513.465 41H608.945C613.145 41 616.785 40.776 619.921 40.272C623.001 39.768 625.465 39.096 627.313 38.256C629.105 37.472 630.561 36.464 631.625 35.232C632.689 34.056 633.417 32.88 633.753 31.704C634.145 30.584 634.313 29.24 634.313 27.784V27.056C634.313 23.08 632.521 20.168 628.937 18.32ZM655.131 41.056H668.627V11.152H687.051V1.856H636.763V11.152H655.131V41.056ZM719.416 1.184C715.664 1.184 712.304 1.408 709.224 1.912C706.2 2.36 703.624 2.976 701.552 3.76C699.536 4.544 697.744 5.496 696.232 6.616C694.664 7.736 693.488 8.856 692.592 9.976C691.752 11.096 691.08 12.328 690.576 13.672C690.016 15.016 689.68 16.248 689.568 17.256C689.4 18.32 689.344 19.384 689.344 20.56V22.128C689.344 23.248 689.4 24.368 689.568 25.432C689.68 26.44 690.016 27.672 690.576 29.016C691.08 30.36 691.752 31.592 692.592 32.768C693.488 33.888 694.664 35.008 696.232 36.184C697.8 37.304 699.592 38.256 701.608 39.096C703.624 39.88 706.2 40.496 709.224 41C712.304 41.504 715.664 41.728 719.416 41.728H721.208C724.96 41.728 728.32 41.504 731.344 41C734.424 40.496 736.944 39.88 738.96 39.096C740.976 38.256 742.768 37.304 744.336 36.184C745.904 35.008 747.08 33.888 747.92 32.768C748.76 31.592 749.432 30.36 749.992 29.016C750.496 27.672 750.888 26.44 751 25.432C751.168 24.368 751.224 23.248 751.224 22.128V20.56C751.224 19.384 751.168 18.32 751 17.256C750.888 16.192 750.496 15.016 749.992 13.672C749.432 12.328 748.76 11.096 747.864 9.976C747.024 8.856 745.848 7.736 744.28 6.616C742.768 5.496 740.976 4.544 738.96 3.76C736.888 2.976 734.368 2.36 731.344 1.912C728.32 1.408 724.96 1.184 721.208 1.184H719.416ZM737.224 21.68C737.224 22.912 737 24.144 736.496 25.264C736.048 26.384 735.208 27.504 734.032 28.568C732.856 29.688 731.064 30.584 728.656 31.2C726.584 31.816 724.064 32.096 721.208 32.208C720.76 32.208 720.088 32.208 719.808 32.208C716.728 32.152 714.04 31.816 711.8 31.2C709.392 30.528 707.656 29.632 706.48 28.512C705.36 27.392 704.52 26.272 704.072 25.152C703.568 24.032 703.344 22.8 703.344 21.568V20.952C703.344 14.288 708.776 10.872 719.584 10.648C719.92 10.648 720.928 10.648 721.432 10.704C723.616 10.76 725.576 10.928 727.312 11.32C729.384 11.768 731.064 12.328 732.296 13C733.528 13.616 734.536 14.456 735.264 15.408C736.048 16.36 736.552 17.256 736.832 18.152C737.112 18.992 737.224 19.944 737.224 20.952V21.68Z" fill="white"/>
</svg>
