<svg width="351" height="99" viewBox="0 0 351 99" fill="none" xmlns="http://www.w3.org/2000/svg">
<path d="M68.5926 27.008C81.8646 27.008 88.4726 22.696 88.4726 14.128V13.624C88.4726 5.112 81.8646 0.855997 68.5926 0.855997H36.5606V40.056H49.8886V27.008H68.5926ZM49.8886 9.76H68.3686C72.4566 9.76 74.5286 11.16 74.5286 13.904V14.072C74.5286 16.816 72.4566 18.216 68.3686 18.216H49.8886V9.76ZM93.0528 0.743998V40H138.749V30.872H106.269V24.432H137.405V15.472H106.269V9.648H138.133V0.743998H93.0528ZM190.822 23.704C189.478 22.192 187.686 21.184 185.502 20.568C190.262 19 192.67 16.2 192.67 12.112V11.496C192.67 4.832 187.07 1.472 175.87 1.472H144.678V40H156.774V26.336H172.566C175.534 26.336 177.606 26.896 178.838 27.96C180.07 29.024 180.686 30.76 180.686 33.112V40H192.838V29.416C192.838 27.064 192.166 25.16 190.822 23.704ZM180.014 14.016C180.014 15.136 179.622 16.088 178.838 16.76C178.054 17.432 176.822 17.824 175.142 17.824H156.774V10.208H175.142C176.822 10.208 178.054 10.6 178.838 11.272C179.622 11.944 180.014 12.84 180.014 13.96V14.016ZM245.866 23.704C244.522 22.192 242.73 21.184 240.546 20.568C245.306 19 247.714 16.2 247.714 12.112V11.496C247.714 4.832 242.114 1.472 230.914 1.472H199.722V40H211.818V26.336H227.61C230.578 26.336 232.65 26.896 233.882 27.96C235.114 29.024 235.73 30.76 235.73 33.112V40H247.882V29.416C247.882 27.064 247.21 25.16 245.866 23.704ZM235.058 14.016C235.058 15.136 234.666 16.088 233.882 16.76C233.098 17.432 231.866 17.824 230.186 17.824H211.818V10.208H230.186C231.866 10.208 233.098 10.6 233.882 11.272C234.666 11.944 235.058 12.84 235.058 13.96V14.016ZM282.255 0.183999C278.503 0.183999 275.143 0.407999 272.063 0.911999C269.039 1.36 266.463 1.976 264.391 2.76C262.375 3.544 260.583 4.496 259.071 5.616C257.503 6.736 256.327 7.856 255.431 8.976C254.591 10.096 253.919 11.328 253.415 12.672C252.855 14.016 252.519 15.248 252.407 16.256C252.239 17.32 252.183 18.384 252.183 19.56V21.128C252.183 22.248 252.239 23.368 252.407 24.432C252.519 25.44 252.855 26.672 253.415 28.016C253.919 29.36 254.591 30.592 255.431 31.768C256.327 32.888 257.503 34.008 259.071 35.184C260.639 36.304 262.431 37.256 264.447 38.096C266.463 38.88 269.039 39.496 272.063 40C275.143 40.504 278.503 40.728 282.255 40.728H284.047C287.799 40.728 291.159 40.504 294.183 40C297.263 39.496 299.783 38.88 301.799 38.096C303.815 37.256 305.607 36.304 307.175 35.184C308.743 34.008 309.919 32.888 310.759 31.768C311.599 30.592 312.271 29.36 312.831 28.016C313.335 26.672 313.727 25.44 313.839 24.432C314.007 23.368 314.063 22.248 314.063 21.128V19.56C314.063 18.384 314.007 17.32 313.839 16.256C313.727 15.192 313.335 14.016 312.831 12.672C312.271 11.328 311.599 10.096 310.703 8.976C309.863 7.856 308.687 6.736 307.119 5.616C305.607 4.496 303.815 3.544 301.799 2.76C299.727 1.976 297.207 1.36 294.183 0.911999C291.159 0.407999 287.799 0.183999 284.047 0.183999H282.255ZM300.063 20.68C300.063 21.912 299.839 23.144 299.335 24.264C298.887 25.384 298.047 26.504 296.871 27.568C295.695 28.688 293.903 29.584 291.495 30.2C289.423 30.816 286.903 31.096 284.047 31.208C283.599 31.208 282.927 31.208 282.647 31.208C279.567 31.152 276.879 30.816 274.639 30.2C272.231 29.528 270.495 28.632 269.319 27.512C268.199 26.392 267.359 25.272 266.911 24.152C266.407 23.032 266.183 21.8 266.183 20.568V19.952C266.183 13.288 271.615 9.872 282.423 9.648C282.759 9.648 283.767 9.648 284.271 9.704C286.455 9.76 288.415 9.928 290.151 10.32C292.223 10.768 293.903 11.328 295.135 12C296.367 12.616 297.375 13.456 298.103 14.408C298.887 15.36 299.391 16.256 299.671 17.152C299.951 17.992 300.063 18.944 300.063 19.952V20.68ZM28.7843 98.672H31.1363C35.7843 98.672 39.9283 98.28 43.5123 97.496C47.0963 96.656 49.8963 95.648 51.8563 94.528C53.8723 93.352 55.4963 92.008 56.7843 90.496C58.0163 88.928 58.8563 87.584 59.3043 86.352C59.6963 85.12 59.8643 83.888 59.8643 82.712V82.152H45.6403C45.6403 82.208 45.6403 82.264 45.5843 82.32C44.0163 86.856 38.8643 89.152 30.0723 89.152C27.1043 89.152 24.5283 88.816 22.3443 88.144C20.1603 87.472 18.5363 86.576 17.4163 85.456C16.2963 84.336 15.4563 83.216 14.9523 82.04C14.4483 80.864 14.1683 79.632 14.1683 78.344V77.728C14.1683 76.384 14.3923 75.152 14.8963 74.032C15.3443 72.912 16.1283 71.848 17.1923 70.784C18.3123 69.776 19.9363 68.992 22.1203 68.432C24.2483 67.816 26.8803 67.536 29.9603 67.536C32.5363 67.536 34.7763 67.76 36.7923 68.152C38.7523 68.544 40.2643 68.992 41.2723 69.496C42.2803 70 43.1203 70.616 43.8483 71.344C44.5763 72.072 45.0243 72.632 45.1923 72.968C45.3603 73.304 45.4723 73.64 45.5843 74.088H59.8083V73.472C59.8083 72.408 59.6403 71.288 59.3043 70.112C58.9123 68.936 58.1283 67.592 56.8403 66.08C55.6083 64.568 53.9843 63.28 52.0243 62.104C50.0643 60.984 47.2643 60.032 43.6803 59.192C40.0403 58.408 35.8963 58.016 31.1363 58.016H28.7843C23.9683 58.016 19.7123 58.464 16.1283 59.416C12.4883 60.312 9.68828 61.432 7.72828 62.776C5.76828 64.12 4.20028 65.744 2.96828 67.592C1.79228 69.44 1.00828 71.12 0.672281 72.632C0.336281 74.144 0.168281 75.768 0.168281 77.448V79.016C0.168281 80.08 0.224281 81.144 0.392281 82.264C0.560281 83.328 0.952281 84.56 1.51228 85.904C2.07228 87.248 2.74428 88.48 3.58428 89.656C4.42428 90.832 5.60028 91.952 7.11228 93.128C8.62428 94.248 10.3043 95.2 12.2643 96.04C14.1683 96.824 16.5763 97.44 19.4323 97.944C22.2883 98.448 25.3683 98.672 28.7843 98.672ZM111.102 81.704C109.758 80.192 107.966 79.184 105.782 78.568C110.542 77 112.95 74.2 112.95 70.112V69.496C112.95 62.832 107.35 59.472 96.1497 59.472H64.9577V98H77.0537V84.336H92.8457C95.8137 84.336 97.8857 84.896 99.1177 85.96C100.35 87.024 100.966 88.76 100.966 91.112V98H113.118V87.416C113.118 85.064 112.446 83.16 111.102 81.704ZM100.294 72.016C100.294 73.136 99.9017 74.088 99.1177 74.76C98.3337 75.432 97.1017 75.824 95.4217 75.824H77.0537V68.208H95.4217C97.1017 68.208 98.3337 68.6 99.1177 69.272C99.9017 69.944 100.294 70.84 100.294 71.96V72.016ZM132.482 88.816V82.32H264.418V73.248H132.482V67.424H265.146V58.408H119.098V98H265.762V88.816H132.482ZM300.291 97.552L308.803 74.592H311.043L320.059 97.552H333.331L350.411 58.856H337.419L326.779 84.728L318.379 65.296H301.355L293.683 85.456L282.819 58.856H268.427L285.731 97.552H300.291Z" fill="white"/>
</svg>
