<svg width="823" height="212" viewBox="0 0 823 212" fill="none" xmlns="http://www.w3.org/2000/svg">
<path d="M34.48 55.488H39.8C45.424 55.488 50.364 55.184 54.544 54.424C58.724 53.74 61.992 52.904 64.424 51.764C66.856 50.7 68.756 49.332 70.2 47.736C71.644 46.064 72.632 44.468 73.088 42.948C73.544 41.428 73.772 39.68 73.772 37.704V36.716C73.772 31.32 71.416 27.444 66.552 24.936C61.764 22.428 54.012 21.06 43.144 20.908L37.672 20.832L33.416 20.756C29.692 20.68 26.804 20.452 24.752 19.996C22.7 19.464 21.408 18.932 20.876 18.4C20.268 17.792 20.04 17.108 20.04 16.196C20.04 15.208 20.268 14.448 20.8 13.916C21.256 13.384 22.7 12.852 24.98 12.32C27.336 11.864 30.072 11.636 34.48 11.636H37.14C40.028 11.636 41.7 11.788 43.828 12.092C45.956 12.472 47.628 12.852 48.692 13.232C49.832 13.688 50.668 14.22 51.352 14.904C52.036 15.588 52.492 16.12 52.644 16.5C52.796 16.88 52.948 17.412 53.1 17.944H71.948V17.26C71.948 15.512 71.644 13.916 71.036 12.396C70.504 10.952 69.44 9.432 67.92 7.912C66.4 6.392 64.424 5.1 61.992 4.036C59.56 2.972 56.368 2.136 52.264 1.452C48.236 0.767999 43.524 0.463998 38.28 0.463998H32.884C27.792 0.463998 23.308 0.767999 19.508 1.452C15.632 2.06 12.592 2.896 10.312 3.884C8.032 4.872 6.208 6.088 4.84 7.532C3.396 9.052 2.484 10.496 2.028 11.94C1.572 13.384 1.344 14.98 1.344 16.652V17.336C1.344 27.216 10.768 32.46 29.616 32.916L33.872 32.992L39.572 33.144C43.904 33.22 47.172 33.524 49.452 33.98C51.732 34.512 53.252 35.12 53.86 35.728C54.468 36.412 54.772 37.324 54.772 38.464C54.772 39.3 54.62 39.984 54.24 40.592C53.86 41.2 53.176 41.732 52.036 42.34C50.972 42.948 49.224 43.328 46.868 43.632C44.436 43.936 42.916 44.164 39.268 44.164H35.088C23.992 44.164 19.888 41.352 19.508 35.728H0.584V36.488C0.584 38.16 0.736 39.756 1.116 41.2C1.496 42.644 2.408 44.316 3.776 46.14C5.144 47.964 7.044 49.56 9.324 50.852C11.68 52.144 15.024 53.208 19.356 54.12C23.612 55.032 28.704 55.488 34.48 55.488ZM129.989 1.908H103.009L74.8128 54.424H92.5968L97.5368 44.848H135.461L140.401 54.424H158.261L129.989 1.908ZM103.693 32.992L113.649 13.688H119.349L129.381 32.992H103.693ZM358.5 32.156C357.588 30.408 356.372 29.04 354.928 28.052C353.484 27.064 352.116 26.304 350.9 25.772C349.684 25.24 348.468 24.86 347.176 24.556C348.088 24.328 349 23.948 349.836 23.568C350.748 23.112 351.736 22.504 352.876 21.668C353.94 20.908 354.852 19.844 355.536 18.552C356.144 17.184 356.524 15.74 356.524 14.068V13.08C356.524 9.432 354.852 6.544 351.584 4.188C348.316 1.908 342.768 0.767999 335.016 0.767999H161.584V54.5H335.472C351.736 54.5 359.792 49.408 359.792 39.072V38.084C359.792 35.88 359.412 33.904 358.5 32.156ZM179.976 12.168H331.824C336.08 12.168 338.208 13.536 338.208 16.424V16.576C338.208 19.464 336.08 20.908 331.824 20.908H179.976V12.168ZM340.716 37.552C340.716 38.92 340.184 40.212 339.12 41.276C338.056 42.34 336.156 42.872 333.42 42.872H179.976V32.308H333.42C338.284 32.308 340.716 33.98 340.716 37.248V37.552ZM422.99 0.995996V25.62C422.99 27.52 422.686 29.268 422.154 30.864C421.622 32.536 420.71 34.132 419.342 35.728C418.05 37.324 416.074 38.54 413.49 39.452C410.83 40.364 407.714 40.896 404.066 40.896C400.342 40.896 397.15 40.364 394.49 39.452C391.754 38.54 389.778 37.324 388.486 35.728C387.194 34.132 386.282 32.536 385.75 30.864C385.218 29.268 384.914 27.52 384.914 25.62V0.995996H366.826V26.608C366.826 28.204 366.902 29.724 367.13 31.32C367.358 32.84 367.814 34.588 368.498 36.488C369.258 38.388 370.094 40.136 371.234 41.808C372.298 43.404 373.742 45.076 375.642 46.672C377.466 48.268 379.67 49.636 382.102 50.776C384.534 51.916 387.498 52.828 391.07 53.512C394.566 54.196 398.518 54.5 402.774 54.5H405.586C411.21 54.5 416.226 53.892 420.634 52.524C424.966 51.232 428.386 49.56 430.894 47.584C433.402 45.608 435.454 43.328 437.05 40.668C438.646 38.084 439.71 35.576 440.242 33.372C440.774 31.092 441.078 28.812 441.078 26.608V0.995996H422.99ZM450.173 1.224V54.5H512.189V42.112H468.109V33.372H510.365V21.212H468.109V13.308H511.353V1.224H450.173ZM552.156 55.488H557.476C563.1 55.488 568.04 55.184 572.22 54.424C576.4 53.74 579.668 52.904 582.1 51.764C584.532 50.7 586.432 49.332 587.876 47.736C589.32 46.064 590.308 44.468 590.764 42.948C591.22 41.428 591.448 39.68 591.448 37.704V36.716C591.448 31.32 589.092 27.444 584.228 24.936C579.44 22.428 571.688 21.06 560.82 20.908L555.348 20.832L551.092 20.756C547.368 20.68 544.48 20.452 542.428 19.996C540.376 19.464 539.084 18.932 538.552 18.4C537.944 17.792 537.716 17.108 537.716 16.196C537.716 15.208 537.944 14.448 538.476 13.916C538.932 13.384 540.376 12.852 542.656 12.32C545.012 11.864 547.748 11.636 552.156 11.636H554.816C557.704 11.636 559.376 11.788 561.504 12.092C563.632 12.472 565.304 12.852 566.368 13.232C567.508 13.688 568.344 14.22 569.028 14.904C569.712 15.588 570.168 16.12 570.32 16.5C570.472 16.88 570.624 17.412 570.776 17.944H589.624V17.26C589.624 15.512 589.32 13.916 588.712 12.396C588.18 10.952 587.116 9.432 585.596 7.912C584.076 6.392 582.1 5.1 579.668 4.036C577.236 2.972 574.044 2.136 569.94 1.452C565.912 0.767999 561.2 0.463998 555.956 0.463998H550.56C545.468 0.463998 540.984 0.767999 537.184 1.452C533.308 2.06 530.268 2.896 527.988 3.884C525.708 4.872 523.884 6.088 522.516 7.532C521.072 9.052 520.16 10.496 519.704 11.94C519.248 13.384 519.02 14.98 519.02 16.652V17.336C519.02 27.216 528.444 32.46 547.292 32.916L551.548 32.992L557.248 33.144C561.58 33.22 564.848 33.524 567.128 33.98C569.408 34.512 570.928 35.12 571.536 35.728C572.144 36.412 572.448 37.324 572.448 38.464C572.448 39.3 572.296 39.984 571.916 40.592C571.536 41.2 570.852 41.732 569.712 42.34C568.648 42.948 566.9 43.328 564.544 43.632C562.112 43.936 560.592 44.164 556.944 44.164H552.764C541.668 44.164 537.564 41.352 537.184 35.728H518.26V36.488C518.26 38.16 518.412 39.756 518.792 41.2C519.172 42.644 520.084 44.316 521.452 46.14C522.82 47.964 524.72 49.56 527 50.852C529.356 52.144 532.7 53.208 537.032 54.12C541.288 55.032 546.38 55.488 552.156 55.488ZM637.143 0.463998C632.051 0.463998 627.491 0.767999 623.311 1.452C619.207 2.06 615.711 2.896 612.899 3.96C610.163 5.024 607.731 6.316 605.679 7.836C603.551 9.356 601.955 10.876 600.739 12.396C599.599 13.916 598.687 15.588 598.003 17.412C597.243 19.236 596.787 20.908 596.635 22.276C596.407 23.72 596.331 25.164 596.331 26.76V28.888C596.331 30.408 596.407 31.928 596.635 33.372C596.787 34.74 597.243 36.412 598.003 38.236C598.687 40.06 599.599 41.732 600.739 43.328C601.955 44.848 603.551 46.368 605.679 47.964C607.807 49.484 610.239 50.776 612.975 51.916C615.711 52.98 619.207 53.816 623.311 54.5C627.491 55.184 632.051 55.488 637.143 55.488H639.575C644.667 55.488 649.227 55.184 653.331 54.5C657.511 53.816 660.931 52.98 663.667 51.916C666.403 50.776 668.835 49.484 670.963 47.964C673.091 46.368 674.687 44.848 675.827 43.328C676.967 41.732 677.879 40.06 678.639 38.236C679.323 36.412 679.855 34.74 680.007 33.372C680.235 31.928 680.311 30.408 680.311 28.888V26.76C680.311 25.164 680.235 23.72 680.007 22.276C679.855 20.832 679.323 19.236 678.639 17.412C677.879 15.588 676.967 13.916 675.751 12.396C674.611 10.876 673.015 9.356 670.887 7.836C668.835 6.316 666.403 5.024 663.667 3.96C660.855 2.896 657.435 2.06 653.331 1.452C649.227 0.767999 644.667 0.463998 639.575 0.463998H637.143ZM661.311 28.28C661.311 29.952 661.007 31.624 660.323 33.144C659.715 34.664 658.575 36.184 656.979 37.628C655.383 39.148 652.951 40.364 649.683 41.2C646.871 42.036 643.451 42.416 639.575 42.568C638.967 42.568 638.055 42.568 637.675 42.568C633.495 42.492 629.847 42.036 626.807 41.2C623.539 40.288 621.183 39.072 619.587 37.552C618.067 36.032 616.927 34.512 616.319 32.992C615.635 31.472 615.331 29.8 615.331 28.128V27.292C615.331 18.248 622.703 13.612 637.371 13.308C637.827 13.308 639.195 13.308 639.879 13.384C642.843 13.46 645.503 13.688 647.859 14.22C650.671 14.828 652.951 15.588 654.623 16.5C656.295 17.336 657.663 18.476 658.651 19.768C659.715 21.06 660.399 22.276 660.779 23.492C661.159 24.632 661.311 25.924 661.311 27.292V28.28ZM719.148 55.488H724.468C730.092 55.488 735.032 55.184 739.212 54.424C743.392 53.74 746.66 52.904 749.092 51.764C751.524 50.7 753.424 49.332 754.868 47.736C756.312 46.064 757.3 44.468 757.756 42.948C758.212 41.428 758.44 39.68 758.44 37.704V36.716C758.44 31.32 756.084 27.444 751.22 24.936C746.432 22.428 738.68 21.06 727.812 20.908L722.34 20.832L718.084 20.756C714.36 20.68 711.472 20.452 709.42 19.996C707.368 19.464 706.076 18.932 705.544 18.4C704.936 17.792 704.708 17.108 704.708 16.196C704.708 15.208 704.936 14.448 705.468 13.916C705.924 13.384 707.368 12.852 709.648 12.32C712.004 11.864 714.74 11.636 719.148 11.636H721.808C724.696 11.636 726.368 11.788 728.496 12.092C730.624 12.472 732.296 12.852 733.36 13.232C734.5 13.688 735.336 14.22 736.02 14.904C736.704 15.588 737.16 16.12 737.312 16.5C737.464 16.88 737.616 17.412 737.768 17.944H756.616V17.26C756.616 15.512 756.312 13.916 755.704 12.396C755.172 10.952 754.108 9.432 752.588 7.912C751.068 6.392 749.092 5.1 746.66 4.036C744.228 2.972 741.036 2.136 736.932 1.452C732.904 0.767999 728.192 0.463998 722.948 0.463998H717.552C712.46 0.463998 707.976 0.767999 704.176 1.452C700.3 2.06 697.26 2.896 694.98 3.884C692.7 4.872 690.876 6.088 689.508 7.532C688.064 9.052 687.152 10.496 686.696 11.94C686.24 13.384 686.012 14.98 686.012 16.652V17.336C686.012 27.216 695.436 32.46 714.284 32.916L718.54 32.992L724.24 33.144C728.572 33.22 731.84 33.524 734.12 33.98C736.4 34.512 737.92 35.12 738.528 35.728C739.136 36.412 739.44 37.324 739.44 38.464C739.44 39.3 739.288 39.984 738.908 40.592C738.528 41.2 737.844 41.732 736.704 42.34C735.64 42.948 733.892 43.328 731.536 43.632C729.104 43.936 727.584 44.164 723.936 44.164H719.756C708.66 44.164 704.556 41.352 704.176 35.728H685.252V36.488C685.252 38.16 685.404 39.756 685.784 41.2C686.164 42.644 687.076 44.316 688.444 46.14C689.812 47.964 691.712 49.56 693.992 50.852C696.348 52.144 699.692 53.208 704.024 54.12C708.28 55.032 713.372 55.488 719.148 55.488ZM2.56 79.224V132.5H41.092C47.628 132.5 53.404 131.968 58.344 130.828C63.36 129.764 67.312 128.396 70.276 126.724C73.164 125.052 75.52 123 77.42 120.568C79.244 118.212 80.46 115.932 81.068 113.652C81.752 111.448 82.056 109.092 82.056 106.584V104.38C82.056 102.252 81.828 100.276 81.296 98.376C80.84 96.476 80.004 94.576 78.94 92.6C77.8 90.624 76.204 88.876 74.152 87.356C72.1 85.76 69.592 84.392 66.628 83.1C63.74 81.808 60.092 80.896 55.684 80.212C51.352 79.528 46.412 79.224 41.016 79.224H2.56ZM20.724 91.764H39.648C55.228 91.764 62.98 96.324 62.98 105.52V105.9C62.98 115.096 55.228 119.656 39.648 119.656H20.724V91.764ZM88.8764 79.224V132.5H150.892V120.112H106.812V111.372H149.068V99.212H106.812V91.308H150.056V79.224H88.8764ZM158.939 79.376V132.576H217.383V119.352H177.027V79.376H158.939ZM263.662 132.576H281.066V95.716L303.942 132.576H313.67L336.47 95.716V132.576H354.406V79.376H329.554L309.414 112.512L289.426 79.376H263.662V132.576ZM419.798 78.996V103.62C419.798 105.52 419.494 107.268 418.962 108.864C418.43 110.536 417.518 112.132 416.15 113.728C414.858 115.324 412.882 116.54 410.298 117.452C407.638 118.364 404.522 118.896 400.874 118.896C397.15 118.896 393.958 118.364 391.298 117.452C388.562 116.54 386.586 115.324 385.294 113.728C384.002 112.132 383.09 110.536 382.558 108.864C382.026 107.268 381.722 105.52 381.722 103.62V78.996H363.634V104.608C363.634 106.204 363.71 107.724 363.938 109.32C364.166 110.84 364.622 112.588 365.306 114.488C366.066 116.388 366.902 118.136 368.042 119.808C369.106 121.404 370.55 123.076 372.45 124.672C374.274 126.268 376.478 127.636 378.91 128.776C381.342 129.916 384.306 130.828 387.878 131.512C391.374 132.196 395.326 132.5 399.582 132.5H402.394C408.018 132.5 413.034 131.892 417.442 130.524C421.774 129.232 425.194 127.56 427.702 125.584C430.21 123.608 432.262 121.328 433.858 118.668C435.454 116.084 436.518 113.576 437.05 111.372C437.582 109.092 437.886 106.812 437.886 104.608V78.996H419.798ZM627.102 78.92V112.664L467.426 78.92H446.982V132.5H465.07V97.008L627.102 132.5H645.19V78.92H627.102ZM654.423 79.224V132.5H692.955C699.491 132.5 705.267 131.968 710.207 130.828C715.223 129.764 719.175 128.396 722.139 126.724C725.027 125.052 727.383 123 729.283 120.568C731.107 118.212 732.323 115.932 732.931 113.652C733.615 111.448 733.919 109.092 733.919 106.584V104.38C733.919 102.252 733.691 100.276 733.159 98.376C732.703 96.476 731.867 94.576 730.803 92.6C729.663 90.624 728.067 88.876 726.015 87.356C723.963 85.76 721.455 84.392 718.491 83.1C715.603 81.808 711.955 80.896 707.547 80.212C703.215 79.528 698.275 79.224 692.879 79.224H654.423ZM672.587 91.764H691.511C707.091 91.764 714.843 96.324 714.843 105.52V105.9C714.843 115.096 707.091 119.656 691.511 119.656H672.587V91.764ZM779.272 78.464C774.18 78.464 769.62 78.768 765.44 79.452C761.336 80.06 757.84 80.896 755.028 81.96C752.292 83.024 749.86 84.316 747.808 85.836C745.68 87.356 744.084 88.876 742.868 90.396C741.728 91.916 740.816 93.588 740.132 95.412C739.372 97.236 738.916 98.908 738.764 100.276C738.536 101.72 738.46 103.164 738.46 104.76V106.888C738.46 108.408 738.536 109.928 738.764 111.372C738.916 112.74 739.372 114.412 740.132 116.236C740.816 118.06 741.728 119.732 742.868 121.328C744.084 122.848 745.68 124.368 747.808 125.964C749.936 127.484 752.368 128.776 755.104 129.916C757.84 130.98 761.336 131.816 765.44 132.5C769.62 133.184 774.18 133.488 779.272 133.488H781.704C786.796 133.488 791.356 133.184 795.46 132.5C799.64 131.816 803.06 130.98 805.796 129.916C808.532 128.776 810.964 127.484 813.092 125.964C815.22 124.368 816.816 122.848 817.956 121.328C819.096 119.732 820.008 118.06 820.768 116.236C821.452 114.412 821.984 112.74 822.136 111.372C822.364 109.928 822.44 108.408 822.44 106.888V104.76C822.44 103.164 822.364 101.72 822.136 100.276C821.984 98.832 821.452 97.236 820.768 95.412C820.008 93.588 819.096 91.916 817.88 90.396C816.74 88.876 815.144 87.356 813.016 85.836C810.964 84.316 808.532 83.024 805.796 81.96C802.984 80.896 799.564 80.06 795.46 79.452C791.356 78.768 786.796 78.464 781.704 78.464H779.272ZM803.44 106.28C803.44 107.952 803.136 109.624 802.452 111.144C801.844 112.664 800.704 114.184 799.108 115.628C797.512 117.148 795.08 118.364 791.812 119.2C789 120.036 785.58 120.416 781.704 120.568C781.096 120.568 780.184 120.568 779.804 120.568C775.624 120.492 771.976 120.036 768.936 119.2C765.668 118.288 763.312 117.072 761.716 115.552C760.196 114.032 759.056 112.512 758.448 110.992C757.764 109.472 757.46 107.8 757.46 106.128V105.292C757.46 96.248 764.832 91.612 779.5 91.308C779.956 91.308 781.324 91.308 782.008 91.384C784.972 91.46 787.632 91.688 789.988 92.22C792.8 92.828 795.08 93.588 796.752 94.5C798.424 95.336 799.792 96.476 800.78 97.768C801.844 99.06 802.528 100.276 802.908 101.492C803.288 102.632 803.44 103.924 803.44 105.292V106.28ZM2.56 157.224V210.5H41.092C47.628 210.5 53.404 209.968 58.344 208.828C63.36 207.764 67.312 206.396 70.276 204.724C73.164 203.052 75.52 201 77.42 198.568C79.244 196.212 80.46 193.932 81.068 191.652C81.752 189.448 82.056 187.092 82.056 184.584V182.38C82.056 180.252 81.828 178.276 81.296 176.376C80.84 174.476 80.004 172.576 78.94 170.6C77.8 168.624 76.204 166.876 74.152 165.356C72.1 163.76 69.592 162.392 66.628 161.1C63.74 159.808 60.092 158.896 55.684 158.212C51.352 157.528 46.412 157.224 41.016 157.224H2.56ZM20.724 169.764H39.648C55.228 169.764 62.98 174.324 62.98 183.52V183.9C62.98 193.096 55.228 197.656 39.648 197.656H20.724V169.764ZM106.888 157.452H88.8004V210.5H106.888V157.452ZM153.812 211.412C166.58 211.412 175.852 208.372 181.704 202.216C181.78 205.712 181.856 210.5 181.856 210.5H194.928V180.784H154.116V190.816H176.84V190.968C176.84 191.272 176.612 191.728 176.232 192.336C175.776 192.868 174.94 193.552 173.876 194.236C172.736 194.996 171.368 195.68 169.772 196.288C168.176 196.896 166.048 197.428 163.312 197.884C160.652 198.264 157.688 198.492 154.496 198.492C147.124 198.492 141.652 197.124 138.004 194.312C134.432 191.5 132.608 188.156 132.608 184.28V183.444C132.608 173.944 139.98 169.156 154.648 169.156C166.428 169.156 173.268 171.664 175.244 176.68H194.472V176.604C194.472 174.932 194.168 173.336 193.56 171.74C193.028 170.144 191.888 168.396 190.14 166.42C188.468 164.52 186.264 162.848 183.604 161.48C180.944 160.036 177.22 158.896 172.508 157.908C167.796 156.996 162.324 156.54 156.168 156.54H152.824C146.44 156.54 140.816 157.072 136.028 158.288C131.164 159.504 127.364 160.948 124.628 162.772C121.892 164.52 119.612 166.648 117.864 169.08C116.116 171.512 114.976 173.868 114.444 175.996C113.912 178.2 113.684 180.404 113.684 182.76V184.736C113.684 187.092 113.988 189.372 114.596 191.652C115.28 193.856 116.496 196.212 118.244 198.72C119.992 201.152 122.272 203.28 125.008 205.104C127.82 206.928 131.544 208.448 136.18 209.664C140.892 210.804 146.212 211.412 152.216 211.412H153.812ZM221.185 157.452H203.097V210.5H221.185V157.452ZM251.465 210.576H269.781V169.992H294.785V157.376H226.537V169.992H251.465V210.576ZM469.809 157.528H328.753L300.177 210.5H318.189L323.205 200.848H475.357L480.373 210.5H498.385L469.809 157.528ZM329.361 188.84L339.545 169.384H459.017L469.201 188.84H329.361ZM507.619 157.376V210.576H566.063V197.352H525.707V157.376H507.619Z" fill="white"/>
</svg>
