<svg width="805" height="71" viewBox="0 0 805 71" fill="none" xmlns="http://www.w3.org/2000/svg">
<path d="M55.672 46.728C78.424 46.728 89.752 39.336 89.752 24.648V23.784C89.752 9.192 78.424 1.89599 55.672 1.89599H0.76V69.096H23.608V46.728H55.672ZM23.608 17.16H55.288C62.296 17.16 65.848 19.56 65.848 24.264V24.552C65.848 29.256 62.296 31.656 55.288 31.656H23.608V17.16ZM146.276 0.743998C139.844 0.743998 134.084 1.128 128.804 1.992C123.62 2.75999 119.204 3.816 115.652 5.16C112.196 6.504 109.124 8.136 106.532 10.056C103.844 11.976 101.828 13.896 100.292 15.816C98.8518 17.736 97.6998 19.848 96.8358 22.152C95.8758 24.456 95.2998 26.568 95.1078 28.296C94.8198 30.12 94.7238 31.944 94.7238 33.96V36.648C94.7238 38.568 94.8198 40.488 95.1078 42.312C95.2998 44.04 95.8758 46.152 96.8358 48.456C97.6998 50.76 98.8518 52.872 100.292 54.888C101.828 56.808 103.844 58.728 106.532 60.744C109.22 62.664 112.292 64.296 115.748 65.736C119.204 67.08 123.62 68.136 128.804 69C134.084 69.864 139.844 70.248 146.276 70.248H149.348C155.78 70.248 161.54 69.864 166.724 69C172.004 68.136 176.324 67.08 179.78 65.736C183.236 64.296 186.308 62.664 188.996 60.744C191.684 58.728 193.7 56.808 195.14 54.888C196.58 52.872 197.732 50.76 198.692 48.456C199.556 46.152 200.228 44.04 200.42 42.312C200.708 40.488 200.804 38.568 200.804 36.648V33.96C200.804 31.944 200.708 30.12 200.42 28.296C200.228 26.472 199.556 24.456 198.692 22.152C197.732 19.848 196.58 17.736 195.044 15.816C193.604 13.896 191.588 11.976 188.9 10.056C186.308 8.136 183.236 6.504 179.78 5.16C176.228 3.816 171.908 2.75999 166.724 1.992C161.54 1.128 155.78 0.743998 149.348 0.743998H146.276ZM176.804 35.88C176.804 37.992 176.42 40.104 175.556 42.024C174.788 43.944 173.348 45.864 171.332 47.688C169.316 49.608 166.244 51.144 162.116 52.2C158.564 53.256 154.244 53.736 149.348 53.928C148.58 53.928 147.428 53.928 146.948 53.928C141.668 53.832 137.06 53.256 133.22 52.2C129.092 51.048 126.116 49.512 124.1 47.592C122.18 45.672 120.74 43.752 119.972 41.832C119.108 39.912 118.724 37.8 118.724 35.688V34.632C118.724 23.208 128.036 17.352 146.564 16.968C147.14 16.968 148.868 16.968 149.732 17.064C153.476 17.16 156.836 17.448 159.812 18.12C163.364 18.888 166.244 19.848 168.356 21C170.468 22.056 172.196 23.496 173.444 25.128C174.788 26.76 175.652 28.296 176.132 29.832C176.612 31.272 176.804 32.904 176.804 34.632V35.88ZM288.645 41.064C286.341 38.472 283.269 36.744 279.525 35.688C287.685 33 291.813 28.2 291.813 21.192V20.136C291.813 8.712 282.213 2.952 263.013 2.952H209.541V69H230.277V45.576H257.349C262.437 45.576 265.989 46.536 268.101 48.36C270.213 50.184 271.269 53.16 271.269 57.192V69H292.101V50.856C292.101 46.824 290.949 43.56 288.645 41.064ZM270.117 24.456C270.117 26.376 269.445 28.008 268.101 29.16C266.757 30.312 264.645 30.984 261.765 30.984H230.277V17.928H261.765C264.645 17.928 266.757 18.6 268.101 19.752C269.445 20.904 270.117 22.44 270.117 24.36V24.456ZM329.042 69.096H352.178V17.832H383.762V1.89599H297.554V17.832H329.042V69.096ZM390.477 1.992V69H413.229V42.408H464.685V27.144H413.229V17.16H465.933V1.992H390.477ZM523.338 0.743998C516.906 0.743998 511.146 1.128 505.866 1.992C500.682 2.75999 496.266 3.816 492.714 5.16C489.258 6.504 486.186 8.136 483.594 10.056C480.906 11.976 478.89 13.896 477.354 15.816C475.914 17.736 474.762 19.848 473.898 22.152C472.938 24.456 472.362 26.568 472.17 28.296C471.882 30.12 471.786 31.944 471.786 33.96V36.648C471.786 38.568 471.882 40.488 472.17 42.312C472.362 44.04 472.938 46.152 473.898 48.456C474.762 50.76 475.914 52.872 477.354 54.888C478.89 56.808 480.906 58.728 483.594 60.744C486.282 62.664 489.354 64.296 492.81 65.736C496.266 67.08 500.682 68.136 505.866 69C511.146 69.864 516.906 70.248 523.338 70.248H526.41C532.842 70.248 538.602 69.864 543.786 69C549.066 68.136 553.386 67.08 556.842 65.736C560.298 64.296 563.37 62.664 566.058 60.744C568.746 58.728 570.762 56.808 572.202 54.888C573.642 52.872 574.794 50.76 575.754 48.456C576.618 46.152 577.29 44.04 577.482 42.312C577.77 40.488 577.866 38.568 577.866 36.648V33.96C577.866 31.944 577.77 30.12 577.482 28.296C577.29 26.472 576.618 24.456 575.754 22.152C574.794 19.848 573.642 17.736 572.106 15.816C570.666 13.896 568.65 11.976 565.962 10.056C563.37 8.136 560.298 6.504 556.842 5.16C553.29 3.816 548.97 2.75999 543.786 1.992C538.602 1.128 532.842 0.743998 526.41 0.743998H523.338ZM553.866 35.88C553.866 37.992 553.482 40.104 552.618 42.024C551.85 43.944 550.41 45.864 548.394 47.688C546.378 49.608 543.306 51.144 539.178 52.2C535.626 53.256 531.306 53.736 526.41 53.928C525.642 53.928 524.49 53.928 524.01 53.928C518.73 53.832 514.122 53.256 510.282 52.2C506.154 51.048 503.178 49.512 501.162 47.592C499.242 45.672 497.802 43.752 497.034 41.832C496.17 39.912 495.786 37.8 495.786 35.688V34.632C495.786 23.208 505.098 17.352 523.626 16.968C524.202 16.968 525.93 16.968 526.794 17.064C530.538 17.16 533.898 17.448 536.874 18.12C540.426 18.888 543.306 19.848 545.418 21C547.53 22.056 549.258 23.496 550.506 25.128C551.85 26.76 552.714 28.296 553.194 29.832C553.674 31.272 553.866 32.904 553.866 34.632V35.88ZM586.604 1.89599V69.096H660.428V52.392H609.452V1.89599H586.604ZM690.168 1.992H667.32V69H690.168V1.992ZM750.401 0.743998C743.969 0.743998 738.209 1.128 732.929 1.992C727.745 2.75999 723.329 3.816 719.777 5.16C716.321 6.504 713.249 8.136 710.657 10.056C707.969 11.976 705.953 13.896 704.417 15.816C702.977 17.736 701.825 19.848 700.961 22.152C700.001 24.456 699.425 26.568 699.233 28.296C698.945 30.12 698.849 31.944 698.849 33.96V36.648C698.849 38.568 698.945 40.488 699.233 42.312C699.425 44.04 700.001 46.152 700.961 48.456C701.825 50.76 702.977 52.872 704.417 54.888C705.953 56.808 707.969 58.728 710.657 60.744C713.345 62.664 716.417 64.296 719.873 65.736C723.329 67.08 727.745 68.136 732.929 69C738.209 69.864 743.969 70.248 750.401 70.248H753.473C759.905 70.248 765.665 69.864 770.849 69C776.129 68.136 780.449 67.08 783.905 65.736C787.361 64.296 790.433 62.664 793.121 60.744C795.809 58.728 797.825 56.808 799.265 54.888C800.705 52.872 801.857 50.76 802.817 48.456C803.681 46.152 804.353 44.04 804.545 42.312C804.833 40.488 804.929 38.568 804.929 36.648V33.96C804.929 31.944 804.833 30.12 804.545 28.296C804.353 26.472 803.681 24.456 802.817 22.152C801.857 19.848 800.705 17.736 799.169 15.816C797.729 13.896 795.713 11.976 793.025 10.056C790.433 8.136 787.361 6.504 783.905 5.16C780.353 3.816 776.033 2.75999 770.849 1.992C765.665 1.128 759.905 0.743998 753.473 0.743998H750.401ZM780.929 35.88C780.929 37.992 780.545 40.104 779.681 42.024C778.913 43.944 777.473 45.864 775.457 47.688C773.441 49.608 770.369 51.144 766.241 52.2C762.689 53.256 758.369 53.736 753.473 53.928C752.705 53.928 751.553 53.928 751.073 53.928C745.793 53.832 741.185 53.256 737.345 52.2C733.217 51.048 730.241 49.512 728.225 47.592C726.305 45.672 724.865 43.752 724.097 41.832C723.233 39.912 722.849 37.8 722.849 35.688V34.632C722.849 23.208 732.161 17.352 750.689 16.968C751.265 16.968 752.993 16.968 753.857 17.064C757.601 17.16 760.961 17.448 763.937 18.12C767.489 18.888 770.369 19.848 772.481 21C774.593 22.056 776.321 23.496 777.569 25.128C778.913 26.76 779.777 28.296 780.257 29.832C780.737 31.272 780.929 32.904 780.929 34.632V35.88Z" fill="white"/>
</svg>
