<?xml version="1.0" encoding="utf-8"?>
<!-- Generator: Adobe Illustrator 26.4.1, SVG Export Plug-In . SVG Version: 6.00 Build 0)  -->
<svg version="1.1" id="Layer_1" xmlns="http://www.w3.org/2000/svg" xmlns:xlink="http://www.w3.org/1999/xlink" x="0px" y="0px"
	 viewBox="0 0 774.7 95" style="enable-background:new 0 0 774.7 95;" xml:space="preserve">
<style type="text/css">
	.st0{fill:#FFFFFF;}
</style>
<path class="st0" d="M0.8,93.3h31V57.5h66.5v35.8h31.1V2.5H98.2v33H31.8v-33h-31V93.3z M483.6,37.9c-0.3-2.3-1-5.1-2.1-8.1
	c-1.2-3-2.6-5.7-4.4-8.3c-1.8-2.6-4.3-5.1-7.4-7.7c-3.3-2.5-7-4.7-11.2-6.4c-4.3-1.8-9.6-3.1-15.9-4.3c-6.4-1-13.4-1.6-21.1-1.6
	H203.7c-7.8,0-14.8,0.5-21.2,1.6c-6.4,1.2-11.7,2.5-16,4.3c-4.3,1.7-8.1,3.9-11.2,6.4c-3.3,2.6-5.7,5.1-7.5,7.7
	c-1.7,2.6-3.1,5.3-4.3,8.5c-1,3-1.7,5.7-2.1,8.1c-0.3,2.3-0.4,4.8-0.4,7.4v3.6c0,2.5,0.1,4.9,0.4,7.3c0.4,2.5,1,5.2,2.1,8.2
	c1.2,3.1,2.6,5.9,4.3,8.5c1.8,2.6,4.4,5.2,7.5,7.8c3.3,2.6,7,4.7,11.2,6.5c4.3,1.8,9.6,3.3,16,4.4c6.4,1,13.4,1.6,21.2,1.6h217.8
	c7.7,0,14.7-0.5,21.1-1.6c6.4-1.2,11.7-2.6,15.9-4.4c4.3-1.8,7.9-3.9,11.2-6.5c3.3-2.6,5.7-5.2,7.5-7.8c1.7-2.6,3.1-5.3,4.3-8.5
	c1-3,1.8-5.7,2.1-8.2c0.4-2.3,0.5-4.8,0.5-7.3v-3.6C484.1,42.8,484,40.3,483.6,37.9z M454.9,47.9c0,2.9-0.4,5.6-1.4,8.2
	c-1,2.5-2.7,5.1-5.2,7.5c-2.5,2.5-6.2,4.4-11.2,6c-4.6,1.3-10.1,2.1-16.5,2.2c-0.5,0-213.8,0-214.3,0c-7.2,0-13.3-0.8-18.3-2.3
	c-4.9-1.4-8.7-3.5-11.1-6c-2.5-2.6-4.2-5.2-5.1-7.7c-1-2.6-1.6-5.2-1.6-8.1v-1.4c0-15.6,12-23.3,36-23.3c0.5,0,213.8,0,214.3,0
	c5.2,0.1,9.8,0.5,13.7,1.4c4.4,1,7.9,2.3,10.4,3.8c2.6,1.6,4.7,3.4,6.2,5.5c1.6,2.2,2.7,4.3,3.3,6.2c0.5,2,0.8,4,0.8,6.4V47.9z
	 M496,93.4h29.8V30.3l39.1,63.1h16.6l39-63.1v63.1h30.7v-91h-42.5l-34.5,56.7L540.1,2.4H496V93.4z M667,2.1v91.2h106.1V72.1h-75.4
	v-15H770V36.3h-72.3V22.8h74V2.1H667z"/>
</svg>
