<svg width="1354" height="97" viewBox="0 0 1354 97" fill="none" xmlns="http://www.w3.org/2000/svg">
<path d="M68.7061 96.5905H74.2729C85.274 96.5905 95.0823 95.6627 103.565 93.8071C112.048 91.819 118.675 89.4332 123.314 86.7823C128.086 83.9989 131.929 80.8178 134.978 77.2392C137.894 73.5279 139.882 70.3469 140.942 67.4309C141.87 64.515 142.268 61.599 142.268 58.8156V57.4902H108.602C108.602 57.6227 108.602 57.7552 108.469 57.8878C104.758 68.6238 92.5639 74.0581 71.7546 74.0581C64.7298 74.0581 58.6328 73.2628 53.4636 71.6723C48.2944 70.0818 44.4506 67.9611 41.7997 65.3102C39.1489 62.6594 37.1607 60.0085 35.9678 57.2251C34.7749 54.4417 34.1122 51.5257 34.1122 48.4772V47.0192C34.1122 43.8382 34.6424 40.9222 35.8353 38.2713C36.8956 35.6205 38.7512 33.1021 41.2696 30.5838C43.9204 28.198 47.7642 26.3424 52.9334 25.017C57.9701 23.559 64.1996 22.8963 71.4895 22.8963C77.5865 22.8963 82.8882 23.4265 87.6598 24.3543C92.2988 25.2821 95.8775 26.3424 98.2633 27.5353C100.649 28.7282 102.637 30.1862 104.36 31.9092C106.083 33.6323 107.144 34.9578 107.541 35.753C107.939 36.5483 108.204 37.3435 108.469 38.4039H142.135V36.9459C142.135 34.4276 141.738 31.7767 140.942 28.9933C140.015 26.2099 138.159 23.0288 135.11 19.4501C132.194 15.8715 128.351 12.823 123.712 10.0396C119.073 7.38868 112.445 5.13544 103.963 3.14729C95.3474 1.29168 85.5391 0.363867 74.2729 0.363867H68.7061C57.3073 0.363867 47.234 1.42422 38.7512 3.67746C30.1359 5.79816 23.5087 8.44903 18.8697 11.6301C14.2307 14.8111 10.5194 18.6549 7.60349 23.0288C4.82007 27.4028 2.96446 31.3791 2.1692 34.9578C1.37394 38.5364 0.976308 42.3802 0.976308 46.3565V50.0677C0.976308 52.586 1.10885 55.1044 1.50648 57.7552C1.90411 60.2736 2.83192 63.1895 4.15735 66.3706C5.48279 69.5516 7.07331 72.4676 9.06147 75.251C11.0496 78.0344 13.833 80.6853 17.4117 83.4687C20.9904 86.1196 24.9667 88.3728 29.6057 90.361C34.1122 92.2166 39.8116 93.6746 46.5713 94.8675C53.331 96.0603 60.6209 96.5905 68.7061 96.5905ZM221.523 0.761501C212.642 0.761501 204.69 1.29168 197.4 2.48457C190.242 3.54491 184.145 5.0029 179.241 6.85851C174.47 8.71412 170.228 10.9674 166.65 13.6182C162.938 16.2691 160.155 18.92 158.034 21.5708C156.046 24.2217 154.456 27.1377 153.263 30.3187C151.937 33.4998 151.142 36.4157 150.877 38.8015C150.479 41.3198 150.347 43.8382 150.347 46.6216V50.3328C150.347 52.9837 150.479 55.6345 150.877 58.1529C151.142 60.5387 151.937 63.4546 153.263 66.6357C154.456 69.8167 156.046 72.7327 158.034 75.5161C160.155 78.167 162.938 80.8178 166.65 83.6013C170.361 86.2521 174.602 88.5054 179.374 90.4935C184.145 92.3491 190.242 93.8071 197.4 95C204.69 96.1929 212.642 96.7231 221.523 96.7231H225.764C234.644 96.7231 242.597 96.1929 249.754 95C257.044 93.8071 263.009 92.3491 267.78 90.4935C272.552 88.5054 276.793 86.2521 280.505 83.6013C284.216 80.8178 286.999 78.167 288.987 75.5161C290.975 72.7327 292.566 69.8167 293.891 66.6357C295.084 63.4546 296.012 60.5387 296.277 58.1529C296.675 55.6345 296.807 52.9837 296.807 50.3328V46.6216C296.807 43.8382 296.675 41.3198 296.277 38.8015C296.012 36.2832 295.084 33.4998 293.891 30.3187C292.566 27.1377 290.975 24.2217 288.855 21.5708C286.867 18.92 284.083 16.2691 280.372 13.6182C276.793 10.9674 272.552 8.71412 267.78 6.85851C262.876 5.0029 256.912 3.54491 249.754 2.48457C242.597 1.29168 234.644 0.761501 225.764 0.761501H221.523ZM263.672 49.2725C263.672 52.1884 263.141 55.1044 261.948 57.7552C260.888 60.4061 258.9 63.057 256.117 65.5753C253.333 68.2262 249.092 70.3469 243.392 71.8049C238.488 73.2628 232.524 73.9256 225.764 74.1907C224.704 74.1907 223.113 74.1907 222.45 74.1907C215.161 74.0581 208.798 73.2628 203.497 71.8049C197.797 70.2143 193.688 68.0936 190.905 65.4428C188.254 62.7919 186.266 60.141 185.206 57.4902C184.013 54.8393 183.483 51.9233 183.483 49.0074V47.5494C183.483 31.7767 196.339 23.6915 221.92 23.1614C222.716 23.1614 225.101 23.1614 226.294 23.2939C231.463 23.4265 236.102 23.8241 240.211 24.7519C245.115 25.8122 249.092 27.1377 252.008 28.7282C254.924 30.1862 257.309 32.1743 259.032 34.4276C260.888 36.6808 262.081 38.8015 262.744 40.9222C263.406 42.9104 263.672 45.1636 263.672 47.5494V49.2725ZM308.871 2.35202V95.1325H340.019V33.6323L408.676 95.1325H439.957V2.35202H408.676V60.6712L344.128 2.35202H308.871ZM492.888 95.1325H524.831V24.3543H568.438V2.35202H449.414V24.3543H492.888V95.1325ZM873.679 2.61711H627.678L577.841 95H609.254L618.002 78.167H883.354L892.102 95H923.515L873.679 2.61711ZM628.738 57.2251L646.499 23.2939H854.857L872.618 57.2251H628.738ZM1003.37 96.5905H1008.94C1019.94 96.5905 1029.75 95.6627 1038.23 93.8071C1046.71 91.819 1053.34 89.4332 1057.98 86.7823C1062.75 83.9989 1066.59 80.8178 1069.64 77.2392C1072.56 73.5279 1074.55 70.3469 1075.61 67.4309C1076.54 64.515 1076.93 61.599 1076.93 58.8156V57.4902H1043.27C1043.27 57.6227 1043.27 57.7552 1043.13 57.8878C1039.42 68.6238 1027.23 74.0581 1006.42 74.0581C999.395 74.0581 993.298 73.2628 988.129 71.6723C982.96 70.0818 979.116 67.9611 976.465 65.3102C973.814 62.6594 971.826 60.0085 970.633 57.2251C969.44 54.4417 968.778 51.5257 968.778 48.4772V47.0192C968.778 43.8382 969.308 40.9222 970.501 38.2713C971.561 35.6205 973.417 33.1021 975.935 30.5838C978.586 28.198 982.43 26.3424 987.599 25.017C992.635 23.559 998.865 22.8963 1006.15 22.8963C1012.25 22.8963 1017.55 23.4265 1022.33 24.3543C1026.96 25.2821 1030.54 26.3424 1032.93 27.5353C1035.31 28.7282 1037.3 30.1862 1039.03 31.9092C1040.75 33.6323 1041.81 34.9578 1042.21 35.753C1042.6 36.5483 1042.87 37.3435 1043.13 38.4039H1076.8V36.9459C1076.8 34.4276 1076.4 31.7767 1075.61 28.9933C1074.68 26.2099 1072.82 23.0288 1069.78 19.4501C1066.86 15.8715 1063.02 12.823 1058.38 10.0396C1053.74 7.38868 1047.11 5.13544 1038.63 3.14729C1030.01 1.29168 1020.2 0.363867 1008.94 0.363867H1003.37C991.973 0.363867 981.899 1.42422 973.417 3.67746C964.801 5.79816 958.174 8.44903 953.535 11.6301C948.896 14.8111 945.185 18.6549 942.269 23.0288C939.485 27.4028 937.63 31.3791 936.835 34.9578C936.039 38.5364 935.642 42.3802 935.642 46.3565V50.0677C935.642 52.586 935.774 55.1044 936.172 57.7552C936.569 60.2736 937.497 63.1895 938.823 66.3706C940.148 69.5516 941.739 72.4676 943.727 75.251C945.715 78.0344 948.498 80.6853 952.077 83.4687C955.656 86.1196 959.632 88.3728 964.271 90.361C968.778 92.2166 974.477 93.6746 981.237 94.8675C987.996 96.0603 995.286 96.5905 1003.37 96.5905ZM1125.84 95.1325H1157.78V24.3543H1201.39V2.35202H1082.36V24.3543H1125.84V95.1325ZM1277.99 0.761501C1269.11 0.761501 1261.16 1.29168 1253.87 2.48457C1246.71 3.54491 1240.61 5.0029 1235.71 6.85851C1230.94 8.71412 1226.69 10.9674 1223.12 13.6182C1219.4 16.2691 1216.62 18.92 1214.5 21.5708C1212.51 24.2217 1210.92 27.1377 1209.73 30.3187C1208.4 33.4998 1207.61 36.4157 1207.34 38.8015C1206.94 41.3198 1206.81 43.8382 1206.81 46.6216V50.3328C1206.81 52.9837 1206.94 55.6345 1207.34 58.1529C1207.61 60.5387 1208.4 63.4546 1209.73 66.6357C1210.92 69.8167 1212.51 72.7327 1214.5 75.5161C1216.62 78.167 1219.4 80.8178 1223.12 83.6013C1226.83 86.2521 1231.07 88.5054 1235.84 90.4935C1240.61 92.3491 1246.71 93.8071 1253.87 95C1261.16 96.1929 1269.11 96.7231 1277.99 96.7231H1282.23C1291.11 96.7231 1299.06 96.1929 1306.22 95C1313.51 93.8071 1319.47 92.3491 1324.25 90.4935C1329.02 88.5054 1333.26 86.2521 1336.97 83.6013C1340.68 80.8178 1343.46 78.167 1345.45 75.5161C1347.44 72.7327 1349.03 69.8167 1350.36 66.6357C1351.55 63.4546 1352.48 60.5387 1352.74 58.1529C1353.14 55.6345 1353.27 52.9837 1353.27 50.3328V46.6216C1353.27 43.8382 1353.14 41.3198 1352.74 38.8015C1352.48 36.2832 1351.55 33.4998 1350.36 30.3187C1349.03 27.1377 1347.44 24.2217 1345.32 21.5708C1343.33 18.92 1340.55 16.2691 1336.84 13.6182C1333.26 10.9674 1329.02 8.71412 1324.25 6.85851C1319.34 5.0029 1313.38 3.54491 1306.22 2.48457C1299.06 1.29168 1291.11 0.761501 1282.23 0.761501H1277.99ZM1320.14 49.2725C1320.14 52.1884 1319.61 55.1044 1318.41 57.7552C1317.35 60.4061 1315.37 63.057 1312.58 65.5753C1309.8 68.2262 1305.56 70.3469 1299.86 71.8049C1294.95 73.2628 1288.99 73.9256 1282.23 74.1907C1281.17 74.1907 1279.58 74.1907 1278.92 74.1907C1271.63 74.0581 1265.26 73.2628 1259.96 71.8049C1254.26 70.2143 1250.15 68.0936 1247.37 65.4428C1244.72 62.7919 1242.73 60.141 1241.67 57.4902C1240.48 54.8393 1239.95 51.9233 1239.95 49.0074V47.5494C1239.95 31.7767 1252.8 23.6915 1278.39 23.1614C1279.18 23.1614 1281.57 23.1614 1282.76 23.2939C1287.93 23.4265 1292.57 23.8241 1296.68 24.7519C1301.58 25.8122 1305.56 27.1377 1308.47 28.7282C1311.39 30.1862 1313.78 32.1743 1315.5 34.4276C1317.35 36.6808 1318.55 38.8015 1319.21 40.9222C1319.87 42.9104 1320.14 45.1636 1320.14 47.5494V49.2725Z" fill="white"/>
</svg>
