<svg width="1190" height="97" viewBox="0 0 1190 97" fill="none" xmlns="http://www.w3.org/2000/svg">
<path d="M68.7061 96.5905H74.2729C85.274 96.5905 95.0823 95.6627 103.565 93.8071C112.048 91.819 118.675 89.4332 123.314 86.7823C128.086 83.9989 131.929 80.8178 134.978 77.2392C137.894 73.5279 139.882 70.3469 140.942 67.4309C141.87 64.515 142.268 61.599 142.268 58.8156V57.4902H108.602C108.602 57.6227 108.602 57.7552 108.469 57.8878C104.758 68.6238 92.5639 74.0581 71.7546 74.0581C64.7298 74.0581 58.6328 73.2628 53.4636 71.6723C48.2944 70.0818 44.4506 67.9611 41.7997 65.3102C39.1489 62.6594 37.1607 60.0085 35.9678 57.2251C34.7749 54.4417 34.1122 51.5257 34.1122 48.4772V47.0192C34.1122 43.8382 34.6424 40.9222 35.8353 38.2713C36.8956 35.6205 38.7512 33.1021 41.2696 30.5838C43.9204 28.198 47.7642 26.3424 52.9334 25.017C57.9701 23.559 64.1996 22.8963 71.4895 22.8963C77.5865 22.8963 82.8882 23.4265 87.6598 24.3543C92.2988 25.2821 95.8775 26.3424 98.2633 27.5353C100.649 28.7282 102.637 30.1862 104.36 31.9092C106.083 33.6323 107.144 34.9578 107.541 35.753C107.939 36.5483 108.204 37.3435 108.469 38.4039H142.135V36.9459C142.135 34.4276 141.738 31.7767 140.942 28.9933C140.015 26.2099 138.159 23.0288 135.11 19.4501C132.194 15.8715 128.351 12.823 123.712 10.0396C119.073 7.38868 112.445 5.13544 103.963 3.14729C95.3474 1.29168 85.5391 0.363867 74.2729 0.363867H68.7061C57.3073 0.363867 47.234 1.42422 38.7512 3.67746C30.1359 5.79816 23.5087 8.44903 18.8697 11.6301C14.2307 14.8111 10.5194 18.6549 7.60349 23.0288C4.82007 27.4028 2.96446 31.3791 2.1692 34.9578C1.37394 38.5364 0.976308 42.3802 0.976308 46.3565V50.0677C0.976308 52.586 1.10885 55.1044 1.50648 57.7552C1.90411 60.2736 2.83192 63.1895 4.15735 66.3706C5.48279 69.5516 7.07331 72.4676 9.06147 75.251C11.0496 78.0344 13.833 80.6853 17.4117 83.4687C20.9904 86.1196 24.9667 88.3728 29.6057 90.361C34.1122 92.2166 39.8116 93.6746 46.5713 94.8675C53.331 96.0603 60.6209 96.5905 68.7061 96.5905ZM154.323 2.35202V95.1325H256.249V72.07H185.868V2.35202H154.323ZM297.311 2.48457H265.765V95H297.311V2.48457ZM344.95 73.2628V57.8878H657.222V36.4157H344.95V22.6312H658.946V1.29168H313.272V95H660.403V73.2628H344.95ZM674.531 2.35202V95.1325H705.678V33.6323L774.336 95.1325H805.616V2.35202H774.336V60.6712L709.787 2.35202H674.531ZM858.548 95.1325H890.491V24.3543H934.098V2.35202H815.074V24.3543H858.548V95.1325ZM943.501 2.08694V95H1051.66V73.3954H974.781V58.1529H1048.48V36.9459H974.781V23.1614H1050.2V2.08694H943.501ZM1121.36 96.7231H1130.64C1140.44 96.7231 1149.06 96.1929 1156.35 94.8675C1163.64 93.6746 1169.34 92.2166 1173.58 90.2284C1177.82 88.3728 1181.14 85.987 1183.65 83.2036C1186.17 80.2877 1187.89 77.5042 1188.69 74.8534C1189.49 72.2025 1189.88 69.154 1189.88 65.7079V63.9848C1189.88 54.5742 1185.77 47.8145 1177.29 43.4405C1168.94 39.0666 1155.42 36.6808 1136.47 36.4157L1126.92 36.2832L1119.5 36.1506C1113.01 36.0181 1107.97 35.6205 1104.39 34.8252C1100.81 33.8974 1098.56 32.9696 1097.63 32.0418C1096.57 30.9814 1096.17 29.7885 1096.17 28.198C1096.17 26.475 1096.57 25.1495 1097.5 24.2217C1098.3 23.2939 1100.81 22.3661 1104.79 21.4383C1108.9 20.643 1113.67 20.2454 1121.36 20.2454H1126C1131.03 20.2454 1133.95 20.5105 1137.66 21.0407C1141.37 21.7034 1144.29 22.3661 1146.14 23.0288C1148.13 23.8241 1149.59 24.7519 1150.78 25.9448C1151.98 27.1377 1152.77 28.0655 1153.04 28.7282C1153.3 29.3909 1153.57 30.3187 1153.83 31.2465H1186.7V30.0536C1186.7 27.0051 1186.17 24.2217 1185.11 21.5708C1184.18 19.0525 1182.33 16.4016 1179.68 13.7508C1177.03 11.0999 1173.58 8.84666 1169.34 6.99105C1165.1 5.13544 1159.53 3.67746 1152.37 2.48457C1145.35 1.29168 1137.13 0.761501 1127.99 0.761501H1118.57C1109.69 0.761501 1101.87 1.29168 1095.25 2.48457C1088.49 3.54491 1083.19 5.0029 1079.21 6.72597C1075.23 8.44903 1072.05 10.5697 1069.67 13.0881C1067.15 15.7389 1065.56 18.2573 1064.76 20.7756C1063.97 23.2939 1063.57 26.0773 1063.57 28.9933V30.1862C1063.57 47.4168 1080 56.5624 1112.88 57.3576L1120.3 57.4902L1130.24 57.7552C1137.79 57.8878 1143.49 58.418 1147.47 59.2132C1151.45 60.141 1154.1 61.2014 1155.16 62.2617C1156.22 63.4546 1156.75 65.0451 1156.75 67.0333C1156.75 68.4913 1156.48 69.6842 1155.82 70.7445C1155.16 71.8049 1153.96 72.7327 1151.98 73.793C1150.12 74.8534 1147.07 75.5161 1142.96 76.0463C1138.72 76.5764 1136.07 76.9741 1129.71 76.9741H1122.42C1103.07 76.9741 1095.91 72.07 1095.25 62.2617H1062.24V63.5872C1062.24 66.5031 1062.51 69.2865 1063.17 71.8049C1063.83 74.3232 1065.42 77.2392 1067.81 80.4202C1070.2 83.6013 1073.51 86.3847 1077.49 88.6379C1081.59 90.8911 1087.43 92.7468 1094.98 94.3373C1102.4 95.9278 1111.28 96.7231 1121.36 96.7231Z" fill="white"/>
</svg>
