<?xml version="1.0" encoding="UTF-8"?>
<svg id="Layer_1" xmlns="http://www.w3.org/2000/svg" version="1.1" viewBox="0 0 582 83">
  <!-- Generator: Adobe Illustrator 29.6.1, SVG Export Plug-In . SVG Version: 2.1.1 Build 9)  -->
  <defs>
    <style>
      .st0 {
        fill: #fff;
      }
    </style>
  </defs>
  <path class="st0" d="M130.3,43.9c-2.6-8.7-6.6-16.3-11.8-22.8-5.2-6.5-11.8-11.6-19.8-15.4C90.8,2,81.5.1,70.8.1s-16.9,1.7-24.4,5.1c-7.5,3.4-13.4,9-17.6,16.8h-.5V3.8H0v79.2h29.8c-.6-3.7-.9-7.7-.9-11.8,0-14.4,3.2-26,9.6-34.6,6.4-8.7,15.9-13,28.5-13s11.5,1.3,16.3,4c4.7,2.7,8.7,6.3,11.8,10.7,3.1,4.4,5.5,9.5,7.1,15.2,1.6,5.7,2.4,11.6,2.4,17.7h0c0,4-.3,7.9-.9,11.8h30.2c.4-3.7.6-7.5.6-11.2,0-9.9-1.3-19.2-3.9-27.9Z"/>
  <path class="st0" d="M272,78.8c1.2-10.1.6-19.8-2-29.3-2.5-9.5-6.6-17.8-12.2-25.1-5.6-7.3-12.6-13.2-21.1-17.6C228.2,2.3,218.6.1,208,.1s-19.2,1.9-27.3,5.7c-8,3.8-14.9,9-20.6,15.5-5.7,6.5-10.1,14.1-13.1,22.7-3.1,8.6-4.6,17.7-4.6,27.2s.2,8,.7,11.8h29.4c-.1-1.4-.2-2.8-.2-4.2h99.7ZM175.3,45.2c1.8-4.3,4.3-8.1,7.3-11.3,3.1-3.2,6.7-5.7,11-7.6,4.3-1.8,9.2-2.7,14.3-2.7s9.7,1,13.8,3c4.1,2,7.6,4.6,10.5,7.8,2.9,3.2,5.2,7,6.8,11.3,1.7,4.3,2.7,8.9,3,13.5h-69.8c.2-5,1.2-9.7,3-14.1Z"/>
  <path class="st0" d="M315.1,56c2-5.9,4.7-10.8,8.1-14.8,3.4-4,7.4-7,12-9.1,4.6-2,12.3-3.9,27.8-2.4V1.1c-1.4-.2-2.8-.4-4.2-.5-1.3-.2-3.8-.3-7.4-.3s-9.2.9-13.7,2.7c-4.5,1.8-8.6,4.1-12.2,7.1-3.7,2.9-6.8,6.2-9.4,9.7-2.6,3.6-4.3,7.2-5.2,10.9h-.5V4h-28.8v79h30.6v-6.7c0-7.6,1-14.4,3-20.3Z"/>
  <polygon class="st0" points="417.6 42.5 417.6 29.7 453.4 29.7 453.4 0 417.6 0 417.6 14.2 402.7 14.2 402.7 3.5 372.1 3.5 372.1 83 402.7 83 402.7 42.5 417.6 42.5"/>
  <polygon class="st0" points="567.7 28.5 567.7 14.4 553.5 14.4 553.5 .2 482.1 .2 482.1 14.4 467.8 14.4 467.8 28.5 453.6 28.5 453.6 83 482.1 83 482.1 42.7 496.3 42.7 496.3 28.5 539.2 28.5 539.2 42.7 553.5 42.7 553.5 83 582 83 582 28.5 567.7 28.5"/>
</svg>