<svg width="582" height="83" viewBox="0 0 582 83" fill="none" xmlns="http://www.w3.org/2000/svg">
<g clip-path="url(#clip0_1681_8925)">
<path d="M0 3.77028H28.3232V22.004H28.8484C33.0453 14.1889 38.899 8.58834 46.419 5.20242C53.9343 1.8165 62.0655 0.123535 70.8127 0.123535C81.4745 0.123535 90.785 1.99196 98.7443 5.72406C106.699 9.46091 113.302 14.5825 118.545 21.0935C123.792 27.6045 127.726 35.2015 130.348 43.8845C132.969 52.5674 134.282 61.8574 134.282 71.7543C134.282 80.7834 133.103 89.5565 130.739 98.064C128.381 106.571 124.795 114.083 119.987 120.594C115.174 127.105 109.105 132.317 101.762 136.224C94.4185 140.132 85.7621 142.086 75.7974 142.086C71.4238 142.086 67.0503 141.697 62.6862 140.914C58.3127 140.132 54.1158 138.871 50.0955 137.14C46.0705 135.404 42.3606 133.189 38.9467 130.496C35.5376 127.807 32.692 124.634 30.424 120.988H29.8988V188.189H0V3.77028ZM104.378 71.2327C104.378 65.1579 103.591 59.2492 102.02 53.5206C100.444 47.792 98.0854 42.7131 94.9389 38.2839C91.7925 33.8547 87.8581 30.2981 83.136 27.6045C78.4139 24.9157 72.9947 23.5689 66.8784 23.5689C54.2877 23.5689 44.8052 27.9128 38.4215 36.591C32.0378 45.2739 28.8484 56.8212 28.8484 71.2327C28.8484 78.0045 29.6744 84.3022 31.3407 90.1161C33.0023 95.9347 35.4899 100.924 38.813 105.092C42.1314 109.26 46.1087 112.561 50.7449 114.989C55.3763 117.422 60.7525 118.636 66.8736 118.636C73.6918 118.636 79.4643 117.246 84.1817 114.467C88.9038 111.693 92.7904 108.084 95.8509 103.66C98.9067 99.2306 101.098 94.1991 102.406 88.5512C103.72 82.9079 104.374 77.1367 104.374 71.2279L104.378 71.2327Z" fill="#111111"/>
<path d="M172.3 78.7865C172.3 83.9982 173.04 89.0344 174.53 93.8951C176.015 98.7606 178.24 103.01 181.219 106.656C184.189 110.303 187.947 113.215 192.497 115.382C197.042 117.554 202.462 118.64 208.755 118.64C217.497 118.64 224.53 116.776 229.868 113.039C235.201 109.307 239.179 103.707 241.8 96.2378H270.123C268.547 103.531 265.835 110.042 261.992 115.776C258.144 121.509 253.507 126.327 248.093 130.235C242.674 134.142 236.596 137.096 229.868 139.093C223.136 141.089 216.098 142.09 208.755 142.09C198.088 142.09 188.649 140.354 180.431 136.883C172.21 133.412 165.262 128.546 159.581 122.296C153.899 116.046 149.616 108.582 146.732 99.894C143.848 91.211 142.406 81.6603 142.406 71.2417C142.406 61.6956 143.934 52.6191 146.995 44.0215C150.05 35.4239 154.424 27.8696 160.106 21.3586C165.788 14.8475 172.649 9.6833 180.694 5.8611C188.735 2.03415 197.826 0.123047 207.967 0.123047C218.629 0.123047 228.202 2.33765 236.686 6.76686C245.166 11.1961 252.199 17.0574 257.8 24.3509C263.396 31.6444 267.459 40.0238 269.994 49.4845C272.525 58.9499 273.184 68.7188 271.961 78.7865H172.3ZM242.063 59.2487C241.709 54.5586 240.707 50.0488 239.045 45.705C237.383 41.3659 235.111 37.5911 232.227 34.3759C229.343 31.1654 225.843 28.562 221.737 26.5608C217.626 24.5643 213.038 23.5637 207.967 23.5637C202.896 23.5637 197.954 24.4742 193.672 26.2999C189.384 28.1209 185.712 30.6438 182.656 33.8542C179.596 37.0694 177.147 40.8442 175.313 45.1833C173.48 49.5272 172.467 54.2125 172.295 59.2487H242.058H242.063Z" fill="#111111"/>
<path d="M281.525 4.0121H310.269V30.6917H310.803C311.696 26.9548 313.444 23.3128 316.041 19.7514C318.634 16.1948 321.771 12.9464 325.442 10.011C329.109 7.07555 333.187 4.71868 337.665 2.94036C342.139 1.16678 346.709 0.270508 351.364 0.270508C354.945 0.270508 357.409 0.360609 358.75 0.53607C360.092 0.716274 361.477 0.896477 362.914 1.0672V29.7148C347.363 28.2115 339.676 30.1084 335.111 32.1523C330.542 34.2009 326.555 37.2217 323.155 41.2241C319.751 45.2265 317.063 50.1631 315.096 56.0339C313.124 61.9048 312.14 68.6671 312.14 76.3115V141.948H281.516V4.0121H281.525Z" fill="#111111"/>
<path d="M372.062 141.72V3.51871H402.687V14.1507H417.646V0H453.37V29.7146H417.646V42.4616H402.687V141.725H372.062V141.72Z" fill="#111111"/>
<path d="M482.058 141.953V127.802H467.81V113.651H453.562V28.5386H467.81V14.3879H482.058V0.232422H553.5V14.3831H567.748V28.5338H581.996V113.647H567.748V127.797H553.5V141.948H482.058V141.953ZM539.153 113.651V99.5007H553.5V42.694H539.153V28.5433H496.305V42.694H482.058V99.5007H496.305V113.651H539.153Z" fill="#111111"/>
</g>
<defs>
<clipPath id="clip0_1681_8925">
<rect width="582" height="83" fill="white"/>
</clipPath>
</defs>
</svg>
