<?xml version="1.0" encoding="utf-8"?>
<!-- Generator: Adobe Illustrator 26.3.1, SVG Export Plug-In . SVG Version: 6.00 Build 0)  -->
<svg version="1.1" id="Capa_1" xmlns="http://www.w3.org/2000/svg" xmlns:xlink="http://www.w3.org/1999/xlink" x="0px" y="0px"
	 viewBox="0 0 100 100" style="enable-background:new 0 0 100 100;" xml:space="preserve">
<style type="text/css">
	.st0{fill:#FFFFFF;}
</style>
<path class="st0" d="M94.5,62.5c-0.3-0.2-0.6-0.3-0.9-0.4c-9.4-3.9-18.7-7.8-28.1-11.8c-0.2-0.1-0.4-0.2-0.7-0.3
	c0.2-0.1,0.4-0.2,0.5-0.2c5-2.1,10-4.2,15-6.2c4.6-1.9,9.1-3.8,13.7-5.7c1.2-0.5,1.7-1.5,1.4-2.5c-0.3-1.1-1.3-1.6-2.7-1.3
	c-7.3,1.7-14.5,3.4-21.8,5.1c-3,0.7-5.9,1.4-9,2.1c0.2-0.3,0.3-0.5,0.4-0.7c5.3-8.7,10.6-17.4,15.9-26c0.2-0.3,0.4-0.7,0.5-1.1
	c0.3-1.2-0.6-2.3-1.8-2.4c-0.9,0-1.5,0.5-2,1.1c-6,7-12.1,14.1-18.1,21.1c-0.7,0.9-1.5,1.7-2.3,2.6c0-0.4,0-0.7-0.1-0.9
	c-0.2-2.5-0.4-5-0.6-7.5c-0.2-2.1-0.3-4.1-0.5-6.2c-0.2-2.5-0.4-5-0.6-7.5c-0.2-2.6-0.4-5.1-0.6-7.7c-0.1-0.8-0.1-1.5-0.3-2.3
	c-0.2-1-1.1-1.6-2-1.6C49,2.3,48.2,3,48.1,4c-0.1,1.1-0.2,2.1-0.3,3.2c-0.2,1.9-0.3,3.7-0.4,5.6c-0.2,2-0.3,4-0.5,6
	c-0.2,1.9-0.3,3.7-0.4,5.6c-0.2,2.6-0.4,5.2-0.7,7.9c-0.1,1.2-0.2,2.4-0.3,3.7c-0.3-0.3-0.5-0.5-0.7-0.8
	C38.1,27.4,31.5,19.7,24.9,12c-0.3-0.4-0.8-0.7-1.3-0.9c-1.3-0.4-2.6,0.8-2.4,2.1c0.1,0.5,0.3,0.9,0.6,1.4
	c4.2,6.9,8.3,13.7,12.5,20.6c1.2,2,2.4,4,3.7,6.1c-0.3-0.1-0.5-0.1-0.8-0.1c-8.9-2.1-17.8-4.2-26.6-6.4c-1.3-0.3-2.7-0.7-4.1-0.8
	c-1.1-0.1-1.8,0.5-2,1.5c-0.2,0.8,0.3,1.8,1.2,2.2c0.4,0.2,0.7,0.3,1.1,0.5c9.3,3.9,18.5,7.8,27.8,11.6c0.2,0.1,0.3,0.2,0.5,0.3
	c-0.3,0.1-0.4,0.2-0.6,0.3c-8.1,3.4-16.2,6.7-24.3,10.1c-1.4,0.6-2.9,1.2-4.3,1.8c-1.3,0.6-1.8,1.8-1.1,2.9C5.3,66,6.2,66.2,7.4,66
	c8.9-2.1,17.9-4.2,26.8-6.4c1.2-0.3,2.4-0.6,3.7-0.9c-0.2,0.3-0.3,0.5-0.4,0.7c-4.7,7.7-9.4,15.5-14.2,23.2c-0.7,1.1-1.4,2.2-2,3.3
	c-0.4,0.7-0.5,1.5,0,2.2c0.4,0.7,1.1,1,1.9,0.8c0.5-0.2,1.1-0.5,1.5-0.9c5.7-6.6,11.4-13.2,17-19.8c1.2-1.4,2.3-2.7,3.6-4.2
	c0.3,3.6,0.6,7,0.9,10.4c0.2,2.6,0.4,5.1,0.6,7.7c0.3,3.2,0.5,6.3,0.8,9.5c0.1,1.4,0.2,2.9,0.4,4.3c0.2,1.2,1,1.8,2.1,1.7
	c0.9,0,1.7-0.9,1.8-1.9c0.3-2.8,0.5-5.7,0.7-8.5c0.2-2.4,0.4-4.8,0.6-7.1c0.3-3.1,0.5-6.3,0.8-9.4c0.2-2.2,0.4-4.4,0.6-6.7
	c0.2,0.2,0.2,0.3,0.3,0.3c6.5,7.6,13,15.1,19.5,22.7c0.4,0.5,0.9,1.1,1.4,1.5c1.2,0.9,2.8,0.3,3-1.2c0.2-0.8-0.3-1.5-0.6-2.1
	c-5.3-8.7-10.5-17.3-15.8-26c-0.1-0.2-0.2-0.4-0.3-0.6c0.2,0,0.2,0,0.2,0c9.2,2.2,18.4,4.4,27.6,6.6c1.2,0.3,2.3,0.6,3.5,0.7
	c0.9,0.1,1.7-0.5,2-1.3C95.7,63.9,95.3,63,94.5,62.5z"/>
</svg>
