<?xml version="1.0" encoding="utf-8"?>
<!-- Generator: Adobe Illustrator 26.3.1, SVG Export Plug-In . SVG Version: 6.00 Build 0)  -->
<svg version="1.1" id="Capa_1" xmlns="http://www.w3.org/2000/svg" xmlns:xlink="http://www.w3.org/1999/xlink" x="0px" y="0px"
	 viewBox="0 0 460.6 299.1" style="enable-background:new 0 0 460.6 299.1;" xml:space="preserve">
<style type="text/css">
	.st0{fill:#FFFFFF;}
</style>
<path class="st0" d="M6.3,41.1c0-17.7,14.3-32,32-32h384c17.7,0,32,14.3,32,32s-14.3,32-32,32h-384C20.6,73.1,6.3,58.8,6.3,41.1z"/>
<path class="st0" d="M6.3,149.6c0-17.7,14.3-32,32-32h384c17.7,0,32,14.3,32,32s-14.3,32-32,32h-384C20.6,181.6,6.3,167.3,6.3,149.6
	z"/>
<path class="st0" d="M422.5,290.1h-384c-42-0.6-42.2-63.3,0-64c0,0,384,0,384,0C464.5,226.7,464.7,289.4,422.5,290.1z"/>
</svg>
