<svg width="1114" height="97" viewBox="0 0 1114 97" fill="none" xmlns="http://www.w3.org/2000/svg">
<path d="M68.7061 96.5905H74.2729C85.274 96.5905 95.0823 95.6627 103.565 93.8071C112.048 91.819 118.675 89.4332 123.314 86.7823C128.086 83.9989 131.929 80.8178 134.978 77.2392C137.894 73.5279 139.882 70.3469 140.942 67.4309C141.87 64.515 142.268 61.599 142.268 58.8156V57.4902H108.602C108.602 57.6227 108.602 57.7552 108.469 57.8878C104.758 68.6238 92.5639 74.0581 71.7546 74.0581C64.7298 74.0581 58.6328 73.2628 53.4636 71.6723C48.2944 70.0818 44.4506 67.9611 41.7997 65.3102C39.1489 62.6594 37.1607 60.0085 35.9678 57.2251C34.7749 54.4417 34.1122 51.5257 34.1122 48.4772V47.0192C34.1122 43.8382 34.6424 40.9222 35.8353 38.2713C36.8956 35.6205 38.7512 33.1021 41.2696 30.5838C43.9204 28.198 47.7642 26.3424 52.9334 25.017C57.9701 23.559 64.1996 22.8963 71.4895 22.8963C77.5865 22.8963 82.8882 23.4265 87.6598 24.3543C92.2988 25.2821 95.8775 26.3424 98.2633 27.5353C100.649 28.7282 102.637 30.1862 104.36 31.9092C106.083 33.6323 107.144 34.9578 107.541 35.753C107.939 36.5483 108.204 37.3435 108.469 38.4039H142.135V36.9459C142.135 34.4276 141.738 31.7767 140.942 28.9933C140.015 26.2099 138.159 23.0288 135.11 19.4501C132.194 15.8715 128.351 12.823 123.712 10.0396C119.073 7.38868 112.445 5.13544 103.963 3.14729C95.3474 1.29168 85.5391 0.363867 74.2729 0.363867H68.7061C57.3073 0.363867 47.234 1.42422 38.7512 3.67746C30.1359 5.79816 23.5087 8.44903 18.8697 11.6301C14.2307 14.8111 10.5194 18.6549 7.60349 23.0288C4.82007 27.4028 2.96446 31.3791 2.1692 34.9578C1.37394 38.5364 0.976308 42.3802 0.976308 46.3565V50.0677C0.976308 52.586 1.10885 55.1044 1.50648 57.7552C1.90411 60.2736 2.83192 63.1895 4.15735 66.3706C5.48279 69.5516 7.07331 72.4676 9.06147 75.251C11.0496 78.0344 13.833 80.6853 17.4117 83.4687C20.9904 86.1196 24.9667 88.3728 29.6057 90.361C34.1122 92.2166 39.8116 93.6746 46.5713 94.8675C53.331 96.0603 60.6209 96.5905 68.7061 96.5905ZM221.523 0.761501C212.642 0.761501 204.69 1.29168 197.4 2.48457C190.242 3.54491 184.145 5.0029 179.241 6.85851C174.47 8.71412 170.228 10.9674 166.65 13.6182C162.938 16.2691 160.155 18.92 158.034 21.5708C156.046 24.2217 154.456 27.1377 153.263 30.3187C151.937 33.4998 151.142 36.4157 150.877 38.8015C150.479 41.3198 150.347 43.8382 150.347 46.6216V50.3328C150.347 52.9837 150.479 55.6345 150.877 58.1529C151.142 60.5387 151.937 63.4546 153.263 66.6357C154.456 69.8167 156.046 72.7327 158.034 75.5161C160.155 78.167 162.938 80.8178 166.65 83.6013C170.361 86.2521 174.602 88.5054 179.374 90.4935C184.145 92.3491 190.242 93.8071 197.4 95C204.69 96.1929 212.642 96.7231 221.523 96.7231H225.764C234.644 96.7231 242.597 96.1929 249.754 95C257.044 93.8071 263.009 92.3491 267.78 90.4935C272.552 88.5054 276.793 86.2521 280.505 83.6013C284.216 80.8178 286.999 78.167 288.987 75.5161C290.975 72.7327 292.566 69.8167 293.891 66.6357C295.084 63.4546 296.012 60.5387 296.277 58.1529C296.675 55.6345 296.807 52.9837 296.807 50.3328V46.6216C296.807 43.8382 296.675 41.3198 296.277 38.8015C296.012 36.2832 295.084 33.4998 293.891 30.3187C292.566 27.1377 290.975 24.2217 288.855 21.5708C286.867 18.92 284.083 16.2691 280.372 13.6182C276.793 10.9674 272.552 8.71412 267.78 6.85851C262.876 5.0029 256.912 3.54491 249.754 2.48457C242.597 1.29168 234.644 0.761501 225.764 0.761501H221.523ZM263.672 49.2725C263.672 52.1884 263.141 55.1044 261.948 57.7552C260.888 60.4061 258.9 63.057 256.117 65.5753C253.333 68.2262 249.092 70.3469 243.392 71.8049C238.488 73.2628 232.524 73.9256 225.764 74.1907C224.704 74.1907 223.113 74.1907 222.45 74.1907C215.161 74.0581 208.798 73.2628 203.497 71.8049C197.797 70.2143 193.688 68.0936 190.905 65.4428C188.254 62.7919 186.266 60.141 185.206 57.4902C184.013 54.8393 183.483 51.9233 183.483 49.0074V47.5494C183.483 31.7767 196.339 23.6915 221.92 23.1614C222.716 23.1614 225.101 23.1614 226.294 23.2939C231.463 23.4265 236.102 23.8241 240.211 24.7519C245.115 25.8122 249.092 27.1377 252.008 28.7282C254.924 30.1862 257.309 32.1743 259.032 34.4276C260.888 36.6808 262.081 38.8015 262.744 40.9222C263.406 42.9104 263.672 45.1636 263.672 47.5494V49.2725ZM308.871 2.35202V95.1325H340.019V33.6323L408.676 95.1325H439.957V2.35202H408.676V60.6712L344.128 2.35202H308.871ZM492.888 95.1325H524.831V24.3543H568.438V2.35202H449.414V24.3543H492.888V95.1325ZM650.059 3.27983H603.006L553.832 94.8675H584.847L593.463 78.167H659.602L668.217 94.8675H699.365L650.059 3.27983ZM604.199 57.4902L621.562 23.8241H631.503L648.999 57.4902H604.199ZM763.783 96.5905H769.35C780.351 96.5905 790.16 95.6627 798.642 93.8071C807.125 91.819 813.752 89.4332 818.391 86.7823C823.163 83.9989 827.007 80.8178 830.055 77.2392C832.971 73.5279 834.959 70.3469 836.02 67.4309C836.947 64.515 837.345 61.599 837.345 58.8156V57.4902H803.679C803.679 57.6227 803.679 57.7552 803.546 57.8878C799.835 68.6238 787.641 74.0581 766.832 74.0581C759.807 74.0581 753.71 73.2628 748.541 71.6723C743.372 70.0818 739.528 67.9611 736.877 65.3102C734.226 62.6594 732.238 60.0085 731.045 57.2251C729.852 54.4417 729.189 51.5257 729.189 48.4772V47.0192C729.189 43.8382 729.72 40.9222 730.913 38.2713C731.973 35.6205 733.829 33.1021 736.347 30.5838C738.998 28.198 742.841 26.3424 748.011 25.017C753.047 23.559 759.277 22.8963 766.567 22.8963C772.664 22.8963 777.966 23.4265 782.737 24.3543C787.376 25.2821 790.955 26.3424 793.341 27.5353C795.726 28.7282 797.715 30.1862 799.438 31.9092C801.161 33.6323 802.221 34.9578 802.619 35.753C803.016 36.5483 803.281 37.3435 803.546 38.4039H837.213V36.9459C837.213 34.4276 836.815 31.7767 836.02 28.9933C835.092 26.2099 833.236 23.0288 830.188 19.4501C827.272 15.8715 823.428 12.823 818.789 10.0396C814.15 7.38868 807.523 5.13544 799.04 3.14729C790.425 1.29168 780.616 0.363867 769.35 0.363867H763.783C752.385 0.363867 742.311 1.42422 733.829 3.67746C725.213 5.79816 718.586 8.44903 713.947 11.6301C709.308 14.8111 705.597 18.6549 702.681 23.0288C699.897 27.4028 698.042 31.3791 697.246 34.9578C696.451 38.5364 696.054 42.3802 696.054 46.3565V50.0677C696.054 52.586 696.186 55.1044 696.584 57.7552C696.981 60.2736 697.909 63.1895 699.235 66.3706C700.56 69.5516 702.151 72.4676 704.139 75.251C706.127 78.0344 708.91 80.6853 712.489 83.4687C716.068 86.1196 720.044 88.3728 724.683 90.361C729.189 92.2166 734.889 93.6746 741.649 94.8675C748.408 96.0603 755.698 96.5905 763.783 96.5905ZM886.247 95.1325H918.19V24.3543H961.797V2.35202H842.773V24.3543H886.247V95.1325ZM1038.4 0.761501C1029.52 0.761501 1021.57 1.29168 1014.28 2.48457C1007.12 3.54491 1001.02 5.0029 996.119 6.85851C991.347 8.71412 987.106 10.9674 983.527 13.6182C979.816 16.2691 977.033 18.92 974.912 21.5708C972.924 24.2217 971.333 27.1377 970.14 30.3187C968.815 33.4998 968.02 36.4157 967.754 38.8015C967.357 41.3198 967.224 43.8382 967.224 46.6216V50.3328C967.224 52.9837 967.357 55.6345 967.754 58.1529C968.02 60.5387 968.815 63.4546 970.14 66.6357C971.333 69.8167 972.924 72.7327 974.912 75.5161C977.033 78.167 979.816 80.8178 983.527 83.6013C987.238 86.2521 991.48 88.5054 996.251 90.4935C1001.02 92.3491 1007.12 93.8071 1014.28 95C1021.57 96.1929 1029.52 96.7231 1038.4 96.7231H1042.64C1051.52 96.7231 1059.47 96.1929 1066.63 95C1073.92 93.8071 1079.89 92.3491 1084.66 90.4935C1089.43 88.5054 1093.67 86.2521 1097.38 83.6013C1101.09 80.8178 1103.88 78.167 1105.86 75.5161C1107.85 72.7327 1109.44 69.8167 1110.77 66.6357C1111.96 63.4546 1112.89 60.5387 1113.15 58.1529C1113.55 55.6345 1113.68 52.9837 1113.68 50.3328V46.6216C1113.68 43.8382 1113.55 41.3198 1113.15 38.8015C1112.89 36.2832 1111.96 33.4998 1110.77 30.3187C1109.44 27.1377 1107.85 24.2217 1105.73 21.5708C1103.74 18.92 1100.96 16.2691 1097.25 13.6182C1093.67 10.9674 1089.43 8.71412 1084.66 6.85851C1079.75 5.0029 1073.79 3.54491 1066.63 2.48457C1059.47 1.29168 1051.52 0.761501 1042.64 0.761501H1038.4ZM1080.55 49.2725C1080.55 52.1884 1080.02 55.1044 1078.83 57.7552C1077.77 60.4061 1075.78 63.057 1072.99 65.5753C1070.21 68.2262 1065.97 70.3469 1060.27 71.8049C1055.37 73.2628 1049.4 73.9256 1042.64 74.1907C1041.58 74.1907 1039.99 74.1907 1039.33 74.1907C1032.04 74.0581 1025.68 73.2628 1020.37 71.8049C1014.67 70.2143 1010.57 68.0936 1007.78 65.4428C1005.13 62.7919 1003.14 60.141 1002.08 57.4902C1000.89 54.8393 1000.36 51.9233 1000.36 49.0074V47.5494C1000.36 31.7767 1013.22 23.6915 1038.8 23.1614C1039.59 23.1614 1041.98 23.1614 1043.17 23.2939C1048.34 23.4265 1052.98 23.8241 1057.09 24.7519C1061.99 25.8122 1065.97 27.1377 1068.89 28.7282C1071.8 30.1862 1074.19 32.1743 1075.91 34.4276C1077.77 36.6808 1078.96 38.8015 1079.62 40.9222C1080.28 42.9104 1080.55 45.1636 1080.55 47.5494V49.2725Z" fill="white"/>
</svg>
