<svg width="1252" height="97" viewBox="0 0 1252 97" fill="none" xmlns="http://www.w3.org/2000/svg">
<path d="M59.6209 96.7231H68.899C78.7072 96.7231 87.3225 96.1929 94.6124 94.8675C101.902 93.6746 107.602 92.2166 111.843 90.2284C116.084 88.3728 119.398 85.987 121.916 83.2036C124.435 80.2877 126.158 77.5042 126.953 74.8534C127.748 72.2025 128.146 69.154 128.146 65.7079V63.9848C128.146 54.5742 124.037 47.8145 115.554 43.4405C107.204 39.0666 93.6846 36.6808 74.7309 36.4157L65.1878 36.2832L57.7653 36.1506C51.2707 36.0181 46.234 35.6205 42.6553 34.8252C39.0767 33.8974 36.8234 32.9696 35.8956 32.0418C34.8353 30.9814 34.4376 29.7885 34.4376 28.198C34.4376 26.475 34.8353 25.1495 35.7631 24.2217C36.5583 23.2939 39.0767 22.3661 43.053 21.4383C47.1618 20.643 51.9334 20.2454 59.6209 20.2454H64.26C69.2966 20.2454 72.2126 20.5105 75.9238 21.0407C79.635 21.7034 82.551 22.3661 84.4066 23.0288C86.3947 23.8241 87.8527 24.7519 89.0456 25.9448C90.2385 27.1377 91.0338 28.0655 91.2988 28.7282C91.5639 29.3909 91.829 30.3187 92.0941 31.2465H124.965V30.0536C124.965 27.0051 124.435 24.2217 123.374 21.5708C122.447 19.0525 120.591 16.4016 117.94 13.7508C115.289 11.0999 111.843 8.84666 107.602 6.99105C103.36 5.13544 97.7935 3.67746 90.6361 2.48457C83.6113 1.29168 75.3936 0.761501 66.2481 0.761501H56.8375C47.9571 0.761501 40.137 1.29168 33.5098 2.48457C26.7501 3.54491 21.4484 5.0029 17.4721 6.72597C13.4958 8.44903 10.3147 10.5697 7.92892 13.0881C5.4106 15.7389 3.82007 18.2573 3.02481 20.7756C2.22955 23.2939 1.83192 26.0773 1.83192 28.9933V30.1862C1.83192 47.4168 18.2673 56.5624 51.1381 57.3576L58.5606 57.4902L68.5014 57.7552C76.0563 57.8878 81.7557 58.418 85.732 59.2132C89.7083 60.141 92.3592 61.2014 93.4195 62.2617C94.4799 63.4546 95.0101 65.0451 95.0101 67.0333C95.0101 68.4913 94.745 69.6842 94.0823 70.7445C93.4195 71.8049 92.2267 72.7327 90.2385 73.793C88.3829 74.8534 85.3344 75.5161 81.2255 76.0463C76.9841 76.5764 74.3333 76.9741 67.9712 76.9741H60.6813C41.3299 76.9741 34.1726 72.07 33.5098 62.2617H0.506482V63.5872C0.506482 66.5031 0.77157 69.2865 1.43429 71.8049C2.09701 74.3232 3.68753 77.2392 6.07331 80.4202C8.4591 83.6013 11.7727 86.3847 15.749 88.6379C19.8578 90.8911 25.6898 92.7468 33.2448 94.3373C40.6672 95.9278 49.5476 96.7231 59.6209 96.7231ZM140.638 2.08694V95H248.794V73.3954H171.918V58.1529H245.613V36.9459H171.918V23.1614H247.336V2.08694H140.638ZM372.043 56.4298C368.862 52.8511 364.62 50.4653 359.451 49.0074C370.717 45.2961 376.417 38.669 376.417 28.9933V27.5353C376.417 11.7626 363.162 3.81 336.654 3.81H262.827V95H291.456V62.6594H328.834C335.858 62.6594 340.762 63.9848 343.678 66.5031C346.594 69.0215 348.052 73.1303 348.052 78.6971V95H376.814V69.9493C376.814 64.3824 375.224 59.8759 372.043 56.4298ZM346.462 33.4998C346.462 36.1506 345.534 38.4039 343.678 39.9944C341.823 41.5849 338.907 42.5127 334.931 42.5127H291.456V24.4868H334.931C338.907 24.4868 341.823 25.4146 343.678 27.0051C345.534 28.5957 346.462 30.7164 346.462 33.3672V33.4998ZM469.661 93.9397L517.907 2.35202H485.434L450.972 69.6842L414.258 2.35202H378.869L430.693 93.9397H469.661ZM557.256 2.48457H525.71V95H557.256V2.48457ZM636.97 96.5905H642.537C653.538 96.5905 663.347 95.6627 671.829 93.8071C680.312 91.819 686.939 89.4332 691.578 86.7823C696.35 83.9989 700.194 80.8178 703.242 77.2392C706.158 73.5279 708.146 70.3469 709.207 67.4309C710.135 64.515 710.532 61.599 710.532 58.8156V57.4902H676.866C676.866 57.6227 676.866 57.7552 676.734 57.8878C673.022 68.6238 660.828 74.0581 640.019 74.0581C632.994 74.0581 626.897 73.2628 621.728 71.6723C616.559 70.0818 612.715 67.9611 610.064 65.3102C607.413 62.6594 605.425 60.0085 604.232 57.2251C603.039 54.4417 602.377 51.5257 602.377 48.4772V47.0192C602.377 43.8382 602.907 40.9222 604.1 38.2713C605.16 35.6205 607.016 33.1021 609.534 30.5838C612.185 28.198 616.029 26.3424 621.198 25.017C626.234 23.559 632.464 22.8963 639.754 22.8963C645.851 22.8963 651.153 23.4265 655.924 24.3543C660.563 25.2821 664.142 26.3424 666.528 27.5353C668.914 28.7282 670.902 30.1862 672.625 31.9092C674.348 33.6323 675.408 34.9578 675.806 35.753C676.203 36.5483 676.468 37.3435 676.734 38.4039H710.4V36.9459C710.4 34.4276 710.002 31.7767 709.207 28.9933C708.279 26.2099 706.423 23.0288 703.375 19.4501C700.459 15.8715 696.615 12.823 691.976 10.0396C687.337 7.38868 680.71 5.13544 672.227 3.14729C663.612 1.29168 653.804 0.363867 642.537 0.363867H636.97C625.572 0.363867 615.498 1.42422 607.016 3.67746C598.4 5.79816 591.773 8.44903 587.134 11.6301C582.495 14.8111 578.784 18.6549 575.868 23.0288C573.084 27.4028 571.229 31.3791 570.434 34.9578C569.638 38.5364 569.241 42.3802 569.241 46.3565V50.0677C569.241 52.586 569.373 55.1044 569.771 57.7552C570.169 60.2736 571.096 63.1895 572.422 66.3706C573.747 69.5516 575.338 72.4676 577.326 75.251C579.314 78.0344 582.097 80.6853 585.676 83.4687C589.255 86.1196 593.231 88.3728 597.87 90.361C602.377 92.2166 608.076 93.6746 614.836 94.8675C621.595 96.0603 628.885 96.5905 636.97 96.5905ZM754 2.48457H722.455V95H754V2.48457ZM1115.1 38.5364C1114.84 36.1506 1114.04 33.3672 1112.98 30.3187C1111.79 27.2702 1110.33 24.4868 1108.48 21.8359C1106.62 19.1851 1104.1 16.6667 1100.92 14.0159C1097.61 11.4975 1093.77 9.24429 1089.52 7.52122C1085.15 5.66561 1079.72 4.34018 1073.35 3.14729C1066.86 2.08694 1059.7 1.55676 1051.88 1.55676H829.871C821.918 1.55676 814.761 2.08694 808.267 3.14729C801.772 4.34018 796.338 5.66561 791.964 7.52122C787.59 9.24429 783.746 11.4975 780.565 14.0159C777.251 16.6667 774.733 19.1851 772.877 21.8359C771.154 24.4868 769.696 27.2702 768.503 30.4513C767.443 33.4998 766.78 36.2832 766.383 38.669C766.118 41.0548 765.985 43.5731 765.985 46.224V49.9352C765.985 52.4535 766.118 54.9718 766.383 57.3576C766.78 59.8759 767.443 62.6594 768.503 65.7079C769.696 68.8889 771.154 71.6723 772.877 74.3232C774.733 76.9741 777.384 79.6249 780.565 82.2758C783.878 84.9267 787.722 87.0474 791.964 88.903C796.338 90.7586 801.772 92.2166 808.267 93.4095C814.761 94.4698 821.918 95 829.871 95H1051.88C1059.7 95 1066.86 94.4698 1073.35 93.4095C1079.85 92.2166 1085.28 90.7586 1089.52 88.903C1093.9 87.0474 1097.61 84.9267 1100.92 82.2758C1104.24 79.6249 1106.75 76.9741 1108.61 74.3232C1110.33 71.6723 1111.79 68.8889 1112.98 65.7079C1114.04 62.6594 1114.84 59.8759 1115.1 57.3576C1115.5 54.9718 1115.64 52.4535 1115.64 49.9352V46.224C1115.64 43.5731 1115.5 41.0548 1115.1 38.5364ZM1085.81 48.7423C1085.81 51.6582 1085.42 54.4417 1084.35 57.0925C1083.29 59.6109 1081.57 62.2617 1079.05 64.7801C1076.53 67.2984 1072.69 69.2865 1067.65 70.8771C1063.02 72.2025 1057.32 72.9978 1050.82 73.1303C1050.29 73.1303 832.92 73.1303 832.389 73.1303C825.1 73.1303 818.87 72.335 813.701 70.7445C808.664 69.2865 804.82 67.1658 802.435 64.6475C799.916 61.9966 798.193 59.3458 797.265 56.8274C796.205 54.1766 795.675 51.5257 795.675 48.6097V47.1518C795.675 31.2465 807.869 23.4265 832.389 23.4265C832.92 23.4265 1050.29 23.4265 1050.82 23.4265C1056.12 23.559 1060.76 23.9566 1064.74 24.8844C1069.24 25.9448 1072.82 27.2702 1075.34 28.7282C1077.99 30.3187 1080.11 32.1743 1081.7 34.295C1083.29 36.5483 1084.49 38.669 1085.02 40.6571C1085.55 42.6453 1085.81 44.766 1085.81 47.1518V48.7423ZM1183.39 96.7231H1192.67C1202.48 96.7231 1211.1 96.1929 1218.39 94.8675C1225.68 93.6746 1231.37 92.2166 1235.62 90.2284C1239.86 88.3728 1243.17 85.987 1245.69 83.2036C1248.21 80.2877 1249.93 77.5042 1250.73 74.8534C1251.52 72.2025 1251.92 69.154 1251.92 65.7079V63.9848C1251.92 54.5742 1247.81 47.8145 1239.33 43.4405C1230.98 39.0666 1217.46 36.6808 1198.5 36.4157L1188.96 36.2832L1181.54 36.1506C1175.04 36.0181 1170.01 35.6205 1166.43 34.8252C1162.85 33.8974 1160.6 32.9696 1159.67 32.0418C1158.61 30.9814 1158.21 29.7885 1158.21 28.198C1158.21 26.475 1158.61 25.1495 1159.54 24.2217C1160.33 23.2939 1162.85 22.3661 1166.83 21.4383C1170.93 20.643 1175.71 20.2454 1183.39 20.2454H1188.03C1193.07 20.2454 1195.99 20.5105 1199.7 21.0407C1203.41 21.7034 1206.32 22.3661 1208.18 23.0288C1210.17 23.8241 1211.63 24.7519 1212.82 25.9448C1214.01 27.1377 1214.81 28.0655 1215.07 28.7282C1215.34 29.3909 1215.6 30.3187 1215.87 31.2465H1248.74V30.0536C1248.74 27.0051 1248.21 24.2217 1247.15 21.5708C1246.22 19.0525 1244.36 16.4016 1241.71 13.7508C1239.06 11.0999 1235.62 8.84666 1231.37 6.99105C1227.13 5.13544 1221.57 3.67746 1214.41 2.48457C1207.38 1.29168 1199.17 0.761501 1190.02 0.761501H1180.61C1171.73 0.761501 1163.91 1.29168 1157.28 2.48457C1150.52 3.54491 1145.22 5.0029 1141.25 6.72597C1137.27 8.44903 1134.09 10.5697 1131.7 13.0881C1129.18 15.7389 1127.59 18.2573 1126.8 20.7756C1126 23.2939 1125.6 26.0773 1125.6 28.9933V30.1862C1125.6 47.4168 1142.04 56.5624 1174.91 57.3576L1182.33 57.4902L1192.27 57.7552C1199.83 57.8878 1205.53 58.418 1209.5 59.2132C1213.48 60.141 1216.13 61.2014 1217.19 62.2617C1218.25 63.4546 1218.78 65.0451 1218.78 67.0333C1218.78 68.4913 1218.52 69.6842 1217.86 70.7445C1217.19 71.8049 1216 72.7327 1214.01 73.793C1212.16 74.8534 1209.11 75.5161 1205 76.0463C1200.76 76.5764 1198.11 76.9741 1191.74 76.9741H1184.45C1165.1 76.9741 1157.95 72.07 1157.28 62.2617H1124.28V63.5872C1124.28 66.5031 1124.54 69.2865 1125.21 71.8049C1125.87 74.3232 1127.46 77.2392 1129.85 80.4202C1132.23 83.6013 1135.55 86.3847 1139.52 88.6379C1143.63 90.8911 1149.46 92.7468 1157.02 94.3373C1164.44 95.9278 1173.32 96.7231 1183.39 96.7231Z" fill="white"/>
</svg>
