<svg width="789" height="95" viewBox="0 0 789 95" fill="none" xmlns="http://www.w3.org/2000/svg">
<path d="M0.820073 94H32.3655V57.5505H100.095V94H131.773V1.48457H100.095V35.1506H32.3655V1.48457H0.820073V94ZM492.878 37.5364C492.613 35.1506 491.817 32.3672 490.757 29.3187C489.564 26.2702 488.106 23.4868 486.251 20.8359C484.395 18.1851 481.877 15.6667 478.696 13.0159C475.382 10.4975 471.538 8.24429 467.297 6.52122C462.923 4.66561 457.489 3.34018 451.127 2.14729C444.632 1.08694 437.475 0.55676 429.655 0.55676H207.644C199.691 0.55676 192.534 1.08694 186.039 2.14729C179.545 3.34018 174.11 4.66561 169.737 6.52122C165.363 8.24429 161.519 10.4975 158.338 13.0159C155.024 15.6667 152.506 18.1851 150.65 20.8359C148.927 23.4868 147.469 26.2702 146.276 29.4513C145.216 32.4998 144.553 35.2832 144.156 37.669C143.891 40.0548 143.758 42.5731 143.758 45.224V48.9352C143.758 51.4535 143.891 53.9718 144.156 56.3576C144.553 58.8759 145.216 61.6594 146.276 64.7079C147.469 67.8889 148.927 70.6723 150.65 73.3232C152.506 75.9741 155.157 78.6249 158.338 81.2758C161.651 83.9267 165.495 86.0474 169.737 87.903C174.11 89.7586 179.545 91.2166 186.039 92.4095C192.534 93.4698 199.691 94 207.644 94H429.655C437.475 94 444.632 93.4698 451.127 92.4095C457.621 91.2166 463.056 89.7586 467.297 87.903C471.671 86.0474 475.382 83.9267 478.696 81.2758C482.009 78.6249 484.528 75.9741 486.383 73.3232C488.106 70.6723 489.564 67.8889 490.757 64.7079C491.817 61.6594 492.613 58.8759 492.878 56.3576C493.275 53.9718 493.408 51.4535 493.408 48.9352V45.224C493.408 42.5731 493.275 40.0548 492.878 37.5364ZM463.586 47.7423C463.586 50.6582 463.188 53.4417 462.128 56.0925C461.067 58.6109 459.344 61.2617 456.826 63.7801C454.308 66.2984 450.464 68.2865 445.427 69.8771C440.788 71.2025 435.089 71.9978 428.594 72.1303C428.064 72.1303 210.693 72.1303 210.162 72.1303C202.872 72.1303 196.643 71.335 191.474 69.7445C186.437 68.2865 182.593 66.1658 180.207 63.6475C177.689 60.9966 175.966 58.3458 175.038 55.8274C173.978 53.1766 173.448 50.5257 173.448 47.6097V46.1518C173.448 30.2465 185.642 22.4265 210.162 22.4265C210.693 22.4265 428.064 22.4265 428.594 22.4265C433.896 22.559 438.535 22.9566 442.511 23.8844C447.018 24.9448 450.596 26.2702 453.115 27.7282C455.766 29.3187 457.886 31.1743 459.477 33.295C461.067 35.5483 462.26 37.669 462.79 39.6571C463.321 41.6453 463.586 43.766 463.586 46.1518V47.7423ZM505.498 94.1325H535.851V29.8489L575.747 94.1325H592.712L632.475 29.8489V94.1325H663.756V1.35202H620.414L585.29 59.141L550.431 1.35202H505.498V94.1325ZM679.85 1.08694V94H788.006V72.3954H711.13V57.1529H784.825V35.9459H711.13V22.1614H786.548V1.08694H679.85Z" fill="white"/>
</svg>
